<?xml version="1.0" encoding="UTF-8" standalone="no"?>
<!DOCTYPE svg PUBLIC "-//W3C//DTD SVG 1.1//EN" "http://www.w3.org/Graphics/SVG/1.1/DTD/svg11.dtd">
<svg xmlns="http://www.w3.org/2000/svg" version="1.1" viewBox="0.00 0.00 59.00 66.00" width="40" height="40">
<g stroke-width="2.00" fill="none" stroke-linecap="butt">
<path stroke="#909091" vector-effect="non-scaling-stroke" d="
  M 13.88 26.37
  Q 12.92 19.70 8.27 15.05
  Q 7.08 13.86 6.28 13.61
  Q 4.65 13.09 3.45 13.64
  C 1.03 14.75 2.54 19.47 3.57 21.25
  Q 4.26 22.47 4.48 23.32
  Q 4.59 23.77 5.11 25.44
  Q 5.53 26.78 5.22 28.17
  Q 4.75 30.33 4.44 30.94
  Q 1.48 36.71 0.86 39.12
  Q -0.08 42.72 0.79 48.16
  Q 1.34 51.63 3.80 54.91
  Q 6.97 59.13 8.78 60.47
  Q 18.28 67.47 29.42 63.37
  Q 29.81 63.23 30.02 62.87
  Q 30.16 62.62 30.32 62.49
  Q 30.73 62.15 31.14 62.49
  Q 33.46 64.39 35.99 63.50
  Q 36.48 63.33 36.79 63.75
  Q 37.92 65.28 39.36 64.56
  Q 40.81 63.84 42.10 61.15
  Q 42.12 61.11 45.97 49.49
  Q 46.87 46.76 50.52 40.53
  Q 52.26 37.57 54.78 28.60
  C 56.42 22.73 54.87 17.11 52.41 11.62
  Q 51.47 9.52 49.56 7.07
  Q 47.98 5.04 46.69 2.27
  A 2.16 2.16 0.0 0 0 42.82 2.19
  C 42.29 3.21 41.69 5.57 39.82 5.42
  A 1.36 1.35 -7.1 0 1 38.67 4.53
  L 37.68 1.74
  Q 37.50 1.21 36.94 1.15
  C 33.26 0.76 33.04 3.79 32.16 6.53
  A 1.18 1.15 -4.6 0 1 31.56 7.22
  Q 27.49 9.16 26.36 13.78
  Q 26.24 14.27 25.74 14.21
  Q 23.19 13.94 21.14 14.42
  Q 20.32 14.61 19.61 15.50
  Q 19.54 15.58 19.43 15.81
  Q 18.98 16.75 20.05 16.67
  L 25.33 16.28
  Q 25.67 16.26 25.67 16.60
  L 25.67 16.92
  A 0.26 0.26 0.0 0 1 25.38 17.18
  Q 22.51 16.87 21.27 18.80
  A 0.52 0.51 16.1 0 0 21.71 19.59
  Q 23.88 19.59 25.50 19.29
  Q 25.67 19.25 25.83 19.45
  Q 26.05 19.72 25.72 19.85
  Q 19.30 22.27 14.34 26.54
  Q 13.95 26.88 13.88 26.37"
/>
<path stroke="#909091" vector-effect="non-scaling-stroke" d="
  M 36.80 50.29
  Q 36.87 50.29 36.88 50.36
  Q 37.06 53.83 37.09 59.00
  Q 37.10 60.26 37.77 62.30
  A 1.03 1.03 0.0 0 0 39.60 62.56
  Q 40.69 60.98 41.16 59.47
  C 42.97 53.63 44.08 49.65 46.44 45.08
  Q 47.53 42.95 50.64 36.61
  Q 58.58 20.40 47.23 6.19
  Q 46.47 5.24 45.66 3.45
  Q 45.27 2.60 44.63 2.61
  Q 44.11 2.61 43.98 3.11
  Q 43.21 5.97 42.18 6.45
  Q 37.60 8.61 36.71 3.13
  Q 36.57 2.25 35.79 2.68
  C 34.27 3.53 34.09 6.06 33.58 7.10
  Q 33.05 8.19 31.82 8.95
  Q 28.30 11.16 27.27 16.13
  Q 26.94 17.76 27.68 19.39
  Q 28.98 22.23 29.10 22.48
  Q 29.18 22.66 29.00 22.73
  L 28.62 22.86
  A 0.24 0.23 -16.8 0 1 28.31 22.70
  Q 28.08 21.75 27.54 21.19
  Q 27.15 20.78 26.62 21.00
  Q 16.11 25.26 8.88 34.16
  Q 1.15 43.68 6.40 54.38
  Q 11.04 63.84 22.52 63.31
  Q 25.72 63.16 28.18 62.45
  A 1.58 1.58 0.0 0 0 29.32 60.80
  Q 29.11 58.37 26.51 57.78
  A 0.72 0.71 21.2 0 1 26.04 56.73
  Q 27.77 53.63 26.08 50.36
  Q 25.93 50.09 26.24 50.09
  L 26.55 50.09
  Q 26.62 50.09 26.64 50.15
  Q 27.22 51.72 28.12 53.53
  C 29.80 56.95 29.65 62.09 34.47 62.20
  Q 36.01 62.24 36.15 60.70
  Q 36.69 54.56 36.43 50.41
  A 0.11 0.11 0.0 0 1 36.54 50.29
  L 36.80 50.29"
/>
<path stroke="#909091" vector-effect="non-scaling-stroke" d="
  M 4.06 50.13
  Q 2.69 42.61 6.36 36.15
  Q 6.72 35.51 10.91 30.42
  C 12.12 28.94 12.57 27.60 12.26 25.83
  Q 11.19 19.87 7.51 16.11
  Q 5.13 13.68 3.65 15.69
  A 1.43 1.42 -38.4 0 0 3.48 17.10
  Q 5.76 22.49 6.00 23.09
  C 6.87 25.24 7.30 27.94 6.52 29.72
  Q 4.28 34.84 3.54 36.52
  Q -0.16 45.02 4.37 52.79
  Q 4.81 53.55 4.93 52.68
  Q 5.02 52.01 4.53 51.39
  Q 4.21 50.99 4.06 50.13"
/>
<path stroke="#909091" vector-effect="non-scaling-stroke" d="
  M 32.3855 14.1438
  A 1.06 0.56 96.2 0 0 33.0567 13.1505
  A 1.06 0.56 96.2 0 0 32.6145 12.0362
  A 1.06 0.56 96.2 0 0 31.9433 13.0295
  A 1.06 0.56 96.2 0 0 32.3855 14.1438"
/>
<path stroke="#909091" vector-effect="non-scaling-stroke" d="
  M 41.2959 14.2386
  A 1.07 0.59 92.9 0 0 41.9392 13.1998
  A 1.07 0.59 92.9 0 0 41.4041 12.1014
  A 1.07 0.59 92.9 0 0 40.7608 13.1402
  A 1.07 0.59 92.9 0 0 41.2959 14.2386"
/>
<path stroke="#909091" vector-effect="non-scaling-stroke" d="
  M 47.12 14.92
  Q 48.23 14.82 49.39 14.85
  A 0.21 0.21 0.0 0 0 49.51 14.46
  Q 48.76 13.97 47.05 14.13
  Q 45.33 14.28 44.68 14.90
  A 0.21 0.21 0.0 0 0 44.87 15.26
  Q 46.01 15.02 47.12 14.92"
/>
<path stroke="#909091" vector-effect="non-scaling-stroke" d="
  M 36.29 16.21
  A 0.40 0.39 -48.1 0 0 36.32 16.88
  Q 37.03 17.25 37.20 16.69
  A 0.44 0.42 39.5 0 0 37.16 16.36
  Q 36.83 15.84 36.29 16.21"
/>
<path stroke="#909091" vector-effect="non-scaling-stroke" d="
  M 44.51 18.34
  Q 46.86 17.73 49.44 17.93
  Q 49.54 17.94 49.57 17.88
  L 49.74 17.51
  Q 49.88 17.22 49.61 17.17
  Q 46.17 16.63 44.35 18.00
  A 0.19 0.19 0.0 0 0 44.51 18.34"
/>
</g>
<path fill="#ffffff" fill-opacity="0" d="
  M 59.00 0.00
  L 59.00 66.00
  L 0.00 66.00
  L 0.00 0.00
  L 59.00 0.00
  Z
  M 13.88 26.37
  Q 12.92 19.70 8.27 15.05
  Q 7.08 13.86 6.28 13.61
  Q 4.65 13.09 3.45 13.64
  C 1.03 14.75 2.54 19.47 3.57 21.25
  Q 4.26 22.47 4.48 23.32
  Q 4.59 23.77 5.11 25.44
  Q 5.53 26.78 5.22 28.17
  Q 4.75 30.33 4.44 30.94
  Q 1.48 36.71 0.86 39.12
  Q -0.08 42.72 0.79 48.16
  Q 1.34 51.63 3.80 54.91
  Q 6.97 59.13 8.78 60.47
  Q 18.28 67.47 29.42 63.37
  Q 29.81 63.23 30.02 62.87
  Q 30.16 62.62 30.32 62.49
  Q 30.73 62.15 31.14 62.49
  Q 33.46 64.39 35.99 63.50
  Q 36.48 63.33 36.79 63.75
  Q 37.92 65.28 39.36 64.56
  Q 40.81 63.84 42.10 61.15
  Q 42.12 61.11 45.97 49.49
  Q 46.87 46.76 50.52 40.53
  Q 52.26 37.57 54.78 28.60
  C 56.42 22.73 54.87 17.11 52.41 11.62
  Q 51.47 9.52 49.56 7.07
  Q 47.98 5.04 46.69 2.27
  A 2.16 2.16 0.0 0 0 42.82 2.19
  C 42.29 3.21 41.69 5.57 39.82 5.42
  A 1.36 1.35 -7.1 0 1 38.67 4.53
  L 37.68 1.74
  Q 37.50 1.21 36.94 1.15
  C 33.26 0.76 33.04 3.79 32.16 6.53
  A 1.18 1.15 -4.6 0 1 31.56 7.22
  Q 27.49 9.16 26.36 13.78
  Q 26.24 14.27 25.74 14.21
  Q 23.19 13.94 21.14 14.42
  Q 20.32 14.61 19.61 15.50
  Q 19.54 15.58 19.43 15.81
  Q 18.98 16.75 20.05 16.67
  L 25.33 16.28
  Q 25.67 16.26 25.67 16.60
  L 25.67 16.92
  A 0.26 0.26 0.0 0 1 25.38 17.18
  Q 22.51 16.87 21.27 18.80
  A 0.52 0.51 16.1 0 0 21.71 19.59
  Q 23.88 19.59 25.50 19.29
  Q 25.67 19.25 25.83 19.45
  Q 26.05 19.72 25.72 19.85
  Q 19.30 22.27 14.34 26.54
  Q 13.95 26.88 13.88 26.37
  Z"
/>
<path fill="#202022" d="
  M 14.34 26.54
  Q 19.30 22.27 25.72 19.85
  Q 26.05 19.72 25.83 19.45
  Q 25.67 19.25 25.50 19.29
  Q 23.88 19.59 21.71 19.59
  A 0.52 0.51 16.1 0 1 21.27 18.80
  Q 22.51 16.87 25.38 17.18
  A 0.26 0.26 0.0 0 0 25.67 16.92
  L 25.67 16.60
  Q 25.67 16.26 25.33 16.28
  L 20.05 16.67
  Q 18.98 16.75 19.43 15.81
  Q 19.54 15.58 19.61 15.50
  Q 20.32 14.61 21.14 14.42
  Q 23.19 13.94 25.74 14.21
  Q 26.24 14.27 26.36 13.78
  Q 27.49 9.16 31.56 7.22
  A 1.18 1.15 -4.6 0 0 32.16 6.53
  C 33.04 3.79 33.26 0.76 36.94 1.15
  Q 37.50 1.21 37.68 1.74
  L 38.67 4.53
  A 1.36 1.35 -7.1 0 0 39.82 5.42
  C 41.69 5.57 42.29 3.21 42.82 2.19
  A 2.16 2.16 0.0 0 1 46.69 2.27
  Q 47.98 5.04 49.56 7.07
  Q 51.47 9.52 52.41 11.62
  C 54.87 17.11 56.42 22.73 54.78 28.60
  Q 52.26 37.57 50.52 40.53
  Q 46.87 46.76 45.97 49.49
  Q 42.12 61.11 42.10 61.15
  Q 40.81 63.84 39.36 64.56
  Q 37.92 65.28 36.79 63.75
  Q 36.48 63.33 35.99 63.50
  Q 33.46 64.39 31.14 62.49
  Q 30.73 62.15 30.32 62.49
  Q 30.16 62.62 30.02 62.87
  Q 29.81 63.23 29.42 63.37
  Q 18.28 67.47 8.78 60.47
  Q 6.97 59.13 3.80 54.91
  Q 1.34 51.63 0.79 48.16
  Q -0.08 42.72 0.86 39.12
  Q 1.48 36.71 4.44 30.94
  Q 4.75 30.33 5.22 28.17
  Q 5.53 26.78 5.11 25.44
  Q 4.59 23.77 4.48 23.32
  Q 4.26 22.47 3.57 21.25
  C 2.54 19.47 1.03 14.75 3.45 13.64
  Q 4.65 13.09 6.28 13.61
  Q 7.08 13.86 8.27 15.05
  Q 12.92 19.70 13.88 26.37
  Q 13.95 26.88 14.34 26.54
  Z
  M 36.80 50.29
  Q 36.87 50.29 36.88 50.36
  Q 37.06 53.83 37.09 59.00
  Q 37.10 60.26 37.77 62.30
  A 1.03 1.03 0.0 0 0 39.60 62.56
  Q 40.69 60.98 41.16 59.47
  C 42.97 53.63 44.08 49.65 46.44 45.08
  Q 47.53 42.95 50.64 36.61
  Q 58.58 20.40 47.23 6.19
  Q 46.47 5.24 45.66 3.45
  Q 45.27 2.60 44.63 2.61
  Q 44.11 2.61 43.98 3.11
  Q 43.21 5.97 42.18 6.45
  Q 37.60 8.61 36.71 3.13
  Q 36.57 2.25 35.79 2.68
  C 34.27 3.53 34.09 6.06 33.58 7.10
  Q 33.05 8.19 31.82 8.95
  Q 28.30 11.16 27.27 16.13
  Q 26.94 17.76 27.68 19.39
  Q 28.98 22.23 29.10 22.48
  Q 29.18 22.66 29.00 22.73
  L 28.62 22.86
  A 0.24 0.23 -16.8 0 1 28.31 22.70
  Q 28.08 21.75 27.54 21.19
  Q 27.15 20.78 26.62 21.00
  Q 16.11 25.26 8.88 34.16
  Q 1.15 43.68 6.40 54.38
  Q 11.04 63.84 22.52 63.31
  Q 25.72 63.16 28.18 62.45
  A 1.58 1.58 0.0 0 0 29.32 60.80
  Q 29.11 58.37 26.51 57.78
  A 0.72 0.71 21.2 0 1 26.04 56.73
  Q 27.77 53.63 26.08 50.36
  Q 25.93 50.09 26.24 50.09
  L 26.55 50.09
  Q 26.62 50.09 26.64 50.15
  Q 27.22 51.72 28.12 53.53
  C 29.80 56.95 29.65 62.09 34.47 62.20
  Q 36.01 62.24 36.15 60.70
  Q 36.69 54.56 36.43 50.41
  A 0.11 0.11 0.0 0 1 36.54 50.29
  L 36.80 50.29
  Z
  M 4.06 50.13
  Q 2.69 42.61 6.36 36.15
  Q 6.72 35.51 10.91 30.42
  C 12.12 28.94 12.57 27.60 12.26 25.83
  Q 11.19 19.87 7.51 16.11
  Q 5.13 13.68 3.65 15.69
  A 1.43 1.42 -38.4 0 0 3.48 17.10
  Q 5.76 22.49 6.00 23.09
  C 6.87 25.24 7.30 27.94 6.52 29.72
  Q 4.28 34.84 3.54 36.52
  Q -0.16 45.02 4.37 52.79
  Q 4.81 53.55 4.93 52.68
  Q 5.02 52.01 4.53 51.39
  Q 4.21 50.99 4.06 50.13
  Z"
/>
<path fill="#ffffff" d="
  M 36.43 50.41
  Q 36.69 54.56 36.15 60.70
  Q 36.01 62.24 34.47 62.20
  C 29.65 62.09 29.80 56.95 28.12 53.53
  Q 27.22 51.72 26.64 50.15
  Q 26.62 50.09 26.55 50.09
  L 26.24 50.09
  Q 25.93 50.09 26.08 50.36
  Q 27.77 53.63 26.04 56.73
  A 0.72 0.71 21.2 0 0 26.51 57.78
  Q 29.11 58.37 29.32 60.80
  A 1.58 1.58 0.0 0 1 28.18 62.45
  Q 25.72 63.16 22.52 63.31
  Q 11.04 63.84 6.40 54.38
  Q 1.15 43.68 8.88 34.16
  Q 16.11 25.26 26.62 21.00
  Q 27.15 20.78 27.54 21.19
  Q 28.08 21.75 28.31 22.70
  A 0.24 0.23 -16.8 0 0 28.62 22.86
  L 29.00 22.73
  Q 29.18 22.66 29.10 22.48
  Q 28.98 22.23 27.68 19.39
  Q 26.94 17.76 27.27 16.13
  Q 28.30 11.16 31.82 8.95
  Q 33.05 8.19 33.58 7.10
  C 34.09 6.06 34.27 3.53 35.79 2.68
  Q 36.57 2.25 36.71 3.13
  Q 37.60 8.61 42.18 6.45
  Q 43.21 5.97 43.98 3.11
  Q 44.11 2.61 44.63 2.61
  Q 45.27 2.60 45.66 3.45
  Q 46.47 5.24 47.23 6.19
  Q 58.58 20.40 50.64 36.61
  Q 47.53 42.95 46.44 45.08
  C 44.08 49.65 42.97 53.63 41.16 59.47
  Q 40.69 60.98 39.60 62.56
  A 1.03 1.03 0.0 0 1 37.77 62.30
  Q 37.10 60.26 37.09 59.00
  Q 37.06 53.83 36.88 50.36
  Q 36.87 50.29 36.80 50.29
  L 36.54 50.29
  A 0.11 0.11 0.0 0 0 36.43 50.41
  Z
  M 32.3855 14.1438
  A 1.06 0.56 96.2 0 0 33.0567 13.1505
  A 1.06 0.56 96.2 0 0 32.6145 12.0362
  A 1.06 0.56 96.2 0 0 31.9433 13.0295
  A 1.06 0.56 96.2 0 0 32.3855 14.1438
  Z
  M 41.2959 14.2386
  A 1.07 0.59 92.9 0 0 41.9392 13.1998
  A 1.07 0.59 92.9 0 0 41.4041 12.1014
  A 1.07 0.59 92.9 0 0 40.7608 13.1402
  A 1.07 0.59 92.9 0 0 41.2959 14.2386
  Z
  M 47.12 14.92
  Q 48.23 14.82 49.39 14.85
  A 0.21 0.21 0.0 0 0 49.51 14.46
  Q 48.76 13.97 47.05 14.13
  Q 45.33 14.28 44.68 14.90
  A 0.21 0.21 0.0 0 0 44.87 15.26
  Q 46.01 15.02 47.12 14.92
  Z
  M 36.29 16.21
  A 0.40 0.39 -48.1 0 0 36.32 16.88
  Q 37.03 17.25 37.20 16.69
  A 0.44 0.42 39.5 0 0 37.16 16.36
  Q 36.83 15.84 36.29 16.21
  Z
  M 44.51 18.34
  Q 46.86 17.73 49.44 17.93
  Q 49.54 17.94 49.57 17.88
  L 49.74 17.51
  Q 49.88 17.22 49.61 17.17
  Q 46.17 16.63 44.35 18.00
  A 0.19 0.19 0.0 0 0 44.51 18.34
  Z"
/>
<ellipse fill="#202022" cx="0.00" cy="0.00" transform="translate(32.50,13.09) rotate(96.2)" rx="1.06" ry="0.56"/>
<ellipse fill="#202022" cx="0.00" cy="0.00" transform="translate(41.35,13.17) rotate(92.9)" rx="1.07" ry="0.59"/>
<path fill="#202022" d="
  M 47.12 14.92
  Q 46.01 15.02 44.87 15.26
  A 0.21 0.21 0.0 0 1 44.68 14.90
  Q 45.33 14.28 47.05 14.13
  Q 48.76 13.97 49.51 14.46
  A 0.21 0.21 0.0 0 1 49.39 14.85
  Q 48.23 14.82 47.12 14.92
  Z"
/>
<path fill="#ffffff" d="
  M 4.53 51.39
  Q 5.02 52.01 4.93 52.68
  Q 4.81 53.55 4.37 52.79
  Q -0.16 45.02 3.54 36.52
  Q 4.28 34.84 6.52 29.72
  C 7.30 27.94 6.87 25.24 6.00 23.09
  Q 5.76 22.49 3.48 17.10
  A 1.43 1.42 -38.4 0 1 3.65 15.69
  Q 5.13 13.68 7.51 16.11
  Q 11.19 19.87 12.26 25.83
  C 12.57 27.60 12.12 28.94 10.91 30.42
  Q 6.72 35.51 6.36 36.15
  Q 2.69 42.61 4.06 50.13
  Q 4.21 50.99 4.53 51.39
  Z"
/>
<path fill="#202022" d="
  M 36.29 16.21
  Q 36.83 15.84 37.16 16.36
  A 0.44 0.42 39.5 0 1 37.20 16.69
  Q 37.03 17.25 36.32 16.88
  A 0.40 0.39 -48.1 0 1 36.29 16.21
  Z"
/>
<path fill="#202022" d="
  M 44.51 18.34
  A 0.19 0.19 0.0 0 1 44.35 18.00
  Q 46.17 16.63 49.61 17.17
  Q 49.88 17.22 49.74 17.51
  L 49.57 17.88
  Q 49.54 17.94 49.44 17.93
  Q 46.86 17.73 44.51 18.34
  Z"
/>
</svg>
