<?xml version="1.0" encoding="UTF-8" standalone="no"?>
<!DOCTYPE svg PUBLIC "-//W3C//DTD SVG 1.1//EN" "http://www.w3.org/Graphics/SVG/1.1/DTD/svg11.dtd">
<svg xmlns="http://www.w3.org/2000/svg" version="1.1" viewBox="0.00 0.00 36.00 51.00" width="40" height="40">
<g stroke-width="2.00" fill="none" stroke-linecap="butt">
<path stroke="#c5c5c6" vector-effect="non-scaling-stroke" d="
  M 19.43 16.90
  A 0.39 0.39 0.0 0 1 20.15 17.10
  Q 20.37 21.86 19.77 25.01
  Q 18.98 29.18 19.00 31.81
  Q 19.06 38.43 19.07 38.70
  C 19.08 40.69 17.95 42.17 18.50 44.19
  Q 19.00 46.02 18.97 48.27
  Q 18.97 48.83 19.53 48.83
  L 31.99 48.83
  A 1.33 1.30 22.4 0 0 32.91 48.46
  C 34.61 46.78 35.14 44.70 33.65 42.77
  C 32.66 41.48 31.99 40.67 31.62 39.30
  C 31.02 37.08 29.89 33.35 29.89 30.17
  Q 29.88 18.63 29.85 7.62
  Q 29.85 6.14 29.57 4.91
  C 28.87 1.72 26.65 -0.36 23.43 1.98
  Q 17.26 6.47 9.98 11.12
  C 8.31 12.19 6.97 12.09 4.69 12.37
  A 1.79 1.69 -66.9 0 0 3.79 12.76
  Q 1.83 14.40 1.99 17.65
  Q 2.08 19.72 4.33 21.21
  Q 7.38 23.22 9.95 23.62
  Q 10.42 23.69 10.86 23.48
  Q 13.03 22.43 13.85 22.14
  C 16.82 21.10 17.72 19.45 19.43 16.90"
/>
<path stroke="#c5c5c6" vector-effect="non-scaling-stroke" d="
  M 20.68 16.07
  Q 21.13 22.36 20.63 26.51
  C 20.13 30.65 20.37 34.83 20.37 39.51
  C 20.38 40.27 20.10 40.99 20.00 41.68
  Q 19.92 42.16 20.13 42.60
  Q 21.03 44.53 20.76 46.35
  A 1.31 1.30 4.7 0 0 22.03 47.84
  Q 23.35 47.87 29.59 48.07
  Q 32.74 48.17 33.39 45.32
  Q 33.51 44.82 33.26 44.36
  Q 32.48 42.96 31.23 42.05
  Q 30.82 41.76 30.73 41.26
  C 29.80 36.39 29.22 33.57 29.12 28.88
  C 29.00 23.36 28.32 17.75 28.25 12.41
  C 28.19 8.18 28.88 4.57 27.45 3.00
  A 2.44 2.38 -37.6 0 0 24.36 2.64
  Q 18.27 6.61 10.69 12.19
  C 8.74 13.62 5.47 12.66 4.00 14.09
  Q 2.38 15.68 3.27 18.53
  A 1.43 1.39 8.6 0 0 3.85 19.29
  Q 6.53 20.98 8.30 21.97
  C 10.71 23.33 11.93 21.82 14.10 20.65
  Q 15.58 19.86 16.20 19.08
  Q 17.74 17.15 19.73 15.64
  A 0.59 0.59 0.0 0 1 20.68 16.07"
/>
<path stroke="#c5c5c6" vector-effect="non-scaling-stroke" d="
  M 6.81 17.05
  Q 7.06 16.63 7.50 16.37
  Q 7.94 16.12 7.74 15.65
  Q 7.49 15.05 6.10 15.34
  A 2.08 1.50 -54.2 0 0 5.74 15.46
  Q 3.68 16.38 5.45 18.05
  A 0.79 0.49 26.4 0 0 6.69 17.93
  Q 6.68 17.85 6.70 17.48
  Q 6.72 17.20 6.81 17.05"
/>
<path stroke="#c5c5c6" vector-effect="non-scaling-stroke" d="
  M 11.4629 19.8691
  A 1.17 0.91 9.8 0 0 10.4649 18.7733
  A 1.17 0.91 9.8 0 0 9.1571 19.4709
  A 1.17 0.91 9.8 0 0 10.1551 20.5667
  A 1.17 0.91 9.8 0 0 11.4629 19.8691"
/>
<path stroke="#c5c5c6" vector-effect="non-scaling-stroke" d="
  M 22.95 46.13
  L 30.39 46.09
  A 0.67 0.67 0.0 0 0 31.05 45.42
  L 31.05 45.05
  A 2.00 1.82 89.7 0 0 29.22 43.06
  L 24.08 43.08
  A 2.00 1.82 89.7 0 0 22.27 45.09
  L 22.27 45.46
  A 0.67 0.67 0.0 0 0 22.95 46.13"
/>
</g>
<path fill="#ffffff" fill-opacity="0"  d="
  M 36.00 0.00
  L 36.00 51.00
  L 0.00 51.00
  L 0.00 0.00
  L 36.00 0.00
  Z
  M 19.43 16.90
  A 0.39 0.39 0.0 0 1 20.15 17.10
  Q 20.37 21.86 19.77 25.01
  Q 18.98 29.18 19.00 31.81
  Q 19.06 38.43 19.07 38.70
  C 19.08 40.69 17.95 42.17 18.50 44.19
  Q 19.00 46.02 18.97 48.27
  Q 18.97 48.83 19.53 48.83
  L 31.99 48.83
  A 1.33 1.30 22.4 0 0 32.91 48.46
  C 34.61 46.78 35.14 44.70 33.65 42.77
  C 32.66 41.48 31.99 40.67 31.62 39.30
  C 31.02 37.08 29.89 33.35 29.89 30.17
  Q 29.88 18.63 29.85 7.62
  Q 29.85 6.14 29.57 4.91
  C 28.87 1.72 26.65 -0.36 23.43 1.98
  Q 17.26 6.47 9.98 11.12
  C 8.31 12.19 6.97 12.09 4.69 12.37
  A 1.79 1.69 -66.9 0 0 3.79 12.76
  Q 1.83 14.40 1.99 17.65
  Q 2.08 19.72 4.33 21.21
  Q 7.38 23.22 9.95 23.62
  Q 10.42 23.69 10.86 23.48
  Q 13.03 22.43 13.85 22.14
  C 16.82 21.10 17.72 19.45 19.43 16.90
  Z"
/>
<path fill="#8b8b8d" d="
  M 19.43 16.90
  C 17.72 19.45 16.82 21.10 13.85 22.14
  Q 13.03 22.43 10.86 23.48
  Q 10.42 23.69 9.95 23.62
  Q 7.38 23.22 4.33 21.21
  Q 2.08 19.72 1.99 17.65
  Q 1.83 14.40 3.79 12.76
  A 1.79 1.69 -66.9 0 1 4.69 12.37
  C 6.97 12.09 8.31 12.19 9.98 11.12
  Q 17.26 6.47 23.43 1.98
  C 26.65 -0.36 28.87 1.72 29.57 4.91
  Q 29.85 6.14 29.85 7.62
  Q 29.88 18.63 29.89 30.17
  C 29.89 33.35 31.02 37.08 31.62 39.30
  C 31.99 40.67 32.66 41.48 33.65 42.77
  C 35.14 44.70 34.61 46.78 32.91 48.46
  A 1.33 1.30 22.4 0 1 31.99 48.83
  L 19.53 48.83
  Q 18.97 48.83 18.97 48.27
  Q 19.00 46.02 18.50 44.19
  C 17.95 42.17 19.08 40.69 19.07 38.70
  Q 19.06 38.43 19.00 31.81
  Q 18.98 29.18 19.77 25.01
  Q 20.37 21.86 20.15 17.10
  A 0.39 0.39 0.0 0 0 19.43 16.90
  Z
  M 20.68 16.07
  Q 21.13 22.36 20.63 26.51
  C 20.13 30.65 20.37 34.83 20.37 39.51
  C 20.38 40.27 20.10 40.99 20.00 41.68
  Q 19.92 42.16 20.13 42.60
  Q 21.03 44.53 20.76 46.35
  A 1.31 1.30 4.7 0 0 22.03 47.84
  Q 23.35 47.87 29.59 48.07
  Q 32.74 48.17 33.39 45.32
  Q 33.51 44.82 33.26 44.36
  Q 32.48 42.96 31.23 42.05
  Q 30.82 41.76 30.73 41.26
  C 29.80 36.39 29.22 33.57 29.12 28.88
  C 29.00 23.36 28.32 17.75 28.25 12.41
  C 28.19 8.18 28.88 4.57 27.45 3.00
  A 2.44 2.38 -37.6 0 0 24.36 2.64
  Q 18.27 6.61 10.69 12.19
  C 8.74 13.62 5.47 12.66 4.00 14.09
  Q 2.38 15.68 3.27 18.53
  A 1.43 1.39 8.6 0 0 3.85 19.29
  Q 6.53 20.98 8.30 21.97
  C 10.71 23.33 11.93 21.82 14.10 20.65
  Q 15.58 19.86 16.20 19.08
  Q 17.74 17.15 19.73 15.64
  A 0.59 0.59 0.0 0 1 20.68 16.07
  Z"
/>
<path fill="#ffffff" d="
  M 20.68 16.07
  A 0.59 0.59 0.0 0 0 19.73 15.64
  Q 17.74 17.15 16.20 19.08
  Q 15.58 19.86 14.10 20.65
  C 11.93 21.82 10.71 23.33 8.30 21.97
  Q 6.53 20.98 3.85 19.29
  A 1.43 1.39 8.6 0 1 3.27 18.53
  Q 2.38 15.68 4.00 14.09
  C 5.47 12.66 8.74 13.62 10.69 12.19
  Q 18.27 6.61 24.36 2.64
  A 2.44 2.38 -37.6 0 1 27.45 3.00
  C 28.88 4.57 28.19 8.18 28.25 12.41
  C 28.32 17.75 29.00 23.36 29.12 28.88
  C 29.22 33.57 29.80 36.39 30.73 41.26
  Q 30.82 41.76 31.23 42.05
  Q 32.48 42.96 33.26 44.36
  Q 33.51 44.82 33.39 45.32
  Q 32.74 48.17 29.59 48.07
  Q 23.35 47.87 22.03 47.84
  A 1.31 1.30 4.7 0 1 20.76 46.35
  Q 21.03 44.53 20.13 42.60
  Q 19.92 42.16 20.00 41.68
  C 20.10 40.99 20.38 40.27 20.37 39.51
  C 20.37 34.83 20.13 30.65 20.63 26.51
  Q 21.13 22.36 20.68 16.07
  Z
  M 6.81 17.05
  Q 7.06 16.63 7.50 16.37
  Q 7.94 16.12 7.74 15.65
  Q 7.49 15.05 6.10 15.34
  A 2.08 1.50 -54.2 0 0 5.74 15.46
  Q 3.68 16.38 5.45 18.05
  A 0.79 0.49 26.4 0 0 6.69 17.93
  Q 6.68 17.85 6.70 17.48
  Q 6.72 17.20 6.81 17.05
  Z
  M 11.4629 19.8691
  A 1.17 0.91 9.8 0 0 10.4649 18.7733
  A 1.17 0.91 9.8 0 0 9.1571 19.4709
  A 1.17 0.91 9.8 0 0 10.1551 20.5667
  A 1.17 0.91 9.8 0 0 11.4629 19.8691
  Z
  M 22.95 46.13
  L 30.39 46.09
  A 0.67 0.67 0.0 0 0 31.05 45.42
  L 31.05 45.05
  A 2.00 1.82 89.7 0 0 29.22 43.06
  L 24.08 43.08
  A 2.00 1.82 89.7 0 0 22.27 45.09
  L 22.27 45.46
  A 0.67 0.67 0.0 0 0 22.95 46.13
  Z"
/>
<path fill="#8b8b8d" d="
  M 6.70 17.48
  Q 6.68 17.85 6.69 17.93
  A 0.79 0.49 26.4 0 1 5.45 18.05
  Q 3.68 16.38 5.74 15.46
  A 2.08 1.50 -54.2 0 1 6.10 15.34
  Q 7.49 15.05 7.74 15.65
  Q 7.94 16.12 7.50 16.37
  Q 7.06 16.63 6.81 17.05
  Q 6.72 17.20 6.70 17.48
  Z"
/>
<ellipse fill="#8b8b8d" cx="0.00" cy="0.00" transform="translate(10.31,19.67) rotate(9.8)" rx="1.17" ry="0.91"/>
<path fill="#8b8b8d" d="
  M 22.95 46.13
  A 0.67 0.67 0.0 0 1 22.27 45.46
  L 22.27 45.09
  A 2.00 1.82 89.7 0 1 24.08 43.08
  L 29.22 43.06
  A 2.00 1.82 89.7 0 1 31.05 45.05
  L 31.05 45.42
  A 0.67 0.67 0.0 0 1 30.39 46.09
  L 22.95 46.13
  Z"
/>
</svg>
