<?xml version="1.0" encoding="UTF-8" standalone="no"?>
<!DOCTYPE svg PUBLIC "-//W3C//DTD SVG 1.1//EN" "http://www.w3.org/Graphics/SVG/1.1/DTD/svg11.dtd">
<svg xmlns="http://www.w3.org/2000/svg" version="1.1" viewBox="0.00 0.00 40.00 49.00" width="40" height="40">
<g stroke-width="2.00" fill="none" stroke-linecap="butt">
<path stroke="#c2c1c3" vector-effect="non-scaling-stroke" d="
  M 31.48 23.75
  Q 35.78 19.93 34.40 14.45
  Q 33.03 8.98 27.64 7.38
  Q 20.75 5.34 15.49 5.25
  Q 13.37 5.21 12.34 4.51
  C 9.78 2.78 6.88 -0.52 3.54 2.12
  Q 2.06 3.30 2.07 5.89
  Q 2.10 10.64 2.09 12.81
  A 3.03 3.03 0.0 0 0 5.09 15.85
  Q 12.92 15.94 16.83 15.82
  Q 18.77 15.76 19.85 16.80
  Q 21.43 18.32 21.15 19.98
  Q 21.06 20.46 20.76 20.84
  Q 19.46 22.47 18.78 23.72
  Q 18.13 24.90 18.72 27.30
  Q 19.47 30.35 20.43 32.52
  Q 20.66 33.03 20.12 33.17
  C 17.49 33.86 15.78 32.74 13.36 31.30
  Q 12.92 31.04 12.57 31.42
  Q 10.56 33.61 7.86 33.11
  A 2.28 2.27 -84.7 0 0 5.17 35.35
  L 5.17 44.69
  Q 5.17 45.24 5.49 45.69
  Q 6.46 47.04 8.53 47.56
  Q 8.94 47.66 9.31 47.45
  L 13.13 45.25
  Q 13.56 45.00 14.04 45.12
  Q 20.73 46.77 27.72 45.40
  Q 29.98 44.96 31.25 43.97
  Q 37.95 38.78 35.06 31.20
  C 34.19 28.93 33.02 27.65 31.32 25.45
  Q 30.61 24.53 31.48 23.75"
/>
<path stroke="#c2c1c3" vector-effect="non-scaling-stroke" d="
  M 29.86 23.58
  C 30.81 22.50 32.38 21.43 32.96 20.01
  C 34.95 15.09 32.07 9.78 27.15 8.18
  Q 20.74 6.10 14.19 6.71
  A 2.75 2.75 0.0 0 1 12.02 5.95
  Q 11.09 5.06 8.63 3.47
  Q 7.39 2.67 6.47 2.84
  C 2.54 3.56 2.58 9.79 3.29 13.04
  Q 3.68 14.84 5.76 14.82
  Q 9.33 14.80 11.07 14.96
  C 13.47 15.19 17.06 14.32 18.99 15.03
  C 21.72 16.04 23.19 18.76 21.60 21.39
  C 20.88 22.59 19.51 24.18 19.63 25.78
  C 19.83 28.51 20.44 29.80 21.86 32.54
  A 1.39 1.39 0.0 0 1 20.83 34.56
  Q 16.69 35.16 13.70 32.63
  Q 13.24 32.24 12.84 32.70
  Q 11.20 34.58 8.71 33.90
  A 2.08 2.08 0.0 0 0 6.09 35.89
  Q 6.06 40.40 5.92 42.52
  C 5.79 44.43 6.70 45.90 8.46 46.41
  Q 8.94 46.55 9.38 46.32
  Q 10.58 45.72 11.65 44.58
  A 2.27 2.25 28.2 0 1 13.81 43.94
  C 19.98 45.40 28.14 46.09 32.55 40.64
  Q 36.48 35.78 33.45 30.37
  Q 31.77 27.34 29.92 25.48
  A 1.40 1.40 0.0 0 1 29.86 23.58"
/>
<path stroke="#c2c1c3" vector-effect="non-scaling-stroke" d="
  M 8.25 11.20
  Q 6.16 12.17 6.78 9.78
  L 7.82 5.78
  Q 8.06 4.88 6.90 4.73
  Q 6.88 4.73 6.86 4.72
  Q 5.86 4.68 5.53 5.63
  Q 4.30 9.21 5.27 12.93
  Q 5.40 13.41 5.86 13.32
  L 8.78 12.81
  A 0.75 0.66 -19.8 0 0 9.34 11.78
  Q 8.81 10.93 8.25 11.20"
/>
<path stroke="#c2c1c3" vector-effect="non-scaling-stroke" d="
  M 12.39 10.88
  Q 13.59 10.09 14.60 9.15
  Q 15.29 8.51 14.42 8.86
  Q 12.85 9.48 11.73 11.29
  Q 11.62 11.47 11.81 11.39
  Q 11.87 11.36 12.01 11.21
  Q 12.18 11.02 12.39 10.88"
/>
<path stroke="#c2c1c3" vector-effect="non-scaling-stroke" d="
  M 11.54 36.92
  A 0.26 0.26 0.0 0 0 11.55 36.45
  Q 10.57 35.98 9.32 35.91
  Q 8.73 35.87 8.39 36.36
  Q 7.89 37.09 7.90 37.96
  Q 7.96 42.08 8.00 43.89
  Q 8.01 44.41 8.50 44.61
  Q 8.90 44.77 9.30 44.55
  Q 9.74 44.31 9.91 43.63
  Q 10.56 41.06 9.44 38.55
  Q 9.15 37.90 11.54 36.92"
/>
</g>
<path fill="#ffffff" fill-opacity="0"  d="
  M 40.00 0.00
  L 40.00 49.00
  L 0.00 49.00
  L 0.00 0.00
  L 40.00 0.00
  Z
  M 31.48 23.75
  Q 35.78 19.93 34.40 14.45
  Q 33.03 8.98 27.64 7.38
  Q 20.75 5.34 15.49 5.25
  Q 13.37 5.21 12.34 4.51
  C 9.78 2.78 6.88 -0.52 3.54 2.12
  Q 2.06 3.30 2.07 5.89
  Q 2.10 10.64 2.09 12.81
  A 3.03 3.03 0.0 0 0 5.09 15.85
  Q 12.92 15.94 16.83 15.82
  Q 18.77 15.76 19.85 16.80
  Q 21.43 18.32 21.15 19.98
  Q 21.06 20.46 20.76 20.84
  Q 19.46 22.47 18.78 23.72
  Q 18.13 24.90 18.72 27.30
  Q 19.47 30.35 20.43 32.52
  Q 20.66 33.03 20.12 33.17
  C 17.49 33.86 15.78 32.74 13.36 31.30
  Q 12.92 31.04 12.57 31.42
  Q 10.56 33.61 7.86 33.11
  A 2.28 2.27 -84.7 0 0 5.17 35.35
  L 5.17 44.69
  Q 5.17 45.24 5.49 45.69
  Q 6.46 47.04 8.53 47.56
  Q 8.94 47.66 9.31 47.45
  L 13.13 45.25
  Q 13.56 45.00 14.04 45.12
  Q 20.73 46.77 27.72 45.40
  Q 29.98 44.96 31.25 43.97
  Q 37.95 38.78 35.06 31.20
  C 34.19 28.93 33.02 27.65 31.32 25.45
  Q 30.61 24.53 31.48 23.75
  Z"
/>
<path fill="#848386" d="
  M 31.48 23.75
  Q 30.61 24.53 31.32 25.45
  C 33.02 27.65 34.19 28.93 35.06 31.20
  Q 37.95 38.78 31.25 43.97
  Q 29.98 44.96 27.72 45.40
  Q 20.73 46.77 14.04 45.12
  Q 13.56 45.00 13.13 45.25
  L 9.31 47.45
  Q 8.94 47.66 8.53 47.56
  Q 6.46 47.04 5.49 45.69
  Q 5.17 45.24 5.17 44.69
  L 5.17 35.35
  A 2.28 2.27 -84.7 0 1 7.86 33.11
  Q 10.56 33.61 12.57 31.42
  Q 12.92 31.04 13.36 31.30
  C 15.78 32.74 17.49 33.86 20.12 33.17
  Q 20.66 33.03 20.43 32.52
  Q 19.47 30.35 18.72 27.30
  Q 18.13 24.90 18.78 23.72
  Q 19.46 22.47 20.76 20.84
  Q 21.06 20.46 21.15 19.98
  Q 21.43 18.32 19.85 16.80
  Q 18.77 15.76 16.83 15.82
  Q 12.92 15.94 5.09 15.85
  A 3.03 3.03 0.0 0 1 2.09 12.81
  Q 2.10 10.64 2.07 5.89
  Q 2.06 3.30 3.54 2.12
  C 6.88 -0.52 9.78 2.78 12.34 4.51
  Q 13.37 5.21 15.49 5.25
  Q 20.75 5.34 27.64 7.38
  Q 33.03 8.98 34.40 14.45
  Q 35.78 19.93 31.48 23.75
  Z
  M 29.86 23.58
  C 30.81 22.50 32.38 21.43 32.96 20.01
  C 34.95 15.09 32.07 9.78 27.15 8.18
  Q 20.74 6.10 14.19 6.71
  A 2.75 2.75 0.0 0 1 12.02 5.95
  Q 11.09 5.06 8.63 3.47
  Q 7.39 2.67 6.47 2.84
  C 2.54 3.56 2.58 9.79 3.29 13.04
  Q 3.68 14.84 5.76 14.82
  Q 9.33 14.80 11.07 14.96
  C 13.47 15.19 17.06 14.32 18.99 15.03
  C 21.72 16.04 23.19 18.76 21.60 21.39
  C 20.88 22.59 19.51 24.18 19.63 25.78
  C 19.83 28.51 20.44 29.80 21.86 32.54
  A 1.39 1.39 0.0 0 1 20.83 34.56
  Q 16.69 35.16 13.70 32.63
  Q 13.24 32.24 12.84 32.70
  Q 11.20 34.58 8.71 33.90
  A 2.08 2.08 0.0 0 0 6.09 35.89
  Q 6.06 40.40 5.92 42.52
  C 5.79 44.43 6.70 45.90 8.46 46.41
  Q 8.94 46.55 9.38 46.32
  Q 10.58 45.72 11.65 44.58
  A 2.27 2.25 28.2 0 1 13.81 43.94
  C 19.98 45.40 28.14 46.09 32.55 40.64
  Q 36.48 35.78 33.45 30.37
  Q 31.77 27.34 29.92 25.48
  A 1.40 1.40 0.0 0 1 29.86 23.58
  Z"
/>
<path fill="#ffffff" d="
  M 29.86 23.58
  A 1.40 1.40 0.0 0 0 29.92 25.48
  Q 31.77 27.34 33.45 30.37
  Q 36.48 35.78 32.55 40.64
  C 28.14 46.09 19.98 45.40 13.81 43.94
  A 2.27 2.25 28.2 0 0 11.65 44.58
  Q 10.58 45.72 9.38 46.32
  Q 8.94 46.55 8.46 46.41
  C 6.70 45.90 5.79 44.43 5.92 42.52
  Q 6.06 40.40 6.09 35.89
  A 2.08 2.08 0.0 0 1 8.71 33.90
  Q 11.20 34.58 12.84 32.70
  Q 13.24 32.24 13.70 32.63
  Q 16.69 35.16 20.83 34.56
  A 1.39 1.39 0.0 0 0 21.86 32.54
  C 20.44 29.80 19.83 28.51 19.63 25.78
  C 19.51 24.18 20.88 22.59 21.60 21.39
  C 23.19 18.76 21.72 16.04 18.99 15.03
  C 17.06 14.32 13.47 15.19 11.07 14.96
  Q 9.33 14.80 5.76 14.82
  Q 3.68 14.84 3.29 13.04
  C 2.58 9.79 2.54 3.56 6.47 2.84
  Q 7.39 2.67 8.63 3.47
  Q 11.09 5.06 12.02 5.95
  A 2.75 2.75 0.0 0 0 14.19 6.71
  Q 20.74 6.10 27.15 8.18
  C 32.07 9.78 34.95 15.09 32.96 20.01
  C 32.38 21.43 30.81 22.50 29.86 23.58
  Z
  M 8.25 11.20
  Q 6.16 12.17 6.78 9.78
  L 7.82 5.78
  Q 8.06 4.88 6.90 4.73
  Q 6.88 4.73 6.86 4.72
  Q 5.86 4.68 5.53 5.63
  Q 4.30 9.21 5.27 12.93
  Q 5.40 13.41 5.86 13.32
  L 8.78 12.81
  A 0.75 0.66 -19.8 0 0 9.34 11.78
  Q 8.81 10.93 8.25 11.20
  Z
  M 12.39 10.88
  Q 13.59 10.09 14.60 9.15
  Q 15.29 8.51 14.42 8.86
  Q 12.85 9.48 11.73 11.29
  Q 11.62 11.47 11.81 11.39
  Q 11.87 11.36 12.01 11.21
  Q 12.18 11.02 12.39 10.88
  Z
  M 11.54 36.92
  A 0.26 0.26 0.0 0 0 11.55 36.45
  Q 10.57 35.98 9.32 35.91
  Q 8.73 35.87 8.39 36.36
  Q 7.89 37.09 7.90 37.96
  Q 7.96 42.08 8.00 43.89
  Q 8.01 44.41 8.50 44.61
  Q 8.90 44.77 9.30 44.55
  Q 9.74 44.31 9.91 43.63
  Q 10.56 41.06 9.44 38.55
  Q 9.15 37.90 11.54 36.92
  Z"
/>
<path fill="#848386" d="
  M 8.25 11.20
  Q 8.81 10.93 9.34 11.78
  A 0.75 0.66 -19.8 0 1 8.78 12.81
  L 5.86 13.32
  Q 5.40 13.41 5.27 12.93
  Q 4.30 9.21 5.53 5.63
  Q 5.86 4.68 6.86 4.72
  Q 6.88 4.73 6.90 4.73
  Q 8.06 4.88 7.82 5.78
  L 6.78 9.78
  Q 6.16 12.17 8.25 11.20
  Z"
/>
<path fill="#848386" d="
  M 12.01 11.21
  Q 11.87 11.36 11.81 11.39
  Q 11.62 11.47 11.73 11.29
  Q 12.85 9.48 14.42 8.86
  Q 15.29 8.51 14.60 9.15
  Q 13.59 10.09 12.39 10.88
  Q 12.18 11.02 12.01 11.21
  Z"
/>
<path fill="#848386" d="
  M 11.54 36.92
  Q 9.15 37.90 9.44 38.55
  Q 10.56 41.06 9.91 43.63
  Q 9.74 44.31 9.30 44.55
  Q 8.90 44.77 8.50 44.61
  Q 8.01 44.41 8.00 43.89
  Q 7.96 42.08 7.90 37.96
  Q 7.89 37.09 8.39 36.36
  Q 8.73 35.87 9.32 35.91
  Q 10.57 35.98 11.55 36.45
  A 0.26 0.26 0.0 0 1 11.54 36.92
  Z"
/>
</svg>
