<?xml version="1.0" encoding="UTF-8" standalone="no"?>
<!DOCTYPE svg PUBLIC "-//W3C//DTD SVG 1.1//EN" "http://www.w3.org/Graphics/SVG/1.1/DTD/svg11.dtd">
<svg xmlns="http://www.w3.org/2000/svg" version="1.1" viewBox="0.00 0.00 41.00 53.00" width="40" height="40">
<g stroke-width="2.00" fill="none" stroke-linecap="butt">
<path stroke="#b9b9ba" vector-effect="non-scaling-stroke" d="
  M 38.23 14.32
  C 38.97 11.77 40.24 9.53 39.77 6.90
  A 2.16 2.16 0.0 0 0 37.64 5.12
  Q 36.24 5.12 35.04 4.61
  Q 33.90 4.13 32.42 4.10
  Q 27.49 3.97 24.25 4.63
  Q 21.93 5.11 20.72 5.10
  Q 19.38 5.09 17.14 5.17
  Q 15.73 5.22 11.95 4.46
  Q 8.64 3.80 5.59 4.42
  Q 3.73 4.80 2.46 6.25
  Q 2.18 6.59 2.18 7.03
  L 2.18 17.22
  Q 2.18 17.75 2.71 17.77
  Q 11.80 18.20 14.69 17.45
  Q 18.87 16.37 23.32 16.84
  A 1.10 1.09 8.2 0 1 24.29 18.13
  C 24.05 19.46 23.35 20.84 23.29 22.49
  Q 23.17 26.18 21.81 29.78
  C 21.05 31.77 21.32 33.57 20.58 35.38
  Q 19.14 38.91 19.16 40.75
  Q 19.21 45.90 19.30 48.85
  A 2.09 2.09 0.0 0 0 21.39 50.87
  L 33.05 50.87
  Q 33.56 50.87 33.78 50.41
  Q 36.13 45.40 32.30 42.04
  Q 31.92 41.70 31.88 41.18
  Q 31.53 36.47 32.12 35.38
  Q 33.37 33.08 33.72 31.48
  Q 35.51 23.21 36.98 18.77
  Q 37.25 17.94 38.44 16.51
  Q 38.71 16.19 38.63 15.79
  Q 38.57 15.45 38.38 15.18
  A 0.98 0.97 -55.2 0 1 38.23 14.32"
/>
<path stroke="#b9b9ba" vector-effect="non-scaling-stroke" d="
  M 7.98 5.93
  C 4.97 4.75 2.81 5.88 2.93 9.25
  Q 3.02 11.71 3.53 15.85
  A 0.95 0.94 -3.4 0 0 4.47 16.68
  L 9.23 16.68
  Q 9.70 16.68 10.17 16.79
  Q 11.66 17.15 13.14 16.80
  Q 15.99 16.11 16.06 16.10
  Q 21.92 15.37 26.35 14.61
  A 0.68 0.68 0.0 0 1 27.06 15.60
  Q 26.33 16.93 25.45 18.70
  Q 24.85 19.92 24.53 22.04
  Q 23.26 30.49 20.54 39.05
  C 20.18 40.18 19.88 43.41 20.22 44.66
  Q 20.57 45.94 20.63 48.04
  Q 20.69 49.99 22.65 49.99
  L 31.96 49.99
  Q 33.18 49.99 33.46 48.80
  Q 33.88 46.98 33.46 45.54
  Q 33.33 45.09 31.68 43.09
  Q 29.71 40.69 30.87 37.12
  Q 32.98 30.61 35.57 19.79
  C 36.39 16.36 37.88 12.49 38.81 8.91
  A 2.48 2.48 0.0 0 0 36.81 5.84
  C 32.36 5.11 29.59 5.04 25.07 5.61
  Q 19.19 6.36 14.76 6.36
  Q 13.40 6.36 11.35 5.72
  C 10.51 5.45 9.76 5.71 8.92 5.97
  A 1.47 1.44 -42.0 0 1 7.98 5.93"
/>
<path stroke="#b9b9ba" vector-effect="non-scaling-stroke" d="
  M 7.78 14.07
  A 0.65 0.65 0.0 0 1 6.82 13.36
  L 7.72 9.46
  Q 8.08 7.90 6.52 7.54
  L 6.12 7.45
  Q 4.73 7.13 4.71 8.55
  Q 4.67 10.33 5.26 14.34
  Q 5.34 14.88 5.89 14.81
  L 9.15 14.38
  Q 9.38 14.35 9.38 14.12
  L 9.38 13.47
  Q 9.38 13.15 9.10 13.31
  L 7.78 14.07"
/>
<path stroke="#b9b9ba" vector-effect="non-scaling-stroke" d="
  M 31.67 46.98
  L 31.40 45.18
  A 0.65 0.65 0.0 0 0 30.66 44.64
  L 30.23 44.70
  A 7.68 1.37 -8.5 0 0 22.84 47.19
  L 22.90 47.57
  A 7.68 1.37 -8.5 0 0 30.69 47.79
  L 31.12 47.72
  A 0.65 0.65 0.0 0 0 31.67 46.98"
/>
</g>
<path fill="#ffffff" fill-opacity="0"  d="
  M 41.00 0.00
  L 41.00 53.00
  L 0.00 53.00
  L 0.00 0.00
  L 41.00 0.00
  Z
  M 38.23 14.32
  C 38.97 11.77 40.24 9.53 39.77 6.90
  A 2.16 2.16 0.0 0 0 37.64 5.12
  Q 36.24 5.12 35.04 4.61
  Q 33.90 4.13 32.42 4.10
  Q 27.49 3.97 24.25 4.63
  Q 21.93 5.11 20.72 5.10
  Q 19.38 5.09 17.14 5.17
  Q 15.73 5.22 11.95 4.46
  Q 8.64 3.80 5.59 4.42
  Q 3.73 4.80 2.46 6.25
  Q 2.18 6.59 2.18 7.03
  L 2.18 17.22
  Q 2.18 17.75 2.71 17.77
  Q 11.80 18.20 14.69 17.45
  Q 18.87 16.37 23.32 16.84
  A 1.10 1.09 8.2 0 1 24.29 18.13
  C 24.05 19.46 23.35 20.84 23.29 22.49
  Q 23.17 26.18 21.81 29.78
  C 21.05 31.77 21.32 33.57 20.58 35.38
  Q 19.14 38.91 19.16 40.75
  Q 19.21 45.90 19.30 48.85
  A 2.09 2.09 0.0 0 0 21.39 50.87
  L 33.05 50.87
  Q 33.56 50.87 33.78 50.41
  Q 36.13 45.40 32.30 42.04
  Q 31.92 41.70 31.88 41.18
  Q 31.53 36.47 32.12 35.38
  Q 33.37 33.08 33.72 31.48
  Q 35.51 23.21 36.98 18.77
  Q 37.25 17.94 38.44 16.51
  Q 38.71 16.19 38.63 15.79
  Q 38.57 15.45 38.38 15.18
  A 0.98 0.97 -55.2 0 1 38.23 14.32
  Z"
/>
<path fill="#737375" d="
  M 38.38 15.18
  Q 38.57 15.45 38.63 15.79
  Q 38.71 16.19 38.44 16.51
  Q 37.25 17.94 36.98 18.77
  Q 35.51 23.21 33.72 31.48
  Q 33.37 33.08 32.12 35.38
  Q 31.53 36.47 31.88 41.18
  Q 31.92 41.70 32.30 42.04
  Q 36.13 45.40 33.78 50.41
  Q 33.56 50.87 33.05 50.87
  L 21.39 50.87
  A 2.09 2.09 0.0 0 1 19.30 48.85
  Q 19.21 45.90 19.16 40.75
  Q 19.14 38.91 20.58 35.38
  C 21.32 33.57 21.05 31.77 21.81 29.78
  Q 23.17 26.18 23.29 22.49
  C 23.35 20.84 24.05 19.46 24.29 18.13
  A 1.10 1.09 8.2 0 0 23.32 16.84
  Q 18.87 16.37 14.69 17.45
  Q 11.80 18.20 2.71 17.77
  Q 2.18 17.75 2.18 17.22
  L 2.18 7.03
  Q 2.18 6.59 2.46 6.25
  Q 3.73 4.80 5.59 4.42
  Q 8.64 3.80 11.95 4.46
  Q 15.73 5.22 17.14 5.17
  Q 19.38 5.09 20.72 5.10
  Q 21.93 5.11 24.25 4.63
  Q 27.49 3.97 32.42 4.10
  Q 33.90 4.13 35.04 4.61
  Q 36.24 5.12 37.64 5.12
  A 2.16 2.16 0.0 0 1 39.77 6.90
  C 40.24 9.53 38.97 11.77 38.23 14.32
  A 0.98 0.97 -55.2 0 0 38.38 15.18
  Z
  M 7.98 5.93
  C 4.97 4.75 2.81 5.88 2.93 9.25
  Q 3.02 11.71 3.53 15.85
  A 0.95 0.94 -3.4 0 0 4.47 16.68
  L 9.23 16.68
  Q 9.70 16.68 10.17 16.79
  Q 11.66 17.15 13.14 16.80
  Q 15.99 16.11 16.06 16.10
  Q 21.92 15.37 26.35 14.61
  A 0.68 0.68 0.0 0 1 27.06 15.60
  Q 26.33 16.93 25.45 18.70
  Q 24.85 19.92 24.53 22.04
  Q 23.26 30.49 20.54 39.05
  C 20.18 40.18 19.88 43.41 20.22 44.66
  Q 20.57 45.94 20.63 48.04
  Q 20.69 49.99 22.65 49.99
  L 31.96 49.99
  Q 33.18 49.99 33.46 48.80
  Q 33.88 46.98 33.46 45.54
  Q 33.33 45.09 31.68 43.09
  Q 29.71 40.69 30.87 37.12
  Q 32.98 30.61 35.57 19.79
  C 36.39 16.36 37.88 12.49 38.81 8.91
  A 2.48 2.48 0.0 0 0 36.81 5.84
  C 32.36 5.11 29.59 5.04 25.07 5.61
  Q 19.19 6.36 14.76 6.36
  Q 13.40 6.36 11.35 5.72
  C 10.51 5.45 9.76 5.71 8.92 5.97
  A 1.47 1.44 -42.0 0 1 7.98 5.93
  Z"
/>
<path fill="#ffffff" d="
  M 8.92 5.97
  C 9.76 5.71 10.51 5.45 11.35 5.72
  Q 13.40 6.36 14.76 6.36
  Q 19.19 6.36 25.07 5.61
  C 29.59 5.04 32.36 5.11 36.81 5.84
  A 2.48 2.48 0.0 0 1 38.81 8.91
  C 37.88 12.49 36.39 16.36 35.57 19.79
  Q 32.98 30.61 30.87 37.12
  Q 29.71 40.69 31.68 43.09
  Q 33.33 45.09 33.46 45.54
  Q 33.88 46.98 33.46 48.80
  Q 33.18 49.99 31.96 49.99
  L 22.65 49.99
  Q 20.69 49.99 20.63 48.04
  Q 20.57 45.94 20.22 44.66
  C 19.88 43.41 20.18 40.18 20.54 39.05
  Q 23.26 30.49 24.53 22.04
  Q 24.85 19.92 25.45 18.70
  Q 26.33 16.93 27.06 15.60
  A 0.68 0.68 0.0 0 0 26.35 14.61
  Q 21.92 15.37 16.06 16.10
  Q 15.99 16.11 13.14 16.80
  Q 11.66 17.15 10.17 16.79
  Q 9.70 16.68 9.23 16.68
  L 4.47 16.68
  A 0.95 0.94 -3.4 0 1 3.53 15.85
  Q 3.02 11.71 2.93 9.25
  C 2.81 5.88 4.97 4.75 7.98 5.93
  A 1.47 1.44 -42.0 0 0 8.92 5.97
  Z
  M 7.78 14.07
  A 0.65 0.65 0.0 0 1 6.82 13.36
  L 7.72 9.46
  Q 8.08 7.90 6.52 7.54
  L 6.12 7.45
  Q 4.73 7.13 4.71 8.55
  Q 4.67 10.33 5.26 14.34
  Q 5.34 14.88 5.89 14.81
  L 9.15 14.38
  Q 9.38 14.35 9.38 14.12
  L 9.38 13.47
  Q 9.38 13.15 9.10 13.31
  L 7.78 14.07
  Z
  M 31.67 46.98
  L 31.40 45.18
  A 0.65 0.65 0.0 0 0 30.66 44.64
  L 30.23 44.70
  A 7.68 1.37 -8.5 0 0 22.84 47.19
  L 22.90 47.57
  A 7.68 1.37 -8.5 0 0 30.69 47.79
  L 31.12 47.72
  A 0.65 0.65 0.0 0 0 31.67 46.98
  Z"
/>
<path fill="#737375" d="
  M 7.78 14.07
  L 9.10 13.31
  Q 9.38 13.15 9.38 13.47
  L 9.38 14.12
  Q 9.38 14.35 9.15 14.38
  L 5.89 14.81
  Q 5.34 14.88 5.26 14.34
  Q 4.67 10.33 4.71 8.55
  Q 4.73 7.13 6.12 7.45
  L 6.52 7.54
  Q 8.08 7.90 7.72 9.46
  L 6.82 13.36
  A 0.65 0.65 0.0 0 0 7.78 14.07
  Z"
/>
<path fill="#737375" d="
  M 31.67 46.98
  A 0.65 0.65 0.0 0 1 31.12 47.72
  L 30.69 47.79
  A 7.68 1.37 -8.5 0 1 22.90 47.57
  L 22.84 47.19
  A 7.68 1.37 -8.5 0 1 30.23 44.70
  L 30.66 44.64
  A 0.65 0.65 0.0 0 1 31.40 45.18
  L 31.67 46.98
  Z"
/>
</svg>
