<?xml version="1.0" encoding="UTF-8" standalone="no"?>
<!DOCTYPE svg PUBLIC "-//W3C//DTD SVG 1.1//EN" "http://www.w3.org/Graphics/SVG/1.1/DTD/svg11.dtd">
<svg xmlns="http://www.w3.org/2000/svg" version="1.1" viewBox="0.00 0.00 339.00 236.00">
<g stroke-width="2.00" fill="none" stroke-linecap="butt">
<path stroke="#faf3e5" vector-effect="non-scaling-stroke" d="
  M 269.92 26.20
  L 250.75 27.78"
/>
<path stroke="#b6c2c7" vector-effect="non-scaling-stroke" d="
  M 250.75 27.78
  Q 238.29 27.94 225.73 27.97
  Q 210.30 28.01 202.78 29.49
  Q 195.60 30.91 190.69 36.43
  Q 186.69 40.92 187.45 46.15"
/>
<path stroke="#faf3e5" vector-effect="non-scaling-stroke" d="
  M 187.45 46.15
  Q 186.94 47.13 186.23 47.69"
/>
<path stroke="#b6c2c7" vector-effect="non-scaling-stroke" d="
  M 186.23 47.69
  C 183.44 46.44 180.83 44.62 178.10 43.74
  C 175.82 43.01 172.99 42.66 170.87 41.48
  Q 169.93 40.96 169.00 40.83
  Q 158.54 39.37 148.08 40.64
  C 146.59 40.82 144.86 41.87 143.20 42.23
  Q 135.12 44.02 133.53 44.78
  Q 115.98 53.26 108.04 70.93
  Q 107.82 71.41 107.32 71.27
  Q 100.51 69.40 98.65 68.66
  Q 95.76 67.51 93.67 67.53
  Q 89.98 67.57 88.50 67.84
  Q 87.87 67.95 81.09 69.61
  Q 74.63 71.20 68.30 74.32
  Q 58.14 79.33 50.85 83.66
  C 47.09 85.88 42.07 87.99 38.27 90.78
  Q 32.57 94.96 30.52 101.87
  C 29.48 105.37 28.98 107.73 29.88 111.17
  Q 31.38 116.89 33.80 121.26
  Q 43.06 137.99 45.31 142.13
  Q 48.31 147.64 55.49 160.38
  Q 59.64 167.74 64.98 177.77
  Q 72.59 192.07 76.21 198.40
  Q 77.68 201.00 81.55 205.95
  C 82.85 207.62 84.12 208.12 85.51 209.19
  C 90.26 212.87 98.76 212.37 104.06 210.49
  Q 106.93 209.47 111.37 207.10
  Q 122.71 201.05 134.98 194.23
  Q 139.65 191.64 142.78 189.46
  Q 149.67 184.64 150.30 184.24
  C 152.12 183.08 153.89 181.01 154.98 179.20
  A 1.55 1.55 0.0 0 1 157.26 178.78
  C 158.28 179.57 159.09 180.62 160.75 180.66
  Q 167.79 180.81 169.91 180.14
  Q 175.38 178.39 181.06 177.52
  Q 182.89 177.24 184.36 176.26
  Q 186.53 174.79 187.25 174.45
  Q 189.44 173.40 190.82 172.41
  Q 192.59 171.14 194.51 170.91
  Q 198.00 170.50 205.16 168.67
  Q 206.09 168.43 209.81 166.99
  Q 212.20 166.06 214.69 165.86
  Q 228.42 164.79 244.58 164.61
  Q 248.16 164.57 255.04 163.97
  Q 261.50 163.40 265.50 163.29
  Q 268.36 163.21 284.99 162.37
  Q 292.69 161.99 297.57 159.79
  Q 305.64 156.16 307.36 145.89
  Q 307.93 142.51 307.77 134.53
  Q 307.54 122.61 306.76 108.33
  Q 305.74 89.59 305.74 89.53
  Q 304.67 65.79 303.45 46.87
  C 303.22 43.19 302.25 38.39 300.76 35.75
  Q 298.71 32.10 296.14 30.04
  Q 293.96 28.29 289.61 27.20
  Q 279.92 24.77 269.92 26.20"
/>
<path stroke="#b1b5ad" vector-effect="non-scaling-stroke" d="
  M 186.23 47.69
  Q 187.15 47.93 186.79 48.96
  Q 186.61 49.48 186.16 49.16
  C 183.87 47.50 181.65 46.03 179.03 44.97
  Q 165.48 39.49 150.92 41.39
  Q 148.58 41.69 143.46 43.06
  Q 139.54 44.12 136.07 45.05
  C 132.01 46.14 126.32 49.99 122.89 52.49
  Q 120.72 54.07 118.16 57.15
  Q 111.49 65.14 108.82 72.14
  Q 108.63 72.64 108.12 72.48
  Q 97.12 69.02 95.19 68.82
  Q 91.96 68.51 88.37 69.14
  Q 78.54 70.89 69.37 74.86
  Q 62.62 77.78 41.47 89.75
  C 38.17 91.62 35.81 93.48 33.99 96.50
  Q 27.99 106.40 32.93 117.14
  Q 35.22 122.11 37.37 125.92
  Q 50.02 148.31 51.69 151.37
  Q 72.88 190.34 74.30 192.96
  Q 77.40 198.70 79.87 202.25
  Q 83.44 207.38 87.25 209.19
  Q 93.54 212.19 100.65 210.48
  Q 105.46 209.33 108.61 207.60
  Q 125.65 198.29 129.53 196.18
  Q 134.85 193.28 140.18 189.91
  Q 147.91 185.03 150.31 182.79
  Q 152.45 180.79 154.25 178.44
  A 1.62 1.61 -56.3 0 1 156.33 178.02
  C 161.12 180.77 166.77 180.03 172.34 178.67
  Q 175.68 177.86 181.29 176.45
  C 184.10 175.74 187.07 173.73 189.44 172.28
  Q 191.67 170.91 195.85 169.92
  Q 204.27 167.91 210.09 166.06
  Q 214.20 164.76 218.42 164.64
  Q 220.49 164.58 230.97 163.84
  Q 237.08 163.41 243.50 163.28
  Q 264.88 162.85 286.22 161.40
  C 288.90 161.21 290.99 160.52 293.24 160.16
  C 298.36 159.35 302.82 155.63 304.82 151.25
  Q 307.02 146.43 306.80 140.28
  Q 306.28 125.62 305.66 104.28
  Q 305.47 97.92 305.21 94.53
  Q 304.78 89.08 304.78 89.04
  Q 303.97 68.50 302.74 50.63
  Q 302.07 40.82 300.87 38.06
  Q 297.32 29.84 289.77 28.15
  Q 281.78 26.35 279.51 26.58
  Q 274.69 27.07 269.92 26.20"
/>
<path stroke="#b1b5ad" vector-effect="non-scaling-stroke" d="
  M 187.45 46.15
  Q 188.73 37.96 194.77 33.78
  C 198.47 31.21 203.74 30.28 208.05 29.82
  Q 212.35 29.37 222.84 29.02
  Q 225.11 28.94 237.66 28.92
  Q 246.30 28.91 254.90 28.22
  Q 255.04 28.21 255.07 28.02
  Q 255.10 27.85 254.88 27.85
  L 250.75 27.78"
/>
<path stroke="#8a7a6c" vector-effect="non-scaling-stroke" d="
  M 238.29 145.60
  Q 239.06 147.43 241.80 147.68
  Q 249.22 148.36 256.74 147.88
  Q 258.14 147.79 258.96 146.95
  Q 260.30 145.59 260.32 144.75
  Q 260.47 138.36 261.87 131.02
  Q 262.10 129.81 262.14 131.06
  L 262.57 142.58
  A 3.25 3.11 -86.6 0 0 265.17 145.64
  Q 268.20 146.16 270.25 146.95
  Q 272.39 147.77 275.45 147.40
  Q 280.90 146.73 285.32 145.98
  Q 288.97 145.36 290.30 144.18
  Q 292.44 142.28 292.83 139.03
  Q 293.41 134.11 293.17 126.77
  Q 292.65 111.46 291.26 96.03
  Q 289.69 78.73 289.06 63.50
  Q 289.02 62.31 287.39 50.81
  Q 286.64 45.52 284.95 43.33
  Q 281.18 38.46 275.28 37.61
  Q 264.49 36.07 255.00 39.29
  Q 250.44 40.83 248.79 42.79
  Q 246.94 44.98 246.75 46.52
  Q 246.72 46.75 244.93 61.04
  Q 244.75 62.47 244.49 61.06
  C 243.68 56.66 241.98 51.77 239.33 48.23
  Q 236.38 44.28 236.01 43.85
  Q 234.28 41.86 232.33 41.47
  Q 223.00 39.61 213.16 41.90
  Q 208.34 43.02 204.18 48.51
  Q 203.85 48.95 203.61 49.77
  Q 203.29 50.86 203.29 51.13
  C 203.32 59.50 203.35 72.12 204.09 81.96
  Q 206.18 109.57 207.16 135.01
  Q 207.22 136.42 207.64 138.35
  Q 208.08 140.32 208.13 141.73
  C 208.38 149.76 213.28 151.14 220.30 150.58
  Q 227.86 149.98 234.06 149.30
  Q 236.76 149.01 237.07 145.82
  Q 237.31 143.26 238.29 145.60"
/>
<path stroke="#8a7a6c" vector-effect="non-scaling-stroke" d="
  M 182.63 153.79
  Q 184.87 158.72 190.22 156.98
  Q 195.72 155.20 205.61 149.05
  C 207.22 148.05 207.79 146.89 207.89 145.04
  Q 208.01 142.80 207.63 140.59
  Q 206.84 136.00 203.87 123.69
  Q 202.40 117.61 199.64 110.14
  Q 197.83 105.23 194.87 96.64
  Q 194.69 96.13 193.00 93.04
  C 191.90 91.02 189.90 90.51 188.08 91.53
  Q 182.01 94.93 177.31 96.25
  Q 166.83 99.18 161.17 101.18
  Q 160.48 101.42 160.40 100.69
  L 160.35 100.18
  A 0.96 0.96 0.0 0 1 160.93 99.19
  Q 166.96 96.72 170.58 95.63
  C 176.18 93.94 180.34 91.37 186.55 88.58
  Q 187.88 87.98 188.64 86.25
  Q 188.84 85.81 188.74 85.33
  Q 184.90 66.41 168.57 55.96
  Q 165.19 53.80 160.77 53.30
  C 152.80 52.41 144.56 53.49 138.05 58.35
  C 125.55 67.70 119.68 81.25 123.80 96.71
  Q 124.25 98.41 129.51 117.43
  Q 131.53 124.76 134.03 130.97
  Q 134.50 132.14 139.53 144.17
  Q 142.43 151.12 145.38 154.40
  Q 150.16 159.72 154.62 161.94
  C 160.64 164.95 170.44 166.06 175.70 160.87
  Q 179.05 157.57 181.82 153.71
  A 0.47 0.47 0.0 0 1 182.63 153.79"
/>
<path stroke="#8a7a6c" vector-effect="non-scaling-stroke" d="
  M 120.13 119.10
  C 120.66 115.52 120.52 111.64 118.94 108.10
  Q 114.42 97.93 109.16 93.26
  Q 101.93 86.83 94.92 85.88
  Q 86.93 84.79 81.98 87.20
  Q 72.90 91.61 58.01 98.48
  Q 57.17 98.86 52.20 101.99
  C 48.42 104.37 46.90 107.15 48.40 111.37
  Q 50.48 117.21 52.13 120.93
  Q 55.67 128.95 64.21 142.59
  Q 69.26 150.64 76.43 164.31
  Q 76.69 164.80 81.91 175.73
  Q 84.64 181.43 87.77 186.97
  Q 90.42 191.69 92.14 192.88
  Q 96.80 196.10 101.93 194.16
  Q 121.31 186.81 136.82 172.56
  C 142.55 167.28 145.53 160.43 142.57 152.69
  Q 140.55 147.43 134.93 134.82
  Q 131.88 128.00 129.80 125.64
  Q 126.12 121.47 120.55 119.77
  A 0.62 0.62 0.0 0 1 120.13 119.10"
/>
<path stroke="#8c5c3c" vector-effect="non-scaling-stroke" d="
  M 227.96 81.15
  A 2.31 2.22 51.8 0 1 231.29 81.61
  Q 233.31 84.44 233.83 87.09
  C 234.70 91.44 235.23 95.98 236.29 100.94
  Q 239.21 114.58 241.36 128.13
  Q 241.73 130.49 243.92 138.43
  Q 244.04 138.86 244.49 138.86
  L 252.32 138.86
  Q 252.76 138.86 252.88 138.44
  Q 254.17 133.66 254.38 132.09
  Q 256.88 113.20 260.16 82.04
  Q 260.43 79.50 261.54 77.55
  A 2.06 2.05 35.9 0 1 264.70 77.05
  Q 267.62 79.67 267.74 84.00
  C 268.13 98.44 268.02 106.92 269.15 118.63
  Q 270.19 129.43 270.49 137.90
  A 0.71 0.70 -4.2 0 0 271.27 138.57
  L 283.22 137.28
  Q 283.82 137.22 283.82 136.61
  Q 283.79 129.89 283.59 127.25
  Q 281.69 102.23 279.85 75.39
  C 279.48 70.09 279.42 64.83 279.39 59.67
  Q 279.35 53.58 277.95 51.07
  Q 275.27 46.25 269.43 46.25
  C 264.89 46.26 260.95 46.85 256.61 48.61
  C 254.98 49.28 253.93 49.49 253.62 51.61
  Q 251.11 68.33 250.16 86.63
  Q 249.96 90.36 247.00 91.32
  C 243.78 92.36 241.94 89.55 241.27 86.74
  C 240.33 82.88 238.45 77.60 237.58 73.00
  Q 235.66 62.97 233.36 52.98
  A 2.61 2.60 -0.8 0 0 231.33 51.02
  Q 221.56 49.09 211.87 52.34
  A 0.85 0.84 -5.8 0 0 211.31 53.02
  Q 211.04 55.06 211.19 57.28
  Q 212.48 76.61 216.11 133.24
  Q 216.36 137.17 216.77 140.66
  Q 216.84 141.23 217.41 141.17
  L 228.44 139.98
  A 0.76 0.76 0.0 0 0 229.12 139.20
  Q 228.94 128.25 227.86 114.00
  Q 227.23 105.71 227.09 98.85
  Q 226.87 87.79 227.10 83.67
  Q 227.21 81.81 227.96 81.15"
/>
<path stroke="#8c5c3c" vector-effect="non-scaling-stroke" d="
  M 180.78 141.32
  Q 187.20 140.74 189.34 147.07
  A 0.68 0.68 0.0 0 0 190.32 147.44
  L 198.66 142.62
  A 1.73 1.72 -19.8 0 0 199.50 140.84
  Q 196.04 120.70 188.68 101.78
  A 0.57 0.57 0.0 0 0 187.91 101.47
  Q 178.45 105.94 168.06 108.36
  A 0.96 0.94 81.6 0 0 167.33 109.36
  L 167.62 113.52
  A 0.94 0.47 11.7 0 0 168.31 114.07
  Q 168.47 114.12 169.71 114.27
  C 172.19 114.56 174.22 116.15 174.68 118.63
  Q 175.98 125.68 177.14 131.07
  C 178.17 135.86 177.36 141.57 172.36 143.53
  C 165.89 146.08 160.30 128.94 158.86 124.18
  Q 156.16 115.28 156.12 115.16
  Q 152.70 105.04 149.36 94.88
  C 148.40 91.94 147.08 80.91 150.38 77.92
  Q 152.93 75.61 156.55 76.83
  C 158.11 77.35 160.16 80.28 160.57 81.45
  Q 161.69 84.68 162.95 87.72
  A 0.49 0.49 0.0 0 0 163.52 88.01
  Q 169.88 86.47 174.70 83.98
  Q 175.77 83.42 176.84 83.14
  Q 178.37 82.73 179.04 82.39
  Q 179.51 82.15 179.31 81.68
  Q 175.70 73.00 168.98 66.89
  Q 165.07 63.34 163.25 62.87
  Q 146.47 58.57 136.05 71.51
  Q 131.04 77.74 130.68 85.12
  Q 130.48 89.31 133.41 98.86
  Q 138.08 114.04 139.85 119.71
  C 141.99 126.60 145.41 133.59 147.95 140.16
  Q 150.09 145.69 152.16 148.06
  Q 155.38 151.76 159.23 153.86
  Q 167.62 158.43 173.32 150.57
  Q 175.53 147.53 177.93 143.69
  Q 179.32 141.45 180.78 141.32"
/>
<path stroke="#8c5c3c" vector-effect="non-scaling-stroke" d="
  M 105.95 125.77
  C 105.96 123.85 109.06 121.23 109.67 119.17
  C 111.28 113.72 107.84 107.09 104.67 102.59
  C 101.62 98.26 96.08 94.27 90.61 94.42
  Q 87.59 94.50 84.79 95.81
  Q 84.59 95.90 61.32 106.77
  Q 58.32 108.17 56.01 109.94
  Q 55.61 110.25 55.85 110.69
  Q 62.92 123.38 69.14 133.61
  C 75.13 143.47 79.67 151.31 84.88 159.96
  C 89.91 168.33 94.49 177.88 97.74 184.50
  Q 97.94 184.91 98.36 184.73
  Q 115.56 177.42 130.16 164.67
  C 133.51 161.75 133.86 158.73 132.09 154.58
  Q 124.32 136.37 122.79 133.55
  Q 120.86 129.99 116.79 129.29
  C 114.66 128.92 112.82 130.03 110.94 130.84
  A 1.59 1.57 39.7 0 1 109.99 130.92
  Q 105.94 130.02 105.95 125.77"
/>
<path stroke="#8c5c3c" vector-effect="non-scaling-stroke" d="
  M 94.41 121.20
  C 92.46 116.43 90.30 112.08 86.53 108.66
  C 84.41 106.74 81.33 106.09 79.28 108.32
  C 77.64 110.11 78.47 112.69 79.48 114.68
  Q 81.28 118.22 84.85 125.90
  Q 86.85 130.22 91.71 129.11
  Q 94.35 128.51 95.09 125.31
  Q 95.45 123.76 94.41 121.20"
/>
<path stroke="#8c5c3c" vector-effect="non-scaling-stroke" d="
  M 101.75 155.57
  C 103.11 158.25 105.87 164.77 108.59 165.97
  Q 111.37 167.19 113.42 165.63
  C 117.72 162.35 113.63 154.20 111.78 150.52
  C 109.91 146.83 105.79 138.70 100.60 140.21
  Q 98.12 140.93 97.45 143.89
  C 96.80 146.80 100.41 152.89 101.75 155.57"
/>
</g>
<path fill="#ffffff" fill-opacity="0" d="
  M 339.00 0.00
  L 339.00 236.00
  L 0.00 236.00
  L 0.00 0.00
  L 339.00 0.00
  Z
  M 269.92 26.20
  L 250.75 27.78
  Q 238.29 27.94 225.73 27.97
  Q 210.30 28.01 202.78 29.49
  Q 195.60 30.91 190.69 36.43
  Q 186.69 40.92 187.45 46.15
  Q 186.94 47.13 186.23 47.69
  C 183.44 46.44 180.83 44.62 178.10 43.74
  C 175.82 43.01 172.99 42.66 170.87 41.48
  Q 169.93 40.96 169.00 40.83
  Q 158.54 39.37 148.08 40.64
  C 146.59 40.82 144.86 41.87 143.20 42.23
  Q 135.12 44.02 133.53 44.78
  Q 115.98 53.26 108.04 70.93
  Q 107.82 71.41 107.32 71.27
  Q 100.51 69.40 98.65 68.66
  Q 95.76 67.51 93.67 67.53
  Q 89.98 67.57 88.50 67.84
  Q 87.87 67.95 81.09 69.61
  Q 74.63 71.20 68.30 74.32
  Q 58.14 79.33 50.85 83.66
  C 47.09 85.88 42.07 87.99 38.27 90.78
  Q 32.57 94.96 30.52 101.87
  C 29.48 105.37 28.98 107.73 29.88 111.17
  Q 31.38 116.89 33.80 121.26
  Q 43.06 137.99 45.31 142.13
  Q 48.31 147.64 55.49 160.38
  Q 59.64 167.74 64.98 177.77
  Q 72.59 192.07 76.21 198.40
  Q 77.68 201.00 81.55 205.95
  C 82.85 207.62 84.12 208.12 85.51 209.19
  C 90.26 212.87 98.76 212.37 104.06 210.49
  Q 106.93 209.47 111.37 207.10
  Q 122.71 201.05 134.98 194.23
  Q 139.65 191.64 142.78 189.46
  Q 149.67 184.64 150.30 184.24
  C 152.12 183.08 153.89 181.01 154.98 179.20
  A 1.55 1.55 0.0 0 1 157.26 178.78
  C 158.28 179.57 159.09 180.62 160.75 180.66
  Q 167.79 180.81 169.91 180.14
  Q 175.38 178.39 181.06 177.52
  Q 182.89 177.24 184.36 176.26
  Q 186.53 174.79 187.25 174.45
  Q 189.44 173.40 190.82 172.41
  Q 192.59 171.14 194.51 170.91
  Q 198.00 170.50 205.16 168.67
  Q 206.09 168.43 209.81 166.99
  Q 212.20 166.06 214.69 165.86
  Q 228.42 164.79 244.58 164.61
  Q 248.16 164.57 255.04 163.97
  Q 261.50 163.40 265.50 163.29
  Q 268.36 163.21 284.99 162.37
  Q 292.69 161.99 297.57 159.79
  Q 305.64 156.16 307.36 145.89
  Q 307.93 142.51 307.77 134.53
  Q 307.54 122.61 306.76 108.33
  Q 305.74 89.59 305.74 89.53
  Q 304.67 65.79 303.45 46.87
  C 303.22 43.19 302.25 38.39 300.76 35.75
  Q 298.71 32.10 296.14 30.04
  Q 293.96 28.29 289.61 27.20
  Q 279.92 24.77 269.92 26.20
  Z"
/>
<path fill="#6d848f" d="
  M 186.23 47.69
  Q 187.15 47.93 186.79 48.96
  Q 186.61 49.48 186.16 49.16
  C 183.87 47.50 181.65 46.03 179.03 44.97
  Q 165.48 39.49 150.92 41.39
  Q 148.58 41.69 143.46 43.06
  Q 139.54 44.12 136.07 45.05
  C 132.01 46.14 126.32 49.99 122.89 52.49
  Q 120.72 54.07 118.16 57.15
  Q 111.49 65.14 108.82 72.14
  Q 108.63 72.64 108.12 72.48
  Q 97.12 69.02 95.19 68.82
  Q 91.96 68.51 88.37 69.14
  Q 78.54 70.89 69.37 74.86
  Q 62.62 77.78 41.47 89.75
  C 38.17 91.62 35.81 93.48 33.99 96.50
  Q 27.99 106.40 32.93 117.14
  Q 35.22 122.11 37.37 125.92
  Q 50.02 148.31 51.69 151.37
  Q 72.88 190.34 74.30 192.96
  Q 77.40 198.70 79.87 202.25
  Q 83.44 207.38 87.25 209.19
  Q 93.54 212.19 100.65 210.48
  Q 105.46 209.33 108.61 207.60
  Q 125.65 198.29 129.53 196.18
  Q 134.85 193.28 140.18 189.91
  Q 147.91 185.03 150.31 182.79
  Q 152.45 180.79 154.25 178.44
  A 1.62 1.61 -56.3 0 1 156.33 178.02
  C 161.12 180.77 166.77 180.03 172.34 178.67
  Q 175.68 177.86 181.29 176.45
  C 184.10 175.74 187.07 173.73 189.44 172.28
  Q 191.67 170.91 195.85 169.92
  Q 204.27 167.91 210.09 166.06
  Q 214.20 164.76 218.42 164.64
  Q 220.49 164.58 230.97 163.84
  Q 237.08 163.41 243.50 163.28
  Q 264.88 162.85 286.22 161.40
  C 288.90 161.21 290.99 160.52 293.24 160.16
  C 298.36 159.35 302.82 155.63 304.82 151.25
  Q 307.02 146.43 306.80 140.28
  Q 306.28 125.62 305.66 104.28
  Q 305.47 97.92 305.21 94.53
  Q 304.78 89.08 304.78 89.04
  Q 303.97 68.50 302.74 50.63
  Q 302.07 40.82 300.87 38.06
  Q 297.32 29.84 289.77 28.15
  Q 281.78 26.35 279.51 26.58
  Q 274.69 27.07 269.92 26.20
  Q 279.92 24.77 289.61 27.20
  Q 293.96 28.29 296.14 30.04
  Q 298.71 32.10 300.76 35.75
  C 302.25 38.39 303.22 43.19 303.45 46.87
  Q 304.67 65.79 305.74 89.53
  Q 305.74 89.59 306.76 108.33
  Q 307.54 122.61 307.77 134.53
  Q 307.93 142.51 307.36 145.89
  Q 305.64 156.16 297.57 159.79
  Q 292.69 161.99 284.99 162.37
  Q 268.36 163.21 265.50 163.29
  Q 261.50 163.40 255.04 163.97
  Q 248.16 164.57 244.58 164.61
  Q 228.42 164.79 214.69 165.86
  Q 212.20 166.06 209.81 166.99
  Q 206.09 168.43 205.16 168.67
  Q 198.00 170.50 194.51 170.91
  Q 192.59 171.14 190.82 172.41
  Q 189.44 173.40 187.25 174.45
  Q 186.53 174.79 184.36 176.26
  Q 182.89 177.24 181.06 177.52
  Q 175.38 178.39 169.91 180.14
  Q 167.79 180.81 160.75 180.66
  C 159.09 180.62 158.28 179.57 157.26 178.78
  A 1.55 1.55 0.0 0 0 154.98 179.20
  C 153.89 181.01 152.12 183.08 150.30 184.24
  Q 149.67 184.64 142.78 189.46
  Q 139.65 191.64 134.98 194.23
  Q 122.71 201.05 111.37 207.10
  Q 106.93 209.47 104.06 210.49
  C 98.76 212.37 90.26 212.87 85.51 209.19
  C 84.12 208.12 82.85 207.62 81.55 205.95
  Q 77.68 201.00 76.21 198.40
  Q 72.59 192.07 64.98 177.77
  Q 59.64 167.74 55.49 160.38
  Q 48.31 147.64 45.31 142.13
  Q 43.06 137.99 33.80 121.26
  Q 31.38 116.89 29.88 111.17
  C 28.98 107.73 29.48 105.37 30.52 101.87
  Q 32.57 94.96 38.27 90.78
  C 42.07 87.99 47.09 85.88 50.85 83.66
  Q 58.14 79.33 68.30 74.32
  Q 74.63 71.20 81.09 69.61
  Q 87.87 67.95 88.50 67.84
  Q 89.98 67.57 93.67 67.53
  Q 95.76 67.51 98.65 68.66
  Q 100.51 69.40 107.32 71.27
  Q 107.82 71.41 108.04 70.93
  Q 115.98 53.26 133.53 44.78
  Q 135.12 44.02 143.20 42.23
  C 144.86 41.87 146.59 40.82 148.08 40.64
  Q 158.54 39.37 169.00 40.83
  Q 169.93 40.96 170.87 41.48
  C 172.99 42.66 175.82 43.01 178.10 43.74
  C 180.83 44.62 183.44 46.44 186.23 47.69
  Z"
/>
<path fill="#f4e6cb" d="
  M 269.92 26.20
  Q 274.69 27.07 279.51 26.58
  Q 281.78 26.35 289.77 28.15
  Q 297.32 29.84 300.87 38.06
  Q 302.07 40.82 302.74 50.63
  Q 303.97 68.50 304.78 89.04
  Q 304.78 89.08 305.21 94.53
  Q 305.47 97.92 305.66 104.28
  Q 306.28 125.62 306.80 140.28
  Q 307.02 146.43 304.82 151.25
  C 302.82 155.63 298.36 159.35 293.24 160.16
  C 290.99 160.52 288.90 161.21 286.22 161.40
  Q 264.88 162.85 243.50 163.28
  Q 237.08 163.41 230.97 163.84
  Q 220.49 164.58 218.42 164.64
  Q 214.20 164.76 210.09 166.06
  Q 204.27 167.91 195.85 169.92
  Q 191.67 170.91 189.44 172.28
  C 187.07 173.73 184.10 175.74 181.29 176.45
  Q 175.68 177.86 172.34 178.67
  C 166.77 180.03 161.12 180.77 156.33 178.02
  A 1.62 1.61 -56.3 0 0 154.25 178.44
  Q 152.45 180.79 150.31 182.79
  Q 147.91 185.03 140.18 189.91
  Q 134.85 193.28 129.53 196.18
  Q 125.65 198.29 108.61 207.60
  Q 105.46 209.33 100.65 210.48
  Q 93.54 212.19 87.25 209.19
  Q 83.44 207.38 79.87 202.25
  Q 77.40 198.70 74.30 192.96
  Q 72.88 190.34 51.69 151.37
  Q 50.02 148.31 37.37 125.92
  Q 35.22 122.11 32.93 117.14
  Q 27.99 106.40 33.99 96.50
  C 35.81 93.48 38.17 91.62 41.47 89.75
  Q 62.62 77.78 69.37 74.86
  Q 78.54 70.89 88.37 69.14
  Q 91.96 68.51 95.19 68.82
  Q 97.12 69.02 108.12 72.48
  Q 108.63 72.64 108.82 72.14
  Q 111.49 65.14 118.16 57.15
  Q 120.72 54.07 122.89 52.49
  C 126.32 49.99 132.01 46.14 136.07 45.05
  Q 139.54 44.12 143.46 43.06
  Q 148.58 41.69 150.92 41.39
  Q 165.48 39.49 179.03 44.97
  C 181.65 46.03 183.87 47.50 186.16 49.16
  Q 186.61 49.48 186.79 48.96
  Q 187.15 47.93 186.23 47.69
  Q 186.94 47.13 187.45 46.15
  Q 188.73 37.96 194.77 33.78
  C 198.47 31.21 203.74 30.28 208.05 29.82
  Q 212.35 29.37 222.84 29.02
  Q 225.11 28.94 237.66 28.92
  Q 246.30 28.91 254.90 28.22
  Q 255.04 28.21 255.07 28.02
  Q 255.10 27.85 254.88 27.85
  L 250.75 27.78
  L 269.92 26.20
  Z
  M 238.29 145.60
  Q 239.06 147.43 241.80 147.68
  Q 249.22 148.36 256.74 147.88
  Q 258.14 147.79 258.96 146.95
  Q 260.30 145.59 260.32 144.75
  Q 260.47 138.36 261.87 131.02
  Q 262.10 129.81 262.14 131.06
  L 262.57 142.58
  A 3.25 3.11 -86.6 0 0 265.17 145.64
  Q 268.20 146.16 270.25 146.95
  Q 272.39 147.77 275.45 147.40
  Q 280.90 146.73 285.32 145.98
  Q 288.97 145.36 290.30 144.18
  Q 292.44 142.28 292.83 139.03
  Q 293.41 134.11 293.17 126.77
  Q 292.65 111.46 291.26 96.03
  Q 289.69 78.73 289.06 63.50
  Q 289.02 62.31 287.39 50.81
  Q 286.64 45.52 284.95 43.33
  Q 281.18 38.46 275.28 37.61
  Q 264.49 36.07 255.00 39.29
  Q 250.44 40.83 248.79 42.79
  Q 246.94 44.98 246.75 46.52
  Q 246.72 46.75 244.93 61.04
  Q 244.75 62.47 244.49 61.06
  C 243.68 56.66 241.98 51.77 239.33 48.23
  Q 236.38 44.28 236.01 43.85
  Q 234.28 41.86 232.33 41.47
  Q 223.00 39.61 213.16 41.90
  Q 208.34 43.02 204.18 48.51
  Q 203.85 48.95 203.61 49.77
  Q 203.29 50.86 203.29 51.13
  C 203.32 59.50 203.35 72.12 204.09 81.96
  Q 206.18 109.57 207.16 135.01
  Q 207.22 136.42 207.64 138.35
  Q 208.08 140.32 208.13 141.73
  C 208.38 149.76 213.28 151.14 220.30 150.58
  Q 227.86 149.98 234.06 149.30
  Q 236.76 149.01 237.07 145.82
  Q 237.31 143.26 238.29 145.60
  Z
  M 182.63 153.79
  Q 184.87 158.72 190.22 156.98
  Q 195.72 155.20 205.61 149.05
  C 207.22 148.05 207.79 146.89 207.89 145.04
  Q 208.01 142.80 207.63 140.59
  Q 206.84 136.00 203.87 123.69
  Q 202.40 117.61 199.64 110.14
  Q 197.83 105.23 194.87 96.64
  Q 194.69 96.13 193.00 93.04
  C 191.90 91.02 189.90 90.51 188.08 91.53
  Q 182.01 94.93 177.31 96.25
  Q 166.83 99.18 161.17 101.18
  Q 160.48 101.42 160.40 100.69
  L 160.35 100.18
  A 0.96 0.96 0.0 0 1 160.93 99.19
  Q 166.96 96.72 170.58 95.63
  C 176.18 93.94 180.34 91.37 186.55 88.58
  Q 187.88 87.98 188.64 86.25
  Q 188.84 85.81 188.74 85.33
  Q 184.90 66.41 168.57 55.96
  Q 165.19 53.80 160.77 53.30
  C 152.80 52.41 144.56 53.49 138.05 58.35
  C 125.55 67.70 119.68 81.25 123.80 96.71
  Q 124.25 98.41 129.51 117.43
  Q 131.53 124.76 134.03 130.97
  Q 134.50 132.14 139.53 144.17
  Q 142.43 151.12 145.38 154.40
  Q 150.16 159.72 154.62 161.94
  C 160.64 164.95 170.44 166.06 175.70 160.87
  Q 179.05 157.57 181.82 153.71
  A 0.47 0.47 0.0 0 1 182.63 153.79
  Z
  M 120.13 119.10
  C 120.66 115.52 120.52 111.64 118.94 108.10
  Q 114.42 97.93 109.16 93.26
  Q 101.93 86.83 94.92 85.88
  Q 86.93 84.79 81.98 87.20
  Q 72.90 91.61 58.01 98.48
  Q 57.17 98.86 52.20 101.99
  C 48.42 104.37 46.90 107.15 48.40 111.37
  Q 50.48 117.21 52.13 120.93
  Q 55.67 128.95 64.21 142.59
  Q 69.26 150.64 76.43 164.31
  Q 76.69 164.80 81.91 175.73
  Q 84.64 181.43 87.77 186.97
  Q 90.42 191.69 92.14 192.88
  Q 96.80 196.10 101.93 194.16
  Q 121.31 186.81 136.82 172.56
  C 142.55 167.28 145.53 160.43 142.57 152.69
  Q 140.55 147.43 134.93 134.82
  Q 131.88 128.00 129.80 125.64
  Q 126.12 121.47 120.55 119.77
  A 0.62 0.62 0.0 0 1 120.13 119.10
  Z"
/>
<path fill="#6d848f" d="
  M 250.75 27.78
  L 254.88 27.85
  Q 255.10 27.85 255.07 28.02
  Q 255.04 28.21 254.90 28.22
  Q 246.30 28.91 237.66 28.92
  Q 225.11 28.94 222.84 29.02
  Q 212.35 29.37 208.05 29.82
  C 203.74 30.28 198.47 31.21 194.77 33.78
  Q 188.73 37.96 187.45 46.15
  Q 186.69 40.92 190.69 36.43
  Q 195.60 30.91 202.78 29.49
  Q 210.30 28.01 225.73 27.97
  Q 238.29 27.94 250.75 27.78
  Z"
/>
<path fill="#200d0c" d="
  M 238.29 145.60
  Q 237.31 143.26 237.07 145.82
  Q 236.76 149.01 234.06 149.30
  Q 227.86 149.98 220.30 150.58
  C 213.28 151.14 208.38 149.76 208.13 141.73
  Q 208.08 140.32 207.64 138.35
  Q 207.22 136.42 207.16 135.01
  Q 206.18 109.57 204.09 81.96
  C 203.35 72.12 203.32 59.50 203.29 51.13
  Q 203.29 50.86 203.61 49.77
  Q 203.85 48.95 204.18 48.51
  Q 208.34 43.02 213.16 41.90
  Q 223.00 39.61 232.33 41.47
  Q 234.28 41.86 236.01 43.85
  Q 236.38 44.28 239.33 48.23
  C 241.98 51.77 243.68 56.66 244.49 61.06
  Q 244.75 62.47 244.93 61.04
  Q 246.72 46.75 246.75 46.52
  Q 246.94 44.98 248.79 42.79
  Q 250.44 40.83 255.00 39.29
  Q 264.49 36.07 275.28 37.61
  Q 281.18 38.46 284.95 43.33
  Q 286.64 45.52 287.39 50.81
  Q 289.02 62.31 289.06 63.50
  Q 289.69 78.73 291.26 96.03
  Q 292.65 111.46 293.17 126.77
  Q 293.41 134.11 292.83 139.03
  Q 292.44 142.28 290.30 144.18
  Q 288.97 145.36 285.32 145.98
  Q 280.90 146.73 275.45 147.40
  Q 272.39 147.77 270.25 146.95
  Q 268.20 146.16 265.17 145.64
  A 3.25 3.11 -86.6 0 1 262.57 142.58
  L 262.14 131.06
  Q 262.10 129.81 261.87 131.02
  Q 260.47 138.36 260.32 144.75
  Q 260.30 145.59 258.96 146.95
  Q 258.14 147.79 256.74 147.88
  Q 249.22 148.36 241.80 147.68
  Q 239.06 147.43 238.29 145.60
  Z
  M 227.96 81.15
  A 2.31 2.22 51.8 0 1 231.29 81.61
  Q 233.31 84.44 233.83 87.09
  C 234.70 91.44 235.23 95.98 236.29 100.94
  Q 239.21 114.58 241.36 128.13
  Q 241.73 130.49 243.92 138.43
  Q 244.04 138.86 244.49 138.86
  L 252.32 138.86
  Q 252.76 138.86 252.88 138.44
  Q 254.17 133.66 254.38 132.09
  Q 256.88 113.20 260.16 82.04
  Q 260.43 79.50 261.54 77.55
  A 2.06 2.05 35.9 0 1 264.70 77.05
  Q 267.62 79.67 267.74 84.00
  C 268.13 98.44 268.02 106.92 269.15 118.63
  Q 270.19 129.43 270.49 137.90
  A 0.71 0.70 -4.2 0 0 271.27 138.57
  L 283.22 137.28
  Q 283.82 137.22 283.82 136.61
  Q 283.79 129.89 283.59 127.25
  Q 281.69 102.23 279.85 75.39
  C 279.48 70.09 279.42 64.83 279.39 59.67
  Q 279.35 53.58 277.95 51.07
  Q 275.27 46.25 269.43 46.25
  C 264.89 46.26 260.95 46.85 256.61 48.61
  C 254.98 49.28 253.93 49.49 253.62 51.61
  Q 251.11 68.33 250.16 86.63
  Q 249.96 90.36 247.00 91.32
  C 243.78 92.36 241.94 89.55 241.27 86.74
  C 240.33 82.88 238.45 77.60 237.58 73.00
  Q 235.66 62.97 233.36 52.98
  A 2.61 2.60 -0.8 0 0 231.33 51.02
  Q 221.56 49.09 211.87 52.34
  A 0.85 0.84 -5.8 0 0 211.31 53.02
  Q 211.04 55.06 211.19 57.28
  Q 212.48 76.61 216.11 133.24
  Q 216.36 137.17 216.77 140.66
  Q 216.84 141.23 217.41 141.17
  L 228.44 139.98
  A 0.76 0.76 0.0 0 0 229.12 139.20
  Q 228.94 128.25 227.86 114.00
  Q 227.23 105.71 227.09 98.85
  Q 226.87 87.79 227.10 83.67
  Q 227.21 81.81 227.96 81.15
  Z"
/>
<path fill="#f7aa6b" d="
  M 227.96 81.15
  Q 227.21 81.81 227.10 83.67
  Q 226.87 87.79 227.09 98.85
  Q 227.23 105.71 227.86 114.00
  Q 228.94 128.25 229.12 139.20
  A 0.76 0.76 0.0 0 1 228.44 139.98
  L 217.41 141.17
  Q 216.84 141.23 216.77 140.66
  Q 216.36 137.17 216.11 133.24
  Q 212.48 76.61 211.19 57.28
  Q 211.04 55.06 211.31 53.02
  A 0.85 0.84 -5.8 0 1 211.87 52.34
  Q 221.56 49.09 231.33 51.02
  A 2.61 2.60 -0.8 0 1 233.36 52.98
  Q 235.66 62.97 237.58 73.00
  C 238.45 77.60 240.33 82.88 241.27 86.74
  C 241.94 89.55 243.78 92.36 247.00 91.32
  Q 249.96 90.36 250.16 86.63
  Q 251.11 68.33 253.62 51.61
  C 253.93 49.49 254.98 49.28 256.61 48.61
  C 260.95 46.85 264.89 46.26 269.43 46.25
  Q 275.27 46.25 277.95 51.07
  Q 279.35 53.58 279.39 59.67
  C 279.42 64.83 279.48 70.09 279.85 75.39
  Q 281.69 102.23 283.59 127.25
  Q 283.79 129.89 283.82 136.61
  Q 283.82 137.22 283.22 137.28
  L 271.27 138.57
  A 0.71 0.70 -4.2 0 1 270.49 137.90
  Q 270.19 129.43 269.15 118.63
  C 268.02 106.92 268.13 98.44 267.74 84.00
  Q 267.62 79.67 264.70 77.05
  A 2.06 2.05 35.9 0 0 261.54 77.55
  Q 260.43 79.50 260.16 82.04
  Q 256.88 113.20 254.38 132.09
  Q 254.17 133.66 252.88 138.44
  Q 252.76 138.86 252.32 138.86
  L 244.49 138.86
  Q 244.04 138.86 243.92 138.43
  Q 241.73 130.49 241.36 128.13
  Q 239.21 114.58 236.29 100.94
  C 235.23 95.98 234.70 91.44 233.83 87.09
  Q 233.31 84.44 231.29 81.61
  A 2.31 2.22 51.8 0 0 227.96 81.15
  Z"
/>
<path fill="#200d0c" d="
  M 182.63 153.79
  A 0.47 0.47 0.0 0 0 181.82 153.71
  Q 179.05 157.57 175.70 160.87
  C 170.44 166.06 160.64 164.95 154.62 161.94
  Q 150.16 159.72 145.38 154.40
  Q 142.43 151.12 139.53 144.17
  Q 134.50 132.14 134.03 130.97
  Q 131.53 124.76 129.51 117.43
  Q 124.25 98.41 123.80 96.71
  C 119.68 81.25 125.55 67.70 138.05 58.35
  C 144.56 53.49 152.80 52.41 160.77 53.30
  Q 165.19 53.80 168.57 55.96
  Q 184.90 66.41 188.74 85.33
  Q 188.84 85.81 188.64 86.25
  Q 187.88 87.98 186.55 88.58
  C 180.34 91.37 176.18 93.94 170.58 95.63
  Q 166.96 96.72 160.93 99.19
  A 0.96 0.96 0.0 0 0 160.35 100.18
  L 160.40 100.69
  Q 160.48 101.42 161.17 101.18
  Q 166.83 99.18 177.31 96.25
  Q 182.01 94.93 188.08 91.53
  C 189.90 90.51 191.90 91.02 193.00 93.04
  Q 194.69 96.13 194.87 96.64
  Q 197.83 105.23 199.64 110.14
  Q 202.40 117.61 203.87 123.69
  Q 206.84 136.00 207.63 140.59
  Q 208.01 142.80 207.89 145.04
  C 207.79 146.89 207.22 148.05 205.61 149.05
  Q 195.72 155.20 190.22 156.98
  Q 184.87 158.72 182.63 153.79
  Z
  M 180.78 141.32
  Q 187.20 140.74 189.34 147.07
  A 0.68 0.68 0.0 0 0 190.32 147.44
  L 198.66 142.62
  A 1.73 1.72 -19.8 0 0 199.50 140.84
  Q 196.04 120.70 188.68 101.78
  A 0.57 0.57 0.0 0 0 187.91 101.47
  Q 178.45 105.94 168.06 108.36
  A 0.96 0.94 81.6 0 0 167.33 109.36
  L 167.62 113.52
  A 0.94 0.47 11.7 0 0 168.31 114.07
  Q 168.47 114.12 169.71 114.27
  C 172.19 114.56 174.22 116.15 174.68 118.63
  Q 175.98 125.68 177.14 131.07
  C 178.17 135.86 177.36 141.57 172.36 143.53
  C 165.89 146.08 160.30 128.94 158.86 124.18
  Q 156.16 115.28 156.12 115.16
  Q 152.70 105.04 149.36 94.88
  C 148.40 91.94 147.08 80.91 150.38 77.92
  Q 152.93 75.61 156.55 76.83
  C 158.11 77.35 160.16 80.28 160.57 81.45
  Q 161.69 84.68 162.95 87.72
  A 0.49 0.49 0.0 0 0 163.52 88.01
  Q 169.88 86.47 174.70 83.98
  Q 175.77 83.42 176.84 83.14
  Q 178.37 82.73 179.04 82.39
  Q 179.51 82.15 179.31 81.68
  Q 175.70 73.00 168.98 66.89
  Q 165.07 63.34 163.25 62.87
  Q 146.47 58.57 136.05 71.51
  Q 131.04 77.74 130.68 85.12
  Q 130.48 89.31 133.41 98.86
  Q 138.08 114.04 139.85 119.71
  C 141.99 126.60 145.41 133.59 147.95 140.16
  Q 150.09 145.69 152.16 148.06
  Q 155.38 151.76 159.23 153.86
  Q 167.62 158.43 173.32 150.57
  Q 175.53 147.53 177.93 143.69
  Q 179.32 141.45 180.78 141.32
  Z"
/>
<path fill="#f7aa6b" d="
  M 180.78 141.32
  Q 179.32 141.45 177.93 143.69
  Q 175.53 147.53 173.32 150.57
  Q 167.62 158.43 159.23 153.86
  Q 155.38 151.76 152.16 148.06
  Q 150.09 145.69 147.95 140.16
  C 145.41 133.59 141.99 126.60 139.85 119.71
  Q 138.08 114.04 133.41 98.86
  Q 130.48 89.31 130.68 85.12
  Q 131.04 77.74 136.05 71.51
  Q 146.47 58.57 163.25 62.87
  Q 165.07 63.34 168.98 66.89
  Q 175.70 73.00 179.31 81.68
  Q 179.51 82.15 179.04 82.39
  Q 178.37 82.73 176.84 83.14
  Q 175.77 83.42 174.70 83.98
  Q 169.88 86.47 163.52 88.01
  A 0.49 0.49 0.0 0 1 162.95 87.72
  Q 161.69 84.68 160.57 81.45
  C 160.16 80.28 158.11 77.35 156.55 76.83
  Q 152.93 75.61 150.38 77.92
  C 147.08 80.91 148.40 91.94 149.36 94.88
  Q 152.70 105.04 156.12 115.16
  Q 156.16 115.28 158.86 124.18
  C 160.30 128.94 165.89 146.08 172.36 143.53
  C 177.36 141.57 178.17 135.86 177.14 131.07
  Q 175.98 125.68 174.68 118.63
  C 174.22 116.15 172.19 114.56 169.71 114.27
  Q 168.47 114.12 168.31 114.07
  A 0.94 0.47 11.7 0 1 167.62 113.52
  L 167.33 109.36
  A 0.96 0.94 81.6 0 1 168.06 108.36
  Q 178.45 105.94 187.91 101.47
  A 0.57 0.57 0.0 0 1 188.68 101.78
  Q 196.04 120.70 199.50 140.84
  A 1.73 1.72 -19.8 0 1 198.66 142.62
  L 190.32 147.44
  A 0.68 0.68 0.0 0 1 189.34 147.07
  Q 187.20 140.74 180.78 141.32
  Z"
/>
<path fill="#200d0c" d="
  M 120.13 119.10
  A 0.62 0.62 0.0 0 0 120.55 119.77
  Q 126.12 121.47 129.80 125.64
  Q 131.88 128.00 134.93 134.82
  Q 140.55 147.43 142.57 152.69
  C 145.53 160.43 142.55 167.28 136.82 172.56
  Q 121.31 186.81 101.93 194.16
  Q 96.80 196.10 92.14 192.88
  Q 90.42 191.69 87.77 186.97
  Q 84.64 181.43 81.91 175.73
  Q 76.69 164.80 76.43 164.31
  Q 69.26 150.64 64.21 142.59
  Q 55.67 128.95 52.13 120.93
  Q 50.48 117.21 48.40 111.37
  C 46.90 107.15 48.42 104.37 52.20 101.99
  Q 57.17 98.86 58.01 98.48
  Q 72.90 91.61 81.98 87.20
  Q 86.93 84.79 94.92 85.88
  Q 101.93 86.83 109.16 93.26
  Q 114.42 97.93 118.94 108.10
  C 120.52 111.64 120.66 115.52 120.13 119.10
  Z
  M 105.95 125.77
  C 105.96 123.85 109.06 121.23 109.67 119.17
  C 111.28 113.72 107.84 107.09 104.67 102.59
  C 101.62 98.26 96.08 94.27 90.61 94.42
  Q 87.59 94.50 84.79 95.81
  Q 84.59 95.90 61.32 106.77
  Q 58.32 108.17 56.01 109.94
  Q 55.61 110.25 55.85 110.69
  Q 62.92 123.38 69.14 133.61
  C 75.13 143.47 79.67 151.31 84.88 159.96
  C 89.91 168.33 94.49 177.88 97.74 184.50
  Q 97.94 184.91 98.36 184.73
  Q 115.56 177.42 130.16 164.67
  C 133.51 161.75 133.86 158.73 132.09 154.58
  Q 124.32 136.37 122.79 133.55
  Q 120.86 129.99 116.79 129.29
  C 114.66 128.92 112.82 130.03 110.94 130.84
  A 1.59 1.57 39.7 0 1 109.99 130.92
  Q 105.94 130.02 105.95 125.77
  Z"
/>
<path fill="#f7aa6b" d="
  M 105.95 125.77
  Q 105.94 130.02 109.99 130.92
  A 1.59 1.57 39.7 0 0 110.94 130.84
  C 112.82 130.03 114.66 128.92 116.79 129.29
  Q 120.86 129.99 122.79 133.55
  Q 124.32 136.37 132.09 154.58
  C 133.86 158.73 133.51 161.75 130.16 164.67
  Q 115.56 177.42 98.36 184.73
  Q 97.94 184.91 97.74 184.50
  C 94.49 177.88 89.91 168.33 84.88 159.96
  C 79.67 151.31 75.13 143.47 69.14 133.61
  Q 62.92 123.38 55.85 110.69
  Q 55.61 110.25 56.01 109.94
  Q 58.32 108.17 61.32 106.77
  Q 84.59 95.90 84.79 95.81
  Q 87.59 94.50 90.61 94.42
  C 96.08 94.27 101.62 98.26 104.67 102.59
  C 107.84 107.09 111.28 113.72 109.67 119.17
  C 109.06 121.23 105.96 123.85 105.95 125.77
  Z
  M 94.41 121.20
  C 92.46 116.43 90.30 112.08 86.53 108.66
  C 84.41 106.74 81.33 106.09 79.28 108.32
  C 77.64 110.11 78.47 112.69 79.48 114.68
  Q 81.28 118.22 84.85 125.90
  Q 86.85 130.22 91.71 129.11
  Q 94.35 128.51 95.09 125.31
  Q 95.45 123.76 94.41 121.20
  Z
  M 101.75 155.57
  C 103.11 158.25 105.87 164.77 108.59 165.97
  Q 111.37 167.19 113.42 165.63
  C 117.72 162.35 113.63 154.20 111.78 150.52
  C 109.91 146.83 105.79 138.70 100.60 140.21
  Q 98.12 140.93 97.45 143.89
  C 96.80 146.80 100.41 152.89 101.75 155.57
  Z"
/>
<path fill="#200d0c" d="
  M 86.53 108.66
  C 90.30 112.08 92.46 116.43 94.41 121.20
  Q 95.45 123.76 95.09 125.31
  Q 94.35 128.51 91.71 129.11
  Q 86.85 130.22 84.85 125.90
  Q 81.28 118.22 79.48 114.68
  C 78.47 112.69 77.64 110.11 79.28 108.32
  C 81.33 106.09 84.41 106.74 86.53 108.66
  Z"
/>
<path fill="#200d0c" d="
  M 111.78 150.52
  C 113.63 154.20 117.72 162.35 113.42 165.63
  Q 111.37 167.19 108.59 165.97
  C 105.87 164.77 103.11 158.25 101.75 155.57
  C 100.41 152.89 96.80 146.80 97.45 143.89
  Q 98.12 140.93 100.60 140.21
  C 105.79 138.70 109.91 146.83 111.78 150.52
  Z"
/>
</svg>
