<?xml version="1.0" encoding="UTF-8" standalone="no"?>
<!DOCTYPE svg PUBLIC "-//W3C//DTD SVG 1.1//EN" "http://www.w3.org/Graphics/SVG/1.1/DTD/svg11.dtd">
<svg xmlns="http://www.w3.org/2000/svg" version="1.1" viewBox="0.00 0.00 175.00 205.00">
<g stroke-width="2.00" fill="none" stroke-linecap="butt">
<path stroke="#b1b1b1" vector-effect="non-scaling-stroke" d="
  M 72.40 14.66
  Q 70.33 12.82 67.46 12.33
  C 63.27 11.60 57.45 11.57 53.80 13.79
  C 52.50 14.59 51.17 16.89 50.13 17.97
  A 2.37 2.36 -78.1 0 1 49.32 18.50
  Q 48.51 18.81 43.93 19.66
  Q 38.82 20.61 35.16 24.75
  C 32.64 27.60 32.89 30.23 32.98 34.22
  A 2.70 2.68 -24.1 0 1 32.25 36.11
  C 29.87 38.64 29.31 40.91 28.27 44.69
  Q 26.59 50.79 27.02 57.01
  Q 27.68 66.45 30.36 76.41
  Q 30.91 78.49 33.03 81.62
  Q 34.95 84.45 35.81 86.57
  Q 36.27 87.71 38.65 92.91
  Q 42.66 101.67 48.36 112.66
  C 49.57 115.00 50.33 117.30 51.13 119.69
  Q 51.99 122.29 52.03 125.13
  Q 52.30 143.78 51.21 159.03
  Q 50.74 165.58 48.78 172.33
  Q 46.63 179.70 44.09 186.62
  Q 42.52 190.89 39.51 194.36
  Q 39.13 194.80 39.56 195.19
  Q 41.63 197.01 46.59 196.96
  Q 64.72 196.78 85.57 197.88
  Q 89.32 198.08 98.57 197.32
  Q 105.18 196.77 116.57 197.43
  C 125.84 197.98 135.70 198.28 142.39 197.69
  Q 143.16 197.62 146.32 195.94
  Q 146.76 195.70 146.79 195.20
  C 147.07 190.41 146.10 185.04 146.07 179.94
  Q 145.97 165.91 145.98 164.14
  Q 146.04 156.84 144.90 148.42
  Q 144.02 141.93 143.06 130.25
  Q 142.28 120.72 141.57 115.94
  C 140.98 111.90 139.32 107.34 138.47 103.74
  Q 133.90 84.27 133.09 81.42
  Q 132.51 79.40 130.51 75.49
  Q 129.23 73.01 128.23 69.47
  Q 127.10 65.49 123.62 59.91
  Q 123.31 59.41 115.11 46.50
  Q 114.01 44.78 112.64 43.05
  Q 111.05 41.03 110.13 39.40
  C 107.93 35.50 105.66 33.02 102.52 30.03
  Q 100.26 27.88 98.09 25.22
  Q 96.35 23.08 91.60 19.53
  Q 88.34 17.09 83.86 16.09
  Q 78.28 14.85 73.47 15.04
  A 1.51 1.49 64.2 0 1 72.40 14.66"
/>
<path stroke="#b1b1b1" vector-effect="non-scaling-stroke" d="
  M 50.05 21.47
  Q 38.47 20.15 35.32 30.61
  C 34.78 32.39 34.69 34.96 34.48 36.57
  Q 34.42 37.09 34.06 37.47
  Q 28.84 43.02 28.93 53.29
  Q 29.01 64.00 32.47 73.30
  Q 37.08 85.71 43.50 97.75
  Q 45.86 102.17 50.77 113.89
  Q 52.57 118.18 53.08 122.23
  Q 57.70 159.01 44.87 193.85
  A 0.48 0.47 10.2 0 0 45.32 194.49
  L 143.48 194.49
  A 0.37 0.37 0.0 0 0 143.85 194.13
  Q 144.41 174.67 143.42 156.05
  Q 142.07 130.73 136.13 104.34
  Q 131.72 84.73 123.33 66.54
  Q 117.65 54.24 115.52 50.38
  Q 108.68 37.95 98.73 28.04
  Q 94.97 24.30 89.34 20.76
  Q 80.90 15.47 72.30 17.43
  A 1.22 1.18 54.3 0 1 71.36 17.26
  Q 66.32 14.00 60.14 14.38
  C 55.52 14.67 53.19 17.27 51.03 20.97
  A 1.01 1.00 -71.8 0 1 50.05 21.47"
/>
<path stroke="#ffd2ce" vector-effect="non-scaling-stroke" d="
  M 69.5835 38.4443
  A 9.36 6.89 61.1 0 0 71.0920 26.9202
  A 9.36 6.89 61.1 0 0 60.5365 22.0557
  A 9.36 6.89 61.1 0 0 59.0280 33.5798
  A 9.36 6.89 61.1 0 0 69.5835 38.4443"
/>
<path stroke="#ffd2ce" vector-effect="non-scaling-stroke" d="
  M 89.6383 42.8196
  A 9.36 6.89 59.8 0 0 90.8849 31.2642
  A 9.36 6.89 59.8 0 0 80.2217 26.6404
  A 9.36 6.89 59.8 0 0 78.9751 38.1958
  A 9.36 6.89 59.8 0 0 89.6383 42.8196"
/>
<path stroke="#ffd2ce" vector-effect="non-scaling-stroke" d="
  M 54.3870 46.9172
  A 9.37 6.88 60.9 0 0 55.8416 35.3840
  A 9.37 6.88 60.9 0 0 45.2730 30.5428
  A 9.37 6.88 60.9 0 0 43.8184 42.0760
  A 9.37 6.88 60.9 0 0 54.3870 46.9172"
/>
<path stroke="#ffd2ce" vector-effect="non-scaling-stroke" d="
  M 55.11 70.38
  C 53.41 79.44 55.16 88.92 66.26 89.83
  Q 74.46 90.51 83.18 86.66
  Q 93.45 82.11 99.17 73.73
  Q 107.13 62.08 96.19 54.30
  Q 94.59 53.16 88.76 51.16
  C 85.49 50.03 82.46 47.47 78.86 46.79
  C 69.73 45.05 60.98 48.93 57.40 57.71
  C 55.62 62.08 55.72 67.12 55.11 70.38"
/>
<path stroke="#ffd2ce" vector-effect="non-scaling-stroke" d="
  M 45.4383 65.8306
  A 9.40 6.89 65.9 0 0 47.8894 54.4366
  A 9.40 6.89 65.9 0 0 37.7617 48.6694
  A 9.40 6.89 65.9 0 0 35.3106 60.0634
  A 9.40 6.89 65.9 0 0 45.4383 65.8306"
/>
<path stroke="#ffd2ce" vector-effect="non-scaling-stroke" d="
  M 64.7714 114.7650
  A 8.85 7.09 60.4 0 0 66.5647 103.5680
  A 8.85 7.09 60.4 0 0 56.0286 99.3750
  A 8.85 7.09 60.4 0 0 54.2353 110.5720
  A 8.85 7.09 60.4 0 0 64.7714 114.7650"
/>
</g>
<path fill="#ffffff" fill-opacity="0" d="
  M 175.00 0.00
  L 175.00 205.00
  L 0.00 205.00
  L 0.00 0.00
  L 175.00 0.00
  Z
  M 72.40 14.66
  Q 70.33 12.82 67.46 12.33
  C 63.27 11.60 57.45 11.57 53.80 13.79
  C 52.50 14.59 51.17 16.89 50.13 17.97
  A 2.37 2.36 -78.1 0 1 49.32 18.50
  Q 48.51 18.81 43.93 19.66
  Q 38.82 20.61 35.16 24.75
  C 32.64 27.60 32.89 30.23 32.98 34.22
  A 2.70 2.68 -24.1 0 1 32.25 36.11
  C 29.87 38.64 29.31 40.91 28.27 44.69
  Q 26.59 50.79 27.02 57.01
  Q 27.68 66.45 30.36 76.41
  Q 30.91 78.49 33.03 81.62
  Q 34.95 84.45 35.81 86.57
  Q 36.27 87.71 38.65 92.91
  Q 42.66 101.67 48.36 112.66
  C 49.57 115.00 50.33 117.30 51.13 119.69
  Q 51.99 122.29 52.03 125.13
  Q 52.30 143.78 51.21 159.03
  Q 50.74 165.58 48.78 172.33
  Q 46.63 179.70 44.09 186.62
  Q 42.52 190.89 39.51 194.36
  Q 39.13 194.80 39.56 195.19
  Q 41.63 197.01 46.59 196.96
  Q 64.72 196.78 85.57 197.88
  Q 89.32 198.08 98.57 197.32
  Q 105.18 196.77 116.57 197.43
  C 125.84 197.98 135.70 198.28 142.39 197.69
  Q 143.16 197.62 146.32 195.94
  Q 146.76 195.70 146.79 195.20
  C 147.07 190.41 146.10 185.04 146.07 179.94
  Q 145.97 165.91 145.98 164.14
  Q 146.04 156.84 144.90 148.42
  Q 144.02 141.93 143.06 130.25
  Q 142.28 120.72 141.57 115.94
  C 140.98 111.90 139.32 107.34 138.47 103.74
  Q 133.90 84.27 133.09 81.42
  Q 132.51 79.40 130.51 75.49
  Q 129.23 73.01 128.23 69.47
  Q 127.10 65.49 123.62 59.91
  Q 123.31 59.41 115.11 46.50
  Q 114.01 44.78 112.64 43.05
  Q 111.05 41.03 110.13 39.40
  C 107.93 35.50 105.66 33.02 102.52 30.03
  Q 100.26 27.88 98.09 25.22
  Q 96.35 23.08 91.60 19.53
  Q 88.34 17.09 83.86 16.09
  Q 78.28 14.85 73.47 15.04
  A 1.51 1.49 64.2 0 1 72.40 14.66
  Z"
/>
<path fill="#636363" d="
  M 72.40 14.66
  A 1.51 1.49 64.2 0 0 73.47 15.04
  Q 78.28 14.85 83.86 16.09
  Q 88.34 17.09 91.60 19.53
  Q 96.35 23.08 98.09 25.22
  Q 100.26 27.88 102.52 30.03
  C 105.66 33.02 107.93 35.50 110.13 39.40
  Q 111.05 41.03 112.64 43.05
  Q 114.01 44.78 115.11 46.50
  Q 123.31 59.41 123.62 59.91
  Q 127.10 65.49 128.23 69.47
  Q 129.23 73.01 130.51 75.49
  Q 132.51 79.40 133.09 81.42
  Q 133.90 84.27 138.47 103.74
  C 139.32 107.34 140.98 111.90 141.57 115.94
  Q 142.28 120.72 143.06 130.25
  Q 144.02 141.93 144.90 148.42
  Q 146.04 156.84 145.98 164.14
  Q 145.97 165.91 146.07 179.94
  C 146.10 185.04 147.07 190.41 146.79 195.20
  Q 146.76 195.70 146.32 195.94
  Q 143.16 197.62 142.39 197.69
  C 135.70 198.28 125.84 197.98 116.57 197.43
  Q 105.18 196.77 98.57 197.32
  Q 89.32 198.08 85.57 197.88
  Q 64.72 196.78 46.59 196.96
  Q 41.63 197.01 39.56 195.19
  Q 39.13 194.80 39.51 194.36
  Q 42.52 190.89 44.09 186.62
  Q 46.63 179.70 48.78 172.33
  Q 50.74 165.58 51.21 159.03
  Q 52.30 143.78 52.03 125.13
  Q 51.99 122.29 51.13 119.69
  C 50.33 117.30 49.57 115.00 48.36 112.66
  Q 42.66 101.67 38.65 92.91
  Q 36.27 87.71 35.81 86.57
  Q 34.95 84.45 33.03 81.62
  Q 30.91 78.49 30.36 76.41
  Q 27.68 66.45 27.02 57.01
  Q 26.59 50.79 28.27 44.69
  C 29.31 40.91 29.87 38.64 32.25 36.11
  A 2.70 2.68 -24.1 0 0 32.98 34.22
  C 32.89 30.23 32.64 27.60 35.16 24.75
  Q 38.82 20.61 43.93 19.66
  Q 48.51 18.81 49.32 18.50
  A 2.37 2.36 -78.1 0 0 50.13 17.97
  C 51.17 16.89 52.50 14.59 53.80 13.79
  C 57.45 11.57 63.27 11.60 67.46 12.33
  Q 70.33 12.82 72.40 14.66
  Z
  M 50.05 21.47
  Q 38.47 20.15 35.32 30.61
  C 34.78 32.39 34.69 34.96 34.48 36.57
  Q 34.42 37.09 34.06 37.47
  Q 28.84 43.02 28.93 53.29
  Q 29.01 64.00 32.47 73.30
  Q 37.08 85.71 43.50 97.75
  Q 45.86 102.17 50.77 113.89
  Q 52.57 118.18 53.08 122.23
  Q 57.70 159.01 44.87 193.85
  A 0.48 0.47 10.2 0 0 45.32 194.49
  L 143.48 194.49
  A 0.37 0.37 0.0 0 0 143.85 194.13
  Q 144.41 174.67 143.42 156.05
  Q 142.07 130.73 136.13 104.34
  Q 131.72 84.73 123.33 66.54
  Q 117.65 54.24 115.52 50.38
  Q 108.68 37.95 98.73 28.04
  Q 94.97 24.30 89.34 20.76
  Q 80.90 15.47 72.30 17.43
  A 1.22 1.18 54.3 0 1 71.36 17.26
  Q 66.32 14.00 60.14 14.38
  C 55.52 14.67 53.19 17.27 51.03 20.97
  A 1.01 1.00 -71.8 0 1 50.05 21.47
  Z"
/>
<path fill="#ffffff" d="
  M 50.05 21.47
  A 1.01 1.00 -71.8 0 0 51.03 20.97
  C 53.19 17.27 55.52 14.67 60.14 14.38
  Q 66.32 14.00 71.36 17.26
  A 1.22 1.18 54.3 0 0 72.30 17.43
  Q 80.90 15.47 89.34 20.76
  Q 94.97 24.30 98.73 28.04
  Q 108.68 37.95 115.52 50.38
  Q 117.65 54.24 123.33 66.54
  Q 131.72 84.73 136.13 104.34
  Q 142.07 130.73 143.42 156.05
  Q 144.41 174.67 143.85 194.13
  A 0.37 0.37 0.0 0 1 143.48 194.49
  L 45.32 194.49
  A 0.48 0.47 10.2 0 1 44.87 193.85
  Q 57.70 159.01 53.08 122.23
  Q 52.57 118.18 50.77 113.89
  Q 45.86 102.17 43.50 97.75
  Q 37.08 85.71 32.47 73.30
  Q 29.01 64.00 28.93 53.29
  Q 28.84 43.02 34.06 37.47
  Q 34.42 37.09 34.48 36.57
  C 34.69 34.96 34.78 32.39 35.32 30.61
  Q 38.47 20.15 50.05 21.47
  Z
  M 69.5835 38.4443
  A 9.36 6.89 61.1 0 0 71.0920 26.9202
  A 9.36 6.89 61.1 0 0 60.5365 22.0557
  A 9.36 6.89 61.1 0 0 59.0280 33.5798
  A 9.36 6.89 61.1 0 0 69.5835 38.4443
  Z
  M 89.6383 42.8196
  A 9.36 6.89 59.8 0 0 90.8849 31.2642
  A 9.36 6.89 59.8 0 0 80.2217 26.6404
  A 9.36 6.89 59.8 0 0 78.9751 38.1958
  A 9.36 6.89 59.8 0 0 89.6383 42.8196
  Z
  M 54.3870 46.9172
  A 9.37 6.88 60.9 0 0 55.8416 35.3840
  A 9.37 6.88 60.9 0 0 45.2730 30.5428
  A 9.37 6.88 60.9 0 0 43.8184 42.0760
  A 9.37 6.88 60.9 0 0 54.3870 46.9172
  Z
  M 55.11 70.38
  C 53.41 79.44 55.16 88.92 66.26 89.83
  Q 74.46 90.51 83.18 86.66
  Q 93.45 82.11 99.17 73.73
  Q 107.13 62.08 96.19 54.30
  Q 94.59 53.16 88.76 51.16
  C 85.49 50.03 82.46 47.47 78.86 46.79
  C 69.73 45.05 60.98 48.93 57.40 57.71
  C 55.62 62.08 55.72 67.12 55.11 70.38
  Z
  M 45.4383 65.8306
  A 9.40 6.89 65.9 0 0 47.8894 54.4366
  A 9.40 6.89 65.9 0 0 37.7617 48.6694
  A 9.40 6.89 65.9 0 0 35.3106 60.0634
  A 9.40 6.89 65.9 0 0 45.4383 65.8306
  Z
  M 64.7714 114.7650
  A 8.85 7.09 60.4 0 0 66.5647 103.5680
  A 8.85 7.09 60.4 0 0 56.0286 99.3750
  A 8.85 7.09 60.4 0 0 54.2353 110.5720
  A 8.85 7.09 60.4 0 0 64.7714 114.7650
  Z"
/>
<ellipse fill="#ffa59d" cx="0.00" cy="0.00" transform="translate(65.06,30.25) rotate(61.1)" rx="9.36" ry="6.89"/>
<ellipse fill="#ffa59d" cx="0.00" cy="0.00" transform="translate(84.93,34.73) rotate(59.8)" rx="9.36" ry="6.89"/>
<ellipse fill="#ffa59d" cx="0.00" cy="0.00" transform="translate(49.83,38.73) rotate(60.9)" rx="9.37" ry="6.88"/>
<path fill="#ffa59d" d="
  M 55.11 70.38
  C 55.72 67.12 55.62 62.08 57.40 57.71
  C 60.98 48.93 69.73 45.05 78.86 46.79
  C 82.46 47.47 85.49 50.03 88.76 51.16
  Q 94.59 53.16 96.19 54.30
  Q 107.13 62.08 99.17 73.73
  Q 93.45 82.11 83.18 86.66
  Q 74.46 90.51 66.26 89.83
  C 55.16 88.92 53.41 79.44 55.11 70.38
  Z"
/>
<ellipse fill="#ffa59d" cx="0.00" cy="0.00" transform="translate(41.60,57.25) rotate(65.9)" rx="9.40" ry="6.89"/>
<ellipse fill="#ffa59d" cx="0.00" cy="0.00" transform="translate(60.40,107.07) rotate(60.4)" rx="8.85" ry="7.09"/>
</svg>
