<?xml version="1.0" encoding="UTF-8" standalone="no"?>
<!DOCTYPE svg PUBLIC "-//W3C//DTD SVG 1.1//EN" "http://www.w3.org/Graphics/SVG/1.1/DTD/svg11.dtd">
<svg xmlns="http://www.w3.org/2000/svg" version="1.1" viewBox="0.00 0.00 157.00 220.00">
<g stroke-width="2.00" fill="none" stroke-linecap="butt">
<path stroke="#f2d9c1" vector-effect="non-scaling-stroke" d="
  M 15.58 148.22
  L 13.17 178.45"
/>
<path stroke="#f9ebd2" vector-effect="non-scaling-stroke" d="
  M 13.17 178.45
  L 13.22 205.91"
/>
<path stroke="#f2d9c1" vector-effect="non-scaling-stroke" d="
  M 13.22 205.91
  L 13.21 216.24
  Q 13.21 216.76 13.73 216.76
  L 61.53 216.77"
/>
<path stroke="#f9ebd2" vector-effect="non-scaling-stroke" d="
  M 61.53 216.77
  L 120.78 216.72
  Q 121.37 216.72 121.24 216.15
  Q 120.84 214.41 120.05 212.82
  Q 119.29 211.31 119.06 208.87
  Q 118.29 200.67 116.33 191.67
  Q 116.01 190.18 115.93 188.30
  Q 115.86 186.19 115.64 184.90"
/>
<path stroke="#f2d9c1" vector-effect="non-scaling-stroke" d="
  M 115.64 184.90
  Q 115.66 181.40 115.39 178.44
  Q 115.01 174.42 115.10 172.03
  Q 115.75 155.66 115.79 150.73
  Q 115.85 143.30 116.82 134.85
  Q 117.47 129.24 118.18 118.98
  Q 118.31 117.14 120.25 112.99"
/>
<path stroke="#f9ebd2" vector-effect="non-scaling-stroke" d="
  M 120.25 112.99
  Q 123.78 104.49 125.78 101.28
  Q 131.39 92.28 135.91 82.84
  Q 139.83 74.65 140.66 69.51
  Q 141.70 63.15 140.46 55.16
  Q 140.03 52.43 136.36 48.08
  Q 136.01 47.66 135.96 47.12
  C 135.50 42.81 137.59 38.43 137.76 34.75
  Q 138.21 25.32 132.71 18.68
  Q 128.95 14.15 123.02 11.58
  Q 122.21 11.23 121.06 11.14
  C 119.11 11.00 118.31 11.11 116.61 9.60
  C 113.84 7.14 109.30 2.83 105.62 2.30
  Q 96.34 0.95 88.81 7.11
  C 85.68 9.67 83.40 12.25 80.24 12.16
  Q 76.24 12.06 74.77 12.14
  Q 70.79 12.35 69.10 13.88
  Q 65.44 17.21 62.21 19.83
  Q 59.71 21.86 57.89 24.27
  Q 55.37 27.60 54.45 29.46
  Q 50.17 38.10 47.05 43.61
  C 45.44 46.46 44.59 49.04 43.39 52.31
  Q 42.28 55.34 40.69 58.87
  Q 39.03 62.58 38.47 64.63
  Q 37.69 67.50 36.28 70.34
  Q 34.85 73.23 33.66 77.62
  Q 32.81 80.80 31.06 84.87
  Q 30.13 87.04 28.71 92.47
  Q 28.06 95.00 24.63 104.65
  Q 23.54 107.71 23.00 110.20
  Q 22.42 112.83 21.39 115.77
  Q 20.37 118.70 19.41 124.22
  C 18.02 132.19 15.94 140.13 15.58 148.22"
/>
<path stroke="#ecc594" vector-effect="non-scaling-stroke" d="
  M 120.25 112.99
  Q 116.08 111.86 112.21 113.23
  Q 107.13 115.02 102.59 118.04"
/>
<path stroke="#efbb93" vector-effect="non-scaling-stroke" d="
  M 102.59 118.04
  Q 94.23 120.34 91.20 129.03"
/>
<path stroke="#ecc594" vector-effect="non-scaling-stroke" d="
  M 91.20 129.03
  Q 86.20 137.19 88.28 146.83
  Q 88.75 149.01 89.31 151.19
  C 90.51 155.86 93.18 159.60 97.04 162.50
  C 98.40 163.51 100.98 163.91 101.93 165.43
  Q 105.37 170.93 107.25 176.28
  Q 109.54 182.80 115.64 184.90"
/>
<path stroke="#ecc594" vector-effect="non-scaling-stroke" d="
  M 61.53 216.77
  Q 62.30 216.52 62.34 216.30
  A 0.72 0.72 0.0 0 0 61.70 215.43
  L 56.59 214.98
  A 1.18 1.08 -13.8 0 1 55.73 214.51
  Q 53.08 210.70 48.25 209.93
  Q 47.18 209.76 42.41 209.30
  Q 41.17 209.18 40.50 208.53
  Q 28.40 196.84 13.22 205.91"
/>
<path stroke="#ecc594" vector-effect="non-scaling-stroke" d="
  M 13.17 178.45
  Q 17.27 178.52 21.00 178.34
  Q 27.22 178.04 30.06 172.59
  C 32.79 167.37 30.47 164.10 27.07 160.43
  Q 25.90 159.16 25.26 157.46
  C 23.46 152.70 21.17 148.98 15.58 148.22"
/>
<path stroke="#e8a981" vector-effect="non-scaling-stroke" d="
  M 91.20 129.03
  Q 92.68 133.92 94.12 135.14
  Q 98.59 138.93 102.40 136.59
  Q 105.20 134.87 106.66 130.77
  Q 109.30 123.34 102.59 118.04"
/>
<path stroke="#efbb93" vector-effect="non-scaling-stroke" d="
  M 90.0083 36.0891
  A 12.20 8.82 116.7 0 0 103.3695 29.1530
  A 12.20 8.82 116.7 0 0 100.9717 14.2909
  A 12.20 8.82 116.7 0 0 87.6105 21.2270
  A 12.20 8.82 116.7 0 0 90.0083 36.0891"
/>
<path stroke="#efbb93" vector-effect="non-scaling-stroke" d="
  M 68.7309 43.7622
  A 10.01 6.65 106.0 0 0 77.8824 35.9730
  A 10.01 6.65 106.0 0 0 74.2491 24.5178
  A 10.01 6.65 106.0 0 0 65.0976 32.3070
  A 10.01 6.65 106.0 0 0 68.7309 43.7622"
/>
<path stroke="#efbb93" vector-effect="non-scaling-stroke" d="
  M 115.1742 47.9377
  A 11.86 8.10 110.1 0 0 126.8567 39.5836
  A 11.86 8.10 110.1 0 0 123.3258 25.6623
  A 11.86 8.10 110.1 0 0 111.6433 34.0164
  A 11.86 8.10 110.1 0 0 115.1742 47.9377"
/>
<path stroke="#ecc594" vector-effect="non-scaling-stroke" d="
  M 58.22 68.64
  C 51.75 68.26 45.76 70.92 42.96 76.86
  Q 41.35 80.28 40.65 82.17
  Q 39.29 85.85 39.70 90.77
  Q 41.11 107.35 57.05 110.02
  A 2.74 2.72 77.4 0 1 58.86 111.18
  Q 62.62 116.70 67.51 121.18
  Q 71.19 124.55 77.79 123.79
  Q 80.98 123.42 85.30 121.04
  C 90.56 118.15 96.46 113.27 98.39 107.68
  Q 98.89 106.24 99.30 104.80"
/>
<path stroke="#efbb93" vector-effect="non-scaling-stroke" d="
  M 99.30 104.80
  Q 106.12 103.72 109.90 98.61
  Q 113.19 94.15 112.96 88.31
  Q 112.89 86.32 110.31 80.02
  Q 107.29 72.63 105.89 63.93
  Q 105.41 60.88 102.01 57.07
  Q 99.42 54.17 95.36 53.82
  Q 89.16 53.28 85.53 54.78
  Q 76.15 58.65 68.07 61.78
  Q 65.20 62.90 58.22 68.64"
/>
<path stroke="#e8a981" vector-effect="non-scaling-stroke" d="
  M 99.30 104.80
  Q 94.10 105.00 89.72 104.03
  Q 82.35 102.38 72.84 99.21
  Q 64.68 96.48 59.89 90.87
  Q 51.03 80.49 58.22 68.64"
/>
<path stroke="#efbb93" vector-effect="non-scaling-stroke" d="
  M 121.72 76.00
  C 129.95 82.79 135.49 67.11 133.75 61.56
  Q 132.86 58.74 131.08 57.68
  C 125.12 54.14 120.57 62.40 119.17 67.14
  Q 117.57 72.57 121.72 76.00"
/>
</g>
<path fill="#ffffff" fill-opacity="0" d="
  M 157.00 0.00
  L 157.00 220.00
  L 0.00 220.00
  L 0.00 0.00
  L 157.00 0.00
  Z
  M 15.58 148.22
  L 13.17 178.45
  L 13.22 205.91
  L 13.21 216.24
  Q 13.21 216.76 13.73 216.76
  L 61.53 216.77
  L 120.78 216.72
  Q 121.37 216.72 121.24 216.15
  Q 120.84 214.41 120.05 212.82
  Q 119.29 211.31 119.06 208.87
  Q 118.29 200.67 116.33 191.67
  Q 116.01 190.18 115.93 188.30
  Q 115.86 186.19 115.64 184.90
  Q 115.66 181.40 115.39 178.44
  Q 115.01 174.42 115.10 172.03
  Q 115.75 155.66 115.79 150.73
  Q 115.85 143.30 116.82 134.85
  Q 117.47 129.24 118.18 118.98
  Q 118.31 117.14 120.25 112.99
  Q 123.78 104.49 125.78 101.28
  Q 131.39 92.28 135.91 82.84
  Q 139.83 74.65 140.66 69.51
  Q 141.70 63.15 140.46 55.16
  Q 140.03 52.43 136.36 48.08
  Q 136.01 47.66 135.96 47.12
  C 135.50 42.81 137.59 38.43 137.76 34.75
  Q 138.21 25.32 132.71 18.68
  Q 128.95 14.15 123.02 11.58
  Q 122.21 11.23 121.06 11.14
  C 119.11 11.00 118.31 11.11 116.61 9.60
  C 113.84 7.14 109.30 2.83 105.62 2.30
  Q 96.34 0.95 88.81 7.11
  C 85.68 9.67 83.40 12.25 80.24 12.16
  Q 76.24 12.06 74.77 12.14
  Q 70.79 12.35 69.10 13.88
  Q 65.44 17.21 62.21 19.83
  Q 59.71 21.86 57.89 24.27
  Q 55.37 27.60 54.45 29.46
  Q 50.17 38.10 47.05 43.61
  C 45.44 46.46 44.59 49.04 43.39 52.31
  Q 42.28 55.34 40.69 58.87
  Q 39.03 62.58 38.47 64.63
  Q 37.69 67.50 36.28 70.34
  Q 34.85 73.23 33.66 77.62
  Q 32.81 80.80 31.06 84.87
  Q 30.13 87.04 28.71 92.47
  Q 28.06 95.00 24.63 104.65
  Q 23.54 107.71 23.00 110.20
  Q 22.42 112.83 21.39 115.77
  Q 20.37 118.70 19.41 124.22
  C 18.02 132.19 15.94 140.13 15.58 148.22
  Z"
/>
<path fill="#f3d7a5" d="
  M 120.25 112.99
  Q 116.08 111.86 112.21 113.23
  Q 107.13 115.02 102.59 118.04
  Q 94.23 120.34 91.20 129.03
  Q 86.20 137.19 88.28 146.83
  Q 88.75 149.01 89.31 151.19
  C 90.51 155.86 93.18 159.60 97.04 162.50
  C 98.40 163.51 100.98 163.91 101.93 165.43
  Q 105.37 170.93 107.25 176.28
  Q 109.54 182.80 115.64 184.90
  Q 115.86 186.19 115.93 188.30
  Q 116.01 190.18 116.33 191.67
  Q 118.29 200.67 119.06 208.87
  Q 119.29 211.31 120.05 212.82
  Q 120.84 214.41 121.24 216.15
  Q 121.37 216.72 120.78 216.72
  L 61.53 216.77
  Q 62.30 216.52 62.34 216.30
  A 0.72 0.72 0.0 0 0 61.70 215.43
  L 56.59 214.98
  A 1.18 1.08 -13.8 0 1 55.73 214.51
  Q 53.08 210.70 48.25 209.93
  Q 47.18 209.76 42.41 209.30
  Q 41.17 209.18 40.50 208.53
  Q 28.40 196.84 13.22 205.91
  L 13.17 178.45
  Q 17.27 178.52 21.00 178.34
  Q 27.22 178.04 30.06 172.59
  C 32.79 167.37 30.47 164.10 27.07 160.43
  Q 25.90 159.16 25.26 157.46
  C 23.46 152.70 21.17 148.98 15.58 148.22
  C 15.94 140.13 18.02 132.19 19.41 124.22
  Q 20.37 118.70 21.39 115.77
  Q 22.42 112.83 23.00 110.20
  Q 23.54 107.71 24.63 104.65
  Q 28.06 95.00 28.71 92.47
  Q 30.13 87.04 31.06 84.87
  Q 32.81 80.80 33.66 77.62
  Q 34.85 73.23 36.28 70.34
  Q 37.69 67.50 38.47 64.63
  Q 39.03 62.58 40.69 58.87
  Q 42.28 55.34 43.39 52.31
  C 44.59 49.04 45.44 46.46 47.05 43.61
  Q 50.17 38.10 54.45 29.46
  Q 55.37 27.60 57.89 24.27
  Q 59.71 21.86 62.21 19.83
  Q 65.44 17.21 69.10 13.88
  Q 70.79 12.35 74.77 12.14
  Q 76.24 12.06 80.24 12.16
  C 83.40 12.25 85.68 9.67 88.81 7.11
  Q 96.34 0.95 105.62 2.30
  C 109.30 2.83 113.84 7.14 116.61 9.60
  C 118.31 11.11 119.11 11.00 121.06 11.14
  Q 122.21 11.23 123.02 11.58
  Q 128.95 14.15 132.71 18.68
  Q 138.21 25.32 137.76 34.75
  C 137.59 38.43 135.50 42.81 135.96 47.12
  Q 136.01 47.66 136.36 48.08
  Q 140.03 52.43 140.46 55.16
  Q 141.70 63.15 140.66 69.51
  Q 139.83 74.65 135.91 82.84
  Q 131.39 92.28 125.78 101.28
  Q 123.78 104.49 120.25 112.99
  Z
  M 90.0083 36.0891
  A 12.20 8.82 116.7 0 0 103.3695 29.1530
  A 12.20 8.82 116.7 0 0 100.9717 14.2909
  A 12.20 8.82 116.7 0 0 87.6105 21.2270
  A 12.20 8.82 116.7 0 0 90.0083 36.0891
  Z
  M 68.7309 43.7622
  A 10.01 6.65 106.0 0 0 77.8824 35.9730
  A 10.01 6.65 106.0 0 0 74.2491 24.5178
  A 10.01 6.65 106.0 0 0 65.0976 32.3070
  A 10.01 6.65 106.0 0 0 68.7309 43.7622
  Z
  M 115.1742 47.9377
  A 11.86 8.10 110.1 0 0 126.8567 39.5836
  A 11.86 8.10 110.1 0 0 123.3258 25.6623
  A 11.86 8.10 110.1 0 0 111.6433 34.0164
  A 11.86 8.10 110.1 0 0 115.1742 47.9377
  Z
  M 58.22 68.64
  C 51.75 68.26 45.76 70.92 42.96 76.86
  Q 41.35 80.28 40.65 82.17
  Q 39.29 85.85 39.70 90.77
  Q 41.11 107.35 57.05 110.02
  A 2.74 2.72 77.4 0 1 58.86 111.18
  Q 62.62 116.70 67.51 121.18
  Q 71.19 124.55 77.79 123.79
  Q 80.98 123.42 85.30 121.04
  C 90.56 118.15 96.46 113.27 98.39 107.68
  Q 98.89 106.24 99.30 104.80
  Q 106.12 103.72 109.90 98.61
  Q 113.19 94.15 112.96 88.31
  Q 112.89 86.32 110.31 80.02
  Q 107.29 72.63 105.89 63.93
  Q 105.41 60.88 102.01 57.07
  Q 99.42 54.17 95.36 53.82
  Q 89.16 53.28 85.53 54.78
  Q 76.15 58.65 68.07 61.78
  Q 65.20 62.90 58.22 68.64
  Z
  M 121.72 76.00
  C 129.95 82.79 135.49 67.11 133.75 61.56
  Q 132.86 58.74 131.08 57.68
  C 125.12 54.14 120.57 62.40 119.17 67.14
  Q 117.57 72.57 121.72 76.00
  Z"
/>
<ellipse fill="#eb9f80" cx="0.00" cy="0.00" transform="translate(95.49,25.19) rotate(116.7)" rx="12.20" ry="8.82"/>
<ellipse fill="#eb9f80" cx="0.00" cy="0.00" transform="translate(71.49,34.14) rotate(106.0)" rx="10.01" ry="6.65"/>
<ellipse fill="#eb9f80" cx="0.00" cy="0.00" transform="translate(119.25,36.80) rotate(110.1)" rx="11.86" ry="8.10"/>
<path fill="#eb9f80" d="
  M 99.30 104.80
  Q 94.10 105.00 89.72 104.03
  Q 82.35 102.38 72.84 99.21
  Q 64.68 96.48 59.89 90.87
  Q 51.03 80.49 58.22 68.64
  Q 65.20 62.90 68.07 61.78
  Q 76.15 58.65 85.53 54.78
  Q 89.16 53.28 95.36 53.82
  Q 99.42 54.17 102.01 57.07
  Q 105.41 60.88 105.89 63.93
  Q 107.29 72.63 110.31 80.02
  Q 112.89 86.32 112.96 88.31
  Q 113.19 94.15 109.90 98.61
  Q 106.12 103.72 99.30 104.80
  Z"
/>
<path fill="#eb9f80" d="
  M 133.75 61.56
  C 135.49 67.11 129.95 82.79 121.72 76.00
  Q 117.57 72.57 119.17 67.14
  C 120.57 62.40 125.12 54.14 131.08 57.68
  Q 132.86 58.74 133.75 61.56
  Z"
/>
<path fill="#e5b382" d="
  M 58.22 68.64
  Q 51.03 80.49 59.89 90.87
  Q 64.68 96.48 72.84 99.21
  Q 82.35 102.38 89.72 104.03
  Q 94.10 105.00 99.30 104.80
  Q 98.89 106.24 98.39 107.68
  C 96.46 113.27 90.56 118.15 85.30 121.04
  Q 80.98 123.42 77.79 123.79
  Q 71.19 124.55 67.51 121.18
  Q 62.62 116.70 58.86 111.18
  A 2.74 2.72 77.4 0 0 57.05 110.02
  Q 41.11 107.35 39.70 90.77
  Q 39.29 85.85 40.65 82.17
  Q 41.35 80.28 42.96 76.86
  C 45.76 70.92 51.75 68.26 58.22 68.64
  Z"
/>
<path fill="#e5b382" d="
  M 120.25 112.99
  Q 118.31 117.14 118.18 118.98
  Q 117.47 129.24 116.82 134.85
  Q 115.85 143.30 115.79 150.73
  Q 115.75 155.66 115.10 172.03
  Q 115.01 174.42 115.39 178.44
  Q 115.66 181.40 115.64 184.90
  Q 109.54 182.80 107.25 176.28
  Q 105.37 170.93 101.93 165.43
  C 100.98 163.91 98.40 163.51 97.04 162.50
  C 93.18 159.60 90.51 155.86 89.31 151.19
  Q 88.75 149.01 88.28 146.83
  Q 86.20 137.19 91.20 129.03
  Q 92.68 133.92 94.12 135.14
  Q 98.59 138.93 102.40 136.59
  Q 105.20 134.87 106.66 130.77
  Q 109.30 123.34 102.59 118.04
  Q 107.13 115.02 112.21 113.23
  Q 116.08 111.86 120.25 112.99
  Z"
/>
<path fill="#eb9f80" d="
  M 102.59 118.04
  Q 109.30 123.34 106.66 130.77
  Q 105.20 134.87 102.40 136.59
  Q 98.59 138.93 94.12 135.14
  Q 92.68 133.92 91.20 129.03
  Q 94.23 120.34 102.59 118.04
  Z"
/>
<path fill="#e5b382" d="
  M 13.17 178.45
  L 15.58 148.22
  C 21.17 148.98 23.46 152.70 25.26 157.46
  Q 25.90 159.16 27.07 160.43
  C 30.47 164.10 32.79 167.37 30.06 172.59
  Q 27.22 178.04 21.00 178.34
  Q 17.27 178.52 13.17 178.45
  Z"
/>
<path fill="#e5b382" d="
  M 61.53 216.77
  L 13.73 216.76
  Q 13.21 216.76 13.21 216.24
  L 13.22 205.91
  Q 28.40 196.84 40.50 208.53
  Q 41.17 209.18 42.41 209.30
  Q 47.18 209.76 48.25 209.93
  Q 53.08 210.70 55.73 214.51
  A 1.18 1.08 -13.8 0 0 56.59 214.98
  L 61.70 215.43
  A 0.72 0.72 0.0 0 1 62.34 216.30
  Q 62.30 216.52 61.53 216.77
  Z"
/>
</svg>
