<?xml version="1.0" encoding="UTF-8" standalone="no"?>
<!DOCTYPE svg PUBLIC "-//W3C//DTD SVG 1.1//EN" "http://www.w3.org/Graphics/SVG/1.1/DTD/svg11.dtd">
<svg xmlns="http://www.w3.org/2000/svg" version="1.1" viewBox="0.00 0.00 220.00 84.00">
<g stroke-width="2.00" fill="none" stroke-linecap="butt">
<path stroke="#808080" vector-effect="non-scaling-stroke" d="
  M 193.8991 24.5244
  A 0.95 0.95 0.0 0 0 192.9507 23.5727
  L 189.8307 23.5673
  A 0.95 0.95 0.0 0 0 188.8791 24.5156
  L 188.8209 57.8356
  A 0.95 0.95 0.0 0 0 189.7693 58.7873
  L 192.8893 58.7927
  A 0.95 0.95 0.0 0 0 193.8409 57.8444
  L 193.8991 24.5244"
/>
<path stroke="#808080" vector-effect="non-scaling-stroke" d="
  M 159.43 24.09
  A 0.36 0.36 0.0 0 0 158.86 24.38
  L 158.86 58.10
  A 0.36 0.36 0.0 0 0 159.43 58.39
  L 183.31 41.53
  A 0.36 0.36 0.0 0 0 183.31 40.95
  L 159.43 24.09"
/>
<path stroke="#808080" vector-effect="non-scaling-stroke" d="
  M 45.87 47.46
  Q 48.11 50.71 44.78 52.74
  C 40.33 55.48 33.23 53.71 29.16 51.07
  Q 27.99 50.30 27.47 51.61
  L 26.36 54.42
  Q 25.94 55.48 26.91 56.08
  C 32.91 59.80 44.76 61.18 50.30 55.51
  C 55.26 50.43 52.77 42.56 45.98 40.72
  Q 38.84 38.79 37.94 38.59
  Q 36.72 38.31 34.89 37.37
  C 31.92 35.86 32.49 31.83 35.15 30.63
  C 39.02 28.89 44.33 29.67 48.65 31.86
  Q 49.53 32.31 49.90 31.39
  L 51.17 28.17
  Q 51.52 27.28 50.66 26.86
  C 44.25 23.68 33.34 22.82 28.45 28.96
  Q 26.27 31.70 26.76 36.16
  C 27.15 39.80 30.51 42.26 33.76 43.24
  Q 34.12 43.35 42.58 45.74
  Q 45.21 46.48 45.87 47.46"
/>
<path stroke="#808080" vector-effect="non-scaling-stroke" d="
  M 66.07 41.55
  A 0.45 0.45 0.0 0 1 65.29 41.24
  L 65.32 25.35
  A 0.45 0.45 0.0 0 0 64.87 24.90
  L 59.42 24.92
  A 0.45 0.45 0.0 0 0 58.97 25.37
  L 58.97 58.35
  A 0.45 0.45 0.0 0 0 59.41 58.80
  L 64.85 58.87
  A 0.45 0.45 0.0 0 0 65.31 58.42
  L 65.33 50.34
  A 0.45 0.45 0.0 0 1 65.46 50.03
  L 70.35 44.97
  A 0.45 0.45 0.0 0 1 71.02 45.00
  L 82.32 58.61
  A 0.45 0.45 0.0 0 0 82.66 58.77
  L 88.99 58.85
  A 0.45 0.45 0.0 0 0 89.34 58.12
  L 75.10 40.40
  A 0.45 0.45 0.0 0 1 75.13 39.81
  L 88.38 25.64
  A 0.45 0.45 0.0 0 0 88.05 24.88
  L 82.13 24.95
  A 0.45 0.45 0.0 0 0 81.81 25.09
  L 66.07 41.55"
/>
<path stroke="#808080" vector-effect="non-scaling-stroke" d="
  M 100.41 25.62
  A 0.74 0.74 0.0 0 0 99.67 24.88
  L 94.91 24.88
  A 0.74 0.74 0.0 0 0 94.17 25.62
  L 94.17 58.10
  A 0.74 0.74 0.0 0 0 94.91 58.84
  L 99.67 58.84
  A 0.74 0.74 0.0 0 0 100.41 58.10
  L 100.41 25.62"
/>
<path stroke="#808080" vector-effect="non-scaling-stroke" d="
  M 116.35 49.09
  C 123.81 49.11 133.90 49.97 137.12 41.32
  Q 138.39 37.91 137.61 34.41
  Q 135.83 26.43 127.01 25.28
  Q 122.03 24.62 110.05 25.04
  Q 109.57 25.06 109.57 25.54
  L 109.57 58.21
  Q 109.57 58.83 110.19 58.83
  L 115.26 58.83
  Q 115.90 58.83 115.90 58.20
  L 115.90 49.54
  A 0.45 0.45 0.0 0 1 116.35 49.09"
/>
<path stroke="#808080" vector-effect="non-scaling-stroke" d="
  M 115.91 30.77
  L 115.87 43.13
  A 0.52 0.52 0.0 0 0 116.39 43.65
  L 124.35 43.68
  A 7.10 6.22 0.2 0 0 131.47 37.49
  L 131.47 36.53
  A 7.10 6.22 0.2 0 0 124.39 30.28
  L 116.43 30.25
  A 0.52 0.52 0.0 0 0 115.91 30.77"
/>
</g>
<path fill="#000000" d="
  M 220.00 0.00
  L 220.00 84.00
  L 0.00 84.00
  L 0.00 0.00
  L 220.00 0.00
  Z
  M 193.8991 24.5244
  A 0.95 0.95 0.0 0 0 192.9507 23.5727
  L 189.8307 23.5673
  A 0.95 0.95 0.0 0 0 188.8791 24.5156
  L 188.8209 57.8356
  A 0.95 0.95 0.0 0 0 189.7693 58.7873
  L 192.8893 58.7927
  A 0.95 0.95 0.0 0 0 193.8409 57.8444
  L 193.8991 24.5244
  Z
  M 159.43 24.09
  A 0.36 0.36 0.0 0 0 158.86 24.38
  L 158.86 58.10
  A 0.36 0.36 0.0 0 0 159.43 58.39
  L 183.31 41.53
  A 0.36 0.36 0.0 0 0 183.31 40.95
  L 159.43 24.09
  Z
  M 45.87 47.46
  Q 48.11 50.71 44.78 52.74
  C 40.33 55.48 33.23 53.71 29.16 51.07
  Q 27.99 50.30 27.47 51.61
  L 26.36 54.42
  Q 25.94 55.48 26.91 56.08
  C 32.91 59.80 44.76 61.18 50.30 55.51
  C 55.26 50.43 52.77 42.56 45.98 40.72
  Q 38.84 38.79 37.94 38.59
  Q 36.72 38.31 34.89 37.37
  C 31.92 35.86 32.49 31.83 35.15 30.63
  C 39.02 28.89 44.33 29.67 48.65 31.86
  Q 49.53 32.31 49.90 31.39
  L 51.17 28.17
  Q 51.52 27.28 50.66 26.86
  C 44.25 23.68 33.34 22.82 28.45 28.96
  Q 26.27 31.70 26.76 36.16
  C 27.15 39.80 30.51 42.26 33.76 43.24
  Q 34.12 43.35 42.58 45.74
  Q 45.21 46.48 45.87 47.46
  Z
  M 66.07 41.55
  A 0.45 0.45 0.0 0 1 65.29 41.24
  L 65.32 25.35
  A 0.45 0.45 0.0 0 0 64.87 24.90
  L 59.42 24.92
  A 0.45 0.45 0.0 0 0 58.97 25.37
  L 58.97 58.35
  A 0.45 0.45 0.0 0 0 59.41 58.80
  L 64.85 58.87
  A 0.45 0.45 0.0 0 0 65.31 58.42
  L 65.33 50.34
  A 0.45 0.45 0.0 0 1 65.46 50.03
  L 70.35 44.97
  A 0.45 0.45 0.0 0 1 71.02 45.00
  L 82.32 58.61
  A 0.45 0.45 0.0 0 0 82.66 58.77
  L 88.99 58.85
  A 0.45 0.45 0.0 0 0 89.34 58.12
  L 75.10 40.40
  A 0.45 0.45 0.0 0 1 75.13 39.81
  L 88.38 25.64
  A 0.45 0.45 0.0 0 0 88.05 24.88
  L 82.13 24.95
  A 0.45 0.45 0.0 0 0 81.81 25.09
  L 66.07 41.55
  Z
  M 100.41 25.62
  A 0.74 0.74 0.0 0 0 99.67 24.88
  L 94.91 24.88
  A 0.74 0.74 0.0 0 0 94.17 25.62
  L 94.17 58.10
  A 0.74 0.74 0.0 0 0 94.91 58.84
  L 99.67 58.84
  A 0.74 0.74 0.0 0 0 100.41 58.10
  L 100.41 25.62
  Z
  M 116.35 49.09
  C 123.81 49.11 133.90 49.97 137.12 41.32
  Q 138.39 37.91 137.61 34.41
  Q 135.83 26.43 127.01 25.28
  Q 122.03 24.62 110.05 25.04
  Q 109.57 25.06 109.57 25.54
  L 109.57 58.21
  Q 109.57 58.83 110.19 58.83
  L 115.26 58.83
  Q 115.90 58.83 115.90 58.20
  L 115.90 49.54
  A 0.45 0.45 0.0 0 1 116.35 49.09
  Z"
/>
<rect fill="#ffffff" x="-2.51" y="-17.61" transform="translate(191.36,41.18) rotate(0.1)" width="5.02" height="35.22" rx="0.95"/>
<path fill="#ffffff" d="
  M 159.43 24.09
  L 183.31 40.95
  A 0.36 0.36 0.0 0 1 183.31 41.53
  L 159.43 58.39
  A 0.36 0.36 0.0 0 1 158.86 58.10
  L 158.86 24.38
  A 0.36 0.36 0.0 0 1 159.43 24.09
  Z"
/>
<path fill="#ffffff" d="
  M 45.87 47.46
  Q 45.21 46.48 42.58 45.74
  Q 34.12 43.35 33.76 43.24
  C 30.51 42.26 27.15 39.80 26.76 36.16
  Q 26.27 31.70 28.45 28.96
  C 33.34 22.82 44.25 23.68 50.66 26.86
  Q 51.52 27.28 51.17 28.17
  L 49.90 31.39
  Q 49.53 32.31 48.65 31.86
  C 44.33 29.67 39.02 28.89 35.15 30.63
  C 32.49 31.83 31.92 35.86 34.89 37.37
  Q 36.72 38.31 37.94 38.59
  Q 38.84 38.79 45.98 40.72
  C 52.77 42.56 55.26 50.43 50.30 55.51
  C 44.76 61.18 32.91 59.80 26.91 56.08
  Q 25.94 55.48 26.36 54.42
  L 27.47 51.61
  Q 27.99 50.30 29.16 51.07
  C 33.23 53.71 40.33 55.48 44.78 52.74
  Q 48.11 50.71 45.87 47.46
  Z"
/>
<path fill="#ffffff" d="
  M 66.07 41.55
  L 81.81 25.09
  A 0.45 0.45 0.0 0 1 82.13 24.95
  L 88.05 24.88
  A 0.45 0.45 0.0 0 1 88.38 25.64
  L 75.13 39.81
  A 0.45 0.45 0.0 0 0 75.10 40.40
  L 89.34 58.12
  A 0.45 0.45 0.0 0 1 88.99 58.85
  L 82.66 58.77
  A 0.45 0.45 0.0 0 1 82.32 58.61
  L 71.02 45.00
  A 0.45 0.45 0.0 0 0 70.35 44.97
  L 65.46 50.03
  A 0.45 0.45 0.0 0 0 65.33 50.34
  L 65.31 58.42
  A 0.45 0.45 0.0 0 1 64.85 58.87
  L 59.41 58.80
  A 0.45 0.45 0.0 0 1 58.97 58.35
  L 58.97 25.37
  A 0.45 0.45 0.0 0 1 59.42 24.92
  L 64.87 24.90
  A 0.45 0.45 0.0 0 1 65.32 25.35
  L 65.29 41.24
  A 0.45 0.45 0.0 0 0 66.07 41.55
  Z"
/>
<rect fill="#ffffff" x="94.17" y="24.88" width="6.24" height="33.96" rx="0.74"/>
<path fill="#ffffff" d="
  M 116.35 49.09
  A 0.45 0.45 0.0 0 0 115.90 49.54
  L 115.90 58.20
  Q 115.90 58.83 115.26 58.83
  L 110.19 58.83
  Q 109.57 58.83 109.57 58.21
  L 109.57 25.54
  Q 109.57 25.06 110.05 25.04
  Q 122.03 24.62 127.01 25.28
  Q 135.83 26.43 137.61 34.41
  Q 138.39 37.91 137.12 41.32
  C 133.90 49.97 123.81 49.11 116.35 49.09
  Z
  M 115.91 30.77
  L 115.87 43.13
  A 0.52 0.52 0.0 0 0 116.39 43.65
  L 124.35 43.68
  A 7.10 6.22 0.2 0 0 131.47 37.49
  L 131.47 36.53
  A 7.10 6.22 0.2 0 0 124.39 30.28
  L 116.43 30.25
  A 0.52 0.52 0.0 0 0 115.91 30.77
  Z"
/>
<path fill="#000000" d="
  M 115.91 30.77
  A 0.52 0.52 0.0 0 1 116.43 30.25
  L 124.39 30.28
  A 7.10 6.22 0.2 0 1 131.47 36.53
  L 131.47 37.49
  A 7.10 6.22 0.2 0 1 124.35 43.68
  L 116.39 43.65
  A 0.52 0.52 0.0 0 1 115.87 43.13
  L 115.91 30.77
  Z"
/>
</svg>
