<?xml version="1.0" encoding="UTF-8" standalone="no"?>
<!DOCTYPE svg PUBLIC "-//W3C//DTD SVG 1.1//EN" "http://www.w3.org/Graphics/SVG/1.1/DTD/svg11.dtd">
<svg xmlns="http://www.w3.org/2000/svg" version="1.1" viewBox="0.00 0.00 195.00 216.00">
<g stroke-width="2.00" fill="none" stroke-linecap="butt">
<path stroke="#808080" vector-effect="non-scaling-stroke" d="
  M 38.65 183.13
  Q 40.81 188.22 46.03 189.98
  Q 49.93 191.29 53.45 189.65
  C 57.50 187.75 60.95 183.97 60.98 179.48
  Q 61.02 174.87 60.80 167.05
  Q 60.78 166.32 61.51 166.31
  L 67.80 166.27
  Q 68.62 166.26 68.61 167.08
  Q 68.52 172.27 68.70 179.04
  Q 68.86 185.30 73.38 189.10
  C 77.24 192.35 82.65 192.78 86.82 189.88
  Q 89.97 187.69 91.82 183.61
  A 0.80 0.79 15.6 0 1 92.64 183.15
  Q 121.16 186.71 154.49 190.99
  Q 155.94 191.17 158.85 189.03
  A 1.36 1.34 -13.1 0 0 159.36 188.22
  Q 160.24 183.56 160.18 179.25
  Q 159.53 129.36 159.06 36.50
  Q 159.06 35.67 158.65 32.78
  Q 158.34 30.52 157.29 29.41
  Q 155.21 27.21 151.23 28.16
  Q 121.31 35.30 92.93 41.63
  C 88.07 42.71 84.32 44.66 84.36 49.45
  Q 84.44 58.78 84.55 67.53
  Q 84.56 68.11 84.15 68.52
  L 74.60 78.07
  Q 74.35 78.32 74.14 78.04
  Q 71.75 74.89 67.99 70.99
  Q 64.89 67.79 62.04 69.37
  Q 60.28 70.35 58.91 73.48
  Q 58.23 75.04 52.59 91.04
  Q 47.13 106.52 55.48 118.24
  Q 55.81 118.71 55.26 118.87
  Q 51.41 119.98 41.12 122.61
  Q 32.71 124.75 26.19 129.94
  A 0.55 0.55 0.0 0 1 25.30 129.51
  L 25.25 123.19
  Q 25.25 122.69 25.54 122.28
  Q 26.97 120.29 27.44 119.49
  C 34.86 106.84 19.44 94.72 9.09 105.13
  Q 5.48 108.76 4.07 113.85
  Q 1.14 124.42 2.53 134.28
  C 3.40 140.50 7.28 148.54 12.87 151.52
  Q 13.56 151.89 14.20 152.44
  A 1.11 1.09 21.2 0 1 14.57 153.26
  Q 14.42 165.07 14.73 181.00
  Q 14.84 186.93 19.82 189.96
  Q 28.01 194.94 34.81 188.07
  C 36.08 186.80 37.17 184.64 38.03 183.10
  Q 38.37 182.48 38.65 183.13"
/>
<path stroke="#808080" vector-effect="non-scaling-stroke" d="
  M 102.87 109.38
  L 102.03 110.84
  Q 101.74 111.34 102.32 111.34
  Q 103.02 111.34 103.35 111.10
  C 109.45 106.56 118.29 107.49 122.13 114.31
  Q 124.04 117.71 123.61 120.98
  Q 123.01 125.60 120.38 128.53
  Q 118.70 130.40 113.93 133.13
  Q 103.69 138.99 92.92 144.61
  A 1.05 1.04 76.5 0 0 92.36 145.54
  L 92.58 175.14
  A 0.68 0.67 -87.1 0 0 93.17 175.80
  Q 121.17 179.31 148.25 182.77
  Q 149.71 182.96 152.61 182.68
  Q 153.10 182.63 153.09 182.15
  L 152.01 36.22
  Q 152.00 35.39 151.20 35.58
  L 92.03 49.29
  Q 91.75 49.36 91.75 49.64
  Q 91.68 57.14 91.77 70.10
  Q 91.80 73.67 92.75 76.92
  Q 94.03 81.24 94.37 83.60
  Q 94.62 85.32 96.09 87.06
  C 99.34 90.92 101.82 94.22 102.69 98.28
  Q 103.45 101.86 102.98 109.03
  A 0.74 0.73 62.9 0 1 102.87 109.38"
/>
<path stroke="#808080" vector-effect="non-scaling-stroke" d="
  M 85.67 77.57
  A 0.46 0.46 0.0 0 0 84.90 77.45
  L 83.05 79.58
  A 0.46 0.46 0.0 0 0 83.27 80.33
  L 86.38 81.16
  A 0.46 0.46 0.0 0 0 86.93 80.54
  L 85.67 77.57"
/>
<path stroke="#808080" vector-effect="non-scaling-stroke" d="
  M 87.35 110.80
  Q 86.50 109.05 87.35 107.24
  Q 87.59 106.74 88.17 106.69
  L 89.97 106.52
  Q 93.95 106.14 90.94 103.59
  L 90.02 102.81
  Q 89.56 102.43 89.57 101.93
  Q 89.62 99.54 92.28 99.36
  Q 95.22 99.16 95.38 99.14
  Q 95.88 99.08 95.69 98.62
  Q 92.38 90.80 85.02 87.67
  C 81.53 86.19 78.72 84.89 75.59 86.69
  C 74.04 87.59 73.05 87.28 71.90 86.09
  Q 68.43 82.52 65.39 78.18
  Q 64.68 77.17 64.27 78.34
  Q 62.24 84.24 60.13 89.89
  Q 57.40 97.16 57.48 101.82
  Q 57.69 113.64 67.18 119.00
  Q 73.61 122.63 80.78 121.86
  Q 88.20 121.06 93.57 114.36
  Q 95.16 112.37 94.53 110.18
  A 0.68 0.68 0.0 0 0 93.44 109.85
  Q 91.12 111.83 88.08 111.35
  A 0.98 0.97 81.8 0 1 87.35 110.80"
/>
<path stroke="#808080" vector-effect="non-scaling-stroke" d="
  M 95.79 106.08
  A 0.45 0.44 -14.0 0 0 96.35 106.41
  Q 97.12 106.19 96.96 104.61
  Q 96.91 104.17 96.70 104.07
  Q 96.36 103.91 95.94 104.05
  Q 95.36 104.24 95.50 104.83
  L 95.79 106.08"
/>
<path stroke="#808080" vector-effect="non-scaling-stroke" d="
  M 19.99 117.76
  C 21.10 116.32 22.61 114.97 22.69 113.25
  Q 22.85 110.04 19.93 108.66
  Q 16.23 106.92 13.27 110.86
  C 9.82 115.44 9.34 123.61 9.43 129.06
  Q 9.58 137.96 14.70 144.36
  A 0.57 0.56 40.5 0 0 15.63 144.29
  L 19.80 137.06
  Q 20.05 136.63 19.87 136.16
  Q 16.64 127.79 19.11 119.72
  Q 19.53 118.36 19.99 117.76"
/>
<path stroke="#808080" vector-effect="non-scaling-stroke" d="
  M 72.08 146.75
  Q 75.33 146.69 75.36 150.01
  L 75.63 179.25
  Q 75.68 183.91 80.76 184.72
  Q 80.79 184.73 81.18 184.67
  Q 85.41 184.01 85.38 179.75
  L 85.11 143.80
  A 4.09 4.09 0.0 0 1 87.11 140.25
  Q 98.56 133.45 111.65 126.41
  C 113.65 125.34 116.80 123.56 116.81 121.04
  Q 116.82 118.17 115.19 116.27
  Q 112.89 113.57 109.31 115.58
  Q 105.74 117.58 94.12 124.30
  Q 79.50 132.76 64.34 125.37
  Q 63.37 124.90 62.72 124.82
  Q 61.74 124.71 61.07 124.85
  Q 48.07 127.68 39.73 130.45
  Q 21.19 136.62 21.18 156.50
  Q 21.17 174.53 21.16 178.75
  Q 21.16 179.92 21.97 182.27
  C 23.12 185.61 28.66 185.85 30.34 183.06
  C 32.84 178.90 30.23 172.20 32.96 167.57
  Q 34.86 164.35 37.55 162.54
  Q 42.43 159.26 45.26 159.20
  Q 56.39 158.99 67.61 158.99
  Q 68.07 158.99 68.09 158.54
  L 68.38 150.01
  Q 68.52 146.20 71.94 146.74
  Q 72.03 146.75 72.08 146.75"
/>
<path stroke="#808080" vector-effect="non-scaling-stroke" d="
  M 53.6628 170.9525
  A 4.08 4.08 0.0 0 0 49.5756 166.8796
  L 49.1356 166.8804
  A 4.08 4.08 0.0 0 0 45.0628 170.9675
  L 45.0772 179.2675
  A 4.08 4.08 0.0 0 0 49.1644 183.3404
  L 49.6044 183.3396
  A 4.08 4.08 0.0 0 0 53.6772 179.2525
  L 53.6628 170.9525"
/>
<path stroke="#919291" vector-effect="non-scaling-stroke" d="
  M 144.78 52.55
  Q 144.71 51.42 145.82 51.22
  Q 149.31 50.58 148.81 48.23
  Q 148.37 46.19 145.74 46.52
  Q 142.46 46.92 136.50 48.15
  A 1.58 1.56 -85.0 0 0 135.35 49.13
  Q 134.71 50.79 136.60 51.47
  Q 138.43 52.13 138.82 52.36
  Q 139.32 52.64 139.32 53.00
  L 139.33 61.92
  Q 139.33 63.31 140.59 63.91
  Q 141.50 64.35 141.71 64.33
  Q 143.82 64.18 144.16 62.13
  Q 145.03 56.95 144.78 52.55"
/>
<path stroke="#919291" vector-effect="non-scaling-stroke" d="
  M 132.47 60.52
  L 132.41 52.70
  Q 132.41 52.34 132.67 52.09
  L 134.34 50.41
  Q 134.70 50.06 134.55 49.58
  Q 134.32 48.87 133.57 48.41
  Q 132.74 47.89 131.88 48.05
  Q 126.72 49.01 126.19 49.11
  A 0.72 0.72 0.0 0 0 125.66 50.09
  Q 127.91 55.44 126.96 61.48
  Q 126.88 61.95 126.59 62.33
  Q 125.16 64.22 126.80 65.81
  A 0.82 0.81 60.3 0 0 127.55 66.02
  L 133.80 64.57
  Q 134.30 64.45 134.38 63.95
  Q 134.57 62.76 134.32 61.71
  Q 134.19 61.11 133.57 61.11
  L 133.08 61.12
  Q 132.48 61.12 132.47 60.52"
/>
<path stroke="#919291" vector-effect="non-scaling-stroke" d="
  M 107.39 66.50
  Q 110.14 68.64 112.72 66.36
  C 113.70 65.49 114.41 63.70 115.18 62.58
  A 1.02 1.02 0.0 0 1 116.74 62.43
  Q 119.15 64.85 119.77 65.37
  C 121.01 66.42 122.95 66.19 124.06 65.19
  Q 124.45 64.84 124.44 64.32
  C 124.42 62.05 121.20 59.46 119.94 58.38
  A 1.06 1.03 -48.5 0 1 119.87 56.88
  L 124.26 52.03
  Q 125.47 50.69 123.95 49.48
  Q 123.86 49.40 123.20 49.13
  A 2.25 2.13 -55.9 0 0 120.84 49.65
  L 116.60 53.89
  A 0.88 0.88 0.0 0 1 115.36 53.89
  Q 113.47 52.00 110.92 50.44
  A 0.92 0.90 -43.3 0 0 110.00 50.42
  C 105.74 52.77 110.19 56.82 112.47 58.69
  Q 112.87 59.03 112.47 59.37
  Q 110.14 61.32 108.54 64.74
  Q 108.39 65.07 108.13 64.81
  L 106.18 62.86
  Q 105.70 62.38 105.20 62.83
  Q 103.74 64.11 101.86 64.58
  Q 101.36 64.70 101.01 64.33
  Q 99.95 63.25 100.36 61.75
  Q 100.51 61.23 101.04 61.25
  Q 104.29 61.34 105.43 60.33
  Q 108.10 57.95 104.56 57.70
  Q 103.46 57.62 100.97 57.59
  Q 100.14 57.58 100.21 56.38
  Q 100.24 55.83 100.76 55.66
  Q 102.69 55.05 105.26 55.15
  Q 106.55 55.20 106.54 53.90
  L 106.54 52.86
  Q 106.53 51.67 105.35 51.60
  C 100.01 51.28 95.68 51.39 95.49 57.51
  C 95.39 61.00 95.03 64.49 96.29 66.53
  Q 97.24 68.07 97.99 68.29
  Q 103.10 69.77 106.63 66.53
  Q 106.99 66.19 107.39 66.50"
/>
<path stroke="#808080" vector-effect="non-scaling-stroke" d="
  M 118.5004 80.9236
  A 5.33 4.46 87.2 0 0 122.6947 75.3821
  A 5.33 4.46 87.2 0 0 117.9796 70.2764
  A 5.33 4.46 87.2 0 0 113.7853 75.8179
  A 5.33 4.46 87.2 0 0 118.5004 80.9236"
/>
<path stroke="#808080" vector-effect="non-scaling-stroke" d="
  M 147.66 109.54
  A 10.12 10.12 0.0 0 0 137.54 99.42
  A 10.12 10.12 0.0 0 0 127.42 109.54
  A 10.12 10.12 0.0 0 0 137.54 119.66
  A 10.12 10.12 0.0 0 0 147.66 109.54"
/>
<path stroke="#808080" vector-effect="non-scaling-stroke" d="
  M 81.2596 103.9111
  A 4.90 4.60 98.1 0 0 86.5041 99.7081
  A 4.90 4.60 98.1 0 0 82.6404 94.2089
  A 4.90 4.60 98.1 0 0 77.3959 98.4119
  A 4.90 4.60 98.1 0 0 81.2596 103.9111"
/>
<path stroke="#808080" vector-effect="non-scaling-stroke" d="
  M 141.09 109.49
  A 3.67 3.67 0.0 0 0 137.42 105.82
  A 3.67 3.67 0.0 0 0 133.75 109.49
  A 3.67 3.67 0.0 0 0 137.42 113.16
  A 3.67 3.67 0.0 0 0 141.09 109.49"
/>
</g>
<path fill="#ffffff" fill-opacity="0" d="
  M 195.00 209.24
  L 195.00 211.72
  Q 194.61 212.43 195.00 212.91
  L 195.00 214.05
  L 2.31 215.49
  A 0.37 0.37 0.0 0 1 1.94 215.13
  L 0.36 2.75
  A 0.36 0.36 0.0 0 1 0.72 2.39
  L 192.74 0.96
  A 0.53 0.52 0.0 0 1 193.27 1.48
  L 195.00 209.24
  Z
  M 38.65 183.13
  Q 40.81 188.22 46.03 189.98
  Q 49.93 191.29 53.45 189.65
  C 57.50 187.75 60.95 183.97 60.98 179.48
  Q 61.02 174.87 60.80 167.05
  Q 60.78 166.32 61.51 166.31
  L 67.80 166.27
  Q 68.62 166.26 68.61 167.08
  Q 68.52 172.27 68.70 179.04
  Q 68.86 185.30 73.38 189.10
  C 77.24 192.35 82.65 192.78 86.82 189.88
  Q 89.97 187.69 91.82 183.61
  A 0.80 0.79 15.6 0 1 92.64 183.15
  Q 121.16 186.71 154.49 190.99
  Q 155.94 191.17 158.85 189.03
  A 1.36 1.34 -13.1 0 0 159.36 188.22
  Q 160.24 183.56 160.18 179.25
  Q 159.53 129.36 159.06 36.50
  Q 159.06 35.67 158.65 32.78
  Q 158.34 30.52 157.29 29.41
  Q 155.21 27.21 151.23 28.16
  Q 121.31 35.30 92.93 41.63
  C 88.07 42.71 84.32 44.66 84.36 49.45
  Q 84.44 58.78 84.55 67.53
  Q 84.56 68.11 84.15 68.52
  L 74.60 78.07
  Q 74.35 78.32 74.14 78.04
  Q 71.75 74.89 67.99 70.99
  Q 64.89 67.79 62.04 69.37
  Q 60.28 70.35 58.91 73.48
  Q 58.23 75.04 52.59 91.04
  Q 47.13 106.52 55.48 118.24
  Q 55.81 118.71 55.26 118.87
  Q 51.41 119.98 41.12 122.61
  Q 32.71 124.75 26.19 129.94
  A 0.55 0.55 0.0 0 1 25.30 129.51
  L 25.25 123.19
  Q 25.25 122.69 25.54 122.28
  Q 26.97 120.29 27.44 119.49
  C 34.86 106.84 19.44 94.72 9.09 105.13
  Q 5.48 108.76 4.07 113.85
  Q 1.14 124.42 2.53 134.28
  C 3.40 140.50 7.28 148.54 12.87 151.52
  Q 13.56 151.89 14.20 152.44
  A 1.11 1.09 21.2 0 1 14.57 153.26
  Q 14.42 165.07 14.73 181.00
  Q 14.84 186.93 19.82 189.96
  Q 28.01 194.94 34.81 188.07
  C 36.08 186.80 37.17 184.64 38.03 183.10
  Q 38.37 182.48 38.65 183.13
  Z"
/>
<path fill="#000000" d="
  M 38.03 183.10
  C 37.17 184.64 36.08 186.80 34.81 188.07
  Q 28.01 194.94 19.82 189.96
  Q 14.84 186.93 14.73 181.00
  Q 14.42 165.07 14.57 153.26
  A 1.11 1.09 21.2 0 0 14.20 152.44
  Q 13.56 151.89 12.87 151.52
  C 7.28 148.54 3.40 140.50 2.53 134.28
  Q 1.14 124.42 4.07 113.85
  Q 5.48 108.76 9.09 105.13
  C 19.44 94.72 34.86 106.84 27.44 119.49
  Q 26.97 120.29 25.54 122.28
  Q 25.25 122.69 25.25 123.19
  L 25.30 129.51
  A 0.55 0.55 0.0 0 0 26.19 129.94
  Q 32.71 124.75 41.12 122.61
  Q 51.41 119.98 55.26 118.87
  Q 55.81 118.71 55.48 118.24
  Q 47.13 106.52 52.59 91.04
  Q 58.23 75.04 58.91 73.48
  Q 60.28 70.35 62.04 69.37
  Q 64.89 67.79 67.99 70.99
  Q 71.75 74.89 74.14 78.04
  Q 74.35 78.32 74.60 78.07
  L 84.15 68.52
  Q 84.56 68.11 84.55 67.53
  Q 84.44 58.78 84.36 49.45
  C 84.32 44.66 88.07 42.71 92.93 41.63
  Q 121.31 35.30 151.23 28.16
  Q 155.21 27.21 157.29 29.41
  Q 158.34 30.52 158.65 32.78
  Q 159.06 35.67 159.06 36.50
  Q 159.53 129.36 160.18 179.25
  Q 160.24 183.56 159.36 188.22
  A 1.36 1.34 -13.1 0 1 158.85 189.03
  Q 155.94 191.17 154.49 190.99
  Q 121.16 186.71 92.64 183.15
  A 0.80 0.79 15.6 0 0 91.82 183.61
  Q 89.97 187.69 86.82 189.88
  C 82.65 192.78 77.24 192.35 73.38 189.10
  Q 68.86 185.30 68.70 179.04
  Q 68.52 172.27 68.61 167.08
  Q 68.62 166.26 67.80 166.27
  L 61.51 166.31
  Q 60.78 166.32 60.80 167.05
  Q 61.02 174.87 60.98 179.48
  C 60.95 183.97 57.50 187.75 53.45 189.65
  Q 49.93 191.29 46.03 189.98
  Q 40.81 188.22 38.65 183.13
  Q 38.37 182.48 38.03 183.10
  Z
  M 102.87 109.38
  L 102.03 110.84
  Q 101.74 111.34 102.32 111.34
  Q 103.02 111.34 103.35 111.10
  C 109.45 106.56 118.29 107.49 122.13 114.31
  Q 124.04 117.71 123.61 120.98
  Q 123.01 125.60 120.38 128.53
  Q 118.70 130.40 113.93 133.13
  Q 103.69 138.99 92.92 144.61
  A 1.05 1.04 76.5 0 0 92.36 145.54
  L 92.58 175.14
  A 0.68 0.67 -87.1 0 0 93.17 175.80
  Q 121.17 179.31 148.25 182.77
  Q 149.71 182.96 152.61 182.68
  Q 153.10 182.63 153.09 182.15
  L 152.01 36.22
  Q 152.00 35.39 151.20 35.58
  L 92.03 49.29
  Q 91.75 49.36 91.75 49.64
  Q 91.68 57.14 91.77 70.10
  Q 91.80 73.67 92.75 76.92
  Q 94.03 81.24 94.37 83.60
  Q 94.62 85.32 96.09 87.06
  C 99.34 90.92 101.82 94.22 102.69 98.28
  Q 103.45 101.86 102.98 109.03
  A 0.74 0.73 62.9 0 1 102.87 109.38
  Z
  M 85.67 77.57
  A 0.46 0.46 0.0 0 0 84.90 77.45
  L 83.05 79.58
  A 0.46 0.46 0.0 0 0 83.27 80.33
  L 86.38 81.16
  A 0.46 0.46 0.0 0 0 86.93 80.54
  L 85.67 77.57
  Z
  M 87.35 110.80
  Q 86.50 109.05 87.35 107.24
  Q 87.59 106.74 88.17 106.69
  L 89.97 106.52
  Q 93.95 106.14 90.94 103.59
  L 90.02 102.81
  Q 89.56 102.43 89.57 101.93
  Q 89.62 99.54 92.28 99.36
  Q 95.22 99.16 95.38 99.14
  Q 95.88 99.08 95.69 98.62
  Q 92.38 90.80 85.02 87.67
  C 81.53 86.19 78.72 84.89 75.59 86.69
  C 74.04 87.59 73.05 87.28 71.90 86.09
  Q 68.43 82.52 65.39 78.18
  Q 64.68 77.17 64.27 78.34
  Q 62.24 84.24 60.13 89.89
  Q 57.40 97.16 57.48 101.82
  Q 57.69 113.64 67.18 119.00
  Q 73.61 122.63 80.78 121.86
  Q 88.20 121.06 93.57 114.36
  Q 95.16 112.37 94.53 110.18
  A 0.68 0.68 0.0 0 0 93.44 109.85
  Q 91.12 111.83 88.08 111.35
  A 0.98 0.97 81.8 0 1 87.35 110.80
  Z
  M 95.79 106.08
  A 0.45 0.44 -14.0 0 0 96.35 106.41
  Q 97.12 106.19 96.96 104.61
  Q 96.91 104.17 96.70 104.07
  Q 96.36 103.91 95.94 104.05
  Q 95.36 104.24 95.50 104.83
  L 95.79 106.08
  Z
  M 19.99 117.76
  C 21.10 116.32 22.61 114.97 22.69 113.25
  Q 22.85 110.04 19.93 108.66
  Q 16.23 106.92 13.27 110.86
  C 9.82 115.44 9.34 123.61 9.43 129.06
  Q 9.58 137.96 14.70 144.36
  A 0.57 0.56 40.5 0 0 15.63 144.29
  L 19.80 137.06
  Q 20.05 136.63 19.87 136.16
  Q 16.64 127.79 19.11 119.72
  Q 19.53 118.36 19.99 117.76
  Z
  M 72.08 146.75
  Q 75.33 146.69 75.36 150.01
  L 75.63 179.25
  Q 75.68 183.91 80.76 184.72
  Q 80.79 184.73 81.18 184.67
  Q 85.41 184.01 85.38 179.75
  L 85.11 143.80
  A 4.09 4.09 0.0 0 1 87.11 140.25
  Q 98.56 133.45 111.65 126.41
  C 113.65 125.34 116.80 123.56 116.81 121.04
  Q 116.82 118.17 115.19 116.27
  Q 112.89 113.57 109.31 115.58
  Q 105.74 117.58 94.12 124.30
  Q 79.50 132.76 64.34 125.37
  Q 63.37 124.90 62.72 124.82
  Q 61.74 124.71 61.07 124.85
  Q 48.07 127.68 39.73 130.45
  Q 21.19 136.62 21.18 156.50
  Q 21.17 174.53 21.16 178.75
  Q 21.16 179.92 21.97 182.27
  C 23.12 185.61 28.66 185.85 30.34 183.06
  C 32.84 178.90 30.23 172.20 32.96 167.57
  Q 34.86 164.35 37.55 162.54
  Q 42.43 159.26 45.26 159.20
  Q 56.39 158.99 67.61 158.99
  Q 68.07 158.99 68.09 158.54
  L 68.38 150.01
  Q 68.52 146.20 71.94 146.74
  Q 72.03 146.75 72.08 146.75
  Z
  M 53.6628 170.9525
  A 4.08 4.08 0.0 0 0 49.5756 166.8796
  L 49.1356 166.8804
  A 4.08 4.08 0.0 0 0 45.0628 170.9675
  L 45.0772 179.2675
  A 4.08 4.08 0.0 0 0 49.1644 183.3404
  L 49.6044 183.3396
  A 4.08 4.08 0.0 0 0 53.6772 179.2525
  L 53.6628 170.9525
  Z"
/>
<path fill="#ffffff" d="
  M 102.98 109.03
  Q 103.45 101.86 102.69 98.28
  C 101.82 94.22 99.34 90.92 96.09 87.06
  Q 94.62 85.32 94.37 83.60
  Q 94.03 81.24 92.75 76.92
  Q 91.80 73.67 91.77 70.10
  Q 91.68 57.14 91.75 49.64
  Q 91.75 49.36 92.03 49.29
  L 151.20 35.58
  Q 152.00 35.39 152.01 36.22
  L 153.09 182.15
  Q 153.10 182.63 152.61 182.68
  Q 149.71 182.96 148.25 182.77
  Q 121.17 179.31 93.17 175.80
  A 0.68 0.67 -87.1 0 1 92.58 175.14
  L 92.36 145.54
  A 1.05 1.04 76.5 0 1 92.92 144.61
  Q 103.69 138.99 113.93 133.13
  Q 118.70 130.40 120.38 128.53
  Q 123.01 125.60 123.61 120.98
  Q 124.04 117.71 122.13 114.31
  C 118.29 107.49 109.45 106.56 103.35 111.10
  Q 103.02 111.34 102.32 111.34
  Q 101.74 111.34 102.03 110.84
  L 102.87 109.38
  A 0.74 0.73 62.9 0 0 102.98 109.03
  Z
  M 144.78 52.55
  Q 144.71 51.42 145.82 51.22
  Q 149.31 50.58 148.81 48.23
  Q 148.37 46.19 145.74 46.52
  Q 142.46 46.92 136.50 48.15
  A 1.58 1.56 -85.0 0 0 135.35 49.13
  Q 134.71 50.79 136.60 51.47
  Q 138.43 52.13 138.82 52.36
  Q 139.32 52.64 139.32 53.00
  L 139.33 61.92
  Q 139.33 63.31 140.59 63.91
  Q 141.50 64.35 141.71 64.33
  Q 143.82 64.18 144.16 62.13
  Q 145.03 56.95 144.78 52.55
  Z
  M 132.47 60.52
  L 132.41 52.70
  Q 132.41 52.34 132.67 52.09
  L 134.34 50.41
  Q 134.70 50.06 134.55 49.58
  Q 134.32 48.87 133.57 48.41
  Q 132.74 47.89 131.88 48.05
  Q 126.72 49.01 126.19 49.11
  A 0.72 0.72 0.0 0 0 125.66 50.09
  Q 127.91 55.44 126.96 61.48
  Q 126.88 61.95 126.59 62.33
  Q 125.16 64.22 126.80 65.81
  A 0.82 0.81 60.3 0 0 127.55 66.02
  L 133.80 64.57
  Q 134.30 64.45 134.38 63.95
  Q 134.57 62.76 134.32 61.71
  Q 134.19 61.11 133.57 61.11
  L 133.08 61.12
  Q 132.48 61.12 132.47 60.52
  Z
  M 107.39 66.50
  Q 110.14 68.64 112.72 66.36
  C 113.70 65.49 114.41 63.70 115.18 62.58
  A 1.02 1.02 0.0 0 1 116.74 62.43
  Q 119.15 64.85 119.77 65.37
  C 121.01 66.42 122.95 66.19 124.06 65.19
  Q 124.45 64.84 124.44 64.32
  C 124.42 62.05 121.20 59.46 119.94 58.38
  A 1.06 1.03 -48.5 0 1 119.87 56.88
  L 124.26 52.03
  Q 125.47 50.69 123.95 49.48
  Q 123.86 49.40 123.20 49.13
  A 2.25 2.13 -55.9 0 0 120.84 49.65
  L 116.60 53.89
  A 0.88 0.88 0.0 0 1 115.36 53.89
  Q 113.47 52.00 110.92 50.44
  A 0.92 0.90 -43.3 0 0 110.00 50.42
  C 105.74 52.77 110.19 56.82 112.47 58.69
  Q 112.87 59.03 112.47 59.37
  Q 110.14 61.32 108.54 64.74
  Q 108.39 65.07 108.13 64.81
  L 106.18 62.86
  Q 105.70 62.38 105.20 62.83
  Q 103.74 64.11 101.86 64.58
  Q 101.36 64.70 101.01 64.33
  Q 99.95 63.25 100.36 61.75
  Q 100.51 61.23 101.04 61.25
  Q 104.29 61.34 105.43 60.33
  Q 108.10 57.95 104.56 57.70
  Q 103.46 57.62 100.97 57.59
  Q 100.14 57.58 100.21 56.38
  Q 100.24 55.83 100.76 55.66
  Q 102.69 55.05 105.26 55.15
  Q 106.55 55.20 106.54 53.90
  L 106.54 52.86
  Q 106.53 51.67 105.35 51.60
  C 100.01 51.28 95.68 51.39 95.49 57.51
  C 95.39 61.00 95.03 64.49 96.29 66.53
  Q 97.24 68.07 97.99 68.29
  Q 103.10 69.77 106.63 66.53
  Q 106.99 66.19 107.39 66.50
  Z
  M 118.5004 80.9236
  A 5.33 4.46 87.2 0 0 122.6947 75.3821
  A 5.33 4.46 87.2 0 0 117.9796 70.2764
  A 5.33 4.46 87.2 0 0 113.7853 75.8179
  A 5.33 4.46 87.2 0 0 118.5004 80.9236
  Z
  M 147.66 109.54
  A 10.12 10.12 0.0 0 0 137.54 99.42
  A 10.12 10.12 0.0 0 0 127.42 109.54
  A 10.12 10.12 0.0 0 0 137.54 119.66
  A 10.12 10.12 0.0 0 0 147.66 109.54
  Z"
/>
<path fill="#232423" d="
  M 144.78 52.55
  Q 145.03 56.95 144.16 62.13
  Q 143.82 64.18 141.71 64.33
  Q 141.50 64.35 140.59 63.91
  Q 139.33 63.31 139.33 61.92
  L 139.32 53.00
  Q 139.32 52.64 138.82 52.36
  Q 138.43 52.13 136.60 51.47
  Q 134.71 50.79 135.35 49.13
  A 1.58 1.56 -85.0 0 1 136.50 48.15
  Q 142.46 46.92 145.74 46.52
  Q 148.37 46.19 148.81 48.23
  Q 149.31 50.58 145.82 51.22
  Q 144.71 51.42 144.78 52.55
  Z"
/>
<path fill="#232423" d="
  M 133.08 61.12
  L 133.57 61.11
  Q 134.19 61.11 134.32 61.71
  Q 134.57 62.76 134.38 63.95
  Q 134.30 64.45 133.80 64.57
  L 127.55 66.02
  A 0.82 0.81 60.3 0 1 126.80 65.81
  Q 125.16 64.22 126.59 62.33
  Q 126.88 61.95 126.96 61.48
  Q 127.91 55.44 125.66 50.09
  A 0.72 0.72 0.0 0 1 126.19 49.11
  Q 126.72 49.01 131.88 48.05
  Q 132.74 47.89 133.57 48.41
  Q 134.32 48.87 134.55 49.58
  Q 134.70 50.06 134.34 50.41
  L 132.67 52.09
  Q 132.41 52.34 132.41 52.70
  L 132.47 60.52
  Q 132.48 61.12 133.08 61.12
  Z"
/>
<path fill="#232423" d="
  M 106.63 66.53
  Q 103.10 69.77 97.99 68.29
  Q 97.24 68.07 96.29 66.53
  C 95.03 64.49 95.39 61.00 95.49 57.51
  C 95.68 51.39 100.01 51.28 105.35 51.60
  Q 106.53 51.67 106.54 52.86
  L 106.54 53.90
  Q 106.55 55.20 105.26 55.15
  Q 102.69 55.05 100.76 55.66
  Q 100.24 55.83 100.21 56.38
  Q 100.14 57.58 100.97 57.59
  Q 103.46 57.62 104.56 57.70
  Q 108.10 57.95 105.43 60.33
  Q 104.29 61.34 101.04 61.25
  Q 100.51 61.23 100.36 61.75
  Q 99.95 63.25 101.01 64.33
  Q 101.36 64.70 101.86 64.58
  Q 103.74 64.11 105.20 62.83
  Q 105.70 62.38 106.18 62.86
  L 108.13 64.81
  Q 108.39 65.07 108.54 64.74
  Q 110.14 61.32 112.47 59.37
  Q 112.87 59.03 112.47 58.69
  C 110.19 56.82 105.74 52.77 110.00 50.42
  A 0.92 0.90 -43.3 0 1 110.92 50.44
  Q 113.47 52.00 115.36 53.89
  A 0.88 0.88 0.0 0 0 116.60 53.89
  L 120.84 49.65
  A 2.25 2.13 -55.9 0 1 123.20 49.13
  Q 123.86 49.40 123.95 49.48
  Q 125.47 50.69 124.26 52.03
  L 119.87 56.88
  A 1.06 1.03 -48.5 0 0 119.94 58.38
  C 121.20 59.46 124.42 62.05 124.44 64.32
  Q 124.45 64.84 124.06 65.19
  C 122.95 66.19 121.01 66.42 119.77 65.37
  Q 119.15 64.85 116.74 62.43
  A 1.02 1.02 0.0 0 0 115.18 62.58
  C 114.41 63.70 113.70 65.49 112.72 66.36
  Q 110.14 68.64 107.39 66.50
  Q 106.99 66.19 106.63 66.53
  Z"
/>
<ellipse fill="#000000" cx="0.00" cy="0.00" transform="translate(118.24,75.60) rotate(87.2)" rx="5.33" ry="4.46"/>
<path fill="#ffffff"  d="
  M 85.67 77.57
  L 86.93 80.54
  A 0.46 0.46 0.0 0 1 86.38 81.16
  L 83.27 80.33
  A 0.46 0.46 0.0 0 1 83.05 79.58
  L 84.90 77.45
  A 0.46 0.46 0.0 0 1 85.67 77.57
  Z"
/>
<path fill="#ffffff" d="
  M 88.08 111.35
  Q 91.12 111.83 93.44 109.85
  A 0.68 0.68 0.0 0 1 94.53 110.18
  Q 95.16 112.37 93.57 114.36
  Q 88.20 121.06 80.78 121.86
  Q 73.61 122.63 67.18 119.00
  Q 57.69 113.64 57.48 101.82
  Q 57.40 97.16 60.13 89.89
  Q 62.24 84.24 64.27 78.34
  Q 64.68 77.17 65.39 78.18
  Q 68.43 82.52 71.90 86.09
  C 73.05 87.28 74.04 87.59 75.59 86.69
  C 78.72 84.89 81.53 86.19 85.02 87.67
  Q 92.38 90.80 95.69 98.62
  Q 95.88 99.08 95.38 99.14
  Q 95.22 99.16 92.28 99.36
  Q 89.62 99.54 89.57 101.93
  Q 89.56 102.43 90.02 102.81
  L 90.94 103.59
  Q 93.95 106.14 89.97 106.52
  L 88.17 106.69
  Q 87.59 106.74 87.35 107.24
  Q 86.50 109.05 87.35 110.80
  A 0.98 0.97 81.8 0 0 88.08 111.35
  Z
  M 81.2596 103.9111
  A 4.90 4.60 98.1 0 0 86.5041 99.7081
  A 4.90 4.60 98.1 0 0 82.6404 94.2089
  A 4.90 4.60 98.1 0 0 77.3959 98.4119
  A 4.90 4.60 98.1 0 0 81.2596 103.9111
  Z"
/>
<ellipse fill="#000000" cx="0.00" cy="0.00" transform="translate(81.95,99.06) rotate(98.1)" rx="4.90" ry="4.60"/>
<path fill="#000000" d="
  M 147.66 109.54
  A 10.12 10.12 0.0 0 1 137.54 119.66
  A 10.12 10.12 0.0 0 1 127.42 109.54
  A 10.12 10.12 0.0 0 1 137.54 99.42
  A 10.12 10.12 0.0 0 1 147.66 109.54
  Z
  M 141.09 109.49
  A 3.67 3.67 0.0 0 0 137.42 105.82
  A 3.67 3.67 0.0 0 0 133.75 109.49
  A 3.67 3.67 0.0 0 0 137.42 113.16
  A 3.67 3.67 0.0 0 0 141.09 109.49
  Z"
/>
<path fill="#ffffff"  d="
  M 95.79 106.08
  L 95.50 104.83
  Q 95.36 104.24 95.94 104.05
  Q 96.36 103.91 96.70 104.07
  Q 96.91 104.17 96.96 104.61
  Q 97.12 106.19 96.35 106.41
  A 0.45 0.44 -14.0 0 1 95.79 106.08
  Z"
/>
<circle fill="#ffffff" cx="137.42" cy="109.49" r="3.67"/>
<path fill="#ffffff" d="
  M 19.11 119.72
  Q 16.64 127.79 19.87 136.16
  Q 20.05 136.63 19.80 137.06
  L 15.63 144.29
  A 0.57 0.56 40.5 0 1 14.70 144.36
  Q 9.58 137.96 9.43 129.06
  C 9.34 123.61 9.82 115.44 13.27 110.86
  Q 16.23 106.92 19.93 108.66
  Q 22.85 110.04 22.69 113.25
  C 22.61 114.97 21.10 116.32 19.99 117.76
  Q 19.53 118.36 19.11 119.72
  Z"
/>
<path fill="#ffffff" d="
  M 72.08 146.75
  Q 72.03 146.75 71.94 146.74
  Q 68.52 146.20 68.38 150.01
  L 68.09 158.54
  Q 68.07 158.99 67.61 158.99
  Q 56.39 158.99 45.26 159.20
  Q 42.43 159.26 37.55 162.54
  Q 34.86 164.35 32.96 167.57
  C 30.23 172.20 32.84 178.90 30.34 183.06
  C 28.66 185.85 23.12 185.61 21.97 182.27
  Q 21.16 179.92 21.16 178.75
  Q 21.17 174.53 21.18 156.50
  Q 21.19 136.62 39.73 130.45
  Q 48.07 127.68 61.07 124.85
  Q 61.74 124.71 62.72 124.82
  Q 63.37 124.90 64.34 125.37
  Q 79.50 132.76 94.12 124.30
  Q 105.74 117.58 109.31 115.58
  Q 112.89 113.57 115.19 116.27
  Q 116.82 118.17 116.81 121.04
  C 116.80 123.56 113.65 125.34 111.65 126.41
  Q 98.56 133.45 87.11 140.25
  A 4.09 4.09 0.0 0 0 85.11 143.80
  L 85.38 179.75
  Q 85.41 184.01 81.18 184.67
  Q 80.79 184.73 80.76 184.72
  Q 75.68 183.91 75.63 179.25
  L 75.36 150.01
  Q 75.33 146.69 72.08 146.75
  Z"
/>
<rect fill="#ffffff" x="-4.30" y="-8.23" transform="translate(49.37,175.11) rotate(-0.1)" width="8.60" height="16.46" rx="4.08"/>
</svg>
