<?xml version="1.0" encoding="UTF-8" standalone="no"?>
<!DOCTYPE svg PUBLIC "-//W3C//DTD SVG 1.1//EN" "http://www.w3.org/Graphics/SVG/1.1/DTD/svg11.dtd">
<svg xmlns="http://www.w3.org/2000/svg" version="1.1" viewBox="0.00 0.00 269.00 100.00">
<g stroke-width="2.00" fill="none" stroke-linecap="butt">
<path stroke="#808080" vector-effect="non-scaling-stroke" d="
  M 215.40 37.80
  Q 202.10 35.16 196.13 45.28
  C 193.68 49.42 192.53 59.18 195.68 63.15
  Q 197.44 65.37 198.65 65.72
  Q 208.66 68.56 216.91 61.87
  A 0.46 0.46 0.0 0 1 217.66 62.23
  L 217.66 65.96
  Q 217.66 67.47 219.13 67.82
  Q 222.32 68.59 224.51 67.62
  A 0.96 0.96 0.0 0 0 225.06 66.94
  Q 225.56 64.70 225.58 64.25
  Q 226.36 45.42 223.83 24.74
  Q 223.27 20.15 218.51 20.59
  L 217.65 20.67
  Q 213.10 21.09 214.13 25.73
  Q 215.16 30.33 215.78 37.46
  A 0.32 0.32 0.0 0 1 215.40 37.80"
/>
<path stroke="#808080" vector-effect="non-scaling-stroke" d="
  M 31.06 48.56
  Q 31.13 48.13 32.19 47.19
  Q 34.61 45.03 38.12 43.16
  C 42.62 40.76 38.03 35.57 35.35 34.08
  Q 32.69 32.59 28.62 34.03
  C 23.16 35.95 15.47 41.06 14.92 47.16
  C 14.36 53.25 19.31 55.21 24.33 57.16
  Q 27.27 58.30 30.45 59.10
  A 1.45 1.44 -62.4 0 1 31.18 61.45
  Q 29.21 63.72 22.08 61.05
  Q 20.09 60.30 19.29 62.29
  Q 19.29 62.30 19.26 62.37
  Q 18.38 64.34 20.35 65.14
  Q 28.89 68.62 36.76 65.34
  Q 41.14 63.51 41.42 58.95
  C 41.54 57.08 40.34 55.06 38.84 54.19
  Q 36.70 52.96 32.53 51.12
  Q 30.77 50.34 31.06 48.56"
/>
<path stroke="#808080" vector-effect="non-scaling-stroke" d="
  M 109.02 58.04
  Q 108.54 57.57 107.92 57.80
  C 103.95 59.23 100.29 61.15 97.62 58.72
  C 94.44 55.84 95.27 51.88 97.74 48.95
  Q 100.19 46.04 104.64 43.28
  C 106.64 42.03 107.31 40.69 106.26 38.53
  C 104.33 34.56 100.83 32.47 96.40 33.71
  C 88.55 35.90 81.55 44.11 81.91 52.49
  Q 82.18 58.87 86.58 62.90
  C 92.79 68.60 102.27 67.07 108.93 62.62
  Q 111.79 60.71 109.02 58.04"
/>
<path stroke="#808080" vector-effect="non-scaling-stroke" d="
  M 249.18 48.46
  C 250.46 46.20 253.47 44.70 256.73 42.73
  Q 258.51 41.65 257.97 39.86
  Q 256.60 35.28 252.52 33.70
  Q 249.72 32.63 245.25 34.55
  C 238.77 37.33 230.89 43.39 233.47 51.06
  C 234.96 55.46 244.34 57.88 248.70 59.27
  A 1.26 1.26 0.0 0 1 249.16 61.42
  C 246.93 63.39 242.45 62.04 240.03 61.06
  Q 238.31 60.36 237.51 61.96
  L 237.26 62.48
  Q 236.38 64.23 238.09 65.02
  Q 243.99 67.76 251.24 66.48
  C 255.22 65.78 259.45 63.33 259.44 58.95
  Q 259.43 55.44 256.06 53.77
  Q 251.04 51.28 249.86 50.70
  A 1.61 1.61 0.0 0 1 249.18 48.46"
/>
<path stroke="#808080" vector-effect="non-scaling-stroke" d="
  M 62.80 55.84
  C 69.21 54.61 76.87 52.52 75.09 44.09
  C 73.08 34.49 63.96 33.43 56.03 36.10
  C 47.87 38.85 45.58 47.61 47.22 55.45
  C 49.83 67.94 62.69 68.47 72.14 64.11
  C 73.73 63.38 76.61 62.08 76.12 60.08
  Q 75.75 58.51 74.64 57.88
  A 1.24 1.20 -39.4 0 0 73.65 57.80
  Q 68.91 59.47 67.47 59.72
  A 4.97 1.81 -14.9 0 1 63.45 59.36
  L 62.13 58.09
  Q 60.29 56.32 62.80 55.84"
/>
<path stroke="#808080" vector-effect="non-scaling-stroke" d="
  M 131.36 66.68
  C 137.40 66.34 143.04 64.55 145.69 58.62
  Q 147.06 55.55 146.62 50.35
  C 145.77 40.28 139.94 34.40 129.59 34.98
  C 119.24 35.55 114.10 42.04 114.37 52.15
  Q 114.51 57.36 116.22 60.26
  C 119.51 65.86 125.31 67.01 131.36 66.68"
/>
<path stroke="#808080" vector-effect="non-scaling-stroke" d="
  M 167.67 37.92
  C 165.33 35.02 159.64 35.15 156.53 36.72
  C 154.91 37.54 154.70 41.01 154.43 42.98
  Q 153.14 52.52 153.46 61.72
  C 153.51 63.27 153.94 64.64 155.49 65.09
  Q 161.55 66.87 167.65 64.62
  A 1.76 1.75 -13.5 0 0 168.79 62.77
  Q 167.97 55.56 167.87 46.24
  Q 167.85 44.42 169.75 43.48
  C 171.70 42.51 175.50 41.38 176.63 43.61
  Q 177.62 45.55 177.70 48.02
  Q 178.00 57.62 176.69 64.94
  Q 176.45 66.25 177.65 66.84
  C 180.34 68.18 186.52 69.55 186.85 65.02
  Q 187.34 58.17 186.52 49.51
  C 185.90 42.91 184.54 33.27 175.45 35.22
  Q 171.65 36.03 170.38 36.88
  Q 168.75 37.96 168.46 38.10
  Q 167.99 38.32 167.67 37.92"
/>
<path stroke="#808080" vector-effect="non-scaling-stroke" d="
  M 208.60 47.45
  Q 206.85 52.57 208.29 57.73
  A 1.75 1.74 -7.5 0 0 209.96 59.01
  Q 214.12 59.01 217.02 55.90
  Q 217.36 55.54 217.41 55.05
  Q 217.86 50.33 216.14 45.58
  A 1.28 1.24 -88.0 0 0 215.49 44.86
  Q 213.51 43.92 211.33 44.45
  Q 209.47 44.91 208.60 47.45"
/>
<path stroke="#808080" vector-effect="non-scaling-stroke" d="
  M 61.21 51.00
  Q 62.33 50.93 64.17 50.27
  C 65.98 49.62 68.64 49.10 68.70 46.65
  C 68.78 43.01 66.28 40.02 62.50 42.57
  C 60.62 43.84 60.61 47.84 60.49 50.30
  Q 60.46 51.05 61.21 51.00"
/>
<path stroke="#808080" vector-effect="non-scaling-stroke" d="
  M 134.1227 60.4478
  A 9.54 5.07 87.1 0 0 138.7035 50.6635
  A 9.54 5.07 87.1 0 0 133.1573 41.3922
  A 9.54 5.07 87.1 0 0 128.5765 51.1765
  A 9.54 5.07 87.1 0 0 134.1227 60.4478"
/>
</g>
<path fill="#ffffff" fill-opacity="0" d="
  M 269.00 0.00
  L 269.00 100.00
  L 0.00 100.00
  L 0.00 0.00
  L 269.00 0.00
  Z
  M 215.40 37.80
  Q 202.10 35.16 196.13 45.28
  C 193.68 49.42 192.53 59.18 195.68 63.15
  Q 197.44 65.37 198.65 65.72
  Q 208.66 68.56 216.91 61.87
  A 0.46 0.46 0.0 0 1 217.66 62.23
  L 217.66 65.96
  Q 217.66 67.47 219.13 67.82
  Q 222.32 68.59 224.51 67.62
  A 0.96 0.96 0.0 0 0 225.06 66.94
  Q 225.56 64.70 225.58 64.25
  Q 226.36 45.42 223.83 24.74
  Q 223.27 20.15 218.51 20.59
  L 217.65 20.67
  Q 213.10 21.09 214.13 25.73
  Q 215.16 30.33 215.78 37.46
  A 0.32 0.32 0.0 0 1 215.40 37.80
  Z
  M 31.06 48.56
  Q 31.13 48.13 32.19 47.19
  Q 34.61 45.03 38.12 43.16
  C 42.62 40.76 38.03 35.57 35.35 34.08
  Q 32.69 32.59 28.62 34.03
  C 23.16 35.95 15.47 41.06 14.92 47.16
  C 14.36 53.25 19.31 55.21 24.33 57.16
  Q 27.27 58.30 30.45 59.10
  A 1.45 1.44 -62.4 0 1 31.18 61.45
  Q 29.21 63.72 22.08 61.05
  Q 20.09 60.30 19.29 62.29
  Q 19.29 62.30 19.26 62.37
  Q 18.38 64.34 20.35 65.14
  Q 28.89 68.62 36.76 65.34
  Q 41.14 63.51 41.42 58.95
  C 41.54 57.08 40.34 55.06 38.84 54.19
  Q 36.70 52.96 32.53 51.12
  Q 30.77 50.34 31.06 48.56
  Z
  M 109.02 58.04
  Q 108.54 57.57 107.92 57.80
  C 103.95 59.23 100.29 61.15 97.62 58.72
  C 94.44 55.84 95.27 51.88 97.74 48.95
  Q 100.19 46.04 104.64 43.28
  C 106.64 42.03 107.31 40.69 106.26 38.53
  C 104.33 34.56 100.83 32.47 96.40 33.71
  C 88.55 35.90 81.55 44.11 81.91 52.49
  Q 82.18 58.87 86.58 62.90
  C 92.79 68.60 102.27 67.07 108.93 62.62
  Q 111.79 60.71 109.02 58.04
  Z
  M 249.18 48.46
  C 250.46 46.20 253.47 44.70 256.73 42.73
  Q 258.51 41.65 257.97 39.86
  Q 256.60 35.28 252.52 33.70
  Q 249.72 32.63 245.25 34.55
  C 238.77 37.33 230.89 43.39 233.47 51.06
  C 234.96 55.46 244.34 57.88 248.70 59.27
  A 1.26 1.26 0.0 0 1 249.16 61.42
  C 246.93 63.39 242.45 62.04 240.03 61.06
  Q 238.31 60.36 237.51 61.96
  L 237.26 62.48
  Q 236.38 64.23 238.09 65.02
  Q 243.99 67.76 251.24 66.48
  C 255.22 65.78 259.45 63.33 259.44 58.95
  Q 259.43 55.44 256.06 53.77
  Q 251.04 51.28 249.86 50.70
  A 1.61 1.61 0.0 0 1 249.18 48.46
  Z
  M 62.80 55.84
  C 69.21 54.61 76.87 52.52 75.09 44.09
  C 73.08 34.49 63.96 33.43 56.03 36.10
  C 47.87 38.85 45.58 47.61 47.22 55.45
  C 49.83 67.94 62.69 68.47 72.14 64.11
  C 73.73 63.38 76.61 62.08 76.12 60.08
  Q 75.75 58.51 74.64 57.88
  A 1.24 1.20 -39.4 0 0 73.65 57.80
  Q 68.91 59.47 67.47 59.72
  A 4.97 1.81 -14.9 0 1 63.45 59.36
  L 62.13 58.09
  Q 60.29 56.32 62.80 55.84
  Z
  M 131.36 66.68
  C 137.40 66.34 143.04 64.55 145.69 58.62
  Q 147.06 55.55 146.62 50.35
  C 145.77 40.28 139.94 34.40 129.59 34.98
  C 119.24 35.55 114.10 42.04 114.37 52.15
  Q 114.51 57.36 116.22 60.26
  C 119.51 65.86 125.31 67.01 131.36 66.68
  Z
  M 167.67 37.92
  C 165.33 35.02 159.64 35.15 156.53 36.72
  C 154.91 37.54 154.70 41.01 154.43 42.98
  Q 153.14 52.52 153.46 61.72
  C 153.51 63.27 153.94 64.64 155.49 65.09
  Q 161.55 66.87 167.65 64.62
  A 1.76 1.75 -13.5 0 0 168.79 62.77
  Q 167.97 55.56 167.87 46.24
  Q 167.85 44.42 169.75 43.48
  C 171.70 42.51 175.50 41.38 176.63 43.61
  Q 177.62 45.55 177.70 48.02
  Q 178.00 57.62 176.69 64.94
  Q 176.45 66.25 177.65 66.84
  C 180.34 68.18 186.52 69.55 186.85 65.02
  Q 187.34 58.17 186.52 49.51
  C 185.90 42.91 184.54 33.27 175.45 35.22
  Q 171.65 36.03 170.38 36.88
  Q 168.75 37.96 168.46 38.10
  Q 167.99 38.32 167.67 37.92
  Z"
/>
<path fill="#000000" d="
  M 215.40 37.80
  A 0.32 0.32 0.0 0 0 215.78 37.46
  Q 215.16 30.33 214.13 25.73
  Q 213.10 21.09 217.65 20.67
  L 218.51 20.59
  Q 223.27 20.15 223.83 24.74
  Q 226.36 45.42 225.58 64.25
  Q 225.56 64.70 225.06 66.94
  A 0.96 0.96 0.0 0 1 224.51 67.62
  Q 222.32 68.59 219.13 67.82
  Q 217.66 67.47 217.66 65.96
  L 217.66 62.23
  A 0.46 0.46 0.0 0 0 216.91 61.87
  Q 208.66 68.56 198.65 65.72
  Q 197.44 65.37 195.68 63.15
  C 192.53 59.18 193.68 49.42 196.13 45.28
  Q 202.10 35.16 215.40 37.80
  Z
  M 208.60 47.45
  Q 206.85 52.57 208.29 57.73
  A 1.75 1.74 -7.5 0 0 209.96 59.01
  Q 214.12 59.01 217.02 55.90
  Q 217.36 55.54 217.41 55.05
  Q 217.86 50.33 216.14 45.58
  A 1.28 1.24 -88.0 0 0 215.49 44.86
  Q 213.51 43.92 211.33 44.45
  Q 209.47 44.91 208.60 47.45
  Z"
/>
<path fill="#000000" d="
  M 31.06 48.56
  Q 30.77 50.34 32.53 51.12
  Q 36.70 52.96 38.84 54.19
  C 40.34 55.06 41.54 57.08 41.42 58.95
  Q 41.14 63.51 36.76 65.34
  Q 28.89 68.62 20.35 65.14
  Q 18.38 64.34 19.26 62.37
  Q 19.29 62.30 19.29 62.29
  Q 20.09 60.30 22.08 61.05
  Q 29.21 63.72 31.18 61.45
  A 1.45 1.44 -62.4 0 0 30.45 59.10
  Q 27.27 58.30 24.33 57.16
  C 19.31 55.21 14.36 53.25 14.92 47.16
  C 15.47 41.06 23.16 35.95 28.62 34.03
  Q 32.69 32.59 35.35 34.08
  C 38.03 35.57 42.62 40.76 38.12 43.16
  Q 34.61 45.03 32.19 47.19
  Q 31.13 48.13 31.06 48.56
  Z"
/>
<path fill="#000000" d="
  M 109.02 58.04
  Q 111.79 60.71 108.93 62.62
  C 102.27 67.07 92.79 68.60 86.58 62.90
  Q 82.18 58.87 81.91 52.49
  C 81.55 44.11 88.55 35.90 96.40 33.71
  C 100.83 32.47 104.33 34.56 106.26 38.53
  C 107.31 40.69 106.64 42.03 104.64 43.28
  Q 100.19 46.04 97.74 48.95
  C 95.27 51.88 94.44 55.84 97.62 58.72
  C 100.29 61.15 103.95 59.23 107.92 57.80
  Q 108.54 57.57 109.02 58.04
  Z"
/>
<path fill="#000000" d="
  M 249.18 48.46
  A 1.61 1.61 0.0 0 0 249.86 50.70
  Q 251.04 51.28 256.06 53.77
  Q 259.43 55.44 259.44 58.95
  C 259.45 63.33 255.22 65.78 251.24 66.48
  Q 243.99 67.76 238.09 65.02
  Q 236.38 64.23 237.26 62.48
  L 237.51 61.96
  Q 238.31 60.36 240.03 61.06
  C 242.45 62.04 246.93 63.39 249.16 61.42
  A 1.26 1.26 0.0 0 0 248.70 59.27
  C 244.34 57.88 234.96 55.46 233.47 51.06
  C 230.89 43.39 238.77 37.33 245.25 34.55
  Q 249.72 32.63 252.52 33.70
  Q 256.60 35.28 257.97 39.86
  Q 258.51 41.65 256.73 42.73
  C 253.47 44.70 250.46 46.20 249.18 48.46
  Z"
/>
<path fill="#000000" d="
  M 62.80 55.84
  Q 60.29 56.32 62.13 58.09
  L 63.45 59.36
  A 4.97 1.81 -14.9 0 0 67.47 59.72
  Q 68.91 59.47 73.65 57.80
  A 1.24 1.20 -39.4 0 1 74.64 57.88
  Q 75.75 58.51 76.12 60.08
  C 76.61 62.08 73.73 63.38 72.14 64.11
  C 62.69 68.47 49.83 67.94 47.22 55.45
  C 45.58 47.61 47.87 38.85 56.03 36.10
  C 63.96 33.43 73.08 34.49 75.09 44.09
  C 76.87 52.52 69.21 54.61 62.80 55.84
  Z
  M 61.21 51.00
  Q 62.33 50.93 64.17 50.27
  C 65.98 49.62 68.64 49.10 68.70 46.65
  C 68.78 43.01 66.28 40.02 62.50 42.57
  C 60.62 43.84 60.61 47.84 60.49 50.30
  Q 60.46 51.05 61.21 51.00
  Z"
/>
<path fill="#000000" d="
  M 129.59 34.98
  C 139.94 34.40 145.77 40.28 146.62 50.35
  Q 147.06 55.55 145.69 58.62
  C 143.04 64.55 137.40 66.34 131.36 66.68
  C 125.31 67.01 119.51 65.86 116.22 60.26
  Q 114.51 57.36 114.37 52.15
  C 114.10 42.04 119.24 35.55 129.59 34.98
  Z
  M 134.1227 60.4478
  A 9.54 5.07 87.1 0 0 138.7035 50.6635
  A 9.54 5.07 87.1 0 0 133.1573 41.3922
  A 9.54 5.07 87.1 0 0 128.5765 51.1765
  A 9.54 5.07 87.1 0 0 134.1227 60.4478
  Z"
/>
<path fill="#000000" d="
  M 168.46 38.10
  Q 168.75 37.96 170.38 36.88
  Q 171.65 36.03 175.45 35.22
  C 184.54 33.27 185.90 42.91 186.52 49.51
  Q 187.34 58.17 186.85 65.02
  C 186.52 69.55 180.34 68.18 177.65 66.84
  Q 176.45 66.25 176.69 64.94
  Q 178.00 57.62 177.70 48.02
  Q 177.62 45.55 176.63 43.61
  C 175.50 41.38 171.70 42.51 169.75 43.48
  Q 167.85 44.42 167.87 46.24
  Q 167.97 55.56 168.79 62.77
  A 1.76 1.75 -13.5 0 1 167.65 64.62
  Q 161.55 66.87 155.49 65.09
  C 153.94 64.64 153.51 63.27 153.46 61.72
  Q 153.14 52.52 154.43 42.98
  C 154.70 41.01 154.91 37.54 156.53 36.72
  C 159.64 35.15 165.33 35.02 167.67 37.92
  Q 167.99 38.32 168.46 38.10
  Z"
/>
<ellipse fill="#ffffff" cx="0.00" cy="0.00" transform="translate(133.64,50.92) rotate(87.1)" rx="9.54" ry="5.07"/>
<path fill="#ffffff" d="
  M 60.49 50.30
  C 60.61 47.84 60.62 43.84 62.50 42.57
  C 66.28 40.02 68.78 43.01 68.70 46.65
  C 68.64 49.10 65.98 49.62 64.17 50.27
  Q 62.33 50.93 61.21 51.00
  Q 60.46 51.05 60.49 50.30
  Z"
/>
<path fill="#ffffff" d="
  M 211.33 44.45
  Q 213.51 43.92 215.49 44.86
  A 1.28 1.24 -88.0 0 1 216.14 45.58
  Q 217.86 50.33 217.41 55.05
  Q 217.36 55.54 217.02 55.90
  Q 214.12 59.01 209.96 59.01
  A 1.75 1.74 -7.5 0 1 208.29 57.73
  Q 206.85 52.57 208.60 47.45
  Q 209.47 44.91 211.33 44.45
  Z"
/>
</svg>
