<?xml version="1.0" encoding="UTF-8" standalone="no"?>
<!DOCTYPE svg PUBLIC "-//W3C//DTD SVG 1.1//EN" "http://www.w3.org/Graphics/SVG/1.1/DTD/svg11.dtd">
<svg xmlns="http://www.w3.org/2000/svg" version="1.1" viewBox="0.00 0.00 660.00 88.00">
<g stroke-width="2.00" fill="none" stroke-linecap="butt">
<path stroke="#808080" vector-effect="non-scaling-stroke" d="
  M 481.15 24.33
  A 8.71 8.71 0.0 0 0 472.44 15.62
  A 8.71 8.71 0.0 0 0 463.73 24.33
  A 8.71 8.71 0.0 0 0 472.44 33.04
  A 8.71 8.71 0.0 0 0 481.15 24.33"
/>
<path stroke="#808080" vector-effect="non-scaling-stroke" d="
  M 357.78 27.50
  Q 355.76 44.89 355.29 59.25
  Q 355.14 63.77 355.30 68.29
  C 355.36 69.79 356.18 70.84 357.54 71.26
  Q 363.69 73.16 370.02 71.01
  Q 371.86 70.39 371.77 68.76
  Q 370.47 45.08 371.61 20.30
  Q 371.72 17.83 369.44 17.15
  Q 364.73 15.77 360.90 17.21
  C 359.19 17.85 358.93 18.81 358.64 20.63
  Q 358.42 22.00 357.78 27.50"
/>
<path stroke="#808080" vector-effect="non-scaling-stroke" d="
  M 640.91 23.12
  A 4.75 4.75 0.0 0 0 636.21 17.89
  L 628.66 17.84
  A 4.75 4.75 0.0 0 0 623.88 22.75
  L 624.64 44.95
  A 4.75 4.75 0.0 0 0 629.23 49.53
  L 633.74 49.68
  A 4.75 4.75 0.0 0 0 638.62 45.41
  L 640.91 23.12"
/>
<path stroke="#808080" vector-effect="non-scaling-stroke" d="
  M 291.70 33.22
  L 292.70 23.45
  A 2.41 2.40 -75.0 0 0 291.30 21.02
  Q 288.02 19.53 283.62 20.24
  C 281.23 20.63 280.77 21.63 280.28 24.02
  Q 279.07 29.91 278.58 35.64
  Q 278.53 36.18 278.01 36.30
  Q 275.13 36.92 272.96 37.46
  C 270.99 37.94 269.79 38.39 269.57 40.50
  Q 269.25 43.54 270.66 45.99
  Q 270.94 46.46 271.46 46.33
  L 276.92 44.92
  A 0.53 0.53 0.0 0 1 277.58 45.50
  Q 276.24 56.82 276.48 67.60
  Q 276.51 69.06 276.94 69.79
  Q 277.61 70.91 278.81 71.26
  Q 285.71 73.26 292.66 70.85
  A 2.16 2.16 0.0 0 0 294.08 68.39
  Q 291.61 55.79 291.80 42.36
  A 0.53 0.52 -0.6 0 1 292.31 41.85
  L 300.63 41.57
  Q 303.51 41.47 303.44 38.59
  L 303.36 35.48
  Q 303.31 33.36 301.19 33.43
  L 292.18 33.74
  Q 291.64 33.76 291.70 33.22"
/>
<path stroke="#808080" vector-effect="non-scaling-stroke" d="
  M 446.00 33.30
  Q 446.16 31.39 446.41 24.63
  Q 446.41 24.57 446.51 23.36
  Q 446.66 21.66 445.38 21.10
  Q 440.46 18.97 435.73 20.90
  A 1.70 1.68 85.6 0 0 434.73 22.08
  Q 433.25 28.57 432.59 35.74
  Q 432.55 36.15 432.16 36.24
  Q 430.86 36.56 425.94 37.66
  C 422.45 38.44 423.52 43.63 424.51 45.85
  A 0.71 0.71 0.0 0 0 425.25 46.26
  Q 428.29 45.83 430.89 44.83
  A 0.52 0.52 0.0 0 1 431.59 45.37
  Q 430.21 56.90 430.48 67.61
  Q 430.52 69.28 430.91 69.88
  Q 431.54 70.83 432.89 71.25
  Q 439.52 73.27 446.64 70.87
  A 2.09 2.09 0.0 0 0 448.03 68.51
  Q 445.74 56.14 445.85 42.66
  A 0.87 0.86 89.3 0 1 446.68 41.80
  L 454.86 41.53
  Q 457.53 41.44 457.43 38.76
  L 457.32 35.26
  Q 457.25 33.35 455.34 33.41
  L 446.40 33.72
  Q 445.97 33.73 446.00 33.30"
/>
<path stroke="#808080" vector-effect="non-scaling-stroke" d="
  M 37.82 59.20
  C 29.03 60.55 24.58 52.35 31.21 46.18
  Q 35.23 42.43 41.71 39.07
  C 44.84 37.45 46.97 35.80 45.62 32.13
  Q 44.06 27.90 40.12 25.32
  C 34.62 21.72 26.28 26.04 21.71 29.71
  C 14.14 35.79 8.22 46.27 11.78 55.85
  Q 15.41 65.62 25.76 67.96
  Q 38.34 70.79 49.91 62.96
  Q 52.32 61.32 51.06 58.71
  L 50.47 57.50
  Q 49.19 54.85 46.58 56.15
  Q 41.64 58.61 37.82 59.20"
/>
<path stroke="#808080" vector-effect="non-scaling-stroke" d="
  M 208.53 38.78
  C 208.50 36.74 208.33 32.07 206.67 30.89
  C 203.52 28.64 197.89 29.80 195.07 31.53
  A 1.57 1.55 -17.6 0 0 194.33 32.94
  Q 194.98 43.91 194.39 53.51
  Q 194.39 53.52 193.32 66.45
  C 193.17 68.35 193.92 69.12 195.60 69.70
  Q 201.78 71.82 207.48 69.72
  Q 209.86 68.85 210.02 67.18
  Q 210.42 62.87 209.69 48.91
  Q 209.66 48.40 210.08 48.10
  Q 217.17 43.02 223.23 36.28
  Q 225.55 33.70 222.98 31.23
  L 221.86 30.16
  Q 219.23 27.64 217.03 30.53
  Q 213.84 34.71 209.11 39.03
  A 0.35 0.35 0.0 0 1 208.53 38.78"
/>
<path stroke="#808080" vector-effect="non-scaling-stroke" d="
  M 175.25 60.57
  C 174.96 63.04 174.66 68.17 172.04 70.03
  Q 169.75 71.65 166.98 71.52
  Q 163.45 71.36 163.04 71.22
  Q 157.87 69.54 156.44 69.11
  A 1.66 1.65 22.1 0 0 154.49 69.93
  Q 153.21 72.41 154.03 74.13
  Q 154.48 75.06 157.04 76.23
  Q 163.85 79.35 170.04 79.18
  Q 180.33 78.90 182.64 68.58
  Q 185.10 57.54 184.00 45.80
  C 183.71 42.70 183.61 38.86 182.20 35.79
  C 179.76 30.50 172.39 29.41 166.91 29.73
  Q 150.97 30.67 148.11 45.59
  C 146.81 52.41 147.05 62.45 155.18 63.89
  Q 165.82 65.77 174.87 60.33
  A 0.25 0.25 0.0 0 1 175.25 60.57"
/>
<path stroke="#808080" vector-effect="non-scaling-stroke" d="
  M 598.13 62.12
  A 1.55 1.54 69.3 0 1 597.22 64.15
  C 593.67 65.43 589.77 64.18 586.47 62.84
  Q 585.95 62.64 585.52 62.98
  Q 583.99 64.19 583.78 66.03
  Q 583.71 66.59 584.14 66.96
  Q 585.56 68.18 588.39 68.94
  Q 595.86 70.94 602.70 68.69
  C 609.20 66.55 612.92 59.13 605.66 54.74
  Q 603.52 53.45 599.21 51.71
  A 2.42 2.41 -70.1 0 1 597.82 48.73
  C 599.63 43.16 612.65 43.60 606.00 35.00
  Q 602.21 30.09 596.37 31.60
  Q 588.57 33.60 583.01 39.76
  Q 579.95 43.16 579.50 45.13
  C 577.64 53.25 582.71 55.74 589.24 58.41
  Q 592.67 59.81 596.31 60.72
  Q 597.71 61.07 598.13 62.12"
/>
<path stroke="#808080" vector-effect="non-scaling-stroke" d="
  M 75.57 33.03
  C 61.46 33.25 55.25 42.94 56.74 56.16
  C 58.20 69.12 72.05 71.09 82.13 68.88
  C 86.81 67.86 91.11 64.90 92.43 60.45
  Q 94.41 53.77 92.84 46.60
  Q 89.81 32.81 75.57 33.03"
/>
<path stroke="#808080" vector-effect="non-scaling-stroke" d="
  M 117.69 36.41
  Q 114.23 32.92 107.47 34.30
  C 104.87 34.83 103.42 35.86 103.01 38.77
  Q 100.86 53.82 101.78 65.49
  Q 101.93 67.36 103.71 67.83
  Q 110.40 69.63 117.06 67.54
  Q 119.29 66.84 118.96 64.30
  Q 117.83 55.47 117.92 45.00
  Q 117.93 44.46 118.35 44.13
  C 120.24 42.66 124.31 40.73 126.63 41.85
  C 131.54 44.22 128.87 62.51 128.03 67.54
  Q 127.78 69.01 129.41 69.91
  C 132.50 71.63 139.50 72.79 139.87 67.54
  Q 140.61 56.96 138.67 44.83
  C 137.92 40.10 136.64 35.31 131.79 33.46
  C 128.64 32.26 123.75 33.77 120.90 35.40
  Q 119.30 36.32 118.54 36.60
  Q 118.05 36.78 117.69 36.41"
/>
<path stroke="#808080" vector-effect="non-scaling-stroke" d="
  M 253.82 64.45
  L 253.95 68.32
  A 1.95 1.95 0.0 0 0 255.97 70.20
  L 260.51 70.05
  A 2.10 2.09 -87.6 0 0 262.52 68.20
  Q 263.96 55.98 262.14 42.63
  Q 261.31 36.51 255.58 34.47
  Q 247.42 31.57 239.31 34.30
  C 228.28 38.02 225.61 49.19 226.67 59.72
  C 227.11 64.18 229.13 67.76 233.38 68.86
  Q 240.69 70.74 247.89 67.33
  Q 248.28 67.15 250.60 65.66
  Q 252.57 64.40 253.42 64.16
  Q 253.81 64.04 253.82 64.45"
/>
<path stroke="#808080" vector-effect="non-scaling-stroke" d="
  M 408.28 64.60
  L 407.94 67.92
  A 1.73 1.71 13.8 0 0 409.03 69.70
  Q 412.15 70.92 415.83 69.73
  Q 416.32 69.58 416.45 69.09
  Q 417.00 67.11 417.22 63.76
  Q 417.69 56.35 417.01 48.02
  C 416.70 44.17 416.09 38.08 412.96 36.15
  Q 407.26 32.64 400.36 33.03
  C 384.83 33.91 379.48 45.65 380.76 59.48
  C 381.35 65.81 384.57 68.86 390.97 69.44
  C 397.43 70.03 402.21 67.62 407.38 64.07
  Q 408.40 63.36 408.28 64.60"
/>
<path stroke="#808080" vector-effect="non-scaling-stroke" d="
  M 524.05 44.95
  C 520.81 33.50 509.93 31.01 499.76 34.27
  C 494.49 35.95 490.76 39.62 489.29 44.80
  C 486.92 53.20 487.49 64.18 496.95 67.86
  C 504.16 70.67 516.57 70.77 521.95 64.17
  C 525.88 59.33 525.73 50.88 524.05 44.95"
/>
<path stroke="#808080" vector-effect="non-scaling-stroke" d="
  M 549.16 36.41
  Q 543.49 31.82 536.07 35.41
  Q 534.97 35.94 534.75 37.26
  Q 532.43 51.08 533.02 64.70
  Q 533.13 67.29 535.43 67.90
  Q 542.10 69.68 548.95 67.37
  A 2.12 2.11 -11.7 0 0 550.38 65.20
  Q 549.68 56.75 549.36 48.32
  C 549.32 47.14 549.20 44.88 550.00 43.94
  Q 550.29 43.59 551.66 42.94
  Q 555.08 41.33 556.49 41.47
  C 559.57 41.79 560.55 44.88 560.67 47.53
  Q 561.17 58.10 559.40 67.64
  A 1.81 1.81 0.0 0 0 560.14 69.46
  Q 564.09 72.20 568.69 70.93
  Q 570.85 70.34 571.02 68.79
  Q 572.16 58.24 570.17 45.28
  C 569.12 38.48 566.79 31.98 558.52 33.22
  C 555.30 33.70 552.57 35.39 550.05 36.52
  Q 549.56 36.74 549.16 36.41"
/>
<path stroke="#808080" vector-effect="non-scaling-stroke" d="
  M 336.71 64.32
  L 336.32 68.09
  A 1.87 1.87 0.0 0 0 337.83 70.11
  Q 340.69 70.63 343.83 69.69
  A 0.93 0.93 0.0 0 0 344.46 69.01
  Q 344.88 67.03 344.93 65.98
  Q 345.47 55.49 344.97 45.26
  Q 344.75 40.71 344.12 36.95
  Q 343.59 33.81 340.29 33.95
  Q 339.79 33.97 337.19 34.25
  Q 334.01 34.59 334.55 37.75
  Q 335.53 43.44 336.28 54.50
  Q 336.40 56.37 335.52 57.22
  Q 331.98 60.62 327.48 60.82
  A 2.54 2.53 85.2 0 1 324.86 58.60
  C 324.12 52.85 324.92 47.75 325.99 40.76
  C 326.22 39.25 325.78 37.75 324.17 37.05
  Q 318.35 34.56 311.79 36.47
  C 310.38 36.88 310.16 37.81 309.89 39.12
  Q 307.49 51.02 308.75 60.55
  Q 309.56 66.64 314.20 68.37
  C 321.72 71.18 329.45 68.60 335.99 63.90
  A 0.46 0.46 0.0 0 1 336.71 64.32"
/>
<path stroke="#808080" vector-effect="non-scaling-stroke" d="
  M 478.94 57.25
  Q 478.37 52.66 478.87 42.38
  Q 478.94 40.90 478.71 40.24
  C 477.28 36.21 465.62 36.44 464.80 40.34
  Q 462.22 52.44 462.75 64.77
  C 462.81 66.19 463.75 67.37 465.04 67.76
  Q 471.53 69.71 478.09 67.55
  Q 479.81 66.98 479.70 65.18
  Q 479.51 61.91 478.94 57.25"
/>
<path stroke="#808080" vector-effect="non-scaling-stroke" d="
  M 639.71 62.89
  A 8.26 8.26 0.0 0 0 631.45 54.63
  A 8.26 8.26 0.0 0 0 623.19 62.89
  A 8.26 8.26 0.0 0 0 631.45 71.15
  A 8.26 8.26 0.0 0 0 639.71 62.89"
/>
<path stroke="#808080" vector-effect="non-scaling-stroke" d="
  M 166.07 55.28
  L 171.83 55.39
  A 2.52 2.52 0.0 0 0 174.40 52.92
  L 174.54 45.43
  A 7.47 4.49 -88.9 0 0 170.20 37.88
  L 168.38 37.84
  A 7.47 4.49 -88.9 0 0 163.75 45.23
  L 163.60 52.72
  A 2.52 2.52 0.0 0 0 166.07 55.28"
/>
<path stroke="#808080" vector-effect="non-scaling-stroke" d="
  M 79.2386 62.4378
  A 11.01 5.79 87.3 0 0 84.5036 51.1673
  A 11.01 5.79 87.3 0 0 78.2014 40.4422
  A 11.01 5.79 87.3 0 0 72.9364 51.7127
  A 11.01 5.79 87.3 0 0 79.2386 62.4378"
/>
<path stroke="#808080" vector-effect="non-scaling-stroke" d="
  M 251.55 58.58
  Q 253.45 57.19 253.51 55.80
  Q 253.73 50.40 252.76 44.62
  Q 252.34 42.17 250.24 41.60
  C 246.17 40.49 244.09 42.42 243.24 46.30
  Q 241.86 52.53 242.88 58.70
  A 2.48 2.47 -4.5 0 0 245.31 60.77
  Q 248.52 60.79 251.55 58.58"
/>
<path stroke="#808080" vector-effect="non-scaling-stroke" d="
  M 405.89 58.42
  Q 407.78 56.98 407.86 55.75
  Q 408.10 51.66 406.72 44.06
  Q 406.35 42.08 404.68 41.62
  C 401.88 40.84 398.80 41.50 397.89 44.58
  C 396.80 48.27 395.38 57.56 398.12 60.33
  A 1.43 1.40 69.9 0 0 398.98 60.74
  Q 402.44 61.03 405.89 58.42"
/>
<path stroke="#808080" vector-effect="non-scaling-stroke" d="
  M 504.85 51.69
  Q 505.35 62.35 510.83 62.09
  Q 516.31 61.83 515.80 51.17
  Q 515.30 40.51 509.82 40.77
  Q 504.34 41.03 504.85 51.69"
/>
</g>
<path fill="#ffffff" fill-opacity="0" d="
  M 660.00 0.00
  L 660.00 88.00
  L 0.00 88.00
  L 0.00 0.00
  L 660.00 0.00
  Z
  M 481.15 24.33
  A 8.71 8.71 0.0 0 0 472.44 15.62
  A 8.71 8.71 0.0 0 0 463.73 24.33
  A 8.71 8.71 0.0 0 0 472.44 33.04
  A 8.71 8.71 0.0 0 0 481.15 24.33
  Z
  M 357.78 27.50
  Q 355.76 44.89 355.29 59.25
  Q 355.14 63.77 355.30 68.29
  C 355.36 69.79 356.18 70.84 357.54 71.26
  Q 363.69 73.16 370.02 71.01
  Q 371.86 70.39 371.77 68.76
  Q 370.47 45.08 371.61 20.30
  Q 371.72 17.83 369.44 17.15
  Q 364.73 15.77 360.90 17.21
  C 359.19 17.85 358.93 18.81 358.64 20.63
  Q 358.42 22.00 357.78 27.50
  Z
  M 640.91 23.12
  A 4.75 4.75 0.0 0 0 636.21 17.89
  L 628.66 17.84
  A 4.75 4.75 0.0 0 0 623.88 22.75
  L 624.64 44.95
  A 4.75 4.75 0.0 0 0 629.23 49.53
  L 633.74 49.68
  A 4.75 4.75 0.0 0 0 638.62 45.41
  L 640.91 23.12
  Z
  M 291.70 33.22
  L 292.70 23.45
  A 2.41 2.40 -75.0 0 0 291.30 21.02
  Q 288.02 19.53 283.62 20.24
  C 281.23 20.63 280.77 21.63 280.28 24.02
  Q 279.07 29.91 278.58 35.64
  Q 278.53 36.18 278.01 36.30
  Q 275.13 36.92 272.96 37.46
  C 270.99 37.94 269.79 38.39 269.57 40.50
  Q 269.25 43.54 270.66 45.99
  Q 270.94 46.46 271.46 46.33
  L 276.92 44.92
  A 0.53 0.53 0.0 0 1 277.58 45.50
  Q 276.24 56.82 276.48 67.60
  Q 276.51 69.06 276.94 69.79
  Q 277.61 70.91 278.81 71.26
  Q 285.71 73.26 292.66 70.85
  A 2.16 2.16 0.0 0 0 294.08 68.39
  Q 291.61 55.79 291.80 42.36
  A 0.53 0.52 -0.6 0 1 292.31 41.85
  L 300.63 41.57
  Q 303.51 41.47 303.44 38.59
  L 303.36 35.48
  Q 303.31 33.36 301.19 33.43
  L 292.18 33.74
  Q 291.64 33.76 291.70 33.22
  Z
  M 446.00 33.30
  Q 446.16 31.39 446.41 24.63
  Q 446.41 24.57 446.51 23.36
  Q 446.66 21.66 445.38 21.10
  Q 440.46 18.97 435.73 20.90
  A 1.70 1.68 85.6 0 0 434.73 22.08
  Q 433.25 28.57 432.59 35.74
  Q 432.55 36.15 432.16 36.24
  Q 430.86 36.56 425.94 37.66
  C 422.45 38.44 423.52 43.63 424.51 45.85
  A 0.71 0.71 0.0 0 0 425.25 46.26
  Q 428.29 45.83 430.89 44.83
  A 0.52 0.52 0.0 0 1 431.59 45.37
  Q 430.21 56.90 430.48 67.61
  Q 430.52 69.28 430.91 69.88
  Q 431.54 70.83 432.89 71.25
  Q 439.52 73.27 446.64 70.87
  A 2.09 2.09 0.0 0 0 448.03 68.51
  Q 445.74 56.14 445.85 42.66
  A 0.87 0.86 89.3 0 1 446.68 41.80
  L 454.86 41.53
  Q 457.53 41.44 457.43 38.76
  L 457.32 35.26
  Q 457.25 33.35 455.34 33.41
  L 446.40 33.72
  Q 445.97 33.73 446.00 33.30
  Z
  M 37.82 59.20
  C 29.03 60.55 24.58 52.35 31.21 46.18
  Q 35.23 42.43 41.71 39.07
  C 44.84 37.45 46.97 35.80 45.62 32.13
  Q 44.06 27.90 40.12 25.32
  C 34.62 21.72 26.28 26.04 21.71 29.71
  C 14.14 35.79 8.22 46.27 11.78 55.85
  Q 15.41 65.62 25.76 67.96
  Q 38.34 70.79 49.91 62.96
  Q 52.32 61.32 51.06 58.71
  L 50.47 57.50
  Q 49.19 54.85 46.58 56.15
  Q 41.64 58.61 37.82 59.20
  Z
  M 208.53 38.78
  C 208.50 36.74 208.33 32.07 206.67 30.89
  C 203.52 28.64 197.89 29.80 195.07 31.53
  A 1.57 1.55 -17.6 0 0 194.33 32.94
  Q 194.98 43.91 194.39 53.51
  Q 194.39 53.52 193.32 66.45
  C 193.17 68.35 193.92 69.12 195.60 69.70
  Q 201.78 71.82 207.48 69.72
  Q 209.86 68.85 210.02 67.18
  Q 210.42 62.87 209.69 48.91
  Q 209.66 48.40 210.08 48.10
  Q 217.17 43.02 223.23 36.28
  Q 225.55 33.70 222.98 31.23
  L 221.86 30.16
  Q 219.23 27.64 217.03 30.53
  Q 213.84 34.71 209.11 39.03
  A 0.35 0.35 0.0 0 1 208.53 38.78
  Z
  M 175.25 60.57
  C 174.96 63.04 174.66 68.17 172.04 70.03
  Q 169.75 71.65 166.98 71.52
  Q 163.45 71.36 163.04 71.22
  Q 157.87 69.54 156.44 69.11
  A 1.66 1.65 22.1 0 0 154.49 69.93
  Q 153.21 72.41 154.03 74.13
  Q 154.48 75.06 157.04 76.23
  Q 163.85 79.35 170.04 79.18
  Q 180.33 78.90 182.64 68.58
  Q 185.10 57.54 184.00 45.80
  C 183.71 42.70 183.61 38.86 182.20 35.79
  C 179.76 30.50 172.39 29.41 166.91 29.73
  Q 150.97 30.67 148.11 45.59
  C 146.81 52.41 147.05 62.45 155.18 63.89
  Q 165.82 65.77 174.87 60.33
  A 0.25 0.25 0.0 0 1 175.25 60.57
  Z
  M 598.13 62.12
  A 1.55 1.54 69.3 0 1 597.22 64.15
  C 593.67 65.43 589.77 64.18 586.47 62.84
  Q 585.95 62.64 585.52 62.98
  Q 583.99 64.19 583.78 66.03
  Q 583.71 66.59 584.14 66.96
  Q 585.56 68.18 588.39 68.94
  Q 595.86 70.94 602.70 68.69
  C 609.20 66.55 612.92 59.13 605.66 54.74
  Q 603.52 53.45 599.21 51.71
  A 2.42 2.41 -70.1 0 1 597.82 48.73
  C 599.63 43.16 612.65 43.60 606.00 35.00
  Q 602.21 30.09 596.37 31.60
  Q 588.57 33.60 583.01 39.76
  Q 579.95 43.16 579.50 45.13
  C 577.64 53.25 582.71 55.74 589.24 58.41
  Q 592.67 59.81 596.31 60.72
  Q 597.71 61.07 598.13 62.12
  Z
  M 75.57 33.03
  C 61.46 33.25 55.25 42.94 56.74 56.16
  C 58.20 69.12 72.05 71.09 82.13 68.88
  C 86.81 67.86 91.11 64.90 92.43 60.45
  Q 94.41 53.77 92.84 46.60
  Q 89.81 32.81 75.57 33.03
  Z
  M 117.69 36.41
  Q 114.23 32.92 107.47 34.30
  C 104.87 34.83 103.42 35.86 103.01 38.77
  Q 100.86 53.82 101.78 65.49
  Q 101.93 67.36 103.71 67.83
  Q 110.40 69.63 117.06 67.54
  Q 119.29 66.84 118.96 64.30
  Q 117.83 55.47 117.92 45.00
  Q 117.93 44.46 118.35 44.13
  C 120.24 42.66 124.31 40.73 126.63 41.85
  C 131.54 44.22 128.87 62.51 128.03 67.54
  Q 127.78 69.01 129.41 69.91
  C 132.50 71.63 139.50 72.79 139.87 67.54
  Q 140.61 56.96 138.67 44.83
  C 137.92 40.10 136.64 35.31 131.79 33.46
  C 128.64 32.26 123.75 33.77 120.90 35.40
  Q 119.30 36.32 118.54 36.60
  Q 118.05 36.78 117.69 36.41
  Z
  M 253.82 64.45
  L 253.95 68.32
  A 1.95 1.95 0.0 0 0 255.97 70.20
  L 260.51 70.05
  A 2.10 2.09 -87.6 0 0 262.52 68.20
  Q 263.96 55.98 262.14 42.63
  Q 261.31 36.51 255.58 34.47
  Q 247.42 31.57 239.31 34.30
  C 228.28 38.02 225.61 49.19 226.67 59.72
  C 227.11 64.18 229.13 67.76 233.38 68.86
  Q 240.69 70.74 247.89 67.33
  Q 248.28 67.15 250.60 65.66
  Q 252.57 64.40 253.42 64.16
  Q 253.81 64.04 253.82 64.45
  Z
  M 408.28 64.60
  L 407.94 67.92
  A 1.73 1.71 13.8 0 0 409.03 69.70
  Q 412.15 70.92 415.83 69.73
  Q 416.32 69.58 416.45 69.09
  Q 417.00 67.11 417.22 63.76
  Q 417.69 56.35 417.01 48.02
  C 416.70 44.17 416.09 38.08 412.96 36.15
  Q 407.26 32.64 400.36 33.03
  C 384.83 33.91 379.48 45.65 380.76 59.48
  C 381.35 65.81 384.57 68.86 390.97 69.44
  C 397.43 70.03 402.21 67.62 407.38 64.07
  Q 408.40 63.36 408.28 64.60
  Z
  M 524.05 44.95
  C 520.81 33.50 509.93 31.01 499.76 34.27
  C 494.49 35.95 490.76 39.62 489.29 44.80
  C 486.92 53.20 487.49 64.18 496.95 67.86
  C 504.16 70.67 516.57 70.77 521.95 64.17
  C 525.88 59.33 525.73 50.88 524.05 44.95
  Z
  M 549.16 36.41
  Q 543.49 31.82 536.07 35.41
  Q 534.97 35.94 534.75 37.26
  Q 532.43 51.08 533.02 64.70
  Q 533.13 67.29 535.43 67.90
  Q 542.10 69.68 548.95 67.37
  A 2.12 2.11 -11.7 0 0 550.38 65.20
  Q 549.68 56.75 549.36 48.32
  C 549.32 47.14 549.20 44.88 550.00 43.94
  Q 550.29 43.59 551.66 42.94
  Q 555.08 41.33 556.49 41.47
  C 559.57 41.79 560.55 44.88 560.67 47.53
  Q 561.17 58.10 559.40 67.64
  A 1.81 1.81 0.0 0 0 560.14 69.46
  Q 564.09 72.20 568.69 70.93
  Q 570.85 70.34 571.02 68.79
  Q 572.16 58.24 570.17 45.28
  C 569.12 38.48 566.79 31.98 558.52 33.22
  C 555.30 33.70 552.57 35.39 550.05 36.52
  Q 549.56 36.74 549.16 36.41
  Z
  M 336.71 64.32
  L 336.32 68.09
  A 1.87 1.87 0.0 0 0 337.83 70.11
  Q 340.69 70.63 343.83 69.69
  A 0.93 0.93 0.0 0 0 344.46 69.01
  Q 344.88 67.03 344.93 65.98
  Q 345.47 55.49 344.97 45.26
  Q 344.75 40.71 344.12 36.95
  Q 343.59 33.81 340.29 33.95
  Q 339.79 33.97 337.19 34.25
  Q 334.01 34.59 334.55 37.75
  Q 335.53 43.44 336.28 54.50
  Q 336.40 56.37 335.52 57.22
  Q 331.98 60.62 327.48 60.82
  A 2.54 2.53 85.2 0 1 324.86 58.60
  C 324.12 52.85 324.92 47.75 325.99 40.76
  C 326.22 39.25 325.78 37.75 324.17 37.05
  Q 318.35 34.56 311.79 36.47
  C 310.38 36.88 310.16 37.81 309.89 39.12
  Q 307.49 51.02 308.75 60.55
  Q 309.56 66.64 314.20 68.37
  C 321.72 71.18 329.45 68.60 335.99 63.90
  A 0.46 0.46 0.0 0 1 336.71 64.32
  Z
  M 478.94 57.25
  Q 478.37 52.66 478.87 42.38
  Q 478.94 40.90 478.71 40.24
  C 477.28 36.21 465.62 36.44 464.80 40.34
  Q 462.22 52.44 462.75 64.77
  C 462.81 66.19 463.75 67.37 465.04 67.76
  Q 471.53 69.71 478.09 67.55
  Q 479.81 66.98 479.70 65.18
  Q 479.51 61.91 478.94 57.25
  Z
  M 639.71 62.89
  A 8.26 8.26 0.0 0 0 631.45 54.63
  A 8.26 8.26 0.0 0 0 623.19 62.89
  A 8.26 8.26 0.0 0 0 631.45 71.15
  A 8.26 8.26 0.0 0 0 639.71 62.89
  Z"
/>
<circle fill="#000000" cx="472.44" cy="24.33" r="8.71"/>
<path fill="#000000" d="
  M 357.78 27.50
  Q 358.42 22.00 358.64 20.63
  C 358.93 18.81 359.19 17.85 360.90 17.21
  Q 364.73 15.77 369.44 17.15
  Q 371.72 17.83 371.61 20.30
  Q 370.47 45.08 371.77 68.76
  Q 371.86 70.39 370.02 71.01
  Q 363.69 73.16 357.54 71.26
  C 356.18 70.84 355.36 69.79 355.30 68.29
  Q 355.14 63.77 355.29 59.25
  Q 355.76 44.89 357.78 27.50
  Z"
/>
<path fill="#000000" d="
  M 640.91 23.12
  L 638.62 45.41
  A 4.75 4.75 0.0 0 1 633.74 49.68
  L 629.23 49.53
  A 4.75 4.75 0.0 0 1 624.64 44.95
  L 623.88 22.75
  A 4.75 4.75 0.0 0 1 628.66 17.84
  L 636.21 17.89
  A 4.75 4.75 0.0 0 1 640.91 23.12
  Z"
/>
<path fill="#000000" d="
  M 292.18 33.74
  L 301.19 33.43
  Q 303.31 33.36 303.36 35.48
  L 303.44 38.59
  Q 303.51 41.47 300.63 41.57
  L 292.31 41.85
  A 0.53 0.52 -0.6 0 0 291.80 42.36
  Q 291.61 55.79 294.08 68.39
  A 2.16 2.16 0.0 0 1 292.66 70.85
  Q 285.71 73.26 278.81 71.26
  Q 277.61 70.91 276.94 69.79
  Q 276.51 69.06 276.48 67.60
  Q 276.24 56.82 277.58 45.50
  A 0.53 0.53 0.0 0 0 276.92 44.92
  L 271.46 46.33
  Q 270.94 46.46 270.66 45.99
  Q 269.25 43.54 269.57 40.50
  C 269.79 38.39 270.99 37.94 272.96 37.46
  Q 275.13 36.92 278.01 36.30
  Q 278.53 36.18 278.58 35.64
  Q 279.07 29.91 280.28 24.02
  C 280.77 21.63 281.23 20.63 283.62 20.24
  Q 288.02 19.53 291.30 21.02
  A 2.41 2.40 -75.0 0 1 292.70 23.45
  L 291.70 33.22
  Q 291.64 33.76 292.18 33.74
  Z"
/>
<path fill="#000000" d="
  M 446.40 33.72
  L 455.34 33.41
  Q 457.25 33.35 457.32 35.26
  L 457.43 38.76
  Q 457.53 41.44 454.86 41.53
  L 446.68 41.80
  A 0.87 0.86 89.3 0 0 445.85 42.66
  Q 445.74 56.14 448.03 68.51
  A 2.09 2.09 0.0 0 1 446.64 70.87
  Q 439.52 73.27 432.89 71.25
  Q 431.54 70.83 430.91 69.88
  Q 430.52 69.28 430.48 67.61
  Q 430.21 56.90 431.59 45.37
  A 0.52 0.52 0.0 0 0 430.89 44.83
  Q 428.29 45.83 425.25 46.26
  A 0.71 0.71 0.0 0 1 424.51 45.85
  C 423.52 43.63 422.45 38.44 425.94 37.66
  Q 430.86 36.56 432.16 36.24
  Q 432.55 36.15 432.59 35.74
  Q 433.25 28.57 434.73 22.08
  A 1.70 1.68 85.6 0 1 435.73 20.90
  Q 440.46 18.97 445.38 21.10
  Q 446.66 21.66 446.51 23.36
  Q 446.41 24.57 446.41 24.63
  Q 446.16 31.39 446.00 33.30
  Q 445.97 33.73 446.40 33.72
  Z"
/>
<path fill="#000000" d="
  M 31.21 46.18
  C 24.58 52.35 29.03 60.55 37.82 59.20
  Q 41.64 58.61 46.58 56.15
  Q 49.19 54.85 50.47 57.50
  L 51.06 58.71
  Q 52.32 61.32 49.91 62.96
  Q 38.34 70.79 25.76 67.96
  Q 15.41 65.62 11.78 55.85
  C 8.22 46.27 14.14 35.79 21.71 29.71
  C 26.28 26.04 34.62 21.72 40.12 25.32
  Q 44.06 27.90 45.62 32.13
  C 46.97 35.80 44.84 37.45 41.71 39.07
  Q 35.23 42.43 31.21 46.18
  Z"
/>
<path fill="#000000" d="
  M 208.53 38.78
  A 0.35 0.35 0.0 0 0 209.11 39.03
  Q 213.84 34.71 217.03 30.53
  Q 219.23 27.64 221.86 30.16
  L 222.98 31.23
  Q 225.55 33.70 223.23 36.28
  Q 217.17 43.02 210.08 48.10
  Q 209.66 48.40 209.69 48.91
  Q 210.42 62.87 210.02 67.18
  Q 209.86 68.85 207.48 69.72
  Q 201.78 71.82 195.60 69.70
  C 193.92 69.12 193.17 68.35 193.32 66.45
  Q 194.39 53.52 194.39 53.51
  Q 194.98 43.91 194.33 32.94
  A 1.57 1.55 -17.6 0 1 195.07 31.53
  C 197.89 29.80 203.52 28.64 206.67 30.89
  C 208.33 32.07 208.50 36.74 208.53 38.78
  Z"
/>
<path fill="#000000" d="
  M 175.25 60.57
  A 0.25 0.25 0.0 0 0 174.87 60.33
  Q 165.82 65.77 155.18 63.89
  C 147.05 62.45 146.81 52.41 148.11 45.59
  Q 150.97 30.67 166.91 29.73
  C 172.39 29.41 179.76 30.50 182.20 35.79
  C 183.61 38.86 183.71 42.70 184.00 45.80
  Q 185.10 57.54 182.64 68.58
  Q 180.33 78.90 170.04 79.18
  Q 163.85 79.35 157.04 76.23
  Q 154.48 75.06 154.03 74.13
  Q 153.21 72.41 154.49 69.93
  A 1.66 1.65 22.1 0 1 156.44 69.11
  Q 157.87 69.54 163.04 71.22
  Q 163.45 71.36 166.98 71.52
  Q 169.75 71.65 172.04 70.03
  C 174.66 68.17 174.96 63.04 175.25 60.57
  Z
  M 166.07 55.28
  L 171.83 55.39
  A 2.52 2.52 0.0 0 0 174.40 52.92
  L 174.54 45.43
  A 7.47 4.49 -88.9 0 0 170.20 37.88
  L 168.38 37.84
  A 7.47 4.49 -88.9 0 0 163.75 45.23
  L 163.60 52.72
  A 2.52 2.52 0.0 0 0 166.07 55.28
  Z"
/>
<path fill="#000000" d="
  M 598.13 62.12
  Q 597.71 61.07 596.31 60.72
  Q 592.67 59.81 589.24 58.41
  C 582.71 55.74 577.64 53.25 579.50 45.13
  Q 579.95 43.16 583.01 39.76
  Q 588.57 33.60 596.37 31.60
  Q 602.21 30.09 606.00 35.00
  C 612.65 43.60 599.63 43.16 597.82 48.73
  A 2.42 2.41 -70.1 0 0 599.21 51.71
  Q 603.52 53.45 605.66 54.74
  C 612.92 59.13 609.20 66.55 602.70 68.69
  Q 595.86 70.94 588.39 68.94
  Q 585.56 68.18 584.14 66.96
  Q 583.71 66.59 583.78 66.03
  Q 583.99 64.19 585.52 62.98
  Q 585.95 62.64 586.47 62.84
  C 589.77 64.18 593.67 65.43 597.22 64.15
  A 1.55 1.54 69.3 0 0 598.13 62.12
  Z"
/>
<path fill="#000000" d="
  M 56.74 56.16
  C 55.25 42.94 61.46 33.25 75.57 33.03
  Q 89.81 32.81 92.84 46.60
  Q 94.41 53.77 92.43 60.45
  C 91.11 64.90 86.81 67.86 82.13 68.88
  C 72.05 71.09 58.20 69.12 56.74 56.16
  Z
  M 79.2386 62.4378
  A 11.01 5.79 87.3 0 0 84.5036 51.1673
  A 11.01 5.79 87.3 0 0 78.2014 40.4422
  A 11.01 5.79 87.3 0 0 72.9364 51.7127
  A 11.01 5.79 87.3 0 0 79.2386 62.4378
  Z"
/>
<path fill="#000000" d="
  M 118.54 36.60
  Q 119.30 36.32 120.90 35.40
  C 123.75 33.77 128.64 32.26 131.79 33.46
  C 136.64 35.31 137.92 40.10 138.67 44.83
  Q 140.61 56.96 139.87 67.54
  C 139.50 72.79 132.50 71.63 129.41 69.91
  Q 127.78 69.01 128.03 67.54
  C 128.87 62.51 131.54 44.22 126.63 41.85
  C 124.31 40.73 120.24 42.66 118.35 44.13
  Q 117.93 44.46 117.92 45.00
  Q 117.83 55.47 118.96 64.30
  Q 119.29 66.84 117.06 67.54
  Q 110.40 69.63 103.71 67.83
  Q 101.93 67.36 101.78 65.49
  Q 100.86 53.82 103.01 38.77
  C 103.42 35.86 104.87 34.83 107.47 34.30
  Q 114.23 32.92 117.69 36.41
  Q 118.05 36.78 118.54 36.60
  Z"
/>
<path fill="#000000" d="
  M 253.42 64.16
  Q 252.57 64.40 250.60 65.66
  Q 248.28 67.15 247.89 67.33
  Q 240.69 70.74 233.38 68.86
  C 229.13 67.76 227.11 64.18 226.67 59.72
  C 225.61 49.19 228.28 38.02 239.31 34.30
  Q 247.42 31.57 255.58 34.47
  Q 261.31 36.51 262.14 42.63
  Q 263.96 55.98 262.52 68.20
  A 2.10 2.09 -87.6 0 1 260.51 70.05
  L 255.97 70.20
  A 1.95 1.95 0.0 0 1 253.95 68.32
  L 253.82 64.45
  Q 253.81 64.04 253.42 64.16
  Z
  M 251.55 58.58
  Q 253.45 57.19 253.51 55.80
  Q 253.73 50.40 252.76 44.62
  Q 252.34 42.17 250.24 41.60
  C 246.17 40.49 244.09 42.42 243.24 46.30
  Q 241.86 52.53 242.88 58.70
  A 2.48 2.47 -4.5 0 0 245.31 60.77
  Q 248.52 60.79 251.55 58.58
  Z"
/>
<path fill="#000000" d="
  M 408.28 64.60
  Q 408.40 63.36 407.38 64.07
  C 402.21 67.62 397.43 70.03 390.97 69.44
  C 384.57 68.86 381.35 65.81 380.76 59.48
  C 379.48 45.65 384.83 33.91 400.36 33.03
  Q 407.26 32.64 412.96 36.15
  C 416.09 38.08 416.70 44.17 417.01 48.02
  Q 417.69 56.35 417.22 63.76
  Q 417.00 67.11 416.45 69.09
  Q 416.32 69.58 415.83 69.73
  Q 412.15 70.92 409.03 69.70
  A 1.73 1.71 13.8 0 1 407.94 67.92
  L 408.28 64.60
  Z
  M 405.89 58.42
  Q 407.78 56.98 407.86 55.75
  Q 408.10 51.66 406.72 44.06
  Q 406.35 42.08 404.68 41.62
  C 401.88 40.84 398.80 41.50 397.89 44.58
  C 396.80 48.27 395.38 57.56 398.12 60.33
  A 1.43 1.40 69.9 0 0 398.98 60.74
  Q 402.44 61.03 405.89 58.42
  Z"
/>
<path fill="#000000" d="
  M 499.76 34.27
  C 509.93 31.01 520.81 33.50 524.05 44.95
  C 525.73 50.88 525.88 59.33 521.95 64.17
  C 516.57 70.77 504.16 70.67 496.95 67.86
  C 487.49 64.18 486.92 53.20 489.29 44.80
  C 490.76 39.62 494.49 35.95 499.76 34.27
  Z
  M 504.85 51.69
  Q 505.35 62.35 510.83 62.09
  Q 516.31 61.83 515.80 51.17
  Q 515.30 40.51 509.82 40.77
  Q 504.34 41.03 504.85 51.69
  Z"
/>
<path fill="#000000" d="
  M 550.05 36.52
  C 552.57 35.39 555.30 33.70 558.52 33.22
  C 566.79 31.98 569.12 38.48 570.17 45.28
  Q 572.16 58.24 571.02 68.79
  Q 570.85 70.34 568.69 70.93
  Q 564.09 72.20 560.14 69.46
  A 1.81 1.81 0.0 0 1 559.40 67.64
  Q 561.17 58.10 560.67 47.53
  C 560.55 44.88 559.57 41.79 556.49 41.47
  Q 555.08 41.33 551.66 42.94
  Q 550.29 43.59 550.00 43.94
  C 549.20 44.88 549.32 47.14 549.36 48.32
  Q 549.68 56.75 550.38 65.20
  A 2.12 2.11 -11.7 0 1 548.95 67.37
  Q 542.10 69.68 535.43 67.90
  Q 533.13 67.29 533.02 64.70
  Q 532.43 51.08 534.75 37.26
  Q 534.97 35.94 536.07 35.41
  Q 543.49 31.82 549.16 36.41
  Q 549.56 36.74 550.05 36.52
  Z"
/>
<path fill="#000000" d="
  M 336.71 64.32
  A 0.46 0.46 0.0 0 0 335.99 63.90
  C 329.45 68.60 321.72 71.18 314.20 68.37
  Q 309.56 66.64 308.75 60.55
  Q 307.49 51.02 309.89 39.12
  C 310.16 37.81 310.38 36.88 311.79 36.47
  Q 318.35 34.56 324.17 37.05
  C 325.78 37.75 326.22 39.25 325.99 40.76
  C 324.92 47.75 324.12 52.85 324.86 58.60
  A 2.54 2.53 85.2 0 0 327.48 60.82
  Q 331.98 60.62 335.52 57.22
  Q 336.40 56.37 336.28 54.50
  Q 335.53 43.44 334.55 37.75
  Q 334.01 34.59 337.19 34.25
  Q 339.79 33.97 340.29 33.95
  Q 343.59 33.81 344.12 36.95
  Q 344.75 40.71 344.97 45.26
  Q 345.47 55.49 344.93 65.98
  Q 344.88 67.03 344.46 69.01
  A 0.93 0.93 0.0 0 1 343.83 69.69
  Q 340.69 70.63 337.83 70.11
  A 1.87 1.87 0.0 0 1 336.32 68.09
  L 336.71 64.32
  Z"
/>
<path fill="#000000" d="
  M 478.94 57.25
  Q 479.51 61.91 479.70 65.18
  Q 479.81 66.98 478.09 67.55
  Q 471.53 69.71 465.04 67.76
  C 463.75 67.37 462.81 66.19 462.75 64.77
  Q 462.22 52.44 464.80 40.34
  C 465.62 36.44 477.28 36.21 478.71 40.24
  Q 478.94 40.90 478.87 42.38
  Q 478.37 52.66 478.94 57.25
  Z"
/>
<path fill="#ffffff" d="
  M 166.07 55.28
  A 2.52 2.52 0.0 0 1 163.60 52.72
  L 163.75 45.23
  A 7.47 4.49 -88.9 0 1 168.38 37.84
  L 170.20 37.88
  A 7.47 4.49 -88.9 0 1 174.54 45.43
  L 174.40 52.92
  A 2.52 2.52 0.0 0 1 171.83 55.39
  L 166.07 55.28
  Z"
/>
<ellipse fill="#ffffff" cx="0.00" cy="0.00" transform="translate(78.72,51.44) rotate(87.3)" rx="11.01" ry="5.79"/>
<path fill="#ffffff" d="
  M 509.82 40.77
  Q 515.30 40.51 515.80 51.17
  Q 516.31 61.83 510.83 62.09
  Q 505.35 62.35 504.85 51.69
  Q 504.34 41.03 509.82 40.77
  Z"
/>
<path fill="#ffffff" d="
  M 251.55 58.58
  Q 248.52 60.79 245.31 60.77
  A 2.48 2.47 -4.5 0 1 242.88 58.70
  Q 241.86 52.53 243.24 46.30
  C 244.09 42.42 246.17 40.49 250.24 41.60
  Q 252.34 42.17 252.76 44.62
  Q 253.73 50.40 253.51 55.80
  Q 253.45 57.19 251.55 58.58
  Z"
/>
<path fill="#ffffff" d="
  M 405.89 58.42
  Q 402.44 61.03 398.98 60.74
  A 1.43 1.40 69.9 0 1 398.12 60.33
  C 395.38 57.56 396.80 48.27 397.89 44.58
  C 398.80 41.50 401.88 40.84 404.68 41.62
  Q 406.35 42.08 406.72 44.06
  Q 408.10 51.66 407.86 55.75
  Q 407.78 56.98 405.89 58.42
  Z"
/>
<circle fill="#000000" cx="631.45" cy="62.89" r="8.26"/>
</svg>
