<?xml version="1.0" encoding="UTF-8" standalone="no"?>
<!DOCTYPE svg PUBLIC "-//W3C//DTD SVG 1.1//EN" "http://www.w3.org/Graphics/SVG/1.1/DTD/svg11.dtd">
<svg xmlns="http://www.w3.org/2000/svg" version="1.1" viewBox="0.00 0.00 259.00 95.00">
<g stroke-width="2.00" fill="none" stroke-linecap="butt">
<path stroke="#808080" vector-effect="non-scaling-stroke" d="
  M 84.26 25.34
  A 8.02 8.02 0.0 0 0 76.24 17.32
  A 8.02 8.02 0.0 0 0 68.22 25.34
  A 8.02 8.02 0.0 0 0 76.24 33.36
  A 8.02 8.02 0.0 0 0 84.26 25.34"
/>
<path stroke="#808080" vector-effect="non-scaling-stroke" d="
  M 39.92 35.39
  Q 38.01 51.68 38.07 65.19
  Q 38.09 68.03 40.33 68.66
  Q 44.47 69.82 47.97 68.21
  Q 48.82 67.82 48.78 66.89
  Q 48.05 50.17 49.15 35.29
  A 0.72 0.71 -85.7 0 1 49.92 34.62
  Q 54.22 34.96 58.18 34.96
  C 60.38 34.96 61.08 34.03 61.60 32.12
  Q 62.47 28.98 62.28 26.00
  Q 61.99 21.48 57.51 20.98
  Q 43.41 19.41 29.23 19.80
  Q 26.05 19.89 24.91 23.38
  Q 22.98 29.33 25.23 34.35
  A 1.86 1.86 0.0 0 0 27.01 35.44
  L 39.43 34.86
  A 0.48 0.47 2.6 0 1 39.92 35.39"
/>
<path stroke="#808080" vector-effect="non-scaling-stroke" d="
  M 122.83 37.65
  Q 118.07 30.55 110.22 35.01
  Q 107.56 36.52 107.23 36.69
  Q 106.78 36.92 106.49 36.65
  C 105.75 35.94 105.19 35.06 104.14 34.78
  Q 99.14 33.42 94.99 35.27
  Q 93.40 35.98 93.15 37.69
  Q 91.28 50.80 91.63 61.79
  Q 91.68 63.33 92.23 64.17
  C 93.89 66.72 101.32 66.20 104.64 65.59
  C 106.85 65.19 107.94 64.48 107.69 62.03
  Q 106.76 53.04 106.64 46.32
  Q 106.56 41.93 110.92 41.42
  Q 111.11 41.40 111.19 41.40
  Q 115.65 40.99 115.99 45.46
  Q 116.67 54.50 114.76 61.97
  A 1.18 1.18 0.0 0 0 115.41 63.33
  Q 119.84 65.37 124.29 63.99
  A 1.68 1.67 85.8 0 0 125.45 62.64
  C 126.32 57.06 125.80 50.09 124.88 44.31
  Q 124.80 43.80 125.20 43.48
  Q 127.95 41.37 129.58 41.23
  Q 134.30 40.82 134.56 45.79
  Q 135.06 55.50 132.32 65.06
  A 1.97 1.97 0.0 0 0 133.28 67.33
  C 135.55 68.55 142.82 69.97 143.33 65.83
  Q 144.83 53.57 143.35 42.74
  Q 142.81 38.81 140.46 36.03
  C 135.83 30.56 128.36 34.56 123.92 37.84
  A 0.77 0.76 54.6 0 1 122.83 37.65"
/>
<path stroke="#808080" vector-effect="non-scaling-stroke" d="
  M 167.79 55.63
  C 174.71 54.39 182.50 52.00 181.09 43.43
  C 179.55 34.02 171.49 32.36 163.20 33.93
  Q 156.59 35.18 153.28 40.83
  C 150.47 45.61 150.51 53.78 152.69 58.75
  Q 155.40 64.92 161.93 66.37
  Q 170.70 68.31 180.00 63.16
  C 182.18 61.96 182.60 60.22 181.20 58.26
  Q 180.56 57.37 179.50 57.68
  L 172.49 59.74
  A 4.40 4.38 -32.8 0 1 168.38 58.86
  L 167.18 57.84
  Q 165.16 56.11 167.79 55.63"
/>
<path stroke="#808080" vector-effect="non-scaling-stroke" d="
  M 228.21 38.69
  A 5.27 5.27 0.0 0 0 222.94 33.42
  A 5.27 5.27 0.0 0 0 217.67 38.69
  A 5.27 5.27 0.0 0 0 222.94 43.96
  A 5.27 5.27 0.0 0 0 228.21 38.69"
/>
<path stroke="#808080" vector-effect="non-scaling-stroke" d="
  M 82.21 56.00
  Q 81.76 52.01 82.17 41.69
  C 82.38 36.53 74.98 36.98 71.52 37.87
  C 69.84 38.31 69.25 39.64 68.93 41.21
  Q 66.81 51.72 67.19 62.40
  C 67.24 63.77 68.29 64.89 69.51 65.28
  Q 75.51 67.21 81.65 64.93
  Q 83.03 64.42 82.94 62.96
  Q 82.87 61.90 82.21 56.00"
/>
<path stroke="#808080" vector-effect="non-scaling-stroke" d="
  M 219.6610 67.8276
  A 7.69 7.52 114.5 0 0 229.6929 63.9485
  A 7.69 7.52 114.5 0 0 226.0390 53.8324
  A 7.69 7.52 114.5 0 0 216.0071 57.7115
  A 7.69 7.52 114.5 0 0 219.6610 67.8276"
/>
<path stroke="#808080" vector-effect="non-scaling-stroke" d="
  M 172.63 48.39
  C 175.61 46.94 173.93 40.23 170.47 40.47
  Q 166.45 40.76 165.99 45.05
  Q 165.58 48.92 165.57 50.04
  Q 165.57 50.56 166.08 50.46
  Q 169.81 49.76 172.63 48.39"
/>
</g>
<path fill="#ffffff" fill-opacity="0" d="
  M 259.00 0.00
  L 259.00 95.00
  L 0.00 95.00
  L 0.00 0.00
  L 259.00 0.00
  Z
  M 84.26 25.34
  A 8.02 8.02 0.0 0 0 76.24 17.32
  A 8.02 8.02 0.0 0 0 68.22 25.34
  A 8.02 8.02 0.0 0 0 76.24 33.36
  A 8.02 8.02 0.0 0 0 84.26 25.34
  Z
  M 39.92 35.39
  Q 38.01 51.68 38.07 65.19
  Q 38.09 68.03 40.33 68.66
  Q 44.47 69.82 47.97 68.21
  Q 48.82 67.82 48.78 66.89
  Q 48.05 50.17 49.15 35.29
  A 0.72 0.71 -85.7 0 1 49.92 34.62
  Q 54.22 34.96 58.18 34.96
  C 60.38 34.96 61.08 34.03 61.60 32.12
  Q 62.47 28.98 62.28 26.00
  Q 61.99 21.48 57.51 20.98
  Q 43.41 19.41 29.23 19.80
  Q 26.05 19.89 24.91 23.38
  Q 22.98 29.33 25.23 34.35
  A 1.86 1.86 0.0 0 0 27.01 35.44
  L 39.43 34.86
  A 0.48 0.47 2.6 0 1 39.92 35.39
  Z
  M 122.83 37.65
  Q 118.07 30.55 110.22 35.01
  Q 107.56 36.52 107.23 36.69
  Q 106.78 36.92 106.49 36.65
  C 105.75 35.94 105.19 35.06 104.14 34.78
  Q 99.14 33.42 94.99 35.27
  Q 93.40 35.98 93.15 37.69
  Q 91.28 50.80 91.63 61.79
  Q 91.68 63.33 92.23 64.17
  C 93.89 66.72 101.32 66.20 104.64 65.59
  C 106.85 65.19 107.94 64.48 107.69 62.03
  Q 106.76 53.04 106.64 46.32
  Q 106.56 41.93 110.92 41.42
  Q 111.11 41.40 111.19 41.40
  Q 115.65 40.99 115.99 45.46
  Q 116.67 54.50 114.76 61.97
  A 1.18 1.18 0.0 0 0 115.41 63.33
  Q 119.84 65.37 124.29 63.99
  A 1.68 1.67 85.8 0 0 125.45 62.64
  C 126.32 57.06 125.80 50.09 124.88 44.31
  Q 124.80 43.80 125.20 43.48
  Q 127.95 41.37 129.58 41.23
  Q 134.30 40.82 134.56 45.79
  Q 135.06 55.50 132.32 65.06
  A 1.97 1.97 0.0 0 0 133.28 67.33
  C 135.55 68.55 142.82 69.97 143.33 65.83
  Q 144.83 53.57 143.35 42.74
  Q 142.81 38.81 140.46 36.03
  C 135.83 30.56 128.36 34.56 123.92 37.84
  A 0.77 0.76 54.6 0 1 122.83 37.65
  Z
  M 167.79 55.63
  C 174.71 54.39 182.50 52.00 181.09 43.43
  C 179.55 34.02 171.49 32.36 163.20 33.93
  Q 156.59 35.18 153.28 40.83
  C 150.47 45.61 150.51 53.78 152.69 58.75
  Q 155.40 64.92 161.93 66.37
  Q 170.70 68.31 180.00 63.16
  C 182.18 61.96 182.60 60.22 181.20 58.26
  Q 180.56 57.37 179.50 57.68
  L 172.49 59.74
  A 4.40 4.38 -32.8 0 1 168.38 58.86
  L 167.18 57.84
  Q 165.16 56.11 167.79 55.63
  Z
  M 228.21 38.69
  A 5.27 5.27 0.0 0 0 222.94 33.42
  A 5.27 5.27 0.0 0 0 217.67 38.69
  A 5.27 5.27 0.0 0 0 222.94 43.96
  A 5.27 5.27 0.0 0 0 228.21 38.69
  Z
  M 82.21 56.00
  Q 81.76 52.01 82.17 41.69
  C 82.38 36.53 74.98 36.98 71.52 37.87
  C 69.84 38.31 69.25 39.64 68.93 41.21
  Q 66.81 51.72 67.19 62.40
  C 67.24 63.77 68.29 64.89 69.51 65.28
  Q 75.51 67.21 81.65 64.93
  Q 83.03 64.42 82.94 62.96
  Q 82.87 61.90 82.21 56.00
  Z
  M 219.6610 67.8276
  A 7.69 7.52 114.5 0 0 229.6929 63.9485
  A 7.69 7.52 114.5 0 0 226.0390 53.8324
  A 7.69 7.52 114.5 0 0 216.0071 57.7115
  A 7.69 7.52 114.5 0 0 219.6610 67.8276
  Z"
/>
<circle fill="#000000" cx="76.24" cy="25.34" r="8.02"/>
<path fill="#000000" d="
  M 39.92 35.39
  A 0.48 0.47 2.6 0 0 39.43 34.86
  L 27.01 35.44
  A 1.86 1.86 0.0 0 1 25.23 34.35
  Q 22.98 29.33 24.91 23.38
  Q 26.05 19.89 29.23 19.80
  Q 43.41 19.41 57.51 20.98
  Q 61.99 21.48 62.28 26.00
  Q 62.47 28.98 61.60 32.12
  C 61.08 34.03 60.38 34.96 58.18 34.96
  Q 54.22 34.96 49.92 34.62
  A 0.72 0.71 -85.7 0 0 49.15 35.29
  Q 48.05 50.17 48.78 66.89
  Q 48.82 67.82 47.97 68.21
  Q 44.47 69.82 40.33 68.66
  Q 38.09 68.03 38.07 65.19
  Q 38.01 51.68 39.92 35.39
  Z"
/>
<path fill="#000000" d="
  M 122.83 37.65
  A 0.77 0.76 54.6 0 0 123.92 37.84
  C 128.36 34.56 135.83 30.56 140.46 36.03
  Q 142.81 38.81 143.35 42.74
  Q 144.83 53.57 143.33 65.83
  C 142.82 69.97 135.55 68.55 133.28 67.33
  A 1.97 1.97 0.0 0 1 132.32 65.06
  Q 135.06 55.50 134.56 45.79
  Q 134.30 40.82 129.58 41.23
  Q 127.95 41.37 125.20 43.48
  Q 124.80 43.80 124.88 44.31
  C 125.80 50.09 126.32 57.06 125.45 62.64
  A 1.68 1.67 85.8 0 1 124.29 63.99
  Q 119.84 65.37 115.41 63.33
  A 1.18 1.18 0.0 0 1 114.76 61.97
  Q 116.67 54.50 115.99 45.46
  Q 115.65 40.99 111.19 41.40
  Q 111.11 41.40 110.92 41.42
  Q 106.56 41.93 106.64 46.32
  Q 106.76 53.04 107.69 62.03
  C 107.94 64.48 106.85 65.19 104.64 65.59
  C 101.32 66.20 93.89 66.72 92.23 64.17
  Q 91.68 63.33 91.63 61.79
  Q 91.28 50.80 93.15 37.69
  Q 93.40 35.98 94.99 35.27
  Q 99.14 33.42 104.14 34.78
  C 105.19 35.06 105.75 35.94 106.49 36.65
  Q 106.78 36.92 107.23 36.69
  Q 107.56 36.52 110.22 35.01
  Q 118.07 30.55 122.83 37.65
  Z"
/>
<path fill="#000000" d="
  M 167.79 55.63
  Q 165.16 56.11 167.18 57.84
  L 168.38 58.86
  A 4.40 4.38 -32.8 0 0 172.49 59.74
  L 179.50 57.68
  Q 180.56 57.37 181.20 58.26
  C 182.60 60.22 182.18 61.96 180.00 63.16
  Q 170.70 68.31 161.93 66.37
  Q 155.40 64.92 152.69 58.75
  C 150.51 53.78 150.47 45.61 153.28 40.83
  Q 156.59 35.18 163.20 33.93
  C 171.49 32.36 179.55 34.02 181.09 43.43
  C 182.50 52.00 174.71 54.39 167.79 55.63
  Z
  M 172.63 48.39
  C 175.61 46.94 173.93 40.23 170.47 40.47
  Q 166.45 40.76 165.99 45.05
  Q 165.58 48.92 165.57 50.04
  Q 165.57 50.56 166.08 50.46
  Q 169.81 49.76 172.63 48.39
  Z"
/>
<circle fill="#000000" cx="222.94" cy="38.69" r="5.27"/>
<path fill="#000000" d="
  M 82.21 56.00
  Q 82.87 61.90 82.94 62.96
  Q 83.03 64.42 81.65 64.93
  Q 75.51 67.21 69.51 65.28
  C 68.29 64.89 67.24 63.77 67.19 62.40
  Q 66.81 51.72 68.93 41.21
  C 69.25 39.64 69.84 38.31 71.52 37.87
  C 74.98 36.98 82.38 36.53 82.17 41.69
  Q 81.76 52.01 82.21 56.00
  Z"
/>
<path fill="#ffffff" d="
  M 170.47 40.47
  C 173.93 40.23 175.61 46.94 172.63 48.39
  Q 169.81 49.76 166.08 50.46
  Q 165.57 50.56 165.57 50.04
  Q 165.58 48.92 165.99 45.05
  Q 166.45 40.76 170.47 40.47
  Z"
/>
<ellipse fill="#000000" cx="0.00" cy="0.00" transform="translate(222.85,60.83) rotate(114.5)" rx="7.69" ry="7.52"/>
</svg>
