<?xml version="1.0" encoding="UTF-8" standalone="no"?>
<!DOCTYPE svg PUBLIC "-//W3C//DTD SVG 1.1//EN" "http://www.w3.org/Graphics/SVG/1.1/DTD/svg11.dtd">
<svg xmlns="http://www.w3.org/2000/svg" version="1.1" viewBox="0.00 0.00 192.00 198.00">
<g stroke-width="2.00" fill="none" stroke-linecap="butt">
<path stroke="#7a7a7b" vector-effect="non-scaling-stroke" d="
  M 179.26 97.86
  A 84.89 84.89 0.0 0 0 94.37 12.97
  A 84.89 84.89 0.0 0 0 9.48 97.86
  A 84.89 84.89 0.0 0 0 94.37 182.75
  A 84.89 84.89 0.0 0 0 179.26 97.86"
/>
<path stroke="#7a7a7b" vector-effect="non-scaling-stroke" d="
  M 81.68 111.14
  A 0.57 0.57 0.0 0 1 80.89 111.16
  L 52.71 85.38
  A 0.57 0.57 0.0 0 0 51.91 85.42
  L 41.17 97.12
  A 0.57 0.57 0.0 0 0 41.20 97.93
  L 81.42 134.72
  A 0.57 0.57 0.0 0 0 82.21 134.70
  L 147.42 69.51
  A 0.57 0.57 0.0 0 0 147.42 68.71
  L 136.17 57.44
  A 0.57 0.57 0.0 0 0 135.37 57.44
  L 81.68 111.14"
/>
</g>
<path fill="#f4f4f6" fill-opacity="0" d="
  M 192.00 0.00
  L 192.00 198.00
  L 0.00 198.00
  L 0.00 0.00
  L 192.00 0.00
  Z
  M 179.26 97.86
  A 84.89 84.89 0.0 0 0 94.37 12.97
  A 84.89 84.89 0.0 0 0 9.48 97.86
  A 84.89 84.89 0.0 0 0 94.37 182.75
  A 84.89 84.89 0.0 0 0 179.26 97.86
  Z"
/>
<path fill="#000000" d="
  M 179.26 97.86
  A 84.89 84.89 0.0 0 1 94.37 182.75
  A 84.89 84.89 0.0 0 1 9.48 97.86
  A 84.89 84.89 0.0 0 1 94.37 12.97
  A 84.89 84.89 0.0 0 1 179.26 97.86
  Z
  M 81.68 111.14
  A 0.57 0.57 0.0 0 1 80.89 111.16
  L 52.71 85.38
  A 0.57 0.57 0.0 0 0 51.91 85.42
  L 41.17 97.12
  A 0.57 0.57 0.0 0 0 41.20 97.93
  L 81.42 134.72
  A 0.57 0.57 0.0 0 0 82.21 134.70
  L 147.42 69.51
  A 0.57 0.57 0.0 0 0 147.42 68.71
  L 136.17 57.44
  A 0.57 0.57 0.0 0 0 135.37 57.44
  L 81.68 111.14
  Z"
/>
<path fill="#f4f4f6" fill-opacity="0" d="
  M 81.68 111.14
  L 135.37 57.44
  A 0.57 0.57 0.0 0 1 136.17 57.44
  L 147.42 68.71
  A 0.57 0.57 0.0 0 1 147.42 69.51
  L 82.21 134.70
  A 0.57 0.57 0.0 0 1 81.42 134.72
  L 41.20 97.93
  A 0.57 0.57 0.0 0 1 41.17 97.12
  L 51.91 85.42
  A 0.57 0.57 0.0 0 1 52.71 85.38
  L 80.89 111.16
  A 0.57 0.57 0.0 0 0 81.68 111.14
  Z"
/>
</svg>
