<?xml version="1.0" encoding="UTF-8" standalone="no"?>
<!DOCTYPE svg PUBLIC "-//W3C//DTD SVG 1.1//EN" "http://www.w3.org/Graphics/SVG/1.1/DTD/svg11.dtd">
<svg xmlns="http://www.w3.org/2000/svg" version="1.1" viewBox="0.00 0.00 208.00 188.00">
<g stroke-width="2.00" fill="none" stroke-linecap="butt">
<path stroke="#7a7a7b" vector-effect="non-scaling-stroke" d="
  M 188.30 96.42
  A 81.88 81.88 0.0 0 0 106.42 14.54
  A 81.88 81.88 0.0 0 0 24.54 96.42
  A 81.88 81.88 0.0 0 0 106.42 178.30
  A 81.88 81.88 0.0 0 0 188.30 96.42"
/>
<path stroke="#7a7a7b" vector-effect="non-scaling-stroke" d="
  M 183.17 96.42
  A 76.75 76.75 0.0 0 0 106.42 19.67
  A 76.75 76.75 0.0 0 0 29.67 96.42
  A 76.75 76.75 0.0 0 0 106.42 173.17
  A 76.75 76.75 0.0 0 0 183.17 96.42"
/>
<path stroke="#7a7a7b" vector-effect="non-scaling-stroke" d="
  M 96.13 104.95
  A 0.57 0.57 0.0 0 1 95.30 105.00
  L 79.76 89.88
  A 0.57 0.57 0.0 0 0 78.94 89.90
  L 65.37 104.66
  A 0.57 0.57 0.0 0 0 65.39 105.46
  L 97.02 136.17
  A 0.57 0.57 0.0 0 0 97.85 136.12
  L 150.54 72.10
  A 0.57 0.57 0.0 0 0 150.47 71.31
  L 135.38 58.21
  A 0.57 0.57 0.0 0 0 134.57 58.28
  L 96.13 104.95"
/>
<path stroke="#7a7a7b" vector-effect="non-scaling-stroke" d="
  M 96.57 112.48
  A 0.62 0.62 0.0 0 1 95.66 112.53
  L 80.08 97.27
  A 0.62 0.62 0.0 0 0 79.20 97.29
  L 72.47 104.37
  A 0.62 0.62 0.0 0 0 72.49 105.24
  L 96.55 128.60
  A 0.62 0.62 0.0 0 0 97.46 128.55
  L 143.39 72.73
  A 0.62 0.62 0.0 0 0 143.31 71.86
  L 136.03 65.53
  A 0.62 0.62 0.0 0 0 135.15 65.60
  L 96.57 112.48"
/>
</g>
<path fill="#f4f4f6" fill-opacity="0" d="
  M 208.00 0.00
  L 208.00 188.00
  L 0.00 188.00
  L 0.00 0.00
  L 208.00 0.00
  Z
  M 188.30 96.42
  A 81.88 81.88 0.0 0 0 106.42 14.54
  A 81.88 81.88 0.0 0 0 24.54 96.42
  A 81.88 81.88 0.0 0 0 106.42 178.30
  A 81.88 81.88 0.0 0 0 188.30 96.42
  Z"
/>
<path fill="#000000" d="
  M 188.30 96.42
  A 81.88 81.88 0.0 0 1 106.42 178.30
  A 81.88 81.88 0.0 0 1 24.54 96.42
  A 81.88 81.88 0.0 0 1 106.42 14.54
  A 81.88 81.88 0.0 0 1 188.30 96.42
  Z
  M 183.17 96.42
  A 76.75 76.75 0.0 0 0 106.42 19.67
  A 76.75 76.75 0.0 0 0 29.67 96.42
  A 76.75 76.75 0.0 0 0 106.42 173.17
  A 76.75 76.75 0.0 0 0 183.17 96.42
  Z"
/>
<path fill="#f4f4f6" fill-opacity = "0" d="
  M 183.17 96.42
  A 76.75 76.75 0.0 0 1 106.42 173.17
  A 76.75 76.75 0.0 0 1 29.67 96.42
  A 76.75 76.75 0.0 0 1 106.42 19.67
  A 76.75 76.75 0.0 0 1 183.17 96.42
  Z
  M 96.13 104.95
  A 0.57 0.57 0.0 0 1 95.30 105.00
  L 79.76 89.88
  A 0.57 0.57 0.0 0 0 78.94 89.90
  L 65.37 104.66
  A 0.57 0.57 0.0 0 0 65.39 105.46
  L 97.02 136.17
  A 0.57 0.57 0.0 0 0 97.85 136.12
  L 150.54 72.10
  A 0.57 0.57 0.0 0 0 150.47 71.31
  L 135.38 58.21
  A 0.57 0.57 0.0 0 0 134.57 58.28
  L 96.13 104.95
  Z"
/>
<path fill="#000000" d="
  M 96.13 104.95
  L 134.57 58.28
  A 0.57 0.57 0.0 0 1 135.38 58.21
  L 150.47 71.31
  A 0.57 0.57 0.0 0 1 150.54 72.10
  L 97.85 136.12
  A 0.57 0.57 0.0 0 1 97.02 136.17
  L 65.39 105.46
  A 0.57 0.57 0.0 0 1 65.37 104.66
  L 78.94 89.90
  A 0.57 0.57 0.0 0 1 79.76 89.88
  L 95.30 105.00
  A 0.57 0.57 0.0 0 0 96.13 104.95
  Z
  M 96.57 112.48
  A 0.62 0.62 0.0 0 1 95.66 112.53
  L 80.08 97.27
  A 0.62 0.62 0.0 0 0 79.20 97.29
  L 72.47 104.37
  A 0.62 0.62 0.0 0 0 72.49 105.24
  L 96.55 128.60
  A 0.62 0.62 0.0 0 0 97.46 128.55
  L 143.39 72.73
  A 0.62 0.62 0.0 0 0 143.31 71.86
  L 136.03 65.53
  A 0.62 0.62 0.0 0 0 135.15 65.60
  L 96.57 112.48
  Z"
/>
<path fill="#f4f4f6" fill-opacity="0" d="
  M 96.57 112.48
  L 135.15 65.60
  A 0.62 0.62 0.0 0 1 136.03 65.53
  L 143.31 71.86
  A 0.62 0.62 0.0 0 1 143.39 72.73
  L 97.46 128.55
  A 0.62 0.62 0.0 0 1 96.55 128.60
  L 72.49 105.24
  A 0.62 0.62 0.0 0 1 72.47 104.37
  L 79.20 97.29
  A 0.62 0.62 0.0 0 1 80.08 97.27
  L 95.66 112.53
  A 0.62 0.62 0.0 0 0 96.57 112.48
  Z"
/>
</svg>
