<?xml version="1.0" encoding="UTF-8" standalone="no"?>
<!DOCTYPE svg PUBLIC "-//W3C//DTD SVG 1.1//EN" "http://www.w3.org/Graphics/SVG/1.1/DTD/svg11.dtd">
<svg xmlns="http://www.w3.org/2000/svg" version="1.1" viewBox="0.00 0.00 37.00 38.00">
<path stroke="#9d9d9d" stroke-width="2.00" fill="none" stroke-linecap="butt" vector-effect="non-scaling-stroke" d="
  M 33.28 18.29
  A 15.77 15.48 0.0 0 0 17.51 2.81
  A 15.77 15.48 0.0 0 0 1.74 18.29
  A 15.77 15.48 0.0 0 0 17.51 33.77
  A 15.77 15.48 0.0 0 0 33.28 18.29"
/>
<path fill="#ffffff" fill-opacity="0" d="
  M 37.00 0.00
  L 37.00 38.00
  L 0.00 38.00
  L 0.00 0.00
  L 37.00 0.00
  Z
  M 33.28 18.29
  A 15.77 15.48 0.0 0 0 17.51 2.81
  A 15.77 15.48 0.0 0 0 1.74 18.29
  A 15.77 15.48 0.0 0 0 17.51 33.77
  A 15.77 15.48 0.0 0 0 33.28 18.29
  Z"
/>
<ellipse fill="#634FD9"  cx="17.51" cy="18.29" rx="15.77" ry="15.48"/>
</svg>
