<?xml version="1.0" encoding="UTF-8" standalone="no"?>
<!DOCTYPE svg PUBLIC "-//W3C//DTD SVG 1.1//EN" "http://www.w3.org/Graphics/SVG/1.1/DTD/svg11.dtd">
<svg xmlns="http://www.w3.org/2000/svg" version="1.1" viewBox="0.00 0.00 281.00 275.00">
<path stroke="#8b8a8a" stroke-width="2.00" fill="none" stroke-linecap="butt" vector-effect="non-scaling-stroke" d="
  M 80.24 69.73
  Q 83.72 69.48 86.99 70.27
  C 96.27 72.51 104.17 76.91 112.09 82.18
  A 1.16 1.14 54.1 0 0 112.99 82.33
  Q 142.36 74.51 171.73 82.29
  Q 172.22 82.42 172.65 82.14
  Q 174.93 80.68 179.58 77.86
  Q 189.54 71.80 199.89 69.89
  Q 202.09 69.48 204.55 69.77
  Q 205.20 69.84 205.43 70.46
  Q 211.50 86.17 206.76 101.48
  Q 206.61 101.96 206.93 102.36
  Q 216.03 113.53 217.88 124.58
  Q 220.08 137.78 217.06 152.27
  Q 214.78 163.24 209.84 170.78
  C 199.76 186.20 182.63 191.89 164.73 193.81
  A 0.32 0.32 0.0 0 0 164.54 194.35
  C 171.27 201.29 172.29 209.85 172.24 220.06
  Q 172.14 243.49 171.99 248.44
  Q 171.77 256.00 179.16 255.41
  Q 180.23 255.32 181.75 254.76
  Q 215.58 242.13 236.36 215.35
  C 262.79 181.28 269.38 135.63 253.39 95.62
  Q 239.77 61.53 209.04 40.57
  Q 182.90 22.73 151.12 20.45
  Q 126.89 18.71 104.85 26.13
  C 80.78 34.24 59.69 49.63 45.07 70.34
  Q 22.21 102.70 22.59 142.92
  Q 22.68 152.78 24.61 162.81
  Q 30.55 193.63 49.46 216.86
  Q 71.25 243.61 103.59 254.91
  Q 108.97 256.79 111.49 253.04
  Q 112.75 251.17 112.61 246.33
  Q 112.44 240.85 112.42 227.84
  Q 112.42 227.28 111.86 227.36
  C 97.87 229.42 84.08 229.62 74.62 217.19
  Q 73.69 215.95 71.06 209.98
  Q 66.50 199.62 57.16 193.65
  Q 53.59 191.37 54.70 189.20
  A 1.39 1.38 -86.9 0 1 55.43 188.54
  C 62.18 185.84 70.24 190.60 74.80 195.56
  Q 75.82 196.67 78.86 201.20
  C 82.10 206.05 85.29 209.42 90.81 211.72
  C 97.62 214.56 105.55 213.34 112.30 210.43
  A 1.56 1.55 82.1 0 0 113.23 209.19
  Q 114.32 200.49 120.15 194.23
  A 0.24 0.23 -66.5 0 0 120.00 193.84
  Q 111.39 193.01 103.02 190.59
  C 86.35 185.79 74.25 175.24 69.22 158.11
  Q 65.01 143.75 66.31 129.51
  Q 67.72 114.16 77.75 102.71
  A 1.29 1.29 0.0 0 0 78.02 101.48
  Q 73.30 85.90 79.47 70.30
  Q 79.68 69.77 80.24 69.73"
/>
<path fill="#ffffff" fill-opacity="0" d="
  M 281.00 0.00
  L 281.00 275.00
  L 0.00 275.00
  L 0.00 0.00
  L 281.00 0.00
  Z
  M 80.24 69.73
  Q 83.72 69.48 86.99 70.27
  C 96.27 72.51 104.17 76.91 112.09 82.18
  A 1.16 1.14 54.1 0 0 112.99 82.33
  Q 142.36 74.51 171.73 82.29
  Q 172.22 82.42 172.65 82.14
  Q 174.93 80.68 179.58 77.86
  Q 189.54 71.80 199.89 69.89
  Q 202.09 69.48 204.55 69.77
  Q 205.20 69.84 205.43 70.46
  Q 211.50 86.17 206.76 101.48
  Q 206.61 101.96 206.93 102.36
  Q 216.03 113.53 217.88 124.58
  Q 220.08 137.78 217.06 152.27
  Q 214.78 163.24 209.84 170.78
  C 199.76 186.20 182.63 191.89 164.73 193.81
  A 0.32 0.32 0.0 0 0 164.54 194.35
  C 171.27 201.29 172.29 209.85 172.24 220.06
  Q 172.14 243.49 171.99 248.44
  Q 171.77 256.00 179.16 255.41
  Q 180.23 255.32 181.75 254.76
  Q 215.58 242.13 236.36 215.35
  C 262.79 181.28 269.38 135.63 253.39 95.62
  Q 239.77 61.53 209.04 40.57
  Q 182.90 22.73 151.12 20.45
  Q 126.89 18.71 104.85 26.13
  C 80.78 34.24 59.69 49.63 45.07 70.34
  Q 22.21 102.70 22.59 142.92
  Q 22.68 152.78 24.61 162.81
  Q 30.55 193.63 49.46 216.86
  Q 71.25 243.61 103.59 254.91
  Q 108.97 256.79 111.49 253.04
  Q 112.75 251.17 112.61 246.33
  Q 112.44 240.85 112.42 227.84
  Q 112.42 227.28 111.86 227.36
  C 97.87 229.42 84.08 229.62 74.62 217.19
  Q 73.69 215.95 71.06 209.98
  Q 66.50 199.62 57.16 193.65
  Q 53.59 191.37 54.70 189.20
  A 1.39 1.38 -86.9 0 1 55.43 188.54
  C 62.18 185.84 70.24 190.60 74.80 195.56
  Q 75.82 196.67 78.86 201.20
  C 82.10 206.05 85.29 209.42 90.81 211.72
  C 97.62 214.56 105.55 213.34 112.30 210.43
  A 1.56 1.55 82.1 0 0 113.23 209.19
  Q 114.32 200.49 120.15 194.23
  A 0.24 0.23 -66.5 0 0 120.00 193.84
  Q 111.39 193.01 103.02 190.59
  C 86.35 185.79 74.25 175.24 69.22 158.11
  Q 65.01 143.75 66.31 129.51
  Q 67.72 114.16 77.75 102.71
  A 1.29 1.29 0.0 0 0 78.02 101.48
  Q 73.30 85.90 79.47 70.30
  Q 79.68 69.77 80.24 69.73
  Z"
/>
<path fill="#171515" d="
  M 80.24 69.73
  Q 79.68 69.77 79.47 70.30
  Q 73.30 85.90 78.02 101.48
  A 1.29 1.29 0.0 0 1 77.75 102.71
  Q 67.72 114.16 66.31 129.51
  Q 65.01 143.75 69.22 158.11
  C 74.25 175.24 86.35 185.79 103.02 190.59
  Q 111.39 193.01 120.00 193.84
  A 0.24 0.23 -66.5 0 1 120.15 194.23
  Q 114.32 200.49 113.23 209.19
  A 1.56 1.55 82.1 0 1 112.30 210.43
  C 105.55 213.34 97.62 214.56 90.81 211.72
  C 85.29 209.42 82.10 206.05 78.86 201.20
  Q 75.82 196.67 74.80 195.56
  C 70.24 190.60 62.18 185.84 55.43 188.54
  A 1.39 1.38 -86.9 0 0 54.70 189.20
  Q 53.59 191.37 57.16 193.65
  Q 66.50 199.62 71.06 209.98
  Q 73.69 215.95 74.62 217.19
  C 84.08 229.62 97.87 229.42 111.86 227.36
  Q 112.42 227.28 112.42 227.84
  Q 112.44 240.85 112.61 246.33
  Q 112.75 251.17 111.49 253.04
  Q 108.97 256.79 103.59 254.91
  Q 71.25 243.61 49.46 216.86
  Q 30.55 193.63 24.61 162.81
  Q 22.68 152.78 22.59 142.92
  Q 22.21 102.70 45.07 70.34
  C 59.69 49.63 80.78 34.24 104.85 26.13
  Q 126.89 18.71 151.12 20.45
  Q 182.90 22.73 209.04 40.57
  Q 239.77 61.53 253.39 95.62
  C 269.38 135.63 262.79 181.28 236.36 215.35
  Q 215.58 242.13 181.75 254.76
  Q 180.23 255.32 179.16 255.41
  Q 171.77 256.00 171.99 248.44
  Q 172.14 243.49 172.24 220.06
  C 172.29 209.85 171.27 201.29 164.54 194.35
  A 0.32 0.32 0.0 0 1 164.73 193.81
  C 182.63 191.89 199.76 186.20 209.84 170.78
  Q 214.78 163.24 217.06 152.27
  Q 220.08 137.78 217.88 124.58
  Q 216.03 113.53 206.93 102.36
  Q 206.61 101.96 206.76 101.48
  Q 211.50 86.17 205.43 70.46
  Q 205.20 69.84 204.55 69.77
  Q 202.09 69.48 199.89 69.89
  Q 189.54 71.80 179.58 77.86
  Q 174.93 80.68 172.65 82.14
  Q 172.22 82.42 171.73 82.29
  Q 142.36 74.51 112.99 82.33
  A 1.16 1.14 54.1 0 1 112.09 82.18
  C 104.17 76.91 96.27 72.51 86.99 70.27
  Q 83.72 69.48 80.24 69.73
  Z"
/>
</svg>
