<?xml version="1.0" encoding="UTF-8" standalone="no"?>
<!DOCTYPE svg PUBLIC "-//W3C//DTD SVG 1.1//EN" "http://www.w3.org/Graphics/SVG/1.1/DTD/svg11.dtd">
<svg xmlns="http://www.w3.org/2000/svg" version="1.1" viewBox="0.00 0.00 189.00 71.00">
<g stroke-width="2.00" fill="none" stroke-linecap="butt">
<path stroke="#5b6e79" vector-effect="non-scaling-stroke" d="
  M 10.48 17.71
  Q 9.97 17.68 9.59 18.21
  Q 9.35 18.54 9.35 19.12
  Q 9.34 35.67 9.31 52.22
  Q 9.30 53.25 10.42 53.21"
/>
<path stroke="#808080" vector-effect="non-scaling-stroke" d="
  M 10.42 53.21
  Q 11.15 53.84 12.00 53.85
  Q 24.49 54.12 41.15 53.52"
/>
<path stroke="#5e433c" vector-effect="non-scaling-stroke" d="
  M 41.15 53.52
  Q 42.48 42.67 42.04 32.00
  Q 41.99 30.84 40.94 30.37
  Q 40.55 30.19 39.28 30.39"
/>
<path stroke="#808080" vector-effect="non-scaling-stroke" d="
  M 39.28 30.39
  L 30.70 30.36"
/>
<path stroke="#6c5c3a" vector-effect="non-scaling-stroke" d="
  M 30.70 30.36
  Q 29.91 30.34 29.26 29.79
  Q 28.84 29.42 28.84 28.86
  L 28.84 18.26
  Q 28.84 17.70 28.32 17.50
  Q 26.98 16.99 25.22 17.59"
/>
<path stroke="#808080" vector-effect="non-scaling-stroke" d="
  M 25.22 17.59
  L 10.48 17.71"
/>
<path stroke="#b9a987" vector-effect="non-scaling-stroke" d="
  M 25.22 17.59
  Q 27.59 17.31 27.57 18.72
  Q 27.49 22.69 27.38 26.59
  Q 27.33 28.47 27.79 29.27
  Q 28.63 30.74 30.70 30.36"
/>
<path stroke="#ab9089" vector-effect="non-scaling-stroke" d="
  M 39.28 30.39
  Q 39.88 30.28 40.32 30.44
  Q 40.81 30.61 40.82 31.14
  L 41.15 53.52"
/>
<path stroke="#a8bbc6" vector-effect="non-scaling-stroke" d="
  M 10.42 53.21
  L 10.48 17.71"
/>
<path stroke="#4a4e58" vector-effect="non-scaling-stroke" d="
  M 30.39 18.58
  Q 28.69 24.18 30.43 27.90"
/>
<path stroke="#808080" vector-effect="non-scaling-stroke" d="
  M 30.43 27.90
  L 39.63 27.89
  Q 40.16 27.89 39.91 27.42
  Q 39.82 27.25 39.52 27.14"
/>
<path stroke="#675140" vector-effect="non-scaling-stroke" d="
  M 39.52 27.14
  Q 39.58 26.93 39.61 26.74
  Q 39.68 26.27 39.39 25.89
  Q 36.35 21.77 31.91 19.27"
/>
<path stroke="#808080" vector-effect="non-scaling-stroke" d="
  M 31.91 19.27
  Q 30.63 17.90 30.39 18.58"
/>
<path stroke="#b49e8d" vector-effect="non-scaling-stroke" d="
  M 31.91 19.27
  Q 35.04 23.96 39.52 27.14"
/>
<path stroke="#979ba5" vector-effect="non-scaling-stroke" d="
  M 30.43 27.90
  Q 31.22 23.39 30.39 18.58"
/>
<path stroke="#808080" vector-effect="non-scaling-stroke" d="
  M 113.68 48.42
  L 116.06 48.45"
/>
<path stroke="#6c5c3a" vector-effect="non-scaling-stroke" d="
  M 116.06 48.45
  Q 116.76 48.79 117.19 48.53
  A 0.81 0.79 70.6 0 0 117.56 47.74
  Q 117.11 44.33 119.61 41.37"
/>
<path stroke="#808080" vector-effect="non-scaling-stroke" d="
  M 119.61 41.37
  L 123.27 47.94
  Q 123.52 48.39 124.03 48.40
  L 127.53 48.44"
/>
<path stroke="#675140" vector-effect="non-scaling-stroke" d="
  M 127.53 48.44
  Q 128.34 48.71 128.54 48.59
  A 0.84 0.82 -31.0 0 0 128.83 47.47
  L 123.29 37.97
  Q 123.01 37.49 123.38 37.06
  L 127.95 31.73
  A 1.08 0.89 -49.1 0 0 127.98 30.35
  Q 127.92 30.29 127.49 30.37"
/>
<path stroke="#808080" vector-effect="non-scaling-stroke" d="
  M 127.49 30.37
  L 123.71 30.36
  A 1.81 1.78 -73.0 0 0 122.19 31.18
  L 118.38 37.03"
/>
<path stroke="#6c5c3a" vector-effect="non-scaling-stroke" d="
  M 118.38 37.03
  Q 118.21 37.12 118.07 37.13
  Q 117.64 37.19 117.64 36.76
  L 117.64 23.22
  Q 117.64 22.62 117.07 22.47
  Q 116.71 22.38 116.22 22.58"
/>
<path stroke="#808080" vector-effect="non-scaling-stroke" d="
  M 116.22 22.58
  L 113.22 22.57"
/>
<path stroke="#5b6e79" vector-effect="non-scaling-stroke" d="
  M 113.22 22.57
  Q 112.71 22.19 112.36 22.67
  Q 112.17 22.92 112.17 23.38
  Q 112.10 35.47 112.11 47.50
  A 1.16 1.14 -79.9 0 0 112.84 48.56
  Q 113.15 48.68 113.68 48.42"
/>
<path stroke="#a8bbc6" vector-effect="non-scaling-stroke" d="
  M 113.22 22.57
  Q 113.25 38.51 113.11 46.00
  Q 113.09 47.55 113.68 48.42"
/>
<path stroke="#b9a987" vector-effect="non-scaling-stroke" d="
  M 116.22 22.58
  L 116.37 36.66
  A 1.18 1.14 -64.6 0 0 116.61 37.37
  Q 117.58 38.62 118.38 37.03"
/>
<path stroke="#b49e8d" vector-effect="non-scaling-stroke" d="
  M 127.49 30.37
  Q 127.60 30.56 127.62 30.70
  Q 127.64 30.83 127.50 30.99
  Q 125.09 33.75 122.23 37.28
  A 0.97 0.97 0.0 0 0 122.12 38.31
  Q 124.68 43.49 127.87 47.63
  Q 128.27 48.14 127.53 48.44"
/>
<path stroke="#b9a987" vector-effect="non-scaling-stroke" d="
  M 119.61 41.37
  Q 116.70 42.63 116.55 44.49
  Q 116.33 47.19 116.06 48.45"
/>
<path stroke="#4a4e58" vector-effect="non-scaling-stroke" d="
  M 65.53 38.30
  L 65.05 47.71
  A 1.02 0.86 12.4 0 0 65.75 48.62
  Q 66.10 48.73 66.72 48.41"
/>
<path stroke="#808080" vector-effect="non-scaling-stroke" d="
  M 66.72 48.41
  L 69.77 48.43"
/>
<path stroke="#5e433c" vector-effect="non-scaling-stroke" d="
  M 69.77 48.43
  Q 70.02 49.23 71.00 47.96
  A 1.15 1.14 -26.3 0 0 71.24 47.26
  L 71.24 25.50
  Q 71.24 24.72 70.46 24.64
  Q 69.59 24.55 69.02 24.81"
/>
<path stroke="#808080" vector-effect="non-scaling-stroke" d="
  M 69.02 24.81
  Q 67.79 25.01 65.79 24.49"
/>
<path stroke="#4a4e58" vector-effect="non-scaling-stroke" d="
  M 65.79 24.49
  Q 64.50 28.85 65.31 33.88
  Q 65.39 34.36 65.20 34.59
  Q 64.95 34.89 64.46 34.89"
/>
<path stroke="#808080" vector-effect="non-scaling-stroke" d="
  M 64.46 34.89
  L 56.36 34.98"
/>
<path stroke="#776b55" vector-effect="non-scaling-stroke" d="
  M 56.36 34.98
  Q 57.33 30.02 56.74 25.37
  Q 56.68 24.85 56.18 24.70
  Q 55.80 24.59 55.47 24.81"
/>
<path stroke="#808080" vector-effect="non-scaling-stroke" d="
  M 55.47 24.81
  Q 53.73 24.61 52.64 24.85
  Q 52.13 24.97 52.13 25.49
  L 52.13 47.81
  A 0.69 0.68 90.0 0 0 52.81 48.50
  L 56.23 48.50
  Q 56.73 48.50 56.73 48.00
  L 56.73 39.13
  Q 56.73 38.41 57.45 38.40
  L 65.53 38.30"
/>
<path stroke="#c4b8a2" vector-effect="non-scaling-stroke" d="
  M 55.47 24.81
  Q 55.15 30.53 56.36 34.98"
/>
<path stroke="#979ba5" vector-effect="non-scaling-stroke" d="
  M 64.46 34.89
  L 65.36 34.93
  Q 65.98 34.95 65.96 34.34
  L 65.79 24.49"
/>
<path stroke="#ab9089" vector-effect="non-scaling-stroke" d="
  M 69.02 24.81
  Q 69.42 24.93 69.65 25.21
  Q 69.82 25.42 69.83 25.86
  Q 69.90 37.15 69.77 48.43"
/>
<path stroke="#979ba5" vector-effect="non-scaling-stroke" d="
  M 66.72 48.41
  L 66.44 48.29
  A 0.48 0.47 13.3 0 1 66.14 47.81
  Q 66.60 42.78 65.53 38.30"
/>
<path stroke="#808080" vector-effect="non-scaling-stroke" d="
  M 132.21 48.50
  L 135.45 48.50"
/>
<path stroke="#6c5c3a" vector-effect="non-scaling-stroke" d="
  M 135.45 48.50
  Q 136.06 48.89 136.48 48.39
  Q 136.72 48.11 136.72 47.54
  Q 136.71 41.91 137.47 35.91"
/>
<path stroke="#808080" vector-effect="non-scaling-stroke" d="
  M 137.47 35.91
  L 140.91 46.13"
/>
<path stroke="#776b55" vector-effect="non-scaling-stroke" d="
  M 140.91 46.13
  Q 144.26 46.56 144.62 45.70
  Q 146.62 40.81 148.16 35.70"
/>
<path stroke="#808080" vector-effect="non-scaling-stroke" d="
  M 148.16 35.70
  Q 148.04 34.73 148.57 34.26
  A 0.31 0.31 0.0 0 1 149.09 34.49
  L 149.09 47.82
  Q 149.09 48.41 149.68 48.42
  L 152.33 48.45"
/>
<path stroke="#776b55" vector-effect="non-scaling-stroke" d="
  M 152.33 48.45
  Q 153.03 48.85 153.42 48.40
  Q 153.66 48.13 153.66 47.53
  Q 153.66 36.46 153.68 25.37
  A 0.61 0.61 0.0 0 0 153.16 24.77
  Q 152.37 24.64 151.54 24.85"
/>
<path stroke="#808080" vector-effect="non-scaling-stroke" d="
  M 151.54 24.85
  L 149.05 24.77"
/>
<path stroke="#4a4e58" vector-effect="non-scaling-stroke" d="
  M 149.05 24.77
  Q 148.81 24.62 148.53 24.57
  A 0.92 0.91 24.4 0 0 147.69 24.88
  Q 146.22 26.57 145.67 28.82
  Q 144.39 33.98 143.10 37.51
  Q 142.62 38.83 142.21 37.48
  Q 141.52 35.21 141.08 32.87
  Q 140.88 31.80 139.32 28.93
  C 138.58 27.57 138.44 26.19 137.75 24.97
  A 0.85 0.84 -14.3 0 0 137.01 24.54
  L 132.50 24.54
  Q 131.86 24.54 131.87 25.19
  L 132.21 48.50"
/>
<path stroke="#979ba5" vector-effect="non-scaling-stroke" d="
  M 149.05 24.77
  L 148.76 24.87
  Q 148.49 24.97 148.40 25.24
  L 143.21 40.22
  Q 143.02 40.76 142.69 40.30
  Q 141.66 38.88 141.41 38.04
  Q 139.75 32.40 136.91 25.66
  Q 136.56 24.84 135.68 24.84
  L 132.97 24.84
  Q 132.39 24.84 132.38 25.42
  L 132.21 48.50"
/>
<path stroke="#c4b8a2" vector-effect="non-scaling-stroke" d="
  M 151.54 24.85
  Q 152.01 24.83 152.28 25.18
  Q 152.46 25.41 152.46 25.88
  Q 152.43 37.14 152.33 48.45"
/>
<path stroke="#c4b8a2" vector-effect="non-scaling-stroke" d="
  M 148.16 35.70
  Q 147.32 35.61 147.00 36.54
  Q 145.41 41.16 143.46 45.70
  Q 143.23 46.24 140.91 46.13"
/>
<path stroke="#b9a987" vector-effect="non-scaling-stroke" d="
  M 137.47 35.91
  Q 137.43 34.30 136.30 32.31
  Q 136.03 31.82 136.01 32.38
  L 135.45 48.50"
/>
<path stroke="#808080" vector-effect="non-scaling-stroke" d="
  M 160.90 48.46
  L 168.12 48.61"
/>
<path stroke="#675140" vector-effect="non-scaling-stroke" d="
  M 168.12 48.61
  Q 173.87 48.68 176.80 43.91
  Q 178.50 41.14 178.72 37.38
  Q 178.93 33.49 177.51 30.49
  Q 174.71 24.60 168.09 24.81"
/>
<path stroke="#808080" vector-effect="non-scaling-stroke" d="
  M 168.09 24.81
  L 160.76 24.81"
/>
<path stroke="#5b6e79" vector-effect="non-scaling-stroke" d="
  M 160.76 24.81
  Q 160.03 24.57 159.83 24.64
  A 1.19 0.89 83.2 0 0 159.21 25.71
  L 159.27 47.61
  A 0.98 0.96 -5.3 0 0 160.42 48.55
  L 160.90 48.46"
/>
<path stroke="#a8bbc6" vector-effect="non-scaling-stroke" d="
  M 160.76 24.81
  Q 160.51 25.28 160.52 25.75
  Q 160.88 36.63 160.41 47.50
  Q 160.38 48.06 160.90 48.46"
/>
<path stroke="#b49e8d" vector-effect="non-scaling-stroke" d="
  M 168.09 24.81
  Q 176.68 26.23 177.34 35.00
  C 177.64 38.91 176.81 43.41 173.77 46.11
  Q 172.97 46.83 171.01 47.46
  Q 169.49 47.96 168.12 48.61"
/>
<path stroke="#808080" vector-effect="non-scaling-stroke" d="
  M 80.49 30.44
  Q 78.93 30.82 77.55 31.88
  Q 76.54 32.66 76.61 33.37
  Q 76.70 34.26 77.14 35.25
  Q 77.36 35.75 77.83 35.49
  Q 80.11 34.24 82.29 33.86
  A 2.61 2.60 -19.9 0 1 85.01 35.13
  L 85.32 35.66
  Q 86.10 37.01 84.54 37.17
  C 81.91 37.44 78.01 38.22 76.38 40.69"
/>
<path stroke="#4a4e58" vector-effect="non-scaling-stroke" d="
  M 76.38 40.69
  Q 76.26 39.77 75.33 40.93
  Q 75.03 41.31 74.91 41.80
  Q 73.70 46.75 78.29 48.37"
/>
<path stroke="#808080" vector-effect="non-scaling-stroke" d="
  M 78.29 48.37
  Q 79.82 48.59 81.47 48.40
  Q 82.31 48.29 83.34 47.70
  Q 84.21 47.20 85.24 46.89
  Q 85.75 46.73 85.81 47.26
  Q 86.01 49.07 89.14 48.46"
/>
<path stroke="#776b55" vector-effect="non-scaling-stroke" d="
  M 89.14 48.46
  Q 89.57 48.82 90.08 48.60
  Q 90.56 48.39 90.58 47.87
  Q 90.84 40.85 90.48 34.28
  Q 90.45 33.76 90.07 33.40
  Q 88.93 32.34 87.82 31.24
  Q 86.90 30.32 84.47 30.33
  Q 82.46 30.34 80.49 30.44"
/>
<path stroke="#c4b8a2" vector-effect="non-scaling-stroke" d="
  M 89.14 48.46
  Q 90.01 39.97 89.28 36.25
  Q 87.90 29.17 80.49 30.44"
/>
<path stroke="#979ba5" vector-effect="non-scaling-stroke" d="
  M 78.29 48.37
  Q 74.32 45.15 76.38 40.69"
/>
<path stroke="#808080" vector-effect="non-scaling-stroke" d="
  M 101.40 48.64
  Q 102.69 48.30 103.94 48.49"
/>
<path stroke="#675140" vector-effect="non-scaling-stroke" d="
  M 103.94 48.49
  Q 107.19 49.13 108.59 47.11
  C 109.32 46.05 108.87 44.47 107.76 43.92
  Q 106.99 43.54 105.82 44.03
  Q 104.88 44.41 103.98 44.92"
/>
<path stroke="#808080" vector-effect="non-scaling-stroke" d="
  M 103.98 44.92
  Q 103.06 45.30 100.77 44.14"
/>
<path stroke="#675140" vector-effect="non-scaling-stroke" d="
  M 100.77 44.14
  Q 99.21 41.23 99.80 38.28
  Q 100.31 35.69 102.25 34.20"
/>
<path stroke="#808080" vector-effect="non-scaling-stroke" d="
  M 102.25 34.20
  Q 103.38 33.57 105.10 34.57
  Q 106.77 35.53 107.96 34.03
  Q 108.04 33.93 108.13 33.83
  Q 109.33 32.33 107.76 31.22
  Q 105.92 29.92 101.89 30.26"
/>
<path stroke="#5b6e79" vector-effect="non-scaling-stroke" d="
  M 101.89 30.26
  Q 94.85 30.86 93.90 37.66
  Q 92.54 47.51 101.40 48.64"
/>
<path stroke="#a8bbc6" vector-effect="non-scaling-stroke" d="
  M 101.89 30.26
  Q 98.44 31.14 97.07 32.73
  Q 93.87 36.44 95.12 42.46
  Q 95.93 46.36 101.40 48.64"
/>
<path stroke="#b49e8d" vector-effect="non-scaling-stroke" d="
  M 102.25 34.20
  C 101.59 33.99 100.84 34.25 100.36 34.80
  Q 95.65 40.19 100.77 44.14"
/>
<path stroke="#b49e8d" vector-effect="non-scaling-stroke" d="
  M 103.98 44.92
  Q 105.04 45.00 105.93 44.30
  Q 106.33 43.98 106.76 44.27
  Q 107.96 45.06 107.65 46.29
  Q 107.53 46.78 107.07 47.00
  L 103.94 48.49"
/>
<path stroke="#808080" vector-effect="non-scaling-stroke" d="
  M 32.9198 34.0071
  A 1.27 1.27 0.0 0 0 31.6475 32.7393
  L 19.4276 32.7607
  A 1.27 1.27 0.0 0 0 18.1598 34.0329
  L 18.1602 34.2929
  A 1.27 1.27 0.0 0 0 19.4325 35.5607
  L 31.6524 35.5393
  A 1.27 1.27 0.0 0 0 32.9202 34.2671
  L 32.9198 34.0071"
/>
<path stroke="#808080" vector-effect="non-scaling-stroke" d="
  M 32.92 39.25
  A 0.99 0.99 0.0 0 0 31.93 38.26
  L 18.33 38.26
  A 0.99 0.99 0.0 0 0 17.34 39.25
  L 17.34 39.75
  A 0.99 0.99 0.0 0 0 18.33 40.74
  L 31.93 40.74
  A 0.99 0.99 0.0 0 0 32.92 39.75
  L 32.92 39.25"
/>
<path stroke="#808080" vector-effect="non-scaling-stroke" d="
  M 32.91 44.73
  A 1.25 1.25 0.0 0 0 31.66 43.48
  L 19.20 43.48
  A 1.25 1.25 0.0 0 0 17.95 44.73
  L 17.95 44.83
  A 1.25 1.25 0.0 0 0 19.20 46.08
  L 31.66 46.08
  A 1.25 1.25 0.0 0 0 32.91 44.83
  L 32.91 44.73"
/>
<path stroke="#808080" vector-effect="non-scaling-stroke" d="
  M 164.72 45.06
  Q 171.19 45.08 173.00 40.47"
/>
<path stroke="#979ba5" vector-effect="non-scaling-stroke" d="
  M 173.00 40.47
  Q 174.75 35.28 172.43 30.98
  Q 171.54 29.34 169.94 28.72
  Q 168.30 28.09 166.45 28.13"
/>
<path stroke="#808080" vector-effect="non-scaling-stroke" d="
  M 166.45 28.13
  L 164.92 28.12"
/>
<path stroke="#b9a987" vector-effect="non-scaling-stroke" d="
  M 164.92 28.12
  L 164.13 28.25
  Q 163.61 28.33 163.61 28.85
  Q 163.62 36.39 163.63 43.94
  Q 163.63 44.47 163.88 44.71
  Q 164.19 45.01 164.72 45.06"
/>
<path stroke="#6c5c3a" vector-effect="non-scaling-stroke" d="
  M 164.92 28.12
  L 164.72 45.06"
/>
<path stroke="#4a4e58" vector-effect="non-scaling-stroke" d="
  M 166.45 28.13
  L 171.38 31.06
  A 1.09 1.08 -79.2 0 1 171.89 31.82
  Q 171.98 32.44 172.35 32.87
  Q 172.66 33.22 172.68 33.68
  L 173.00 40.47"
/>
<path stroke="#808080" vector-effect="non-scaling-stroke" d="
  M 79.52 43.63
  A 2.13 1.88 -11.7 0 0 81.77 44.91
  Q 86.40 44.34 85.60 40.14
  Q 85.49 39.54 84.88 39.63
  Q 83.25 39.89 81.01 40.96
  Q 78.99 41.93 79.52 43.63"
/>
</g>
<path fill="#333333" d="
  M 170.43 0.00
  Q 185.81 2.08 189.00 17.54
  L 189.00 52.98
  Q 186.38 68.30 171.04 71.00
  L 17.98 71.00
  Q 2.84 68.37 0.00 53.25
  L 0.00 18.06
  Q 2.58 2.72 17.92 0.00
  L 170.43 0.00
  Z
  M 10.48 17.71
  Q 9.97 17.68 9.59 18.21
  Q 9.35 18.54 9.35 19.12
  Q 9.34 35.67 9.31 52.22
  Q 9.30 53.25 10.42 53.21
  Q 11.15 53.84 12.00 53.85
  Q 24.49 54.12 41.15 53.52
  Q 42.48 42.67 42.04 32.00
  Q 41.99 30.84 40.94 30.37
  Q 40.55 30.19 39.28 30.39
  L 30.70 30.36
  Q 29.91 30.34 29.26 29.79
  Q 28.84 29.42 28.84 28.86
  L 28.84 18.26
  Q 28.84 17.70 28.32 17.50
  Q 26.98 16.99 25.22 17.59
  L 10.48 17.71
  Z
  M 30.39 18.58
  Q 28.69 24.18 30.43 27.90
  L 39.63 27.89
  Q 40.16 27.89 39.91 27.42
  Q 39.82 27.25 39.52 27.14
  Q 39.58 26.93 39.61 26.74
  Q 39.68 26.27 39.39 25.89
  Q 36.35 21.77 31.91 19.27
  Q 30.63 17.90 30.39 18.58
  Z
  M 113.68 48.42
  L 116.06 48.45
  Q 116.76 48.79 117.19 48.53
  A 0.81 0.79 70.6 0 0 117.56 47.74
  Q 117.11 44.33 119.61 41.37
  L 123.27 47.94
  Q 123.52 48.39 124.03 48.40
  L 127.53 48.44
  Q 128.34 48.71 128.54 48.59
  A 0.84 0.82 -31.0 0 0 128.83 47.47
  L 123.29 37.97
  Q 123.01 37.49 123.38 37.06
  L 127.95 31.73
  A 1.08 0.89 -49.1 0 0 127.98 30.35
  Q 127.92 30.29 127.49 30.37
  L 123.71 30.36
  A 1.81 1.78 -73.0 0 0 122.19 31.18
  L 118.38 37.03
  Q 118.21 37.12 118.07 37.13
  Q 117.64 37.19 117.64 36.76
  L 117.64 23.22
  Q 117.64 22.62 117.07 22.47
  Q 116.71 22.38 116.22 22.58
  L 113.22 22.57
  Q 112.71 22.19 112.36 22.67
  Q 112.17 22.92 112.17 23.38
  Q 112.10 35.47 112.11 47.50
  A 1.16 1.14 -79.9 0 0 112.84 48.56
  Q 113.15 48.68 113.68 48.42
  Z
  M 65.53 38.30
  L 65.05 47.71
  A 1.02 0.86 12.4 0 0 65.75 48.62
  Q 66.10 48.73 66.72 48.41
  L 69.77 48.43
  Q 70.02 49.23 71.00 47.96
  A 1.15 1.14 -26.3 0 0 71.24 47.26
  L 71.24 25.50
  Q 71.24 24.72 70.46 24.64
  Q 69.59 24.55 69.02 24.81
  Q 67.79 25.01 65.79 24.49
  Q 64.50 28.85 65.31 33.88
  Q 65.39 34.36 65.20 34.59
  Q 64.95 34.89 64.46 34.89
  L 56.36 34.98
  Q 57.33 30.02 56.74 25.37
  Q 56.68 24.85 56.18 24.70
  Q 55.80 24.59 55.47 24.81
  Q 53.73 24.61 52.64 24.85
  Q 52.13 24.97 52.13 25.49
  L 52.13 47.81
  A 0.69 0.68 90.0 0 0 52.81 48.50
  L 56.23 48.50
  Q 56.73 48.50 56.73 48.00
  L 56.73 39.13
  Q 56.73 38.41 57.45 38.40
  L 65.53 38.30
  Z
  M 132.21 48.50
  L 135.45 48.50
  Q 136.06 48.89 136.48 48.39
  Q 136.72 48.11 136.72 47.54
  Q 136.71 41.91 137.47 35.91
  L 140.91 46.13
  Q 144.26 46.56 144.62 45.70
  Q 146.62 40.81 148.16 35.70
  Q 148.04 34.73 148.57 34.26
  A 0.31 0.31 0.0 0 1 149.09 34.49
  L 149.09 47.82
  Q 149.09 48.41 149.68 48.42
  L 152.33 48.45
  Q 153.03 48.85 153.42 48.40
  Q 153.66 48.13 153.66 47.53
  Q 153.66 36.46 153.68 25.37
  A 0.61 0.61 0.0 0 0 153.16 24.77
  Q 152.37 24.64 151.54 24.85
  L 149.05 24.77
  Q 148.81 24.62 148.53 24.57
  A 0.92 0.91 24.4 0 0 147.69 24.88
  Q 146.22 26.57 145.67 28.82
  Q 144.39 33.98 143.10 37.51
  Q 142.62 38.83 142.21 37.48
  Q 141.52 35.21 141.08 32.87
  Q 140.88 31.80 139.32 28.93
  C 138.58 27.57 138.44 26.19 137.75 24.97
  A 0.85 0.84 -14.3 0 0 137.01 24.54
  L 132.50 24.54
  Q 131.86 24.54 131.87 25.19
  L 132.21 48.50
  Z
  M 160.90 48.46
  L 168.12 48.61
  Q 173.87 48.68 176.80 43.91
  Q 178.50 41.14 178.72 37.38
  Q 178.93 33.49 177.51 30.49
  Q 174.71 24.60 168.09 24.81
  L 160.76 24.81
  Q 160.03 24.57 159.83 24.64
  A 1.19 0.89 83.2 0 0 159.21 25.71
  L 159.27 47.61
  A 0.98 0.96 -5.3 0 0 160.42 48.55
  L 160.90 48.46
  Z
  M 80.49 30.44
  Q 78.93 30.82 77.55 31.88
  Q 76.54 32.66 76.61 33.37
  Q 76.70 34.26 77.14 35.25
  Q 77.36 35.75 77.83 35.49
  Q 80.11 34.24 82.29 33.86
  A 2.61 2.60 -19.9 0 1 85.01 35.13
  L 85.32 35.66
  Q 86.10 37.01 84.54 37.17
  C 81.91 37.44 78.01 38.22 76.38 40.69
  Q 76.26 39.77 75.33 40.93
  Q 75.03 41.31 74.91 41.80
  Q 73.70 46.75 78.29 48.37
  Q 79.82 48.59 81.47 48.40
  Q 82.31 48.29 83.34 47.70
  Q 84.21 47.20 85.24 46.89
  Q 85.75 46.73 85.81 47.26
  Q 86.01 49.07 89.14 48.46
  Q 89.57 48.82 90.08 48.60
  Q 90.56 48.39 90.58 47.87
  Q 90.84 40.85 90.48 34.28
  Q 90.45 33.76 90.07 33.40
  Q 88.93 32.34 87.82 31.24
  Q 86.90 30.32 84.47 30.33
  Q 82.46 30.34 80.49 30.44
  Z
  M 101.40 48.64
  Q 102.69 48.30 103.94 48.49
  Q 107.19 49.13 108.59 47.11
  C 109.32 46.05 108.87 44.47 107.76 43.92
  Q 106.99 43.54 105.82 44.03
  Q 104.88 44.41 103.98 44.92
  Q 103.06 45.30 100.77 44.14
  Q 99.21 41.23 99.80 38.28
  Q 100.31 35.69 102.25 34.20
  Q 103.38 33.57 105.10 34.57
  Q 106.77 35.53 107.96 34.03
  Q 108.04 33.93 108.13 33.83
  Q 109.33 32.33 107.76 31.22
  Q 105.92 29.92 101.89 30.26
  Q 94.85 30.86 93.90 37.66
  Q 92.54 47.51 101.40 48.64
  Z"
/>
<path fill="#cdcdcd" d="
  M 25.22 17.59
  Q 27.59 17.31 27.57 18.72
  Q 27.49 22.69 27.38 26.59
  Q 27.33 28.47 27.79 29.27
  Q 28.63 30.74 30.70 30.36
  L 39.28 30.39
  Q 39.88 30.28 40.32 30.44
  Q 40.81 30.61 40.82 31.14
  L 41.15 53.52
  Q 24.49 54.12 12.00 53.85
  Q 11.15 53.84 10.42 53.21
  L 10.48 17.71
  L 25.22 17.59
  Z
  M 32.9198 34.0071
  A 1.27 1.27 0.0 0 0 31.6475 32.7393
  L 19.4276 32.7607
  A 1.27 1.27 0.0 0 0 18.1598 34.0329
  L 18.1602 34.2929
  A 1.27 1.27 0.0 0 0 19.4325 35.5607
  L 31.6524 35.5393
  A 1.27 1.27 0.0 0 0 32.9202 34.2671
  L 32.9198 34.0071
  Z
  M 32.92 39.25
  A 0.99 0.99 0.0 0 0 31.93 38.26
  L 18.33 38.26
  A 0.99 0.99 0.0 0 0 17.34 39.25
  L 17.34 39.75
  A 0.99 0.99 0.0 0 0 18.33 40.74
  L 31.93 40.74
  A 0.99 0.99 0.0 0 0 32.92 39.75
  L 32.92 39.25
  Z
  M 32.91 44.73
  A 1.25 1.25 0.0 0 0 31.66 43.48
  L 19.20 43.48
  A 1.25 1.25 0.0 0 0 17.95 44.73
  L 17.95 44.83
  A 1.25 1.25 0.0 0 0 19.20 46.08
  L 31.66 46.08
  A 1.25 1.25 0.0 0 0 32.91 44.83
  L 32.91 44.73
  Z"
/>
<path fill="#a58541" d="
  M 30.70 30.36
  Q 28.63 30.74 27.79 29.27
  Q 27.33 28.47 27.38 26.59
  Q 27.49 22.69 27.57 18.72
  Q 27.59 17.31 25.22 17.59
  Q 26.98 16.99 28.32 17.50
  Q 28.84 17.70 28.84 18.26
  L 28.84 28.86
  Q 28.84 29.42 29.26 29.79
  Q 29.91 30.34 30.70 30.36
  Z"
/>
<path fill="#83a9be" d="
  M 10.48 17.71
  L 10.42 53.21
  Q 9.30 53.25 9.31 52.22
  Q 9.34 35.67 9.35 19.12
  Q 9.35 18.54 9.59 18.21
  Q 9.97 17.68 10.48 17.71
  Z"
/>
<path fill="#cdcdcd" d="
  M 31.91 19.27
  Q 35.04 23.96 39.52 27.14
  Q 39.82 27.25 39.91 27.42
  Q 40.16 27.89 39.63 27.89
  L 30.43 27.90
  Q 31.22 23.39 30.39 18.58
  Q 30.63 17.90 31.91 19.27
  Z"
/>
<path fill="#61697c" d="
  M 30.43 27.90
  Q 28.69 24.18 30.39 18.58
  Q 31.22 23.39 30.43 27.90
  Z"
/>
<path fill="#9a6f4c" d="
  M 39.52 27.14
  Q 35.04 23.96 31.91 19.27
  Q 36.35 21.77 39.39 25.89
  Q 39.68 26.27 39.61 26.74
  Q 39.58 26.93 39.52 27.14
  Z"
/>
<path fill="#83a9be" d="
  M 113.22 22.57
  Q 113.25 38.51 113.11 46.00
  Q 113.09 47.55 113.68 48.42
  Q 113.15 48.68 112.84 48.56
  A 1.16 1.14 -79.9 0 1 112.11 47.50
  Q 112.10 35.47 112.17 23.38
  Q 112.17 22.92 112.36 22.67
  Q 112.71 22.19 113.22 22.57
  Z"
/>
<path fill="#cdcdcd" d="
  M 116.22 22.58
  L 116.37 36.66
  A 1.18 1.14 -64.6 0 0 116.61 37.37
  Q 117.58 38.62 118.38 37.03
  L 122.19 31.18
  A 1.81 1.78 -73.0 0 1 123.71 30.36
  L 127.49 30.37
  Q 127.60 30.56 127.62 30.70
  Q 127.64 30.83 127.50 30.99
  Q 125.09 33.75 122.23 37.28
  A 0.97 0.97 0.0 0 0 122.12 38.31
  Q 124.68 43.49 127.87 47.63
  Q 128.27 48.14 127.53 48.44
  L 124.03 48.40
  Q 123.52 48.39 123.27 47.94
  L 119.61 41.37
  Q 116.70 42.63 116.55 44.49
  Q 116.33 47.19 116.06 48.45
  L 113.68 48.42
  Q 113.09 47.55 113.11 46.00
  Q 113.25 38.51 113.22 22.57
  L 116.22 22.58
  Z"
/>
<path fill="#a58541" d="
  M 118.38 37.03
  Q 117.58 38.62 116.61 37.37
  A 1.18 1.14 -64.6 0 1 116.37 36.66
  L 116.22 22.58
  Q 116.71 22.38 117.07 22.47
  Q 117.64 22.62 117.64 23.22
  L 117.64 36.76
  Q 117.64 37.19 118.07 37.13
  Q 118.21 37.12 118.38 37.03
  Z"
/>
<path fill="#cdcdcd" d="
  M 55.47 24.81
  Q 55.15 30.53 56.36 34.98
  L 64.46 34.89
  L 65.36 34.93
  Q 65.98 34.95 65.96 34.34
  L 65.79 24.49
  Q 67.79 25.01 69.02 24.81
  Q 69.42 24.93 69.65 25.21
  Q 69.82 25.42 69.83 25.86
  Q 69.90 37.15 69.77 48.43
  L 66.72 48.41
  L 66.44 48.29
  A 0.48 0.47 13.3 0 1 66.14 47.81
  Q 66.60 42.78 65.53 38.30
  L 57.45 38.40
  Q 56.73 38.41 56.73 39.13
  L 56.73 48.00
  Q 56.73 48.50 56.23 48.50
  L 52.81 48.50
  A 0.69 0.68 -90.0 0 1 52.13 47.81
  L 52.13 25.49
  Q 52.13 24.97 52.64 24.85
  Q 53.73 24.61 55.47 24.81
  Z"
/>
<path fill="#885345" d="
  M 69.77 48.43
  Q 69.90 37.15 69.83 25.86
  Q 69.82 25.42 69.65 25.21
  Q 69.42 24.93 69.02 24.81
  Q 69.59 24.55 70.46 24.64
  Q 71.24 24.72 71.24 25.50
  L 71.24 47.26
  A 1.15 1.14 -26.3 0 1 71.00 47.96
  Q 70.02 49.23 69.77 48.43
  Z"
/>
<path fill="#61697c" d="
  M 149.05 24.77
  L 148.76 24.87
  Q 148.49 24.97 148.40 25.24
  L 143.21 40.22
  Q 143.02 40.76 142.69 40.30
  Q 141.66 38.88 141.41 38.04
  Q 139.75 32.40 136.91 25.66
  Q 136.56 24.84 135.68 24.84
  L 132.97 24.84
  Q 132.39 24.84 132.38 25.42
  L 132.21 48.50
  L 131.87 25.19
  Q 131.86 24.54 132.50 24.54
  L 137.01 24.54
  A 0.85 0.84 -14.3 0 1 137.75 24.97
  C 138.44 26.19 138.58 27.57 139.32 28.93
  Q 140.88 31.80 141.08 32.87
  Q 141.52 35.21 142.21 37.48
  Q 142.62 38.83 143.10 37.51
  Q 144.39 33.98 145.67 28.82
  Q 146.22 26.57 147.69 24.88
  A 0.92 0.91 24.4 0 1 148.53 24.57
  Q 148.81 24.62 149.05 24.77
  Z"
/>
<path fill="#bba377" d="
  M 56.36 34.98
  Q 55.15 30.53 55.47 24.81
  Q 55.80 24.59 56.18 24.70
  Q 56.68 24.85 56.74 25.37
  Q 57.33 30.02 56.36 34.98
  Z"
/>
<path fill="#61697c" d="
  M 65.79 24.49
  L 65.96 34.34
  Q 65.98 34.95 65.36 34.93
  L 64.46 34.89
  Q 64.95 34.89 65.20 34.59
  Q 65.39 34.36 65.31 33.88
  Q 64.50 28.85 65.79 24.49
  Z"
/>
<path fill="#cdcdcd" d="
  M 149.05 24.77
  L 151.54 24.85
  Q 152.01 24.83 152.28 25.18
  Q 152.46 25.41 152.46 25.88
  Q 152.43 37.14 152.33 48.45
  L 149.68 48.42
  Q 149.09 48.41 149.09 47.82
  L 149.09 34.49
  A 0.31 0.31 0.0 0 0 148.57 34.26
  Q 148.04 34.73 148.16 35.70
  Q 147.32 35.61 147.00 36.54
  Q 145.41 41.16 143.46 45.70
  Q 143.23 46.24 140.91 46.13
  L 137.47 35.91
  Q 137.43 34.30 136.30 32.31
  Q 136.03 31.82 136.01 32.38
  L 135.45 48.50
  L 132.21 48.50
  L 132.38 25.42
  Q 132.39 24.84 132.97 24.84
  L 135.68 24.84
  Q 136.56 24.84 136.91 25.66
  Q 139.75 32.40 141.41 38.04
  Q 141.66 38.88 142.69 40.30
  Q 143.02 40.76 143.21 40.22
  L 148.40 25.24
  Q 148.49 24.97 148.76 24.87
  L 149.05 24.77
  Z"
/>
<path fill="#bba377" d="
  M 152.33 48.45
  Q 152.43 37.14 152.46 25.88
  Q 152.46 25.41 152.28 25.18
  Q 152.01 24.83 151.54 24.85
  Q 152.37 24.64 153.16 24.77
  A 0.61 0.61 0.0 0 1 153.68 25.37
  Q 153.66 36.46 153.66 47.53
  Q 153.66 48.13 153.42 48.40
  Q 153.03 48.85 152.33 48.45
  Z"
/>
<path fill="#83a9be" d="
  M 160.76 24.81
  Q 160.51 25.28 160.52 25.75
  Q 160.88 36.63 160.41 47.50
  Q 160.38 48.06 160.90 48.46
  L 160.42 48.55
  A 0.98 0.96 -5.3 0 1 159.27 47.61
  L 159.21 25.71
  A 1.19 0.89 83.2 0 1 159.83 24.64
  Q 160.03 24.57 160.76 24.81
  Z"
/>
<path fill="#cdcdcd" d="
  M 168.09 24.81
  Q 176.68 26.23 177.34 35.00
  C 177.64 38.91 176.81 43.41 173.77 46.11
  Q 172.97 46.83 171.01 47.46
  Q 169.49 47.96 168.12 48.61
  L 160.90 48.46
  Q 160.38 48.06 160.41 47.50
  Q 160.88 36.63 160.52 25.75
  Q 160.51 25.28 160.76 24.81
  L 168.09 24.81
  Z
  M 164.72 45.06
  Q 171.19 45.08 173.00 40.47
  Q 174.75 35.28 172.43 30.98
  Q 171.54 29.34 169.94 28.72
  Q 168.30 28.09 166.45 28.13
  L 164.92 28.12
  L 164.13 28.25
  Q 163.61 28.33 163.61 28.85
  Q 163.62 36.39 163.63 43.94
  Q 163.63 44.47 163.88 44.71
  Q 164.19 45.01 164.72 45.06
  Z"
/>
<path fill="#9a6f4c" d="
  M 168.12 48.61
  Q 169.49 47.96 171.01 47.46
  Q 172.97 46.83 173.77 46.11
  C 176.81 43.41 177.64 38.91 177.34 35.00
  Q 176.68 26.23 168.09 24.81
  Q 174.71 24.60 177.51 30.49
  Q 178.93 33.49 178.72 37.38
  Q 178.50 41.14 176.80 43.91
  Q 173.87 48.68 168.12 48.61
  Z"
/>
<path fill="#a58541" d="
  M 164.92 28.12
  L 164.72 45.06
  Q 164.19 45.01 163.88 44.71
  Q 163.63 44.47 163.63 43.94
  Q 163.62 36.39 163.61 28.85
  Q 163.61 28.33 164.13 28.25
  L 164.92 28.12
  Z"
/>
<path fill="#333333" d="
  M 166.45 28.13
  L 171.38 31.06
  A 1.09 1.08 -79.2 0 1 171.89 31.82
  Q 171.98 32.44 172.35 32.87
  Q 172.66 33.22 172.68 33.68
  L 173.00 40.47
  Q 171.19 45.08 164.72 45.06
  L 164.92 28.12
  L 166.45 28.13
  Z"
/>
<path fill="#61697c" d="
  M 173.00 40.47
  L 172.68 33.68
  Q 172.66 33.22 172.35 32.87
  Q 171.98 32.44 171.89 31.82
  A 1.09 1.08 -79.2 0 0 171.38 31.06
  L 166.45 28.13
  Q 168.30 28.09 169.94 28.72
  Q 171.54 29.34 172.43 30.98
  Q 174.75 35.28 173.00 40.47
  Z"
/>
<path fill="#885345" d="
  M 41.15 53.52
  L 40.82 31.14
  Q 40.81 30.61 40.32 30.44
  Q 39.88 30.28 39.28 30.39
  Q 40.55 30.19 40.94 30.37
  Q 41.99 30.84 42.04 32.00
  Q 42.48 42.67 41.15 53.52
  Z"
/>
<path fill="#bba377" d="
  M 89.14 48.46
  Q 90.01 39.97 89.28 36.25
  Q 87.90 29.17 80.49 30.44
  Q 82.46 30.34 84.47 30.33
  Q 86.90 30.32 87.82 31.24
  Q 88.93 32.34 90.07 33.40
  Q 90.45 33.76 90.48 34.28
  Q 90.84 40.85 90.58 47.87
  Q 90.56 48.39 90.08 48.60
  Q 89.57 48.82 89.14 48.46
  Z"
/>
<path fill="#83a9be" d="
  M 101.89 30.26
  Q 98.44 31.14 97.07 32.73
  Q 93.87 36.44 95.12 42.46
  Q 95.93 46.36 101.40 48.64
  Q 92.54 47.51 93.90 37.66
  Q 94.85 30.86 101.89 30.26
  Z"
/>
<path fill="#cdcdcd" d="
  M 102.25 34.20
  C 101.59 33.99 100.84 34.25 100.36 34.80
  Q 95.65 40.19 100.77 44.14
  Q 103.06 45.30 103.98 44.92
  Q 105.04 45.00 105.93 44.30
  Q 106.33 43.98 106.76 44.27
  Q 107.96 45.06 107.65 46.29
  Q 107.53 46.78 107.07 47.00
  L 103.94 48.49
  Q 102.69 48.30 101.40 48.64
  Q 95.93 46.36 95.12 42.46
  Q 93.87 36.44 97.07 32.73
  Q 98.44 31.14 101.89 30.26
  Q 105.92 29.92 107.76 31.22
  Q 109.33 32.33 108.13 33.83
  Q 108.04 33.93 107.96 34.03
  Q 106.77 35.53 105.10 34.57
  Q 103.38 33.57 102.25 34.20
  Z"
/>
<path fill="#9a6f4c" d="
  M 127.53 48.44
  Q 128.27 48.14 127.87 47.63
  Q 124.68 43.49 122.12 38.31
  A 0.97 0.97 0.0 0 1 122.23 37.28
  Q 125.09 33.75 127.50 30.99
  Q 127.64 30.83 127.62 30.70
  Q 127.60 30.56 127.49 30.37
  Q 127.92 30.29 127.98 30.35
  A 1.08 0.89 -49.1 0 1 127.95 31.73
  L 123.38 37.06
  Q 123.01 37.49 123.29 37.97
  L 128.83 47.47
  A 0.84 0.82 -31.0 0 1 128.54 48.59
  Q 128.34 48.71 127.53 48.44
  Z"
/>
<path fill="#cdcdcd" d="
  M 80.49 30.44
  Q 87.90 29.17 89.28 36.25
  Q 90.01 39.97 89.14 48.46
  Q 86.01 49.07 85.81 47.26
  Q 85.75 46.73 85.24 46.89
  Q 84.21 47.20 83.34 47.70
  Q 82.31 48.29 81.47 48.40
  Q 79.82 48.59 78.29 48.37
  Q 74.32 45.15 76.38 40.69
  C 78.01 38.22 81.91 37.44 84.54 37.17
  Q 86.10 37.01 85.32 35.66
  L 85.01 35.13
  A 2.61 2.60 -19.9 0 0 82.29 33.86
  Q 80.11 34.24 77.83 35.49
  Q 77.36 35.75 77.14 35.25
  Q 76.70 34.26 76.61 33.37
  Q 76.54 32.66 77.55 31.88
  Q 78.93 30.82 80.49 30.44
  Z
  M 79.52 43.63
  A 2.13 1.88 -11.7 0 0 81.77 44.91
  Q 86.40 44.34 85.60 40.14
  Q 85.49 39.54 84.88 39.63
  Q 83.25 39.89 81.01 40.96
  Q 78.99 41.93 79.52 43.63
  Z"
/>
<path fill="#a58541" d="
  M 137.47 35.91
  Q 136.71 41.91 136.72 47.54
  Q 136.72 48.11 136.48 48.39
  Q 136.06 48.89 135.45 48.50
  L 136.01 32.38
  Q 136.03 31.82 136.30 32.31
  Q 137.43 34.30 137.47 35.91
  Z"
/>
<rect fill="#333333" x="-7.38" y="-1.40" transform="translate(25.54,34.15) rotate(-0.1)" width="14.76" height="2.80" rx="1.27"/>
<path fill="#9a6f4c" d="
  M 102.25 34.20
  Q 100.31 35.69 99.80 38.28
  Q 99.21 41.23 100.77 44.14
  Q 95.65 40.19 100.36 34.80
  C 100.84 34.25 101.59 33.99 102.25 34.20
  Z"
/>
<path fill="#bba377" d="
  M 148.16 35.70
  Q 146.62 40.81 144.62 45.70
  Q 144.26 46.56 140.91 46.13
  Q 143.23 46.24 143.46 45.70
  Q 145.41 41.16 147.00 36.54
  Q 147.32 35.61 148.16 35.70
  Z"
/>
<rect fill="#333333" x="17.34" y="38.26" width="15.58" height="2.48" rx="0.99"/>
<path fill="#61697c" d="
  M 66.72 48.41
  Q 66.10 48.73 65.75 48.62
  A 1.02 0.86 12.4 0 1 65.05 47.71
  L 65.53 38.30
  Q 66.60 42.78 66.14 47.81
  A 0.48 0.47 13.3 0 0 66.44 48.29
  L 66.72 48.41
  Z"
/>
<path fill="#333333" d="
  M 79.52 43.63
  Q 78.99 41.93 81.01 40.96
  Q 83.25 39.89 84.88 39.63
  Q 85.49 39.54 85.60 40.14
  Q 86.40 44.34 81.77 44.91
  A 2.13 1.88 -11.7 0 1 79.52 43.63
  Z"
/>
<path fill="#61697c" d="
  M 76.38 40.69
  Q 74.32 45.15 78.29 48.37
  Q 73.70 46.75 74.91 41.80
  Q 75.03 41.31 75.33 40.93
  Q 76.26 39.77 76.38 40.69
  Z"
/>
<path fill="#a58541" d="
  M 119.61 41.37
  Q 117.11 44.33 117.56 47.74
  A 0.81 0.79 70.6 0 1 117.19 48.53
  Q 116.76 48.79 116.06 48.45
  Q 116.33 47.19 116.55 44.49
  Q 116.70 42.63 119.61 41.37
  Z"
/>
<rect fill="#333333" x="17.95" y="43.48" width="14.96" height="2.60" rx="1.25"/>
<path fill="#9a6f4c" d="
  M 103.94 48.49
  L 107.07 47.00
  Q 107.53 46.78 107.65 46.29
  Q 107.96 45.06 106.76 44.27
  Q 106.33 43.98 105.93 44.30
  Q 105.04 45.00 103.98 44.92
  Q 104.88 44.41 105.82 44.03
  Q 106.99 43.54 107.76 43.92
  C 108.87 44.47 109.32 46.05 108.59 47.11
  Q 107.19 49.13 103.94 48.49
  Z"
/>
</svg>
