<?xml version="1.0" encoding="UTF-8" standalone="no"?>
<!DOCTYPE svg PUBLIC "-//W3C//DTD SVG 1.1//EN" "http://www.w3.org/Graphics/SVG/1.1/DTD/svg11.dtd">
<svg xmlns="http://www.w3.org/2000/svg" version="1.1" viewBox="0.00 0.00 84.00 87.00" width="60" height="60">
<g stroke-width="2.00" fill="none" stroke-linecap="butt">
<path stroke="#fff981" vector-effect="non-scaling-stroke" d="
  M 28.28 13.06
  A 1.22 1.22 0.0 0 0 28.54 13.52
  L 30.34 15.58
  A 1.22 1.22 0.0 0 0 32.43 14.43
  L 30.80 9.03
  A 1.22 1.22 0.0 0 0 29.65 8.16
  L 28.51 8.14
  A 1.22 1.22 0.0 0 0 27.31 9.70
  L 28.28 13.06"
/>
<path stroke="#fff981" vector-effect="non-scaling-stroke" d="
  M 54.7035 11.1757
  A 1.55 1.55 0.0 0 0 53.8717 9.1476
  L 53.5580 9.0164
  A 1.55 1.55 0.0 0 0 51.5299 9.8482
  L 49.8165 13.9443
  A 1.55 1.55 0.0 0 0 50.6483 15.9724
  L 50.9620 16.1036
  A 1.55 1.55 0.0 0 0 52.9901 15.2718
  L 54.7035 11.1757"
/>
<path stroke="#81909d" vector-effect="non-scaling-stroke" d="
  M 26.54 27.15
  Q 19.20 35.64 21.98 45.66
  C 23.02 49.43 26.33 54.61 27.95 58.02
  Q 29.13 60.50 29.18 61.53
  Q 29.30 63.85 30.21 66.05
  Q 30.67 67.16 30.72 68.02
  Q 30.78 69.04 30.88 70.09"
/>
<path stroke="#828b8e" vector-effect="non-scaling-stroke" d="
  M 30.88 70.09
  C 31.48 73.44 33.66 74.55 35.51 76.43
  Q 37.37 78.31 38.90 78.68
  C 41.78 79.38 44.48 79.00 46.61 76.68
  Q 47.70 75.48 49.09 74.32
  C 51.40 72.39 51.64 70.87 51.45 67.99
  A 2.43 1.91 -43.1 0 1 51.60 67.01
  C 51.97 66.02 52.67 65.54 52.89 64.01
  Q 53.54 59.52 54.13 58.42
  Q 56.48 54.03 58.68 49.96
  C 62.04 43.72 61.85 36.82 58.48 30.53
  C 52.20 18.80 35.80 17.62 26.54 27.15"
/>
<path stroke="#8B8B8B" vector-effect="non-scaling-stroke" d="
  M 30.88 70.09
  L 32.48 65.83
  A 0.76 0.76 0.0 0 1 33.18 65.33
  L 50.58 64.98"
/>
<path stroke="#828b8e" vector-effect="non-scaling-stroke" d="
  M 50.58 64.98
  Q 51.35 57.47 55.68 51.37
  Q 55.83 51.16 55.83 50.91
  L 55.83 50.52
  A 0.36 0.36 0.0 0 0 55.47 50.16
  L 37.05 50.16"
/>
<path stroke="#8B8B8B" vector-effect="non-scaling-stroke" d="
  M 37.05 50.16
  L 36.13 49.76
  Q 35.55 49.51 36.03 49.10
  L 37.05 48.21"
/>
<path stroke="#828b8e" vector-effect="non-scaling-stroke" d="
  M 37.05 48.21
  L 56.36 48.28
  A 1.47 1.47 0.0 0 0 57.71 47.39
  Q 60.36 41.15 58.22 34.83
  C 56.09 28.51 51.25 24.32 44.53 23.09
  Q 34.97 21.34 27.78 28.71"
/>
<path stroke="#8B8B8B" vector-effect="non-scaling-stroke" d="
  M 27.78 28.71
  Q 27.09 28.13 26.54 27.15"
/>
<path stroke="#81909d" vector-effect="non-scaling-stroke" d="
  M 37.05 50.16
  L 26.94 50.19
  A 0.55 0.55 0.0 0 0 26.50 51.06
  Q 30.90 57.01 31.69 64.33
  A 0.66 0.66 0.0 0 0 32.35 64.92
  L 50.58 64.98"
/>
<path stroke="#81909d" vector-effect="non-scaling-stroke" d="
  M 37.05 48.21
  L 26.11 48.17
  A 1.43 1.43 0.0 0 1 24.79 47.26
  Q 20.95 37.36 27.78 28.71"
/>
<path stroke="#fff981" vector-effect="non-scaling-stroke" d="
  M 18.46 26.57
  L 11.34 25.03
  A 0.79 0.79 0.0 0 0 10.40 25.64
  L 10.32 26.01
  A 2.99 2.63 12.2 0 0 12.69 29.21
  L 15.51 29.82
  A 2.99 2.63 12.2 0 0 18.98 27.88
  L 19.06 27.51
  A 0.79 0.79 0.0 0 0 18.46 26.57"
/>
<path stroke="#fff981" vector-effect="non-scaling-stroke" d="
  M 71.7968 27.0615
  A 1.76 1.76 0.0 0 0 69.5654 25.9587
  L 64.3747 27.7156
  A 1.76 1.76 0.0 0 0 63.2719 29.9470
  L 63.3232 30.0985
  A 1.76 1.76 0.0 0 0 65.5546 31.2013
  L 70.7453 29.4444
  A 1.76 1.76 0.0 0 0 71.8481 27.2130
  L 71.7968 27.0615"
/>
<path stroke="#fff981" vector-effect="non-scaling-stroke" d="
  M 18.10 49.28
  A 1.52 0.83 54.5 0 0 17.94 47.97
  Q 17.68 47.51 16.70 47.15
  Q 16.00 46.89 15.32 47.26
  C 14.16 47.91 12.25 47.91 11.29 48.89
  Q 10.49 49.70 10.25 50.16
  A 1.21 1.12 -74.2 0 0 11.15 51.92
  L 15.72 52.05
  Q 16.27 52.07 16.57 51.60
  L 18.10 49.28"
/>
<path stroke="#fff981" vector-effect="non-scaling-stroke" d="
  M 64.01 48.61
  Q 63.54 50.18 65.27 51.31
  Q 66.28 51.97 67.89 52.09
  Q 71.54 52.35 71.95 51.00
  Q 72.35 49.65 69.17 47.85
  Q 67.76 47.06 66.56 47.05
  Q 64.49 47.03 64.01 48.61"
/>
<path stroke="#828b8e" vector-effect="non-scaling-stroke" d="
  M 49.5800 67.9047
  A 0.90 0.90 0.0 0 0 48.6816 67.0032
  L 33.6016 66.9768
  A 0.90 0.90 0.0 0 0 32.7001 67.8753
  L 32.7000 67.9353
  A 0.90 0.90 0.0 0 0 33.5984 68.8368
  L 48.6784 68.8632
  A 0.90 0.90 0.0 0 0 49.5799 67.9647
  L 49.5800 67.9047"
/>
<path stroke="#828b8e" vector-effect="non-scaling-stroke" d="
  M 41.48 73.79
  L 45.62 73.79
  A 3.04 3.01 -67.3 0 0 47.76 72.90
  L 48.71 71.95
  Q 49.84 70.82 48.24 70.82
  L 33.78 70.82
  A 0.44 0.43 -16.3 0 0 33.41 71.49
  Q 34.30 72.87 35.99 73.80
  Q 36.44 74.05 36.72 74.49
  Q 39.08 78.29 44.00 76.36
  Q 45.05 75.95 43.94 75.80
  Q 43.28 75.71 41.68 75.66
  Q 40.84 75.63 40.84 74.79
  L 40.84 74.43
  A 0.64 0.64 0.0 0 1 41.48 73.79"
/>
<path stroke="#828b8e" vector-effect="non-scaling-stroke" d="
  M 33.36 32.38
  C 31.10 34.63 29.05 38.66 29.54 41.94
  A 0.88 0.87 -8.3 0 0 30.53 42.67
  L 30.84 42.63
  A 0.70 0.69 86.7 0 0 31.44 41.95
  Q 31.49 37.08 34.82 33.85
  Q 38.07 30.54 42.94 30.52
  A 0.70 0.69 3.7 0 0 43.63 29.93
  L 43.67 29.62
  A 0.88 0.87 -81.3 0 0 42.95 28.62
  C 39.67 28.11 35.63 30.13 33.36 32.38"
/>
</g>
<path fill="#9f9f9f"  fill-opacity="0" d="
  M 84.00 0.00
  L 84.00 87.00
  L 0.00 87.00
  L 0.00 0.00
  L 84.00 0.00
  Z
  M 28.28 13.06
  A 1.22 1.22 0.0 0 0 28.54 13.52
  L 30.34 15.58
  A 1.22 1.22 0.0 0 0 32.43 14.43
  L 30.80 9.03
  A 1.22 1.22 0.0 0 0 29.65 8.16
  L 28.51 8.14
  A 1.22 1.22 0.0 0 0 27.31 9.70
  L 28.28 13.06
  Z
  M 54.7035 11.1757
  A 1.55 1.55 0.0 0 0 53.8717 9.1476
  L 53.5580 9.0164
  A 1.55 1.55 0.0 0 0 51.5299 9.8482
  L 49.8165 13.9443
  A 1.55 1.55 0.0 0 0 50.6483 15.9724
  L 50.9620 16.1036
  A 1.55 1.55 0.0 0 0 52.9901 15.2718
  L 54.7035 11.1757
  Z
  M 26.54 27.15
  Q 19.20 35.64 21.98 45.66
  C 23.02 49.43 26.33 54.61 27.95 58.02
  Q 29.13 60.50 29.18 61.53
  Q 29.30 63.85 30.21 66.05
  Q 30.67 67.16 30.72 68.02
  Q 30.78 69.04 30.88 70.09
  C 31.48 73.44 33.66 74.55 35.51 76.43
  Q 37.37 78.31 38.90 78.68
  C 41.78 79.38 44.48 79.00 46.61 76.68
  Q 47.70 75.48 49.09 74.32
  C 51.40 72.39 51.64 70.87 51.45 67.99
  A 2.43 1.91 -43.1 0 1 51.60 67.01
  C 51.97 66.02 52.67 65.54 52.89 64.01
  Q 53.54 59.52 54.13 58.42
  Q 56.48 54.03 58.68 49.96
  C 62.04 43.72 61.85 36.82 58.48 30.53
  C 52.20 18.80 35.80 17.62 26.54 27.15
  Z
  M 18.46 26.57
  L 11.34 25.03
  A 0.79 0.79 0.0 0 0 10.40 25.64
  L 10.32 26.01
  A 2.99 2.63 12.2 0 0 12.69 29.21
  L 15.51 29.82
  A 2.99 2.63 12.2 0 0 18.98 27.88
  L 19.06 27.51
  A 0.79 0.79 0.0 0 0 18.46 26.57
  Z
  M 71.7968 27.0615
  A 1.76 1.76 0.0 0 0 69.5654 25.9587
  L 64.3747 27.7156
  A 1.76 1.76 0.0 0 0 63.2719 29.9470
  L 63.3232 30.0985
  A 1.76 1.76 0.0 0 0 65.5546 31.2013
  L 70.7453 29.4444
  A 1.76 1.76 0.0 0 0 71.8481 27.2130
  L 71.7968 27.0615
  Z
  M 18.10 49.28
  A 1.52 0.83 54.5 0 0 17.94 47.97
  Q 17.68 47.51 16.70 47.15
  Q 16.00 46.89 15.32 47.26
  C 14.16 47.91 12.25 47.91 11.29 48.89
  Q 10.49 49.70 10.25 50.16
  A 1.21 1.12 -74.2 0 0 11.15 51.92
  L 15.72 52.05
  Q 16.27 52.07 16.57 51.60
  L 18.10 49.28
  Z
  M 64.01 48.61
  Q 63.54 50.18 65.27 51.31
  Q 66.28 51.97 67.89 52.09
  Q 71.54 52.35 71.95 51.00
  Q 72.35 49.65 69.17 47.85
  Q 67.76 47.06 66.56 47.05
  Q 64.49 47.03 64.01 48.61
  Z"
/>
<path fill="#fff302" d="
  M 28.28 13.06
  L 27.31 9.70
  A 1.22 1.22 0.0 0 1 28.51 8.14
  L 29.65 8.16
  A 1.22 1.22 0.0 0 1 30.80 9.03
  L 32.43 14.43
  A 1.22 1.22 0.0 0 1 30.34 15.58
  L 28.54 13.52
  A 1.22 1.22 0.0 0 1 28.28 13.06
  Z"
/>
<rect fill="#fff302" x="-1.72" y="-3.77" transform="translate(52.26,12.56) rotate(22.7)" width="3.44" height="7.54" rx="1.55"/>
<path fill="#8B8B8B" d="
  M 30.88 70.09
  L 32.48 65.83
  A 0.76 0.76 0.0 0 1 33.18 65.33
  L 50.58 64.98
  Q 51.35 57.47 55.68 51.37
  Q 55.83 51.16 55.83 50.91
  L 55.83 50.52
  A 0.36 0.36 0.0 0 0 55.47 50.16
  L 37.05 50.16
  L 36.13 49.76
  Q 35.55 49.51 36.03 49.10
  L 37.05 48.21
  L 56.36 48.28
  A 1.47 1.47 0.0 0 0 57.71 47.39
  Q 60.36 41.15 58.22 34.83
  C 56.09 28.51 51.25 24.32 44.53 23.09
  Q 34.97 21.34 27.78 28.71
  Q 27.09 28.13 26.54 27.15
  C 35.80 17.62 52.20 18.80 58.48 30.53
  C 61.85 36.82 62.04 43.72 58.68 49.96
  Q 56.48 54.03 54.13 58.42
  Q 53.54 59.52 52.89 64.01
  C 52.67 65.54 51.97 66.02 51.60 67.01
  A 2.43 1.91 -43.1 0 0 51.45 67.99
  C 51.64 70.87 51.40 72.39 49.09 74.32
  Q 47.70 75.48 46.61 76.68
  C 44.48 79.00 41.78 79.38 38.90 78.68
  Q 37.37 78.31 35.51 76.43
  C 33.66 74.55 31.48 73.44 30.88 70.09
  Z
  M 49.5800 67.9047
  A 0.90 0.90 0.0 0 0 48.6816 67.0032
  L 33.6016 66.9768
  A 0.90 0.90 0.0 0 0 32.7001 67.8753
  L 32.7000 67.9353
  A 0.90 0.90 0.0 0 0 33.5984 68.8368
  L 48.6784 68.8632
  A 0.90 0.90 0.0 0 0 49.5799 67.9647
  L 49.5800 67.9047
  Z
  M 41.48 73.79
  L 45.62 73.79
  A 3.04 3.01 -67.3 0 0 47.76 72.90
  L 48.71 71.95
  Q 49.84 70.82 48.24 70.82
  L 33.78 70.82
  A 0.44 0.43 -16.3 0 0 33.41 71.49
  Q 34.30 72.87 35.99 73.80
  Q 36.44 74.05 36.72 74.49
  Q 39.08 78.29 44.00 76.36
  Q 45.05 75.95 43.94 75.80
  Q 43.28 75.71 41.68 75.66
  Q 40.84 75.63 40.84 74.79
  L 40.84 74.43
  A 0.64 0.64 0.0 0 1 41.48 73.79
  Z"
/>
<path fill="#ffffff" d="
  M 37.05 48.21
  L 26.11 48.17
  A 1.43 1.43 0.0 0 1 24.79 47.26
  Q 20.95 37.36 27.78 28.71
  Q 34.97 21.34 44.53 23.09
  C 51.25 24.32 56.09 28.51 58.22 34.83
  Q 60.36 41.15 57.71 47.39
  A 1.47 1.47 0.0 0 1 56.36 48.28
  L 37.05 48.21
  Z
  M 33.36 32.38
  C 31.10 34.63 29.05 38.66 29.54 41.94
  A 0.88 0.87 -8.3 0 0 30.53 42.67
  L 30.84 42.63
  A 0.70 0.69 86.7 0 0 31.44 41.95
  Q 31.49 37.08 34.82 33.85
  Q 38.07 30.54 42.94 30.52
  A 0.70 0.69 3.7 0 0 43.63 29.93
  L 43.67 29.62
  A 0.88 0.87 -81.3 0 0 42.95 28.62
  C 39.67 28.11 35.63 30.13 33.36 32.38
  Z"
/>
<path fill="#fff302" d="
  M 18.46 26.57
  A 0.79 0.79 0.0 0 1 19.06 27.51
  L 18.98 27.88
  A 2.99 2.63 12.2 0 1 15.51 29.82
  L 12.69 29.21
  A 2.99 2.63 12.2 0 1 10.32 26.01
  L 10.40 25.64
  A 0.79 0.79 0.0 0 1 11.34 25.03
  L 18.46 26.57
  Z"
/>
<rect fill="#fff302" x="-4.50" y="-1.84" transform="translate(67.56,28.58) rotate(-18.7)" width="9.00" height="3.68" rx="1.76"/>
<path fill="#8B8B8B" d="
  M 26.54 27.15
  Q 27.09 28.13 27.78 28.71
  Q 20.95 37.36 24.79 47.26
  A 1.43 1.43 0.0 0 0 26.11 48.17
  L 37.05 48.21
  L 36.03 49.10
  Q 35.55 49.51 36.13 49.76
  L 37.05 50.16
  L 26.94 50.19
  A 0.55 0.55 0.0 0 0 26.50 51.06
  Q 30.90 57.01 31.69 64.33
  A 0.66 0.66 0.0 0 0 32.35 64.92
  L 50.58 64.98
  L 33.18 65.33
  A 0.76 0.76 0.0 0 0 32.48 65.83
  L 30.88 70.09
  Q 30.78 69.04 30.72 68.02
  Q 30.67 67.16 30.21 66.05
  Q 29.30 63.85 29.18 61.53
  Q 29.13 60.50 27.95 58.02
  C 26.33 54.61 23.02 49.43 21.98 45.66
  Q 19.20 35.64 26.54 27.15
  Z"
/>
<path fill="#8B8B8B" d="
  M 34.82 33.85
  Q 31.49 37.08 31.44 41.95
  A 0.70 0.69 86.7 0 1 30.84 42.63
  L 30.53 42.67
  A 0.88 0.87 -8.3 0 1 29.54 41.94
  C 29.05 38.66 31.10 34.63 33.36 32.38
  C 35.63 30.13 39.67 28.11 42.95 28.62
  A 0.88 0.87 -81.3 0 1 43.67 29.62
  L 43.63 29.93
  A 0.70 0.69 3.7 0 1 42.94 30.52
  Q 38.07 30.54 34.82 33.85
  Z"
/>
<path fill="#fff302" d="
  M 18.10 49.28
  L 16.57 51.60
  Q 16.27 52.07 15.72 52.05
  L 11.15 51.92
  A 1.21 1.12 -74.2 0 1 10.25 50.16
  Q 10.49 49.70 11.29 48.89
  C 12.25 47.91 14.16 47.91 15.32 47.26
  Q 16.00 46.89 16.70 47.15
  Q 17.68 47.51 17.94 47.97
  A 1.52 0.83 54.5 0 1 18.10 49.28
  Z"
/>
<path fill="#fff302" d="
  M 71.95 51.00
  Q 71.54 52.35 67.89 52.09
  Q 66.28 51.97 65.27 51.31
  Q 63.54 50.18 64.01 48.61
  Q 64.49 47.03 66.56 47.05
  Q 67.76 47.06 69.17 47.85
  Q 72.35 49.65 71.95 51.00
  Z"
/>
<path fill="#ffffff" d="
  M 50.58 64.98
  L 32.35 64.92
  A 0.66 0.66 0.0 0 1 31.69 64.33
  Q 30.90 57.01 26.50 51.06
  A 0.55 0.55 0.0 0 1 26.94 50.19
  L 37.05 50.16
  L 55.47 50.16
  A 0.36 0.36 0.0 0 1 55.83 50.52
  L 55.83 50.91
  Q 55.83 51.16 55.68 51.37
  Q 51.35 57.47 50.58 64.98
  Z"
/>
<rect fill="#ffffff" x="-8.44" y="-0.93" transform="translate(41.14,67.92) rotate(0.1)" width="16.88" height="1.86" rx="0.90"/>
<path fill="#ffffff" d="
  M 41.48 73.79
  A 0.64 0.64 0.0 0 0 40.84 74.43
  L 40.84 74.79
  Q 40.84 75.63 41.68 75.66
  Q 43.28 75.71 43.94 75.80
  Q 45.05 75.95 44.00 76.36
  Q 39.08 78.29 36.72 74.49
  Q 36.44 74.05 35.99 73.80
  Q 34.30 72.87 33.41 71.49
  A 0.44 0.43 -16.3 0 1 33.78 70.82
  L 48.24 70.82
  Q 49.84 70.82 48.71 71.95
  L 47.76 72.90
  A 3.04 3.01 -67.3 0 1 45.62 73.79
  L 41.48 73.79
  Z"
/>
</svg>
