<?xml version="1.0" encoding="UTF-8" standalone="no"?>
<!DOCTYPE svg PUBLIC "-//W3C//DTD SVG 1.1//EN" "http://www.w3.org/Graphics/SVG/1.1/DTD/svg11.dtd">
<svg xmlns="http://www.w3.org/2000/svg" version="1.1" viewBox="0.00 0.00 300.00 56.00">
<g stroke-width="2.00" fill="none" stroke-linecap="butt">
<path stroke="#605f61" vector-effect="non-scaling-stroke" d="
  M 284.51 29.17
  A 6.84 6.84 0.0 0 0 277.67 22.33
  L 20.33 22.33
  A 6.84 6.84 0.0 0 0 13.49 29.17
  L 13.49 29.47
  A 6.84 6.84 0.0 0 0 20.33 36.31
  L 277.67 36.31
  A 6.84 6.84 0.0 0 0 284.51 29.47
  L 284.51 29.17"
/>
<path stroke="#605f61" vector-effect="non-scaling-stroke" d="
  M 281.98 32.56
  Q 284.25 28.06 281.17 25.34
  C 279.58 23.94 277.08 23.92 275.11 23.92
  Q 32.00 23.95 21.02 23.94
  Q 14.83 23.93 15.21 29.86
  Q 15.28 31.04 15.76 32.18
  A 1.75 1.73 5.6 0 0 16.37 32.91
  Q 19.60 35.04 21.52 35.04
  Q 138.04 35.09 273.60 35.06
  C 276.13 35.06 278.21 35.28 280.59 33.99
  Q 281.51 33.49 281.98 32.56"
/>
</g>
<path fill="#ffffff" fill-opacity="0" d="
  M 300.00 0.00
  L 300.00 56.00
  L 0.00 56.00
  L 0.00 0.00
  L 300.00 0.00
  Z
  M 284.51 29.17
  A 6.84 6.84 0.0 0 0 277.67 22.33
  L 20.33 22.33
  A 6.84 6.84 0.0 0 0 13.49 29.17
  L 13.49 29.47
  A 6.84 6.84 0.0 0 0 20.33 36.31
  L 277.67 36.31
  A 6.84 6.84 0.0 0 0 284.51 29.47
  L 284.51 29.17
  Z"
/>
<path fill="#605f61" d="
  M 284.51 29.47
  A 6.84 6.84 0.0 0 1 277.67 36.31
  L 20.33 36.31
  A 6.84 6.84 0.0 0 1 13.49 29.47
  L 13.49 29.17
  A 6.84 6.84 0.0 0 1 20.33 22.33
  L 277.67 22.33
  A 6.84 6.84 0.0 0 1 284.51 29.17
  L 284.51 29.47
  Z
  M 281.98 32.56
  Q 284.25 28.06 281.17 25.34
  C 279.58 23.94 277.08 23.92 275.11 23.92
  Q 32.00 23.95 21.02 23.94
  Q 14.83 23.93 15.21 29.86
  Q 15.28 31.04 15.76 32.18
  A 1.75 1.73 5.6 0 0 16.37 32.91
  Q 19.60 35.04 21.52 35.04
  Q 138.04 35.09 273.60 35.06
  C 276.13 35.06 278.21 35.28 280.59 33.99
  Q 281.51 33.49 281.98 32.56
  Z"
/>
<path fill="#605f61" d="
  M 281.98 32.56
  Q 281.51 33.49 280.59 33.99
  C 278.21 35.28 276.13 35.06 273.60 35.06
  Q 138.04 35.09 21.52 35.04
  Q 19.60 35.04 16.37 32.91
  A 1.75 1.73 5.6 0 1 15.76 32.18
  Q 15.28 31.04 15.21 29.86
  Q 14.83 23.93 21.02 23.94
  Q 32.00 23.95 275.11 23.92
  C 277.08 23.92 279.58 23.94 281.17 25.34
  Q 284.25 28.06 281.98 32.56
  Z"
/>
</svg>
