<?xml version="1.0" encoding="UTF-8" standalone="no"?>
<!DOCTYPE svg PUBLIC "-//W3C//DTD SVG 1.1//EN" "http://www.w3.org/Graphics/SVG/1.1/DTD/svg11.dtd">
<svg xmlns="http://www.w3.org/2000/svg" version="1.1" viewBox="0.00 0.00 120.00 131.00">
<g stroke-width="2.00" fill="none" stroke-linecap="butt">
<path stroke="#808080" vector-effect="non-scaling-stroke" d="
  M 38.44 21.99
  Q 32.36 17.67 25.97 17.26
  Q 24.88 17.20 23.86 17.55
  C 19.25 19.14 18.60 34.74 18.68 38.65
  A 2.81 2.77 -30.6 0 1 18.30 40.09
  Q 11.08 52.29 7.08 67.65
  Q 3.67 80.71 4.80 93.82
  Q 6.02 108.00 15.84 117.66
  Q 18.54 120.31 22.31 121.93
  Q 26.75 123.84 29.68 124.55
  Q 38.23 126.60 45.57 125.10
  Q 48.20 124.56 50.51 124.88
  Q 57.49 125.83 63.11 124.78
  Q 65.22 124.39 67.38 125.08
  Q 70.91 126.20 77.78 125.46
  Q 85.39 124.63 91.10 121.59
  Q 93.34 120.39 94.19 119.58
  C 96.63 117.27 98.93 116.16 100.98 113.31
  C 107.38 104.46 109.18 93.67 108.29 82.81
  Q 106.48 60.54 94.53 40.03
  Q 94.03 39.18 94.12 38.01
  Q 94.86 28.42 91.08 19.72
  Q 90.02 17.29 87.92 17.29
  Q 81.11 17.32 74.96 21.68
  Q 74.32 22.14 73.60 21.81
  Q 61.74 16.39 48.66 18.85
  Q 42.95 19.93 39.11 22.03
  A 0.64 0.63 -41.2 0 1 38.44 21.99"
/>
<path stroke="#808080" vector-effect="non-scaling-stroke" d="
  M 21.97 34.30
  Q 21.99 35.33 22.68 34.56
  Q 28.08 28.56 34.95 24.19
  A 0.49 0.48 -50.4 0 0 34.87 23.33
  L 27.25 20.32
  Q 25.31 19.55 24.46 21.45
  Q 21.83 27.33 21.97 34.30"
/>
<path stroke="#808080" vector-effect="non-scaling-stroke" d="
  M 90.55 34.96
  Q 90.87 35.32 90.87 34.84
  C 90.92 30.44 90.43 24.34 87.90 20.90
  Q 87.05 19.75 85.71 20.26
  L 78.40 23.09
  Q 76.96 23.64 78.27 24.47
  Q 84.93 28.68 90.55 34.96"
/>
<path stroke="#808080" vector-effect="non-scaling-stroke" d="
  M 56.46 59.34
  C 60.43 59.34 63.01 62.33 62.68 66.43
  Q 62.63 67.01 63.21 66.90
  Q 67.91 66.01 70.00 68.92
  Q 71.93 71.60 71.00 74.88
  Q 70.03 78.30 65.44 79.14
  Q 64.91 79.24 63.05 78.94
  Q 62.46 78.85 62.57 79.43
  Q 63.51 84.71 58.37 86.88
  A 0.63 0.63 0.0 0 0 57.98 87.46
  L 57.98 91.03
  A 0.12 0.12 0.0 0 0 58.17 91.13
  Q 68.49 83.74 72.33 80.86
  Q 73.02 80.34 73.78 81.25
  A 1.74 1.74 0.0 0 1 73.69 83.60
  Q 72.94 84.35 71.02 85.74
  Q 61.91 92.30 61.46 92.68
  Q 59.26 94.49 58.96 96.54
  C 58.37 100.60 61.70 102.18 65.33 101.96
  C 70.84 101.63 75.02 99.19 79.46 96.08
  Q 80.84 95.11 81.62 96.41
  L 81.77 96.66
  A 1.31 1.31 0.0 0 1 81.50 98.32
  Q 76.41 102.69 70.51 104.26
  C 65.99 105.47 62.18 106.01 58.36 103.18
  A 0.23 0.23 0.0 0 0 57.99 103.37
  L 57.99 121.61
  Q 57.99 122.17 58.54 122.17
  L 61.48 122.17
  A 0.48 0.48 0.0 0 0 61.90 121.45
  Q 58.79 116.15 61.44 111.14
  C 62.83 108.52 66.26 106.25 68.98 106.24
  Q 70.68 106.23 70.91 107.47
  A 1.29 1.29 0.0 0 1 70.03 108.93
  Q 67.54 109.71 66.58 110.36
  C 60.07 114.79 63.96 122.33 70.77 122.68
  Q 79.95 123.15 87.84 119.53
  Q 95.22 116.14 98.74 110.89
  Q 106.36 99.49 105.33 84.21
  Q 104.65 74.02 101.54 63.95
  Q 98.14 52.94 93.96 45.47
  Q 88.22 35.22 77.99 28.07
  C 71.49 23.53 64.37 21.41 56.46 21.41
  C 48.56 21.41 41.43 23.52 34.93 28.06
  Q 24.70 35.21 18.96 45.46
  Q 14.77 52.93 11.37 63.93
  Q 8.26 74.00 7.57 84.19
  Q 6.54 99.47 14.15 110.88
  Q 17.67 116.13 25.05 119.52
  Q 32.94 123.14 42.12 122.67
  C 48.93 122.33 52.82 114.79 46.31 110.36
  Q 45.35 109.71 42.86 108.93
  A 1.29 1.29 0.0 0 1 41.99 107.46
  Q 42.22 106.23 43.92 106.24
  C 46.64 106.25 50.06 108.52 51.45 111.14
  Q 54.10 116.15 50.99 121.45
  A 0.48 0.48 0.0 0 0 51.41 122.17
  L 54.35 122.17
  Q 54.90 122.17 54.90 121.61
  L 54.91 103.37
  A 0.23 0.23 0.0 0 0 54.54 103.18
  C 50.72 106.01 46.91 105.47 42.39 104.26
  Q 36.49 102.68 31.40 98.31
  A 1.31 1.31 0.0 0 1 31.13 96.65
  L 31.28 96.40
  Q 32.06 95.10 33.44 96.07
  C 37.88 99.18 42.06 101.62 47.57 101.96
  C 51.20 102.18 54.53 100.60 53.94 96.54
  Q 53.64 94.49 51.44 92.68
  Q 50.99 92.30 41.88 85.73
  Q 39.96 84.34 39.21 83.59
  A 1.74 1.74 0.0 0 1 39.12 81.24
  Q 39.88 80.33 40.57 80.85
  Q 44.41 83.74 54.73 91.13
  A 0.12 0.12 0.0 0 0 54.92 91.03
  L 54.92 87.46
  A 0.63 0.63 0.0 0 0 54.53 86.88
  Q 49.39 84.71 50.34 79.43
  Q 50.45 78.85 49.86 78.94
  Q 48.00 79.24 47.47 79.14
  Q 42.88 78.30 41.91 74.87
  Q 40.98 71.59 42.91 68.92
  Q 45.00 66.01 49.70 66.90
  Q 50.28 67.01 50.23 66.43
  C 49.90 62.33 52.48 59.34 56.46 59.34"
/>
<path stroke="#808080" vector-effect="non-scaling-stroke" d="
  M 54.30 67.68
  L 58.64 67.64
  A 0.91 0.91 0.0 0 0 59.54 66.73
  L 59.53 65.37
  A 2.79 2.72 89.6 0 0 56.79 62.60
  L 56.07 62.60
  A 2.79 2.72 89.6 0 0 53.37 65.41
  L 53.38 66.77
  A 0.91 0.91 0.0 0 0 54.30 67.68"
/>
<path stroke="#808080" vector-effect="non-scaling-stroke" d="
  M 50.53 74.98
  L 50.88 71.18
  A 1.23 1.23 0.0 0 0 49.77 69.84
  L 47.97 69.67
  A 3.03 2.96 -84.7 0 0 44.74 72.41
  L 44.72 72.63
  A 3.03 2.96 -84.7 0 0 47.39 75.92
  L 49.19 76.09
  A 1.23 1.23 0.0 0 0 50.53 74.98"
/>
<path stroke="#808080" vector-effect="non-scaling-stroke" d="
  M 61.97 70.66
  L 62.33 75.33
  A 0.83 0.83 0.0 0 0 63.22 76.09
  L 65.02 75.96
  A 3.56 3.02 -4.4 0 0 68.34 72.67
  L 68.32 72.37
  A 3.56 3.02 -4.4 0 0 64.54 69.63
  L 62.73 69.77
  A 0.83 0.83 0.0 0 0 61.97 70.66"
/>
<path stroke="#808080" vector-effect="non-scaling-stroke" d="
  M 59.18 73.58
  A 2.85 2.85 0.0 0 0 56.33 70.73
  A 2.85 2.85 0.0 0 0 53.48 73.58
  A 2.85 2.85 0.0 0 0 56.33 76.43
  A 2.85 2.85 0.0 0 0 59.18 73.58"
/>
<path stroke="#808080" vector-effect="non-scaling-stroke" d="
  M 58.92 79.27
  L 54.04 79.25
  A 0.79 0.79 0.0 0 0 53.25 80.03
  L 53.24 80.79
  A 3.37 3.04 -89.7 0 0 56.27 84.18
  L 56.65 84.18
  A 3.37 3.04 -89.7 0 0 59.70 80.83
  L 59.71 80.07
  A 0.79 0.79 0.0 0 0 58.92 79.27"
/>
<path stroke="#808080" vector-effect="non-scaling-stroke" d="
  M 38.3137 49.1200
  A 3.59 3.40 90.1 0 0 41.7200 45.5359
  A 3.59 3.40 90.1 0 0 38.3263 41.9400
  A 3.59 3.40 90.1 0 0 34.9200 45.5241
  A 3.59 3.40 90.1 0 0 38.3137 49.1200"
/>
<path stroke="#808080" vector-effect="non-scaling-stroke" d="
  M 74.6461 49.1041
  A 3.58 3.41 86.7 0 0 77.8443 45.3337
  A 3.58 3.41 86.7 0 0 74.2339 41.9559
  A 3.58 3.41 86.7 0 0 71.0357 45.7263
  A 3.58 3.41 86.7 0 0 74.6461 49.1041"
/>
<path stroke="#808080" vector-effect="non-scaling-stroke" d="
  M 56.39 51.90
  Q 56.66 51.90 56.74 51.97
  Q 60.56 55.28 63.96 51.69
  C 64.99 50.60 65.75 46.97 63.67 46.33
  A 0.93 0.93 0.0 0 0 62.54 46.88
  L 61.46 49.62
  A 1.27 1.27 0.0 0 1 59.83 50.34
  Q 57.08 49.30 58.66 46.85
  A 1.14 1.13 -67.2 0 0 57.96 45.13
  Q 57.21 44.95 56.37 44.95
  Q 55.53 44.96 54.78 45.14
  A 1.14 1.13 66.8 0 0 54.09 46.86
  Q 55.69 49.30 52.95 50.36
  A 1.27 1.27 0.0 0 1 51.31 49.65
  L 50.21 46.92
  A 0.93 0.93 0.0 0 0 49.08 46.38
  C 47.00 47.03 47.79 50.65 48.82 51.74
  Q 52.25 55.31 56.05 51.97
  Q 56.13 51.90 56.39 51.90"
/>
<path stroke="#808080" vector-effect="non-scaling-stroke" d="
  M 89.1472 49.3150
  A 1.51 1.51 0.0 0 0 87.4462 48.0240
  L 80.8676 48.9251
  A 1.51 1.51 0.0 0 0 79.5765 50.6261
  L 79.5928 50.7450
  A 1.51 1.51 0.0 0 0 81.2938 52.0360
  L 87.8724 51.1349
  A 1.51 1.51 0.0 0 0 89.1635 49.4339
  L 89.1472 49.3150"
/>
<path stroke="#808080" vector-effect="non-scaling-stroke" d="
  M 33.1951 50.5492
  A 1.51 1.51 0.0 0 0 31.8657 48.8779
  L 25.4075 48.1421
  A 1.51 1.51 0.0 0 0 23.7363 49.4715
  L 23.7249 49.5708
  A 1.51 1.51 0.0 0 0 25.0543 51.2421
  L 31.5125 51.9779
  A 1.51 1.51 0.0 0 0 33.1837 50.6485
  L 33.1951 50.5492"
/>
<path stroke="#808080" vector-effect="non-scaling-stroke" d="
  M 32.8884 54.6913
  A 1.27 1.27 0.0 0 0 31.4189 53.6585
  L 24.3853 54.8861
  A 1.27 1.27 0.0 0 0 23.3525 56.3556
  L 23.4316 56.8087
  A 1.27 1.27 0.0 0 0 24.9011 57.8415
  L 31.9347 56.6139
  A 1.27 1.27 0.0 0 0 32.9675 55.1444
  L 32.8884 54.6913"
/>
<path stroke="#808080" vector-effect="non-scaling-stroke" d="
  M 89.4876 56.5162
  A 1.43 1.43 0.0 0 0 88.3392 54.8515
  L 81.5132 53.5987
  A 1.43 1.43 0.0 0 0 79.8486 54.7471
  L 79.8124 54.9438
  A 1.43 1.43 0.0 0 0 80.9608 56.6085
  L 87.7868 57.8613
  A 1.43 1.43 0.0 0 0 89.4514 56.7129
  L 89.4876 56.5162"
/>
</g>
<path fill="#ffffff" fill-opacity="0" d="
  M 120.00 0.00
  L 120.00 131.00
  L 0.00 131.00
  L 0.00 0.00
  L 120.00 0.00
  Z
  M 38.44 21.99
  Q 32.36 17.67 25.97 17.26
  Q 24.88 17.20 23.86 17.55
  C 19.25 19.14 18.60 34.74 18.68 38.65
  A 2.81 2.77 -30.6 0 1 18.30 40.09
  Q 11.08 52.29 7.08 67.65
  Q 3.67 80.71 4.80 93.82
  Q 6.02 108.00 15.84 117.66
  Q 18.54 120.31 22.31 121.93
  Q 26.75 123.84 29.68 124.55
  Q 38.23 126.60 45.57 125.10
  Q 48.20 124.56 50.51 124.88
  Q 57.49 125.83 63.11 124.78
  Q 65.22 124.39 67.38 125.08
  Q 70.91 126.20 77.78 125.46
  Q 85.39 124.63 91.10 121.59
  Q 93.34 120.39 94.19 119.58
  C 96.63 117.27 98.93 116.16 100.98 113.31
  C 107.38 104.46 109.18 93.67 108.29 82.81
  Q 106.48 60.54 94.53 40.03
  Q 94.03 39.18 94.12 38.01
  Q 94.86 28.42 91.08 19.72
  Q 90.02 17.29 87.92 17.29
  Q 81.11 17.32 74.96 21.68
  Q 74.32 22.14 73.60 21.81
  Q 61.74 16.39 48.66 18.85
  Q 42.95 19.93 39.11 22.03
  A 0.64 0.63 -41.2 0 1 38.44 21.99
  Z"
/>
<path fill="#000000" d="
  M 38.44 21.99
  A 0.64 0.63 -41.2 0 0 39.11 22.03
  Q 42.95 19.93 48.66 18.85
  Q 61.74 16.39 73.60 21.81
  Q 74.32 22.14 74.96 21.68
  Q 81.11 17.32 87.92 17.29
  Q 90.02 17.29 91.08 19.72
  Q 94.86 28.42 94.12 38.01
  Q 94.03 39.18 94.53 40.03
  Q 106.48 60.54 108.29 82.81
  C 109.18 93.67 107.38 104.46 100.98 113.31
  C 98.93 116.16 96.63 117.27 94.19 119.58
  Q 93.34 120.39 91.10 121.59
  Q 85.39 124.63 77.78 125.46
  Q 70.91 126.20 67.38 125.08
  Q 65.22 124.39 63.11 124.78
  Q 57.49 125.83 50.51 124.88
  Q 48.20 124.56 45.57 125.10
  Q 38.23 126.60 29.68 124.55
  Q 26.75 123.84 22.31 121.93
  Q 18.54 120.31 15.84 117.66
  Q 6.02 108.00 4.80 93.82
  Q 3.67 80.71 7.08 67.65
  Q 11.08 52.29 18.30 40.09
  A 2.81 2.77 -30.6 0 0 18.68 38.65
  C 18.60 34.74 19.25 19.14 23.86 17.55
  Q 24.88 17.20 25.97 17.26
  Q 32.36 17.67 38.44 21.99
  Z
  M 21.97 34.30
  Q 21.99 35.33 22.68 34.56
  Q 28.08 28.56 34.95 24.19
  A 0.49 0.48 -50.4 0 0 34.87 23.33
  L 27.25 20.32
  Q 25.31 19.55 24.46 21.45
  Q 21.83 27.33 21.97 34.30
  Z
  M 90.55 34.96
  Q 90.87 35.32 90.87 34.84
  C 90.92 30.44 90.43 24.34 87.90 20.90
  Q 87.05 19.75 85.71 20.26
  L 78.40 23.09
  Q 76.96 23.64 78.27 24.47
  Q 84.93 28.68 90.55 34.96
  Z
  M 56.46 59.34
  C 60.43 59.34 63.01 62.33 62.68 66.43
  Q 62.63 67.01 63.21 66.90
  Q 67.91 66.01 70.00 68.92
  Q 71.93 71.60 71.00 74.88
  Q 70.03 78.30 65.44 79.14
  Q 64.91 79.24 63.05 78.94
  Q 62.46 78.85 62.57 79.43
  Q 63.51 84.71 58.37 86.88
  A 0.63 0.63 0.0 0 0 57.98 87.46
  L 57.98 91.03
  A 0.12 0.12 0.0 0 0 58.17 91.13
  Q 68.49 83.74 72.33 80.86
  Q 73.02 80.34 73.78 81.25
  A 1.74 1.74 0.0 0 1 73.69 83.60
  Q 72.94 84.35 71.02 85.74
  Q 61.91 92.30 61.46 92.68
  Q 59.26 94.49 58.96 96.54
  C 58.37 100.60 61.70 102.18 65.33 101.96
  C 70.84 101.63 75.02 99.19 79.46 96.08
  Q 80.84 95.11 81.62 96.41
  L 81.77 96.66
  A 1.31 1.31 0.0 0 1 81.50 98.32
  Q 76.41 102.69 70.51 104.26
  C 65.99 105.47 62.18 106.01 58.36 103.18
  A 0.23 0.23 0.0 0 0 57.99 103.37
  L 57.99 121.61
  Q 57.99 122.17 58.54 122.17
  L 61.48 122.17
  A 0.48 0.48 0.0 0 0 61.90 121.45
  Q 58.79 116.15 61.44 111.14
  C 62.83 108.52 66.26 106.25 68.98 106.24
  Q 70.68 106.23 70.91 107.47
  A 1.29 1.29 0.0 0 1 70.03 108.93
  Q 67.54 109.71 66.58 110.36
  C 60.07 114.79 63.96 122.33 70.77 122.68
  Q 79.95 123.15 87.84 119.53
  Q 95.22 116.14 98.74 110.89
  Q 106.36 99.49 105.33 84.21
  Q 104.65 74.02 101.54 63.95
  Q 98.14 52.94 93.96 45.47
  Q 88.22 35.22 77.99 28.07
  C 71.49 23.53 64.37 21.41 56.46 21.41
  C 48.56 21.41 41.43 23.52 34.93 28.06
  Q 24.70 35.21 18.96 45.46
  Q 14.77 52.93 11.37 63.93
  Q 8.26 74.00 7.57 84.19
  Q 6.54 99.47 14.15 110.88
  Q 17.67 116.13 25.05 119.52
  Q 32.94 123.14 42.12 122.67
  C 48.93 122.33 52.82 114.79 46.31 110.36
  Q 45.35 109.71 42.86 108.93
  A 1.29 1.29 0.0 0 1 41.99 107.46
  Q 42.22 106.23 43.92 106.24
  C 46.64 106.25 50.06 108.52 51.45 111.14
  Q 54.10 116.15 50.99 121.45
  A 0.48 0.48 0.0 0 0 51.41 122.17
  L 54.35 122.17
  Q 54.90 122.17 54.90 121.61
  L 54.91 103.37
  A 0.23 0.23 0.0 0 0 54.54 103.18
  C 50.72 106.01 46.91 105.47 42.39 104.26
  Q 36.49 102.68 31.40 98.31
  A 1.31 1.31 0.0 0 1 31.13 96.65
  L 31.28 96.40
  Q 32.06 95.10 33.44 96.07
  C 37.88 99.18 42.06 101.62 47.57 101.96
  C 51.20 102.18 54.53 100.60 53.94 96.54
  Q 53.64 94.49 51.44 92.68
  Q 50.99 92.30 41.88 85.73
  Q 39.96 84.34 39.21 83.59
  A 1.74 1.74 0.0 0 1 39.12 81.24
  Q 39.88 80.33 40.57 80.85
  Q 44.41 83.74 54.73 91.13
  A 0.12 0.12 0.0 0 0 54.92 91.03
  L 54.92 87.46
  A 0.63 0.63 0.0 0 0 54.53 86.88
  Q 49.39 84.71 50.34 79.43
  Q 50.45 78.85 49.86 78.94
  Q 48.00 79.24 47.47 79.14
  Q 42.88 78.30 41.91 74.87
  Q 40.98 71.59 42.91 68.92
  Q 45.00 66.01 49.70 66.90
  Q 50.28 67.01 50.23 66.43
  C 49.90 62.33 52.48 59.34 56.46 59.34
  Z
  M 54.30 67.68
  L 58.64 67.64
  A 0.91 0.91 0.0 0 0 59.54 66.73
  L 59.53 65.37
  A 2.79 2.72 89.6 0 0 56.79 62.60
  L 56.07 62.60
  A 2.79 2.72 89.6 0 0 53.37 65.41
  L 53.38 66.77
  A 0.91 0.91 0.0 0 0 54.30 67.68
  Z
  M 50.53 74.98
  L 50.88 71.18
  A 1.23 1.23 0.0 0 0 49.77 69.84
  L 47.97 69.67
  A 3.03 2.96 -84.7 0 0 44.74 72.41
  L 44.72 72.63
  A 3.03 2.96 -84.7 0 0 47.39 75.92
  L 49.19 76.09
  A 1.23 1.23 0.0 0 0 50.53 74.98
  Z
  M 61.97 70.66
  L 62.33 75.33
  A 0.83 0.83 0.0 0 0 63.22 76.09
  L 65.02 75.96
  A 3.56 3.02 -4.4 0 0 68.34 72.67
  L 68.32 72.37
  A 3.56 3.02 -4.4 0 0 64.54 69.63
  L 62.73 69.77
  A 0.83 0.83 0.0 0 0 61.97 70.66
  Z
  M 59.18 73.58
  A 2.85 2.85 0.0 0 0 56.33 70.73
  A 2.85 2.85 0.0 0 0 53.48 73.58
  A 2.85 2.85 0.0 0 0 56.33 76.43
  A 2.85 2.85 0.0 0 0 59.18 73.58
  Z
  M 58.92 79.27
  L 54.04 79.25
  A 0.79 0.79 0.0 0 0 53.25 80.03
  L 53.24 80.79
  A 3.37 3.04 -89.7 0 0 56.27 84.18
  L 56.65 84.18
  A 3.37 3.04 -89.7 0 0 59.70 80.83
  L 59.71 80.07
  A 0.79 0.79 0.0 0 0 58.92 79.27
  Z"
/>
<path fill="#ffffff" d="
  M 21.97 34.30
  Q 21.83 27.33 24.46 21.45
  Q 25.31 19.55 27.25 20.32
  L 34.87 23.33
  A 0.49 0.48 -50.4 0 1 34.95 24.19
  Q 28.08 28.56 22.68 34.56
  Q 21.99 35.33 21.97 34.30
  Z"
/>
<path fill="#ffffff" d="
  M 90.55 34.96
  Q 84.93 28.68 78.27 24.47
  Q 76.96 23.64 78.40 23.09
  L 85.71 20.26
  Q 87.05 19.75 87.90 20.90
  C 90.43 24.34 90.92 30.44 90.87 34.84
  Q 90.87 35.32 90.55 34.96
  Z"
/>
<path fill="#ffffff" d="
  M 56.46 21.41
  C 64.37 21.41 71.49 23.53 77.99 28.07
  Q 88.22 35.22 93.96 45.47
  Q 98.14 52.94 101.54 63.95
  Q 104.65 74.02 105.33 84.21
  Q 106.36 99.49 98.74 110.89
  Q 95.22 116.14 87.84 119.53
  Q 79.95 123.15 70.77 122.68
  C 63.96 122.33 60.07 114.79 66.58 110.36
  Q 67.54 109.71 70.03 108.93
  A 1.29 1.29 0.0 0 0 70.91 107.47
  Q 70.68 106.23 68.98 106.24
  C 66.26 106.25 62.83 108.52 61.44 111.14
  Q 58.79 116.15 61.90 121.45
  A 0.48 0.48 0.0 0 1 61.48 122.17
  L 58.54 122.17
  Q 57.99 122.17 57.99 121.61
  L 57.99 103.37
  A 0.23 0.23 0.0 0 1 58.36 103.18
  C 62.18 106.01 65.99 105.47 70.51 104.26
  Q 76.41 102.69 81.50 98.32
  A 1.31 1.31 0.0 0 0 81.77 96.66
  L 81.62 96.41
  Q 80.84 95.11 79.46 96.08
  C 75.02 99.19 70.84 101.63 65.33 101.96
  C 61.70 102.18 58.37 100.60 58.96 96.54
  Q 59.26 94.49 61.46 92.68
  Q 61.91 92.30 71.02 85.74
  Q 72.94 84.35 73.69 83.60
  A 1.74 1.74 0.0 0 0 73.78 81.25
  Q 73.02 80.34 72.33 80.86
  Q 68.49 83.74 58.17 91.13
  A 0.12 0.12 0.0 0 1 57.98 91.03
  L 57.98 87.46
  A 0.63 0.63 0.0 0 1 58.37 86.88
  Q 63.51 84.71 62.57 79.43
  Q 62.46 78.85 63.05 78.94
  Q 64.91 79.24 65.44 79.14
  Q 70.03 78.30 71.00 74.88
  Q 71.93 71.60 70.00 68.92
  Q 67.91 66.01 63.21 66.90
  Q 62.63 67.01 62.68 66.43
  C 63.01 62.33 60.43 59.34 56.46 59.34
  C 52.48 59.34 49.90 62.33 50.23 66.43
  Q 50.28 67.01 49.70 66.90
  Q 45.00 66.01 42.91 68.92
  Q 40.98 71.59 41.91 74.87
  Q 42.88 78.30 47.47 79.14
  Q 48.00 79.24 49.86 78.94
  Q 50.45 78.85 50.34 79.43
  Q 49.39 84.71 54.53 86.88
  A 0.63 0.63 0.0 0 1 54.92 87.46
  L 54.92 91.03
  A 0.12 0.12 0.0 0 1 54.73 91.13
  Q 44.41 83.74 40.57 80.85
  Q 39.88 80.33 39.12 81.24
  A 1.74 1.74 0.0 0 0 39.21 83.59
  Q 39.96 84.34 41.88 85.73
  Q 50.99 92.30 51.44 92.68
  Q 53.64 94.49 53.94 96.54
  C 54.53 100.60 51.20 102.18 47.57 101.96
  C 42.06 101.62 37.88 99.18 33.44 96.07
  Q 32.06 95.10 31.28 96.40
  L 31.13 96.65
  A 1.31 1.31 0.0 0 0 31.40 98.31
  Q 36.49 102.68 42.39 104.26
  C 46.91 105.47 50.72 106.01 54.54 103.18
  A 0.23 0.23 0.0 0 1 54.91 103.37
  L 54.90 121.61
  Q 54.90 122.17 54.35 122.17
  L 51.41 122.17
  A 0.48 0.48 0.0 0 1 50.99 121.45
  Q 54.10 116.15 51.45 111.14
  C 50.06 108.52 46.64 106.25 43.92 106.24
  Q 42.22 106.23 41.99 107.46
  A 1.29 1.29 0.0 0 0 42.86 108.93
  Q 45.35 109.71 46.31 110.36
  C 52.82 114.79 48.93 122.33 42.12 122.67
  Q 32.94 123.14 25.05 119.52
  Q 17.67 116.13 14.15 110.88
  Q 6.54 99.47 7.57 84.19
  Q 8.26 74.00 11.37 63.93
  Q 14.77 52.93 18.96 45.46
  Q 24.70 35.21 34.93 28.06
  C 41.43 23.52 48.56 21.41 56.46 21.41
  Z
  M 38.3137 49.1200
  A 3.59 3.40 90.1 0 0 41.7200 45.5359
  A 3.59 3.40 90.1 0 0 38.3263 41.9400
  A 3.59 3.40 90.1 0 0 34.9200 45.5241
  A 3.59 3.40 90.1 0 0 38.3137 49.1200
  Z
  M 74.6461 49.1041
  A 3.58 3.41 86.7 0 0 77.8443 45.3337
  A 3.58 3.41 86.7 0 0 74.2339 41.9559
  A 3.58 3.41 86.7 0 0 71.0357 45.7263
  A 3.58 3.41 86.7 0 0 74.6461 49.1041
  Z
  M 56.39 51.90
  Q 56.66 51.90 56.74 51.97
  Q 60.56 55.28 63.96 51.69
  C 64.99 50.60 65.75 46.97 63.67 46.33
  A 0.93 0.93 0.0 0 0 62.54 46.88
  L 61.46 49.62
  A 1.27 1.27 0.0 0 1 59.83 50.34
  Q 57.08 49.30 58.66 46.85
  A 1.14 1.13 -67.2 0 0 57.96 45.13
  Q 57.21 44.95 56.37 44.95
  Q 55.53 44.96 54.78 45.14
  A 1.14 1.13 66.8 0 0 54.09 46.86
  Q 55.69 49.30 52.95 50.36
  A 1.27 1.27 0.0 0 1 51.31 49.65
  L 50.21 46.92
  A 0.93 0.93 0.0 0 0 49.08 46.38
  C 47.00 47.03 47.79 50.65 48.82 51.74
  Q 52.25 55.31 56.05 51.97
  Q 56.13 51.90 56.39 51.90
  Z
  M 89.1472 49.3150
  A 1.51 1.51 0.0 0 0 87.4462 48.0240
  L 80.8676 48.9251
  A 1.51 1.51 0.0 0 0 79.5765 50.6261
  L 79.5928 50.7450
  A 1.51 1.51 0.0 0 0 81.2938 52.0360
  L 87.8724 51.1349
  A 1.51 1.51 0.0 0 0 89.1635 49.4339
  L 89.1472 49.3150
  Z
  M 33.1951 50.5492
  A 1.51 1.51 0.0 0 0 31.8657 48.8779
  L 25.4075 48.1421
  A 1.51 1.51 0.0 0 0 23.7363 49.4715
  L 23.7249 49.5708
  A 1.51 1.51 0.0 0 0 25.0543 51.2421
  L 31.5125 51.9779
  A 1.51 1.51 0.0 0 0 33.1837 50.6485
  L 33.1951 50.5492
  Z
  M 32.8884 54.6913
  A 1.27 1.27 0.0 0 0 31.4189 53.6585
  L 24.3853 54.8861
  A 1.27 1.27 0.0 0 0 23.3525 56.3556
  L 23.4316 56.8087
  A 1.27 1.27 0.0 0 0 24.9011 57.8415
  L 31.9347 56.6139
  A 1.27 1.27 0.0 0 0 32.9675 55.1444
  L 32.8884 54.6913
  Z
  M 89.4876 56.5162
  A 1.43 1.43 0.0 0 0 88.3392 54.8515
  L 81.5132 53.5987
  A 1.43 1.43 0.0 0 0 79.8486 54.7471
  L 79.8124 54.9438
  A 1.43 1.43 0.0 0 0 80.9608 56.6085
  L 87.7868 57.8613
  A 1.43 1.43 0.0 0 0 89.4514 56.7129
  L 89.4876 56.5162
  Z"
/>
<ellipse fill="#000000" cx="0.00" cy="0.00" transform="translate(38.32,45.53) rotate(90.1)" rx="3.59" ry="3.40"/>
<ellipse fill="#000000" cx="0.00" cy="0.00" transform="translate(74.44,45.53) rotate(86.7)" rx="3.58" ry="3.41"/>
<path fill="#000000" d="
  M 56.37 44.95
  Q 57.21 44.95 57.96 45.13
  A 1.14 1.13 -67.2 0 1 58.66 46.85
  Q 57.08 49.30 59.83 50.34
  A 1.27 1.27 0.0 0 0 61.46 49.62
  L 62.54 46.88
  A 0.93 0.93 0.0 0 1 63.67 46.33
  C 65.75 46.97 64.99 50.60 63.96 51.69
  Q 60.56 55.28 56.74 51.97
  Q 56.66 51.90 56.39 51.90
  Q 56.13 51.90 56.05 51.97
  Q 52.25 55.31 48.82 51.74
  C 47.79 50.65 47.00 47.03 49.08 46.38
  A 0.93 0.93 0.0 0 1 50.21 46.92
  L 51.31 49.65
  A 1.27 1.27 0.0 0 0 52.95 50.36
  Q 55.69 49.30 54.09 46.86
  A 1.14 1.13 66.8 0 1 54.78 45.14
  Q 55.53 44.96 56.37 44.95
  Z"
/>
<rect fill="#000000" x="-4.83" y="-1.57" transform="translate(84.37,50.03) rotate(-7.8)" width="9.66" height="3.14" rx="1.51"/>
<rect fill="#000000" x="-4.76" y="-1.56" transform="translate(28.46,50.06) rotate(6.5)" width="9.52" height="3.12" rx="1.51"/>
<rect fill="#000000" x="-4.84" y="-1.50" transform="translate(28.16,55.75) rotate(-9.9)" width="9.68" height="3.00" rx="1.27"/>
<rect fill="#000000" x="-4.90" y="-1.53" transform="translate(84.65,55.73) rotate(10.4)" width="9.80" height="3.06" rx="1.43"/>
<path fill="#ffffff" d="
  M 54.30 67.68
  A 0.91 0.91 0.0 0 1 53.38 66.77
  L 53.37 65.41
  A 2.79 2.72 89.6 0 1 56.07 62.60
  L 56.79 62.60
  A 2.79 2.72 89.6 0 1 59.53 65.37
  L 59.54 66.73
  A 0.91 0.91 0.0 0 1 58.64 67.64
  L 54.30 67.68
  Z"
/>
<path fill="#ffffff" d="
  M 50.53 74.98
  A 1.23 1.23 0.0 0 1 49.19 76.09
  L 47.39 75.92
  A 3.03 2.96 -84.7 0 1 44.72 72.63
  L 44.74 72.41
  A 3.03 2.96 -84.7 0 1 47.97 69.67
  L 49.77 69.84
  A 1.23 1.23 0.0 0 1 50.88 71.18
  L 50.53 74.98
  Z"
/>
<path fill="#ffffff" d="
  M 61.97 70.66
  A 0.83 0.83 0.0 0 1 62.73 69.77
  L 64.54 69.63
  A 3.56 3.02 -4.4 0 1 68.32 72.37
  L 68.34 72.67
  A 3.56 3.02 -4.4 0 1 65.02 75.96
  L 63.22 76.09
  A 0.83 0.83 0.0 0 1 62.33 75.33
  L 61.97 70.66
  Z"
/>
<circle fill="#E7EA3F" cx="56.33" cy="73.58" r="2.85"/>
<path fill="#ffffff" d="
  M 58.92 79.27
  A 0.79 0.79 0.0 0 1 59.71 80.07
  L 59.70 80.83
  A 3.37 3.04 -89.7 0 1 56.65 84.18
  L 56.27 84.18
  A 3.37 3.04 -89.7 0 1 53.24 80.79
  L 53.25 80.03
  A 0.79 0.79 0.0 0 1 54.04 79.25
  L 58.92 79.27
  Z"
/>
</svg>
