<?xml version="1.0" encoding="UTF-8" standalone="no"?>
<!DOCTYPE svg PUBLIC "-//W3C//DTD SVG 1.1//EN" "http://www.w3.org/Graphics/SVG/1.1/DTD/svg11.dtd">
<svg xmlns="http://www.w3.org/2000/svg" version="1.1" viewBox="0.00 0.00 264.00 245.00">
<g stroke-width="2.00" fill="none" stroke-linecap="butt">
<path stroke="#efe3cd" vector-effect="non-scaling-stroke" d="
  M 193.22 245.00
  Q 202.63 244.53 211.18 241.20
  Q 214.28 239.99 217.59 237.83
  Q 222.28 234.77 223.35 233.35
  Q 226.32 229.45 229.38 225.63
  Q 230.36 224.41 235.20 214.99
  Q 237.45 210.60 238.41 207.01
  Q 240.04 200.84 239.98 198.50
  Q 239.67 187.38 239.45 170.00
  Q 238.89 127.00 239.57 68.60
  Q 239.57 68.51 239.69 63.95
  Q 239.94 54.18 236.99 45.51
  Q 235.39 40.79 230.46 32.92
  Q 226.88 27.21 221.85 23.36
  Q 215.57 18.54 210.58 16.42
  Q 203.34 13.34 196.78 11.16
  Q 193.32 10.01 187.36 9.08
  Q 180.98 8.10 177.82 7.42
  Q 175.24 6.86 170.73 6.88
  Q 106.67 7.12 82.50 7.05
  Q 65.77 7.01 59.68 8.14
  Q 55.44 8.92 54.63 8.99
  Q 51.27 9.25 49.61 9.74
  C 44.50 11.26 36.65 12.56 31.63 15.62
  Q 27.46 18.17 20.24 24.37
  Q 14.86 28.99 10.76 35.04
  C 6.89 40.74 3.10 47.68 2.24 54.29
  C 1.89 57.05 0.53 59.77 0.31 62.70
  Q 0.20 64.18 0.00 65.62"
/>
<path stroke="#efe3cd" vector-effect="non-scaling-stroke" d="
  M 183.99 245.00
  L 60.39 245.00"
/>
<path stroke="#efe3cd" vector-effect="non-scaling-stroke" d="
  M 41.10 245.00
  Q 31.15 243.26 23.71 236.79
  Q 16.89 230.87 12.42 224.86
  Q 7.55 218.29 4.21 208.78
  Q 3.09 205.57 2.30 201.08
  Q 2.13 200.10 1.02 193.25
  Q 0.33 188.97 0.22 184.33
  Q 0.12 179.85 0.00 175.37"
/>
<path stroke="#b7b7a5" vector-effect="non-scaling-stroke" d="
  M 30.42 222.63
  Q 35.35 227.01 40.42 230.14
  Q 43.70 232.16 47.79 232.96
  Q 56.30 234.62 62.29 234.50
  C 82.77 234.10 109.29 234.44 134.27 234.23
  Q 152.63 234.08 181.75 234.23
  Q 190.47 234.28 196.25 231.72
  Q 200.45 229.87 203.84 228.23
  Q 206.86 226.78 209.36 224.82
  Q 213.26 221.76 214.37 220.62
  Q 219.14 215.73 222.23 208.49
  C 225.39 201.09 227.47 194.45 227.51 186.81
  Q 227.69 154.45 227.50 73.25
  Q 227.49 67.40 226.78 63.32
  Q 225.64 56.74 224.31 53.68
  Q 220.25 44.33 218.98 42.27
  Q 217.09 39.21 212.51 34.64
  Q 208.61 30.75 204.55 28.62
  Q 195.58 23.90 184.98 23.01
  Q 182.07 22.76 176.75 22.76
  Q 151.36 22.77 119.26 23.39
  Q 107.70 23.61 99.25 23.41
  Q 86.83 23.11 77.75 22.91
  Q 69.69 22.72 56.09 22.85
  Q 52.44 22.88 49.47 23.63
  Q 43.84 25.05 43.02 25.50
  Q 29.06 33.10 21.13 45.62
  Q 15.71 54.19 15.83 64.27
  C 15.98 77.91 16.69 96.48 16.50 112.75
  Q 16.17 140.17 15.99 167.75
  Q 15.87 186.34 15.78 189.52
  Q 15.45 201.72 20.59 210.40
  Q 24.94 217.75 30.42 222.63"
/>
<path stroke="#5b5d60" vector-effect="non-scaling-stroke" d="
  M 30.58 93.33
  Q 25.07 100.09 24.47 109.50
  Q 23.83 119.48 25.39 128.38
  Q 25.63 129.78 26.60 131.96
  Q 27.41 133.82 27.73 135.62"
/>
<path stroke="#687b81" vector-effect="non-scaling-stroke" d="
  M 27.73 135.62
  Q 34.00 150.13 46.07 160.19
  Q 50.70 164.05 60.30 169.65
  C 62.25 170.79 63.85 171.97 65.00 173.60
  Q 67.99 177.82 70.94 182.96
  Q 72.28 185.29 78.64 191.43
  C 80.18 192.92 81.68 193.78 82.83 195.30
  Q 83.54 196.23 86.05 198.21
  Q 90.42 201.66 96.79 206.39
  Q 99.24 208.21 103.46 210.61
  Q 106.92 212.58 110.17 214.79
  Q 112.79 216.58 115.47 217.97
  Q 119.70 220.15 121.11 220.65
  Q 125.47 222.19 128.35 223.52
  Q 131.91 225.18 135.58 226.07
  Q 137.93 226.64 143.00 228.18
  Q 148.46 229.83 157.25 229.45
  Q 158.12 229.41 165.38 229.11
  Q 165.89 229.09 166.30 228.80
  Q 167.03 228.28 167.50 227.94
  Q 167.96 227.60 169.36 227.32
  Q 170.69 227.05 171.77 226.24"
/>
<path stroke="#5b5d60" vector-effect="non-scaling-stroke" d="
  M 171.77 226.24
  L 172.71 225.85"
/>
<path stroke="#687b81" vector-effect="non-scaling-stroke" d="
  M 172.71 225.85
  Q 177.49 225.79 180.51 224.24
  Q 183.30 222.81 193.46 216.78
  C 195.34 215.67 196.61 214.06 198.65 212.67
  Q 203.09 209.63 205.07 207.07
  Q 207.05 204.51 209.71 200.75
  Q 212.11 197.38 213.52 193.35
  Q 214.12 191.66 216.09 185.21
  Q 217.52 180.50 217.81 176.88
  Q 218.80 164.62 214.18 153.48
  Q 213.55 151.98 214.48 148.66
  Q 214.62 148.18 215.07 147.97
  Q 216.77 147.20 216.83 144.76
  Q 216.97 139.55 216.27 136.70"
/>
<path stroke="#5b5d60" vector-effect="non-scaling-stroke" d="
  M 216.27 136.70
  C 215.84 134.52 213.22 133.91 211.67 133.15
  A 1.94 1.94 0.0 0 1 210.76 130.61
  Q 212.47 126.86 210.67 120.79
  Q 210.16 119.06 208.27 118.77
  Q 203.88 118.08 202.26 117.94
  Q 196.10 117.42 191.07 120.17"
/>
<path stroke="#687b81" vector-effect="non-scaling-stroke" d="
  M 191.07 120.17
  Q 189.58 120.48 189.48 119.03
  Q 189.39 117.68 189.26 116.34
  Q 189.18 115.53 189.30 113.66
  Q 189.42 111.89 188.84 110.13
  Q 188.73 109.77 186.62 104.10
  Q 185.72 101.67 183.33 98.82
  Q 180.81 95.82 178.54 91.49
  Q 177.00 88.54 175.39 86.66
  Q 172.68 83.50 171.73 82.43
  Q 170.75 81.32 169.62 78.48
  Q 169.03 76.99 167.54 74.60
  Q 166.22 72.51 165.33 70.17
  C 164.73 68.60 163.25 67.57 162.49 66.06
  Q 159.78 60.64 156.33 56.41
  Q 154.01 53.55 148.36 47.32
  Q 146.66 45.44 144.37 43.51
  Q 141.42 41.02 140.32 39.98
  Q 137.47 37.32 133.74 34.99
  Q 126.29 30.34 124.13 29.36
  Q 120.20 27.58 112.87 27.57"
/>
<path stroke="#5b5d60" vector-effect="non-scaling-stroke" d="
  M 112.87 27.57
  L 108.54 27.11"
/>
<path stroke="#687b81" vector-effect="non-scaling-stroke" d="
  M 108.54 27.11
  Q 97.61 26.73 94.81 27.62
  Q 92.64 28.31 91.87 28.48
  Q 90.43 28.80 89.19 29.84
  Q 87.78 31.02 84.59 32.60
  Q 82.66 33.57 77.60 38.79
  Q 77.26 39.15 76.78 39.29
  Q 74.39 40.00 69.46 40.97
  Q 67.71 41.32 63.93 42.59
  Q 61.19 43.51 58.49 44.53
  Q 54.75 45.94 49.74 49.73
  Q 47.55 51.39 41.86 57.88
  Q 37.70 62.63 36.40 67.28
  Q 33.69 76.99 36.47 86.23
  Q 36.61 86.70 36.28 87.07
  L 30.58 93.33"
/>
<path stroke="#333131" vector-effect="non-scaling-stroke" d="
  M 108.54 27.11
  C 106.51 27.32 104.42 27.16 102.56 27.71
  Q 100.13 28.43 98.06 28.66
  Q 95.66 28.92 93.71 29.94
  Q 87.73 33.05 83.57 37.57
  C 82.45 38.78 80.79 40.07 79.81 40.79
  Q 78.34 41.89 76.45 42.10
  C 72.24 42.57 69.24 42.66 65.94 44.28
  Q 63.60 45.42 62.02 45.94
  Q 58.14 47.22 57.41 47.90
  Q 53.47 51.61 48.56 53.70
  A 1.44 1.41 -87.3 0 0 47.84 54.37
  Q 47.24 55.52 46.09 55.84
  Q 45.59 55.99 45.30 56.42
  Q 40.37 63.63 39.45 65.42
  Q 35.29 73.50 36.69 82.47
  A 1.83 1.80 20.5 0 0 37.12 83.39
  Q 38.45 84.90 38.66 86.69
  Q 38.71 87.19 38.38 87.56
  Q 35.06 91.20 30.58 93.33"
/>
<path stroke="#333131" vector-effect="non-scaling-stroke" d="
  M 112.87 27.57
  Q 124.50 31.61 127.03 33.71
  Q 130.14 36.28 133.53 38.32
  Q 138.14 41.09 140.07 42.75
  Q 151.81 52.88 159.11 65.55
  Q 159.13 65.60 160.85 68.25
  Q 162.00 70.03 163.63 73.61
  Q 164.43 75.37 173.07 88.63
  Q 173.13 88.72 175.15 92.02
  Q 176.30 93.90 177.44 95.29
  Q 180.67 99.23 183.27 104.50
  Q 183.98 105.94 184.99 107.31
  C 185.61 108.13 187.73 109.98 187.95 111.77
  Q 188.39 115.20 188.76 118.63
  Q 188.87 119.63 189.18 120.11
  Q 189.90 121.26 191.07 120.17"
/>
<path stroke="#333131" vector-effect="non-scaling-stroke" d="
  M 216.27 136.70
  Q 216.48 140.60 216.08 143.26
  C 215.80 145.11 214.29 145.57 213.21 146.50
  Q 211.36 148.09 209.69 149.78
  A 0.81 0.81 0.0 0 0 209.75 150.97
  Q 213.68 154.24 215.34 158.86
  Q 216.23 161.33 216.35 164.79
  Q 216.41 166.25 216.83 170.79
  Q 217.21 174.83 216.33 178.78
  Q 215.34 183.22 214.07 187.50
  Q 212.70 192.08 210.01 195.57
  C 209.10 196.77 208.79 198.19 208.13 199.14
  Q 204.99 203.69 200.39 208.15
  Q 195.69 212.70 192.33 214.34
  Q 189.91 215.52 188.10 217.26
  Q 186.74 218.57 182.51 219.85
  Q 181.79 220.07 180.78 221.35
  A 1.62 1.60 8.5 0 1 180.07 221.87
  L 174.78 223.82
  Q 174.26 224.01 173.91 224.43
  L 172.71 225.85"
/>
<path stroke="#333131" vector-effect="non-scaling-stroke" d="
  M 171.77 226.24
  Q 170.52 226.04 168.52 226.43
  Q 159.65 228.13 148.50 227.83
  Q 145.79 227.75 140.33 226.06
  Q 139.36 225.76 138.07 224.86
  Q 136.49 223.76 135.61 223.68
  Q 130.53 223.18 129.55 222.54
  Q 125.58 219.93 121.75 218.74
  Q 120.29 218.28 119.03 217.36
  Q 117.50 216.24 116.18 215.61
  Q 112.97 214.08 111.87 213.40
  Q 107.15 210.46 102.83 207.92
  C 100.25 206.41 97.79 204.42 95.80 202.97
  Q 92.73 200.71 91.03 199.07
  Q 87.77 195.94 85.28 193.91
  Q 82.30 191.48 79.27 188.11
  Q 73.99 182.21 70.54 178.18
  C 68.68 176.00 68.21 174.48 67.06 171.43
  A 1.77 1.73 8.3 0 0 66.48 170.67
  Q 64.67 169.34 64.13 168.80
  Q 63.07 167.71 61.41 166.75
  Q 52.30 161.47 44.26 155.80
  Q 41.89 154.14 39.95 151.94
  Q 37.09 148.71 36.22 147.31
  Q 31.30 139.41 27.73 135.62"
/>
<path stroke="#855737" vector-effect="non-scaling-stroke" d="
  M 124.99 197.79
  Q 133.42 203.98 141.52 205.82
  Q 164.21 210.97 183.59 195.59
  Q 192.76 188.32 196.15 175.46
  Q 196.91 172.57 197.43 167.00
  Q 197.73 163.71 198.43 158.46
  Q 199.08 153.53 202.47 152.10
  Q 202.97 151.89 203.18 151.39
  C 203.89 149.77 203.13 148.88 201.68 148.06
  C 199.41 146.77 195.87 145.06 195.06 143.16
  C 194.15 141.01 194.62 138.13 195.51 135.94
  A 1.50 1.50 0.0 0 0 194.55 133.94
  Q 191.50 133.03 188.73 129.52"
/>
<path stroke="#8c7970" vector-effect="non-scaling-stroke" d="
  M 188.73 129.52
  Q 187.12 127.31 186.78 125.19
  Q 186.47 123.20 186.05 122.43
  Q 185.82 122.00 185.33 122.05
  Q 179.24 122.66 176.46 120.05
  Q 172.15 116.00 161.85 103.49
  Q 157.92 98.70 152.02 89.93
  Q 150.49 87.66 142.32 75.86
  Q 137.24 68.54 131.23 62.31
  Q 122.28 53.02 111.22 48.79
  Q 106.49 46.97 101.77 48.27
  A 0.91 0.91 0.0 0 0 101.53 49.92
  Q 113.35 57.43 120.10 67.07
  C 122.36 70.31 120.71 72.02 118.26 74.51
  Q 116.82 75.96 115.30 75.54
  Q 111.95 74.61 107.73 71.63
  Q 100.41 66.48 94.02 64.30
  C 89.80 62.86 83.77 62.16 79.61 61.37
  C 75.73 60.63 72.45 61.05 69.20 62.47
  Q 64.95 64.32 60.41 67.94
  C 56.99 70.66 52.96 77.80 56.81 81.34
  Q 57.99 82.42 61.97 82.67
  Q 73.69 83.40 83.96 89.80
  C 87.32 91.89 86.27 95.55 84.91 98.68
  C 83.85 101.09 80.42 100.87 78.19 100.61
  Q 72.64 99.97 65.34 97.97
  Q 61.24 96.85 58.29 97.52
  C 52.89 98.76 44.68 103.51 43.82 109.84
  C 42.89 116.71 43.83 123.22 47.39 129.36
  C 52.84 138.79 61.51 145.99 71.29 151.21
  Q 76.68 154.09 81.21 156.55
  C 84.83 158.52 84.82 162.14 85.02 166.28
  C 85.14 168.65 85.82 169.70 87.55 171.29
  Q 95.51 178.60 102.86 184.34
  Q 105.91 186.72 113.31 190.82
  Q 119.14 194.05 124.99 197.79"
/>
<path stroke="#eabd96" vector-effect="non-scaling-stroke" d="
  M 188.73 129.52
  Q 186.90 135.74 186.82 142.22
  Q 186.76 146.66 186.31 148.36
  Q 185.70 150.67 184.13 154.15
  C 180.39 162.49 174.83 168.53 167.83 174.95
  Q 149.38 191.85 124.99 197.79"
/>
</g>
<path fill="#ffffff" fill-opacity="0" d="
  M 264.00 0.00
  L 264.00 245.00
  L 193.22 245.00
  Q 202.63 244.53 211.18 241.20
  Q 214.28 239.99 217.59 237.83
  Q 222.28 234.77 223.35 233.35
  Q 226.32 229.45 229.38 225.63
  Q 230.36 224.41 235.20 214.99
  Q 237.45 210.60 238.41 207.01
  Q 240.04 200.84 239.98 198.50
  Q 239.67 187.38 239.45 170.00
  Q 238.89 127.00 239.57 68.60
  Q 239.57 68.51 239.69 63.95
  Q 239.94 54.18 236.99 45.51
  Q 235.39 40.79 230.46 32.92
  Q 226.88 27.21 221.85 23.36
  Q 215.57 18.54 210.58 16.42
  Q 203.34 13.34 196.78 11.16
  Q 193.32 10.01 187.36 9.08
  Q 180.98 8.10 177.82 7.42
  Q 175.24 6.86 170.73 6.88
  Q 106.67 7.12 82.50 7.05
  Q 65.77 7.01 59.68 8.14
  Q 55.44 8.92 54.63 8.99
  Q 51.27 9.25 49.61 9.74
  C 44.50 11.26 36.65 12.56 31.63 15.62
  Q 27.46 18.17 20.24 24.37
  Q 14.86 28.99 10.76 35.04
  C 6.89 40.74 3.10 47.68 2.24 54.29
  C 1.89 57.05 0.53 59.77 0.31 62.70
  Q 0.20 64.18 0.00 65.62
  L 0.00 0.00
  L 264.00 0.00
  Z"
/>
<path fill="#dec69a" d="
  M 193.22 245.00
  L 183.99 245.00
  L 60.39 245.00
  L 41.10 245.00
  Q 31.15 243.26 23.71 236.79
  Q 16.89 230.87 12.42 224.86
  Q 7.55 218.29 4.21 208.78
  Q 3.09 205.57 2.30 201.08
  Q 2.13 200.10 1.02 193.25
  Q 0.33 188.97 0.22 184.33
  Q 0.12 179.85 0.00 175.37
  L 0.00 65.62
  Q 0.20 64.18 0.31 62.70
  C 0.53 59.77 1.89 57.05 2.24 54.29
  C 3.10 47.68 6.89 40.74 10.76 35.04
  Q 14.86 28.99 20.24 24.37
  Q 27.46 18.17 31.63 15.62
  C 36.65 12.56 44.50 11.26 49.61 9.74
  Q 51.27 9.25 54.63 8.99
  Q 55.44 8.92 59.68 8.14
  Q 65.77 7.01 82.50 7.05
  Q 106.67 7.12 170.73 6.88
  Q 175.24 6.86 177.82 7.42
  Q 180.98 8.10 187.36 9.08
  Q 193.32 10.01 196.78 11.16
  Q 203.34 13.34 210.58 16.42
  Q 215.57 18.54 221.85 23.36
  Q 226.88 27.21 230.46 32.92
  Q 235.39 40.79 236.99 45.51
  Q 239.94 54.18 239.69 63.95
  Q 239.57 68.51 239.57 68.60
  Q 238.89 127.00 239.45 170.00
  Q 239.67 187.38 239.98 198.50
  Q 240.04 200.84 238.41 207.01
  Q 237.45 210.60 235.20 214.99
  Q 230.36 224.41 229.38 225.63
  Q 226.32 229.45 223.35 233.35
  Q 222.28 234.77 217.59 237.83
  Q 214.28 239.99 211.18 241.20
  Q 202.63 244.53 193.22 245.00
  Z
  M 30.42 222.63
  Q 35.35 227.01 40.42 230.14
  Q 43.70 232.16 47.79 232.96
  Q 56.30 234.62 62.29 234.50
  C 82.77 234.10 109.29 234.44 134.27 234.23
  Q 152.63 234.08 181.75 234.23
  Q 190.47 234.28 196.25 231.72
  Q 200.45 229.87 203.84 228.23
  Q 206.86 226.78 209.36 224.82
  Q 213.26 221.76 214.37 220.62
  Q 219.14 215.73 222.23 208.49
  C 225.39 201.09 227.47 194.45 227.51 186.81
  Q 227.69 154.45 227.50 73.25
  Q 227.49 67.40 226.78 63.32
  Q 225.64 56.74 224.31 53.68
  Q 220.25 44.33 218.98 42.27
  Q 217.09 39.21 212.51 34.64
  Q 208.61 30.75 204.55 28.62
  Q 195.58 23.90 184.98 23.01
  Q 182.07 22.76 176.75 22.76
  Q 151.36 22.77 119.26 23.39
  Q 107.70 23.61 99.25 23.41
  Q 86.83 23.11 77.75 22.91
  Q 69.69 22.72 56.09 22.85
  Q 52.44 22.88 49.47 23.63
  Q 43.84 25.05 43.02 25.50
  Q 29.06 33.10 21.13 45.62
  Q 15.71 54.19 15.83 64.27
  C 15.98 77.91 16.69 96.48 16.50 112.75
  Q 16.17 140.17 15.99 167.75
  Q 15.87 186.34 15.78 189.52
  Q 15.45 201.72 20.59 210.40
  Q 24.94 217.75 30.42 222.63
  Z"
/>
<path fill="#90a7b0" d="
  M 30.42 222.63
  Q 24.94 217.75 20.59 210.40
  Q 15.45 201.72 15.78 189.52
  Q 15.87 186.34 15.99 167.75
  Q 16.17 140.17 16.50 112.75
  C 16.69 96.48 15.98 77.91 15.83 64.27
  Q 15.71 54.19 21.13 45.62
  Q 29.06 33.10 43.02 25.50
  Q 43.84 25.05 49.47 23.63
  Q 52.44 22.88 56.09 22.85
  Q 69.69 22.72 77.75 22.91
  Q 86.83 23.11 99.25 23.41
  Q 107.70 23.61 119.26 23.39
  Q 151.36 22.77 176.75 22.76
  Q 182.07 22.76 184.98 23.01
  Q 195.58 23.90 204.55 28.62
  Q 208.61 30.75 212.51 34.64
  Q 217.09 39.21 218.98 42.27
  Q 220.25 44.33 224.31 53.68
  Q 225.64 56.74 226.78 63.32
  Q 227.49 67.40 227.50 73.25
  Q 227.69 154.45 227.51 186.81
  C 227.47 194.45 225.39 201.09 222.23 208.49
  Q 219.14 215.73 214.37 220.62
  Q 213.26 221.76 209.36 224.82
  Q 206.86 226.78 203.84 228.23
  Q 200.45 229.87 196.25 231.72
  Q 190.47 234.28 181.75 234.23
  Q 152.63 234.08 134.27 234.23
  C 109.29 234.44 82.77 234.10 62.29 234.50
  Q 56.30 234.62 47.79 232.96
  Q 43.70 232.16 40.42 230.14
  Q 35.35 227.01 30.42 222.63
  Z
  M 30.58 93.33
  Q 25.07 100.09 24.47 109.50
  Q 23.83 119.48 25.39 128.38
  Q 25.63 129.78 26.60 131.96
  Q 27.41 133.82 27.73 135.62
  Q 34.00 150.13 46.07 160.19
  Q 50.70 164.05 60.30 169.65
  C 62.25 170.79 63.85 171.97 65.00 173.60
  Q 67.99 177.82 70.94 182.96
  Q 72.28 185.29 78.64 191.43
  C 80.18 192.92 81.68 193.78 82.83 195.30
  Q 83.54 196.23 86.05 198.21
  Q 90.42 201.66 96.79 206.39
  Q 99.24 208.21 103.46 210.61
  Q 106.92 212.58 110.17 214.79
  Q 112.79 216.58 115.47 217.97
  Q 119.70 220.15 121.11 220.65
  Q 125.47 222.19 128.35 223.52
  Q 131.91 225.18 135.58 226.07
  Q 137.93 226.64 143.00 228.18
  Q 148.46 229.83 157.25 229.45
  Q 158.12 229.41 165.38 229.11
  Q 165.89 229.09 166.30 228.80
  Q 167.03 228.28 167.50 227.94
  Q 167.96 227.60 169.36 227.32
  Q 170.69 227.05 171.77 226.24
  L 172.71 225.85
  Q 177.49 225.79 180.51 224.24
  Q 183.30 222.81 193.46 216.78
  C 195.34 215.67 196.61 214.06 198.65 212.67
  Q 203.09 209.63 205.07 207.07
  Q 207.05 204.51 209.71 200.75
  Q 212.11 197.38 213.52 193.35
  Q 214.12 191.66 216.09 185.21
  Q 217.52 180.50 217.81 176.88
  Q 218.80 164.62 214.18 153.48
  Q 213.55 151.98 214.48 148.66
  Q 214.62 148.18 215.07 147.97
  Q 216.77 147.20 216.83 144.76
  Q 216.97 139.55 216.27 136.70
  C 215.84 134.52 213.22 133.91 211.67 133.15
  A 1.94 1.94 0.0 0 1 210.76 130.61
  Q 212.47 126.86 210.67 120.79
  Q 210.16 119.06 208.27 118.77
  Q 203.88 118.08 202.26 117.94
  Q 196.10 117.42 191.07 120.17
  Q 189.58 120.48 189.48 119.03
  Q 189.39 117.68 189.26 116.34
  Q 189.18 115.53 189.30 113.66
  Q 189.42 111.89 188.84 110.13
  Q 188.73 109.77 186.62 104.10
  Q 185.72 101.67 183.33 98.82
  Q 180.81 95.82 178.54 91.49
  Q 177.00 88.54 175.39 86.66
  Q 172.68 83.50 171.73 82.43
  Q 170.75 81.32 169.62 78.48
  Q 169.03 76.99 167.54 74.60
  Q 166.22 72.51 165.33 70.17
  C 164.73 68.60 163.25 67.57 162.49 66.06
  Q 159.78 60.64 156.33 56.41
  Q 154.01 53.55 148.36 47.32
  Q 146.66 45.44 144.37 43.51
  Q 141.42 41.02 140.32 39.98
  Q 137.47 37.32 133.74 34.99
  Q 126.29 30.34 124.13 29.36
  Q 120.20 27.58 112.87 27.57
  L 108.54 27.11
  Q 97.61 26.73 94.81 27.62
  Q 92.64 28.31 91.87 28.48
  Q 90.43 28.80 89.19 29.84
  Q 87.78 31.02 84.59 32.60
  Q 82.66 33.57 77.60 38.79
  Q 77.26 39.15 76.78 39.29
  Q 74.39 40.00 69.46 40.97
  Q 67.71 41.32 63.93 42.59
  Q 61.19 43.51 58.49 44.53
  Q 54.75 45.94 49.74 49.73
  Q 47.55 51.39 41.86 57.88
  Q 37.70 62.63 36.40 67.28
  Q 33.69 76.99 36.47 86.23
  Q 36.61 86.70 36.28 87.07
  L 30.58 93.33
  Z"
/>
<path fill="#3f4e52" d="
  M 108.54 27.11
  C 106.51 27.32 104.42 27.16 102.56 27.71
  Q 100.13 28.43 98.06 28.66
  Q 95.66 28.92 93.71 29.94
  Q 87.73 33.05 83.57 37.57
  C 82.45 38.78 80.79 40.07 79.81 40.79
  Q 78.34 41.89 76.45 42.10
  C 72.24 42.57 69.24 42.66 65.94 44.28
  Q 63.60 45.42 62.02 45.94
  Q 58.14 47.22 57.41 47.90
  Q 53.47 51.61 48.56 53.70
  A 1.44 1.41 -87.3 0 0 47.84 54.37
  Q 47.24 55.52 46.09 55.84
  Q 45.59 55.99 45.30 56.42
  Q 40.37 63.63 39.45 65.42
  Q 35.29 73.50 36.69 82.47
  A 1.83 1.80 20.5 0 0 37.12 83.39
  Q 38.45 84.90 38.66 86.69
  Q 38.71 87.19 38.38 87.56
  Q 35.06 91.20 30.58 93.33
  L 36.28 87.07
  Q 36.61 86.70 36.47 86.23
  Q 33.69 76.99 36.40 67.28
  Q 37.70 62.63 41.86 57.88
  Q 47.55 51.39 49.74 49.73
  Q 54.75 45.94 58.49 44.53
  Q 61.19 43.51 63.93 42.59
  Q 67.71 41.32 69.46 40.97
  Q 74.39 40.00 76.78 39.29
  Q 77.26 39.15 77.60 38.79
  Q 82.66 33.57 84.59 32.60
  Q 87.78 31.02 89.19 29.84
  Q 90.43 28.80 91.87 28.48
  Q 92.64 28.31 94.81 27.62
  Q 97.61 26.73 108.54 27.11
  Z"
/>
<path fill="#261310" d="
  M 108.54 27.11
  L 112.87 27.57
  Q 124.50 31.61 127.03 33.71
  Q 130.14 36.28 133.53 38.32
  Q 138.14 41.09 140.07 42.75
  Q 151.81 52.88 159.11 65.55
  Q 159.13 65.60 160.85 68.25
  Q 162.00 70.03 163.63 73.61
  Q 164.43 75.37 173.07 88.63
  Q 173.13 88.72 175.15 92.02
  Q 176.30 93.90 177.44 95.29
  Q 180.67 99.23 183.27 104.50
  Q 183.98 105.94 184.99 107.31
  C 185.61 108.13 187.73 109.98 187.95 111.77
  Q 188.39 115.20 188.76 118.63
  Q 188.87 119.63 189.18 120.11
  Q 189.90 121.26 191.07 120.17
  Q 196.10 117.42 202.26 117.94
  Q 203.88 118.08 208.27 118.77
  Q 210.16 119.06 210.67 120.79
  Q 212.47 126.86 210.76 130.61
  A 1.94 1.94 0.0 0 0 211.67 133.15
  C 213.22 133.91 215.84 134.52 216.27 136.70
  Q 216.48 140.60 216.08 143.26
  C 215.80 145.11 214.29 145.57 213.21 146.50
  Q 211.36 148.09 209.69 149.78
  A 0.81 0.81 0.0 0 0 209.75 150.97
  Q 213.68 154.24 215.34 158.86
  Q 216.23 161.33 216.35 164.79
  Q 216.41 166.25 216.83 170.79
  Q 217.21 174.83 216.33 178.78
  Q 215.34 183.22 214.07 187.50
  Q 212.70 192.08 210.01 195.57
  C 209.10 196.77 208.79 198.19 208.13 199.14
  Q 204.99 203.69 200.39 208.15
  Q 195.69 212.70 192.33 214.34
  Q 189.91 215.52 188.10 217.26
  Q 186.74 218.57 182.51 219.85
  Q 181.79 220.07 180.78 221.35
  A 1.62 1.60 8.5 0 1 180.07 221.87
  L 174.78 223.82
  Q 174.26 224.01 173.91 224.43
  L 172.71 225.85
  L 171.77 226.24
  Q 170.52 226.04 168.52 226.43
  Q 159.65 228.13 148.50 227.83
  Q 145.79 227.75 140.33 226.06
  Q 139.36 225.76 138.07 224.86
  Q 136.49 223.76 135.61 223.68
  Q 130.53 223.18 129.55 222.54
  Q 125.58 219.93 121.75 218.74
  Q 120.29 218.28 119.03 217.36
  Q 117.50 216.24 116.18 215.61
  Q 112.97 214.08 111.87 213.40
  Q 107.15 210.46 102.83 207.92
  C 100.25 206.41 97.79 204.42 95.80 202.97
  Q 92.73 200.71 91.03 199.07
  Q 87.77 195.94 85.28 193.91
  Q 82.30 191.48 79.27 188.11
  Q 73.99 182.21 70.54 178.18
  C 68.68 176.00 68.21 174.48 67.06 171.43
  A 1.77 1.73 8.3 0 0 66.48 170.67
  Q 64.67 169.34 64.13 168.80
  Q 63.07 167.71 61.41 166.75
  Q 52.30 161.47 44.26 155.80
  Q 41.89 154.14 39.95 151.94
  Q 37.09 148.71 36.22 147.31
  Q 31.30 139.41 27.73 135.62
  Q 27.41 133.82 26.60 131.96
  Q 25.63 129.78 25.39 128.38
  Q 23.83 119.48 24.47 109.50
  Q 25.07 100.09 30.58 93.33
  Q 35.06 91.20 38.38 87.56
  Q 38.71 87.19 38.66 86.69
  Q 38.45 84.90 37.12 83.39
  A 1.83 1.80 20.5 0 1 36.69 82.47
  Q 35.29 73.50 39.45 65.42
  Q 40.37 63.63 45.30 56.42
  Q 45.59 55.99 46.09 55.84
  Q 47.24 55.52 47.84 54.37
  A 1.44 1.41 -87.3 0 1 48.56 53.70
  Q 53.47 51.61 57.41 47.90
  Q 58.14 47.22 62.02 45.94
  Q 63.60 45.42 65.94 44.28
  C 69.24 42.66 72.24 42.57 76.45 42.10
  Q 78.34 41.89 79.81 40.79
  C 80.79 40.07 82.45 38.78 83.57 37.57
  Q 87.73 33.05 93.71 29.94
  Q 95.66 28.92 98.06 28.66
  Q 100.13 28.43 102.56 27.71
  C 104.42 27.16 106.51 27.32 108.54 27.11
  Z
  M 124.99 197.79
  Q 133.42 203.98 141.52 205.82
  Q 164.21 210.97 183.59 195.59
  Q 192.76 188.32 196.15 175.46
  Q 196.91 172.57 197.43 167.00
  Q 197.73 163.71 198.43 158.46
  Q 199.08 153.53 202.47 152.10
  Q 202.97 151.89 203.18 151.39
  C 203.89 149.77 203.13 148.88 201.68 148.06
  C 199.41 146.77 195.87 145.06 195.06 143.16
  C 194.15 141.01 194.62 138.13 195.51 135.94
  A 1.50 1.50 0.0 0 0 194.55 133.94
  Q 191.50 133.03 188.73 129.52
  Q 187.12 127.31 186.78 125.19
  Q 186.47 123.20 186.05 122.43
  Q 185.82 122.00 185.33 122.05
  Q 179.24 122.66 176.46 120.05
  Q 172.15 116.00 161.85 103.49
  Q 157.92 98.70 152.02 89.93
  Q 150.49 87.66 142.32 75.86
  Q 137.24 68.54 131.23 62.31
  Q 122.28 53.02 111.22 48.79
  Q 106.49 46.97 101.77 48.27
  A 0.91 0.91 0.0 0 0 101.53 49.92
  Q 113.35 57.43 120.10 67.07
  C 122.36 70.31 120.71 72.02 118.26 74.51
  Q 116.82 75.96 115.30 75.54
  Q 111.95 74.61 107.73 71.63
  Q 100.41 66.48 94.02 64.30
  C 89.80 62.86 83.77 62.16 79.61 61.37
  C 75.73 60.63 72.45 61.05 69.20 62.47
  Q 64.95 64.32 60.41 67.94
  C 56.99 70.66 52.96 77.80 56.81 81.34
  Q 57.99 82.42 61.97 82.67
  Q 73.69 83.40 83.96 89.80
  C 87.32 91.89 86.27 95.55 84.91 98.68
  C 83.85 101.09 80.42 100.87 78.19 100.61
  Q 72.64 99.97 65.34 97.97
  Q 61.24 96.85 58.29 97.52
  C 52.89 98.76 44.68 103.51 43.82 109.84
  C 42.89 116.71 43.83 123.22 47.39 129.36
  C 52.84 138.79 61.51 145.99 71.29 151.21
  Q 76.68 154.09 81.21 156.55
  C 84.83 158.52 84.82 162.14 85.02 166.28
  C 85.14 168.65 85.82 169.70 87.55 171.29
  Q 95.51 178.60 102.86 184.34
  Q 105.91 186.72 113.31 190.82
  Q 119.14 194.05 124.99 197.79
  Z"
/>
<path fill="#3f4e52" d="
  M 112.87 27.57
  Q 120.20 27.58 124.13 29.36
  Q 126.29 30.34 133.74 34.99
  Q 137.47 37.32 140.32 39.98
  Q 141.42 41.02 144.37 43.51
  Q 146.66 45.44 148.36 47.32
  Q 154.01 53.55 156.33 56.41
  Q 159.78 60.64 162.49 66.06
  C 163.25 67.57 164.73 68.60 165.33 70.17
  Q 166.22 72.51 167.54 74.60
  Q 169.03 76.99 169.62 78.48
  Q 170.75 81.32 171.73 82.43
  Q 172.68 83.50 175.39 86.66
  Q 177.00 88.54 178.54 91.49
  Q 180.81 95.82 183.33 98.82
  Q 185.72 101.67 186.62 104.10
  Q 188.73 109.77 188.84 110.13
  Q 189.42 111.89 189.30 113.66
  Q 189.18 115.53 189.26 116.34
  Q 189.39 117.68 189.48 119.03
  Q 189.58 120.48 191.07 120.17
  Q 189.90 121.26 189.18 120.11
  Q 188.87 119.63 188.76 118.63
  Q 188.39 115.20 187.95 111.77
  C 187.73 109.98 185.61 108.13 184.99 107.31
  Q 183.98 105.94 183.27 104.50
  Q 180.67 99.23 177.44 95.29
  Q 176.30 93.90 175.15 92.02
  Q 173.13 88.72 173.07 88.63
  Q 164.43 75.37 163.63 73.61
  Q 162.00 70.03 160.85 68.25
  Q 159.13 65.60 159.11 65.55
  Q 151.81 52.88 140.07 42.75
  Q 138.14 41.09 133.53 38.32
  Q 130.14 36.28 127.03 33.71
  Q 124.50 31.61 112.87 27.57
  Z"
/>
<path fill="#f1dfcf" d="
  M 188.73 129.52
  Q 186.90 135.74 186.82 142.22
  Q 186.76 146.66 186.31 148.36
  Q 185.70 150.67 184.13 154.15
  C 180.39 162.49 174.83 168.53 167.83 174.95
  Q 149.38 191.85 124.99 197.79
  Q 119.14 194.05 113.31 190.82
  Q 105.91 186.72 102.86 184.34
  Q 95.51 178.60 87.55 171.29
  C 85.82 169.70 85.14 168.65 85.02 166.28
  C 84.82 162.14 84.83 158.52 81.21 156.55
  Q 76.68 154.09 71.29 151.21
  C 61.51 145.99 52.84 138.79 47.39 129.36
  C 43.83 123.22 42.89 116.71 43.82 109.84
  C 44.68 103.51 52.89 98.76 58.29 97.52
  Q 61.24 96.85 65.34 97.97
  Q 72.64 99.97 78.19 100.61
  C 80.42 100.87 83.85 101.09 84.91 98.68
  C 86.27 95.55 87.32 91.89 83.96 89.80
  Q 73.69 83.40 61.97 82.67
  Q 57.99 82.42 56.81 81.34
  C 52.96 77.80 56.99 70.66 60.41 67.94
  Q 64.95 64.32 69.20 62.47
  C 72.45 61.05 75.73 60.63 79.61 61.37
  C 83.77 62.16 89.80 62.86 94.02 64.30
  Q 100.41 66.48 107.73 71.63
  Q 111.95 74.61 115.30 75.54
  Q 116.82 75.96 118.26 74.51
  C 120.71 72.02 122.36 70.31 120.10 67.07
  Q 113.35 57.43 101.53 49.92
  A 0.91 0.91 0.0 0 1 101.77 48.27
  Q 106.49 46.97 111.22 48.79
  Q 122.28 53.02 131.23 62.31
  Q 137.24 68.54 142.32 75.86
  Q 150.49 87.66 152.02 89.93
  Q 157.92 98.70 161.85 103.49
  Q 172.15 116.00 176.46 120.05
  Q 179.24 122.66 185.33 122.05
  Q 185.82 122.00 186.05 122.43
  Q 186.47 123.20 186.78 125.19
  Q 187.12 127.31 188.73 129.52
  Z"
/>
<path fill="#e39b5d" d="
  M 188.73 129.52
  Q 191.50 133.03 194.55 133.94
  A 1.50 1.50 0.0 0 1 195.51 135.94
  C 194.62 138.13 194.15 141.01 195.06 143.16
  C 195.87 145.06 199.41 146.77 201.68 148.06
  C 203.13 148.88 203.89 149.77 203.18 151.39
  Q 202.97 151.89 202.47 152.10
  Q 199.08 153.53 198.43 158.46
  Q 197.73 163.71 197.43 167.00
  Q 196.91 172.57 196.15 175.46
  Q 192.76 188.32 183.59 195.59
  Q 164.21 210.97 141.52 205.82
  Q 133.42 203.98 124.99 197.79
  Q 149.38 191.85 167.83 174.95
  C 174.83 168.53 180.39 162.49 184.13 154.15
  Q 185.70 150.67 186.31 148.36
  Q 186.76 146.66 186.82 142.22
  Q 186.90 135.74 188.73 129.52
  Z"
/>
<path fill="#3f4e52" d="
  M 171.77 226.24
  Q 170.69 227.05 169.36 227.32
  Q 167.96 227.60 167.50 227.94
  Q 167.03 228.28 166.30 228.80
  Q 165.89 229.09 165.38 229.11
  Q 158.12 229.41 157.25 229.45
  Q 148.46 229.83 143.00 228.18
  Q 137.93 226.64 135.58 226.07
  Q 131.91 225.18 128.35 223.52
  Q 125.47 222.19 121.11 220.65
  Q 119.70 220.15 115.47 217.97
  Q 112.79 216.58 110.17 214.79
  Q 106.92 212.58 103.46 210.61
  Q 99.24 208.21 96.79 206.39
  Q 90.42 201.66 86.05 198.21
  Q 83.54 196.23 82.83 195.30
  C 81.68 193.78 80.18 192.92 78.64 191.43
  Q 72.28 185.29 70.94 182.96
  Q 67.99 177.82 65.00 173.60
  C 63.85 171.97 62.25 170.79 60.30 169.65
  Q 50.70 164.05 46.07 160.19
  Q 34.00 150.13 27.73 135.62
  Q 31.30 139.41 36.22 147.31
  Q 37.09 148.71 39.95 151.94
  Q 41.89 154.14 44.26 155.80
  Q 52.30 161.47 61.41 166.75
  Q 63.07 167.71 64.13 168.80
  Q 64.67 169.34 66.48 170.67
  A 1.77 1.73 8.3 0 1 67.06 171.43
  C 68.21 174.48 68.68 176.00 70.54 178.18
  Q 73.99 182.21 79.27 188.11
  Q 82.30 191.48 85.28 193.91
  Q 87.77 195.94 91.03 199.07
  Q 92.73 200.71 95.80 202.97
  C 97.79 204.42 100.25 206.41 102.83 207.92
  Q 107.15 210.46 111.87 213.40
  Q 112.97 214.08 116.18 215.61
  Q 117.50 216.24 119.03 217.36
  Q 120.29 218.28 121.75 218.74
  Q 125.58 219.93 129.55 222.54
  Q 130.53 223.18 135.61 223.68
  Q 136.49 223.76 138.07 224.86
  Q 139.36 225.76 140.33 226.06
  Q 145.79 227.75 148.50 227.83
  Q 159.65 228.13 168.52 226.43
  Q 170.52 226.04 171.77 226.24
  Z"
/>
<path fill="#3f4e52" d="
  M 172.71 225.85
  L 173.91 224.43
  Q 174.26 224.01 174.78 223.82
  L 180.07 221.87
  A 1.62 1.60 8.5 0 0 180.78 221.35
  Q 181.79 220.07 182.51 219.85
  Q 186.74 218.57 188.10 217.26
  Q 189.91 215.52 192.33 214.34
  Q 195.69 212.70 200.39 208.15
  Q 204.99 203.69 208.13 199.14
  C 208.79 198.19 209.10 196.77 210.01 195.57
  Q 212.70 192.08 214.07 187.50
  Q 215.34 183.22 216.33 178.78
  Q 217.21 174.83 216.83 170.79
  Q 216.41 166.25 216.35 164.79
  Q 216.23 161.33 215.34 158.86
  Q 213.68 154.24 209.75 150.97
  A 0.81 0.81 0.0 0 1 209.69 149.78
  Q 211.36 148.09 213.21 146.50
  C 214.29 145.57 215.80 145.11 216.08 143.26
  Q 216.48 140.60 216.27 136.70
  Q 216.97 139.55 216.83 144.76
  Q 216.77 147.20 215.07 147.97
  Q 214.62 148.18 214.48 148.66
  Q 213.55 151.98 214.18 153.48
  Q 218.80 164.62 217.81 176.88
  Q 217.52 180.50 216.09 185.21
  Q 214.12 191.66 213.52 193.35
  Q 212.11 197.38 209.71 200.75
  Q 207.05 204.51 205.07 207.07
  Q 203.09 209.63 198.65 212.67
  C 196.61 214.06 195.34 215.67 193.46 216.78
  Q 183.30 222.81 180.51 224.24
  Q 177.49 225.79 172.71 225.85
  Z"
/>
<path fill="#ffffff" fill-opacity="0" d="
  M 41.10 245.00
  L 0.00 245.00
  L 0.00 175.37
  Q 0.12 179.85 0.22 184.33
  Q 0.33 188.97 1.02 193.25
  Q 2.13 200.10 2.30 201.08
  Q 3.09 205.57 4.21 208.78
  Q 7.55 218.29 12.42 224.86
  Q 16.89 230.87 23.71 236.79
  Q 31.15 243.26 41.10 245.00
  Z"
/>
<path fill="#ffffff" fill-opacity="0" d="
  M 183.99 245.00
  L 60.39 245.00
  L 183.99 245.00
  Z"
/>
</svg>
