<?xml version="1.0" encoding="UTF-8" standalone="no"?>
<!DOCTYPE svg PUBLIC "-//W3C//DTD SVG 1.1//EN" "http://www.w3.org/Graphics/SVG/1.1/DTD/svg11.dtd">
<svg xmlns="http://www.w3.org/2000/svg" version="1.1" viewBox="0.00 0.00 181.00 189.00">
<g stroke-width="2.00" fill="none" stroke-linecap="butt">
<path stroke="#808080" vector-effect="non-scaling-stroke" d="
  M 165.38 95.33
  A 77.82 77.82 0.0 0 0 87.56 17.51
  A 77.82 77.82 0.0 0 0 9.74 95.33
  A 77.82 77.82 0.0 0 0 87.56 173.15
  A 77.82 77.82 0.0 0 0 165.38 95.33"
/>
<path stroke="#808080" vector-effect="non-scaling-stroke" d="
  M 157.23 95.33
  A 69.67 69.67 0.0 0 0 87.56 25.66
  A 69.67 69.67 0.0 0 0 17.89 95.33
  A 69.67 69.67 0.0 0 0 87.56 165.00
  A 69.67 69.67 0.0 0 0 157.23 95.33"
/>
<path stroke="#808080" vector-effect="non-scaling-stroke" d="
  M 69.87 72.68
  L 55.66 58.64
  Q 52.92 55.94 50.05 59.06
  Q 50.03 59.09 49.94 59.19
  Q 47.31 62.11 50.34 65.15
  L 118.29 133.21
  Q 121.06 135.99 124.33 133.90
  Q 124.62 133.72 125.53 132.20
  A 3.29 3.29 0.0 0 0 125.21 128.39
  Q 121.92 124.53 119.25 122.25
  Q 118.79 121.85 119.10 121.33
  Q 130.46 102.46 124.58 80.97
  Q 122.15 72.10 115.30 63.42
  Q 112.91 60.40 109.67 62.43
  Q 109.65 62.45 109.54 62.52
  Q 106.34 64.68 108.29 67.89
  C 110.01 70.74 112.05 73.14 113.50 76.12
  Q 122.90 95.38 112.88 115.41
  Q 112.84 115.49 112.77 115.43
  Q 110.04 113.22 107.89 110.66
  A 0.54 0.53 37.2 0 1 107.81 110.12
  Q 115.23 92.71 106.14 77.13
  Q 105.27 75.63 103.92 74.13
  C 101.65 71.62 98.18 72.63 96.89 75.37
  C 95.73 77.86 98.67 81.17 99.32 82.35
  Q 104.90 92.54 101.24 103.45
  A 0.36 0.36 0.0 0 1 100.65 103.58
  L 90.63 93.56
  A 1.87 1.86 22.4 0 1 90.07 92.23
  L 89.99 57.69
  Q 89.98 55.56 88.08 55.80
  Q 87.68 55.85 86.47 56.98
  Q 80.63 62.42 70.14 72.69
  A 0.20 0.18 45.0 0 1 69.87 72.68"
/>
<path stroke="#808080" vector-effect="non-scaling-stroke" d="
  M 66.89 113.97
  A 4.06 3.97 77.6 0 1 68.14 114.79
  Q 76.60 122.98 87.01 132.92
  Q 87.39 133.29 88.57 133.43
  A 1.33 1.33 0.0 0 0 90.04 132.11
  L 90.04 115.44
  A 1.04 1.02 -67.9 0 0 89.74 114.71
  L 51.99 76.96
  A 2.00 2.00 0.0 0 0 48.58 78.37
  L 48.58 110.32
  Q 48.58 113.18 51.43 113.19
  Q 62.49 113.24 63.25 113.26
  Q 65.29 113.31 66.89 113.97"
/>
</g>
<path fill="#ffffff" fill-opacity="0" d="
  M 181.00 0.00
  L 181.00 189.00
  L 0.00 189.00
  L 0.00 0.00
  L 181.00 0.00
  Z
  M 165.38 95.33
  A 77.82 77.82 0.0 0 0 87.56 17.51
  A 77.82 77.82 0.0 0 0 9.74 95.33
  A 77.82 77.82 0.0 0 0 87.56 173.15
  A 77.82 77.82 0.0 0 0 165.38 95.33
  Z"
/>
<path fill="#010101" d="
  M 165.38 95.33
  A 77.82 77.82 0.0 0 1 87.56 173.15
  A 77.82 77.82 0.0 0 1 9.74 95.33
  A 77.82 77.82 0.0 0 1 87.56 17.51
  A 77.82 77.82 0.0 0 1 165.38 95.33
  Z
  M 157.23 95.33
  A 69.67 69.67 0.0 0 0 87.56 25.66
  A 69.67 69.67 0.0 0 0 17.89 95.33
  A 69.67 69.67 0.0 0 0 87.56 165.00
  A 69.67 69.67 0.0 0 0 157.23 95.33
  Z"
/>
<path fill="#ffffff" d="
  M 157.23 95.33
  A 69.67 69.67 0.0 0 1 87.56 165.00
  A 69.67 69.67 0.0 0 1 17.89 95.33
  A 69.67 69.67 0.0 0 1 87.56 25.66
  A 69.67 69.67 0.0 0 1 157.23 95.33
  Z
  M 69.87 72.68
  L 55.66 58.64
  Q 52.92 55.94 50.05 59.06
  Q 50.03 59.09 49.94 59.19
  Q 47.31 62.11 50.34 65.15
  L 118.29 133.21
  Q 121.06 135.99 124.33 133.90
  Q 124.62 133.72 125.53 132.20
  A 3.29 3.29 0.0 0 0 125.21 128.39
  Q 121.92 124.53 119.25 122.25
  Q 118.79 121.85 119.10 121.33
  Q 130.46 102.46 124.58 80.97
  Q 122.15 72.10 115.30 63.42
  Q 112.91 60.40 109.67 62.43
  Q 109.65 62.45 109.54 62.52
  Q 106.34 64.68 108.29 67.89
  C 110.01 70.74 112.05 73.14 113.50 76.12
  Q 122.90 95.38 112.88 115.41
  Q 112.84 115.49 112.77 115.43
  Q 110.04 113.22 107.89 110.66
  A 0.54 0.53 37.2 0 1 107.81 110.12
  Q 115.23 92.71 106.14 77.13
  Q 105.27 75.63 103.92 74.13
  C 101.65 71.62 98.18 72.63 96.89 75.37
  C 95.73 77.86 98.67 81.17 99.32 82.35
  Q 104.90 92.54 101.24 103.45
  A 0.36 0.36 0.0 0 1 100.65 103.58
  L 90.63 93.56
  A 1.87 1.86 22.4 0 1 90.07 92.23
  L 89.99 57.69
  Q 89.98 55.56 88.08 55.80
  Q 87.68 55.85 86.47 56.98
  Q 80.63 62.42 70.14 72.69
  A 0.20 0.18 45.0 0 1 69.87 72.68
  Z
  M 66.89 113.97
  A 4.06 3.97 77.6 0 1 68.14 114.79
  Q 76.60 122.98 87.01 132.92
  Q 87.39 133.29 88.57 133.43
  A 1.33 1.33 0.0 0 0 90.04 132.11
  L 90.04 115.44
  A 1.04 1.02 -67.9 0 0 89.74 114.71
  L 51.99 76.96
  A 2.00 2.00 0.0 0 0 48.58 78.37
  L 48.58 110.32
  Q 48.58 113.18 51.43 113.19
  Q 62.49 113.24 63.25 113.26
  Q 65.29 113.31 66.89 113.97
  Z"
/>
<path fill="#010101" d="
  M 69.87 72.68
  A 0.20 0.18 45.0 0 0 70.14 72.69
  Q 80.63 62.42 86.47 56.98
  Q 87.68 55.85 88.08 55.80
  Q 89.98 55.56 89.99 57.69
  L 90.07 92.23
  A 1.87 1.86 22.4 0 0 90.63 93.56
  L 100.65 103.58
  A 0.36 0.36 0.0 0 0 101.24 103.45
  Q 104.90 92.54 99.32 82.35
  C 98.67 81.17 95.73 77.86 96.89 75.37
  C 98.18 72.63 101.65 71.62 103.92 74.13
  Q 105.27 75.63 106.14 77.13
  Q 115.23 92.71 107.81 110.12
  A 0.54 0.53 37.2 0 0 107.89 110.66
  Q 110.04 113.22 112.77 115.43
  Q 112.84 115.49 112.88 115.41
  Q 122.90 95.38 113.50 76.12
  C 112.05 73.14 110.01 70.74 108.29 67.89
  Q 106.34 64.68 109.54 62.52
  Q 109.65 62.45 109.67 62.43
  Q 112.91 60.40 115.30 63.42
  Q 122.15 72.10 124.58 80.97
  Q 130.46 102.46 119.10 121.33
  Q 118.79 121.85 119.25 122.25
  Q 121.92 124.53 125.21 128.39
  A 3.29 3.29 0.0 0 1 125.53 132.20
  Q 124.62 133.72 124.33 133.90
  Q 121.06 135.99 118.29 133.21
  L 50.34 65.15
  Q 47.31 62.11 49.94 59.19
  Q 50.03 59.09 50.05 59.06
  Q 52.92 55.94 55.66 58.64
  L 69.87 72.68
  Z"
/>
<path fill="#010101" d="
  M 66.89 113.97
  Q 65.29 113.31 63.25 113.26
  Q 62.49 113.24 51.43 113.19
  Q 48.58 113.18 48.58 110.32
  L 48.58 78.37
  A 2.00 2.00 0.0 0 1 51.99 76.96
  L 89.74 114.71
  A 1.04 1.02 -67.9 0 1 90.04 115.44
  L 90.04 132.11
  A 1.33 1.33 0.0 0 1 88.57 133.43
  Q 87.39 133.29 87.01 132.92
  Q 76.60 122.98 68.14 114.79
  A 4.06 3.97 77.6 0 0 66.89 113.97
  Z"
/>
</svg>
