<?xml version="1.0" encoding="UTF-8" standalone="no"?>
<!DOCTYPE svg PUBLIC "-//W3C//DTD SVG 1.1//EN" "http://www.w3.org/Graphics/SVG/1.1/DTD/svg11.dtd">
<svg xmlns="http://www.w3.org/2000/svg" version="1.1" viewBox="0.00 0.00 38.00 47.00" width="40" height="40" >
<g stroke-width="2.00" fill="none" stroke-linecap="butt">
<path stroke="#c2c2c2" vector-effect="non-scaling-stroke" d="
  M 9.36 42.39
  Q 9.87 42.72 10.83 44.08
  A 1.55 1.52 81.3 0 0 11.59 44.65
  Q 19.45 47.30 25.46 45.16
  Q 35.95 41.42 36.86 29.49
  Q 37.49 21.23 36.77 18.74
  C 35.18 13.17 32.14 10.02 27.83 5.17
  C 25.87 2.96 23.66 3.05 21.63 2.43
  C 16.08 0.72 9.07 7.23 5.53 11.13
  Q 2.60 14.36 1.33 17.95
  Q -0.32 22.63 0.27 26.05
  Q 1.34 32.21 6.31 40.16
  Q 6.65 40.70 9.36 42.39"
/>
<path stroke="#c2c2c2" vector-effect="non-scaling-stroke" d="
  M 26.87 7.16
  C 25.75 5.12 25.58 4.25 22.92 3.81
  Q 20.58 3.42 19.22 3.47
  A 1.89 1.81 26.4 0 0 18.29 3.76
  Q 16.80 4.72 12.18 7.30
  C 6.36 10.55 2.82 15.11 1.64 21.62
  C 0.74 26.62 3.02 32.38 5.77 36.47
  Q 8.63 40.73 13.02 42.59
  Q 18.46 44.91 22.83 44.27
  C 33.96 42.64 37.09 30.89 35.95 21.06
  Q 35.47 16.95 33.27 13.81
  Q 30.67 10.10 27.53 7.90
  Q 27.11 7.61 26.87 7.16"
/>
<path stroke="#c2c2c2" vector-effect="non-scaling-stroke" d="
  M 15.21 16.59
  L 17.23 17.09
  A 0.27 0.27 0.0 0 0 17.56 16.90
  L 19.84 7.83
  A 2.42 1.27 -75.9 0 0 19.20 5.17
  L 19.12 5.15
  A 2.42 1.27 -75.9 0 0 17.30 7.19
  L 15.02 16.26
  A 0.27 0.27 0.0 0 0 15.21 16.59"
/>
<path stroke="#c2c2c2" vector-effect="non-scaling-stroke" d="
  M 21.01 12.57
  Q 20.99 12.69 21.09 12.62
  Q 23.91 10.96 24.58 8.87
  Q 25.30 6.64 23.52 5.76
  A 1.07 1.07 0.0 0 0 21.99 6.55
  L 21.01 12.57"
/>
<path stroke="#c2c2c2" vector-effect="non-scaling-stroke" d="
  M 20.4484 17.7501
  A 2.10 1.49 121.0 0 0 22.8072 16.7174
  A 2.10 1.49 121.0 0 0 22.6116 14.1499
  A 2.10 1.49 121.0 0 0 20.2528 15.1826
  A 2.10 1.49 121.0 0 0 20.4484 17.7501"
/>
<path stroke="#cfcfcf" vector-effect="non-scaling-stroke" d="
  M 19.66 19.37
  Q 16.80 18.84 14.34 18.47
  Q 13.81 18.39 13.60 18.89
  Q 11.16 24.48 13.88 29.63
  C 16.06 33.75 20.25 33.42 22.98 30.19
  Q 26.76 25.73 26.52 19.75
  A 0.69 0.69 0.0 0 0 25.69 19.10
  C 24.08 19.43 21.90 19.79 19.66 19.37"
/>
</g>
<path fill="#ffffff" fill-opacity="0"  d="
  M 38.00 0.00
  L 38.00 47.00
  L 0.00 47.00
  L 0.00 0.00
  L 38.00 0.00
  Z
  M 9.36 42.39
  Q 9.87 42.72 10.83 44.08
  A 1.55 1.52 81.3 0 0 11.59 44.65
  Q 19.45 47.30 25.46 45.16
  Q 35.95 41.42 36.86 29.49
  Q 37.49 21.23 36.77 18.74
  C 35.18 13.17 32.14 10.02 27.83 5.17
  C 25.87 2.96 23.66 3.05 21.63 2.43
  C 16.08 0.72 9.07 7.23 5.53 11.13
  Q 2.60 14.36 1.33 17.95
  Q -0.32 22.63 0.27 26.05
  Q 1.34 32.21 6.31 40.16
  Q 6.65 40.70 9.36 42.39
  Z"
/>
<path fill="#848485" d="
  M 9.36 42.39
  Q 6.65 40.70 6.31 40.16
  Q 1.34 32.21 0.27 26.05
  Q -0.32 22.63 1.33 17.95
  Q 2.60 14.36 5.53 11.13
  C 9.07 7.23 16.08 0.72 21.63 2.43
  C 23.66 3.05 25.87 2.96 27.83 5.17
  C 32.14 10.02 35.18 13.17 36.77 18.74
  Q 37.49 21.23 36.86 29.49
  Q 35.95 41.42 25.46 45.16
  Q 19.45 47.30 11.59 44.65
  A 1.55 1.52 81.3 0 1 10.83 44.08
  Q 9.87 42.72 9.36 42.39
  Z
  M 26.87 7.16
  C 25.75 5.12 25.58 4.25 22.92 3.81
  Q 20.58 3.42 19.22 3.47
  A 1.89 1.81 26.4 0 0 18.29 3.76
  Q 16.80 4.72 12.18 7.30
  C 6.36 10.55 2.82 15.11 1.64 21.62
  C 0.74 26.62 3.02 32.38 5.77 36.47
  Q 8.63 40.73 13.02 42.59
  Q 18.46 44.91 22.83 44.27
  C 33.96 42.64 37.09 30.89 35.95 21.06
  Q 35.47 16.95 33.27 13.81
  Q 30.67 10.10 27.53 7.90
  Q 27.11 7.61 26.87 7.16
  Z"
/>
<path fill="#ffffff" d="
  M 27.53 7.90
  Q 30.67 10.10 33.27 13.81
  Q 35.47 16.95 35.95 21.06
  C 37.09 30.89 33.96 42.64 22.83 44.27
  Q 18.46 44.91 13.02 42.59
  Q 8.63 40.73 5.77 36.47
  C 3.02 32.38 0.74 26.62 1.64 21.62
  C 2.82 15.11 6.36 10.55 12.18 7.30
  Q 16.80 4.72 18.29 3.76
  A 1.89 1.81 26.4 0 1 19.22 3.47
  Q 20.58 3.42 22.92 3.81
  C 25.58 4.25 25.75 5.12 26.87 7.16
  Q 27.11 7.61 27.53 7.90
  Z
  M 15.21 16.59
  L 17.23 17.09
  A 0.27 0.27 0.0 0 0 17.56 16.90
  L 19.84 7.83
  A 2.42 1.27 -75.9 0 0 19.20 5.17
  L 19.12 5.15
  A 2.42 1.27 -75.9 0 0 17.30 7.19
  L 15.02 16.26
  A 0.27 0.27 0.0 0 0 15.21 16.59
  Z
  M 21.01 12.57
  Q 20.99 12.69 21.09 12.62
  Q 23.91 10.96 24.58 8.87
  Q 25.30 6.64 23.52 5.76
  A 1.07 1.07 0.0 0 0 21.99 6.55
  L 21.01 12.57
  Z
  M 20.4484 17.7501
  A 2.10 1.49 121.0 0 0 22.8072 16.7174
  A 2.10 1.49 121.0 0 0 22.6116 14.1499
  A 2.10 1.49 121.0 0 0 20.2528 15.1826
  A 2.10 1.49 121.0 0 0 20.4484 17.7501
  Z
  M 19.66 19.37
  Q 16.80 18.84 14.34 18.47
  Q 13.81 18.39 13.60 18.89
  Q 11.16 24.48 13.88 29.63
  C 16.06 33.75 20.25 33.42 22.98 30.19
  Q 26.76 25.73 26.52 19.75
  A 0.69 0.69 0.0 0 0 25.69 19.10
  C 24.08 19.43 21.90 19.79 19.66 19.37
  Z"
/>
<path fill="#848485" d="
  M 15.21 16.59
  A 0.27 0.27 0.0 0 1 15.02 16.26
  L 17.30 7.19
  A 2.42 1.27 -75.9 0 1 19.12 5.15
  L 19.20 5.17
  A 2.42 1.27 -75.9 0 1 19.84 7.83
  L 17.56 16.90
  A 0.27 0.27 0.0 0 1 17.23 17.09
  L 15.21 16.59
  Z"
/>
<path fill="#848485" d="
  M 21.01 12.57
  L 21.99 6.55
  A 1.07 1.07 0.0 0 1 23.52 5.76
  Q 25.30 6.64 24.58 8.87
  Q 23.91 10.96 21.09 12.62
  Q 20.99 12.69 21.01 12.57
  Z"
/>
<ellipse fill="#848485" cx="0.00" cy="0.00" transform="translate(21.53,15.95) rotate(121.0)" rx="2.10" ry="1.49"/>
<path fill="#9f9e9e" d="
  M 19.66 19.37
  C 21.90 19.79 24.08 19.43 25.69 19.10
  A 0.69 0.69 0.0 0 1 26.52 19.75
  Q 26.76 25.73 22.98 30.19
  C 20.25 33.42 16.06 33.75 13.88 29.63
  Q 11.16 24.48 13.60 18.89
  Q 13.81 18.39 14.34 18.47
  Q 16.80 18.84 19.66 19.37
  Z"
/>
</svg>
