<?xml version="1.0" encoding="UTF-8" standalone="no"?>
<!DOCTYPE svg PUBLIC "-//W3C//DTD SVG 1.1//EN" "http://www.w3.org/Graphics/SVG/1.1/DTD/svg11.dtd">
<svg xmlns="http://www.w3.org/2000/svg" version="1.1" viewBox="0.00 0.00 49.00 50.00" width="40" height="40">
<g stroke-width="2.00" fill="none" stroke-linecap="butt">
<path stroke="#c1c1c2" vector-effect="non-scaling-stroke" d="
  M 31.97 31.43
  C 32.65 29.16 34.67 27.64 36.03 26.18
  C 41.15 20.71 42.68 14.25 38.41 7.75
  Q 37.13 5.80 35.69 4.93
  Q 34.51 4.21 32.30 2.45
  A 1.83 1.79 64.6 0 0 31.24 2.06
  Q 29.00 1.98 24.27 2.04
  Q 20.21 2.10 17.47 3.38
  Q 13.15 5.41 10.59 8.13
  Q 10.45 8.28 10.27 8.19
  Q 6.89 6.58 4.43 7.39
  Q 0.98 8.51 0.94 11.32
  Q 0.91 13.49 2.89 15.06
  Q 5.26 16.95 8.34 19.48
  Q 11.25 21.85 13.80 19.30
  Q 14.51 18.59 16.54 17.49
  Q 17.39 17.03 19.05 15.45
  Q 21.41 13.18 25.69 13.92
  Q 27.26 14.19 27.74 14.72
  Q 28.22 15.24 28.12 15.95
  Q 28.03 16.58 27.56 17.19
  C 26.39 18.70 25.35 20.46 23.91 21.42
  Q 23.48 21.70 23.35 22.20
  C 23.03 23.38 23.03 23.71 22.07 24.47
  Q 16.87 28.54 14.84 29.74
  C 10.01 32.59 6.95 38.94 11.21 43.44
  A 1.32 1.31 69.8 0 0 12.09 43.85
  Q 14.01 43.94 16.03 43.89
  C 17.84 43.84 19.37 44.73 21.12 44.73
  Q 24.84 44.74 31.43 44.62
  Q 33.38 44.59 36.57 45.19
  Q 37.85 45.43 39.48 46.91
  Q 40.70 48.01 42.61 48.66
  A 1.48 1.47 45.3 0 0 43.57 48.67
  C 48.53 47.00 48.01 41.92 47.89 37.47
  Q 47.86 36.16 47.29 35.20
  Q 46.39 33.68 45.47 33.45
  Q 45.04 33.34 41.55 32.53
  Q 39.65 32.09 37.56 32.13
  Q 33.24 32.20 32.39 32.08
  Q 31.80 32.00 31.97 31.43"
/>
<path stroke="#c1c1c2" vector-effect="non-scaling-stroke" d="
  M 28.45 32.69
  Q 31.20 29.26 34.63 26.39
  Q 35.62 25.57 38.00 21.11
  Q 39.80 17.74 39.80 15.22
  C 39.82 8.08 33.40 3.31 26.52 3.11
  Q 17.37 2.84 11.03 8.98
  Q 10.44 9.56 9.68 9.21
  Q 5.85 7.41 3.56 8.93
  A 2.75 2.75 0.0 0 0 3.14 13.17
  L 9.10 19.14
  A 2.11 2.10 -45.7 0 0 12.11 19.10
  Q 13.46 17.69 15.23 16.95
  Q 16.28 16.51 18.17 14.83
  Q 22.47 10.98 28.27 13.60
  A 1.98 1.98 0.0 0 1 29.33 16.04
  Q 28.90 17.30 28.13 18.41
  Q 23.26 25.46 16.08 30.32
  Q 12.66 32.64 11.76 34.02
  C 10.23 36.37 9.66 40.16 11.89 42.31
  Q 12.24 42.65 12.73 42.69
  Q 22.00 43.45 30.86 43.52
  Q 32.59 43.53 34.58 43.84
  Q 34.67 43.85 38.14 44.36
  Q 38.84 44.46 39.28 45.01
  C 41.38 47.64 44.35 48.55 46.10 44.80
  Q 46.95 43.00 46.66 37.01
  Q 46.52 34.20 43.97 34.35
  Q 40.77 34.53 39.49 34.09
  Q 36.83 33.19 35.65 33.30
  Q 34.12 33.45 28.70 33.24
  A 0.34 0.34 0.0 0 1 28.45 32.69"
/>
<path stroke="#e0dedf" vector-effect="non-scaling-stroke" d="
  M 19.7679 6.1726
  A 2.91 0.28 -35.2 0 0 17.2286 7.6212
  A 2.91 0.28 -35.2 0 0 15.0121 9.5274
  A 2.91 0.28 -35.2 0 0 17.5514 8.0788
  A 2.91 0.28 -35.2 0 0 19.7679 6.1726"
/>
<path stroke="#c8c7c8" vector-effect="non-scaling-stroke" d="
  M 25.66 10.52
  Q 25.83 10.76 31.01 6.99
  Q 31.52 6.62 31.35 6.38
  Q 31.17 6.14 30.66 6.51
  Q 25.48 10.28 25.66 10.52"
/>
<path stroke="#e0dedf" vector-effect="non-scaling-stroke" d="
  M 33.6133 7.7678
  A 0.54 0.26 18.1 0 0 33.1808 7.3529
  A 0.54 0.26 18.1 0 0 32.5867 7.4322
  A 0.54 0.26 18.1 0 0 33.0192 7.8471
  A 0.54 0.26 18.1 0 0 33.6133 7.7678"
/>
<path stroke="#c8c7c8" vector-effect="non-scaling-stroke" d="
  M 34.71 8.75
  A 0.18 0.18 0.0 0 0 34.72 8.49
  L 34.56 8.32
  A 0.18 0.18 0.0 0 0 34.32 8.31
  L 29.89 11.72
  A 0.18 0.18 0.0 0 0 29.83 11.92
  L 30.07 12.61
  A 0.18 0.18 0.0 0 0 30.36 12.69
  L 34.71 8.75"
/>
<path stroke="#e0dedf" vector-effect="non-scaling-stroke" d="
  M 30.5117 9.5095
  A 0.44 0.23 -34.7 0 0 30.0191 9.5709
  A 0.44 0.23 -34.7 0 0 29.7883 10.0105
  A 0.44 0.23 -34.7 0 0 30.2809 9.9491
  A 0.44 0.23 -34.7 0 0 30.5117 9.5095"
/>
<path stroke="#c8c7c8" vector-effect="non-scaling-stroke" d="
  M 10.94 15.47
  A 1.00 0.99 75.8 0 1 9.60 14.66
  Q 9.32 12.44 7.80 10.80
  A 2.12 2.11 58.0 0 0 5.48 10.26
  L 4.61 10.59
  Q 3.22 11.13 4.30 12.14
  C 5.40 13.16 6.72 13.77 7.76 15.15
  Q 8.77 16.48 10.25 17.18
  A 1.52 1.52 0.0 0 0 12.30 16.41
  Q 12.58 15.74 12.30 15.42
  Q 11.98 15.06 11.55 15.23
  L 10.94 15.47"
/>
<path stroke="#c8c7c8" vector-effect="non-scaling-stroke" d="
  M 36.0073 10.3501
  A 2.95 0.35 -37.6 0 0 33.4564 11.8727
  A 2.95 0.35 -37.6 0 0 31.3327 13.9499
  A 2.95 0.35 -37.6 0 0 33.8836 12.4273
  A 2.95 0.35 -37.6 0 0 36.0073 10.3501"
/>
<path stroke="#e0dedf" vector-effect="non-scaling-stroke" d="
  M 29.29 10.51
  Q 28.68 10.73 28.70 10.94
  Q 28.73 11.14 28.93 11.09
  Q 29.48 10.94 29.48 10.64
  Q 29.48 10.43 29.29 10.51"
/>
<path stroke="#e0dedf" vector-effect="non-scaling-stroke" d="
  M 35.8168 13.2725
  A 0.99 0.25 -36.4 0 0 34.8716 13.6588
  A 0.99 0.25 -36.4 0 0 34.2232 14.4475
  A 0.99 0.25 -36.4 0 0 35.1684 14.0612
  A 0.99 0.25 -36.4 0 0 35.8168 13.2725"
/>
<path stroke="#e0dedf" vector-effect="non-scaling-stroke" d="
  M 37.6038 14.1350
  A 0.26 0.26 0.0 0 0 37.2399 14.0826
  L 29.3767 19.9650
  A 0.26 0.26 0.0 0 0 29.3242 20.3289
  L 29.3362 20.3450
  A 0.26 0.26 0.0 0 0 29.7001 20.3974
  L 37.5633 14.5150
  A 0.26 0.26 0.0 0 0 37.6158 14.1511
  L 37.6038 14.1350"
/>
<path stroke="#e0dedf" vector-effect="non-scaling-stroke" d="
  M 32.35 15.30
  Q 32.07 15.60 32.07 15.79
  A 0.20 0.20 0.0 0 0 32.38 15.96
  Q 32.75 15.71 32.69 15.40
  A 0.20 0.20 0.0 0 0 32.35 15.30"
/>
<path stroke="#e0dedf" vector-effect="non-scaling-stroke" d="
  M 35.82 17.49
  Q 35.57 17.76 35.93 17.82
  Q 36.48 17.91 37.15 17.02
  Q 37.59 16.43 36.91 16.72
  Q 36.29 16.99 35.82 17.49"
/>
<path stroke="#e0dedf" vector-effect="non-scaling-stroke" d="
  M 36.6092 19.5983
  A 2.39 0.29 -40.8 0 0 34.6105 20.9405
  A 2.39 0.29 -40.8 0 0 32.9908 22.7217
  A 2.39 0.29 -40.8 0 0 34.9895 21.3795
  A 2.39 0.29 -40.8 0 0 36.6092 19.5983"
/>
<path stroke="#e0dedf" vector-effect="non-scaling-stroke" d="
  M 32.9527 24.8478
  A 5.71 0.37 -44.5 0 0 28.6207 28.5861
  A 5.71 0.37 -44.5 0 0 24.8073 32.8522
  A 5.71 0.37 -44.5 0 0 29.1393 29.1139
  A 5.71 0.37 -44.5 0 0 32.9527 24.8478"
/>
<path stroke="#e0dedf" vector-effect="non-scaling-stroke" d="
  M 14.43 37.04
  Q 14.72 36.76 14.77 36.69
  Q 15.32 35.98 14.53 36.30
  Q 13.56 36.70 13.19 37.50
  Q 12.86 38.23 13.67 37.88
  Q 13.75 37.85 14.32 37.16
  A 1.40 0.61 -28.2 0 0 14.43 37.04"
/>
<path stroke="#c8c7c8" vector-effect="non-scaling-stroke" d="
  M 39.91 39.09
  Q 40.99 39.48 40.82 40.62
  Q 40.22 44.52 42.70 45.56
  A 0.84 0.83 24.0 0 0 43.78 45.15
  Q 45.48 41.50 44.58 36.95
  A 0.83 0.82 84.5 0 0 43.77 36.28
  L 39.78 36.28
  Q 39.08 36.28 39.09 36.99
  Q 39.12 38.80 39.91 39.09"
/>
</g>
<path fill="#ffffff" fill-opacity="0"  d="
  M 49.00 0.00
  L 49.00 50.00
  L 0.00 50.00
  L 0.00 0.00
  L 49.00 0.00
  Z
  M 31.97 31.43
  C 32.65 29.16 34.67 27.64 36.03 26.18
  C 41.15 20.71 42.68 14.25 38.41 7.75
  Q 37.13 5.80 35.69 4.93
  Q 34.51 4.21 32.30 2.45
  A 1.83 1.79 64.6 0 0 31.24 2.06
  Q 29.00 1.98 24.27 2.04
  Q 20.21 2.10 17.47 3.38
  Q 13.15 5.41 10.59 8.13
  Q 10.45 8.28 10.27 8.19
  Q 6.89 6.58 4.43 7.39
  Q 0.98 8.51 0.94 11.32
  Q 0.91 13.49 2.89 15.06
  Q 5.26 16.95 8.34 19.48
  Q 11.25 21.85 13.80 19.30
  Q 14.51 18.59 16.54 17.49
  Q 17.39 17.03 19.05 15.45
  Q 21.41 13.18 25.69 13.92
  Q 27.26 14.19 27.74 14.72
  Q 28.22 15.24 28.12 15.95
  Q 28.03 16.58 27.56 17.19
  C 26.39 18.70 25.35 20.46 23.91 21.42
  Q 23.48 21.70 23.35 22.20
  C 23.03 23.38 23.03 23.71 22.07 24.47
  Q 16.87 28.54 14.84 29.74
  C 10.01 32.59 6.95 38.94 11.21 43.44
  A 1.32 1.31 69.8 0 0 12.09 43.85
  Q 14.01 43.94 16.03 43.89
  C 17.84 43.84 19.37 44.73 21.12 44.73
  Q 24.84 44.74 31.43 44.62
  Q 33.38 44.59 36.57 45.19
  Q 37.85 45.43 39.48 46.91
  Q 40.70 48.01 42.61 48.66
  A 1.48 1.47 45.3 0 0 43.57 48.67
  C 48.53 47.00 48.01 41.92 47.89 37.47
  Q 47.86 36.16 47.29 35.20
  Q 46.39 33.68 45.47 33.45
  Q 45.04 33.34 41.55 32.53
  Q 39.65 32.09 37.56 32.13
  Q 33.24 32.20 32.39 32.08
  Q 31.80 32.00 31.97 31.43
  Z"
/>
<path fill="#828284" d="
  M 32.39 32.08
  Q 33.24 32.20 37.56 32.13
  Q 39.65 32.09 41.55 32.53
  Q 45.04 33.34 45.47 33.45
  Q 46.39 33.68 47.29 35.20
  Q 47.86 36.16 47.89 37.47
  C 48.01 41.92 48.53 47.00 43.57 48.67
  A 1.48 1.47 45.3 0 1 42.61 48.66
  Q 40.70 48.01 39.48 46.91
  Q 37.85 45.43 36.57 45.19
  Q 33.38 44.59 31.43 44.62
  Q 24.84 44.74 21.12 44.73
  C 19.37 44.73 17.84 43.84 16.03 43.89
  Q 14.01 43.94 12.09 43.85
  A 1.32 1.31 69.8 0 1 11.21 43.44
  C 6.95 38.94 10.01 32.59 14.84 29.74
  Q 16.87 28.54 22.07 24.47
  C 23.03 23.71 23.03 23.38 23.35 22.20
  Q 23.48 21.70 23.91 21.42
  C 25.35 20.46 26.39 18.70 27.56 17.19
  Q 28.03 16.58 28.12 15.95
  Q 28.22 15.24 27.74 14.72
  Q 27.26 14.19 25.69 13.92
  Q 21.41 13.18 19.05 15.45
  Q 17.39 17.03 16.54 17.49
  Q 14.51 18.59 13.80 19.30
  Q 11.25 21.85 8.34 19.48
  Q 5.26 16.95 2.89 15.06
  Q 0.91 13.49 0.94 11.32
  Q 0.98 8.51 4.43 7.39
  Q 6.89 6.58 10.27 8.19
  Q 10.45 8.28 10.59 8.13
  Q 13.15 5.41 17.47 3.38
  Q 20.21 2.10 24.27 2.04
  Q 29.00 1.98 31.24 2.06
  A 1.83 1.79 64.6 0 1 32.30 2.45
  Q 34.51 4.21 35.69 4.93
  Q 37.13 5.80 38.41 7.75
  C 42.68 14.25 41.15 20.71 36.03 26.18
  C 34.67 27.64 32.65 29.16 31.97 31.43
  Q 31.80 32.00 32.39 32.08
  Z
  M 28.45 32.69
  Q 31.20 29.26 34.63 26.39
  Q 35.62 25.57 38.00 21.11
  Q 39.80 17.74 39.80 15.22
  C 39.82 8.08 33.40 3.31 26.52 3.11
  Q 17.37 2.84 11.03 8.98
  Q 10.44 9.56 9.68 9.21
  Q 5.85 7.41 3.56 8.93
  A 2.75 2.75 0.0 0 0 3.14 13.17
  L 9.10 19.14
  A 2.11 2.10 -45.7 0 0 12.11 19.10
  Q 13.46 17.69 15.23 16.95
  Q 16.28 16.51 18.17 14.83
  Q 22.47 10.98 28.27 13.60
  A 1.98 1.98 0.0 0 1 29.33 16.04
  Q 28.90 17.30 28.13 18.41
  Q 23.26 25.46 16.08 30.32
  Q 12.66 32.64 11.76 34.02
  C 10.23 36.37 9.66 40.16 11.89 42.31
  Q 12.24 42.65 12.73 42.69
  Q 22.00 43.45 30.86 43.52
  Q 32.59 43.53 34.58 43.84
  Q 34.67 43.85 38.14 44.36
  Q 38.84 44.46 39.28 45.01
  C 41.38 47.64 44.35 48.55 46.10 44.80
  Q 46.95 43.00 46.66 37.01
  Q 46.52 34.20 43.97 34.35
  Q 40.77 34.53 39.49 34.09
  Q 36.83 33.19 35.65 33.30
  Q 34.12 33.45 28.70 33.24
  A 0.34 0.34 0.0 0 1 28.45 32.69
  Z"
/>
<path fill="#ffffff" d="
  M 28.45 32.69
  A 0.34 0.34 0.0 0 0 28.70 33.24
  Q 34.12 33.45 35.65 33.30
  Q 36.83 33.19 39.49 34.09
  Q 40.77 34.53 43.97 34.35
  Q 46.52 34.20 46.66 37.01
  Q 46.95 43.00 46.10 44.80
  C 44.35 48.55 41.38 47.64 39.28 45.01
  Q 38.84 44.46 38.14 44.36
  Q 34.67 43.85 34.58 43.84
  Q 32.59 43.53 30.86 43.52
  Q 22.00 43.45 12.73 42.69
  Q 12.24 42.65 11.89 42.31
  C 9.66 40.16 10.23 36.37 11.76 34.02
  Q 12.66 32.64 16.08 30.32
  Q 23.26 25.46 28.13 18.41
  Q 28.90 17.30 29.33 16.04
  A 1.98 1.98 0.0 0 0 28.27 13.60
  Q 22.47 10.98 18.17 14.83
  Q 16.28 16.51 15.23 16.95
  Q 13.46 17.69 12.11 19.10
  A 2.11 2.10 -45.7 0 1 9.10 19.14
  L 3.14 13.17
  A 2.75 2.75 0.0 0 1 3.56 8.93
  Q 5.85 7.41 9.68 9.21
  Q 10.44 9.56 11.03 8.98
  Q 17.37 2.84 26.52 3.11
  C 33.40 3.31 39.82 8.08 39.80 15.22
  Q 39.80 17.74 38.00 21.11
  Q 35.62 25.57 34.63 26.39
  Q 31.20 29.26 28.45 32.69
  Z
  M 19.7679 6.1726
  A 2.91 0.28 -35.2 0 0 17.2286 7.6212
  A 2.91 0.28 -35.2 0 0 15.0121 9.5274
  A 2.91 0.28 -35.2 0 0 17.5514 8.0788
  A 2.91 0.28 -35.2 0 0 19.7679 6.1726
  Z
  M 25.66 10.52
  Q 25.83 10.76 31.01 6.99
  Q 31.52 6.62 31.35 6.38
  Q 31.17 6.14 30.66 6.51
  Q 25.48 10.28 25.66 10.52
  Z
  M 33.6133 7.7678
  A 0.54 0.26 18.1 0 0 33.1808 7.3529
  A 0.54 0.26 18.1 0 0 32.5867 7.4322
  A 0.54 0.26 18.1 0 0 33.0192 7.8471
  A 0.54 0.26 18.1 0 0 33.6133 7.7678
  Z
  M 34.71 8.75
  A 0.18 0.18 0.0 0 0 34.72 8.49
  L 34.56 8.32
  A 0.18 0.18 0.0 0 0 34.32 8.31
  L 29.89 11.72
  A 0.18 0.18 0.0 0 0 29.83 11.92
  L 30.07 12.61
  A 0.18 0.18 0.0 0 0 30.36 12.69
  L 34.71 8.75
  Z
  M 30.5117 9.5095
  A 0.44 0.23 -34.7 0 0 30.0191 9.5709
  A 0.44 0.23 -34.7 0 0 29.7883 10.0105
  A 0.44 0.23 -34.7 0 0 30.2809 9.9491
  A 0.44 0.23 -34.7 0 0 30.5117 9.5095
  Z
  M 10.94 15.47
  A 1.00 0.99 75.8 0 1 9.60 14.66
  Q 9.32 12.44 7.80 10.80
  A 2.12 2.11 58.0 0 0 5.48 10.26
  L 4.61 10.59
  Q 3.22 11.13 4.30 12.14
  C 5.40 13.16 6.72 13.77 7.76 15.15
  Q 8.77 16.48 10.25 17.18
  A 1.52 1.52 0.0 0 0 12.30 16.41
  Q 12.58 15.74 12.30 15.42
  Q 11.98 15.06 11.55 15.23
  L 10.94 15.47
  Z
  M 36.0073 10.3501
  A 2.95 0.35 -37.6 0 0 33.4564 11.8727
  A 2.95 0.35 -37.6 0 0 31.3327 13.9499
  A 2.95 0.35 -37.6 0 0 33.8836 12.4273
  A 2.95 0.35 -37.6 0 0 36.0073 10.3501
  Z
  M 29.29 10.51
  Q 28.68 10.73 28.70 10.94
  Q 28.73 11.14 28.93 11.09
  Q 29.48 10.94 29.48 10.64
  Q 29.48 10.43 29.29 10.51
  Z
  M 35.8168 13.2725
  A 0.99 0.25 -36.4 0 0 34.8716 13.6588
  A 0.99 0.25 -36.4 0 0 34.2232 14.4475
  A 0.99 0.25 -36.4 0 0 35.1684 14.0612
  A 0.99 0.25 -36.4 0 0 35.8168 13.2725
  Z
  M 37.6038 14.1350
  A 0.26 0.26 0.0 0 0 37.2399 14.0826
  L 29.3767 19.9650
  A 0.26 0.26 0.0 0 0 29.3242 20.3289
  L 29.3362 20.3450
  A 0.26 0.26 0.0 0 0 29.7001 20.3974
  L 37.5633 14.5150
  A 0.26 0.26 0.0 0 0 37.6158 14.1511
  L 37.6038 14.1350
  Z
  M 32.35 15.30
  Q 32.07 15.60 32.07 15.79
  A 0.20 0.20 0.0 0 0 32.38 15.96
  Q 32.75 15.71 32.69 15.40
  A 0.20 0.20 0.0 0 0 32.35 15.30
  Z
  M 35.82 17.49
  Q 35.57 17.76 35.93 17.82
  Q 36.48 17.91 37.15 17.02
  Q 37.59 16.43 36.91 16.72
  Q 36.29 16.99 35.82 17.49
  Z
  M 36.6092 19.5983
  A 2.39 0.29 -40.8 0 0 34.6105 20.9405
  A 2.39 0.29 -40.8 0 0 32.9908 22.7217
  A 2.39 0.29 -40.8 0 0 34.9895 21.3795
  A 2.39 0.29 -40.8 0 0 36.6092 19.5983
  Z
  M 32.9527 24.8478
  A 5.71 0.37 -44.5 0 0 28.6207 28.5861
  A 5.71 0.37 -44.5 0 0 24.8073 32.8522
  A 5.71 0.37 -44.5 0 0 29.1393 29.1139
  A 5.71 0.37 -44.5 0 0 32.9527 24.8478
  Z
  M 14.43 37.04
  Q 14.72 36.76 14.77 36.69
  Q 15.32 35.98 14.53 36.30
  Q 13.56 36.70 13.19 37.50
  Q 12.86 38.23 13.67 37.88
  Q 13.75 37.85 14.32 37.16
  A 1.40 0.61 -28.2 0 0 14.43 37.04
  Z
  M 39.91 39.09
  Q 40.99 39.48 40.82 40.62
  Q 40.22 44.52 42.70 45.56
  A 0.84 0.83 24.0 0 0 43.78 45.15
  Q 45.48 41.50 44.58 36.95
  A 0.83 0.82 84.5 0 0 43.77 36.28
  L 39.78 36.28
  Q 39.08 36.28 39.09 36.99
  Q 39.12 38.80 39.91 39.09
  Z"
/>
<ellipse fill="#c1bcbe" cx="0.00" cy="0.00" transform="translate(17.39,7.85) rotate(-35.2)" rx="2.91" ry="0.28"/>
<path fill="#908f90" d="
  M 31.35 6.38
  Q 31.52 6.62 31.01 6.99
  Q 25.83 10.76 25.66 10.52
  Q 25.48 10.28 30.66 6.51
  Q 31.17 6.14 31.35 6.38
  Z"
/>
<ellipse fill="#c1bcbe" cx="0.00" cy="0.00" transform="translate(33.10,7.60) rotate(18.1)" rx="0.54" ry="0.26"/>
<path fill="#908f90" d="
  M 34.71 8.75
  L 30.36 12.69
  A 0.18 0.18 0.0 0 1 30.07 12.61
  L 29.83 11.92
  A 0.18 0.18 0.0 0 1 29.89 11.72
  L 34.32 8.31
  A 0.18 0.18 0.0 0 1 34.56 8.32
  L 34.72 8.49
  A 0.18 0.18 0.0 0 1 34.71 8.75
  Z"
/>
<ellipse fill="#c1bcbe" cx="0.00" cy="0.00" transform="translate(30.15,9.76) rotate(-34.7)" rx="0.44" ry="0.23"/>
<path fill="#908f90" d="
  M 10.94 15.47
  L 11.55 15.23
  Q 11.98 15.06 12.30 15.42
  Q 12.58 15.74 12.30 16.41
  A 1.52 1.52 0.0 0 1 10.25 17.18
  Q 8.77 16.48 7.76 15.15
  C 6.72 13.77 5.40 13.16 4.30 12.14
  Q 3.22 11.13 4.61 10.59
  L 5.48 10.26
  A 2.12 2.11 58.0 0 1 7.80 10.80
  Q 9.32 12.44 9.60 14.66
  A 1.00 0.99 75.8 0 0 10.94 15.47
  Z"
/>
<ellipse fill="#908f90" cx="0.00" cy="0.00" transform="translate(33.67,12.15) rotate(-37.6)" rx="2.95" ry="0.35"/>
<path fill="#c1bcbe" d="
  M 29.29 10.51
  Q 29.48 10.43 29.48 10.64
  Q 29.48 10.94 28.93 11.09
  Q 28.73 11.14 28.70 10.94
  Q 28.68 10.73 29.29 10.51
  Z"
/>
<ellipse fill="#c1bcbe" cx="0.00" cy="0.00" transform="translate(35.02,13.86) rotate(-36.4)" rx="0.99" ry="0.25"/>
<rect fill="#c1bcbe" x="-5.17" y="-0.27" transform="translate(33.47,17.24) rotate(-36.8)" width="10.34" height="0.54" rx="0.26"/>
<path fill="#c1bcbe" d="
  M 32.35 15.30
  A 0.20 0.20 0.0 0 1 32.69 15.40
  Q 32.75 15.71 32.38 15.96
  A 0.20 0.20 0.0 0 1 32.07 15.79
  Q 32.07 15.60 32.35 15.30
  Z"
/>
<path fill="#c1bcbe" d="
  M 35.82 17.49
  Q 36.29 16.99 36.91 16.72
  Q 37.59 16.43 37.15 17.02
  Q 36.48 17.91 35.93 17.82
  Q 35.57 17.76 35.82 17.49
  Z"
/>
<ellipse fill="#c1bcbe" cx="0.00" cy="0.00" transform="translate(34.80,21.16) rotate(-40.8)" rx="2.39" ry="0.29"/>
<ellipse fill="#c1bcbe" cx="0.00" cy="0.00" transform="translate(28.88,28.85) rotate(-44.5)" rx="5.71" ry="0.37"/>
<path fill="#c1bcbe" d="
  M 14.32 37.16
  Q 13.75 37.85 13.67 37.88
  Q 12.86 38.23 13.19 37.50
  Q 13.56 36.70 14.53 36.30
  Q 15.32 35.98 14.77 36.69
  Q 14.72 36.76 14.43 37.04
  A 1.40 0.61 -28.2 0 1 14.32 37.16
  Z"
/>
<path fill="#908f90" d="
  M 39.91 39.09
  Q 39.12 38.80 39.09 36.99
  Q 39.08 36.28 39.78 36.28
  L 43.77 36.28
  A 0.83 0.82 84.5 0 1 44.58 36.95
  Q 45.48 41.50 43.78 45.15
  A 0.84 0.83 24.0 0 1 42.70 45.56
  Q 40.22 44.52 40.82 40.62
  Q 40.99 39.48 39.91 39.09
  Z"
/>
</svg>
