<?xml version="1.0" encoding="UTF-8" standalone="no"?>
<!DOCTYPE svg PUBLIC "-//W3C//DTD SVG 1.1//EN" "http://www.w3.org/Graphics/SVG/1.1/DTD/svg11.dtd">
<svg xmlns="http://www.w3.org/2000/svg" version="1.1" viewBox="0.00 0.00 36.00 55.00" width="40" height="40">
<g stroke-width="2.00" fill="none" stroke-linecap="butt">
<path stroke="#bcbcbe" vector-effect="non-scaling-stroke" d="
  M 36.00 11.11
  Q 34.47 6.47 27.66 8.74
  Q 25.75 9.38 24.48 11.03
  Q 21.93 14.34 18.06 18.22
  A 0.70 0.70 0.0 0 1 16.87 17.81
  Q 16.63 15.68 17.56 13.14
  C 18.26 11.20 17.88 10.35 16.42 9.15
  Q 16.00 8.81 15.96 8.27
  L 15.71 5.07
  A 2.07 2.07 0.0 0 0 13.70 3.17
  Q 7.12 3.00 6.51 3.02
  C 1.41 3.17 -0.18 8.01 2.19 12.18
  Q 2.43 12.60 2.88 12.77
  Q 3.98 13.19 4.79 14.07
  Q 5.13 14.45 5.13 14.96
  Q 5.07 19.74 5.04 20.79
  Q 4.92 24.58 6.24 26.30
  Q 8.73 29.57 12.98 29.77
  Q 17.17 29.97 20.59 28.65
  A 0.50 0.49 -3.5 0 1 21.25 29.23
  Q 21.06 29.95 18.42 40.29
  C 18.02 41.83 17.34 43.00 16.57 44.36
  C 16.00 45.35 16.15 46.10 16.67 47.00
  Q 16.95 47.49 17.00 48.04
  L 17.31 52.06
  A 1.91 1.90 90.0 0 0 19.05 53.81
  Q 25.93 54.40 32.63 52.55
  Q 33.11 52.42 33.38 52.00
  C 35.13 49.21 32.64 46.15 30.43 44.20
  A 1.62 1.61 -63.5 0 1 29.92 42.66
  L 36.00 13.87"
/>
<path stroke="#99989a" vector-effect="non-scaling-stroke" d="
  M 36.00 12.87
  Q 35.60 13.74 36.00 13.76"
/>
<path stroke="#bcbcbe" vector-effect="non-scaling-stroke" d="
  M 22.71 26.57
  Q 23.02 26.87 22.80 27.52
  Q 20.86 33.27 19.37 40.80
  Q 19.25 41.40 17.35 45.04
  A 1.24 1.23 -40.3 0 0 17.27 45.97
  Q 18.07 48.48 17.88 50.96
  A 2.01 2.01 0.0 0 0 20.05 53.13
  L 31.27 52.25
  Q 32.89 52.12 32.90 50.49
  Q 32.92 48.54 31.62 47.38
  Q 30.76 46.62 29.03 43.70
  Q 28.77 43.26 28.91 42.78
  C 29.44 40.98 30.27 38.22 30.52 35.78
  Q 31.20 29.22 31.82 27.30
  Q 33.58 21.83 34.86 15.04
  Q 35.41 12.12 34.69 10.55
  C 33.78 8.58 30.18 9.28 28.22 9.55
  Q 26.94 9.72 25.33 11.69
  Q 21.42 16.48 18.85 19.34
  Q 17.87 20.42 16.53 20.68
  Q 16.01 20.78 15.92 20.25
  Q 15.27 16.06 16.81 11.94
  A 1.42 1.42 0.0 0 0 15.86 10.08
  Q 14.00 9.58 14.46 7.81
  Q 14.86 6.26 14.86 6.23
  Q 14.77 4.17 13.01 4.05
  Q 12.17 4.00 6.31 4.51
  Q 3.62 4.74 2.77 6.11
  Q 1.34 8.36 2.33 10.44
  Q 2.53 10.85 2.90 11.14
  L 5.96 13.53
  A 1.19 0.48 -82.0 0 1 6.19 14.45
  Q 6.15 15.46 6.04 20.49
  Q 5.97 23.64 6.87 25.16
  Q 8.56 27.99 10.79 28.41
  Q 17.28 29.65 22.11 26.51
  A 0.48 0.47 50.1 0 1 22.71 26.57"
/>
<path stroke="#bcbcbe" vector-effect="non-scaling-stroke" d="
  M 12.14 5.71
  L 3.85 6.99
  A 0.42 0.42 0.0 0 0 3.50 7.47
  L 3.67 8.53
  A 2.11 1.85 81.2 0 0 5.82 10.33
  L 11.27 9.49
  A 2.11 1.85 81.2 0 0 12.78 7.12
  L 12.61 6.06
  A 0.42 0.42 0.0 0 0 12.14 5.71"
/>
<path stroke="#dcdbdb" vector-effect="non-scaling-stroke" d="
  M 8.3865 16.4699
  A 3.49 0.28 133.3 0 0 10.9838 14.1220
  A 3.49 0.28 133.3 0 0 13.1735 11.3901
  A 3.49 0.28 133.3 0 0 10.5762 13.7380
  A 3.49 0.28 133.3 0 0 8.3865 16.4699"
/>
<path stroke="#dcdbdb" vector-effect="non-scaling-stroke" d="
  M 32.6759 15.2160
  A 4.20 0.29 -41.7 0 0 29.3471 17.7935
  A 4.20 0.29 -41.7 0 0 26.4041 20.8040
  A 4.20 0.29 -41.7 0 0 29.7329 18.2265
  A 4.20 0.29 -41.7 0 0 32.6759 15.2160"
/>
<path stroke="#dcdbdb" vector-effect="non-scaling-stroke" d="
  M 20.28 25.40
  C 21.84 24.70 22.18 23.43 23.47 22.29
  Q 25.05 20.90 23.33 22.13
  Q 21.68 23.32 20.05 25.09
  Q 19.42 25.79 20.28 25.40"
/>
<path stroke="#dcdbdb" vector-effect="non-scaling-stroke" d="
  M 26.49 25.49
  Q 25.10 26.23 25.75 26.54
  Q 26.28 26.09 26.49 25.49"
/>
<path stroke="#dcdbdb" vector-effect="non-scaling-stroke" d="
  M 26.49 25.49
  Q 27.40 25.10 27.59 24.70
  Q 28.05 23.67 27.15 24.52
  Q 26.72 24.92 26.49 25.49"
/>
<path stroke="#dcdbdb" vector-effect="non-scaling-stroke" d="
  M 28.9676 30.0225
  A 1.22 0.20 -44.0 0 0 27.9511 30.7261
  A 1.22 0.20 -44.0 0 0 27.2124 31.7175
  A 1.22 0.20 -44.0 0 0 28.2289 31.0139
  A 1.22 0.20 -44.0 0 0 28.9676 30.0225"
/>
<path stroke="#bcbcbe" vector-effect="non-scaling-stroke" d="
  M 21.78 45.73
  Q 22.19 46.10 27.11 39.88
  Q 27.12 39.87 27.11 39.87
  Q 27.11 39.86 27.10 39.87
  Q 21.37 45.35 21.78 45.73"
/>
<path stroke="#bcbcbe" vector-effect="non-scaling-stroke" d="
  M 21.90 48.97
  L 21.36 47.75
  Q 20.99 46.89 20.59 47.63
  Q 19.73 49.21 19.85 50.89
  A 0.31 0.31 0.0 0 0 20.18 51.18
  L 29.99 50.40
  Q 30.49 50.36 30.71 49.92
  Q 30.87 49.61 30.75 49.24
  Q 30.62 48.82 30.01 48.56
  Q 26.46 47.07 23.66 49.40
  A 1.14 1.13 58.3 0 1 21.90 48.97"
/>
<path stroke="#99989a" vector-effect="non-scaling-stroke" d="
  M 10.8199 7.4776
  A 0.59 0.39 -1.2 0 0 10.2218 7.1001
  A 0.59 0.39 -1.2 0 0 9.6401 7.5024
  A 0.59 0.39 -1.2 0 0 10.2382 7.8799
  A 0.59 0.39 -1.2 0 0 10.8199 7.4776"
/>
</g>
<path fill="#ffffff" fill-opacity="0"  d="
  M 36.00 0.00
  L 36.00 11.11
  Q 34.47 6.47 27.66 8.74
  Q 25.75 9.38 24.48 11.03
  Q 21.93 14.34 18.06 18.22
  A 0.70 0.70 0.0 0 1 16.87 17.81
  Q 16.63 15.68 17.56 13.14
  C 18.26 11.20 17.88 10.35 16.42 9.15
  Q 16.00 8.81 15.96 8.27
  L 15.71 5.07
  A 2.07 2.07 0.0 0 0 13.70 3.17
  Q 7.12 3.00 6.51 3.02
  C 1.41 3.17 -0.18 8.01 2.19 12.18
  Q 2.43 12.60 2.88 12.77
  Q 3.98 13.19 4.79 14.07
  Q 5.13 14.45 5.13 14.96
  Q 5.07 19.74 5.04 20.79
  Q 4.92 24.58 6.24 26.30
  Q 8.73 29.57 12.98 29.77
  Q 17.17 29.97 20.59 28.65
  A 0.50 0.49 -3.5 0 1 21.25 29.23
  Q 21.06 29.95 18.42 40.29
  C 18.02 41.83 17.34 43.00 16.57 44.36
  C 16.00 45.35 16.15 46.10 16.67 47.00
  Q 16.95 47.49 17.00 48.04
  L 17.31 52.06
  A 1.91 1.90 90.0 0 0 19.05 53.81
  Q 25.93 54.40 32.63 52.55
  Q 33.11 52.42 33.38 52.00
  C 35.13 49.21 32.64 46.15 30.43 44.20
  A 1.62 1.61 -63.5 0 1 29.92 42.66
  L 36.00 13.87
  L 36.00 55.00
  L 0.00 55.00
  L 0.00 0.00
  L 36.00 0.00
  Z"
/>
<path fill="#79797c" d="
  M 36.00 11.11
  L 36.00 12.87
  Q 35.60 13.74 36.00 13.76
  Q 36.00 13.81 36.00 13.87
  L 29.92 42.66
  A 1.62 1.61 -63.5 0 0 30.43 44.20
  C 32.64 46.15 35.13 49.21 33.38 52.00
  Q 33.11 52.42 32.63 52.55
  Q 25.93 54.40 19.05 53.81
  A 1.91 1.90 90.0 0 1 17.31 52.06
  L 17.00 48.04
  Q 16.95 47.49 16.67 47.00
  C 16.15 46.10 16.00 45.35 16.57 44.36
  C 17.34 43.00 18.02 41.83 18.42 40.29
  Q 21.06 29.95 21.25 29.23
  A 0.50 0.49 -3.5 0 0 20.59 28.65
  Q 17.17 29.97 12.98 29.77
  Q 8.73 29.57 6.24 26.30
  Q 4.92 24.58 5.04 20.79
  Q 5.07 19.74 5.13 14.96
  Q 5.13 14.45 4.79 14.07
  Q 3.98 13.19 2.88 12.77
  Q 2.43 12.60 2.19 12.18
  C -0.18 8.01 1.41 3.17 6.51 3.02
  Q 7.12 3.00 13.70 3.17
  A 2.07 2.07 0.0 0 1 15.71 5.07
  L 15.96 8.27
  Q 16.00 8.81 16.42 9.15
  C 17.88 10.35 18.26 11.20 17.56 13.14
  Q 16.63 15.68 16.87 17.81
  A 0.70 0.70 0.0 0 0 18.06 18.22
  Q 21.93 14.34 24.48 11.03
  Q 25.75 9.38 27.66 8.74
  Q 34.47 6.47 36.00 11.11
  Z
  M 22.71 26.57
  Q 23.02 26.87 22.80 27.52
  Q 20.86 33.27 19.37 40.80
  Q 19.25 41.40 17.35 45.04
  A 1.24 1.23 -40.3 0 0 17.27 45.97
  Q 18.07 48.48 17.88 50.96
  A 2.01 2.01 0.0 0 0 20.05 53.13
  L 31.27 52.25
  Q 32.89 52.12 32.90 50.49
  Q 32.92 48.54 31.62 47.38
  Q 30.76 46.62 29.03 43.70
  Q 28.77 43.26 28.91 42.78
  C 29.44 40.98 30.27 38.22 30.52 35.78
  Q 31.20 29.22 31.82 27.30
  Q 33.58 21.83 34.86 15.04
  Q 35.41 12.12 34.69 10.55
  C 33.78 8.58 30.18 9.28 28.22 9.55
  Q 26.94 9.72 25.33 11.69
  Q 21.42 16.48 18.85 19.34
  Q 17.87 20.42 16.53 20.68
  Q 16.01 20.78 15.92 20.25
  Q 15.27 16.06 16.81 11.94
  A 1.42 1.42 0.0 0 0 15.86 10.08
  Q 14.00 9.58 14.46 7.81
  Q 14.86 6.26 14.86 6.23
  Q 14.77 4.17 13.01 4.05
  Q 12.17 4.00 6.31 4.51
  Q 3.62 4.74 2.77 6.11
  Q 1.34 8.36 2.33 10.44
  Q 2.53 10.85 2.90 11.14
  L 5.96 13.53
  A 1.19 0.48 -82.0 0 1 6.19 14.45
  Q 6.15 15.46 6.04 20.49
  Q 5.97 23.64 6.87 25.16
  Q 8.56 27.99 10.79 28.41
  Q 17.28 29.65 22.11 26.51
  A 0.48 0.47 50.1 0 1 22.71 26.57
  Z"
/>
<path fill="#ffffff" d="
  M 22.71 26.57
  A 0.48 0.47 50.1 0 0 22.11 26.51
  Q 17.28 29.65 10.79 28.41
  Q 8.56 27.99 6.87 25.16
  Q 5.97 23.64 6.04 20.49
  Q 6.15 15.46 6.19 14.45
  A 1.19 0.48 -82.0 0 0 5.96 13.53
  L 2.90 11.14
  Q 2.53 10.85 2.33 10.44
  Q 1.34 8.36 2.77 6.11
  Q 3.62 4.74 6.31 4.51
  Q 12.17 4.00 13.01 4.05
  Q 14.77 4.17 14.86 6.23
  Q 14.86 6.26 14.46 7.81
  Q 14.00 9.58 15.86 10.08
  A 1.42 1.42 0.0 0 1 16.81 11.94
  Q 15.27 16.06 15.92 20.25
  Q 16.01 20.78 16.53 20.68
  Q 17.87 20.42 18.85 19.34
  Q 21.42 16.48 25.33 11.69
  Q 26.94 9.72 28.22 9.55
  C 30.18 9.28 33.78 8.58 34.69 10.55
  Q 35.41 12.12 34.86 15.04
  Q 33.58 21.83 31.82 27.30
  Q 31.20 29.22 30.52 35.78
  C 30.27 38.22 29.44 40.98 28.91 42.78
  Q 28.77 43.26 29.03 43.70
  Q 30.76 46.62 31.62 47.38
  Q 32.92 48.54 32.90 50.49
  Q 32.89 52.12 31.27 52.25
  L 20.05 53.13
  A 2.01 2.01 0.0 0 1 17.88 50.96
  Q 18.07 48.48 17.27 45.97
  A 1.24 1.23 -40.3 0 1 17.35 45.04
  Q 19.25 41.40 19.37 40.80
  Q 20.86 33.27 22.80 27.52
  Q 23.02 26.87 22.71 26.57
  Z
  M 12.14 5.71
  L 3.85 6.99
  A 0.42 0.42 0.0 0 0 3.50 7.47
  L 3.67 8.53
  A 2.11 1.85 81.2 0 0 5.82 10.33
  L 11.27 9.49
  A 2.11 1.85 81.2 0 0 12.78 7.12
  L 12.61 6.06
  A 0.42 0.42 0.0 0 0 12.14 5.71
  Z
  M 8.3865 16.4699
  A 3.49 0.28 133.3 0 0 10.9838 14.1220
  A 3.49 0.28 133.3 0 0 13.1735 11.3901
  A 3.49 0.28 133.3 0 0 10.5762 13.7380
  A 3.49 0.28 133.3 0 0 8.3865 16.4699
  Z
  M 32.6759 15.2160
  A 4.20 0.29 -41.7 0 0 29.3471 17.7935
  A 4.20 0.29 -41.7 0 0 26.4041 20.8040
  A 4.20 0.29 -41.7 0 0 29.7329 18.2265
  A 4.20 0.29 -41.7 0 0 32.6759 15.2160
  Z
  M 20.28 25.40
  C 21.84 24.70 22.18 23.43 23.47 22.29
  Q 25.05 20.90 23.33 22.13
  Q 21.68 23.32 20.05 25.09
  Q 19.42 25.79 20.28 25.40
  Z
  M 26.49 25.49
  Q 25.10 26.23 25.75 26.54
  Q 26.28 26.09 26.49 25.49
  Q 27.40 25.10 27.59 24.70
  Q 28.05 23.67 27.15 24.52
  Q 26.72 24.92 26.49 25.49
  Z
  M 28.9676 30.0225
  A 1.22 0.20 -44.0 0 0 27.9511 30.7261
  A 1.22 0.20 -44.0 0 0 27.2124 31.7175
  A 1.22 0.20 -44.0 0 0 28.2289 31.0139
  A 1.22 0.20 -44.0 0 0 28.9676 30.0225
  Z
  M 21.78 45.73
  Q 22.19 46.10 27.11 39.88
  Q 27.12 39.87 27.11 39.87
  Q 27.11 39.86 27.10 39.87
  Q 21.37 45.35 21.78 45.73
  Z
  M 21.90 48.97
  L 21.36 47.75
  Q 20.99 46.89 20.59 47.63
  Q 19.73 49.21 19.85 50.89
  A 0.31 0.31 0.0 0 0 20.18 51.18
  L 29.99 50.40
  Q 30.49 50.36 30.71 49.92
  Q 30.87 49.61 30.75 49.24
  Q 30.62 48.82 30.01 48.56
  Q 26.46 47.07 23.66 49.40
  A 1.14 1.13 58.3 0 1 21.90 48.97
  Z"
/>
<path fill="#79797c" d="
  M 12.14 5.71
  A 0.42 0.42 0.0 0 1 12.61 6.06
  L 12.78 7.12
  A 2.11 1.85 81.2 0 1 11.27 9.49
  L 5.82 10.33
  A 2.11 1.85 81.2 0 1 3.67 8.53
  L 3.50 7.47
  A 0.42 0.42 0.0 0 1 3.85 6.99
  L 12.14 5.71
  Z
  M 10.8199 7.4776
  A 0.59 0.39 -1.2 0 0 10.2218 7.1001
  A 0.59 0.39 -1.2 0 0 9.6401 7.5024
  A 0.59 0.39 -1.2 0 0 10.2382 7.8799
  A 0.59 0.39 -1.2 0 0 10.8199 7.4776
  Z"
/>
<ellipse fill="#b8b6b7" cx="0.00" cy="0.00" transform="translate(10.23,7.49) rotate(-1.2)" rx="0.59" ry="0.39"/>
<ellipse fill="#b8b6b7" cx="0.00" cy="0.00" transform="translate(10.78,13.93) rotate(133.3)" rx="3.49" ry="0.28"/>
<path fill="#b8b6b7" d="
  M 36.00 12.87
  L 36.00 13.76
  Q 35.60 13.74 36.00 12.87
  Z"
/>
<ellipse fill="#b8b6b7" cx="0.00" cy="0.00" transform="translate(29.54,18.01) rotate(-41.7)" rx="4.20" ry="0.29"/>
<path fill="#b8b6b7" d="
  M 23.47 22.29
  C 22.18 23.43 21.84 24.70 20.28 25.40
  Q 19.42 25.79 20.05 25.09
  Q 21.68 23.32 23.33 22.13
  Q 25.05 20.90 23.47 22.29
  Z"
/>
<path fill="#b8b6b7" d="
  M 26.49 25.49
  Q 26.72 24.92 27.15 24.52
  Q 28.05 23.67 27.59 24.70
  Q 27.40 25.10 26.49 25.49
  Z"
/>
<path fill="#b8b6b7" d="
  M 26.49 25.49
  Q 26.28 26.09 25.75 26.54
  Q 25.10 26.23 26.49 25.49
  Z"
/>
<ellipse fill="#b8b6b7" cx="0.00" cy="0.00" transform="translate(28.09,30.87) rotate(-44.0)" rx="1.22" ry="0.20"/>
<path fill="#79797c" d="
  M 27.11 39.87
  Q 27.12 39.87 27.11 39.88
  Q 22.19 46.10 21.78 45.73
  Q 21.37 45.35 27.10 39.87
  Q 27.11 39.86 27.11 39.87
  Z"
/>
<path fill="#79797c" d="
  M 21.90 48.97
  A 1.14 1.13 58.3 0 0 23.66 49.40
  Q 26.46 47.07 30.01 48.56
  Q 30.62 48.82 30.75 49.24
  Q 30.87 49.61 30.71 49.92
  Q 30.49 50.36 29.99 50.40
  L 20.18 51.18
  A 0.31 0.31 0.0 0 1 19.85 50.89
  Q 19.73 49.21 20.59 47.63
  Q 20.99 46.89 21.36 47.75
  L 21.90 48.97
  Z"
/>
</svg>
