<?xml version="1.0" encoding="UTF-8" standalone="no"?>
<!DOCTYPE svg PUBLIC "-//W3C//DTD SVG 1.1//EN" "http://www.w3.org/Graphics/SVG/1.1/DTD/svg11.dtd">
<svg xmlns="http://www.w3.org/2000/svg" version="1.1" viewBox="0.00 0.00 38.00 46.00" width="40" height="40">
<g stroke-width="2.00" fill="none" stroke-linecap="butt">
<path stroke="#bfbfc0" vector-effect="non-scaling-stroke" d="
  M 38.00 7.65
  Q 37.87 6.55 37.68 5.46
  C 37.42 3.89 36.47 3.38 35.94 2.23
  Q 35.20 0.61 33.49 1.09
  Q 31.00 1.79 28.95 3.83
  Q 28.60 4.17 28.13 4.25
  Q 27.47 4.36 26.78 4.38
  Q 22.57 4.45 12.26 4.10
  Q 8.90 3.98 6.90 5.73
  Q 5.48 6.96 4.76 10.41
  Q 3.32 17.38 5.28 24.26
  Q 5.44 24.84 6.05 24.85
  Q 12.77 24.91 18.26 24.83
  Q 20.34 24.80 22.58 26.07
  A 1.18 1.17 32.7 0 1 22.96 27.77
  Q 20.59 31.13 16.13 31.10
  C 12.17 31.07 2.29 30.15 2.12 34.53
  Q 2.04 36.54 2.13 42.53
  A 2.33 2.32 4.0 0 0 4.10 44.79
  Q 5.66 45.02 8.15 44.67
  Q 8.61 44.60 8.93 44.28
  L 11.01 42.19
  Q 11.33 41.88 11.77 41.87
  Q 16.24 41.76 19.97 41.89
  Q 21.74 41.95 22.77 41.46
  Q 23.45 41.14 25.55 40.82
  Q 27.35 40.54 29.15 39.44
  Q 31.42 38.05 32.34 37.07
  Q 40.76 27.98 32.72 18.59
  Q 32.21 18.00 29.85 16.49
  Q 29.40 16.21 29.55 15.70
  Q 29.59 15.55 29.70 15.42
  Q 30.03 14.98 30.57 15.10
  Q 32.62 15.54 34.87 14.80
  A 1.53 1.51 7.9 0 0 35.65 14.22
  Q 37.27 11.88 38.00 9.12"
/>
<path stroke="#bfbfc0" vector-effect="non-scaling-stroke" d="
  M 21.45 14.34
  Q 24.29 14.06 27.01 14.64
  Q 27.52 14.76 28.02 14.60
  Q 30.18 13.95 32.55 14.29
  Q 33.89 14.48 34.92 12.98
  Q 37.18 9.67 36.88 6.41
  C 36.70 4.42 35.61 2.50 33.46 2.61
  Q 32.56 2.65 30.47 4.21
  Q 28.32 5.82 25.47 5.63
  C 21.87 5.39 18.26 5.41 14.65 5.23
  Q 10.58 5.02 9.00 5.76
  Q 5.99 7.19 5.72 11.25
  Q 5.37 16.55 5.66 21.98
  A 2.32 2.32 0.0 0 0 8.06 24.18
  Q 11.91 24.03 17.75 23.62
  Q 19.17 23.53 22.07 24.61
  C 24.68 25.58 24.92 28.33 22.88 29.92
  C 20.08 32.10 17.51 32.20 13.59 32.06
  Q 9.21 31.91 4.75 32.79
  A 1.80 1.80 0.0 0 0 3.31 34.48
  Q 3.20 37.07 3.25 41.00
  C 3.28 43.85 5.28 44.88 7.77 43.76
  C 8.88 43.26 9.35 42.31 10.22 41.11
  Q 10.52 40.70 11.02 40.78
  Q 17.33 41.87 24.40 40.30
  Q 28.80 39.33 30.94 37.09
  Q 34.31 33.57 35.10 30.59
  Q 36.60 24.96 32.69 20.42
  Q 28.66 15.73 21.44 14.58
  Q 20.55 14.43 21.45 14.34"
/>
<path stroke="#bfbfc0" vector-effect="non-scaling-stroke" d="
  M 30.80 11.09
  L 30.22 11.67
  Q 29.66 12.23 30.45 12.23
  L 32.70 12.23
  Q 33.17 12.23 33.44 11.85
  Q 35.45 9.13 34.62 5.56
  A 1.44 1.44 0.0 0 0 32.39 4.71
  Q 31.58 5.29 31.51 6.62
  Q 31.35 9.54 31.18 10.39
  Q 31.09 10.79 30.80 11.09"
/>
<path stroke="#bfbfc0" vector-effect="non-scaling-stroke" d="
  M 7.09 34.87
  Q 7.22 34.92 7.35 34.56
  A 0.33 0.32 11.7 0 0 7.06 34.12
  Q 6.35 34.08 5.78 34.41
  Q 5.37 34.65 5.26 35.48
  Q 4.84 38.90 5.75 42.22
  Q 5.81 42.44 6.06 42.57
  Q 6.45 42.77 6.25 42.37
  Q 6.10 42.07 6.13 41.67
  Q 6.17 41.15 6.67 40.94
  Q 9.22 39.90 6.82 35.81
  A 0.63 0.39 74.4 0 1 7.09 34.87"
/>
</g>
<path fill="#ffffff" fill-opacity="0"  d="
  M 38.00 0.00
  L 38.00 7.65
  Q 37.87 6.55 37.68 5.46
  C 37.42 3.89 36.47 3.38 35.94 2.23
  Q 35.20 0.61 33.49 1.09
  Q 31.00 1.79 28.95 3.83
  Q 28.60 4.17 28.13 4.25
  Q 27.47 4.36 26.78 4.38
  Q 22.57 4.45 12.26 4.10
  Q 8.90 3.98 6.90 5.73
  Q 5.48 6.96 4.76 10.41
  Q 3.32 17.38 5.28 24.26
  Q 5.44 24.84 6.05 24.85
  Q 12.77 24.91 18.26 24.83
  Q 20.34 24.80 22.58 26.07
  A 1.18 1.17 32.7 0 1 22.96 27.77
  Q 20.59 31.13 16.13 31.10
  C 12.17 31.07 2.29 30.15 2.12 34.53
  Q 2.04 36.54 2.13 42.53
  A 2.33 2.32 4.0 0 0 4.10 44.79
  Q 5.66 45.02 8.15 44.67
  Q 8.61 44.60 8.93 44.28
  L 11.01 42.19
  Q 11.33 41.88 11.77 41.87
  Q 16.24 41.76 19.97 41.89
  Q 21.74 41.95 22.77 41.46
  Q 23.45 41.14 25.55 40.82
  Q 27.35 40.54 29.15 39.44
  Q 31.42 38.05 32.34 37.07
  Q 40.76 27.98 32.72 18.59
  Q 32.21 18.00 29.85 16.49
  Q 29.40 16.21 29.55 15.70
  Q 29.59 15.55 29.70 15.42
  Q 30.03 14.98 30.57 15.10
  Q 32.62 15.54 34.87 14.80
  A 1.53 1.51 7.9 0 0 35.65 14.22
  Q 37.27 11.88 38.00 9.12
  L 38.00 46.00
  L 0.00 46.00
  L 0.00 0.00
  L 38.00 0.00
  Z"
/>
<path fill="#7f7f81" d="
  M 38.00 7.65
  L 38.00 9.12
  Q 37.27 11.88 35.65 14.22
  A 1.53 1.51 7.9 0 1 34.87 14.80
  Q 32.62 15.54 30.57 15.10
  Q 30.03 14.98 29.70 15.42
  Q 29.59 15.55 29.55 15.70
  Q 29.40 16.21 29.85 16.49
  Q 32.21 18.00 32.72 18.59
  Q 40.76 27.98 32.34 37.07
  Q 31.42 38.05 29.15 39.44
  Q 27.35 40.54 25.55 40.82
  Q 23.45 41.14 22.77 41.46
  Q 21.74 41.95 19.97 41.89
  Q 16.24 41.76 11.77 41.87
  Q 11.33 41.88 11.01 42.19
  L 8.93 44.28
  Q 8.61 44.60 8.15 44.67
  Q 5.66 45.02 4.10 44.79
  A 2.33 2.32 4.0 0 1 2.13 42.53
  Q 2.04 36.54 2.12 34.53
  C 2.29 30.15 12.17 31.07 16.13 31.10
  Q 20.59 31.13 22.96 27.77
  A 1.18 1.17 32.7 0 0 22.58 26.07
  Q 20.34 24.80 18.26 24.83
  Q 12.77 24.91 6.05 24.85
  Q 5.44 24.84 5.28 24.26
  Q 3.32 17.38 4.76 10.41
  Q 5.48 6.96 6.90 5.73
  Q 8.90 3.98 12.26 4.10
  Q 22.57 4.45 26.78 4.38
  Q 27.47 4.36 28.13 4.25
  Q 28.60 4.17 28.95 3.83
  Q 31.00 1.79 33.49 1.09
  Q 35.20 0.61 35.94 2.23
  C 36.47 3.38 37.42 3.89 37.68 5.46
  Q 37.87 6.55 38.00 7.65
  Z
  M 21.45 14.34
  Q 24.29 14.06 27.01 14.64
  Q 27.52 14.76 28.02 14.60
  Q 30.18 13.95 32.55 14.29
  Q 33.89 14.48 34.92 12.98
  Q 37.18 9.67 36.88 6.41
  C 36.70 4.42 35.61 2.50 33.46 2.61
  Q 32.56 2.65 30.47 4.21
  Q 28.32 5.82 25.47 5.63
  C 21.87 5.39 18.26 5.41 14.65 5.23
  Q 10.58 5.02 9.00 5.76
  Q 5.99 7.19 5.72 11.25
  Q 5.37 16.55 5.66 21.98
  A 2.32 2.32 0.0 0 0 8.06 24.18
  Q 11.91 24.03 17.75 23.62
  Q 19.17 23.53 22.07 24.61
  C 24.68 25.58 24.92 28.33 22.88 29.92
  C 20.08 32.10 17.51 32.20 13.59 32.06
  Q 9.21 31.91 4.75 32.79
  A 1.80 1.80 0.0 0 0 3.31 34.48
  Q 3.20 37.07 3.25 41.00
  C 3.28 43.85 5.28 44.88 7.77 43.76
  C 8.88 43.26 9.35 42.31 10.22 41.11
  Q 10.52 40.70 11.02 40.78
  Q 17.33 41.87 24.40 40.30
  Q 28.80 39.33 30.94 37.09
  Q 34.31 33.57 35.10 30.59
  Q 36.60 24.96 32.69 20.42
  Q 28.66 15.73 21.44 14.58
  Q 20.55 14.43 21.45 14.34
  Z"
/>
<path fill="#ffffff" d="
  M 21.44 14.58
  Q 28.66 15.73 32.69 20.42
  Q 36.60 24.96 35.10 30.59
  Q 34.31 33.57 30.94 37.09
  Q 28.80 39.33 24.40 40.30
  Q 17.33 41.87 11.02 40.78
  Q 10.52 40.70 10.22 41.11
  C 9.35 42.31 8.88 43.26 7.77 43.76
  C 5.28 44.88 3.28 43.85 3.25 41.00
  Q 3.20 37.07 3.31 34.48
  A 1.80 1.80 0.0 0 1 4.75 32.79
  Q 9.21 31.91 13.59 32.06
  C 17.51 32.20 20.08 32.10 22.88 29.92
  C 24.92 28.33 24.68 25.58 22.07 24.61
  Q 19.17 23.53 17.75 23.62
  Q 11.91 24.03 8.06 24.18
  A 2.32 2.32 0.0 0 1 5.66 21.98
  Q 5.37 16.55 5.72 11.25
  Q 5.99 7.19 9.00 5.76
  Q 10.58 5.02 14.65 5.23
  C 18.26 5.41 21.87 5.39 25.47 5.63
  Q 28.32 5.82 30.47 4.21
  Q 32.56 2.65 33.46 2.61
  C 35.61 2.50 36.70 4.42 36.88 6.41
  Q 37.18 9.67 34.92 12.98
  Q 33.89 14.48 32.55 14.29
  Q 30.18 13.95 28.02 14.60
  Q 27.52 14.76 27.01 14.64
  Q 24.29 14.06 21.45 14.34
  Q 20.55 14.43 21.44 14.58
  Z
  M 30.80 11.09
  L 30.22 11.67
  Q 29.66 12.23 30.45 12.23
  L 32.70 12.23
  Q 33.17 12.23 33.44 11.85
  Q 35.45 9.13 34.62 5.56
  A 1.44 1.44 0.0 0 0 32.39 4.71
  Q 31.58 5.29 31.51 6.62
  Q 31.35 9.54 31.18 10.39
  Q 31.09 10.79 30.80 11.09
  Z
  M 7.09 34.87
  Q 7.22 34.92 7.35 34.56
  A 0.33 0.32 11.7 0 0 7.06 34.12
  Q 6.35 34.08 5.78 34.41
  Q 5.37 34.65 5.26 35.48
  Q 4.84 38.90 5.75 42.22
  Q 5.81 42.44 6.06 42.57
  Q 6.45 42.77 6.25 42.37
  Q 6.10 42.07 6.13 41.67
  Q 6.17 41.15 6.67 40.94
  Q 9.22 39.90 6.82 35.81
  A 0.63 0.39 74.4 0 1 7.09 34.87
  Z"
/>
<path fill="#7f7f81" d="
  M 31.18 10.39
  Q 31.35 9.54 31.51 6.62
  Q 31.58 5.29 32.39 4.71
  A 1.44 1.44 0.0 0 1 34.62 5.56
  Q 35.45 9.13 33.44 11.85
  Q 33.17 12.23 32.70 12.23
  L 30.45 12.23
  Q 29.66 12.23 30.22 11.67
  L 30.80 11.09
  Q 31.09 10.79 31.18 10.39
  Z"
/>
<path fill="#7f7f81" d="
  M 7.09 34.87
  A 0.63 0.39 74.4 0 0 6.82 35.81
  Q 9.22 39.90 6.67 40.94
  Q 6.17 41.15 6.13 41.67
  Q 6.10 42.07 6.25 42.37
  Q 6.45 42.77 6.06 42.57
  Q 5.81 42.44 5.75 42.22
  Q 4.84 38.90 5.26 35.48
  Q 5.37 34.65 5.78 34.41
  Q 6.35 34.08 7.06 34.12
  A 0.33 0.32 11.7 0 1 7.35 34.56
  Q 7.22 34.92 7.09 34.87
  Z"
/>
</svg>
