<?xml version="1.0" encoding="UTF-8" standalone="no"?>
<!DOCTYPE svg PUBLIC "-//W3C//DTD SVG 1.1//EN" "http://www.w3.org/Graphics/SVG/1.1/DTD/svg11.dtd">
<svg xmlns="http://www.w3.org/2000/svg" version="1.1" viewBox="0.00 0.00 39.00 49.00" width="40" height="40">
<g stroke-width="2.00" fill="none" stroke-linecap="butt">
<path stroke="#c6c5c6" vector-effect="non-scaling-stroke" d="
  M 19.32 21.07
  Q 23.18 17.51 28.52 16.09
  C 30.85 15.47 31.17 13.98 30.53 11.79
  Q 29.92 9.69 29.85 7.63
  Q 29.83 7.21 29.62 6.84
  L 27.37 2.94
  A 1.04 1.04 0.0 0 0 26.92 2.52
  Q 24.35 1.29 21.99 2.73
  Q 21.26 3.17 19.83 4.91
  Q 18.97 5.95 17.49 6.86
  Q 10.68 11.03 4.67 18.40
  Q 2.25 21.37 1.67 24.89
  Q 1.05 28.77 1.10 32.52
  Q 1.14 35.36 2.99 38.52
  Q 6.97 45.30 14.35 46.61
  C 16.77 47.03 19.61 48.04 21.95 47.74
  Q 24.97 47.35 27.52 45.88
  Q 29.59 44.69 31.34 41.96
  Q 34.10 37.66 34.26 37.20
  Q 35.83 32.64 32.97 27.75
  Q 29.82 22.35 24.49 22.23
  Q 21.33 22.15 19.75 22.16
  Q 18.13 22.17 19.32 21.07"
/>
<path stroke="#c6c5c6" vector-effect="non-scaling-stroke" d="
  M 14.94 22.08
  Q 14.98 22.04 17.36 20.75
  Q 18.74 20.01 19.99 18.96
  Q 23.35 16.15 28.19 14.99
  A 1.90 1.89 -16.7 0 0 29.53 12.52
  Q 28.68 10.14 27.98 7.32
  C 27.18 4.08 25.97 1.75 22.23 4.02
  Q 20.87 4.85 20.37 7.01
  Q 20.26 7.49 19.77 7.60
  Q 17.61 8.08 17.28 8.28
  Q 11.20 11.97 7.81 15.80
  Q 2.44 21.85 1.93 29.50
  Q 1.64 33.84 3.23 36.82
  C 6.19 42.32 10.24 44.91 16.41 45.99
  Q 20.71 46.74 23.26 46.36
  C 27.26 45.76 30.78 42.00 32.50 38.28
  Q 35.10 32.65 31.61 27.66
  C 29.68 24.89 26.89 23.09 23.46 23.26
  C 21.44 23.37 20.09 23.39 18.09 22.61
  Q 16.60 22.02 15.10 22.37
  Q 14.45 22.52 14.94 22.08"
/>
<path stroke="#c6c5c6" vector-effect="non-scaling-stroke" d="
  M 25.51 12.25
  Q 25.13 12.88 25.18 13.15
  Q 25.31 13.85 25.76 13.74
  L 26.90 13.44
  A 0.64 0.63 -15.3 0 0 27.35 12.67
  L 25.58 5.91
  A 1.25 1.25 0.0 0 0 23.68 5.18
  Q 21.61 6.54 23.37 9.01
  Q 23.67 9.42 25.43 11.42
  Q 25.77 11.81 25.51 12.25"
/>
<path stroke="#c6c5c6" vector-effect="non-scaling-stroke" d="
  M 16.48 28.58
  L 17.40 25.08
  Q 17.57 24.45 16.94 24.28
  L 16.66 24.21
  A 1.16 1.15 16.2 0 0 15.25 24.98
  Q 14.51 27.30 14.53 30.63
  Q 14.54 31.17 15.08 31.24
  Q 16.51 31.41 17.44 30.53
  Q 17.83 30.17 17.40 29.90
  L 16.84 29.53
  Q 16.32 29.19 16.48 28.58"
/>
<path stroke="#c6c5c6" vector-effect="non-scaling-stroke" d="
  M 22.69 33.36
  L 12.95 33.06
  A 0.12 0.12 0.0 0 0 12.83 33.17
  L 12.83 33.25
  A 4.86 4.20 1.8 0 0 17.55 37.60
  L 17.81 37.61
  A 4.86 4.20 1.8 0 0 22.80 33.57
  L 22.80 33.49
  A 0.12 0.12 0.0 0 0 22.69 33.36"
/>
<path stroke="#c6c5c6" vector-effect="non-scaling-stroke" d="
  M 14.0290 38.1832
  A 2.63 0.33 -42.5 0 0 11.8671 39.7167
  A 2.63 0.33 -42.5 0 0 10.1510 41.7368
  A 2.63 0.33 -42.5 0 0 12.3129 40.2033
  A 2.63 0.33 -42.5 0 0 14.0290 38.1832"
/>
</g>
<path fill="#ffffff" fill-opacity="0"  d="
  M 39.00 0.00
  L 39.00 49.00
  L 0.00 49.00
  L 0.00 0.00
  L 39.00 0.00
  Z
  M 19.32 21.07
  Q 23.18 17.51 28.52 16.09
  C 30.85 15.47 31.17 13.98 30.53 11.79
  Q 29.92 9.69 29.85 7.63
  Q 29.83 7.21 29.62 6.84
  L 27.37 2.94
  A 1.04 1.04 0.0 0 0 26.92 2.52
  Q 24.35 1.29 21.99 2.73
  Q 21.26 3.17 19.83 4.91
  Q 18.97 5.95 17.49 6.86
  Q 10.68 11.03 4.67 18.40
  Q 2.25 21.37 1.67 24.89
  Q 1.05 28.77 1.10 32.52
  Q 1.14 35.36 2.99 38.52
  Q 6.97 45.30 14.35 46.61
  C 16.77 47.03 19.61 48.04 21.95 47.74
  Q 24.97 47.35 27.52 45.88
  Q 29.59 44.69 31.34 41.96
  Q 34.10 37.66 34.26 37.20
  Q 35.83 32.64 32.97 27.75
  Q 29.82 22.35 24.49 22.23
  Q 21.33 22.15 19.75 22.16
  Q 18.13 22.17 19.32 21.07
  Z"
/>
<path fill="#8c8a8c" d="
  M 19.32 21.07
  Q 18.13 22.17 19.75 22.16
  Q 21.33 22.15 24.49 22.23
  Q 29.82 22.35 32.97 27.75
  Q 35.83 32.64 34.26 37.20
  Q 34.10 37.66 31.34 41.96
  Q 29.59 44.69 27.52 45.88
  Q 24.97 47.35 21.95 47.74
  C 19.61 48.04 16.77 47.03 14.35 46.61
  Q 6.97 45.30 2.99 38.52
  Q 1.14 35.36 1.10 32.52
  Q 1.05 28.77 1.67 24.89
  Q 2.25 21.37 4.67 18.40
  Q 10.68 11.03 17.49 6.86
  Q 18.97 5.95 19.83 4.91
  Q 21.26 3.17 21.99 2.73
  Q 24.35 1.29 26.92 2.52
  A 1.04 1.04 0.0 0 1 27.37 2.94
  L 29.62 6.84
  Q 29.83 7.21 29.85 7.63
  Q 29.92 9.69 30.53 11.79
  C 31.17 13.98 30.85 15.47 28.52 16.09
  Q 23.18 17.51 19.32 21.07
  Z
  M 14.94 22.08
  Q 14.98 22.04 17.36 20.75
  Q 18.74 20.01 19.99 18.96
  Q 23.35 16.15 28.19 14.99
  A 1.90 1.89 -16.7 0 0 29.53 12.52
  Q 28.68 10.14 27.98 7.32
  C 27.18 4.08 25.97 1.75 22.23 4.02
  Q 20.87 4.85 20.37 7.01
  Q 20.26 7.49 19.77 7.60
  Q 17.61 8.08 17.28 8.28
  Q 11.20 11.97 7.81 15.80
  Q 2.44 21.85 1.93 29.50
  Q 1.64 33.84 3.23 36.82
  C 6.19 42.32 10.24 44.91 16.41 45.99
  Q 20.71 46.74 23.26 46.36
  C 27.26 45.76 30.78 42.00 32.50 38.28
  Q 35.10 32.65 31.61 27.66
  C 29.68 24.89 26.89 23.09 23.46 23.26
  C 21.44 23.37 20.09 23.39 18.09 22.61
  Q 16.60 22.02 15.10 22.37
  Q 14.45 22.52 14.94 22.08
  Z"
/>
<path fill="#ffffff" d="
  M 15.10 22.37
  Q 16.60 22.02 18.09 22.61
  C 20.09 23.39 21.44 23.37 23.46 23.26
  C 26.89 23.09 29.68 24.89 31.61 27.66
  Q 35.10 32.65 32.50 38.28
  C 30.78 42.00 27.26 45.76 23.26 46.36
  Q 20.71 46.74 16.41 45.99
  C 10.24 44.91 6.19 42.32 3.23 36.82
  Q 1.64 33.84 1.93 29.50
  Q 2.44 21.85 7.81 15.80
  Q 11.20 11.97 17.28 8.28
  Q 17.61 8.08 19.77 7.60
  Q 20.26 7.49 20.37 7.01
  Q 20.87 4.85 22.23 4.02
  C 25.97 1.75 27.18 4.08 27.98 7.32
  Q 28.68 10.14 29.53 12.52
  A 1.90 1.89 -16.7 0 1 28.19 14.99
  Q 23.35 16.15 19.99 18.96
  Q 18.74 20.01 17.36 20.75
  Q 14.98 22.04 14.94 22.08
  Q 14.45 22.52 15.10 22.37
  Z
  M 25.51 12.25
  Q 25.13 12.88 25.18 13.15
  Q 25.31 13.85 25.76 13.74
  L 26.90 13.44
  A 0.64 0.63 -15.3 0 0 27.35 12.67
  L 25.58 5.91
  A 1.25 1.25 0.0 0 0 23.68 5.18
  Q 21.61 6.54 23.37 9.01
  Q 23.67 9.42 25.43 11.42
  Q 25.77 11.81 25.51 12.25
  Z
  M 16.48 28.58
  L 17.40 25.08
  Q 17.57 24.45 16.94 24.28
  L 16.66 24.21
  A 1.16 1.15 16.2 0 0 15.25 24.98
  Q 14.51 27.30 14.53 30.63
  Q 14.54 31.17 15.08 31.24
  Q 16.51 31.41 17.44 30.53
  Q 17.83 30.17 17.40 29.90
  L 16.84 29.53
  Q 16.32 29.19 16.48 28.58
  Z
  M 22.69 33.36
  L 12.95 33.06
  A 0.12 0.12 0.0 0 0 12.83 33.17
  L 12.83 33.25
  A 4.86 4.20 1.8 0 0 17.55 37.60
  L 17.81 37.61
  A 4.86 4.20 1.8 0 0 22.80 33.57
  L 22.80 33.49
  A 0.12 0.12 0.0 0 0 22.69 33.36
  Z
  M 14.0290 38.1832
  A 2.63 0.33 -42.5 0 0 11.8671 39.7167
  A 2.63 0.33 -42.5 0 0 10.1510 41.7368
  A 2.63 0.33 -42.5 0 0 12.3129 40.2033
  A 2.63 0.33 -42.5 0 0 14.0290 38.1832
  Z"
/>
<path fill="#8c8a8c" d="
  M 25.43 11.42
  Q 23.67 9.42 23.37 9.01
  Q 21.61 6.54 23.68 5.18
  A 1.25 1.25 0.0 0 1 25.58 5.91
  L 27.35 12.67
  A 0.64 0.63 -15.3 0 1 26.90 13.44
  L 25.76 13.74
  Q 25.31 13.85 25.18 13.15
  Q 25.13 12.88 25.51 12.25
  Q 25.77 11.81 25.43 11.42
  Z"
/>
<path fill="#8c8a8c" d="
  M 16.84 29.53
  L 17.40 29.90
  Q 17.83 30.17 17.44 30.53
  Q 16.51 31.41 15.08 31.24
  Q 14.54 31.17 14.53 30.63
  Q 14.51 27.30 15.25 24.98
  A 1.16 1.15 16.2 0 1 16.66 24.21
  L 16.94 24.28
  Q 17.57 24.45 17.40 25.08
  L 16.48 28.58
  Q 16.32 29.19 16.84 29.53
  Z"
/>
<path fill="#8c8a8c" d="
  M 22.69 33.36
  A 0.12 0.12 0.0 0 1 22.80 33.49
  L 22.80 33.57
  A 4.86 4.20 1.8 0 1 17.81 37.61
  L 17.55 37.60
  A 4.86 4.20 1.8 0 1 12.83 33.25
  L 12.83 33.17
  A 0.12 0.12 0.0 0 1 12.95 33.06
  L 22.69 33.36
  Z"
/>
<ellipse fill="#8c8a8c" cx="0.00" cy="0.00" transform="translate(12.09,39.96) rotate(-42.5)" rx="2.63" ry="0.33"/>
</svg>
