<?xml version="1.0" encoding="UTF-8" standalone="no"?>
<!DOCTYPE svg PUBLIC "-//W3C//DTD SVG 1.1//EN" "http://www.w3.org/Graphics/SVG/1.1/DTD/svg11.dtd">
<svg xmlns="http://www.w3.org/2000/svg" version="1.1" viewBox="0.00 0.00 36.00 55.00" width="40" height="40">
<g stroke-width="2.00" fill="none" stroke-linecap="butt">
<path stroke="#c6c6c7" vector-effect="non-scaling-stroke" d="
  M 31.19 25.07
  Q 33.43 22.68 33.83 19.83
  Q 34.82 12.84 30.38 7.27
  C 27.56 3.72 22.49 3.94 18.25 4.16
  Q 15.55 4.30 13.36 5.37
  C 8.60 7.71 4.78 10.28 5.07 16.29
  Q 5.28 20.74 7.75 24.23
  Q 8.01 24.60 8.05 25.05
  Q 8.52 30.28 6.55 34.69
  Q 5.10 37.95 5.06 39.93
  C 4.98 43.97 5.41 49.02 9.16 50.96
  C 14.15 53.55 20.72 52.76 25.67 50.69
  Q 27.98 49.73 29.20 47.60
  Q 31.14 44.23 32.68 39.91
  A 1.26 1.25 -47.7 0 0 32.64 38.97
  Q 30.92 35.17 32.41 31.51
  Q 33.80 28.11 31.24 25.94
  Q 30.76 25.53 31.19 25.07"
/>
<path stroke="#c6c6c7" vector-effect="non-scaling-stroke" d="
  M 27.02 27.01
  Q 30.57 23.65 31.73 21.46
  C 34.65 15.95 31.48 6.77 25.04 5.29
  Q 17.61 3.57 10.92 7.86
  Q 7.01 10.36 6.46 14.04
  C 6.12 16.27 6.77 19.94 8.36 22.65
  Q 9.83 25.15 8.80 28.35
  Q 8.64 28.86 8.91 29.34
  L 9.55 30.45
  Q 9.81 30.90 9.58 31.37
  C 7.74 35.07 6.18 37.56 5.93 41.07
  Q 5.29 49.94 13.66 51.34
  C 17.04 51.90 19.96 51.13 23.70 49.98
  Q 26.70 49.07 27.82 47.57
  Q 30.06 44.60 31.46 39.41
  A 1.28 1.25 38.4 0 0 31.34 38.47
  C 29.87 35.89 29.83 34.10 31.12 31.16
  Q 32.22 28.67 30.11 26.47
  Q 29.68 26.03 29.25 26.23
  L 27.15 27.25
  Q 26.39 27.61 27.02 27.01"
/>
<path stroke="#c6c6c7" vector-effect="non-scaling-stroke" d="
  M 21.51 21.00
  L 24.03 18.87
  A 0.87 0.87 0.0 0 0 24.13 17.64
  L 24.04 17.53
  A 5.11 2.46 49.7 0 0 18.86 15.23
  L 18.77 15.31
  A 5.11 2.46 49.7 0 0 20.19 20.79
  L 20.28 20.90
  A 0.87 0.87 0.0 0 0 21.51 21.00"
/>
<path stroke="#c6c6c7" vector-effect="non-scaling-stroke" d="
  M 15.38 24.00
  Q 12.70 24.91 11.77 26.46
  Q 11.39 27.10 11.82 27.61
  Q 12.23 28.11 12.73 27.69
  L 18.43 22.75
  A 0.67 0.66 -38.9 0 0 18.53 21.84
  Q 18.21 21.42 17.92 21.35
  Q 17.40 21.23 17.27 21.75
  C 17.00 22.80 16.49 23.62 15.38 24.00"
/>
<path stroke="#c6c6c7" vector-effect="non-scaling-stroke" d="
  M 29.1875 29.5032
  A 4.61 0.69 -28.6 0 0 24.8097 31.1042
  A 4.61 0.69 -28.6 0 0 21.0925 33.9168
  A 4.61 0.69 -28.6 0 0 25.4703 32.3158
  A 4.61 0.69 -28.6 0 0 29.1875 29.5032"
/>
<path stroke="#c6c6c7" vector-effect="non-scaling-stroke" d="
  M 20.73 40.25
  C 20.70 38.77 19.42 37.88 19.39 36.22
  Q 19.36 34.75 18.58 35.99
  Q 16.44 39.37 16.24 42.95
  A 1.05 1.05 0.0 0 0 17.52 44.04
  Q 20.78 43.33 20.73 40.25"
/>
</g>
<path fill="#ffffff" fill-opacity="0" d="
  M 36.00 0.00
  L 36.00 55.00
  L 0.00 55.00
  L 0.00 0.00
  L 36.00 0.00
  Z
  M 31.19 25.07
  Q 33.43 22.68 33.83 19.83
  Q 34.82 12.84 30.38 7.27
  C 27.56 3.72 22.49 3.94 18.25 4.16
  Q 15.55 4.30 13.36 5.37
  C 8.60 7.71 4.78 10.28 5.07 16.29
  Q 5.28 20.74 7.75 24.23
  Q 8.01 24.60 8.05 25.05
  Q 8.52 30.28 6.55 34.69
  Q 5.10 37.95 5.06 39.93
  C 4.98 43.97 5.41 49.02 9.16 50.96
  C 14.15 53.55 20.72 52.76 25.67 50.69
  Q 27.98 49.73 29.20 47.60
  Q 31.14 44.23 32.68 39.91
  A 1.26 1.25 -47.7 0 0 32.64 38.97
  Q 30.92 35.17 32.41 31.51
  Q 33.80 28.11 31.24 25.94
  Q 30.76 25.53 31.19 25.07
  Z"
/>
<path fill="#8d8c8e" d="
  M 31.24 25.94
  Q 33.80 28.11 32.41 31.51
  Q 30.92 35.17 32.64 38.97
  A 1.26 1.25 -47.7 0 1 32.68 39.91
  Q 31.14 44.23 29.20 47.60
  Q 27.98 49.73 25.67 50.69
  C 20.72 52.76 14.15 53.55 9.16 50.96
  C 5.41 49.02 4.98 43.97 5.06 39.93
  Q 5.10 37.95 6.55 34.69
  Q 8.52 30.28 8.05 25.05
  Q 8.01 24.60 7.75 24.23
  Q 5.28 20.74 5.07 16.29
  C 4.78 10.28 8.60 7.71 13.36 5.37
  Q 15.55 4.30 18.25 4.16
  C 22.49 3.94 27.56 3.72 30.38 7.27
  Q 34.82 12.84 33.83 19.83
  Q 33.43 22.68 31.19 25.07
  Q 30.76 25.53 31.24 25.94
  Z
  M 27.02 27.01
  Q 30.57 23.65 31.73 21.46
  C 34.65 15.95 31.48 6.77 25.04 5.29
  Q 17.61 3.57 10.92 7.86
  Q 7.01 10.36 6.46 14.04
  C 6.12 16.27 6.77 19.94 8.36 22.65
  Q 9.83 25.15 8.80 28.35
  Q 8.64 28.86 8.91 29.34
  L 9.55 30.45
  Q 9.81 30.90 9.58 31.37
  C 7.74 35.07 6.18 37.56 5.93 41.07
  Q 5.29 49.94 13.66 51.34
  C 17.04 51.90 19.96 51.13 23.70 49.98
  Q 26.70 49.07 27.82 47.57
  Q 30.06 44.60 31.46 39.41
  A 1.28 1.25 38.4 0 0 31.34 38.47
  C 29.87 35.89 29.83 34.10 31.12 31.16
  Q 32.22 28.67 30.11 26.47
  Q 29.68 26.03 29.25 26.23
  L 27.15 27.25
  Q 26.39 27.61 27.02 27.01
  Z"
/>
<path fill="#ffffff" d="
  M 27.15 27.25
  L 29.25 26.23
  Q 29.68 26.03 30.11 26.47
  Q 32.22 28.67 31.12 31.16
  C 29.83 34.10 29.87 35.89 31.34 38.47
  A 1.28 1.25 38.4 0 1 31.46 39.41
  Q 30.06 44.60 27.82 47.57
  Q 26.70 49.07 23.70 49.98
  C 19.96 51.13 17.04 51.90 13.66 51.34
  Q 5.29 49.94 5.93 41.07
  C 6.18 37.56 7.74 35.07 9.58 31.37
  Q 9.81 30.90 9.55 30.45
  L 8.91 29.34
  Q 8.64 28.86 8.80 28.35
  Q 9.83 25.15 8.36 22.65
  C 6.77 19.94 6.12 16.27 6.46 14.04
  Q 7.01 10.36 10.92 7.86
  Q 17.61 3.57 25.04 5.29
  C 31.48 6.77 34.65 15.95 31.73 21.46
  Q 30.57 23.65 27.02 27.01
  Q 26.39 27.61 27.15 27.25
  Z
  M 21.51 21.00
  L 24.03 18.87
  A 0.87 0.87 0.0 0 0 24.13 17.64
  L 24.04 17.53
  A 5.11 2.46 49.7 0 0 18.86 15.23
  L 18.77 15.31
  A 5.11 2.46 49.7 0 0 20.19 20.79
  L 20.28 20.90
  A 0.87 0.87 0.0 0 0 21.51 21.00
  Z
  M 15.38 24.00
  Q 12.70 24.91 11.77 26.46
  Q 11.39 27.10 11.82 27.61
  Q 12.23 28.11 12.73 27.69
  L 18.43 22.75
  A 0.67 0.66 -38.9 0 0 18.53 21.84
  Q 18.21 21.42 17.92 21.35
  Q 17.40 21.23 17.27 21.75
  C 17.00 22.80 16.49 23.62 15.38 24.00
  Z
  M 29.1875 29.5032
  A 4.61 0.69 -28.6 0 0 24.8097 31.1042
  A 4.61 0.69 -28.6 0 0 21.0925 33.9168
  A 4.61 0.69 -28.6 0 0 25.4703 32.3158
  A 4.61 0.69 -28.6 0 0 29.1875 29.5032
  Z
  M 20.73 40.25
  C 20.70 38.77 19.42 37.88 19.39 36.22
  Q 19.36 34.75 18.58 35.99
  Q 16.44 39.37 16.24 42.95
  A 1.05 1.05 0.0 0 0 17.52 44.04
  Q 20.78 43.33 20.73 40.25
  Z"
/>
<path fill="#8d8c8e" d="
  M 21.51 21.00
  A 0.87 0.87 0.0 0 1 20.28 20.90
  L 20.19 20.79
  A 5.11 2.46 49.7 0 1 18.77 15.31
  L 18.86 15.23
  A 5.11 2.46 49.7 0 1 24.04 17.53
  L 24.13 17.64
  A 0.87 0.87 0.0 0 1 24.03 18.87
  L 21.51 21.00
  Z"
/>
<path fill="#8d8c8e" d="
  M 15.38 24.00
  C 16.49 23.62 17.00 22.80 17.27 21.75
  Q 17.40 21.23 17.92 21.35
  Q 18.21 21.42 18.53 21.84
  A 0.67 0.66 -38.9 0 1 18.43 22.75
  L 12.73 27.69
  Q 12.23 28.11 11.82 27.61
  Q 11.39 27.10 11.77 26.46
  Q 12.70 24.91 15.38 24.00
  Z"
/>
<ellipse fill="#8d8c8e" cx="0.00" cy="0.00" transform="translate(25.14,31.71) rotate(-28.6)" rx="4.61" ry="0.69"/>
<path fill="#8d8c8e" d="
  M 19.39 36.22
  C 19.42 37.88 20.70 38.77 20.73 40.25
  Q 20.78 43.33 17.52 44.04
  A 1.05 1.05 0.0 0 1 16.24 42.95
  Q 16.44 39.37 18.58 35.99
  Q 19.36 34.75 19.39 36.22
  Z"
/>
</svg>
