<?xml version="1.0" encoding="UTF-8" standalone="no"?>
<!DOCTYPE svg PUBLIC "-//W3C//DTD SVG 1.1//EN" "http://www.w3.org/Graphics/SVG/1.1/DTD/svg11.dtd">
<svg xmlns="http://www.w3.org/2000/svg" version="1.1" viewBox="0.00 0.00 40.00 46.00" width="40" height="40">
<g stroke-width="2.00" fill="none" stroke-linecap="butt">
<path stroke="#bfbfc0" vector-effect="non-scaling-stroke" d="
  M 19.02 26.94
  Q 18.93 26.95 17.54 28.21
  Q 16.85 28.84 15.92 29.12
  Q 12.50 30.17 11.19 30.65
  Q 10.39 30.95 9.47 32.61
  Q 8.84 33.74 9.34 34.99
  C 10.89 38.83 9.29 43.12 14.70 44.58
  A 0.83 0.76 -42.6 0 0 15.13 44.58
  L 17.69 43.84
  Q 18.24 43.68 18.57 43.21
  Q 19.18 42.33 20.50 41.71
  Q 20.97 41.48 20.92 40.95
  Q 20.89 40.64 21.00 40.29
  A 0.41 0.41 0.0 0 1 21.72 40.16
  Q 22.19 40.74 22.42 40.83
  Q 22.91 41.02 23.10 40.54
  Q 23.84 38.68 24.35 38.31
  Q 24.94 37.90 25.06 38.46
  Q 25.14 38.81 25.60 38.78
  A 0.43 0.43 0.0 0 0 25.98 38.48
  Q 26.66 36.44 30.22 33.25
  Q 34.20 29.67 35.88 24.30
  Q 37.53 19.01 36.42 14.18
  Q 34.50 5.75 25.06 2.78
  Q 21.50 1.66 15.00 2.18
  Q 12.09 2.42 10.27 4.18
  C 7.03 7.31 3.99 13.02 5.25 17.63
  Q 5.93 20.11 6.55 20.69
  Q 8.80 22.78 10.50 25.23
  Q 10.78 25.64 11.28 25.65
  Q 14.18 25.71 16.76 26.64
  Q 17.23 26.81 17.73 26.74
  Q 18.59 26.63 18.90 26.62
  A 0.19 0.15 32.4 0 1 19.02 26.94"
/>
<path stroke="#bfbfc0" vector-effect="non-scaling-stroke" d="
  M 23.14 25.83
  Q 20.36 27.32 17.96 29.27
  C 15.62 31.18 13.57 31.62 11.06 32.48
  A 1.16 1.16 0.0 0 0 10.29 33.80
  Q 11.08 37.89 12.62 41.89
  C 13.41 43.92 16.21 43.52 17.57 42.37
  Q 17.74 42.22 18.83 40.15
  Q 19.59 38.71 21.47 38.70
  Q 21.98 38.70 22.38 38.38
  Q 25.47 35.91 27.53 34.28
  Q 35.56 27.91 35.70 18.15
  Q 35.75 14.29 34.27 11.45
  C 30.75 4.70 23.33 2.48 16.09 3.23
  Q 12.90 3.56 11.29 5.04
  Q 7.40 8.61 6.50 13.41
  Q 5.60 18.18 9.05 21.73
  Q 12.65 25.43 18.37 24.55
  Q 18.89 24.47 19.36 24.71
  Q 21.22 25.67 23.05 25.52
  Q 23.86 25.45 23.14 25.83"
/>
<path stroke="#c9c8ca" vector-effect="non-scaling-stroke" d="
  M 19.86 15.19
  C 21.85 15.52 23.44 14.88 25.43 15.33
  A 0.20 0.20 0.0 0 0 25.66 15.06
  Q 23.89 10.60 19.30 11.36
  Q 16.91 11.76 16.51 14.48
  A 0.86 0.86 0.0 0 0 17.70 15.40
  Q 18.65 14.99 19.86 15.19"
/>
<path stroke="#c9c8ca" vector-effect="non-scaling-stroke" d="
  M 22.32 19.71
  L 21.72 21.76
  A 1.77 1.16 -74.5 0 0 22.38 23.83
  Q 22.56 23.88 22.92 23.53
  Q 23.12 23.33 23.20 23.04
  Q 23.83 20.67 24.09 18.13
  Q 24.14 17.63 23.72 17.35
  Q 23.17 16.99 21.80 17.19
  Q 21.22 17.28 21.31 17.86
  Q 21.39 18.34 22.03 18.85
  Q 22.47 19.20 22.32 19.71"
/>
<path stroke="#bfbfc0" vector-effect="non-scaling-stroke" d="
  M 14.19 35.14
  Q 14.61 34.41 14.65 34.09
  Q 14.71 33.50 14.12 33.53
  Q 13.31 33.57 12.73 33.84
  Q 12.26 34.05 12.40 34.54
  L 14.29 41.07
  Q 14.45 41.63 15.02 41.53
  Q 16.23 41.33 16.77 40.11
  A 1.66 1.65 -56.0 0 0 16.42 38.29
  L 14.34 36.21
  Q 13.86 35.73 14.19 35.14"
/>
</g>
<path fill="#ffffff" fill-opacity="0"  d="
  M 40.00 0.00
  L 40.00 46.00
  L 0.00 46.00
  L 0.00 0.00
  L 40.00 0.00
  Z
  M 19.02 26.94
  Q 18.93 26.95 17.54 28.21
  Q 16.85 28.84 15.92 29.12
  Q 12.50 30.17 11.19 30.65
  Q 10.39 30.95 9.47 32.61
  Q 8.84 33.74 9.34 34.99
  C 10.89 38.83 9.29 43.12 14.70 44.58
  A 0.83 0.76 -42.6 0 0 15.13 44.58
  L 17.69 43.84
  Q 18.24 43.68 18.57 43.21
  Q 19.18 42.33 20.50 41.71
  Q 20.97 41.48 20.92 40.95
  Q 20.89 40.64 21.00 40.29
  A 0.41 0.41 0.0 0 1 21.72 40.16
  Q 22.19 40.74 22.42 40.83
  Q 22.91 41.02 23.10 40.54
  Q 23.84 38.68 24.35 38.31
  Q 24.94 37.90 25.06 38.46
  Q 25.14 38.81 25.60 38.78
  A 0.43 0.43 0.0 0 0 25.98 38.48
  Q 26.66 36.44 30.22 33.25
  Q 34.20 29.67 35.88 24.30
  Q 37.53 19.01 36.42 14.18
  Q 34.50 5.75 25.06 2.78
  Q 21.50 1.66 15.00 2.18
  Q 12.09 2.42 10.27 4.18
  C 7.03 7.31 3.99 13.02 5.25 17.63
  Q 5.93 20.11 6.55 20.69
  Q 8.80 22.78 10.50 25.23
  Q 10.78 25.64 11.28 25.65
  Q 14.18 25.71 16.76 26.64
  Q 17.23 26.81 17.73 26.74
  Q 18.59 26.63 18.90 26.62
  A 0.19 0.15 32.4 0 1 19.02 26.94
  Z"
/>
<path fill="#7e7e80" d="
  M 18.90 26.62
  Q 18.59 26.63 17.73 26.74
  Q 17.23 26.81 16.76 26.64
  Q 14.18 25.71 11.28 25.65
  Q 10.78 25.64 10.50 25.23
  Q 8.80 22.78 6.55 20.69
  Q 5.93 20.11 5.25 17.63
  C 3.99 13.02 7.03 7.31 10.27 4.18
  Q 12.09 2.42 15.00 2.18
  Q 21.50 1.66 25.06 2.78
  Q 34.50 5.75 36.42 14.18
  Q 37.53 19.01 35.88 24.30
  Q 34.20 29.67 30.22 33.25
  Q 26.66 36.44 25.98 38.48
  A 0.43 0.43 0.0 0 1 25.60 38.78
  Q 25.14 38.81 25.06 38.46
  Q 24.94 37.90 24.35 38.31
  Q 23.84 38.68 23.10 40.54
  Q 22.91 41.02 22.42 40.83
  Q 22.19 40.74 21.72 40.16
  A 0.41 0.41 0.0 0 0 21.00 40.29
  Q 20.89 40.64 20.92 40.95
  Q 20.97 41.48 20.50 41.71
  Q 19.18 42.33 18.57 43.21
  Q 18.24 43.68 17.69 43.84
  L 15.13 44.58
  A 0.83 0.76 -42.6 0 1 14.70 44.58
  C 9.29 43.12 10.89 38.83 9.34 34.99
  Q 8.84 33.74 9.47 32.61
  Q 10.39 30.95 11.19 30.65
  Q 12.50 30.17 15.92 29.12
  Q 16.85 28.84 17.54 28.21
  Q 18.93 26.95 19.02 26.94
  A 0.19 0.15 32.4 0 0 18.90 26.62
  Z
  M 23.14 25.83
  Q 20.36 27.32 17.96 29.27
  C 15.62 31.18 13.57 31.62 11.06 32.48
  A 1.16 1.16 0.0 0 0 10.29 33.80
  Q 11.08 37.89 12.62 41.89
  C 13.41 43.92 16.21 43.52 17.57 42.37
  Q 17.74 42.22 18.83 40.15
  Q 19.59 38.71 21.47 38.70
  Q 21.98 38.70 22.38 38.38
  Q 25.47 35.91 27.53 34.28
  Q 35.56 27.91 35.70 18.15
  Q 35.75 14.29 34.27 11.45
  C 30.75 4.70 23.33 2.48 16.09 3.23
  Q 12.90 3.56 11.29 5.04
  Q 7.40 8.61 6.50 13.41
  Q 5.60 18.18 9.05 21.73
  Q 12.65 25.43 18.37 24.55
  Q 18.89 24.47 19.36 24.71
  Q 21.22 25.67 23.05 25.52
  Q 23.86 25.45 23.14 25.83
  Z"
/>
<path fill="#ffffff" d="
  M 23.05 25.52
  Q 21.22 25.67 19.36 24.71
  Q 18.89 24.47 18.37 24.55
  Q 12.65 25.43 9.05 21.73
  Q 5.60 18.18 6.50 13.41
  Q 7.40 8.61 11.29 5.04
  Q 12.90 3.56 16.09 3.23
  C 23.33 2.48 30.75 4.70 34.27 11.45
  Q 35.75 14.29 35.70 18.15
  Q 35.56 27.91 27.53 34.28
  Q 25.47 35.91 22.38 38.38
  Q 21.98 38.70 21.47 38.70
  Q 19.59 38.71 18.83 40.15
  Q 17.74 42.22 17.57 42.37
  C 16.21 43.52 13.41 43.92 12.62 41.89
  Q 11.08 37.89 10.29 33.80
  A 1.16 1.16 0.0 0 1 11.06 32.48
  C 13.57 31.62 15.62 31.18 17.96 29.27
  Q 20.36 27.32 23.14 25.83
  Q 23.86 25.45 23.05 25.52
  Z
  M 19.86 15.19
  C 21.85 15.52 23.44 14.88 25.43 15.33
  A 0.20 0.20 0.0 0 0 25.66 15.06
  Q 23.89 10.60 19.30 11.36
  Q 16.91 11.76 16.51 14.48
  A 0.86 0.86 0.0 0 0 17.70 15.40
  Q 18.65 14.99 19.86 15.19
  Z
  M 22.32 19.71
  L 21.72 21.76
  A 1.77 1.16 -74.5 0 0 22.38 23.83
  Q 22.56 23.88 22.92 23.53
  Q 23.12 23.33 23.20 23.04
  Q 23.83 20.67 24.09 18.13
  Q 24.14 17.63 23.72 17.35
  Q 23.17 16.99 21.80 17.19
  Q 21.22 17.28 21.31 17.86
  Q 21.39 18.34 22.03 18.85
  Q 22.47 19.20 22.32 19.71
  Z
  M 14.19 35.14
  Q 14.61 34.41 14.65 34.09
  Q 14.71 33.50 14.12 33.53
  Q 13.31 33.57 12.73 33.84
  Q 12.26 34.05 12.40 34.54
  L 14.29 41.07
  Q 14.45 41.63 15.02 41.53
  Q 16.23 41.33 16.77 40.11
  A 1.66 1.65 -56.0 0 0 16.42 38.29
  L 14.34 36.21
  Q 13.86 35.73 14.19 35.14
  Z"
/>
<path fill="#929194" d="
  M 19.86 15.19
  Q 18.65 14.99 17.70 15.40
  A 0.86 0.86 0.0 0 1 16.51 14.48
  Q 16.91 11.76 19.30 11.36
  Q 23.89 10.60 25.66 15.06
  A 0.20 0.20 0.0 0 1 25.43 15.33
  C 23.44 14.88 21.85 15.52 19.86 15.19
  Z"
/>
<path fill="#929194" d="
  M 22.03 18.85
  Q 21.39 18.34 21.31 17.86
  Q 21.22 17.28 21.80 17.19
  Q 23.17 16.99 23.72 17.35
  Q 24.14 17.63 24.09 18.13
  Q 23.83 20.67 23.20 23.04
  Q 23.12 23.33 22.92 23.53
  Q 22.56 23.88 22.38 23.83
  A 1.77 1.16 -74.5 0 1 21.72 21.76
  L 22.32 19.71
  Q 22.47 19.20 22.03 18.85
  Z"
/>
<path fill="#7e7e80" d="
  M 14.34 36.21
  L 16.42 38.29
  A 1.66 1.65 -56.0 0 1 16.77 40.11
  Q 16.23 41.33 15.02 41.53
  Q 14.45 41.63 14.29 41.07
  L 12.40 34.54
  Q 12.26 34.05 12.73 33.84
  Q 13.31 33.57 14.12 33.53
  Q 14.71 33.50 14.65 34.09
  Q 14.61 34.41 14.19 35.14
  Q 13.86 35.73 14.34 36.21
  Z"
/>
</svg>
