<?xml version="1.0" encoding="UTF-8" standalone="no"?>
<!DOCTYPE svg PUBLIC "-//W3C//DTD SVG 1.1//EN" "http://www.w3.org/Graphics/SVG/1.1/DTD/svg11.dtd">
<svg xmlns="http://www.w3.org/2000/svg" version="1.1" viewBox="0.00 0.00 86.00 116.00">
<g stroke-width="2.00" fill="none" stroke-linecap="butt">
<path stroke="#808080" vector-effect="non-scaling-stroke" d="
  M 17.70 46.78
  C 14.66 63.77 15.62 85.11 35.19 90.76
  Q 42.81 92.96 54.33 91.05
  C 66.28 89.07 72.49 80.19 74.05 68.53
  Q 75.60 56.86 72.90 44.37
  C 69.14 27.03 55.93 18.16 38.43 22.67
  C 26.69 25.70 19.81 34.96 17.70 46.78"
/>
<path stroke="#808080" vector-effect="non-scaling-stroke" d="
  M 50.80 78.51
  C 57.39 78.19 58.76 72.81 58.89 67.28
  Q 59.05 61.05 58.06 48.33
  Q 57.81 45.10 56.27 40.10
  C 55.17 36.53 52.44 34.61 48.72 34.79
  C 45.00 34.96 42.46 37.13 41.71 40.79
  Q 40.65 45.92 40.71 49.16
  Q 40.93 61.91 41.68 68.10
  C 42.33 73.59 44.21 78.82 50.80 78.51"
/>
</g>
<path fill="#ffffff"  fill-opacity="0" d="
  M 86.00 0.00
  L 86.00 116.00
  L 0.00 116.00
  L 0.00 0.00
  L 86.00 0.00
  Z
  M 17.70 46.78
  C 14.66 63.77 15.62 85.11 35.19 90.76
  Q 42.81 92.96 54.33 91.05
  C 66.28 89.07 72.49 80.19 74.05 68.53
  Q 75.60 56.86 72.90 44.37
  C 69.14 27.03 55.93 18.16 38.43 22.67
  C 26.69 25.70 19.81 34.96 17.70 46.78
  Z"
/>
<path fill="#000000" d="
  M 35.19 90.76
  C 15.62 85.11 14.66 63.77 17.70 46.78
  C 19.81 34.96 26.69 25.70 38.43 22.67
  C 55.93 18.16 69.14 27.03 72.90 44.37
  Q 75.60 56.86 74.05 68.53
  C 72.49 80.19 66.28 89.07 54.33 91.05
  Q 42.81 92.96 35.19 90.76
  Z
  M 50.80 78.51
  C 57.39 78.19 58.76 72.81 58.89 67.28
  Q 59.05 61.05 58.06 48.33
  Q 57.81 45.10 56.27 40.10
  C 55.17 36.53 52.44 34.61 48.72 34.79
  C 45.00 34.96 42.46 37.13 41.71 40.79
  Q 40.65 45.92 40.71 49.16
  Q 40.93 61.91 41.68 68.10
  C 42.33 73.59 44.21 78.82 50.80 78.51
  Z"
/>
<path fill="#ffffff" fill-opacity="0"  d="
  M 48.72 34.79
  C 52.44 34.61 55.17 36.53 56.27 40.10
  Q 57.81 45.10 58.06 48.33
  Q 59.05 61.05 58.89 67.28
  C 58.76 72.81 57.39 78.19 50.80 78.51
  C 44.21 78.82 42.33 73.59 41.68 68.10
  Q 40.93 61.91 40.71 49.16
  Q 40.65 45.92 41.71 40.79
  C 42.46 37.13 45.00 34.96 48.72 34.79
  Z"
/>
</svg>
