<?xml version="1.0" encoding="UTF-8" standalone="no"?>
<!DOCTYPE svg PUBLIC "-//W3C//DTD SVG 1.1//EN" "http://www.w3.org/Graphics/SVG/1.1/DTD/svg11.dtd">
<svg xmlns="http://www.w3.org/2000/svg" version="1.1" viewBox="0.00 0.00 73.00 116.00">
<path stroke="#808080" stroke-width="2.00" fill="none" stroke-linecap="butt" vector-effect="non-scaling-stroke" d="
  M 32.32 30.66
  Q 32.45 43.21 31.87 52.60
  Q 30.66 72.05 28.85 89.86
  Q 28.70 91.26 29.00 91.69
  C 30.85 94.39 38.44 95.27 41.72 95.21
  C 45.12 95.15 47.89 95.02 50.67 93.67
  Q 53.54 92.28 53.59 88.54
  Q 53.94 63.01 52.45 41.53
  Q 51.72 30.89 50.37 22.73
  C 49.28 16.08 44.43 15.43 38.76 15.96
  Q 28.83 16.90 21.27 20.77
  Q 19.47 21.69 19.40 23.01
  Q 19.13 27.86 21.07 31.76
  A 1.25 1.25 0.0 0 0 22.48 32.42
  L 31.75 30.21
  A 0.46 0.46 0.0 0 1 32.32 30.66"
/>
<path fill="#ffffff" fill-opacity="0" d="
  M 73.00 0.00
  L 73.00 116.00
  L 0.00 116.00
  L 0.00 0.00
  L 73.00 0.00
  Z
  M 32.32 30.66
  Q 32.45 43.21 31.87 52.60
  Q 30.66 72.05 28.85 89.86
  Q 28.70 91.26 29.00 91.69
  C 30.85 94.39 38.44 95.27 41.72 95.21
  C 45.12 95.15 47.89 95.02 50.67 93.67
  Q 53.54 92.28 53.59 88.54
  Q 53.94 63.01 52.45 41.53
  Q 51.72 30.89 50.37 22.73
  C 49.28 16.08 44.43 15.43 38.76 15.96
  Q 28.83 16.90 21.27 20.77
  Q 19.47 21.69 19.40 23.01
  Q 19.13 27.86 21.07 31.76
  A 1.25 1.25 0.0 0 0 22.48 32.42
  L 31.75 30.21
  A 0.46 0.46 0.0 0 1 32.32 30.66
  Z"
/>
<path fill="#000000" d="
  M 32.32 30.66
  A 0.46 0.46 0.0 0 0 31.75 30.21
  L 22.48 32.42
  A 1.25 1.25 0.0 0 1 21.07 31.76
  Q 19.13 27.86 19.40 23.01
  Q 19.47 21.69 21.27 20.77
  Q 28.83 16.90 38.76 15.96
  C 44.43 15.43 49.28 16.08 50.37 22.73
  Q 51.72 30.89 52.45 41.53
  Q 53.94 63.01 53.59 88.54
  Q 53.54 92.28 50.67 93.67
  C 47.89 95.02 45.12 95.15 41.72 95.21
  C 38.44 95.27 30.85 94.39 29.00 91.69
  Q 28.70 91.26 28.85 89.86
  Q 30.66 72.05 31.87 52.60
  Q 32.45 43.21 32.32 30.66
  Z"
/>
</svg>
