<?xml version="1.0" encoding="UTF-8" standalone="no"?>
<!DOCTYPE svg PUBLIC "-//W3C//DTD SVG 1.1//EN" "http://www.w3.org/Graphics/SVG/1.1/DTD/svg11.dtd">
<svg xmlns="http://www.w3.org/2000/svg" version="1.1" viewBox="0.00 0.00 77.00 116.00">
<g stroke-width="2.00" fill="none" stroke-linecap="butt">
<path stroke="#808080" vector-effect="non-scaling-stroke" d="
  M 56.08 63.45
  Q 66.13 57.82 66.28 46.01
  Q 66.44 33.02 57.15 25.07
  C 49.82 18.80 39.80 18.64 30.61 19.88
  C 19.57 21.38 10.12 28.51 8.56 39.85
  C 7.13 50.27 11.29 59.29 20.77 63.81
  A 0.73 0.73 0.0 0 1 20.94 65.01
  Q 17.11 68.53 15.56 73.13
  C 13.60 78.95 15.39 86.09 20.13 90.10
  C 28.06 96.79 41.33 97.40 50.46 93.75
  Q 60.00 89.92 61.02 80.04
  Q 61.92 71.19 55.95 64.20
  Q 55.56 63.74 56.08 63.45"
/>
<path stroke="#808080" vector-effect="non-scaling-stroke" d="
  M 50.8436 39.0915
  A 8.98 8.98 0.0 0 0 41.2011 30.8269
  L 39.0674 30.9911
  A 8.98 8.98 0.0 0 0 30.8028 40.6336
  L 31.4564 49.1285
  A 8.98 8.98 0.0 0 0 41.0989 57.3931
  L 43.2326 57.2289
  A 8.98 8.98 0.0 0 0 51.4972 47.5864
  L 50.8436 39.0915"
/>
<path stroke="#808080" vector-effect="non-scaling-stroke" d="
  M 49.1811 72.8427
  A 6.70 6.70 0.0 0 0 41.8593 66.8285
  L 40.1077 67.0002
  A 6.70 6.70 0.0 0 0 34.0934 74.3220
  L 34.5989 79.4773
  A 6.70 6.70 0.0 0 0 41.9207 85.4915
  L 43.6723 85.3198
  A 6.70 6.70 0.0 0 0 49.6866 77.9980
  L 49.1811 72.8427"
/>
</g>
<path fill="#ffffff" fill-opacity="0" d="
  M 77.00 0.00
  L 77.00 116.00
  L 0.00 116.00
  L 0.00 0.00
  L 77.00 0.00
  Z
  M 56.08 63.45
  Q 66.13 57.82 66.28 46.01
  Q 66.44 33.02 57.15 25.07
  C 49.82 18.80 39.80 18.64 30.61 19.88
  C 19.57 21.38 10.12 28.51 8.56 39.85
  C 7.13 50.27 11.29 59.29 20.77 63.81
  A 0.73 0.73 0.0 0 1 20.94 65.01
  Q 17.11 68.53 15.56 73.13
  C 13.60 78.95 15.39 86.09 20.13 90.10
  C 28.06 96.79 41.33 97.40 50.46 93.75
  Q 60.00 89.92 61.02 80.04
  Q 61.92 71.19 55.95 64.20
  Q 55.56 63.74 56.08 63.45
  Z"
/>
<path fill="#000000" d="
  M 55.95 64.20
  Q 61.92 71.19 61.02 80.04
  Q 60.00 89.92 50.46 93.75
  C 41.33 97.40 28.06 96.79 20.13 90.10
  C 15.39 86.09 13.60 78.95 15.56 73.13
  Q 17.11 68.53 20.94 65.01
  A 0.73 0.73 0.0 0 0 20.77 63.81
  C 11.29 59.29 7.13 50.27 8.56 39.85
  C 10.12 28.51 19.57 21.38 30.61 19.88
  C 39.80 18.64 49.82 18.80 57.15 25.07
  Q 66.44 33.02 66.28 46.01
  Q 66.13 57.82 56.08 63.45
  Q 55.56 63.74 55.95 64.20
  Z
  M 50.8436 39.0915
  A 8.98 8.98 0.0 0 0 41.2011 30.8269
  L 39.0674 30.9911
  A 8.98 8.98 0.0 0 0 30.8028 40.6336
  L 31.4564 49.1285
  A 8.98 8.98 0.0 0 0 41.0989 57.3931
  L 43.2326 57.2289
  A 8.98 8.98 0.0 0 0 51.4972 47.5864
  L 50.8436 39.0915
  Z
  M 49.1811 72.8427
  A 6.70 6.70 0.0 0 0 41.8593 66.8285
  L 40.1077 67.0002
  A 6.70 6.70 0.0 0 0 34.0934 74.3220
  L 34.5989 79.4773
  A 6.70 6.70 0.0 0 0 41.9207 85.4915
  L 43.6723 85.3198
  A 6.70 6.70 0.0 0 0 49.6866 77.9980
  L 49.1811 72.8427
  Z"
/>
<rect fill="#ffffff" x="-10.05" y="-13.24" transform="translate(41.15,44.11) rotate(-4.4)" width="20.10" height="26.48" rx="8.98"/>
<rect fill="#ffffff" x="-7.58" y="-9.29" transform="translate(41.89,76.16) rotate(-5.6)" width="15.16" height="18.58" rx="6.70"/>
</svg>
