<?xml version="1.0" encoding="UTF-8" standalone="no"?>
<!DOCTYPE svg PUBLIC "-//W3C//DTD SVG 1.1//EN" "http://www.w3.org/Graphics/SVG/1.1/DTD/svg11.dtd">
<svg xmlns="http://www.w3.org/2000/svg" version="1.1" viewBox="0.00 0.00 76.00 116.00">
<path stroke="#808080" stroke-width="2.00" fill="none" stroke-linecap="butt" vector-effect="non-scaling-stroke" d="
  M 31.31 73.55
  Q 41.04 52.02 52.36 31.34
  C 53.32 29.60 53.55 28.32 52.54 26.54
  Q 48.75 19.84 40.08 18.41
  Q 37.76 18.03 35.92 18.96
  Q 33.61 20.13 32.47 21.74
  Q 18.42 41.64 7.76 64.34
  C 5.52 69.11 4.29 73.31 7.77 77.42
  Q 10.98 81.20 15.38 83.32
  Q 18.48 84.81 24.04 84.93
  C 32.98 85.13 42.92 83.91 50.07 83.32
  A 0.59 0.59 0.0 0 1 50.70 84.00
  L 49.42 91.43
  A 0.92 0.90 -69.6 0 0 49.84 92.37
  Q 55.01 95.53 60.45 93.21
  Q 62.28 92.42 62.41 90.87
  Q 62.62 88.27 62.78 83.18
  A 1.26 1.25 87.6 0 1 63.88 81.98
  Q 67.23 81.59 69.73 81.10
  C 71.63 80.72 72.05 79.82 72.27 78.05
  Q 72.73 74.46 71.75 71.83
  Q 70.99 69.78 69.74 69.73
  Q 66.77 69.59 63.34 70.57
  A 0.36 0.36 0.0 0 1 62.88 70.21
  Q 63.08 64.33 62.44 53.82
  Q 62.31 51.63 60.98 51.29
  Q 56.60 50.18 52.60 51.88
  A 1.31 1.29 77.4 0 0 51.81 53.14
  Q 52.18 62.40 51.62 71.69
  Q 51.59 72.07 51.21 72.11
  L 31.60 73.96
  Q 31.10 74.01 31.31 73.55"
/>
<path fill="#ffffff" fill-opacity="0" d="
  M 76.00 0.00
  L 76.00 116.00
  L 0.00 116.00
  L 0.00 0.00
  L 76.00 0.00
  Z
  M 31.31 73.55
  Q 41.04 52.02 52.36 31.34
  C 53.32 29.60 53.55 28.32 52.54 26.54
  Q 48.75 19.84 40.08 18.41
  Q 37.76 18.03 35.92 18.96
  Q 33.61 20.13 32.47 21.74
  Q 18.42 41.64 7.76 64.34
  C 5.52 69.11 4.29 73.31 7.77 77.42
  Q 10.98 81.20 15.38 83.32
  Q 18.48 84.81 24.04 84.93
  C 32.98 85.13 42.92 83.91 50.07 83.32
  A 0.59 0.59 0.0 0 1 50.70 84.00
  L 49.42 91.43
  A 0.92 0.90 -69.6 0 0 49.84 92.37
  Q 55.01 95.53 60.45 93.21
  Q 62.28 92.42 62.41 90.87
  Q 62.62 88.27 62.78 83.18
  A 1.26 1.25 87.6 0 1 63.88 81.98
  Q 67.23 81.59 69.73 81.10
  C 71.63 80.72 72.05 79.82 72.27 78.05
  Q 72.73 74.46 71.75 71.83
  Q 70.99 69.78 69.74 69.73
  Q 66.77 69.59 63.34 70.57
  A 0.36 0.36 0.0 0 1 62.88 70.21
  Q 63.08 64.33 62.44 53.82
  Q 62.31 51.63 60.98 51.29
  Q 56.60 50.18 52.60 51.88
  A 1.31 1.29 77.4 0 0 51.81 53.14
  Q 52.18 62.40 51.62 71.69
  Q 51.59 72.07 51.21 72.11
  L 31.60 73.96
  Q 31.10 74.01 31.31 73.55
  Z"
/>
<path fill="#000000" d="
  M 31.60 73.96
  L 51.21 72.11
  Q 51.59 72.07 51.62 71.69
  Q 52.18 62.40 51.81 53.14
  A 1.31 1.29 77.4 0 1 52.60 51.88
  Q 56.60 50.18 60.98 51.29
  Q 62.31 51.63 62.44 53.82
  Q 63.08 64.33 62.88 70.21
  A 0.36 0.36 0.0 0 0 63.34 70.57
  Q 66.77 69.59 69.74 69.73
  Q 70.99 69.78 71.75 71.83
  Q 72.73 74.46 72.27 78.05
  C 72.05 79.82 71.63 80.72 69.73 81.10
  Q 67.23 81.59 63.88 81.98
  A 1.26 1.25 87.6 0 0 62.78 83.18
  Q 62.62 88.27 62.41 90.87
  Q 62.28 92.42 60.45 93.21
  Q 55.01 95.53 49.84 92.37
  A 0.92 0.90 -69.6 0 1 49.42 91.43
  L 50.70 84.00
  A 0.59 0.59 0.0 0 0 50.07 83.32
  C 42.92 83.91 32.98 85.13 24.04 84.93
  Q 18.48 84.81 15.38 83.32
  Q 10.98 81.20 7.77 77.42
  C 4.29 73.31 5.52 69.11 7.76 64.34
  Q 18.42 41.64 32.47 21.74
  Q 33.61 20.13 35.92 18.96
  Q 37.76 18.03 40.08 18.41
  Q 48.75 19.84 52.54 26.54
  C 53.55 28.32 53.32 29.60 52.36 31.34
  Q 41.04 52.02 31.31 73.55
  Q 31.10 74.01 31.60 73.96
  Z"
/>
</svg>
