<?xml version="1.0" encoding="UTF-8" standalone="no"?>
<!DOCTYPE svg PUBLIC "-//W3C//DTD SVG 1.1//EN" "http://www.w3.org/Graphics/SVG/1.1/DTD/svg11.dtd">
<svg xmlns="http://www.w3.org/2000/svg" version="1.1" viewBox="0.00 0.00 74.00 116.00">
<path stroke="#808080" stroke-width="2.00" fill="none" stroke-linecap="butt" vector-effect="non-scaling-stroke" d="
  M 49.55 61.19
  Q 50.74 59.42 53.81 56.76
  Q 57.69 53.39 58.47 52.50
  C 63.12 47.17 66.16 41.66 64.70 34.28
  Q 63.38 27.64 57.05 23.15
  Q 52.16 19.68 45.11 18.03
  C 35.79 15.85 26.05 15.67 16.51 17.62
  C 14.20 18.10 13.15 18.89 12.91 21.27
  Q 11.97 30.68 17.61 38.39
  A 1.77 1.76 -24.7 0 0 19.44 39.06
  Q 24.17 37.91 29.45 37.66
  C 33.38 37.46 40.46 38.47 41.14 43.09
  C 42.14 49.86 38.05 53.59 33.75 57.81
  C 31.11 60.40 29.19 63.63 32.71 66.21
  Q 38.27 70.28 39.83 71.86
  Q 42.43 74.48 41.06 78.14
  C 40.00 81.01 34.53 81.87 31.83 82.14
  Q 26.16 82.70 21.12 82.50
  A 1.21 1.21 0.0 0 0 19.97 83.22
  Q 17.62 88.69 19.43 93.38
  A 1.84 1.84 0.0 0 0 20.97 94.55
  C 28.70 95.28 37.72 94.12 44.98 91.90
  C 50.05 90.34 56.71 86.72 58.54 81.70
  C 61.65 73.18 55.50 68.45 49.88 63.63
  A 1.84 1.84 0.0 0 1 49.55 61.19"
/>
<path fill="#ffffff" fill-opacity="0" d="
  M 74.00 0.00
  L 74.00 116.00
  L 0.00 116.00
  L 0.00 0.00
  L 74.00 0.00
  Z
  M 49.55 61.19
  Q 50.74 59.42 53.81 56.76
  Q 57.69 53.39 58.47 52.50
  C 63.12 47.17 66.16 41.66 64.70 34.28
  Q 63.38 27.64 57.05 23.15
  Q 52.16 19.68 45.11 18.03
  C 35.79 15.85 26.05 15.67 16.51 17.62
  C 14.20 18.10 13.15 18.89 12.91 21.27
  Q 11.97 30.68 17.61 38.39
  A 1.77 1.76 -24.7 0 0 19.44 39.06
  Q 24.17 37.91 29.45 37.66
  C 33.38 37.46 40.46 38.47 41.14 43.09
  C 42.14 49.86 38.05 53.59 33.75 57.81
  C 31.11 60.40 29.19 63.63 32.71 66.21
  Q 38.27 70.28 39.83 71.86
  Q 42.43 74.48 41.06 78.14
  C 40.00 81.01 34.53 81.87 31.83 82.14
  Q 26.16 82.70 21.12 82.50
  A 1.21 1.21 0.0 0 0 19.97 83.22
  Q 17.62 88.69 19.43 93.38
  A 1.84 1.84 0.0 0 0 20.97 94.55
  C 28.70 95.28 37.72 94.12 44.98 91.90
  C 50.05 90.34 56.71 86.72 58.54 81.70
  C 61.65 73.18 55.50 68.45 49.88 63.63
  A 1.84 1.84 0.0 0 1 49.55 61.19
  Z"
/>
<path fill="#000000" d="
  M 49.55 61.19
  A 1.84 1.84 0.0 0 0 49.88 63.63
  C 55.50 68.45 61.65 73.18 58.54 81.70
  C 56.71 86.72 50.05 90.34 44.98 91.90
  C 37.72 94.12 28.70 95.28 20.97 94.55
  A 1.84 1.84 0.0 0 1 19.43 93.38
  Q 17.62 88.69 19.97 83.22
  A 1.21 1.21 0.0 0 1 21.12 82.50
  Q 26.16 82.70 31.83 82.14
  C 34.53 81.87 40.00 81.01 41.06 78.14
  Q 42.43 74.48 39.83 71.86
  Q 38.27 70.28 32.71 66.21
  C 29.19 63.63 31.11 60.40 33.75 57.81
  C 38.05 53.59 42.14 49.86 41.14 43.09
  C 40.46 38.47 33.38 37.46 29.45 37.66
  Q 24.17 37.91 19.44 39.06
  A 1.77 1.76 -24.7 0 1 17.61 38.39
  Q 11.97 30.68 12.91 21.27
  C 13.15 18.89 14.20 18.10 16.51 17.62
  C 26.05 15.67 35.79 15.85 45.11 18.03
  Q 52.16 19.68 57.05 23.15
  Q 63.38 27.64 64.70 34.28
  C 66.16 41.66 63.12 47.17 58.47 52.50
  Q 57.69 53.39 53.81 56.76
  Q 50.74 59.42 49.55 61.19
  Z"
/>
</svg>
