<?xml version="1.0" encoding="UTF-8" standalone="no"?>
<!DOCTYPE svg PUBLIC "-//W3C//DTD SVG 1.1//EN" "http://www.w3.org/Graphics/SVG/1.1/DTD/svg11.dtd">
<svg xmlns="http://www.w3.org/2000/svg" version="1.1" viewBox="0.00 0.00 75.00 116.00">
<g stroke-width="2.00" fill="none" stroke-linecap="butt">
<path stroke="#808080" vector-effect="non-scaling-stroke" d="
  M 35.90 40.72
  C 38.06 34.01 41.41 28.07 45.17 21.20
  A 2.15 2.15 0.0 0 0 44.59 18.46
  Q 40.07 14.98 34.01 15.59
  C 29.88 16.00 27.01 20.26 24.56 23.79
  Q 12.74 40.84 9.90 59.48
  Q 8.43 69.09 11.38 77.46
  Q 15.24 88.37 26.47 92.28
  Q 40.71 97.22 54.05 92.06
  C 68.46 86.49 69.98 71.90 67.29 58.72
  C 64.70 46.06 56.48 38.48 42.52 40.50
  Q 37.24 41.26 36.29 41.26
  Q 35.73 41.26 35.90 40.72"
/>
<path stroke="#808080" vector-effect="non-scaling-stroke" d="
  M 53.2700 60.7926
  A 9.47 9.47 0.0 0 0 43.5393 51.5907
  L 41.0203 51.6610
  A 9.47 9.47 0.0 0 0 31.8184 61.3918
  L 32.1300 72.5474
  A 9.47 9.47 0.0 0 0 41.8607 81.7493
  L 44.3797 81.6790
  A 9.47 9.47 0.0 0 0 53.5816 71.9482
  L 53.2700 60.7926"
/>
</g>
<path fill="#ffffff" fill-opacity="0" d="
  M 75.00 0.00
  L 75.00 116.00
  L 0.00 116.00
  L 0.00 0.00
  L 75.00 0.00
  Z
  M 35.90 40.72
  C 38.06 34.01 41.41 28.07 45.17 21.20
  A 2.15 2.15 0.0 0 0 44.59 18.46
  Q 40.07 14.98 34.01 15.59
  C 29.88 16.00 27.01 20.26 24.56 23.79
  Q 12.74 40.84 9.90 59.48
  Q 8.43 69.09 11.38 77.46
  Q 15.24 88.37 26.47 92.28
  Q 40.71 97.22 54.05 92.06
  C 68.46 86.49 69.98 71.90 67.29 58.72
  C 64.70 46.06 56.48 38.48 42.52 40.50
  Q 37.24 41.26 36.29 41.26
  Q 35.73 41.26 35.90 40.72
  Z"
/>
<path fill="#000000" d="
  M 36.29 41.26
  Q 37.24 41.26 42.52 40.50
  C 56.48 38.48 64.70 46.06 67.29 58.72
  C 69.98 71.90 68.46 86.49 54.05 92.06
  Q 40.71 97.22 26.47 92.28
  Q 15.24 88.37 11.38 77.46
  Q 8.43 69.09 9.90 59.48
  Q 12.74 40.84 24.56 23.79
  C 27.01 20.26 29.88 16.00 34.01 15.59
  Q 40.07 14.98 44.59 18.46
  A 2.15 2.15 0.0 0 1 45.17 21.20
  C 41.41 28.07 38.06 34.01 35.90 40.72
  Q 35.73 41.26 36.29 41.26
  Z
  M 53.2700 60.7926
  A 9.47 9.47 0.0 0 0 43.5393 51.5907
  L 41.0203 51.6610
  A 9.47 9.47 0.0 0 0 31.8184 61.3918
  L 32.1300 72.5474
  A 9.47 9.47 0.0 0 0 41.8607 81.7493
  L 44.3797 81.6790
  A 9.47 9.47 0.0 0 0 53.5816 71.9482
  L 53.2700 60.7926
  Z"
/>
<rect fill="#ffffff" x="-10.73" y="-15.05" transform="translate(42.70,66.67) rotate(-1.6)" width="21.46" height="30.10" rx="9.47"/>
</svg>
