<?xml version="1.0" encoding="UTF-8" standalone="no"?>
<!DOCTYPE svg PUBLIC "-//W3C//DTD SVG 1.1//EN" "http://www.w3.org/Graphics/SVG/1.1/DTD/svg11.dtd">
<svg xmlns="http://www.w3.org/2000/svg" version="1.1" viewBox="0.00 0.00 77.00 116.00">
<g stroke-width="2.00" fill="none" stroke-linecap="butt">
<path stroke="#808080" vector-effect="non-scaling-stroke" d="
  M 39.69 72.36
  Q 40.35 72.26 40.17 72.90
  C 38.27 79.64 34.74 84.94 30.26 92.22
  A 1.46 1.46 0.0 0 0 30.40 93.94
  Q 31.85 95.65 34.19 96.47
  Q 42.00 99.23 49.50 97.62
  C 52.91 96.89 55.39 90.74 56.44 87.99
  Q 60.51 77.34 62.33 61.53
  Q 63.53 51.07 61.08 39.52
  C 57.84 24.23 46.40 17.98 31.70 18.91
  C 17.51 19.81 8.45 29.03 6.29 42.69
  C 5.13 50.00 5.77 59.90 10.29 65.96
  C 15.02 72.29 23.07 74.43 30.77 73.59
  Q 34.60 73.17 39.69 72.36"
/>
<path stroke="#808080" vector-effect="non-scaling-stroke" d="
  M 43.64 57.38
  C 44.81 51.12 45.06 33.83 36.50 31.97
  Q 31.55 30.90 27.22 33.41
  C 20.82 37.14 20.58 49.67 22.07 55.62
  C 23.02 59.44 25.05 61.19 29.02 61.59
  Q 35.51 62.25 40.80 60.79
  C 42.64 60.28 43.31 59.17 43.64 57.38"
/>
</g>
<path fill="#ffffff" fill-opacity="0" d="
  M 77.00 0.00
  L 77.00 116.00
  L 0.00 116.00
  L 0.00 0.00
  L 77.00 0.00
  Z
  M 39.69 72.36
  Q 40.35 72.26 40.17 72.90
  C 38.27 79.64 34.74 84.94 30.26 92.22
  A 1.46 1.46 0.0 0 0 30.40 93.94
  Q 31.85 95.65 34.19 96.47
  Q 42.00 99.23 49.50 97.62
  C 52.91 96.89 55.39 90.74 56.44 87.99
  Q 60.51 77.34 62.33 61.53
  Q 63.53 51.07 61.08 39.52
  C 57.84 24.23 46.40 17.98 31.70 18.91
  C 17.51 19.81 8.45 29.03 6.29 42.69
  C 5.13 50.00 5.77 59.90 10.29 65.96
  C 15.02 72.29 23.07 74.43 30.77 73.59
  Q 34.60 73.17 39.69 72.36
  Z"
/>
<path fill="#000000" d="
  M 39.69 72.36
  Q 34.60 73.17 30.77 73.59
  C 23.07 74.43 15.02 72.29 10.29 65.96
  C 5.77 59.90 5.13 50.00 6.29 42.69
  C 8.45 29.03 17.51 19.81 31.70 18.91
  C 46.40 17.98 57.84 24.23 61.08 39.52
  Q 63.53 51.07 62.33 61.53
  Q 60.51 77.34 56.44 87.99
  C 55.39 90.74 52.91 96.89 49.50 97.62
  Q 42.00 99.23 34.19 96.47
  Q 31.85 95.65 30.40 93.94
  A 1.46 1.46 0.0 0 1 30.26 92.22
  C 34.74 84.94 38.27 79.64 40.17 72.90
  Q 40.35 72.26 39.69 72.36
  Z
  M 43.64 57.38
  C 44.81 51.12 45.06 33.83 36.50 31.97
  Q 31.55 30.90 27.22 33.41
  C 20.82 37.14 20.58 49.67 22.07 55.62
  C 23.02 59.44 25.05 61.19 29.02 61.59
  Q 35.51 62.25 40.80 60.79
  C 42.64 60.28 43.31 59.17 43.64 57.38
  Z"
/>
<path fill="#ffffff" fill-opacity="0" d="
  M 36.50 31.97
  C 45.06 33.83 44.81 51.12 43.64 57.38
  C 43.31 59.17 42.64 60.28 40.80 60.79
  Q 35.51 62.25 29.02 61.59
  C 25.05 61.19 23.02 59.44 22.07 55.62
  C 20.58 49.67 20.82 37.14 27.22 33.41
  Q 31.55 30.90 36.50 31.97
  Z"
/>
</svg>
