<?xml version="1.0" encoding="UTF-8" standalone="no"?>
<!DOCTYPE svg PUBLIC "-//W3C//DTD SVG 1.1//EN" "http://www.w3.org/Graphics/SVG/1.1/DTD/svg11.dtd">
<svg xmlns="http://www.w3.org/2000/svg" version="1.1" viewBox="0.00 0.00 79.00 116.00">
<path stroke="#808080" stroke-width="2.00" fill="none" stroke-linecap="butt" vector-effect="non-scaling-stroke" d="
  M 31.54 81.26
  Q 31.04 79.92 32.69 78.90
  Q 46.13 70.59 48.09 69.30
  Q 53.16 65.96 55.64 63.12
  Q 65.64 51.72 57.14 38.63
  Q 53.20 32.55 47.87 28.47
  C 41.44 23.53 30.82 17.00 22.67 22.22
  C 18.74 24.74 14.67 29.62 14.38 34.25
  Q 14.15 37.93 17.31 39.61
  Q 23.62 42.96 25.45 44.05
  Q 29.13 46.25 32.84 49.94
  C 38.35 55.43 31.94 60.05 27.52 63.52
  Q 25.32 65.25 17.93 72.18
  Q 14.85 75.07 13.18 78.16
  C 11.17 81.90 10.84 87.64 14.82 90.15
  Q 16.81 91.41 20.33 91.45
  Q 42.66 91.74 55.77 89.82
  C 57.05 89.63 59.05 89.62 59.72 88.48
  Q 62.38 83.96 60.30 79.19
  A 1.68 1.67 72.6 0 0 58.44 78.21
  Q 47.61 80.34 40.77 81.23
  Q 36.07 81.83 32.29 81.79
  Q 31.74 81.78 31.54 81.26"
/>
<path fill="#ffffff" fill-opacity="0" d="
  M 79.00 0.00
  L 79.00 116.00
  L 0.00 116.00
  L 0.00 0.00
  L 79.00 0.00
  Z
  M 31.54 81.26
  Q 31.04 79.92 32.69 78.90
  Q 46.13 70.59 48.09 69.30
  Q 53.16 65.96 55.64 63.12
  Q 65.64 51.72 57.14 38.63
  Q 53.20 32.55 47.87 28.47
  C 41.44 23.53 30.82 17.00 22.67 22.22
  C 18.74 24.74 14.67 29.62 14.38 34.25
  Q 14.15 37.93 17.31 39.61
  Q 23.62 42.96 25.45 44.05
  Q 29.13 46.25 32.84 49.94
  C 38.35 55.43 31.94 60.05 27.52 63.52
  Q 25.32 65.25 17.93 72.18
  Q 14.85 75.07 13.18 78.16
  C 11.17 81.90 10.84 87.64 14.82 90.15
  Q 16.81 91.41 20.33 91.45
  Q 42.66 91.74 55.77 89.82
  C 57.05 89.63 59.05 89.62 59.72 88.48
  Q 62.38 83.96 60.30 79.19
  A 1.68 1.67 72.6 0 0 58.44 78.21
  Q 47.61 80.34 40.77 81.23
  Q 36.07 81.83 32.29 81.79
  Q 31.74 81.78 31.54 81.26
  Z"
/>
<path fill="#000000" d="
  M 32.29 81.79
  Q 36.07 81.83 40.77 81.23
  Q 47.61 80.34 58.44 78.21
  A 1.68 1.67 72.6 0 1 60.30 79.19
  Q 62.38 83.96 59.72 88.48
  C 59.05 89.62 57.05 89.63 55.77 89.82
  Q 42.66 91.74 20.33 91.45
  Q 16.81 91.41 14.82 90.15
  C 10.84 87.64 11.17 81.90 13.18 78.16
  Q 14.85 75.07 17.93 72.18
  Q 25.32 65.25 27.52 63.52
  C 31.94 60.05 38.35 55.43 32.84 49.94
  Q 29.13 46.25 25.45 44.05
  Q 23.62 42.96 17.31 39.61
  Q 14.15 37.93 14.38 34.25
  C 14.67 29.62 18.74 24.74 22.67 22.22
  C 30.82 17.00 41.44 23.53 47.87 28.47
  Q 53.20 32.55 57.14 38.63
  Q 65.64 51.72 55.64 63.12
  Q 53.16 65.96 48.09 69.30
  Q 46.13 70.59 32.69 78.90
  Q 31.04 79.92 31.54 81.26
  Q 31.74 81.78 32.29 81.79
  Z"
/>
</svg>
