<?xml version="1.0" encoding="UTF-8" standalone="no"?>
<!DOCTYPE svg PUBLIC "-//W3C//DTD SVG 1.1//EN" "http://www.w3.org/Graphics/SVG/1.1/DTD/svg11.dtd">
<svg xmlns="http://www.w3.org/2000/svg" version="1.1" viewBox="0.00 0.00 73.00 116.00">
<path stroke="#808080" stroke-width="2.00" fill="none" stroke-linecap="butt" vector-effect="non-scaling-stroke" d="
  M 44.50 45.92
  Q 44.56 51.19 41.72 57.25
  Q 33.71 74.35 21.41 91.88
  A 1.35 1.34 42.1 0 0 21.50 93.54
  Q 24.74 97.20 29.87 98.76
  C 33.44 99.85 35.97 99.21 37.93 96.17
  Q 53.24 72.37 61.98 44.74
  Q 62.82 42.07 63.31 37.06
  Q 64.04 29.53 58.88 24.73
  C 56.18 22.23 52.36 21.74 48.49 21.33
  Q 29.61 19.33 12.99 19.85
  Q 9.88 19.94 8.48 21.98
  C 4.74 27.40 3.40 36.66 7.02 42.99
  C 8.49 45.55 10.37 45.39 13.26 45.08
  Q 16.85 44.70 23.66 43.93
  C 30.84 43.12 36.44 43.46 43.13 44.37
  A 1.59 1.58 -86.6 0 1 44.50 45.92"
/>
<path fill="#ffffff" fill-opacity="0" d="
  M 73.00 0.00
  L 73.00 116.00
  L 0.00 116.00
  L 0.00 0.00
  L 73.00 0.00
  Z
  M 44.50 45.92
  Q 44.56 51.19 41.72 57.25
  Q 33.71 74.35 21.41 91.88
  A 1.35 1.34 42.1 0 0 21.50 93.54
  Q 24.74 97.20 29.87 98.76
  C 33.44 99.85 35.97 99.21 37.93 96.17
  Q 53.24 72.37 61.98 44.74
  Q 62.82 42.07 63.31 37.06
  Q 64.04 29.53 58.88 24.73
  C 56.18 22.23 52.36 21.74 48.49 21.33
  Q 29.61 19.33 12.99 19.85
  Q 9.88 19.94 8.48 21.98
  C 4.74 27.40 3.40 36.66 7.02 42.99
  C 8.49 45.55 10.37 45.39 13.26 45.08
  Q 16.85 44.70 23.66 43.93
  C 30.84 43.12 36.44 43.46 43.13 44.37
  A 1.59 1.58 -86.6 0 1 44.50 45.92
  Z"
/>
<path fill="#000000" d="
  M 44.50 45.92
  A 1.59 1.58 -86.6 0 0 43.13 44.37
  C 36.44 43.46 30.84 43.12 23.66 43.93
  Q 16.85 44.70 13.26 45.08
  C 10.37 45.39 8.49 45.55 7.02 42.99
  C 3.40 36.66 4.74 27.40 8.48 21.98
  Q 9.88 19.94 12.99 19.85
  Q 29.61 19.33 48.49 21.33
  C 52.36 21.74 56.18 22.23 58.88 24.73
  Q 64.04 29.53 63.31 37.06
  Q 62.82 42.07 61.98 44.74
  Q 53.24 72.37 37.93 96.17
  C 35.97 99.21 33.44 99.85 29.87 98.76
  Q 24.74 97.20 21.50 93.54
  A 1.35 1.34 42.1 0 1 21.41 91.88
  Q 33.71 74.35 41.72 57.25
  Q 44.56 51.19 44.50 45.92
  Z"
/>
</svg>
