<?xml version="1.0" encoding="UTF-8" standalone="no"?>
<!DOCTYPE svg PUBLIC "-//W3C//DTD SVG 1.1//EN" "http://www.w3.org/Graphics/SVG/1.1/DTD/svg11.dtd">
<svg xmlns="http://www.w3.org/2000/svg" version="1.1" viewBox="0.00 0.00 79.00 109.00">
<path stroke="#808080" stroke-width="2.00" fill="none" stroke-linecap="butt" vector-effect="non-scaling-stroke" d="
  M 16.55 37.96
  A 0.49 0.49 0.0 0 1 17.00 38.65
  Q 13.75 45.60 12.64 53.29
  C 12.22 56.22 12.72 59.33 13.76 62.07
  Q 15.84 67.53 22.06 66.44
  Q 25.32 65.87 30.75 63.75
  Q 35.87 61.75 41.78 62.77
  C 43.88 63.13 44.79 63.99 44.95 66.11
  C 45.65 75.47 35.37 84.51 29.03 90.34
  A 0.89 0.88 45.6 0 0 29.02 91.62
  Q 31.49 94.02 34.14 95.04
  Q 43.34 98.56 51.59 98.72
  C 54.86 98.79 57.84 95.27 59.39 92.92
  Q 67.68 80.37 67.34 66.89
  Q 67.04 54.75 55.84 52.90
  Q 47.19 51.47 40.05 52.83
  Q 37.59 53.30 29.95 54.75
  A 1.51 1.50 74.9 0 1 28.24 53.76
  C 26.78 49.54 28.91 42.53 30.43 37.90
  A 0.67 0.66 10.8 0 1 31.10 37.45
  Q 46.13 38.31 46.74 38.33
  Q 53.83 38.63 59.55 39.93
  Q 61.64 40.40 62.69 39.18
  Q 66.48 34.79 65.61 28.42
  Q 65.38 26.76 63.50 26.48
  Q 39.85 23.01 16.00 23.49
  Q 12.21 23.56 10.08 24.10
  C 8.27 24.56 7.58 25.73 7.09 27.38
  Q 5.69 32.12 6.99 37.34
  Q 7.14 37.96 7.77 37.96
  L 16.55 37.96"
/>
<path fill="#ffffff" fill-opacity="0" d="
  M 79.00 0.00
  L 79.00 109.00
  L 0.00 109.00
  L 0.00 0.00
  L 79.00 0.00
  Z
  M 16.55 37.96
  A 0.49 0.49 0.0 0 1 17.00 38.65
  Q 13.75 45.60 12.64 53.29
  C 12.22 56.22 12.72 59.33 13.76 62.07
  Q 15.84 67.53 22.06 66.44
  Q 25.32 65.87 30.75 63.75
  Q 35.87 61.75 41.78 62.77
  C 43.88 63.13 44.79 63.99 44.95 66.11
  C 45.65 75.47 35.37 84.51 29.03 90.34
  A 0.89 0.88 45.6 0 0 29.02 91.62
  Q 31.49 94.02 34.14 95.04
  Q 43.34 98.56 51.59 98.72
  C 54.86 98.79 57.84 95.27 59.39 92.92
  Q 67.68 80.37 67.34 66.89
  Q 67.04 54.75 55.84 52.90
  Q 47.19 51.47 40.05 52.83
  Q 37.59 53.30 29.95 54.75
  A 1.51 1.50 74.9 0 1 28.24 53.76
  C 26.78 49.54 28.91 42.53 30.43 37.90
  A 0.67 0.66 10.8 0 1 31.10 37.45
  Q 46.13 38.31 46.74 38.33
  Q 53.83 38.63 59.55 39.93
  Q 61.64 40.40 62.69 39.18
  Q 66.48 34.79 65.61 28.42
  Q 65.38 26.76 63.50 26.48
  Q 39.85 23.01 16.00 23.49
  Q 12.21 23.56 10.08 24.10
  C 8.27 24.56 7.58 25.73 7.09 27.38
  Q 5.69 32.12 6.99 37.34
  Q 7.14 37.96 7.77 37.96
  L 16.55 37.96
  Z"
/>
<path fill="#000000" d="
  M 16.55 37.96
  L 7.77 37.96
  Q 7.14 37.96 6.99 37.34
  Q 5.69 32.12 7.09 27.38
  C 7.58 25.73 8.27 24.56 10.08 24.10
  Q 12.21 23.56 16.00 23.49
  Q 39.85 23.01 63.50 26.48
  Q 65.38 26.76 65.61 28.42
  Q 66.48 34.79 62.69 39.18
  Q 61.64 40.40 59.55 39.93
  Q 53.83 38.63 46.74 38.33
  Q 46.13 38.31 31.10 37.45
  A 0.67 0.66 10.8 0 0 30.43 37.90
  C 28.91 42.53 26.78 49.54 28.24 53.76
  A 1.51 1.50 74.9 0 0 29.95 54.75
  Q 37.59 53.30 40.05 52.83
  Q 47.19 51.47 55.84 52.90
  Q 67.04 54.75 67.34 66.89
  Q 67.68 80.37 59.39 92.92
  C 57.84 95.27 54.86 98.79 51.59 98.72
  Q 43.34 98.56 34.14 95.04
  Q 31.49 94.02 29.02 91.62
  A 0.89 0.88 45.6 0 1 29.03 90.34
  C 35.37 84.51 45.65 75.47 44.95 66.11
  C 44.79 63.99 43.88 63.13 41.78 62.77
  Q 35.87 61.75 30.75 63.75
  Q 25.32 65.87 22.06 66.44
  Q 15.84 67.53 13.76 62.07
  C 12.72 59.33 12.22 56.22 12.64 53.29
  Q 13.75 45.60 17.00 38.65
  A 0.49 0.49 0.0 0 0 16.55 37.96
  Z"
/>
</svg>
