<?xml version="1.0" encoding="UTF-8" standalone="no"?>
<!DOCTYPE svg PUBLIC "-//W3C//DTD SVG 1.1//EN" "http://www.w3.org/Graphics/SVG/1.1/DTD/svg11.dtd">
<svg xmlns="http://www.w3.org/2000/svg" version="1.1" viewBox="0.00 0.00 284.00 276.00">
<g stroke-width="2.00" fill="none" stroke-linecap="butt">
<path stroke="#808080" vector-effect="non-scaling-stroke" d="
  M 238.75 40.60
  Q 215.28 18.07 184.47 8.45
  Q 146.81 -3.31 108.54 7.29
  Q 76.24 16.23 52.82 38.09
  Q 13.52 74.77 9.19 129.32
  Q 8.44 138.88 9.44 149.30
  Q 13.89 195.39 44.48 229.16
  C 61.09 247.50 83.18 260.97 106.73 267.79
  C 152.43 281.03 202.24 269.21 236.92 236.66
  Q 264.02 211.22 274.37 175.76
  Q 276.67 167.88 273.60 161.36
  Q 268.82 151.19 258.62 149.81
  Q 252.82 149.03 247.68 151.37
  C 241.63 154.11 238.38 158.59 236.55 165.04
  C 230.56 186.07 217.18 204.14 199.83 216.28
  C 167.35 239.00 123.70 239.20 90.85 216.32
  Q 65.06 198.35 55.04 168.49
  Q 45.99 141.53 52.90 114.87
  Q 59.94 87.71 79.67 69.13
  Q 104.06 46.16 137.41 43.26
  Q 147.75 42.36 157.35 43.69
  Q 186.52 47.73 208.74 67.29
  Q 209.40 67.87 208.74 68.45
  Q 189.43 85.53 184.17 90.67
  C 180.96 93.82 181.96 98.98 185.13 101.59
  Q 186.73 102.91 190.37 103.35
  Q 190.66 103.38 196.00 103.98
  Q 230.89 107.89 265.76 111.90
  Q 272.55 112.68 274.98 108.22
  Q 276.19 105.99 276.20 99.72
  Q 276.25 64.32 276.24 28.92
  C 276.24 24.39 276.44 21.51 273.07 18.95
  Q 270.20 16.77 266.41 17.69
  Q 264.60 18.14 261.24 21.22
  Q 255.79 26.23 239.57 40.62
  Q 239.15 40.99 238.75 40.60"
/>
<path stroke="#808080" vector-effect="non-scaling-stroke" d="
  M 215.30 68.24
  Q 211.38 71.81 187.77 93.02
  Q 185.82 94.77 186.68 96.80
  C 187.30 98.27 188.74 98.88 190.25 99.05
  Q 256.71 106.54 264.76 107.44
  Q 267.45 107.74 268.28 107.72
  Q 271.47 107.63 271.51 104.23
  Q 271.97 58.08 271.82 25.60
  C 271.81 22.46 269.10 20.32 266.34 22.59
  Q 262.63 25.64 239.56 46.47
  A 0.76 0.75 46.9 0 1 238.51 46.43
  Q 208.78 16.06 166.54 8.46
  C 135.58 2.89 103.22 9.49 76.47 25.63
  C 47.27 43.25 26.82 71.10 17.68 104.00
  Q 15.11 113.26 14.07 123.64
  Q 9.89 165.44 29.97 201.82
  Q 34.71 210.40 41.06 218.46
  Q 66.70 250.99 106.56 263.29
  C 124.13 268.71 143.45 270.37 161.51 267.76
  Q 216.29 259.84 249.68 215.95
  Q 261.73 200.11 268.77 179.48
  Q 271.37 171.85 270.98 167.89
  Q 270.29 161.04 264.72 156.88
  Q 260.03 153.36 254.70 153.89
  Q 247.86 154.57 243.99 159.47
  Q 242.27 161.65 240.15 168.18
  Q 230.67 197.46 206.89 216.38
  C 196.46 224.68 184.38 230.68 171.85 234.10
  Q 143.00 241.97 114.68 232.88
  Q 82.62 222.59 62.72 193.81
  Q 48.62 173.41 45.96 145.81
  Q 45.03 136.20 46.42 125.86
  Q 49.69 101.62 62.90 82.17
  Q 79.86 57.20 108.07 45.88
  C 145.05 31.04 187.12 39.57 215.32 67.64
  A 0.41 0.41 0.0 0 1 215.30 68.24"
/>
</g>
<path fill="#ffffff" fill-opacity="0" d="
  M 284.00 0.00
  L 284.00 276.00
  L 0.00 276.00
  L 0.00 0.00
  L 284.00 0.00
  Z
  M 238.75 40.60
  Q 215.28 18.07 184.47 8.45
  Q 146.81 -3.31 108.54 7.29
  Q 76.24 16.23 52.82 38.09
  Q 13.52 74.77 9.19 129.32
  Q 8.44 138.88 9.44 149.30
  Q 13.89 195.39 44.48 229.16
  C 61.09 247.50 83.18 260.97 106.73 267.79
  C 152.43 281.03 202.24 269.21 236.92 236.66
  Q 264.02 211.22 274.37 175.76
  Q 276.67 167.88 273.60 161.36
  Q 268.82 151.19 258.62 149.81
  Q 252.82 149.03 247.68 151.37
  C 241.63 154.11 238.38 158.59 236.55 165.04
  C 230.56 186.07 217.18 204.14 199.83 216.28
  C 167.35 239.00 123.70 239.20 90.85 216.32
  Q 65.06 198.35 55.04 168.49
  Q 45.99 141.53 52.90 114.87
  Q 59.94 87.71 79.67 69.13
  Q 104.06 46.16 137.41 43.26
  Q 147.75 42.36 157.35 43.69
  Q 186.52 47.73 208.74 67.29
  Q 209.40 67.87 208.74 68.45
  Q 189.43 85.53 184.17 90.67
  C 180.96 93.82 181.96 98.98 185.13 101.59
  Q 186.73 102.91 190.37 103.35
  Q 190.66 103.38 196.00 103.98
  Q 230.89 107.89 265.76 111.90
  Q 272.55 112.68 274.98 108.22
  Q 276.19 105.99 276.20 99.72
  Q 276.25 64.32 276.24 28.92
  C 276.24 24.39 276.44 21.51 273.07 18.95
  Q 270.20 16.77 266.41 17.69
  Q 264.60 18.14 261.24 21.22
  Q 255.79 26.23 239.57 40.62
  Q 239.15 40.99 238.75 40.60
  Z"
/>
<path fill="#000000" d="
  M 238.75 40.60
  Q 239.15 40.99 239.57 40.62
  Q 255.79 26.23 261.24 21.22
  Q 264.60 18.14 266.41 17.69
  Q 270.20 16.77 273.07 18.95
  C 276.44 21.51 276.24 24.39 276.24 28.92
  Q 276.25 64.32 276.20 99.72
  Q 276.19 105.99 274.98 108.22
  Q 272.55 112.68 265.76 111.90
  Q 230.89 107.89 196.00 103.98
  Q 190.66 103.38 190.37 103.35
  Q 186.73 102.91 185.13 101.59
  C 181.96 98.98 180.96 93.82 184.17 90.67
  Q 189.43 85.53 208.74 68.45
  Q 209.40 67.87 208.74 67.29
  Q 186.52 47.73 157.35 43.69
  Q 147.75 42.36 137.41 43.26
  Q 104.06 46.16 79.67 69.13
  Q 59.94 87.71 52.90 114.87
  Q 45.99 141.53 55.04 168.49
  Q 65.06 198.35 90.85 216.32
  C 123.70 239.20 167.35 239.00 199.83 216.28
  C 217.18 204.14 230.56 186.07 236.55 165.04
  C 238.38 158.59 241.63 154.11 247.68 151.37
  Q 252.82 149.03 258.62 149.81
  Q 268.82 151.19 273.60 161.36
  Q 276.67 167.88 274.37 175.76
  Q 264.02 211.22 236.92 236.66
  C 202.24 269.21 152.43 281.03 106.73 267.79
  C 83.18 260.97 61.09 247.50 44.48 229.16
  Q 13.89 195.39 9.44 149.30
  Q 8.44 138.88 9.19 129.32
  Q 13.52 74.77 52.82 38.09
  Q 76.24 16.23 108.54 7.29
  Q 146.81 -3.31 184.47 8.45
  Q 215.28 18.07 238.75 40.60
  Z
  M 215.30 68.24
  Q 211.38 71.81 187.77 93.02
  Q 185.82 94.77 186.68 96.80
  C 187.30 98.27 188.74 98.88 190.25 99.05
  Q 256.71 106.54 264.76 107.44
  Q 267.45 107.74 268.28 107.72
  Q 271.47 107.63 271.51 104.23
  Q 271.97 58.08 271.82 25.60
  C 271.81 22.46 269.10 20.32 266.34 22.59
  Q 262.63 25.64 239.56 46.47
  A 0.76 0.75 46.9 0 1 238.51 46.43
  Q 208.78 16.06 166.54 8.46
  C 135.58 2.89 103.22 9.49 76.47 25.63
  C 47.27 43.25 26.82 71.10 17.68 104.00
  Q 15.11 113.26 14.07 123.64
  Q 9.89 165.44 29.97 201.82
  Q 34.71 210.40 41.06 218.46
  Q 66.70 250.99 106.56 263.29
  C 124.13 268.71 143.45 270.37 161.51 267.76
  Q 216.29 259.84 249.68 215.95
  Q 261.73 200.11 268.77 179.48
  Q 271.37 171.85 270.98 167.89
  Q 270.29 161.04 264.72 156.88
  Q 260.03 153.36 254.70 153.89
  Q 247.86 154.57 243.99 159.47
  Q 242.27 161.65 240.15 168.18
  Q 230.67 197.46 206.89 216.38
  C 196.46 224.68 184.38 230.68 171.85 234.10
  Q 143.00 241.97 114.68 232.88
  Q 82.62 222.59 62.72 193.81
  Q 48.62 173.41 45.96 145.81
  Q 45.03 136.20 46.42 125.86
  Q 49.69 101.62 62.90 82.17
  Q 79.86 57.20 108.07 45.88
  C 145.05 31.04 187.12 39.57 215.32 67.64
  A 0.41 0.41 0.0 0 1 215.30 68.24
  Z"
/>
<path fill="#ffffff" d="
  M 215.30 68.24
  A 0.41 0.41 0.0 0 0 215.32 67.64
  C 187.12 39.57 145.05 31.04 108.07 45.88
  Q 79.86 57.20 62.90 82.17
  Q 49.69 101.62 46.42 125.86
  Q 45.03 136.20 45.96 145.81
  Q 48.62 173.41 62.72 193.81
  Q 82.62 222.59 114.68 232.88
  Q 143.00 241.97 171.85 234.10
  C 184.38 230.68 196.46 224.68 206.89 216.38
  Q 230.67 197.46 240.15 168.18
  Q 242.27 161.65 243.99 159.47
  Q 247.86 154.57 254.70 153.89
  Q 260.03 153.36 264.72 156.88
  Q 270.29 161.04 270.98 167.89
  Q 271.37 171.85 268.77 179.48
  Q 261.73 200.11 249.68 215.95
  Q 216.29 259.84 161.51 267.76
  C 143.45 270.37 124.13 268.71 106.56 263.29
  Q 66.70 250.99 41.06 218.46
  Q 34.71 210.40 29.97 201.82
  Q 9.89 165.44 14.07 123.64
  Q 15.11 113.26 17.68 104.00
  C 26.82 71.10 47.27 43.25 76.47 25.63
  C 103.22 9.49 135.58 2.89 166.54 8.46
  Q 208.78 16.06 238.51 46.43
  A 0.76 0.75 46.9 0 0 239.56 46.47
  Q 262.63 25.64 266.34 22.59
  C 269.10 20.32 271.81 22.46 271.82 25.60
  Q 271.97 58.08 271.51 104.23
  Q 271.47 107.63 268.28 107.72
  Q 267.45 107.74 264.76 107.44
  Q 256.71 106.54 190.25 99.05
  C 188.74 98.88 187.30 98.27 186.68 96.80
  Q 185.82 94.77 187.77 93.02
  Q 211.38 71.81 215.30 68.24
  Z"
/>
</svg>
