<?xml version="1.0" encoding="UTF-8" standalone="no"?>
<!DOCTYPE svg PUBLIC "-//W3C//DTD SVG 1.1//EN" "http://www.w3.org/Graphics/SVG/1.1/DTD/svg11.dtd">
<svg xmlns="http://www.w3.org/2000/svg" version="1.1" viewBox="0.00 0.00 293.00 225.00">
<g stroke-width="2.00" fill="none" stroke-linecap="butt">
<path stroke="#faf3e5" vector-effect="non-scaling-stroke" d="
  M 109.58 55.44
  Q 109.51 56.23 108.77 56.45"
/>
<path stroke="#b3bec6" vector-effect="non-scaling-stroke" d="
  M 108.77 56.45
  C 105.94 56.34 103.11 55.65 100.46 55.58
  Q 86.27 55.20 74.57 60.34
  Q 55.73 68.61 43.90 86.86
  Q 39.64 93.44 37.42 103.56
  C 34.54 116.61 39.57 130.07 47.49 140.80
  Q 53.74 149.27 58.00 153.08
  Q 63.22 157.77 70.06 162.05
  Q 72.05 163.30 72.62 165.15
  Q 73.35 167.57 75.27 173.27
  C 76.27 176.27 78.30 179.35 80.00 181.44
  Q 84.82 187.34 91.77 194.34
  Q 97.51 200.12 104.84 203.52
  Q 108.96 205.43 114.85 206.26
  Q 122.20 207.30 125.26 207.19
  Q 131.40 206.95 143.15 203.56
  Q 149.32 201.78 157.56 195.80
  Q 164.00 191.14 166.53 188.53
  Q 169.54 185.44 175.74 177.00
  Q 177.26 174.93 178.65 174.60
  Q 185.40 172.99 187.88 171.88
  Q 206.53 163.52 226.90 155.12
  Q 241.53 149.09 242.54 133.68
  Q 242.81 129.58 241.48 124.53
  Q 240.03 118.99 238.56 115.69
  Q 234.64 106.92 233.70 104.54
  Q 231.94 100.08 226.00 94.96
  Q 223.99 93.23 223.16 92.11
  Q 221.54 89.94 221.14 88.10
  Q 217.83 72.72 210.60 60.63
  Q 208.29 56.76 207.25 53.38
  Q 205.16 46.63 203.16 40.35
  Q 200.37 31.59 196.00 23.09
  Q 193.46 18.15 187.33 14.20
  Q 186.22 13.48 183.80 12.82
  C 181.09 12.08 177.74 10.71 174.63 11.02
  Q 168.52 11.63 162.24 13.99
  Q 141.76 21.71 125.51 29.31
  Q 120.04 31.87 115.86 35.85
  Q 111.53 39.98 110.45 43.93
  Q 109.37 47.88 108.74 53.43
  C 108.65 54.28 109.06 54.86 109.58 55.44"
/>
<path stroke="#adb2ac" vector-effect="non-scaling-stroke" d="
  M 108.77 56.45
  L 110.13 56.48
  A 0.74 0.73 -5.4 0 1 110.84 57.06
  L 110.93 57.49
  Q 111.08 58.17 110.42 58.03
  Q 96.37 54.95 82.64 58.63
  Q 72.98 61.21 64.60 67.02
  Q 52.88 75.13 46.01 85.52
  Q 39.20 95.84 37.88 109.54
  Q 37.57 112.87 38.36 117.49
  Q 40.39 129.18 47.27 138.76
  Q 54.36 148.63 58.41 152.42
  Q 60.99 154.84 71.17 161.48
  Q 72.16 162.13 72.68 162.77
  Q 73.43 163.71 73.66 164.62
  Q 75.12 170.41 75.97 172.77
  Q 77.21 176.25 81.88 181.96
  Q 87.56 188.90 91.36 192.68
  Q 94.10 195.41 99.41 199.19
  Q 103.75 202.28 108.53 203.78
  Q 117.72 206.67 125.69 206.08
  Q 138.76 205.11 150.49 199.07
  C 153.44 197.54 157.34 194.29 159.62 192.71
  Q 163.20 190.23 165.96 187.32
  Q 170.74 182.30 174.25 177.15
  C 175.88 174.76 176.98 173.73 179.65 173.14
  C 182.57 172.50 187.02 171.23 190.65 169.60
  Q 202.06 164.48 224.50 154.86
  Q 230.67 152.21 233.06 150.46
  Q 237.34 147.32 239.23 142.77
  Q 242.36 135.17 241.51 129.01
  Q 241.30 127.48 240.10 123.31
  Q 239.29 120.52 238.15 117.85
  Q 235.68 112.08 233.27 106.28
  Q 230.42 99.45 224.98 95.12
  Q 223.09 93.62 222.42 92.70
  C 220.57 90.14 220.05 87.11 219.45 84.13
  Q 219.06 82.21 217.85 78.98
  Q 214.31 69.51 209.41 60.67
  Q 207.34 56.92 206.11 52.84
  Q 202.61 41.25 202.46 40.76
  Q 201.62 38.12 197.79 29.23
  Q 194.76 22.18 191.40 18.66
  Q 186.03 13.04 176.99 12.13
  Q 174.36 11.86 171.06 12.52
  Q 166.44 13.45 165.22 13.92
  Q 150.88 19.40 126.34 30.09
  Q 119.22 33.20 114.68 38.53
  Q 112.02 41.66 111.25 45.77
  Q 110.30 50.82 110.09 55.35
  Q 110.08 55.57 109.88 55.48
  Q 109.70 55.39 109.58 55.44"
/>
<path stroke="#8a7a6c" vector-effect="non-scaling-stroke" d="
  M 164.92 145.58
  Q 165.88 147.18 169.38 154.74
  Q 171.62 159.58 176.36 158.49
  C 178.31 158.04 180.55 156.35 182.29 155.77
  Q 187.72 153.98 191.52 152.45
  Q 194.50 151.26 200.36 148.22
  C 207.36 144.59 215.20 142.18 221.79 137.80
  Q 226.15 134.92 224.18 129.86
  Q 220.38 120.12 215.83 110.94
  Q 213.65 106.54 212.10 105.23
  Q 209.10 102.67 204.80 103.51
  Q 199.50 104.54 194.59 107.26
  Q 194.04 107.56 193.75 107.00
  L 190.84 101.41
  Q 190.49 100.73 191.20 100.46
  Q 197.54 98.12 201.11 95.60
  C 204.77 93.02 202.27 83.40 200.91 80.14
  Q 198.82 75.14 195.74 67.82
  Q 193.38 62.23 187.12 63.57
  Q 184.90 64.05 177.74 67.51
  Q 176.20 68.26 175.41 66.74
  L 174.97 65.90
  Q 174.05 64.14 175.79 63.20
  Q 177.68 62.19 184.13 59.53
  C 188.23 57.83 190.83 56.09 189.40 51.34
  Q 188.65 48.82 188.24 48.04
  Q 185.59 42.98 180.18 32.34
  Q 177.64 27.34 172.01 28.31
  Q 167.36 29.11 161.74 31.53
  Q 140.06 40.86 136.26 42.49
  Q 130.87 44.79 127.88 47.41
  Q 125.26 49.70 125.13 53.75
  Q 125.06 55.78 126.85 59.96
  Q 127.64 61.82 131.28 70.83
  Q 133.36 75.98 136.01 81.55
  Q 142.05 94.25 143.51 98.27
  Q 146.35 106.12 148.59 111.18
  Q 151.94 118.75 152.08 119.09
  Q 154.54 125.07 155.46 127.16
  Q 156.26 128.97 155.11 127.37
  C 151.87 122.87 147.10 119.44 142.61 116.27
  C 136.16 111.70 128.23 109.83 120.55 110.17
  Q 113.21 110.49 108.55 111.64
  Q 104.03 112.75 108.08 110.45
  Q 115.03 106.52 121.44 100.69
  Q 124.84 97.61 123.22 93.33
  Q 116.09 74.45 95.43 73.26
  C 82.30 72.50 74.20 78.76 65.39 87.81
  Q 60.50 92.83 58.04 98.77
  C 54.53 107.26 54.37 119.11 59.36 127.06
  Q 61.96 131.20 69.28 140.14
  Q 73.93 145.83 76.42 147.06
  Q 84.59 151.11 93.99 150.90
  Q 97.30 150.82 102.08 150.64
  Q 103.03 150.60 102.23 151.13
  Q 98.48 153.59 94.68 157.41
  Q 92.46 159.63 91.92 162.62
  Q 91.55 164.70 93.34 168.12
  Q 98.08 177.19 103.49 183.12
  Q 111.90 192.35 124.70 190.67
  Q 127.34 190.33 132.30 188.36
  Q 135.49 187.09 139.75 185.49
  Q 148.29 182.27 155.32 176.62
  C 160.40 172.53 163.52 168.01 164.79 161.77
  Q 166.14 155.10 164.59 145.70
  A 0.18 0.18 0.0 0 1 164.92 145.58"
/>
<path stroke="#8c5c3c" vector-effect="non-scaling-stroke" d="
  M 176.78 79.74
  C 172.71 81.24 170.42 79.86 168.44 76.26
  Q 165.72 71.30 163.56 65.68
  Q 161.64 60.68 165.21 57.93
  Q 169.13 54.91 178.11 50.75
  A 0.49 0.48 64.2 0 0 178.34 50.08
  Q 174.94 43.47 173.43 39.08
  Q 173.22 38.46 172.61 38.71
  Q 162.53 42.90 149.26 48.29
  C 145.26 49.91 140.77 52.30 136.32 54.42
  A 0.45 0.45 0.0 0 0 136.12 55.06
  C 139.09 60.10 141.01 66.26 143.19 70.78
  Q 150.41 85.76 156.20 101.36
  C 157.54 104.96 158.76 107.36 160.83 111.74
  Q 162.38 115.04 164.16 119.64
  Q 169.22 132.76 176.79 145.67
  Q 177.05 146.10 177.49 145.88
  Q 180.61 144.39 184.00 143.32
  C 190.30 141.33 196.10 137.56 202.51 135.10
  Q 207.27 133.27 212.25 130.83
  A 0.42 0.42 0.0 0 0 212.44 130.26
  L 205.16 116.26
  A 0.92 0.91 -23.8 0 0 204.03 115.83
  Q 200.68 117.09 195.71 119.63
  C 193.74 120.64 189.61 121.52 187.67 119.77
  Q 185.37 117.69 183.71 114.14
  Q 181.20 108.78 179.06 102.92
  C 177.46 98.57 177.55 94.36 181.20 91.58
  C 183.47 89.86 187.09 89.13 190.50 88.13
  A 0.73 0.73 0.0 0 0 190.98 87.18
  Q 189.03 81.78 186.21 76.59
  A 0.47 0.46 -24.1 0 0 185.63 76.37
  Q 177.59 79.45 176.78 79.74"
/>
<path stroke="#8c5c3c" vector-effect="non-scaling-stroke" d="
  M 84.87 101.39
  Q 86.62 98.41 89.90 98.35
  C 92.12 98.31 93.34 99.55 94.35 101.17
  Q 95.55 103.08 97.66 107.42
  A 0.69 0.69 0.0 0 0 98.72 107.65
  L 113.32 95.80
  Q 113.78 95.42 113.50 94.90
  Q 108.34 85.45 97.77 84.52
  Q 89.39 83.78 84.15 86.64
  Q 79.65 89.10 73.66 95.33
  C 68.79 100.41 65.95 106.65 66.21 113.73
  Q 66.38 118.35 68.60 121.89
  Q 71.61 126.68 76.56 132.76
  Q 80.36 137.42 82.66 138.42
  Q 86.93 140.27 92.76 139.96
  Q 103.42 139.41 112.00 139.37
  Q 119.20 139.33 121.37 139.88
  Q 132.28 142.64 135.65 152.98
  Q 136.52 155.65 135.80 157.67
  C 134.51 161.25 131.16 163.12 127.54 161.43
  C 125.12 160.30 123.70 156.36 122.23 153.53
  A 1.87 1.87 0.0 0 0 119.65 152.76
  Q 112.03 157.07 104.60 164.05
  A 0.74 0.73 53.0 0 0 104.47 164.98
  Q 107.30 169.64 111.09 174.43
  Q 117.11 182.04 126.55 178.25
  Q 134.97 174.88 138.22 173.39
  Q 142.98 171.22 148.49 167.03
  Q 153.22 163.42 154.17 158.47
  Q 155.69 150.57 152.03 142.24
  Q 145.64 127.72 131.54 121.47
  Q 128.83 120.27 124.74 120.31
  Q 118.50 120.37 112.44 121.53
  Q 105.77 122.80 103.79 122.59
  Q 94.94 121.65 88.92 114.40
  Q 84.42 108.97 84.56 102.51
  A 2.35 2.20 62.2 0 1 84.87 101.39"
/>
</g>
<path fill="#ffffff" fill-opacity="0" d="
  M 293.00 0.00
  L 293.00 225.00
  L 0.00 225.00
  L 0.00 0.00
  L 293.00 0.00
  Z
  M 109.58 55.44
  Q 109.51 56.23 108.77 56.45
  C 105.94 56.34 103.11 55.65 100.46 55.58
  Q 86.27 55.20 74.57 60.34
  Q 55.73 68.61 43.90 86.86
  Q 39.64 93.44 37.42 103.56
  C 34.54 116.61 39.57 130.07 47.49 140.80
  Q 53.74 149.27 58.00 153.08
  Q 63.22 157.77 70.06 162.05
  Q 72.05 163.30 72.62 165.15
  Q 73.35 167.57 75.27 173.27
  C 76.27 176.27 78.30 179.35 80.00 181.44
  Q 84.82 187.34 91.77 194.34
  Q 97.51 200.12 104.84 203.52
  Q 108.96 205.43 114.85 206.26
  Q 122.20 207.30 125.26 207.19
  Q 131.40 206.95 143.15 203.56
  Q 149.32 201.78 157.56 195.80
  Q 164.00 191.14 166.53 188.53
  Q 169.54 185.44 175.74 177.00
  Q 177.26 174.93 178.65 174.60
  Q 185.40 172.99 187.88 171.88
  Q 206.53 163.52 226.90 155.12
  Q 241.53 149.09 242.54 133.68
  Q 242.81 129.58 241.48 124.53
  Q 240.03 118.99 238.56 115.69
  Q 234.64 106.92 233.70 104.54
  Q 231.94 100.08 226.00 94.96
  Q 223.99 93.23 223.16 92.11
  Q 221.54 89.94 221.14 88.10
  Q 217.83 72.72 210.60 60.63
  Q 208.29 56.76 207.25 53.38
  Q 205.16 46.63 203.16 40.35
  Q 200.37 31.59 196.00 23.09
  Q 193.46 18.15 187.33 14.20
  Q 186.22 13.48 183.80 12.82
  C 181.09 12.08 177.74 10.71 174.63 11.02
  Q 168.52 11.63 162.24 13.99
  Q 141.76 21.71 125.51 29.31
  Q 120.04 31.87 115.86 35.85
  Q 111.53 39.98 110.45 43.93
  Q 109.37 47.88 108.74 53.43
  C 108.65 54.28 109.06 54.86 109.58 55.44
  Z"
/>
<path fill="#667d8d" d="
  M 108.77 56.45
  L 110.13 56.48
  A 0.74 0.73 -5.4 0 1 110.84 57.06
  L 110.93 57.49
  Q 111.08 58.17 110.42 58.03
  Q 96.37 54.95 82.64 58.63
  Q 72.98 61.21 64.60 67.02
  Q 52.88 75.13 46.01 85.52
  Q 39.20 95.84 37.88 109.54
  Q 37.57 112.87 38.36 117.49
  Q 40.39 129.18 47.27 138.76
  Q 54.36 148.63 58.41 152.42
  Q 60.99 154.84 71.17 161.48
  Q 72.16 162.13 72.68 162.77
  Q 73.43 163.71 73.66 164.62
  Q 75.12 170.41 75.97 172.77
  Q 77.21 176.25 81.88 181.96
  Q 87.56 188.90 91.36 192.68
  Q 94.10 195.41 99.41 199.19
  Q 103.75 202.28 108.53 203.78
  Q 117.72 206.67 125.69 206.08
  Q 138.76 205.11 150.49 199.07
  C 153.44 197.54 157.34 194.29 159.62 192.71
  Q 163.20 190.23 165.96 187.32
  Q 170.74 182.30 174.25 177.15
  C 175.88 174.76 176.98 173.73 179.65 173.14
  C 182.57 172.50 187.02 171.23 190.65 169.60
  Q 202.06 164.48 224.50 154.86
  Q 230.67 152.21 233.06 150.46
  Q 237.34 147.32 239.23 142.77
  Q 242.36 135.17 241.51 129.01
  Q 241.30 127.48 240.10 123.31
  Q 239.29 120.52 238.15 117.85
  Q 235.68 112.08 233.27 106.28
  Q 230.42 99.45 224.98 95.12
  Q 223.09 93.62 222.42 92.70
  C 220.57 90.14 220.05 87.11 219.45 84.13
  Q 219.06 82.21 217.85 78.98
  Q 214.31 69.51 209.41 60.67
  Q 207.34 56.92 206.11 52.84
  Q 202.61 41.25 202.46 40.76
  Q 201.62 38.12 197.79 29.23
  Q 194.76 22.18 191.40 18.66
  Q 186.03 13.04 176.99 12.13
  Q 174.36 11.86 171.06 12.52
  Q 166.44 13.45 165.22 13.92
  Q 150.88 19.40 126.34 30.09
  Q 119.22 33.20 114.68 38.53
  Q 112.02 41.66 111.25 45.77
  Q 110.30 50.82 110.09 55.35
  Q 110.08 55.57 109.88 55.48
  Q 109.70 55.39 109.58 55.44
  C 109.06 54.86 108.65 54.28 108.74 53.43
  Q 109.37 47.88 110.45 43.93
  Q 111.53 39.98 115.86 35.85
  Q 120.04 31.87 125.51 29.31
  Q 141.76 21.71 162.24 13.99
  Q 168.52 11.63 174.63 11.02
  C 177.74 10.71 181.09 12.08 183.80 12.82
  Q 186.22 13.48 187.33 14.20
  Q 193.46 18.15 196.00 23.09
  Q 200.37 31.59 203.16 40.35
  Q 205.16 46.63 207.25 53.38
  Q 208.29 56.76 210.60 60.63
  Q 217.83 72.72 221.14 88.10
  Q 221.54 89.94 223.16 92.11
  Q 223.99 93.23 226.00 94.96
  Q 231.94 100.08 233.70 104.54
  Q 234.64 106.92 238.56 115.69
  Q 240.03 118.99 241.48 124.53
  Q 242.81 129.58 242.54 133.68
  Q 241.53 149.09 226.90 155.12
  Q 206.53 163.52 187.88 171.88
  Q 185.40 172.99 178.65 174.60
  Q 177.26 174.93 175.74 177.00
  Q 169.54 185.44 166.53 188.53
  Q 164.00 191.14 157.56 195.80
  Q 149.32 201.78 143.15 203.56
  Q 131.40 206.95 125.26 207.19
  Q 122.20 207.30 114.85 206.26
  Q 108.96 205.43 104.84 203.52
  Q 97.51 200.12 91.77 194.34
  Q 84.82 187.34 80.00 181.44
  C 78.30 179.35 76.27 176.27 75.27 173.27
  Q 73.35 167.57 72.62 165.15
  Q 72.05 163.30 70.06 162.05
  Q 63.22 157.77 58.00 153.08
  Q 53.74 149.27 47.49 140.80
  C 39.57 130.07 34.54 116.61 37.42 103.56
  Q 39.64 93.44 43.90 86.86
  Q 55.73 68.61 74.57 60.34
  Q 86.27 55.20 100.46 55.58
  C 103.11 55.65 105.94 56.34 108.77 56.45
  Z"
/>
<path fill="#f4e6cb" d="
  M 108.77 56.45
  Q 109.51 56.23 109.58 55.44
  Q 109.70 55.39 109.88 55.48
  Q 110.08 55.57 110.09 55.35
  Q 110.30 50.82 111.25 45.77
  Q 112.02 41.66 114.68 38.53
  Q 119.22 33.20 126.34 30.09
  Q 150.88 19.40 165.22 13.92
  Q 166.44 13.45 171.06 12.52
  Q 174.36 11.86 176.99 12.13
  Q 186.03 13.04 191.40 18.66
  Q 194.76 22.18 197.79 29.23
  Q 201.62 38.12 202.46 40.76
  Q 202.61 41.25 206.11 52.84
  Q 207.34 56.92 209.41 60.67
  Q 214.31 69.51 217.85 78.98
  Q 219.06 82.21 219.45 84.13
  C 220.05 87.11 220.57 90.14 222.42 92.70
  Q 223.09 93.62 224.98 95.12
  Q 230.42 99.45 233.27 106.28
  Q 235.68 112.08 238.15 117.85
  Q 239.29 120.52 240.10 123.31
  Q 241.30 127.48 241.51 129.01
  Q 242.36 135.17 239.23 142.77
  Q 237.34 147.32 233.06 150.46
  Q 230.67 152.21 224.50 154.86
  Q 202.06 164.48 190.65 169.60
  C 187.02 171.23 182.57 172.50 179.65 173.14
  C 176.98 173.73 175.88 174.76 174.25 177.15
  Q 170.74 182.30 165.96 187.32
  Q 163.20 190.23 159.62 192.71
  C 157.34 194.29 153.44 197.54 150.49 199.07
  Q 138.76 205.11 125.69 206.08
  Q 117.72 206.67 108.53 203.78
  Q 103.75 202.28 99.41 199.19
  Q 94.10 195.41 91.36 192.68
  Q 87.56 188.90 81.88 181.96
  Q 77.21 176.25 75.97 172.77
  Q 75.12 170.41 73.66 164.62
  Q 73.43 163.71 72.68 162.77
  Q 72.16 162.13 71.17 161.48
  Q 60.99 154.84 58.41 152.42
  Q 54.36 148.63 47.27 138.76
  Q 40.39 129.18 38.36 117.49
  Q 37.57 112.87 37.88 109.54
  Q 39.20 95.84 46.01 85.52
  Q 52.88 75.13 64.60 67.02
  Q 72.98 61.21 82.64 58.63
  Q 96.37 54.95 110.42 58.03
  Q 111.08 58.17 110.93 57.49
  L 110.84 57.06
  A 0.74 0.73 -5.4 0 0 110.13 56.48
  L 108.77 56.45
  Z
  M 164.92 145.58
  Q 165.88 147.18 169.38 154.74
  Q 171.62 159.58 176.36 158.49
  C 178.31 158.04 180.55 156.35 182.29 155.77
  Q 187.72 153.98 191.52 152.45
  Q 194.50 151.26 200.36 148.22
  C 207.36 144.59 215.20 142.18 221.79 137.80
  Q 226.15 134.92 224.18 129.86
  Q 220.38 120.12 215.83 110.94
  Q 213.65 106.54 212.10 105.23
  Q 209.10 102.67 204.80 103.51
  Q 199.50 104.54 194.59 107.26
  Q 194.04 107.56 193.75 107.00
  L 190.84 101.41
  Q 190.49 100.73 191.20 100.46
  Q 197.54 98.12 201.11 95.60
  C 204.77 93.02 202.27 83.40 200.91 80.14
  Q 198.82 75.14 195.74 67.82
  Q 193.38 62.23 187.12 63.57
  Q 184.90 64.05 177.74 67.51
  Q 176.20 68.26 175.41 66.74
  L 174.97 65.90
  Q 174.05 64.14 175.79 63.20
  Q 177.68 62.19 184.13 59.53
  C 188.23 57.83 190.83 56.09 189.40 51.34
  Q 188.65 48.82 188.24 48.04
  Q 185.59 42.98 180.18 32.34
  Q 177.64 27.34 172.01 28.31
  Q 167.36 29.11 161.74 31.53
  Q 140.06 40.86 136.26 42.49
  Q 130.87 44.79 127.88 47.41
  Q 125.26 49.70 125.13 53.75
  Q 125.06 55.78 126.85 59.96
  Q 127.64 61.82 131.28 70.83
  Q 133.36 75.98 136.01 81.55
  Q 142.05 94.25 143.51 98.27
  Q 146.35 106.12 148.59 111.18
  Q 151.94 118.75 152.08 119.09
  Q 154.54 125.07 155.46 127.16
  Q 156.26 128.97 155.11 127.37
  C 151.87 122.87 147.10 119.44 142.61 116.27
  C 136.16 111.70 128.23 109.83 120.55 110.17
  Q 113.21 110.49 108.55 111.64
  Q 104.03 112.75 108.08 110.45
  Q 115.03 106.52 121.44 100.69
  Q 124.84 97.61 123.22 93.33
  Q 116.09 74.45 95.43 73.26
  C 82.30 72.50 74.20 78.76 65.39 87.81
  Q 60.50 92.83 58.04 98.77
  C 54.53 107.26 54.37 119.11 59.36 127.06
  Q 61.96 131.20 69.28 140.14
  Q 73.93 145.83 76.42 147.06
  Q 84.59 151.11 93.99 150.90
  Q 97.30 150.82 102.08 150.64
  Q 103.03 150.60 102.23 151.13
  Q 98.48 153.59 94.68 157.41
  Q 92.46 159.63 91.92 162.62
  Q 91.55 164.70 93.34 168.12
  Q 98.08 177.19 103.49 183.12
  Q 111.90 192.35 124.70 190.67
  Q 127.34 190.33 132.30 188.36
  Q 135.49 187.09 139.75 185.49
  Q 148.29 182.27 155.32 176.62
  C 160.40 172.53 163.52 168.01 164.79 161.77
  Q 166.14 155.10 164.59 145.70
  A 0.18 0.18 0.0 0 1 164.92 145.58
  Z"
/>
<path fill="#200d0c" d="
  M 164.59 145.70
  Q 166.14 155.10 164.79 161.77
  C 163.52 168.01 160.40 172.53 155.32 176.62
  Q 148.29 182.27 139.75 185.49
  Q 135.49 187.09 132.30 188.36
  Q 127.34 190.33 124.70 190.67
  Q 111.90 192.35 103.49 183.12
  Q 98.08 177.19 93.34 168.12
  Q 91.55 164.70 91.92 162.62
  Q 92.46 159.63 94.68 157.41
  Q 98.48 153.59 102.23 151.13
  Q 103.03 150.60 102.08 150.64
  Q 97.30 150.82 93.99 150.90
  Q 84.59 151.11 76.42 147.06
  Q 73.93 145.83 69.28 140.14
  Q 61.96 131.20 59.36 127.06
  C 54.37 119.11 54.53 107.26 58.04 98.77
  Q 60.50 92.83 65.39 87.81
  C 74.20 78.76 82.30 72.50 95.43 73.26
  Q 116.09 74.45 123.22 93.33
  Q 124.84 97.61 121.44 100.69
  Q 115.03 106.52 108.08 110.45
  Q 104.03 112.75 108.55 111.64
  Q 113.21 110.49 120.55 110.17
  C 128.23 109.83 136.16 111.70 142.61 116.27
  C 147.10 119.44 151.87 122.87 155.11 127.37
  Q 156.26 128.97 155.46 127.16
  Q 154.54 125.07 152.08 119.09
  Q 151.94 118.75 148.59 111.18
  Q 146.35 106.12 143.51 98.27
  Q 142.05 94.25 136.01 81.55
  Q 133.36 75.98 131.28 70.83
  Q 127.64 61.82 126.85 59.96
  Q 125.06 55.78 125.13 53.75
  Q 125.26 49.70 127.88 47.41
  Q 130.87 44.79 136.26 42.49
  Q 140.06 40.86 161.74 31.53
  Q 167.36 29.11 172.01 28.31
  Q 177.64 27.34 180.18 32.34
  Q 185.59 42.98 188.24 48.04
  Q 188.65 48.82 189.40 51.34
  C 190.83 56.09 188.23 57.83 184.13 59.53
  Q 177.68 62.19 175.79 63.20
  Q 174.05 64.14 174.97 65.90
  L 175.41 66.74
  Q 176.20 68.26 177.74 67.51
  Q 184.90 64.05 187.12 63.57
  Q 193.38 62.23 195.74 67.82
  Q 198.82 75.14 200.91 80.14
  C 202.27 83.40 204.77 93.02 201.11 95.60
  Q 197.54 98.12 191.20 100.46
  Q 190.49 100.73 190.84 101.41
  L 193.75 107.00
  Q 194.04 107.56 194.59 107.26
  Q 199.50 104.54 204.80 103.51
  Q 209.10 102.67 212.10 105.23
  Q 213.65 106.54 215.83 110.94
  Q 220.38 120.12 224.18 129.86
  Q 226.15 134.92 221.79 137.80
  C 215.20 142.18 207.36 144.59 200.36 148.22
  Q 194.50 151.26 191.52 152.45
  Q 187.72 153.98 182.29 155.77
  C 180.55 156.35 178.31 158.04 176.36 158.49
  Q 171.62 159.58 169.38 154.74
  Q 165.88 147.18 164.92 145.58
  A 0.18 0.18 0.0 0 0 164.59 145.70
  Z
  M 176.78 79.74
  C 172.71 81.24 170.42 79.86 168.44 76.26
  Q 165.72 71.30 163.56 65.68
  Q 161.64 60.68 165.21 57.93
  Q 169.13 54.91 178.11 50.75
  A 0.49 0.48 64.2 0 0 178.34 50.08
  Q 174.94 43.47 173.43 39.08
  Q 173.22 38.46 172.61 38.71
  Q 162.53 42.90 149.26 48.29
  C 145.26 49.91 140.77 52.30 136.32 54.42
  A 0.45 0.45 0.0 0 0 136.12 55.06
  C 139.09 60.10 141.01 66.26 143.19 70.78
  Q 150.41 85.76 156.20 101.36
  C 157.54 104.96 158.76 107.36 160.83 111.74
  Q 162.38 115.04 164.16 119.64
  Q 169.22 132.76 176.79 145.67
  Q 177.05 146.10 177.49 145.88
  Q 180.61 144.39 184.00 143.32
  C 190.30 141.33 196.10 137.56 202.51 135.10
  Q 207.27 133.27 212.25 130.83
  A 0.42 0.42 0.0 0 0 212.44 130.26
  L 205.16 116.26
  A 0.92 0.91 -23.8 0 0 204.03 115.83
  Q 200.68 117.09 195.71 119.63
  C 193.74 120.64 189.61 121.52 187.67 119.77
  Q 185.37 117.69 183.71 114.14
  Q 181.20 108.78 179.06 102.92
  C 177.46 98.57 177.55 94.36 181.20 91.58
  C 183.47 89.86 187.09 89.13 190.50 88.13
  A 0.73 0.73 0.0 0 0 190.98 87.18
  Q 189.03 81.78 186.21 76.59
  A 0.47 0.46 -24.1 0 0 185.63 76.37
  Q 177.59 79.45 176.78 79.74
  Z
  M 84.87 101.39
  Q 86.62 98.41 89.90 98.35
  C 92.12 98.31 93.34 99.55 94.35 101.17
  Q 95.55 103.08 97.66 107.42
  A 0.69 0.69 0.0 0 0 98.72 107.65
  L 113.32 95.80
  Q 113.78 95.42 113.50 94.90
  Q 108.34 85.45 97.77 84.52
  Q 89.39 83.78 84.15 86.64
  Q 79.65 89.10 73.66 95.33
  C 68.79 100.41 65.95 106.65 66.21 113.73
  Q 66.38 118.35 68.60 121.89
  Q 71.61 126.68 76.56 132.76
  Q 80.36 137.42 82.66 138.42
  Q 86.93 140.27 92.76 139.96
  Q 103.42 139.41 112.00 139.37
  Q 119.20 139.33 121.37 139.88
  Q 132.28 142.64 135.65 152.98
  Q 136.52 155.65 135.80 157.67
  C 134.51 161.25 131.16 163.12 127.54 161.43
  C 125.12 160.30 123.70 156.36 122.23 153.53
  A 1.87 1.87 0.0 0 0 119.65 152.76
  Q 112.03 157.07 104.60 164.05
  A 0.74 0.73 53.0 0 0 104.47 164.98
  Q 107.30 169.64 111.09 174.43
  Q 117.11 182.04 126.55 178.25
  Q 134.97 174.88 138.22 173.39
  Q 142.98 171.22 148.49 167.03
  Q 153.22 163.42 154.17 158.47
  Q 155.69 150.57 152.03 142.24
  Q 145.64 127.72 131.54 121.47
  Q 128.83 120.27 124.74 120.31
  Q 118.50 120.37 112.44 121.53
  Q 105.77 122.80 103.79 122.59
  Q 94.94 121.65 88.92 114.40
  Q 84.42 108.97 84.56 102.51
  A 2.35 2.20 62.2 0 1 84.87 101.39
  Z"
/>
<path fill="#f7aa6b" d="
  M 168.44 76.26
  C 170.42 79.86 172.71 81.24 176.78 79.74
  Q 177.59 79.45 185.63 76.37
  A 0.47 0.46 -24.1 0 1 186.21 76.59
  Q 189.03 81.78 190.98 87.18
  A 0.73 0.73 0.0 0 1 190.50 88.13
  C 187.09 89.13 183.47 89.86 181.20 91.58
  C 177.55 94.36 177.46 98.57 179.06 102.92
  Q 181.20 108.78 183.71 114.14
  Q 185.37 117.69 187.67 119.77
  C 189.61 121.52 193.74 120.64 195.71 119.63
  Q 200.68 117.09 204.03 115.83
  A 0.92 0.91 -23.8 0 1 205.16 116.26
  L 212.44 130.26
  A 0.42 0.42 0.0 0 1 212.25 130.83
  Q 207.27 133.27 202.51 135.10
  C 196.10 137.56 190.30 141.33 184.00 143.32
  Q 180.61 144.39 177.49 145.88
  Q 177.05 146.10 176.79 145.67
  Q 169.22 132.76 164.16 119.64
  Q 162.38 115.04 160.83 111.74
  C 158.76 107.36 157.54 104.96 156.20 101.36
  Q 150.41 85.76 143.19 70.78
  C 141.01 66.26 139.09 60.10 136.12 55.06
  A 0.45 0.45 0.0 0 1 136.32 54.42
  C 140.77 52.30 145.26 49.91 149.26 48.29
  Q 162.53 42.90 172.61 38.71
  Q 173.22 38.46 173.43 39.08
  Q 174.94 43.47 178.34 50.08
  A 0.49 0.48 64.2 0 1 178.11 50.75
  Q 169.13 54.91 165.21 57.93
  Q 161.64 60.68 163.56 65.68
  Q 165.72 71.30 168.44 76.26
  Z"
/>
<path fill="#f7aa6b" d="
  M 84.87 101.39
  A 2.35 2.20 62.2 0 0 84.56 102.51
  Q 84.42 108.97 88.92 114.40
  Q 94.94 121.65 103.79 122.59
  Q 105.77 122.80 112.44 121.53
  Q 118.50 120.37 124.74 120.31
  Q 128.83 120.27 131.54 121.47
  Q 145.64 127.72 152.03 142.24
  Q 155.69 150.57 154.17 158.47
  Q 153.22 163.42 148.49 167.03
  Q 142.98 171.22 138.22 173.39
  Q 134.97 174.88 126.55 178.25
  Q 117.11 182.04 111.09 174.43
  Q 107.30 169.64 104.47 164.98
  A 0.74 0.73 53.0 0 1 104.60 164.05
  Q 112.03 157.07 119.65 152.76
  A 1.87 1.87 0.0 0 1 122.23 153.53
  C 123.70 156.36 125.12 160.30 127.54 161.43
  C 131.16 163.12 134.51 161.25 135.80 157.67
  Q 136.52 155.65 135.65 152.98
  Q 132.28 142.64 121.37 139.88
  Q 119.20 139.33 112.00 139.37
  Q 103.42 139.41 92.76 139.96
  Q 86.93 140.27 82.66 138.42
  Q 80.36 137.42 76.56 132.76
  Q 71.61 126.68 68.60 121.89
  Q 66.38 118.35 66.21 113.73
  C 65.95 106.65 68.79 100.41 73.66 95.33
  Q 79.65 89.10 84.15 86.64
  Q 89.39 83.78 97.77 84.52
  Q 108.34 85.45 113.50 94.90
  Q 113.78 95.42 113.32 95.80
  L 98.72 107.65
  A 0.69 0.69 0.0 0 1 97.66 107.42
  Q 95.55 103.08 94.35 101.17
  C 93.34 99.55 92.12 98.31 89.90 98.35
  Q 86.62 98.41 84.87 101.39
  Z"
/>
</svg>
