<?xml version="1.0" encoding="UTF-8" standalone="no"?>
<!DOCTYPE svg PUBLIC "-//W3C//DTD SVG 1.1//EN" "http://www.w3.org/Graphics/SVG/1.1/DTD/svg11.dtd">
<svg xmlns="http://www.w3.org/2000/svg" version="1.1" viewBox="0.00 0.00 424.00 131.00">
<g stroke-width="2.00" fill="none" stroke-linecap="butt">
<path stroke="#808080" vector-effect="non-scaling-stroke" d="
  M 220.1131 44.9872
  A 10.96 10.82 119.2 0 0 234.9050 40.6986
  A 10.96 10.82 119.2 0 0 230.8069 25.8528
  A 10.96 10.82 119.2 0 0 216.0150 30.1414
  A 10.96 10.82 119.2 0 0 220.1131 44.9872"
/>
<path stroke="#808080" vector-effect="non-scaling-stroke" d="
  M 147.29 46.86
  Q 147.83 40.43 147.88 34.08
  C 147.89 32.67 147.48 31.75 146.24 31.23
  Q 140.64 28.89 135.06 30.86
  Q 133.39 31.45 133.02 33.07
  Q 131.66 38.97 130.52 49.63
  Q 130.47 50.12 130.00 50.26
  Q 127.10 51.16 122.93 51.88
  Q 119.38 52.49 119.34 55.75
  Q 119.29 59.07 120.18 61.93
  A 1.17 1.16 -12.3 0 0 121.45 62.74
  Q 125.32 62.23 128.43 61.04
  A 0.53 0.52 -7.4 0 1 129.14 61.58
  Q 127.67 76.01 127.85 89.45
  Q 127.90 93.55 131.85 94.42
  Q 139.54 96.12 147.00 93.99
  Q 148.81 93.48 149.66 92.05
  Q 149.92 91.61 149.82 91.11
  Q 147.08 76.02 147.15 58.09
  Q 147.15 57.48 147.76 57.44
  L 159.46 56.67
  A 1.70 1.69 -84.2 0 0 160.98 55.42
  C 161.55 53.30 161.76 49.84 161.10 48.09
  Q 160.40 46.24 157.77 46.58
  Q 154.55 46.98 147.81 47.38
  Q 147.25 47.42 147.29 46.86"
/>
<path stroke="#808080" vector-effect="non-scaling-stroke" d="
  M 192.06 46.76
  Q 192.61 39.71 192.82 33.82
  C 192.96 29.86 184.96 29.76 182.46 30.18
  C 177.14 31.08 177.65 33.72 176.84 38.55
  Q 175.97 43.75 175.53 49.70
  Q 175.49 50.19 175.01 50.30
  Q 167.26 52.02 166.36 52.36
  Q 164.29 53.12 164.18 55.51
  Q 164.04 58.61 164.78 61.01
  Q 165.50 63.35 167.78 62.61
  Q 169.41 62.07 173.59 61.17
  Q 174.18 61.04 174.09 61.64
  Q 172.74 71.08 172.73 89.03
  C 172.73 91.49 173.25 93.17 175.62 94.02
  C 180.32 95.69 188.61 95.76 193.31 93.34
  Q 195.08 92.42 194.71 90.52
  Q 191.81 75.68 192.06 58.15
  Q 192.06 57.64 192.58 57.58
  Q 197.67 56.97 203.20 56.80
  Q 204.65 56.75 205.21 56.26
  C 206.95 54.75 206.61 50.24 206.12 48.38
  Q 205.61 46.46 203.80 46.59
  Q 193.81 47.33 192.61 47.35
  Q 192.01 47.36 192.06 46.76"
/>
<path stroke="#808080" vector-effect="non-scaling-stroke" d="
  M 338.85 80.94
  Q 338.70 83.66 338.07 86.81
  C 337.13 91.49 334.87 93.88 330.01 94.19
  Q 325.46 94.49 322.38 93.63
  Q 321.53 93.39 317.59 92.00
  C 315.16 91.13 313.07 90.72 312.41 93.98
  Q 312.11 95.48 312.14 96.21
  Q 312.19 97.86 312.99 98.38
  Q 321.77 104.12 332.88 103.93
  C 343.46 103.75 347.48 96.31 349.05 87.04
  Q 351.23 74.17 349.61 58.22
  C 348.95 51.74 347.83 46.49 341.36 44.00
  Q 334.43 41.35 326.01 42.40
  Q 309.42 44.48 305.52 59.96
  Q 303.44 68.17 305.00 75.58
  Q 306.77 83.99 315.36 85.14
  Q 327.60 86.77 338.25 80.58
  Q 338.89 80.20 338.85 80.94"
/>
<path stroke="#808080" vector-effect="non-scaling-stroke" d="
  M 48.12 84.15
  C 45.22 87.43 38.58 85.59 34.89 83.94
  Q 32.20 82.74 30.95 85.48
  L 30.69 86.04
  Q 29.51 88.62 32.20 89.78
  Q 42.96 94.41 53.94 90.89
  C 58.46 89.44 62.56 85.74 62.47 80.74
  Q 62.38 75.62 56.98 73.05
  Q 50.10 69.76 49.71 69.56
  C 42.23 65.71 56.15 59.28 58.31 57.78
  C 63.75 54.02 57.58 47.43 53.94 45.15
  C 51.93 43.88 49.32 43.75 47.03 44.27
  Q 34.54 47.13 27.02 57.49
  C 23.84 61.87 23.08 69.01 27.66 72.86
  C 32.52 76.94 39.40 79.02 45.55 80.73
  Q 47.35 81.23 48.19 82.33
  A 1.44 1.44 0.0 0 1 48.12 84.15"
/>
<path stroke="#808080" vector-effect="non-scaling-stroke" d="
  M 383.34 68.10
  A 1.84 1.84 0.0 0 1 383.10 66.01
  C 384.96 62.58 388.34 60.98 391.86 58.93
  C 395.28 56.94 397.28 55.17 395.10 51.24
  Q 392.21 46.07 387.99 44.51
  C 382.71 42.56 374.58 46.65 370.25 49.76
  C 365.04 53.50 359.75 58.96 359.86 65.34
  C 359.96 70.72 362.82 73.34 367.41 75.72
  C 372.32 78.28 377.33 79.60 382.42 81.25
  A 2.20 2.12 -72.7 0 1 383.78 83.95
  Q 383.60 84.52 382.40 85.14
  C 378.93 86.92 373.75 85.46 370.24 83.91
  Q 367.77 82.82 366.52 85.23
  L 366.06 86.12
  Q 364.82 88.52 367.32 89.62
  Q 378.65 94.63 390.19 90.62
  Q 392.80 89.72 395.04 87.50
  C 398.12 84.45 399.11 78.97 395.96 75.65
  C 393.41 72.96 390.78 72.21 386.21 70.14
  Q 384.43 69.33 383.34 68.10"
/>
<path stroke="#808080" vector-effect="non-scaling-stroke" d="
  M 91.78 77.02
  Q 98.00 75.35 99.75 74.90
  Q 104.86 73.60 107.19 71.59
  Q 112.87 66.69 111.43 60.07
  Q 110.41 55.43 108.30 52.45
  C 103.39 45.52 93.66 45.46 85.87 47.35
  C 75.73 49.81 70.60 58.41 70.50 68.53
  C 70.43 74.81 72.07 82.24 76.57 86.46
  Q 80.32 89.97 84.10 90.92
  Q 96.06 93.94 107.82 87.79
  C 111.47 85.88 114.35 84.81 111.69 80.31
  Q 110.74 78.69 109.02 79.27
  C 102.48 81.49 94.90 85.41 91.47 77.67
  Q 91.25 77.16 91.78 77.02"
/>
<path stroke="#808080" vector-effect="non-scaling-stroke" d="
  M 266.73 50.60
  C 263.56 46.45 256.13 47.00 251.90 48.49
  C 249.78 49.24 248.95 50.75 248.62 52.87
  Q 246.01 69.72 246.63 85.75
  C 246.89 92.71 260.85 90.82 264.31 90.00
  Q 266.12 89.57 267.90 88.28
  A 1.58 1.57 69.2 0 0 268.54 86.85
  Q 267.29 74.73 267.10 62.86
  C 267.07 60.86 267.51 60.08 269.14 59.12
  C 272.54 57.12 278.02 55.11 280.28 59.84
  Q 281.10 61.56 281.27 65.29
  Q 281.85 77.57 279.68 89.86
  A 1.92 1.91 21.4 0 0 280.53 91.80
  Q 285.38 94.89 290.40 93.93
  Q 294.23 93.19 294.45 89.76
  Q 295.39 75.21 292.94 60.57
  Q 291.98 54.82 291.10 53.15
  Q 286.28 43.97 275.97 47.15
  Q 271.56 48.50 268.01 50.82
  A 0.96 0.96 0.0 0 1 266.73 50.60"
/>
<path stroke="#808080" vector-effect="non-scaling-stroke" d="
  M 234.13 88.32
  A 1.41 1.41 0.0 0 0 234.70 86.98
  Q 232.64 73.10 233.53 58.04
  C 233.68 55.48 233.24 53.84 230.83 52.87
  Q 225.32 50.65 218.61 52.58
  C 217.11 53.01 216.27 54.08 215.94 55.50
  Q 212.64 69.77 213.30 85.62
  C 213.38 87.47 214.09 88.55 215.66 89.34
  C 219.59 91.32 225.21 91.01 229.17 90.40
  Q 231.76 90.00 234.13 88.32"
/>
<path stroke="#808080" vector-effect="non-scaling-stroke" d="
  M 338.34 70.79
  C 338.61 66.19 338.01 60.78 336.95 55.58
  Q 336.48 53.28 334.57 52.75
  C 330.30 51.56 326.95 52.62 325.65 57.17
  Q 323.88 63.39 324.37 69.29
  C 324.69 73.22 326.35 75.54 330.73 74.66
  Q 334.96 73.80 337.92 71.58
  Q 338.31 71.28 338.34 70.79"
/>
<path stroke="#808080" vector-effect="non-scaling-stroke" d="
  M 90.31 69.34
  Q 90.30 69.77 90.71 69.66
  Q 96.00 68.35 98.88 67.16
  C 102.90 65.50 102.34 61.78 100.87 58.52
  Q 99.61 55.75 96.85 55.96
  C 89.94 56.48 90.43 63.80 90.31 69.34"
/>
</g>
<path fill="#ffffff" fill-opacity="0" d="
  M 424.00 0.00
  L 424.00 131.00
  L 0.00 131.00
  L 0.00 0.00
  L 424.00 0.00
  Z
  M 220.1131 44.9872
  A 10.96 10.82 119.2 0 0 234.9050 40.6986
  A 10.96 10.82 119.2 0 0 230.8069 25.8528
  A 10.96 10.82 119.2 0 0 216.0150 30.1414
  A 10.96 10.82 119.2 0 0 220.1131 44.9872
  Z
  M 147.29 46.86
  Q 147.83 40.43 147.88 34.08
  C 147.89 32.67 147.48 31.75 146.24 31.23
  Q 140.64 28.89 135.06 30.86
  Q 133.39 31.45 133.02 33.07
  Q 131.66 38.97 130.52 49.63
  Q 130.47 50.12 130.00 50.26
  Q 127.10 51.16 122.93 51.88
  Q 119.38 52.49 119.34 55.75
  Q 119.29 59.07 120.18 61.93
  A 1.17 1.16 -12.3 0 0 121.45 62.74
  Q 125.32 62.23 128.43 61.04
  A 0.53 0.52 -7.4 0 1 129.14 61.58
  Q 127.67 76.01 127.85 89.45
  Q 127.90 93.55 131.85 94.42
  Q 139.54 96.12 147.00 93.99
  Q 148.81 93.48 149.66 92.05
  Q 149.92 91.61 149.82 91.11
  Q 147.08 76.02 147.15 58.09
  Q 147.15 57.48 147.76 57.44
  L 159.46 56.67
  A 1.70 1.69 -84.2 0 0 160.98 55.42
  C 161.55 53.30 161.76 49.84 161.10 48.09
  Q 160.40 46.24 157.77 46.58
  Q 154.55 46.98 147.81 47.38
  Q 147.25 47.42 147.29 46.86
  Z
  M 192.06 46.76
  Q 192.61 39.71 192.82 33.82
  C 192.96 29.86 184.96 29.76 182.46 30.18
  C 177.14 31.08 177.65 33.72 176.84 38.55
  Q 175.97 43.75 175.53 49.70
  Q 175.49 50.19 175.01 50.30
  Q 167.26 52.02 166.36 52.36
  Q 164.29 53.12 164.18 55.51
  Q 164.04 58.61 164.78 61.01
  Q 165.50 63.35 167.78 62.61
  Q 169.41 62.07 173.59 61.17
  Q 174.18 61.04 174.09 61.64
  Q 172.74 71.08 172.73 89.03
  C 172.73 91.49 173.25 93.17 175.62 94.02
  C 180.32 95.69 188.61 95.76 193.31 93.34
  Q 195.08 92.42 194.71 90.52
  Q 191.81 75.68 192.06 58.15
  Q 192.06 57.64 192.58 57.58
  Q 197.67 56.97 203.20 56.80
  Q 204.65 56.75 205.21 56.26
  C 206.95 54.75 206.61 50.24 206.12 48.38
  Q 205.61 46.46 203.80 46.59
  Q 193.81 47.33 192.61 47.35
  Q 192.01 47.36 192.06 46.76
  Z
  M 338.85 80.94
  Q 338.70 83.66 338.07 86.81
  C 337.13 91.49 334.87 93.88 330.01 94.19
  Q 325.46 94.49 322.38 93.63
  Q 321.53 93.39 317.59 92.00
  C 315.16 91.13 313.07 90.72 312.41 93.98
  Q 312.11 95.48 312.14 96.21
  Q 312.19 97.86 312.99 98.38
  Q 321.77 104.12 332.88 103.93
  C 343.46 103.75 347.48 96.31 349.05 87.04
  Q 351.23 74.17 349.61 58.22
  C 348.95 51.74 347.83 46.49 341.36 44.00
  Q 334.43 41.35 326.01 42.40
  Q 309.42 44.48 305.52 59.96
  Q 303.44 68.17 305.00 75.58
  Q 306.77 83.99 315.36 85.14
  Q 327.60 86.77 338.25 80.58
  Q 338.89 80.20 338.85 80.94
  Z
  M 48.12 84.15
  C 45.22 87.43 38.58 85.59 34.89 83.94
  Q 32.20 82.74 30.95 85.48
  L 30.69 86.04
  Q 29.51 88.62 32.20 89.78
  Q 42.96 94.41 53.94 90.89
  C 58.46 89.44 62.56 85.74 62.47 80.74
  Q 62.38 75.62 56.98 73.05
  Q 50.10 69.76 49.71 69.56
  C 42.23 65.71 56.15 59.28 58.31 57.78
  C 63.75 54.02 57.58 47.43 53.94 45.15
  C 51.93 43.88 49.32 43.75 47.03 44.27
  Q 34.54 47.13 27.02 57.49
  C 23.84 61.87 23.08 69.01 27.66 72.86
  C 32.52 76.94 39.40 79.02 45.55 80.73
  Q 47.35 81.23 48.19 82.33
  A 1.44 1.44 0.0 0 1 48.12 84.15
  Z
  M 383.34 68.10
  A 1.84 1.84 0.0 0 1 383.10 66.01
  C 384.96 62.58 388.34 60.98 391.86 58.93
  C 395.28 56.94 397.28 55.17 395.10 51.24
  Q 392.21 46.07 387.99 44.51
  C 382.71 42.56 374.58 46.65 370.25 49.76
  C 365.04 53.50 359.75 58.96 359.86 65.34
  C 359.96 70.72 362.82 73.34 367.41 75.72
  C 372.32 78.28 377.33 79.60 382.42 81.25
  A 2.20 2.12 -72.7 0 1 383.78 83.95
  Q 383.60 84.52 382.40 85.14
  C 378.93 86.92 373.75 85.46 370.24 83.91
  Q 367.77 82.82 366.52 85.23
  L 366.06 86.12
  Q 364.82 88.52 367.32 89.62
  Q 378.65 94.63 390.19 90.62
  Q 392.80 89.72 395.04 87.50
  C 398.12 84.45 399.11 78.97 395.96 75.65
  C 393.41 72.96 390.78 72.21 386.21 70.14
  Q 384.43 69.33 383.34 68.10
  Z
  M 91.78 77.02
  Q 98.00 75.35 99.75 74.90
  Q 104.86 73.60 107.19 71.59
  Q 112.87 66.69 111.43 60.07
  Q 110.41 55.43 108.30 52.45
  C 103.39 45.52 93.66 45.46 85.87 47.35
  C 75.73 49.81 70.60 58.41 70.50 68.53
  C 70.43 74.81 72.07 82.24 76.57 86.46
  Q 80.32 89.97 84.10 90.92
  Q 96.06 93.94 107.82 87.79
  C 111.47 85.88 114.35 84.81 111.69 80.31
  Q 110.74 78.69 109.02 79.27
  C 102.48 81.49 94.90 85.41 91.47 77.67
  Q 91.25 77.16 91.78 77.02
  Z
  M 266.73 50.60
  C 263.56 46.45 256.13 47.00 251.90 48.49
  C 249.78 49.24 248.95 50.75 248.62 52.87
  Q 246.01 69.72 246.63 85.75
  C 246.89 92.71 260.85 90.82 264.31 90.00
  Q 266.12 89.57 267.90 88.28
  A 1.58 1.57 69.2 0 0 268.54 86.85
  Q 267.29 74.73 267.10 62.86
  C 267.07 60.86 267.51 60.08 269.14 59.12
  C 272.54 57.12 278.02 55.11 280.28 59.84
  Q 281.10 61.56 281.27 65.29
  Q 281.85 77.57 279.68 89.86
  A 1.92 1.91 21.4 0 0 280.53 91.80
  Q 285.38 94.89 290.40 93.93
  Q 294.23 93.19 294.45 89.76
  Q 295.39 75.21 292.94 60.57
  Q 291.98 54.82 291.10 53.15
  Q 286.28 43.97 275.97 47.15
  Q 271.56 48.50 268.01 50.82
  A 0.96 0.96 0.0 0 1 266.73 50.60
  Z
  M 234.13 88.32
  A 1.41 1.41 0.0 0 0 234.70 86.98
  Q 232.64 73.10 233.53 58.04
  C 233.68 55.48 233.24 53.84 230.83 52.87
  Q 225.32 50.65 218.61 52.58
  C 217.11 53.01 216.27 54.08 215.94 55.50
  Q 212.64 69.77 213.30 85.62
  C 213.38 87.47 214.09 88.55 215.66 89.34
  C 219.59 91.32 225.21 91.01 229.17 90.40
  Q 231.76 90.00 234.13 88.32
  Z"
/>
<ellipse fill="#000000" cx="0.00" cy="0.00" transform="translate(225.46,35.42) rotate(119.2)" rx="10.96" ry="10.82"/>
<path fill="#000000" d="
  M 147.81 47.38
  Q 154.55 46.98 157.77 46.58
  Q 160.40 46.24 161.10 48.09
  C 161.76 49.84 161.55 53.30 160.98 55.42
  A 1.70 1.69 -84.2 0 1 159.46 56.67
  L 147.76 57.44
  Q 147.15 57.48 147.15 58.09
  Q 147.08 76.02 149.82 91.11
  Q 149.92 91.61 149.66 92.05
  Q 148.81 93.48 147.00 93.99
  Q 139.54 96.12 131.85 94.42
  Q 127.90 93.55 127.85 89.45
  Q 127.67 76.01 129.14 61.58
  A 0.53 0.52 -7.4 0 0 128.43 61.04
  Q 125.32 62.23 121.45 62.74
  A 1.17 1.16 -12.3 0 1 120.18 61.93
  Q 119.29 59.07 119.34 55.75
  Q 119.38 52.49 122.93 51.88
  Q 127.10 51.16 130.00 50.26
  Q 130.47 50.12 130.52 49.63
  Q 131.66 38.97 133.02 33.07
  Q 133.39 31.45 135.06 30.86
  Q 140.64 28.89 146.24 31.23
  C 147.48 31.75 147.89 32.67 147.88 34.08
  Q 147.83 40.43 147.29 46.86
  Q 147.25 47.42 147.81 47.38
  Z"
/>
<path fill="#000000" d="
  M 192.61 47.35
  Q 193.81 47.33 203.80 46.59
  Q 205.61 46.46 206.12 48.38
  C 206.61 50.24 206.95 54.75 205.21 56.26
  Q 204.65 56.75 203.20 56.80
  Q 197.67 56.97 192.58 57.58
  Q 192.06 57.64 192.06 58.15
  Q 191.81 75.68 194.71 90.52
  Q 195.08 92.42 193.31 93.34
  C 188.61 95.76 180.32 95.69 175.62 94.02
  C 173.25 93.17 172.73 91.49 172.73 89.03
  Q 172.74 71.08 174.09 61.64
  Q 174.18 61.04 173.59 61.17
  Q 169.41 62.07 167.78 62.61
  Q 165.50 63.35 164.78 61.01
  Q 164.04 58.61 164.18 55.51
  Q 164.29 53.12 166.36 52.36
  Q 167.26 52.02 175.01 50.30
  Q 175.49 50.19 175.53 49.70
  Q 175.97 43.75 176.84 38.55
  C 177.65 33.72 177.14 31.08 182.46 30.18
  C 184.96 29.76 192.96 29.86 192.82 33.82
  Q 192.61 39.71 192.06 46.76
  Q 192.01 47.36 192.61 47.35
  Z"
/>
<path fill="#000000" d="
  M 338.85 80.94
  Q 338.89 80.20 338.25 80.58
  Q 327.60 86.77 315.36 85.14
  Q 306.77 83.99 305.00 75.58
  Q 303.44 68.17 305.52 59.96
  Q 309.42 44.48 326.01 42.40
  Q 334.43 41.35 341.36 44.00
  C 347.83 46.49 348.95 51.74 349.61 58.22
  Q 351.23 74.17 349.05 87.04
  C 347.48 96.31 343.46 103.75 332.88 103.93
  Q 321.77 104.12 312.99 98.38
  Q 312.19 97.86 312.14 96.21
  Q 312.11 95.48 312.41 93.98
  C 313.07 90.72 315.16 91.13 317.59 92.00
  Q 321.53 93.39 322.38 93.63
  Q 325.46 94.49 330.01 94.19
  C 334.87 93.88 337.13 91.49 338.07 86.81
  Q 338.70 83.66 338.85 80.94
  Z
  M 338.34 70.79
  C 338.61 66.19 338.01 60.78 336.95 55.58
  Q 336.48 53.28 334.57 52.75
  C 330.30 51.56 326.95 52.62 325.65 57.17
  Q 323.88 63.39 324.37 69.29
  C 324.69 73.22 326.35 75.54 330.73 74.66
  Q 334.96 73.80 337.92 71.58
  Q 338.31 71.28 338.34 70.79
  Z"
/>
<path fill="#000000" d="
  M 48.12 84.15
  A 1.44 1.44 0.0 0 0 48.19 82.33
  Q 47.35 81.23 45.55 80.73
  C 39.40 79.02 32.52 76.94 27.66 72.86
  C 23.08 69.01 23.84 61.87 27.02 57.49
  Q 34.54 47.13 47.03 44.27
  C 49.32 43.75 51.93 43.88 53.94 45.15
  C 57.58 47.43 63.75 54.02 58.31 57.78
  C 56.15 59.28 42.23 65.71 49.71 69.56
  Q 50.10 69.76 56.98 73.05
  Q 62.38 75.62 62.47 80.74
  C 62.56 85.74 58.46 89.44 53.94 90.89
  Q 42.96 94.41 32.20 89.78
  Q 29.51 88.62 30.69 86.04
  L 30.95 85.48
  Q 32.20 82.74 34.89 83.94
  C 38.58 85.59 45.22 87.43 48.12 84.15
  Z"
/>
<path fill="#000000" d="
  M 383.34 68.10
  Q 384.43 69.33 386.21 70.14
  C 390.78 72.21 393.41 72.96 395.96 75.65
  C 399.11 78.97 398.12 84.45 395.04 87.50
  Q 392.80 89.72 390.19 90.62
  Q 378.65 94.63 367.32 89.62
  Q 364.82 88.52 366.06 86.12
  L 366.52 85.23
  Q 367.77 82.82 370.24 83.91
  C 373.75 85.46 378.93 86.92 382.40 85.14
  Q 383.60 84.52 383.78 83.95
  A 2.20 2.12 -72.7 0 0 382.42 81.25
  C 377.33 79.60 372.32 78.28 367.41 75.72
  C 362.82 73.34 359.96 70.72 359.86 65.34
  C 359.75 58.96 365.04 53.50 370.25 49.76
  C 374.58 46.65 382.71 42.56 387.99 44.51
  Q 392.21 46.07 395.10 51.24
  C 397.28 55.17 395.28 56.94 391.86 58.93
  C 388.34 60.98 384.96 62.58 383.10 66.01
  A 1.84 1.84 0.0 0 0 383.34 68.10
  Z"
/>
<path fill="#000000" d="
  M 91.47 77.67
  C 94.90 85.41 102.48 81.49 109.02 79.27
  Q 110.74 78.69 111.69 80.31
  C 114.35 84.81 111.47 85.88 107.82 87.79
  Q 96.06 93.94 84.10 90.92
  Q 80.32 89.97 76.57 86.46
  C 72.07 82.24 70.43 74.81 70.50 68.53
  C 70.60 58.41 75.73 49.81 85.87 47.35
  C 93.66 45.46 103.39 45.52 108.30 52.45
  Q 110.41 55.43 111.43 60.07
  Q 112.87 66.69 107.19 71.59
  Q 104.86 73.60 99.75 74.90
  Q 98.00 75.35 91.78 77.02
  Q 91.25 77.16 91.47 77.67
  Z
  M 90.31 69.34
  Q 90.30 69.77 90.71 69.66
  Q 96.00 68.35 98.88 67.16
  C 102.90 65.50 102.34 61.78 100.87 58.52
  Q 99.61 55.75 96.85 55.96
  C 89.94 56.48 90.43 63.80 90.31 69.34
  Z"
/>
<path fill="#000000" d="
  M 266.73 50.60
  A 0.96 0.96 0.0 0 0 268.01 50.82
  Q 271.56 48.50 275.97 47.15
  Q 286.28 43.97 291.10 53.15
  Q 291.98 54.82 292.94 60.57
  Q 295.39 75.21 294.45 89.76
  Q 294.23 93.19 290.40 93.93
  Q 285.38 94.89 280.53 91.80
  A 1.92 1.91 21.4 0 1 279.68 89.86
  Q 281.85 77.57 281.27 65.29
  Q 281.10 61.56 280.28 59.84
  C 278.02 55.11 272.54 57.12 269.14 59.12
  C 267.51 60.08 267.07 60.86 267.10 62.86
  Q 267.29 74.73 268.54 86.85
  A 1.58 1.57 69.2 0 1 267.90 88.28
  Q 266.12 89.57 264.31 90.00
  C 260.85 90.82 246.89 92.71 246.63 85.75
  Q 246.01 69.72 248.62 52.87
  C 248.95 50.75 249.78 49.24 251.90 48.49
  C 256.13 47.00 263.56 46.45 266.73 50.60
  Z"
/>
<path fill="#000000" d="
  M 234.13 88.32
  Q 231.76 90.00 229.17 90.40
  C 225.21 91.01 219.59 91.32 215.66 89.34
  C 214.09 88.55 213.38 87.47 213.30 85.62
  Q 212.64 69.77 215.94 55.50
  C 216.27 54.08 217.11 53.01 218.61 52.58
  Q 225.32 50.65 230.83 52.87
  C 233.24 53.84 233.68 55.48 233.53 58.04
  Q 232.64 73.10 234.70 86.98
  A 1.41 1.41 0.0 0 1 234.13 88.32
  Z"
/>
<path fill="#ffffff" d="
  M 336.95 55.58
  C 338.01 60.78 338.61 66.19 338.34 70.79
  Q 338.31 71.28 337.92 71.58
  Q 334.96 73.80 330.73 74.66
  C 326.35 75.54 324.69 73.22 324.37 69.29
  Q 323.88 63.39 325.65 57.17
  C 326.95 52.62 330.30 51.56 334.57 52.75
  Q 336.48 53.28 336.95 55.58
  Z"
/>
<path fill="#ffffff" d="
  M 90.31 69.34
  C 90.43 63.80 89.94 56.48 96.85 55.96
  Q 99.61 55.75 100.87 58.52
  C 102.34 61.78 102.90 65.50 98.88 67.16
  Q 96.00 68.35 90.71 69.66
  Q 90.30 69.77 90.31 69.34
  Z"
/>
</svg>
