<?xml version="1.0" encoding="UTF-8" standalone="no"?>
<!DOCTYPE svg PUBLIC "-//W3C//DTD SVG 1.1//EN" "http://www.w3.org/Graphics/SVG/1.1/DTD/svg11.dtd">
<svg xmlns="http://www.w3.org/2000/svg" version="1.1" viewBox="0.00 0.00 275.00 275.00" width="60" height="60">
<g stroke-width="2.00" fill="none" stroke-linecap="butt">
<path stroke="#7c7c7c" vector-effect="non-scaling-stroke" d="
  M 103.23 48.99
  Q 99.95 50.35 96.79 51.89
  A 0.80 0.79 50.9 0 1 95.96 51.80
  Q 90.62 47.61 85.93 43.97
  Q 78.79 38.42 75.11 37.56
  Q 69.90 36.33 65.01 39.04
  C 61.09 41.21 57.02 45.99 53.39 49.61
  C 49.77 53.24 44.99 57.31 42.82 61.23
  Q 40.11 66.12 41.34 71.33
  Q 42.20 75.01 47.75 82.15
  Q 51.39 86.84 55.58 92.18
  A 0.80 0.79 39.1 0 1 55.67 93.01
  Q 54.13 96.17 52.77 99.45
  Q 51.41 102.74 50.26 106.06
  A 0.80 0.79 5.9 0 1 49.61 106.58
  Q 42.87 107.39 36.98 108.14
  Q 28.01 109.26 24.80 111.26
  Q 20.25 114.07 18.71 119.44
  C 17.47 123.75 17.97 130.01 17.97 135.13
  C 17.97 140.26 17.47 146.52 18.71 150.82
  Q 20.25 156.20 24.80 159.01
  Q 28.01 161.01 36.98 162.13
  Q 42.87 162.87 49.61 163.69
  A 0.80 0.79 -5.9 0 1 50.26 164.21
  Q 51.41 167.53 52.77 170.82
  Q 54.13 174.10 55.67 177.26
  A 0.80 0.79 -39.1 0 1 55.58 178.09
  Q 51.39 183.43 47.75 188.12
  Q 42.20 195.26 41.34 198.94
  Q 40.11 204.15 42.82 209.04
  C 44.99 212.96 49.77 217.03 53.39 220.66
  C 57.02 224.28 61.09 229.06 65.01 231.23
  Q 69.90 233.94 75.11 232.71
  Q 78.79 231.85 85.93 226.30
  Q 90.62 222.66 95.96 218.47
  A 0.80 0.79 -50.9 0 1 96.79 218.38
  Q 99.95 219.92 103.23 221.28
  Q 106.51 222.64 109.84 223.79
  A 0.80 0.79 -84.1 0 1 110.36 224.44
  Q 111.17 231.18 111.92 237.07
  Q 113.04 246.04 115.03 249.25
  Q 117.85 253.80 123.22 255.34
  C 127.53 256.58 133.79 256.08 138.91 256.08
  C 144.04 256.08 150.30 256.58 154.60 255.34
  Q 159.98 253.80 162.79 249.25
  Q 164.78 246.04 165.91 237.07
  Q 166.65 231.18 167.46 224.44
  A 0.80 0.79 84.1 0 1 167.99 223.79
  Q 171.31 222.64 174.59 221.28
  Q 177.88 219.92 181.04 218.38
  A 0.80 0.79 50.9 0 1 181.87 218.47
  Q 187.21 222.66 191.90 226.30
  Q 199.04 231.85 202.72 232.71
  Q 207.93 233.94 212.82 231.23
  C 216.74 229.06 220.81 224.28 224.43 220.66
  C 228.06 217.03 232.84 212.96 235.01 209.04
  Q 237.72 204.15 236.49 198.94
  Q 235.63 195.26 230.08 188.12
  Q 226.44 183.43 222.25 178.09
  A 0.80 0.79 39.1 0 1 222.16 177.26
  Q 223.70 174.10 225.06 170.82
  Q 226.42 167.54 227.56 164.21
  A 0.80 0.79 5.9 0 1 228.21 163.69
  Q 234.95 162.88 240.84 162.13
  Q 249.82 161.01 253.03 159.02
  Q 257.58 156.20 259.12 150.83
  C 260.36 146.52 259.86 140.26 259.86 135.14
  C 259.86 130.01 260.36 123.75 259.12 119.45
  Q 257.58 114.07 253.03 111.26
  Q 249.82 109.27 240.84 108.14
  Q 234.95 107.40 228.22 106.59
  A 0.80 0.79 -5.9 0 1 227.57 106.06
  Q 226.42 102.74 225.06 99.46
  Q 223.70 96.17 222.16 93.01
  A 0.80 0.79 -39.1 0 1 222.25 92.18
  Q 226.44 86.84 230.08 82.15
  Q 235.63 75.01 236.49 71.33
  Q 237.72 66.12 235.01 61.23
  C 232.84 57.31 228.06 53.24 224.44 49.62
  C 220.81 45.99 216.74 41.21 212.82 39.04
  Q 207.93 36.33 202.72 37.56
  Q 199.04 38.42 191.90 43.97
  Q 187.21 47.61 181.87 51.80
  A 0.80 0.79 -50.9 0 1 181.04 51.89
  Q 177.88 50.35 174.60 48.99
  Q 171.32 47.63 167.99 46.49
  A 0.80 0.79 -84.1 0 1 167.47 45.84
  Q 166.66 39.10 165.91 33.21
  Q 164.79 24.23 162.79 21.02
  Q 159.98 16.47 154.61 14.93
  C 150.30 13.69 144.04 14.19 138.92 14.19
  C 133.79 14.19 127.53 13.69 123.23 14.93
  Q 117.85 16.47 115.04 21.02
  Q 113.04 24.23 111.92 33.21
  Q 111.18 39.10 110.36 45.83
  A 0.80 0.79 84.1 0 1 109.84 46.48
  Q 106.52 47.63 103.23 48.99"
/>
<path stroke="#7c7c7c" vector-effect="non-scaling-stroke" d="
  M 189.30 135.13
  A 50.38 50.38 0.0 0 0 138.92 84.75
  A 50.38 50.38 0.0 0 0 88.54 135.13
  A 50.38 50.38 0.0 0 0 138.92 185.51
  A 50.38 50.38 0.0 0 0 189.30 135.13"
/>
</g>
<path fill="#f7f7f7" fill-opacity="0" d="
  M 275.00 0.00
  L 275.00 275.00
  L 0.00 275.00
  L 0.00 0.00
  L 275.00 0.00
  Z
  M 103.23 48.99
  Q 99.95 50.35 96.79 51.89
  A 0.80 0.79 50.9 0 1 95.96 51.80
  Q 90.62 47.61 85.93 43.97
  Q 78.79 38.42 75.11 37.56
  Q 69.90 36.33 65.01 39.04
  C 61.09 41.21 57.02 45.99 53.39 49.61
  C 49.77 53.24 44.99 57.31 42.82 61.23
  Q 40.11 66.12 41.34 71.33
  Q 42.20 75.01 47.75 82.15
  Q 51.39 86.84 55.58 92.18
  A 0.80 0.79 39.1 0 1 55.67 93.01
  Q 54.13 96.17 52.77 99.45
  Q 51.41 102.74 50.26 106.06
  A 0.80 0.79 5.9 0 1 49.61 106.58
  Q 42.87 107.39 36.98 108.14
  Q 28.01 109.26 24.80 111.26
  Q 20.25 114.07 18.71 119.44
  C 17.47 123.75 17.97 130.01 17.97 135.13
  C 17.97 140.26 17.47 146.52 18.71 150.82
  Q 20.25 156.20 24.80 159.01
  Q 28.01 161.01 36.98 162.13
  Q 42.87 162.87 49.61 163.69
  A 0.80 0.79 -5.9 0 1 50.26 164.21
  Q 51.41 167.53 52.77 170.82
  Q 54.13 174.10 55.67 177.26
  A 0.80 0.79 -39.1 0 1 55.58 178.09
  Q 51.39 183.43 47.75 188.12
  Q 42.20 195.26 41.34 198.94
  Q 40.11 204.15 42.82 209.04
  C 44.99 212.96 49.77 217.03 53.39 220.66
  C 57.02 224.28 61.09 229.06 65.01 231.23
  Q 69.90 233.94 75.11 232.71
  Q 78.79 231.85 85.93 226.30
  Q 90.62 222.66 95.96 218.47
  A 0.80 0.79 -50.9 0 1 96.79 218.38
  Q 99.95 219.92 103.23 221.28
  Q 106.51 222.64 109.84 223.79
  A 0.80 0.79 -84.1 0 1 110.36 224.44
  Q 111.17 231.18 111.92 237.07
  Q 113.04 246.04 115.03 249.25
  Q 117.85 253.80 123.22 255.34
  C 127.53 256.58 133.79 256.08 138.91 256.08
  C 144.04 256.08 150.30 256.58 154.60 255.34
  Q 159.98 253.80 162.79 249.25
  Q 164.78 246.04 165.91 237.07
  Q 166.65 231.18 167.46 224.44
  A 0.80 0.79 84.1 0 1 167.99 223.79
  Q 171.31 222.64 174.59 221.28
  Q 177.88 219.92 181.04 218.38
  A 0.80 0.79 50.9 0 1 181.87 218.47
  Q 187.21 222.66 191.90 226.30
  Q 199.04 231.85 202.72 232.71
  Q 207.93 233.94 212.82 231.23
  C 216.74 229.06 220.81 224.28 224.43 220.66
  C 228.06 217.03 232.84 212.96 235.01 209.04
  Q 237.72 204.15 236.49 198.94
  Q 235.63 195.26 230.08 188.12
  Q 226.44 183.43 222.25 178.09
  A 0.80 0.79 39.1 0 1 222.16 177.26
  Q 223.70 174.10 225.06 170.82
  Q 226.42 167.54 227.56 164.21
  A 0.80 0.79 5.9 0 1 228.21 163.69
  Q 234.95 162.88 240.84 162.13
  Q 249.82 161.01 253.03 159.02
  Q 257.58 156.20 259.12 150.83
  C 260.36 146.52 259.86 140.26 259.86 135.14
  C 259.86 130.01 260.36 123.75 259.12 119.45
  Q 257.58 114.07 253.03 111.26
  Q 249.82 109.27 240.84 108.14
  Q 234.95 107.40 228.22 106.59
  A 0.80 0.79 -5.9 0 1 227.57 106.06
  Q 226.42 102.74 225.06 99.46
  Q 223.70 96.17 222.16 93.01
  A 0.80 0.79 -39.1 0 1 222.25 92.18
  Q 226.44 86.84 230.08 82.15
  Q 235.63 75.01 236.49 71.33
  Q 237.72 66.12 235.01 61.23
  C 232.84 57.31 228.06 53.24 224.44 49.62
  C 220.81 45.99 216.74 41.21 212.82 39.04
  Q 207.93 36.33 202.72 37.56
  Q 199.04 38.42 191.90 43.97
  Q 187.21 47.61 181.87 51.80
  A 0.80 0.79 -50.9 0 1 181.04 51.89
  Q 177.88 50.35 174.60 48.99
  Q 171.32 47.63 167.99 46.49
  A 0.80 0.79 -84.1 0 1 167.47 45.84
  Q 166.66 39.10 165.91 33.21
  Q 164.79 24.23 162.79 21.02
  Q 159.98 16.47 154.61 14.93
  C 150.30 13.69 144.04 14.19 138.92 14.19
  C 133.79 14.19 127.53 13.69 123.23 14.93
  Q 117.85 16.47 115.04 21.02
  Q 113.04 24.23 111.92 33.21
  Q 111.18 39.10 110.36 45.83
  A 0.80 0.79 84.1 0 1 109.84 46.48
  Q 106.52 47.63 103.23 48.99
  Z"
/>
<path fill="#000000" d="
  M 138.92 14.19
  C 144.04 14.19 150.30 13.69 154.61 14.93
  Q 159.98 16.47 162.79 21.02
  Q 164.79 24.23 165.91 33.21
  Q 166.66 39.10 167.47 45.84
  A 0.80 0.79 -84.1 0 0 167.99 46.49
  Q 171.32 47.63 174.60 48.99
  Q 177.88 50.35 181.04 51.89
  A 0.80 0.79 -50.9 0 0 181.87 51.80
  Q 187.21 47.61 191.90 43.97
  Q 199.04 38.42 202.72 37.56
  Q 207.93 36.33 212.82 39.04
  C 216.74 41.21 220.81 45.99 224.44 49.62
  C 228.06 53.24 232.84 57.31 235.01 61.23
  Q 237.72 66.12 236.49 71.33
  Q 235.63 75.01 230.08 82.15
  Q 226.44 86.84 222.25 92.18
  A 0.80 0.79 -39.1 0 0 222.16 93.01
  Q 223.70 96.17 225.06 99.46
  Q 226.42 102.74 227.57 106.06
  A 0.80 0.79 -5.9 0 0 228.22 106.59
  Q 234.95 107.40 240.84 108.14
  Q 249.82 109.27 253.03 111.26
  Q 257.58 114.07 259.12 119.45
  C 260.36 123.75 259.86 130.01 259.86 135.14
  C 259.86 140.26 260.36 146.52 259.12 150.83
  Q 257.58 156.20 253.03 159.02
  Q 249.82 161.01 240.84 162.13
  Q 234.95 162.88 228.21 163.69
  A 0.80 0.79 5.9 0 0 227.56 164.21
  Q 226.42 167.54 225.06 170.82
  Q 223.70 174.10 222.16 177.26
  A 0.80 0.79 39.1 0 0 222.25 178.09
  Q 226.44 183.43 230.08 188.12
  Q 235.63 195.26 236.49 198.94
  Q 237.72 204.15 235.01 209.04
  C 232.84 212.96 228.06 217.03 224.43 220.66
  C 220.81 224.28 216.74 229.06 212.82 231.23
  Q 207.93 233.94 202.72 232.71
  Q 199.04 231.85 191.90 226.30
  Q 187.21 222.66 181.87 218.47
  A 0.80 0.79 50.9 0 0 181.04 218.38
  Q 177.88 219.92 174.59 221.28
  Q 171.31 222.64 167.99 223.79
  A 0.80 0.79 84.1 0 0 167.46 224.44
  Q 166.65 231.18 165.91 237.07
  Q 164.78 246.04 162.79 249.25
  Q 159.98 253.80 154.60 255.34
  C 150.30 256.58 144.04 256.08 138.91 256.08
  C 133.79 256.08 127.53 256.58 123.22 255.34
  Q 117.85 253.80 115.03 249.25
  Q 113.04 246.04 111.92 237.07
  Q 111.17 231.18 110.36 224.44
  A 0.80 0.79 -84.1 0 0 109.84 223.79
  Q 106.51 222.64 103.23 221.28
  Q 99.95 219.92 96.79 218.38
  A 0.80 0.79 -50.9 0 0 95.96 218.47
  Q 90.62 222.66 85.93 226.30
  Q 78.79 231.85 75.11 232.71
  Q 69.90 233.94 65.01 231.23
  C 61.09 229.06 57.02 224.28 53.39 220.66
  C 49.77 217.03 44.99 212.96 42.82 209.04
  Q 40.11 204.15 41.34 198.94
  Q 42.20 195.26 47.75 188.12
  Q 51.39 183.43 55.58 178.09
  A 0.80 0.79 -39.1 0 0 55.67 177.26
  Q 54.13 174.10 52.77 170.82
  Q 51.41 167.53 50.26 164.21
  A 0.80 0.79 -5.9 0 0 49.61 163.69
  Q 42.87 162.87 36.98 162.13
  Q 28.01 161.01 24.80 159.01
  Q 20.25 156.20 18.71 150.82
  C 17.47 146.52 17.97 140.26 17.97 135.13
  C 17.97 130.01 17.47 123.75 18.71 119.44
  Q 20.25 114.07 24.80 111.26
  Q 28.01 109.26 36.98 108.14
  Q 42.87 107.39 49.61 106.58
  A 0.80 0.79 5.9 0 0 50.26 106.06
  Q 51.41 102.74 52.77 99.45
  Q 54.13 96.17 55.67 93.01
  A 0.80 0.79 39.1 0 0 55.58 92.18
  Q 51.39 86.84 47.75 82.15
  Q 42.20 75.01 41.34 71.33
  Q 40.11 66.12 42.82 61.23
  C 44.99 57.31 49.77 53.24 53.39 49.61
  C 57.02 45.99 61.09 41.21 65.01 39.04
  Q 69.90 36.33 75.11 37.56
  Q 78.79 38.42 85.93 43.97
  Q 90.62 47.61 95.96 51.80
  A 0.80 0.79 50.9 0 0 96.79 51.89
  Q 99.95 50.35 103.23 48.99
  Q 106.52 47.63 109.84 46.48
  A 0.80 0.79 84.1 0 0 110.36 45.83
  Q 111.18 39.10 111.92 33.21
  Q 113.04 24.23 115.04 21.02
  Q 117.85 16.47 123.23 14.93
  C 127.53 13.69 133.79 14.19 138.92 14.19
  Z
  M 189.30 135.13
  A 50.38 50.38 0.0 0 0 138.92 84.75
  A 50.38 50.38 0.0 0 0 88.54 135.13
  A 50.38 50.38 0.0 0 0 138.92 185.51
  A 50.38 50.38 0.0 0 0 189.30 135.13
  Z"
/>
<circle fill="#f7f7f7" cx="138.92" cy="135.13" r="50.38"/>
</svg>
