<?xml version="1.0" encoding="UTF-8" standalone="no"?>
<!DOCTYPE svg PUBLIC "-//W3C//DTD SVG 1.1//EN" "http://www.w3.org/Graphics/SVG/1.1/DTD/svg11.dtd">
<svg xmlns="http://www.w3.org/2000/svg" version="1.1" viewBox="0.00 0.00 120.00 135.00" width="60" height="60">
<g stroke-width="2.00" fill="none" stroke-linecap="butt">
<path stroke="#f9f2e5" vector-effect="non-scaling-stroke" d="
  M 120.00 28.97
  Q 118.36 22.21 113.49 19.76
  C 112.12 19.07 112.08 17.97 110.17 17.98
  Q 100.24 18.05 92.01 17.98
  Q 91.54 17.98 91.21 18.30
  L 89.74 19.78
  Q 89.35 20.16 88.81 20.05
  Q 87.51 19.79 86.92 20.63
  Q 86.65 21.01 86.18 21.01
  L 84.02 21.01
  Q 83.45 21.01 83.09 21.45
  Q 82.41 22.27 81.18 22.05
  A 1.02 1.01 27.2 0 0 80.29 22.33
  L 79.96 22.66
  Q 79.58 23.04 79.06 23.04
  L 73.20 23.04
  A 1.53 1.49 63.8 0 1 72.25 22.70
  Q 70.98 21.69 69.22 22.08
  Q 68.71 22.19 68.33 21.82
  L 67.93 21.41
  Q 67.52 21.00 66.93 21.00
  L 55.99 21.00
  Q 55.47 21.00 55.12 20.63
  Q 51.40 16.86 49.92 15.42
  C 47.76 13.32 44.57 12.79 42.22 10.87
  Q 41.20 10.03 39.39 9.15
  Q 38.90 8.92 38.36 9.02
  Q 36.83 9.30 35.48 8.21
  A 1.24 1.21 -30.5 0 0 34.50 7.97
  Q 32.02 8.46 30.52 7.27
  A 1.28 1.28 0.0 0 0 29.72 6.99
  L 19.98 6.99
  Q 19.44 6.99 19.14 7.44
  Q 18.58 8.28 17.13 7.99
  A 0.92 0.90 25.0 0 0 16.26 8.30
  Q 15.63 9.04 14.92 8.98
  A 0.79 0.78 -65.6 0 0 14.32 9.21
  L 9.37 14.15
  A 1.23 1.20 -23.0 0 0 9.01 15.01
  Q 9.01 15.60 9.06 16.19
  Q 9.13 16.87 8.67 17.78
  Q 6.71 21.72 6.29 22.32
  A 1.56 1.38 -33.5 0 0 6.03 23.29
  Q 6.16 24.49 5.46 25.07
  Q 5.05 25.40 5.03 25.93
  Q 4.97 28.60 5.03 36.92
  Q 5.03 37.32 4.87 37.59
  Q 4.72 37.85 4.35 38.12
  A 0.83 0.82 -18.8 0 0 4.02 38.78
  L 4.02 51.47
  Q 4.02 51.96 3.53 51.96
  L 2.97 51.96
  Q 2.43 51.96 2.19 52.44
  L 0.00 56.75"
/>
<path stroke="#f9f2e5" vector-effect="non-scaling-stroke" d="
  M 120.00 65.12
  Q 118.96 66.44 118.90 68.16
  Q 118.89 68.53 118.63 68.79
  L 118.38 69.04
  Q 118.02 69.39 118.06 69.89
  Q 118.15 71.17 117.37 72.15
  A 1.54 1.50 65.4 0 0 117.04 73.07
  Q 116.97 76.61 116.99 88.25
  Q 117.00 91.47 116.27 92.41
  Q 115.96 92.82 116.00 93.34
  Q 116.30 97.32 115.09 100.03
  A 1.78 1.78 0.0 0 0 114.94 100.95
  Q 115.38 105.08 113.67 107.43
  Q 111.36 110.61 109.53 113.99
  Q 108.35 116.17 106.66 117.84
  Q 106.54 117.96 102.88 121.63
  A 1.89 1.47 0.8 0 1 102.51 121.91
  L 91.63 127.81
  Q 91.20 128.04 90.71 127.99
  Q 87.44 127.63 84.85 129.64
  Q 84.44 129.95 83.93 129.93
  Q 82.58 129.87 81.81 130.59
  A 1.21 1.17 24.3 0 1 80.92 130.91
  Q 79.61 130.84 78.70 131.71
  Q 78.32 132.07 77.80 132.00
  Q 75.82 131.73 74.67 132.67
  Q 74.26 133.00 73.74 133.00
  L 48.24 133.00
  Q 47.67 133.00 47.22 132.64
  Q 46.11 131.72 44.49 132.04
  Q 43.95 132.15 43.52 131.81
  Q 41.90 130.55 39.24 131.09
  Q 38.74 131.19 38.38 130.83
  L 36.95 129.39
  Q 36.60 129.05 36.11 129.07
  Q 34.76 129.13 33.72 128.30
  Q 33.32 127.99 32.82 128.02
  C 32.16 128.06 31.90 128.07 31.27 127.67
  Q 29.79 126.76 28.86 126.43
  Q 27.67 126.02 26.53 124.99
  Q 25.31 123.88 23.41 123.29
  Q 21.05 122.55 20.16 122.08
  Q 17.29 120.57 15.13 119.61
  Q 14.26 119.22 13.93 117.39
  Q 13.83 116.83 13.26 116.88
  Q 11.97 116.99 12.15 115.90
  Q 12.23 115.37 11.73 115.17
  Q 8.32 113.84 6.93 110.51
  Q 6.74 110.07 6.36 109.76
  Q 4.35 108.18 3.91 106.60
  A 1.55 1.55 0.0 0 0 3.33 105.78
  Q 2.18 104.94 2.01 103.92
  A 1.67 1.65 -72.8 0 0 1.55 103.03
  L 0.00 101.50"
/>
<path stroke="#8d7c6d" vector-effect="non-scaling-stroke" d="
  M 0.00 72.27
  Q 0.26 72.51 0.33 72.98"
/>
<path stroke="#f2e2cd" vector-effect="non-scaling-stroke" d="
  M 0.33 72.98
  L 0.66 77.05"
/>
<path stroke="#b8a693" vector-effect="non-scaling-stroke" d="
  M 0.66 77.05
  Q -1.09 81.69 2.87 82.59
  Q 4.49 82.96 7.93 82.68"
/>
<path stroke="#f2e2cd" vector-effect="non-scaling-stroke" d="
  M 7.93 82.68
  Q 8.83 84.03 8.54 85.46"
/>
<path stroke="#8d7c6d" vector-effect="non-scaling-stroke" d="
  M 8.54 85.46
  Q 7.29 86.64 6.50 88.19
  Q 6.27 88.65 6.41 89.14
  Q 8.59 96.90 13.80 102.92
  C 16.96 106.59 19.95 109.81 23.74 111.84
  Q 26.50 113.32 30.03 115.52
  Q 32.92 117.31 41.09 120.04
  Q 41.32 120.12 51.88 122.60
  Q 56.63 123.72 61.21 123.63
  Q 68.62 123.48 70.63 123.08
  Q 71.88 122.82 75.40 121.57
  Q 76.39 121.22 80.16 120.14
  Q 86.98 118.19 92.33 112.79
  Q 92.70 112.42 92.70 111.90
  L 92.70 110.96
  Q 92.70 110.16 93.35 110.63
  Q 95.70 112.30 96.23 112.51
  Q 97.83 113.16 99.74 112.01
  Q 100.19 111.74 100.27 111.22
  Q 100.78 108.17 100.10 106.77
  Q 98.90 104.30 95.73 102.59"
/>
<path stroke="#ebc094" vector-effect="non-scaling-stroke" d="
  M 95.73 102.59
  Q 96.24 101.47 97.26 101.18"
/>
<path stroke="#b8a693" vector-effect="non-scaling-stroke" d="
  M 97.26 101.18
  Q 98.38 102.14 99.52 103.15
  Q 100.83 104.31 102.08 104.54
  Q 105.88 105.24 106.61 101.26
  Q 107.09 98.69 104.24 97.12"
/>
<path stroke="#8d7c6d" vector-effect="non-scaling-stroke" d="
  M 104.24 97.12
  Q 103.96 97.04 103.80 96.81
  Q 103.50 96.35 103.80 95.89
  C 104.05 95.50 104.38 95.16 104.51 94.70
  Q 106.13 88.99 106.64 86.28
  Q 107.52 81.51 106.92 76.26
  Q 106.71 74.42 106.36 74.07
  Q 106.19 73.90 106.19 73.66
  L 106.19 69.60
  A 0.11 0.11 0.0 0 1 106.37 69.51
  Q 106.48 69.62 106.61 69.65
  Q 106.74 69.69 106.82 69.58
  Q 109.45 66.07 109.88 62.37"
/>
<path stroke="#b8a693" vector-effect="non-scaling-stroke" d="
  M 109.88 62.37
  Q 111.96 58.24 112.06 53.24
  Q 112.24 44.04 112.10 38.51
  Q 111.98 33.82 110.04 29.63"
/>
<path stroke="#8d7c6d" vector-effect="non-scaling-stroke" d="
  M 110.04 29.63
  Q 108.96 29.05 108.86 28.08"
/>
<path stroke="#b8a693" vector-effect="non-scaling-stroke" d="
  M 108.86 28.08
  Q 102.83 25.59 95.77 27.82
  Q 95.63 27.87 95.74 27.95
  Q 95.79 27.99 95.84 28.02
  Q 95.98 28.11 95.82 28.13
  Q 95.13 28.18 94.73 28.64"
/>
<path stroke="#8d7c6d" vector-effect="non-scaling-stroke" d="
  M 94.73 28.64
  L 83.79 31.72"
/>
<path stroke="#b8a693" vector-effect="non-scaling-stroke" d="
  M 83.79 31.72
  Q 80.82 32.19 78.85 34.01
  A 1.47 1.46 -54.1 0 1 77.24 34.27
  Q 71.73 31.72 65.40 31.23"
/>
<path stroke="#8d7c6d" vector-effect="non-scaling-stroke" d="
  M 65.40 31.23
  Q 64.76 31.34 64.26 30.94"
/>
<path stroke="#bea186" vector-effect="non-scaling-stroke" d="
  M 64.26 30.94
  Q 58.88 29.62 53.25 29.85
  Q 52.15 29.89 50.68 28.38"
/>
<path stroke="#8d7c6d" vector-effect="non-scaling-stroke" d="
  M 50.68 28.38
  Q 40.49 18.56 26.33 15.87"
/>
<path stroke="#b8a693" vector-effect="non-scaling-stroke" d="
  M 26.33 15.87
  Q 21.75 13.89 18.83 16.87
  Q 17.31 18.42 15.79 22.80
  Q 14.25 27.22 13.98 29.64
  Q 12.91 39.37 11.89 47.28
  Q 11.68 48.89 13.13 50.84
  A 0.78 0.77 -50.6 0 1 13.20 51.63
  L 9.22 60.15"
/>
<path stroke="#8d7c6d" vector-effect="non-scaling-stroke" d="
  M 9.22 60.15
  L 6.36 67.28
  Q 6.17 67.73 5.68 67.74
  C 3.62 67.78 0.82 67.35 0.00 69.87"
/>
<path stroke="#523d36" vector-effect="non-scaling-stroke" d="
  M 26.33 15.87
  Q 19.83 15.02 17.55 20.38
  Q 17.00 21.69 15.87 25.64
  Q 15.15 28.21 14.76 31.05
  Q 13.92 37.15 13.13 43.25
  Q 12.94 44.67 13.12 49.36
  Q 13.14 49.85 13.48 50.21
  Q 14.26 51.02 13.88 52.01
  Q 12.69 55.06 9.22 60.15"
/>
<path stroke="#583829" vector-effect="non-scaling-stroke" d="
  M 50.68 28.38
  Q 52.01 31.53 57.01 31.06
  Q 58.67 30.91 64.26 30.94"
/>
<path stroke="#523d36" vector-effect="non-scaling-stroke" d="
  M 65.40 31.23
  L 77.74 35.32
  Q 78.24 35.48 78.67 35.19
  L 83.79 31.72"
/>
<path stroke="#523d36" vector-effect="non-scaling-stroke" d="
  M 94.73 28.64
  L 108.86 28.08"
/>
<path stroke="#523d36" vector-effect="non-scaling-stroke" d="
  M 110.04 29.63
  Q 110.56 33.68 111.20 37.56
  Q 111.99 42.30 111.94 45.51
  Q 111.80 53.77 109.88 62.37"
/>
<path stroke="#523d36" vector-effect="non-scaling-stroke" d="
  M 104.24 97.12
  Q 104.67 98.54 104.80 99.77
  Q 104.97 101.41 104.10 102.18
  C 102.75 103.38 101.57 103.46 99.96 102.28
  Q 98.57 101.25 97.04 100.67"
/>
<path stroke="#855737" vector-effect="non-scaling-stroke" d="
  M 97.04 100.67
  L 94.39 98.56"
/>
<path stroke="#583829" vector-effect="non-scaling-stroke" d="
  M 94.39 98.56
  Q 92.56 94.17 95.78 93.43
  Q 97.11 93.12 97.93 93.02
  Q 98.40 92.96 98.63 92.55
  Q 100.69 88.85 101.12 81.82
  Q 101.88 69.49 98.07 58.83
  Q 97.34 56.77 95.29 53.86"
/>
<path stroke="#855737" vector-effect="non-scaling-stroke" d="
  M 95.29 53.86
  Q 90.94 48.87 88.14 43.38
  A 1.38 1.38 0.0 0 1 89.26 41.38
  Q 90.62 41.28 91.43 41.96"
/>
<path stroke="#583829" vector-effect="non-scaling-stroke" d="
  M 91.43 41.96
  L 100.62 53.06"
/>
<path stroke="#855737" vector-effect="non-scaling-stroke" d="
  M 100.62 53.06
  L 102.92 57.90
  Q 103.86 59.87 104.13 57.71
  L 104.28 56.52"
/>
<path stroke="#583829" vector-effect="non-scaling-stroke" d="
  M 104.28 56.52
  Q 104.45 56.60 104.61 56.61
  A 0.45 0.45 0.0 0 0 105.08 56.23
  Q 106.79 45.85 105.09 35.23
  A 1.67 1.67 0.0 0 0 103.76 33.86
  Q 101.13 33.34 97.97 34.09
  Q 95.12 34.78 94.39 35.03
  Q 92.67 35.62 90.81 35.85
  Q 87.77 36.21 85.32 37.38
  Q 83.36 38.32 84.30 40.44
  Q 84.51 40.90 84.27 41.34
  Q 83.58 42.58 82.92 42.80
  Q 82.32 43.00 80.78 42.41
  Q 69.04 37.90 61.52 37.03
  Q 55.24 36.30 41.99 36.65"
/>
<path stroke="#855737" vector-effect="non-scaling-stroke" d="
  M 41.99 36.65
  Q 38.16 33.39 43.26 31.36
  Q 43.61 31.22 43.73 31.02
  Q 43.87 30.80 43.84 30.53
  A 0.67 0.66 2.9 0 0 43.29 29.93
  Q 42.47 29.79 41.86 29.33
  Q 36.72 25.44 30.56 23.74"
/>
<path stroke="#583829" vector-effect="non-scaling-stroke" d="
  M 30.56 23.74
  Q 28.76 22.60 26.74 22.06
  Q 26.64 22.04 25.53 21.66
  Q 24.02 21.14 23.36 22.56
  C 22.18 25.09 21.34 28.35 20.95 31.56
  Q 20.32 36.78 19.85 42.07"
/>
<path stroke="#855737" vector-effect="non-scaling-stroke" d="
  M 19.85 42.07
  Q 19.81 42.78 19.94 43.19
  Q 20.12 43.75 20.57 43.38
  Q 25.72 39.10 28.81 37.50
  Q 32.86 35.39 32.01 38.38"
/>
<path stroke="#583829" vector-effect="non-scaling-stroke" d="
  M 32.01 38.38
  L 31.43 40.28
  Q 31.28 40.77 30.88 41.07
  Q 17.42 51.21 13.14 67.66"
/>
<path stroke="#855737" vector-effect="non-scaling-stroke" d="
  M 13.14 67.66
  Q 12.72 68.97 13.86 70.33
  Q 14.18 70.72 14.16 71.21
  Q 14.08 73.48 11.82 73.85
  Q 9.38 74.25 5.29 74.10"
/>
<path stroke="#8c7970" vector-effect="non-scaling-stroke" d="
  M 5.29 74.10
  Q 2.34 74.59 0.33 72.98"
/>
<path stroke="#b67c50" vector-effect="non-scaling-stroke" d="
  M 30.56 23.74
  Q 27.73 23.60 25.37 22.54
  A 1.20 1.20 0.0 0 0 23.72 23.33
  Q 21.56 31.62 20.73 40.39
  Q 20.64 41.40 19.85 42.07"
/>
<path stroke="#b67c50" vector-effect="non-scaling-stroke" d="
  M 41.99 36.65
  Q 43.83 37.59 46.25 37.56
  Q 51.10 37.50 60.03 37.82
  Q 62.30 37.91 65.18 38.67
  Q 66.99 39.15 70.29 39.76
  Q 72.56 40.18 75.74 41.55
  Q 78.67 42.81 81.22 43.24
  Q 82.95 43.52 83.63 43.12
  Q 86.12 41.62 85.15 39.32
  A 0.95 0.95 0.0 0 1 85.81 38.02
  C 88.56 37.36 91.14 37.05 93.87 36.22
  Q 98.08 34.94 102.68 34.45
  Q 104.75 34.24 104.71 36.32
  L 104.28 56.52"
/>
<path stroke="#b67c50" vector-effect="non-scaling-stroke" d="
  M 100.62 53.06
  Q 97.35 46.04 91.43 41.96"
/>
<path stroke="#b67c50" vector-effect="non-scaling-stroke" d="
  M 95.29 53.86
  Q 97.35 59.92 99.18 66.17
  Q 100.02 69.04 100.39 79.44
  Q 100.66 86.84 98.00 91.65
  Q 97.76 92.10 97.19 92.03
  L 96.50 91.93
  Q 95.95 91.86 95.55 91.98
  Q 89.56 93.69 94.39 98.56"
/>
<path stroke="#b0815d" vector-effect="non-scaling-stroke" d="
  M 97.04 100.67
  Q 97.08 101.05 97.26 101.18"
/>
<path stroke="#855737" vector-effect="non-scaling-stroke" d="
  M 95.73 102.59
  Q 93.47 100.30 90.72 99.91
  Q 90.23 99.84 89.79 100.10
  Q 86.62 101.99 89.43 104.68"
/>
<path stroke="#eabd96" vector-effect="non-scaling-stroke" d="
  M 89.43 104.68
  Q 85.76 104.75 83.02 104.11
  Q 82.83 104.06 76.99 102.11
  Q 72.61 100.65 69.93 98.54
  Q 68.63 97.52 67.99 97.07
  Q 66.46 96.02 65.91 94.95
  Q 65.31 93.78 64.99 92.54
  A 0.51 0.51 0.0 0 0 64.03 92.46
  L 63.27 94.21"
/>
<path stroke="#b0815d" vector-effect="non-scaling-stroke" d="
  M 63.27 94.21
  Q 63.44 92.68 64.03 91.26
  Q 66.98 84.15 68.05 76.51"
/>
<path stroke="#855737" vector-effect="non-scaling-stroke" d="
  M 68.05 76.51
  L 72.90 60.06
  A 2.99 2.65 -75.0 0 0 71.06 56.39
  Q 70.98 56.37 70.95 56.36
  Q 68.30 55.46 67.42 57.82
  Q 62.86 70.00 62.32 72.11
  Q 60.49 79.34 58.04 86.53"
/>
<path stroke="#eabd96" vector-effect="non-scaling-stroke" d="
  M 58.04 86.53
  Q 58.37 84.37 58.90 82.27
  Q 59.56 79.68 59.47 78.07
  Q 59.08 70.20 60.17 64.12
  A 0.28 0.27 66.5 0 0 59.67 63.92
  Q 56.22 69.32 52.92 72.96
  A 8.18 8.13 74.2 0 0 51.15 76.15
  L 46.38 92.58"
/>
<path stroke="#855737" vector-effect="non-scaling-stroke" d="
  M 46.38 92.58
  Q 46.20 88.36 47.61 84.80
  Q 48.45 82.68 48.93 80.82
  Q 49.68 77.85 50.05 76.81
  Q 54.34 64.44 56.58 56.31
  Q 57.30 53.68 54.64 52.79
  Q 54.61 52.78 54.52 52.76
  Q 51.69 52.01 50.84 54.61
  L 41.76 82.21"
/>
<path stroke="#eabd96" vector-effect="non-scaling-stroke" d="
  M 41.76 82.21
  L 41.81 81.35
  A 0.58 0.58 0.0 0 0 40.96 80.81
  Q 38.97 81.88 37.25 82.38
  Q 29.38 84.68 20.96 84.28
  Q 19.11 84.20 16.60 83.15
  Q 14.47 82.26 12.32 81.63"
/>
<path stroke="#855737" vector-effect="non-scaling-stroke" d="
  M 12.32 81.63
  Q 15.29 76.95 9.42 75.98"
/>
<path stroke="#eabd96" vector-effect="non-scaling-stroke" d="
  M 9.42 75.98
  Q 9.55 75.05 9.24 74.55
  Q 8.97 74.13 8.10 74.13
  Q 6.69 74.14 5.29 74.10"
/>
<path stroke="#b67c50" vector-effect="non-scaling-stroke" d="
  M 13.14 67.66
  Q 15.91 62.06 18.59 56.70
  Q 19.75 54.38 21.50 52.13
  Q 23.18 49.99 24.78 47.79
  Q 26.12 45.96 31.22 41.46
  Q 32.43 40.39 32.01 38.38"
/>
<path stroke="#8c7970" vector-effect="non-scaling-stroke" d="
  M 46.38 92.58
  Q 44.84 94.55 41.96 94.61
  Q 39.70 94.65 39.79 92.23
  Q 39.96 87.17 41.76 82.21"
/>
<path stroke="#523d36" vector-effect="non-scaling-stroke" d="
  M 68.05 76.51
  L 61.39 96.44
  A 2.54 2.50 15.7 0 1 58.42 98.07
  Q 58.37 98.06 58.33 98.03
  Q 55.83 96.70 56.37 94.28
  L 57.92 87.25"
/>
<path stroke="#8c7970" vector-effect="non-scaling-stroke" d="
  M 57.92 87.25
  Q 57.80 86.90 58.04 86.53"
/>
<path stroke="#b7a396" vector-effect="non-scaling-stroke" d="
  M 57.92 87.25
  Q 57.86 87.09 57.79 87.00
  Q 57.66 86.80 57.60 87.03
  Q 56.25 91.67 55.27 94.12
  C 54.32 96.48 55.15 97.83 56.86 99.41
  Q 58.15 100.60 59.85 99.85
  C 62.40 98.72 62.66 96.98 63.27 94.21"
/>
<path stroke="#8c7970" vector-effect="non-scaling-stroke" d="
  M 89.43 104.68
  Q 88.95 107.66 83.35 111.21"
/>
<path stroke="#b7a396" vector-effect="non-scaling-stroke" d="
  M 83.35 111.21
  Q 74.26 114.78 71.44 115.69
  Q 68.56 116.62 64.55 117.00"
/>
<path stroke="#8c7970" vector-effect="non-scaling-stroke" d="
  M 64.55 117.00
  L 58.83 117.27"
/>
<path stroke="#b7a396" vector-effect="non-scaling-stroke" d="
  M 58.83 117.27
  L 47.84 114.63"
/>
<path stroke="#8c7970" vector-effect="non-scaling-stroke" d="
  M 47.84 114.63
  Q 44.01 113.62 42.84 113.16
  Q 39.94 112.01 27.97 105.51
  Q 22.46 102.52 16.05 94.08
  C 14.67 92.26 14.03 89.77 12.98 87.32
  Q 11.62 84.16 8.54 85.46"
/>
<path stroke="#b7a396" vector-effect="non-scaling-stroke" d="
  M 7.93 82.68
  L 9.71 82.58"
/>
<path stroke="#8c7970" vector-effect="non-scaling-stroke" d="
  M 9.71 82.58
  Q 11.18 82.50 12.32 81.63"
/>
<path stroke="#8c7970" vector-effect="non-scaling-stroke" d="
  M 9.42 75.98
  L 2.60 76.39"
/>
<path stroke="#b7a396" vector-effect="non-scaling-stroke" d="
  M 2.60 76.39
  Q 1.42 77.02 0.66 77.05"
/>
<path stroke="#523d36" vector-effect="non-scaling-stroke" d="
  M 9.71 82.58
  L 3.58 82.44
  Q 3.08 82.43 2.70 82.09
  Q 0.30 79.96 2.60 76.39"
/>
<path stroke="#523d36" vector-effect="non-scaling-stroke" d="
  M 47.84 114.63
  Q 52.87 117.37 58.83 117.27"
/>
<path stroke="#523d36" vector-effect="non-scaling-stroke" d="
  M 64.55 117.00
  Q 68.99 117.47 73.72 115.89
  Q 79.40 113.98 83.35 111.21"
/>
</g>
<path fill="#ffffff" fill-opacity="0" d="
  M 120.00 0.00
  L 120.00 28.97
  Q 118.36 22.21 113.49 19.76
  C 112.12 19.07 112.08 17.97 110.17 17.98
  Q 100.24 18.05 92.01 17.98
  Q 91.54 17.98 91.21 18.30
  L 89.74 19.78
  Q 89.35 20.16 88.81 20.05
  Q 87.51 19.79 86.92 20.63
  Q 86.65 21.01 86.18 21.01
  L 84.02 21.01
  Q 83.45 21.01 83.09 21.45
  Q 82.41 22.27 81.18 22.05
  A 1.02 1.01 27.2 0 0 80.29 22.33
  L 79.96 22.66
  Q 79.58 23.04 79.06 23.04
  L 73.20 23.04
  A 1.53 1.49 63.8 0 1 72.25 22.70
  Q 70.98 21.69 69.22 22.08
  Q 68.71 22.19 68.33 21.82
  L 67.93 21.41
  Q 67.52 21.00 66.93 21.00
  L 55.99 21.00
  Q 55.47 21.00 55.12 20.63
  Q 51.40 16.86 49.92 15.42
  C 47.76 13.32 44.57 12.79 42.22 10.87
  Q 41.20 10.03 39.39 9.15
  Q 38.90 8.92 38.36 9.02
  Q 36.83 9.30 35.48 8.21
  A 1.24 1.21 -30.5 0 0 34.50 7.97
  Q 32.02 8.46 30.52 7.27
  A 1.28 1.28 0.0 0 0 29.72 6.99
  L 19.98 6.99
  Q 19.44 6.99 19.14 7.44
  Q 18.58 8.28 17.13 7.99
  A 0.92 0.90 25.0 0 0 16.26 8.30
  Q 15.63 9.04 14.92 8.98
  A 0.79 0.78 -65.6 0 0 14.32 9.21
  L 9.37 14.15
  A 1.23 1.20 -23.0 0 0 9.01 15.01
  Q 9.01 15.60 9.06 16.19
  Q 9.13 16.87 8.67 17.78
  Q 6.71 21.72 6.29 22.32
  A 1.56 1.38 -33.5 0 0 6.03 23.29
  Q 6.16 24.49 5.46 25.07
  Q 5.05 25.40 5.03 25.93
  Q 4.97 28.60 5.03 36.92
  Q 5.03 37.32 4.87 37.59
  Q 4.72 37.85 4.35 38.12
  A 0.83 0.82 -18.8 0 0 4.02 38.78
  L 4.02 51.47
  Q 4.02 51.96 3.53 51.96
  L 2.97 51.96
  Q 2.43 51.96 2.19 52.44
  L 0.00 56.75
  L 0.00 0.00
  L 120.00 0.00
  Z"
/>
<path fill="#f3e5ca" d="
  M 120.00 28.97
  L 120.00 65.12
  Q 118.96 66.44 118.90 68.16
  Q 118.89 68.53 118.63 68.79
  L 118.38 69.04
  Q 118.02 69.39 118.06 69.89
  Q 118.15 71.17 117.37 72.15
  A 1.54 1.50 65.4 0 0 117.04 73.07
  Q 116.97 76.61 116.99 88.25
  Q 117.00 91.47 116.27 92.41
  Q 115.96 92.82 116.00 93.34
  Q 116.30 97.32 115.09 100.03
  A 1.78 1.78 0.0 0 0 114.94 100.95
  Q 115.38 105.08 113.67 107.43
  Q 111.36 110.61 109.53 113.99
  Q 108.35 116.17 106.66 117.84
  Q 106.54 117.96 102.88 121.63
  A 1.89 1.47 0.8 0 1 102.51 121.91
  L 91.63 127.81
  Q 91.20 128.04 90.71 127.99
  Q 87.44 127.63 84.85 129.64
  Q 84.44 129.95 83.93 129.93
  Q 82.58 129.87 81.81 130.59
  A 1.21 1.17 24.3 0 1 80.92 130.91
  Q 79.61 130.84 78.70 131.71
  Q 78.32 132.07 77.80 132.00
  Q 75.82 131.73 74.67 132.67
  Q 74.26 133.00 73.74 133.00
  L 48.24 133.00
  Q 47.67 133.00 47.22 132.64
  Q 46.11 131.72 44.49 132.04
  Q 43.95 132.15 43.52 131.81
  Q 41.90 130.55 39.24 131.09
  Q 38.74 131.19 38.38 130.83
  L 36.95 129.39
  Q 36.60 129.05 36.11 129.07
  Q 34.76 129.13 33.72 128.30
  Q 33.32 127.99 32.82 128.02
  C 32.16 128.06 31.90 128.07 31.27 127.67
  Q 29.79 126.76 28.86 126.43
  Q 27.67 126.02 26.53 124.99
  Q 25.31 123.88 23.41 123.29
  Q 21.05 122.55 20.16 122.08
  Q 17.29 120.57 15.13 119.61
  Q 14.26 119.22 13.93 117.39
  Q 13.83 116.83 13.26 116.88
  Q 11.97 116.99 12.15 115.90
  Q 12.23 115.37 11.73 115.17
  Q 8.32 113.84 6.93 110.51
  Q 6.74 110.07 6.36 109.76
  Q 4.35 108.18 3.91 106.60
  A 1.55 1.55 0.0 0 0 3.33 105.78
  Q 2.18 104.94 2.01 103.92
  A 1.67 1.65 -72.8 0 0 1.55 103.03
  L 0.00 101.50
  L 0.00 72.27
  Q 0.26 72.51 0.33 72.98
  L 0.66 77.05
  Q -1.09 81.69 2.87 82.59
  Q 4.49 82.96 7.93 82.68
  Q 8.83 84.03 8.54 85.46
  Q 7.29 86.64 6.50 88.19
  Q 6.27 88.65 6.41 89.14
  Q 8.59 96.90 13.80 102.92
  C 16.96 106.59 19.95 109.81 23.74 111.84
  Q 26.50 113.32 30.03 115.52
  Q 32.92 117.31 41.09 120.04
  Q 41.32 120.12 51.88 122.60
  Q 56.63 123.72 61.21 123.63
  Q 68.62 123.48 70.63 123.08
  Q 71.88 122.82 75.40 121.57
  Q 76.39 121.22 80.16 120.14
  Q 86.98 118.19 92.33 112.79
  Q 92.70 112.42 92.70 111.90
  L 92.70 110.96
  Q 92.70 110.16 93.35 110.63
  Q 95.70 112.30 96.23 112.51
  Q 97.83 113.16 99.74 112.01
  Q 100.19 111.74 100.27 111.22
  Q 100.78 108.17 100.10 106.77
  Q 98.90 104.30 95.73 102.59
  Q 96.24 101.47 97.26 101.18
  Q 98.38 102.14 99.52 103.15
  Q 100.83 104.31 102.08 104.54
  Q 105.88 105.24 106.61 101.26
  Q 107.09 98.69 104.24 97.12
  Q 103.96 97.04 103.80 96.81
  Q 103.50 96.35 103.80 95.89
  C 104.05 95.50 104.38 95.16 104.51 94.70
  Q 106.13 88.99 106.64 86.28
  Q 107.52 81.51 106.92 76.26
  Q 106.71 74.42 106.36 74.07
  Q 106.19 73.90 106.19 73.66
  L 106.19 69.60
  A 0.11 0.11 0.0 0 1 106.37 69.51
  Q 106.48 69.62 106.61 69.65
  Q 106.74 69.69 106.82 69.58
  Q 109.45 66.07 109.88 62.37
  Q 111.96 58.24 112.06 53.24
  Q 112.24 44.04 112.10 38.51
  Q 111.98 33.82 110.04 29.63
  Q 108.96 29.05 108.86 28.08
  Q 102.83 25.59 95.77 27.82
  Q 95.63 27.87 95.74 27.95
  Q 95.79 27.99 95.84 28.02
  Q 95.98 28.11 95.82 28.13
  Q 95.13 28.18 94.73 28.64
  L 83.79 31.72
  Q 80.82 32.19 78.85 34.01
  A 1.47 1.46 -54.1 0 1 77.24 34.27
  Q 71.73 31.72 65.40 31.23
  Q 64.76 31.34 64.26 30.94
  Q 58.88 29.62 53.25 29.85
  Q 52.15 29.89 50.68 28.38
  Q 40.49 18.56 26.33 15.87
  Q 21.75 13.89 18.83 16.87
  Q 17.31 18.42 15.79 22.80
  Q 14.25 27.22 13.98 29.64
  Q 12.91 39.37 11.89 47.28
  Q 11.68 48.89 13.13 50.84
  A 0.78 0.77 -50.6 0 1 13.20 51.63
  L 9.22 60.15
  L 6.36 67.28
  Q 6.17 67.73 5.68 67.74
  C 3.62 67.78 0.82 67.35 0.00 69.87
  L 0.00 56.75
  L 2.19 52.44
  Q 2.43 51.96 2.97 51.96
  L 3.53 51.96
  Q 4.02 51.96 4.02 51.47
  L 4.02 38.78
  A 0.83 0.82 -18.8 0 1 4.35 38.12
  Q 4.72 37.85 4.87 37.59
  Q 5.03 37.32 5.03 36.92
  Q 4.97 28.60 5.03 25.93
  Q 5.05 25.40 5.46 25.07
  Q 6.16 24.49 6.03 23.29
  A 1.56 1.38 -33.5 0 1 6.29 22.32
  Q 6.71 21.72 8.67 17.78
  Q 9.13 16.87 9.06 16.19
  Q 9.01 15.60 9.01 15.01
  A 1.23 1.20 -23.0 0 1 9.37 14.15
  L 14.32 9.21
  A 0.79 0.78 -65.6 0 1 14.92 8.98
  Q 15.63 9.04 16.26 8.30
  A 0.92 0.90 25.0 0 1 17.13 7.99
  Q 18.58 8.28 19.14 7.44
  Q 19.44 6.99 19.98 6.99
  L 29.72 6.99
  A 1.28 1.28 0.0 0 1 30.52 7.27
  Q 32.02 8.46 34.50 7.97
  A 1.24 1.21 -30.5 0 1 35.48 8.21
  Q 36.83 9.30 38.36 9.02
  Q 38.90 8.92 39.39 9.15
  Q 41.20 10.03 42.22 10.87
  C 44.57 12.79 47.76 13.32 49.92 15.42
  Q 51.40 16.86 55.12 20.63
  Q 55.47 21.00 55.99 21.00
  L 66.93 21.00
  Q 67.52 21.00 67.93 21.41
  L 68.33 21.82
  Q 68.71 22.19 69.22 22.08
  Q 70.98 21.69 72.25 22.70
  A 1.53 1.49 63.8 0 0 73.20 23.04
  L 79.06 23.04
  Q 79.58 23.04 79.96 22.66
  L 80.29 22.33
  A 1.02 1.01 27.2 0 1 81.18 22.05
  Q 82.41 22.27 83.09 21.45
  Q 83.45 21.01 84.02 21.01
  L 86.18 21.01
  Q 86.65 21.01 86.92 20.63
  Q 87.51 19.79 88.81 20.05
  Q 89.35 20.16 89.74 19.78
  L 91.21 18.30
  Q 91.54 17.98 92.01 17.98
  Q 100.24 18.05 110.17 17.98
  C 112.08 17.97 112.12 19.07 113.49 19.76
  Q 118.36 22.21 120.00 28.97
  Z"
/>
<path fill="#7d675c" d="
  M 26.33 15.87
  Q 19.83 15.02 17.55 20.38
  Q 17.00 21.69 15.87 25.64
  Q 15.15 28.21 14.76 31.05
  Q 13.92 37.15 13.13 43.25
  Q 12.94 44.67 13.12 49.36
  Q 13.14 49.85 13.48 50.21
  Q 14.26 51.02 13.88 52.01
  Q 12.69 55.06 9.22 60.15
  L 13.20 51.63
  A 0.78 0.77 -50.6 0 0 13.13 50.84
  Q 11.68 48.89 11.89 47.28
  Q 12.91 39.37 13.98 29.64
  Q 14.25 27.22 15.79 22.80
  Q 17.31 18.42 18.83 16.87
  Q 21.75 13.89 26.33 15.87
  Z"
/>
<path fill="#261310" d="
  M 26.33 15.87
  Q 40.49 18.56 50.68 28.38
  Q 52.01 31.53 57.01 31.06
  Q 58.67 30.91 64.26 30.94
  Q 64.76 31.34 65.40 31.23
  L 77.74 35.32
  Q 78.24 35.48 78.67 35.19
  L 83.79 31.72
  L 94.73 28.64
  L 108.86 28.08
  Q 108.96 29.05 110.04 29.63
  Q 110.56 33.68 111.20 37.56
  Q 111.99 42.30 111.94 45.51
  Q 111.80 53.77 109.88 62.37
  Q 109.45 66.07 106.82 69.58
  Q 106.74 69.69 106.61 69.65
  Q 106.48 69.62 106.37 69.51
  A 0.11 0.11 0.0 0 0 106.19 69.60
  L 106.19 73.66
  Q 106.19 73.90 106.36 74.07
  Q 106.71 74.42 106.92 76.26
  Q 107.52 81.51 106.64 86.28
  Q 106.13 88.99 104.51 94.70
  C 104.38 95.16 104.05 95.50 103.80 95.89
  Q 103.50 96.35 103.80 96.81
  Q 103.96 97.04 104.24 97.12
  Q 104.67 98.54 104.80 99.77
  Q 104.97 101.41 104.10 102.18
  C 102.75 103.38 101.57 103.46 99.96 102.28
  Q 98.57 101.25 97.04 100.67
  L 94.39 98.56
  Q 92.56 94.17 95.78 93.43
  Q 97.11 93.12 97.93 93.02
  Q 98.40 92.96 98.63 92.55
  Q 100.69 88.85 101.12 81.82
  Q 101.88 69.49 98.07 58.83
  Q 97.34 56.77 95.29 53.86
  Q 90.94 48.87 88.14 43.38
  A 1.38 1.38 0.0 0 1 89.26 41.38
  Q 90.62 41.28 91.43 41.96
  L 100.62 53.06
  L 102.92 57.90
  Q 103.86 59.87 104.13 57.71
  L 104.28 56.52
  Q 104.45 56.60 104.61 56.61
  A 0.45 0.45 0.0 0 0 105.08 56.23
  Q 106.79 45.85 105.09 35.23
  A 1.67 1.67 0.0 0 0 103.76 33.86
  Q 101.13 33.34 97.97 34.09
  Q 95.12 34.78 94.39 35.03
  Q 92.67 35.62 90.81 35.85
  Q 87.77 36.21 85.32 37.38
  Q 83.36 38.32 84.30 40.44
  Q 84.51 40.90 84.27 41.34
  Q 83.58 42.58 82.92 42.80
  Q 82.32 43.00 80.78 42.41
  Q 69.04 37.90 61.52 37.03
  Q 55.24 36.30 41.99 36.65
  Q 38.16 33.39 43.26 31.36
  Q 43.61 31.22 43.73 31.02
  Q 43.87 30.80 43.84 30.53
  A 0.67 0.66 2.9 0 0 43.29 29.93
  Q 42.47 29.79 41.86 29.33
  Q 36.72 25.44 30.56 23.74
  Q 28.76 22.60 26.74 22.06
  Q 26.64 22.04 25.53 21.66
  Q 24.02 21.14 23.36 22.56
  C 22.18 25.09 21.34 28.35 20.95 31.56
  Q 20.32 36.78 19.85 42.07
  Q 19.81 42.78 19.94 43.19
  Q 20.12 43.75 20.57 43.38
  Q 25.72 39.10 28.81 37.50
  Q 32.86 35.39 32.01 38.38
  L 31.43 40.28
  Q 31.28 40.77 30.88 41.07
  Q 17.42 51.21 13.14 67.66
  Q 12.72 68.97 13.86 70.33
  Q 14.18 70.72 14.16 71.21
  Q 14.08 73.48 11.82 73.85
  Q 9.38 74.25 5.29 74.10
  Q 2.34 74.59 0.33 72.98
  Q 0.26 72.51 0.00 72.27
  L 0.00 69.87
  C 0.82 67.35 3.62 67.78 5.68 67.74
  Q 6.17 67.73 6.36 67.28
  L 9.22 60.15
  Q 12.69 55.06 13.88 52.01
  Q 14.26 51.02 13.48 50.21
  Q 13.14 49.85 13.12 49.36
  Q 12.94 44.67 13.13 43.25
  Q 13.92 37.15 14.76 31.05
  Q 15.15 28.21 15.87 25.64
  Q 17.00 21.69 17.55 20.38
  Q 19.83 15.02 26.33 15.87
  Z"
/>
<path fill="#895c42" d="
  M 30.56 23.74
  Q 27.73 23.60 25.37 22.54
  A 1.20 1.20 0.0 0 0 23.72 23.33
  Q 21.56 31.62 20.73 40.39
  Q 20.64 41.40 19.85 42.07
  Q 20.32 36.78 20.95 31.56
  C 21.34 28.35 22.18 25.09 23.36 22.56
  Q 24.02 21.14 25.53 21.66
  Q 26.64 22.04 26.74 22.06
  Q 28.76 22.60 30.56 23.74
  Z"
/>
<path fill="#e39b5d" d="
  M 30.56 23.74
  Q 36.72 25.44 41.86 29.33
  Q 42.47 29.79 43.29 29.93
  A 0.67 0.66 2.9 0 1 43.84 30.53
  Q 43.87 30.80 43.73 31.02
  Q 43.61 31.22 43.26 31.36
  Q 38.16 33.39 41.99 36.65
  Q 43.83 37.59 46.25 37.56
  Q 51.10 37.50 60.03 37.82
  Q 62.30 37.91 65.18 38.67
  Q 66.99 39.15 70.29 39.76
  Q 72.56 40.18 75.74 41.55
  Q 78.67 42.81 81.22 43.24
  Q 82.95 43.52 83.63 43.12
  Q 86.12 41.62 85.15 39.32
  A 0.95 0.95 0.0 0 1 85.81 38.02
  C 88.56 37.36 91.14 37.05 93.87 36.22
  Q 98.08 34.94 102.68 34.45
  Q 104.75 34.24 104.71 36.32
  L 104.28 56.52
  L 104.13 57.71
  Q 103.86 59.87 102.92 57.90
  L 100.62 53.06
  Q 97.35 46.04 91.43 41.96
  Q 90.62 41.28 89.26 41.38
  A 1.38 1.38 0.0 0 0 88.14 43.38
  Q 90.94 48.87 95.29 53.86
  Q 97.35 59.92 99.18 66.17
  Q 100.02 69.04 100.39 79.44
  Q 100.66 86.84 98.00 91.65
  Q 97.76 92.10 97.19 92.03
  L 96.50 91.93
  Q 95.95 91.86 95.55 91.98
  Q 89.56 93.69 94.39 98.56
  L 97.04 100.67
  Q 97.08 101.05 97.26 101.18
  Q 96.24 101.47 95.73 102.59
  Q 93.47 100.30 90.72 99.91
  Q 90.23 99.84 89.79 100.10
  Q 86.62 101.99 89.43 104.68
  Q 85.76 104.75 83.02 104.11
  Q 82.83 104.06 76.99 102.11
  Q 72.61 100.65 69.93 98.54
  Q 68.63 97.52 67.99 97.07
  Q 66.46 96.02 65.91 94.95
  Q 65.31 93.78 64.99 92.54
  A 0.51 0.51 0.0 0 0 64.03 92.46
  L 63.27 94.21
  Q 63.44 92.68 64.03 91.26
  Q 66.98 84.15 68.05 76.51
  L 72.90 60.06
  A 2.99 2.65 -75.0 0 0 71.06 56.39
  Q 70.98 56.37 70.95 56.36
  Q 68.30 55.46 67.42 57.82
  Q 62.86 70.00 62.32 72.11
  Q 60.49 79.34 58.04 86.53
  Q 58.37 84.37 58.90 82.27
  Q 59.56 79.68 59.47 78.07
  Q 59.08 70.20 60.17 64.12
  A 0.28 0.27 66.5 0 0 59.67 63.92
  Q 56.22 69.32 52.92 72.96
  A 8.18 8.13 74.2 0 0 51.15 76.15
  L 46.38 92.58
  Q 46.20 88.36 47.61 84.80
  Q 48.45 82.68 48.93 80.82
  Q 49.68 77.85 50.05 76.81
  Q 54.34 64.44 56.58 56.31
  Q 57.30 53.68 54.64 52.79
  Q 54.61 52.78 54.52 52.76
  Q 51.69 52.01 50.84 54.61
  L 41.76 82.21
  L 41.81 81.35
  A 0.58 0.58 0.0 0 0 40.96 80.81
  Q 38.97 81.88 37.25 82.38
  Q 29.38 84.68 20.96 84.28
  Q 19.11 84.20 16.60 83.15
  Q 14.47 82.26 12.32 81.63
  Q 15.29 76.95 9.42 75.98
  Q 9.55 75.05 9.24 74.55
  Q 8.97 74.13 8.10 74.13
  Q 6.69 74.14 5.29 74.10
  Q 9.38 74.25 11.82 73.85
  Q 14.08 73.48 14.16 71.21
  Q 14.18 70.72 13.86 70.33
  Q 12.72 68.97 13.14 67.66
  Q 15.91 62.06 18.59 56.70
  Q 19.75 54.38 21.50 52.13
  Q 23.18 49.99 24.78 47.79
  Q 26.12 45.96 31.22 41.46
  Q 32.43 40.39 32.01 38.38
  Q 32.86 35.39 28.81 37.50
  Q 25.72 39.10 20.57 43.38
  Q 20.12 43.75 19.94 43.19
  Q 19.81 42.78 19.85 42.07
  Q 20.64 41.40 20.73 40.39
  Q 21.56 31.62 23.72 23.33
  A 1.20 1.20 0.0 0 1 25.37 22.54
  Q 27.73 23.60 30.56 23.74
  Z"
/>
<path fill="#7d675c" d="
  M 108.86 28.08
  L 94.73 28.64
  Q 95.13 28.18 95.82 28.13
  Q 95.98 28.11 95.84 28.02
  Q 95.79 27.99 95.74 27.95
  Q 95.63 27.87 95.77 27.82
  Q 102.83 25.59 108.86 28.08
  Z"
/>
<path fill="#895c42" d="
  M 64.26 30.94
  Q 58.67 30.91 57.01 31.06
  Q 52.01 31.53 50.68 28.38
  Q 52.15 29.89 53.25 29.85
  Q 58.88 29.62 64.26 30.94
  Z"
/>
<path fill="#7d675c" d="
  M 109.88 62.37
  Q 111.80 53.77 111.94 45.51
  Q 111.99 42.30 111.20 37.56
  Q 110.56 33.68 110.04 29.63
  Q 111.98 33.82 112.10 38.51
  Q 112.24 44.04 112.06 53.24
  Q 111.96 58.24 109.88 62.37
  Z"
/>
<path fill="#7d675c" d="
  M 83.79 31.72
  L 78.67 35.19
  Q 78.24 35.48 77.74 35.32
  L 65.40 31.23
  Q 71.73 31.72 77.24 34.27
  A 1.47 1.46 -54.1 0 0 78.85 34.01
  Q 80.82 32.19 83.79 31.72
  Z"
/>
<path fill="#895c42" d="
  M 104.28 56.52
  L 104.71 36.32
  Q 104.75 34.24 102.68 34.45
  Q 98.08 34.94 93.87 36.22
  C 91.14 37.05 88.56 37.36 85.81 38.02
  A 0.95 0.95 0.0 0 0 85.15 39.32
  Q 86.12 41.62 83.63 43.12
  Q 82.95 43.52 81.22 43.24
  Q 78.67 42.81 75.74 41.55
  Q 72.56 40.18 70.29 39.76
  Q 66.99 39.15 65.18 38.67
  Q 62.30 37.91 60.03 37.82
  Q 51.10 37.50 46.25 37.56
  Q 43.83 37.59 41.99 36.65
  Q 55.24 36.30 61.52 37.03
  Q 69.04 37.90 80.78 42.41
  Q 82.32 43.00 82.92 42.80
  Q 83.58 42.58 84.27 41.34
  Q 84.51 40.90 84.30 40.44
  Q 83.36 38.32 85.32 37.38
  Q 87.77 36.21 90.81 35.85
  Q 92.67 35.62 94.39 35.03
  Q 95.12 34.78 97.97 34.09
  Q 101.13 33.34 103.76 33.86
  A 1.67 1.67 0.0 0 1 105.09 35.23
  Q 106.79 45.85 105.08 56.23
  A 0.45 0.45 0.0 0 1 104.61 56.61
  Q 104.45 56.60 104.28 56.52
  Z"
/>
<path fill="#895c42" d="
  M 32.01 38.38
  Q 32.43 40.39 31.22 41.46
  Q 26.12 45.96 24.78 47.79
  Q 23.18 49.99 21.50 52.13
  Q 19.75 54.38 18.59 56.70
  Q 15.91 62.06 13.14 67.66
  Q 17.42 51.21 30.88 41.07
  Q 31.28 40.77 31.43 40.28
  L 32.01 38.38
  Z"
/>
<path fill="#895c42" d="
  M 100.62 53.06
  L 91.43 41.96
  Q 97.35 46.04 100.62 53.06
  Z"
/>
<path fill="#261310" d="
  M 46.38 92.58
  Q 44.84 94.55 41.96 94.61
  Q 39.70 94.65 39.79 92.23
  Q 39.96 87.17 41.76 82.21
  L 50.84 54.61
  Q 51.69 52.01 54.52 52.76
  Q 54.61 52.78 54.64 52.79
  Q 57.30 53.68 56.58 56.31
  Q 54.34 64.44 50.05 76.81
  Q 49.68 77.85 48.93 80.82
  Q 48.45 82.68 47.61 84.80
  Q 46.20 88.36 46.38 92.58
  Z"
/>
<path fill="#895c42" d="
  M 94.39 98.56
  Q 89.56 93.69 95.55 91.98
  Q 95.95 91.86 96.50 91.93
  L 97.19 92.03
  Q 97.76 92.10 98.00 91.65
  Q 100.66 86.84 100.39 79.44
  Q 100.02 69.04 99.18 66.17
  Q 97.35 59.92 95.29 53.86
  Q 97.34 56.77 98.07 58.83
  Q 101.88 69.49 101.12 81.82
  Q 100.69 88.85 98.63 92.55
  Q 98.40 92.96 97.93 93.02
  Q 97.11 93.12 95.78 93.43
  Q 92.56 94.17 94.39 98.56
  Z"
/>
<path fill="#261310" d="
  M 68.05 76.51
  L 61.39 96.44
  A 2.54 2.50 15.7 0 1 58.42 98.07
  Q 58.37 98.06 58.33 98.03
  Q 55.83 96.70 56.37 94.28
  L 57.92 87.25
  Q 57.80 86.90 58.04 86.53
  Q 60.49 79.34 62.32 72.11
  Q 62.86 70.00 67.42 57.82
  Q 68.30 55.46 70.95 56.36
  Q 70.98 56.37 71.06 56.39
  A 2.99 2.65 -75.0 0 1 72.90 60.06
  L 68.05 76.51
  Z"
/>
<path fill="#f1dfcf" d="
  M 58.04 86.53
  Q 57.80 86.90 57.92 87.25
  Q 57.86 87.09 57.79 87.00
  Q 57.66 86.80 57.60 87.03
  Q 56.25 91.67 55.27 94.12
  C 54.32 96.48 55.15 97.83 56.86 99.41
  Q 58.15 100.60 59.85 99.85
  C 62.40 98.72 62.66 96.98 63.27 94.21
  L 64.03 92.46
  A 0.51 0.51 0.0 0 1 64.99 92.54
  Q 65.31 93.78 65.91 94.95
  Q 66.46 96.02 67.99 97.07
  Q 68.63 97.52 69.93 98.54
  Q 72.61 100.65 76.99 102.11
  Q 82.83 104.06 83.02 104.11
  Q 85.76 104.75 89.43 104.68
  Q 88.95 107.66 83.35 111.21
  Q 74.26 114.78 71.44 115.69
  Q 68.56 116.62 64.55 117.00
  L 58.83 117.27
  L 47.84 114.63
  Q 44.01 113.62 42.84 113.16
  Q 39.94 112.01 27.97 105.51
  Q 22.46 102.52 16.05 94.08
  C 14.67 92.26 14.03 89.77 12.98 87.32
  Q 11.62 84.16 8.54 85.46
  Q 8.83 84.03 7.93 82.68
  L 9.71 82.58
  Q 11.18 82.50 12.32 81.63
  Q 14.47 82.26 16.60 83.15
  Q 19.11 84.20 20.96 84.28
  Q 29.38 84.68 37.25 82.38
  Q 38.97 81.88 40.96 80.81
  A 0.58 0.58 0.0 0 1 41.81 81.35
  L 41.76 82.21
  Q 39.96 87.17 39.79 92.23
  Q 39.70 94.65 41.96 94.61
  Q 44.84 94.55 46.38 92.58
  L 51.15 76.15
  A 8.18 8.13 74.2 0 1 52.92 72.96
  Q 56.22 69.32 59.67 63.92
  A 0.28 0.27 66.5 0 1 60.17 64.12
  Q 59.08 70.20 59.47 78.07
  Q 59.56 79.68 58.90 82.27
  Q 58.37 84.37 58.04 86.53
  Z"
/>
<path fill="#ffffff" fill-opacity="0" d="
  M 120.00 65.12
  L 120.00 135.00
  L 0.00 135.00
  L 0.00 101.50
  L 1.55 103.03
  A 1.67 1.65 -72.8 0 1 2.01 103.92
  Q 2.18 104.94 3.33 105.78
  A 1.55 1.55 0.0 0 1 3.91 106.60
  Q 4.35 108.18 6.36 109.76
  Q 6.74 110.07 6.93 110.51
  Q 8.32 113.84 11.73 115.17
  Q 12.23 115.37 12.15 115.90
  Q 11.97 116.99 13.26 116.88
  Q 13.83 116.83 13.93 117.39
  Q 14.26 119.22 15.13 119.61
  Q 17.29 120.57 20.16 122.08
  Q 21.05 122.55 23.41 123.29
  Q 25.31 123.88 26.53 124.99
  Q 27.67 126.02 28.86 126.43
  Q 29.79 126.76 31.27 127.67
  C 31.90 128.07 32.16 128.06 32.82 128.02
  Q 33.32 127.99 33.72 128.30
  Q 34.76 129.13 36.11 129.07
  Q 36.60 129.05 36.95 129.39
  L 38.38 130.83
  Q 38.74 131.19 39.24 131.09
  Q 41.90 130.55 43.52 131.81
  Q 43.95 132.15 44.49 132.04
  Q 46.11 131.72 47.22 132.64
  Q 47.67 133.00 48.24 133.00
  L 73.74 133.00
  Q 74.26 133.00 74.67 132.67
  Q 75.82 131.73 77.80 132.00
  Q 78.32 132.07 78.70 131.71
  Q 79.61 130.84 80.92 130.91
  A 1.21 1.17 24.3 0 0 81.81 130.59
  Q 82.58 129.87 83.93 129.93
  Q 84.44 129.95 84.85 129.64
  Q 87.44 127.63 90.71 127.99
  Q 91.20 128.04 91.63 127.81
  L 102.51 121.91
  A 1.89 1.47 0.8 0 0 102.88 121.63
  Q 106.54 117.96 106.66 117.84
  Q 108.35 116.17 109.53 113.99
  Q 111.36 110.61 113.67 107.43
  Q 115.38 105.08 114.94 100.95
  A 1.78 1.78 0.0 0 1 115.09 100.03
  Q 116.30 97.32 116.00 93.34
  Q 115.96 92.82 116.27 92.41
  Q 117.00 91.47 116.99 88.25
  Q 116.97 76.61 117.04 73.07
  A 1.54 1.50 65.4 0 1 117.37 72.15
  Q 118.15 71.17 118.06 69.89
  Q 118.02 69.39 118.38 69.04
  L 118.63 68.79
  Q 118.89 68.53 118.90 68.16
  Q 118.96 66.44 120.00 65.12
  Z"
/>
<path fill="#f1dfcf" d="
  M 5.29 74.10
  Q 6.69 74.14 8.10 74.13
  Q 8.97 74.13 9.24 74.55
  Q 9.55 75.05 9.42 75.98
  L 2.60 76.39
  Q 1.42 77.02 0.66 77.05
  L 0.33 72.98
  Q 2.34 74.59 5.29 74.10
  Z"
/>
<path fill="#261310" d="
  M 9.42 75.98
  Q 15.29 76.95 12.32 81.63
  Q 11.18 82.50 9.71 82.58
  L 3.58 82.44
  Q 3.08 82.43 2.70 82.09
  Q 0.30 79.96 2.60 76.39
  L 9.42 75.98
  Z"
/>
<path fill="#7d675c" d="
  M 2.60 76.39
  Q 0.30 79.96 2.70 82.09
  Q 3.08 82.43 3.58 82.44
  L 9.71 82.58
  L 7.93 82.68
  Q 4.49 82.96 2.87 82.59
  Q -1.09 81.69 0.66 77.05
  Q 1.42 77.02 2.60 76.39
  Z"
/>
<path fill="#7d675c" d="
  M 68.05 76.51
  Q 66.98 84.15 64.03 91.26
  Q 63.44 92.68 63.27 94.21
  C 62.66 96.98 62.40 98.72 59.85 99.85
  Q 58.15 100.60 56.86 99.41
  C 55.15 97.83 54.32 96.48 55.27 94.12
  Q 56.25 91.67 57.60 87.03
  Q 57.66 86.80 57.79 87.00
  Q 57.86 87.09 57.92 87.25
  L 56.37 94.28
  Q 55.83 96.70 58.33 98.03
  Q 58.37 98.06 58.42 98.07
  A 2.54 2.50 15.7 0 0 61.39 96.44
  L 68.05 76.51
  Z"
/>
<path fill="#261310" d="
  M 47.84 114.63
  Q 52.87 117.37 58.83 117.27
  L 64.55 117.00
  Q 68.99 117.47 73.72 115.89
  Q 79.40 113.98 83.35 111.21
  Q 88.95 107.66 89.43 104.68
  Q 86.62 101.99 89.79 100.10
  Q 90.23 99.84 90.72 99.91
  Q 93.47 100.30 95.73 102.59
  Q 98.90 104.30 100.10 106.77
  Q 100.78 108.17 100.27 111.22
  Q 100.19 111.74 99.74 112.01
  Q 97.83 113.16 96.23 112.51
  Q 95.70 112.30 93.35 110.63
  Q 92.70 110.16 92.70 110.96
  L 92.70 111.90
  Q 92.70 112.42 92.33 112.79
  Q 86.98 118.19 80.16 120.14
  Q 76.39 121.22 75.40 121.57
  Q 71.88 122.82 70.63 123.08
  Q 68.62 123.48 61.21 123.63
  Q 56.63 123.72 51.88 122.60
  Q 41.32 120.12 41.09 120.04
  Q 32.92 117.31 30.03 115.52
  Q 26.50 113.32 23.74 111.84
  C 19.95 109.81 16.96 106.59 13.80 102.92
  Q 8.59 96.90 6.41 89.14
  Q 6.27 88.65 6.50 88.19
  Q 7.29 86.64 8.54 85.46
  Q 11.62 84.16 12.98 87.32
  C 14.03 89.77 14.67 92.26 16.05 94.08
  Q 22.46 102.52 27.97 105.51
  Q 39.94 112.01 42.84 113.16
  Q 44.01 113.62 47.84 114.63
  Z"
/>
<path fill="#7d675c" d="
  M 104.24 97.12
  Q 107.09 98.69 106.61 101.26
  Q 105.88 105.24 102.08 104.54
  Q 100.83 104.31 99.52 103.15
  Q 98.38 102.14 97.26 101.18
  Q 97.08 101.05 97.04 100.67
  Q 98.57 101.25 99.96 102.28
  C 101.57 103.46 102.75 103.38 104.10 102.18
  Q 104.97 101.41 104.80 99.77
  Q 104.67 98.54 104.24 97.12
  Z"
/>
<path fill="#7d675c" d="
  M 83.35 111.21
  Q 79.40 113.98 73.72 115.89
  Q 68.99 117.47 64.55 117.00
  Q 68.56 116.62 71.44 115.69
  Q 74.26 114.78 83.35 111.21
  Z"
/>
<path fill="#7d675c" d="
  M 58.83 117.27
  Q 52.87 117.37 47.84 114.63
  L 58.83 117.27
  Z"
/>
</svg>
