<?xml version="1.0" encoding="UTF-8" standalone="no"?>
<!DOCTYPE svg PUBLIC "-//W3C//DTD SVG 1.1//EN" "http://www.w3.org/Graphics/SVG/1.1/DTD/svg11.dtd">
<svg xmlns="http://www.w3.org/2000/svg" version="1.1" viewBox="0.00 0.00 181.00 190.00">
<g stroke-width="2.00" fill="none" stroke-linecap="butt">
<path stroke="#808080" vector-effect="non-scaling-stroke" d="
  M 161.25 101.67
  A 73.81 73.81 0.0 0 0 87.44 27.86
  A 73.81 73.81 0.0 0 0 13.63 101.67
  A 73.81 73.81 0.0 0 0 87.44 175.48
  A 73.81 73.81 0.0 0 0 161.25 101.67"
/>
<path stroke="#808080" vector-effect="non-scaling-stroke" d="
  M 153.53 101.68
  A 66.08 66.08 0.0 0 0 87.45 35.60
  A 66.08 66.08 0.0 0 0 21.37 101.68
  A 66.08 66.08 0.0 0 0 87.45 167.76
  A 66.08 66.08 0.0 0 0 153.53 101.68"
/>
<path stroke="#808080" vector-effect="non-scaling-stroke" d="
  M 48.87 101.68
  Q 48.87 114.85 48.91 116.52
  Q 48.96 119.26 51.70 119.37
  Q 56.25 119.56 61.62 119.30
  Q 65.97 119.09 69.68 122.72
  Q 81.38 134.21 86.19 138.59
  A 1.33 1.33 0.0 0 0 88.36 137.96
  Q 88.85 136.21 88.80 134.25
  Q 88.71 131.38 88.70 101.67
  Q 88.70 71.96 88.78 69.09
  Q 88.83 67.13 88.34 65.38
  A 1.33 1.33 0.0 0 0 86.17 64.75
  Q 81.36 69.14 69.67 80.63
  Q 65.96 84.26 61.61 84.06
  Q 56.24 83.80 51.69 83.99
  Q 48.95 84.10 48.90 86.84
  Q 48.86 88.51 48.87 101.68"
/>
<path stroke="#808080" vector-effect="non-scaling-stroke" d="
  M 117.33 101.73
  C 117.21 110.94 114.43 119.04 109.13 126.48
  Q 106.94 129.57 106.35 130.44
  Q 104.21 133.60 107.89 136.24
  Q 108.03 136.34 108.22 136.41
  Q 111.38 137.47 113.37 135.12
  C 121.50 125.47 125.86 114.19 126.01 101.84
  C 126.17 89.50 122.10 78.11 114.21 68.26
  Q 112.28 65.86 109.10 66.84
  Q 108.90 66.90 108.76 67.00
  Q 105.02 69.55 107.08 72.76
  Q 107.64 73.64 109.76 76.79
  C 114.87 84.36 117.44 92.53 117.33 101.73"
/>
<path stroke="#808080" vector-effect="non-scaling-stroke" d="
  M 101.32 101.78
  Q 101.16 108.92 97.53 114.80
  Q 96.22 116.93 94.53 119.52
  C 92.32 122.90 97.70 127.35 101.07 124.46
  Q 102.19 123.50 103.14 122.14
  Q 109.60 112.92 109.84 101.97
  Q 110.08 91.02 104.03 81.52
  Q 103.14 80.12 102.06 79.11
  C 98.82 76.08 93.25 80.29 95.31 83.76
  Q 96.89 86.43 98.10 88.61
  Q 101.47 94.64 101.32 101.78"
/>
</g>
<path fill="#ffffff" fill-opacity="0" d="
  M 181.00 0.00
  L 181.00 190.00
  L 0.00 190.00
  L 0.00 0.00
  L 181.00 0.00
  Z
  M 161.25 101.67
  A 73.81 73.81 0.0 0 0 87.44 27.86
  A 73.81 73.81 0.0 0 0 13.63 101.67
  A 73.81 73.81 0.0 0 0 87.44 175.48
  A 73.81 73.81 0.0 0 0 161.25 101.67
  Z"
/>
<path fill="#010101" d="
  M 161.25 101.67
  A 73.81 73.81 0.0 0 1 87.44 175.48
  A 73.81 73.81 0.0 0 1 13.63 101.67
  A 73.81 73.81 0.0 0 1 87.44 27.86
  A 73.81 73.81 0.0 0 1 161.25 101.67
  Z
  M 153.53 101.68
  A 66.08 66.08 0.0 0 0 87.45 35.60
  A 66.08 66.08 0.0 0 0 21.37 101.68
  A 66.08 66.08 0.0 0 0 87.45 167.76
  A 66.08 66.08 0.0 0 0 153.53 101.68
  Z"
/>
<path fill="#ffffff" d="
  M 153.53 101.68
  A 66.08 66.08 0.0 0 1 87.45 167.76
  A 66.08 66.08 0.0 0 1 21.37 101.68
  A 66.08 66.08 0.0 0 1 87.45 35.60
  A 66.08 66.08 0.0 0 1 153.53 101.68
  Z
  M 48.87 101.68
  Q 48.87 114.85 48.91 116.52
  Q 48.96 119.26 51.70 119.37
  Q 56.25 119.56 61.62 119.30
  Q 65.97 119.09 69.68 122.72
  Q 81.38 134.21 86.19 138.59
  A 1.33 1.33 0.0 0 0 88.36 137.96
  Q 88.85 136.21 88.80 134.25
  Q 88.71 131.38 88.70 101.67
  Q 88.70 71.96 88.78 69.09
  Q 88.83 67.13 88.34 65.38
  A 1.33 1.33 0.0 0 0 86.17 64.75
  Q 81.36 69.14 69.67 80.63
  Q 65.96 84.26 61.61 84.06
  Q 56.24 83.80 51.69 83.99
  Q 48.95 84.10 48.90 86.84
  Q 48.86 88.51 48.87 101.68
  Z
  M 117.33 101.73
  C 117.21 110.94 114.43 119.04 109.13 126.48
  Q 106.94 129.57 106.35 130.44
  Q 104.21 133.60 107.89 136.24
  Q 108.03 136.34 108.22 136.41
  Q 111.38 137.47 113.37 135.12
  C 121.50 125.47 125.86 114.19 126.01 101.84
  C 126.17 89.50 122.10 78.11 114.21 68.26
  Q 112.28 65.86 109.10 66.84
  Q 108.90 66.90 108.76 67.00
  Q 105.02 69.55 107.08 72.76
  Q 107.64 73.64 109.76 76.79
  C 114.87 84.36 117.44 92.53 117.33 101.73
  Z
  M 101.32 101.78
  Q 101.16 108.92 97.53 114.80
  Q 96.22 116.93 94.53 119.52
  C 92.32 122.90 97.70 127.35 101.07 124.46
  Q 102.19 123.50 103.14 122.14
  Q 109.60 112.92 109.84 101.97
  Q 110.08 91.02 104.03 81.52
  Q 103.14 80.12 102.06 79.11
  C 98.82 76.08 93.25 80.29 95.31 83.76
  Q 96.89 86.43 98.10 88.61
  Q 101.47 94.64 101.32 101.78
  Z"
/>
<path fill="#010101" d="
  M 88.70 101.67
  Q 88.71 131.38 88.80 134.25
  Q 88.85 136.21 88.36 137.96
  A 1.33 1.33 0.0 0 1 86.19 138.59
  Q 81.38 134.21 69.68 122.72
  Q 65.97 119.09 61.62 119.30
  Q 56.25 119.56 51.70 119.37
  Q 48.96 119.26 48.91 116.52
  Q 48.87 114.85 48.87 101.68
  Q 48.86 88.51 48.90 86.84
  Q 48.95 84.10 51.69 83.99
  Q 56.24 83.80 61.61 84.06
  Q 65.96 84.26 69.67 80.63
  Q 81.36 69.14 86.17 64.75
  A 1.33 1.33 0.0 0 1 88.34 65.38
  Q 88.83 67.13 88.78 69.09
  Q 88.70 71.96 88.70 101.67
  Z"
/>
<path fill="#010101" d="
  M 126.01 101.84
  C 125.86 114.19 121.50 125.47 113.37 135.12
  Q 111.38 137.47 108.22 136.41
  Q 108.03 136.34 107.89 136.24
  Q 104.21 133.60 106.35 130.44
  Q 106.94 129.57 109.13 126.48
  C 114.43 119.04 117.21 110.94 117.33 101.73
  C 117.44 92.53 114.87 84.36 109.76 76.79
  Q 107.64 73.64 107.08 72.76
  Q 105.02 69.55 108.76 67.00
  Q 108.90 66.90 109.10 66.84
  Q 112.28 65.86 114.21 68.26
  C 122.10 78.11 126.17 89.50 126.01 101.84
  Z"
/>
<path fill="#010101" d="
  M 109.84 101.97
  Q 109.60 112.92 103.14 122.14
  Q 102.19 123.50 101.07 124.46
  C 97.70 127.35 92.32 122.90 94.53 119.52
  Q 96.22 116.93 97.53 114.80
  Q 101.16 108.92 101.32 101.78
  Q 101.47 94.64 98.10 88.61
  Q 96.89 86.43 95.31 83.76
  C 93.25 80.29 98.82 76.08 102.06 79.11
  Q 103.14 80.12 104.03 81.52
  Q 110.08 91.02 109.84 101.97
  Z"
/>
</svg>
