<?xml version="1.0" encoding="UTF-8" standalone="no"?>
<!DOCTYPE svg PUBLIC "-//W3C//DTD SVG 1.1//EN" "http://www.w3.org/Graphics/SVG/1.1/DTD/svg11.dtd">
<svg xmlns="http://www.w3.org/2000/svg" version="1.1" viewBox="0.00 0.00 180.00 172.00">
<g stroke-width="2.00" fill="none" stroke-linecap="butt">
<path stroke="#808080" vector-effect="non-scaling-stroke" d="
  M 166.65 85.79
  A 78.87 78.87 0.0 0 0 87.78 6.92
  A 78.87 78.87 0.0 0 0 8.91 85.79
  A 78.87 78.87 0.0 0 0 87.78 164.66
  A 78.87 78.87 0.0 0 0 166.65 85.79"
/>
<path stroke="#808080" vector-effect="non-scaling-stroke" d="
  M 161.97 85.76
  A 74.20 74.20 0.0 0 0 87.77 11.56
  A 74.20 74.20 0.0 0 0 13.57 85.76
  A 74.20 74.20 0.0 0 0 87.77 159.96
  A 74.20 74.20 0.0 0 0 161.97 85.76"
/>
<path stroke="#808080" vector-effect="non-scaling-stroke" d="
  M 36.38 54.82
  Q 37.71 56.93 41.28 56.93
  Q 47.00 56.93 51.11 56.83
  A 4.86 4.86 0.0 0 0 55.86 52.00
  Q 55.93 42.00 55.84 39.96
  Q 55.67 35.65 51.80 35.35
  C 46.56 34.93 42.74 37.40 39.40 41.29
  C 36.61 44.56 33.87 50.81 36.38 54.82"
/>
<path stroke="#808080" vector-effect="non-scaling-stroke" d="
  M 125.75 56.89
  Q 130.69 56.85 132.33 56.93
  Q 135.89 57.11 137.27 55.99
  Q 139.89 53.85 139.54 50.75
  Q 138.73 43.58 133.00 38.73
  Q 128.02 34.52 122.66 35.40
  Q 121.04 35.67 120.22 36.74
  Q 119.17 38.12 119.04 39.50
  Q 118.91 40.86 119.06 49.97
  Q 119.11 53.48 120.28 54.99
  Q 121.78 56.92 125.75 56.89"
/>
<path stroke="#808080" vector-effect="non-scaling-stroke" d="
  M 87.53 137.62
  Q 104.02 137.61 107.49 137.63
  Q 111.26 137.64 112.66 136.84
  Q 115.66 135.13 115.54 131.78
  Q 115.30 124.87 115.72 121.01
  Q 116.12 117.29 119.18 114.68
  Q 120.56 113.50 123.16 113.48
  Q 130.62 113.43 133.49 113.43
  Q 136.34 113.42 138.47 110.44
  Q 139.58 108.89 139.54 105.31
  Q 139.53 104.37 139.49 66.50
  Q 139.49 63.21 137.48 61.45
  Q 136.08 60.23 132.81 60.25
  Q 130.65 60.26 124.77 60.15
  C 117.04 60.00 115.45 54.93 115.46 48.15
  Q 115.47 43.29 115.44 40.60
  A 5.15 5.15 0.0 0 0 110.36 35.51
  Q 108.81 35.49 87.48 35.50
  Q 66.15 35.51 64.60 35.53
  A 5.15 5.15 0.0 0 0 59.53 40.63
  Q 59.50 43.32 59.51 48.18
  C 59.53 54.96 57.95 60.03 50.22 60.18
  Q 44.34 60.30 42.18 60.29
  Q 38.91 60.27 37.51 61.49
  Q 35.50 63.26 35.50 66.55
  Q 35.50 104.42 35.49 105.36
  Q 35.45 108.94 36.56 110.49
  Q 38.69 113.46 41.54 113.47
  Q 44.41 113.47 51.87 113.51
  Q 54.47 113.53 55.85 114.71
  Q 58.92 117.32 59.32 121.04
  Q 59.74 124.89 59.51 131.81
  Q 59.39 135.16 62.39 136.86
  Q 63.79 137.66 67.56 137.65
  Q 71.03 137.62 87.53 137.62"
/>
<path stroke="#808080" vector-effect="non-scaling-stroke" d="
  M 38.82 130.72
  A 5.74 5.74 0.0 0 0 40.98 133.16
  L 47.26 137.09
  A 5.74 5.74 0.0 0 0 56.04 132.11
  L 55.85 121.87
  A 5.74 5.74 0.0 0 0 50.16 116.24
  L 41.08 116.17
  A 5.74 5.74 0.0 0 0 35.84 124.34
  L 38.82 130.72"
/>
<path stroke="#808080" vector-effect="non-scaling-stroke" d="
  M 118.86 131.94
  A 5.87 5.87 0.0 0 0 127.93 136.97
  L 134.36 132.78
  A 5.87 5.87 0.0 0 0 136.49 130.33
  L 139.19 124.49
  A 5.87 5.87 0.0 0 0 133.80 116.15
  L 124.84 116.25
  A 5.87 5.87 0.0 0 0 119.03 122.02
  L 118.86 131.94"
/>
<path stroke="#808080" vector-effect="non-scaling-stroke" d="
  M 49.37 45.80
  Q 49.72 45.69 50.78 45.73
  Q 51.28 45.75 51.28 45.25
  L 51.28 39.75
  Q 51.28 39.10 50.65 39.27
  Q 45.07 40.76 41.59 45.84
  Q 40.04 48.10 40.09 51.42
  A 1.68 1.67 -88.3 0 0 41.64 53.07
  Q 43.70 53.23 48.25 53.12
  Q 49.82 53.08 50.57 52.43
  Q 51.84 51.34 51.89 50.18
  Q 51.93 49.13 51.25 49.94
  Q 49.24 52.32 47.24 50.68
  A 1.45 1.45 0.0 0 1 46.74 49.84
  Q 46.15 46.84 49.37 45.80"
/>
<path stroke="#808080" vector-effect="non-scaling-stroke" d="
  M 124.21 45.63
  C 125.91 45.39 127.30 46.51 128.00 47.67
  C 129.09 49.49 127.87 51.05 126.05 51.36
  A 1.03 1.01 -32.0 0 1 125.27 51.19
  L 123.71 50.12
  Q 123.44 49.92 123.25 50.20
  L 123.05 50.49
  A 0.41 0.40 -49.8 0 0 123.09 51.01
  L 124.89 52.85
  Q 125.17 53.14 125.57 53.14
  L 133.29 53.14
  A 1.58 1.57 1.5 0 0 134.87 51.65
  Q 135.03 48.95 134.10 47.24
  Q 130.78 41.10 124.38 39.26
  Q 123.71 39.07 123.71 39.76
  L 123.71 45.19
  Q 123.71 45.69 124.21 45.63"
/>
<path stroke="#808080" vector-effect="non-scaling-stroke" d="
  M 87.52 44.69
  Q 91.43 44.68 92.50 44.80
  Q 102.79 45.96 110.79 51.72
  Q 111.65 52.34 111.65 51.28
  L 111.65 42.33
  Q 111.65 41.17 110.78 40.39
  Q 109.91 39.60 107.00 39.60
  Q 97.26 39.59 87.51 39.61
  Q 77.77 39.62 68.03 39.66
  Q 65.12 39.67 64.25 40.46
  Q 63.38 41.24 63.39 42.40
  L 63.41 51.35
  Q 63.42 52.41 64.27 51.79
  Q 72.26 46.01 82.54 44.82
  Q 83.61 44.69 87.52 44.69"
/>
<path stroke="#808080" vector-effect="non-scaling-stroke" d="
  M 95.89 50.14
  L 95.83 49.81
  A 0.28 0.27 -2.6 0 0 95.58 49.59
  Q 86.43 48.79 81.06 49.63
  Q 74.65 50.63 68.79 54.25
  Q 67.78 54.87 68.96 54.94
  Q 70.05 55.01 71.51 54.55
  C 74.01 53.76 76.47 54.45 78.91 53.63
  Q 87.15 50.86 95.82 50.24
  Q 95.91 50.23 95.89 50.14"
/>
<path stroke="#808080" vector-effect="non-scaling-stroke" d="
  M 111.03 57.56
  Q 107.11 54.18 102.55 53.97
  Q 92.34 53.52 83.32 56.21
  Q 82.36 56.49 83.18 57.06
  L 86.05 59.04
  Q 86.80 59.57 87.68 59.31
  Q 92.50 57.93 94.05 57.86
  Q 102.88 57.46 111.27 58.01
  Q 112.41 58.09 111.46 57.78
  Q 111.19 57.70 111.03 57.56"
/>
<path stroke="#808080" vector-effect="non-scaling-stroke" d="
  M 88.14 64.04
  Q 86.67 62.99 82.60 60.16
  Q 74.58 54.61 67.42 59.71
  Q 65.27 61.25 64.06 63.68
  Q 62.44 66.96 62.43 68.75
  Q 62.31 104.84 62.45 109.02
  Q 62.74 118.19 71.18 121.31
  C 76.42 123.24 80.68 120.38 84.96 117.59
  Q 85.38 117.32 85.85 117.46
  Q 87.19 117.83 88.32 117.32
  Q 99.61 112.21 111.47 109.87
  Q 116.96 108.79 122.63 108.82
  Q 126.32 108.84 133.91 108.91
  A 0.99 0.98 -84.9 0 0 134.89 108.08
  Q 135.05 107.10 134.76 106.19
  Q 134.59 105.69 134.10 105.51
  Q 131.38 104.52 129.45 104.37
  Q 120.77 103.67 111.56 105.84
  Q 108.40 106.59 103.77 108.88
  Q 102.62 109.44 102.37 108.19
  L 102.28 107.75
  Q 102.06 106.63 103.04 106.05
  Q 107.06 103.69 111.37 100.85
  Q 111.93 100.49 112.94 101.09
  Q 113.37 101.34 113.86 101.36
  Q 115.38 101.41 116.79 101.09
  C 121.02 100.13 125.71 100.44 130.55 100.55
  C 132.09 100.59 132.78 101.22 134.03 101.43
  Q 134.89 101.57 134.89 100.71
  L 134.89 98.58
  Q 134.89 97.81 134.12 97.73
  C 132.97 97.61 132.29 96.79 130.90 96.77
  Q 127.13 96.69 121.72 96.74
  Q 119.87 96.76 119.29 97.00
  Q 118.03 97.53 116.83 97.76
  A 1.12 1.12 0.0 0 1 115.55 96.33
  Q 116.58 92.98 116.23 87.89
  Q 116.08 85.84 115.12 84.06
  Q 113.60 81.23 112.80 80.69
  Q 104.59 75.16 95.56 69.25
  Q 94.46 68.53 94.17 68.21
  A 1.78 1.76 67.2 0 1 95.37 65.22
  Q 96.95 65.15 102.30 65.08
  Q 105.42 65.04 109.17 65.77
  Q 109.42 65.82 117.34 67.08
  Q 117.40 67.09 120.53 67.68
  Q 127.72 69.03 134.39 65.93
  Q 134.80 65.73 134.93 65.42
  Q 135.08 65.03 134.93 64.71
  Q 134.71 64.25 134.20 64.26
  Q 133.12 64.28 125.58 64.24
  Q 121.77 64.23 117.17 63.22
  Q 110.39 61.74 107.76 61.53
  Q 104.48 61.26 93.50 61.68
  Q 90.69 61.79 88.89 63.95
  Q 88.56 64.35 88.14 64.04"
/>
<path stroke="#808080" vector-effect="non-scaling-stroke" d="
  M 58.82 101.95
  Q 58.94 102.21 59.17 102.36
  A 0.29 0.28 -73.4 0 0 59.61 102.12
  L 59.61 98.57
  A 1.18 1.16 -70.7 0 0 59.18 97.66
  Q 53.13 92.87 55.03 84.97
  Q 55.85 81.51 59.25 78.97
  Q 59.66 78.67 59.65 78.16
  Q 59.58 72.39 59.64 66.60
  C 59.65 65.65 60.17 65.00 60.37 64.33
  Q 61.12 61.83 59.56 63.96
  C 51.45 75.04 48.35 88.08 54.43 100.91
  Q 54.65 101.38 55.17 101.38
  L 57.89 101.38
  Q 58.53 101.38 58.82 101.95"
/>
<path stroke="#808080" vector-effect="non-scaling-stroke" d="
  M 40.02 64.30
  A 0.35 0.35 0.0 0 0 39.82 64.94
  L 42.51 66.84
  A 0.35 0.35 0.0 0 0 42.65 66.90
  L 50.33 68.31
  A 0.35 0.35 0.0 0 0 50.69 68.15
  L 52.86 64.72
  A 0.35 0.35 0.0 0 0 52.57 64.19
  L 40.02 64.30"
/>
<path stroke="#808080" vector-effect="non-scaling-stroke" d="
  M 119.86 76.31
  Q 121.38 77.15 122.47 77.41
  Q 122.97 77.53 122.90 77.02
  Q 122.85 76.67 122.21 74.48
  Q 121.78 72.98 120.36 72.33
  Q 117.89 71.20 116.08 70.87
  Q 105.54 68.93 105.30 68.91
  Q 102.57 68.75 100.76 68.89
  Q 100.19 68.93 100.66 69.26
  L 108.25 74.51
  Q 108.66 74.79 109.14 74.71
  Q 112.49 74.15 117.32 75.34
  Q 118.71 75.68 119.86 76.31"
/>
<path stroke="#808080" vector-effect="non-scaling-stroke" d="
  M 135.23 72.64
  L 134.68 70.38
  A 0.27 0.27 0.0 0 0 134.35 70.19
  L 127.58 71.85
  A 1.40 1.20 -13.8 0 0 126.51 73.35
  L 126.62 73.79
  A 1.40 1.20 -13.8 0 0 128.27 74.63
  L 135.03 72.96
  A 0.27 0.27 0.0 0 0 135.23 72.64"
/>
<path stroke="#808080" vector-effect="non-scaling-stroke" d="
  M 49.01 72.05
  L 40.37 70.18
  A 0.18 0.18 0.0 0 0 40.16 70.32
  L 40.14 70.40
  A 2.78 2.66 -77.8 0 0 42.15 73.68
  L 45.94 74.50
  A 2.78 2.66 -77.8 0 0 49.13 72.34
  L 49.15 72.26
  A 0.18 0.18 0.0 0 0 49.01 72.05"
/>
<path stroke="#808080" vector-effect="non-scaling-stroke" d="
  M 128.53 92.31
  A 0.32 0.32 0.0 0 0 128.79 92.62
  L 134.56 93.66
  A 0.32 0.32 0.0 0 0 134.94 93.34
  L 134.82 77.58
  A 0.32 0.32 0.0 0 0 134.44 77.27
  L 128.67 78.43
  A 0.32 0.32 0.0 0 0 128.41 78.74
  L 128.53 92.31"
/>
<path stroke="#808080" vector-effect="non-scaling-stroke" d="
  M 46.35 93.00
  Q 46.78 93.06 46.75 92.62
  Q 46.21 85.96 47.03 78.56
  Q 47.06 78.25 46.75 78.25
  Q 43.28 78.24 40.71 77.12
  A 0.41 0.41 0.0 0 0 40.14 77.50
  L 40.14 93.68
  A 0.35 0.34 76.4 0 0 40.64 93.99
  Q 43.31 92.62 46.35 93.00"
/>
<path stroke="#808080" vector-effect="non-scaling-stroke" d="
  M 115.64 78.94
  Q 114.89 78.82 115.38 79.41
  Q 120.08 85.00 118.99 92.46
  A 0.48 0.48 0.0 0 0 119.47 93.01
  L 123.21 93.01
  Q 123.78 93.01 123.78 92.43
  Q 123.75 90.86 123.98 87.79
  C 124.33 83.13 119.72 79.59 115.64 78.94"
/>
<path stroke="#808080" vector-effect="non-scaling-stroke" d="
  M 59.63 92.79
  L 59.63 83.89
  A 0.12 0.12 0.0 0 0 59.51 83.77
  L 59.49 83.77
  A 4.47 1.66 -90.0 0 0 57.83 88.24
  L 57.83 88.44
  A 4.47 1.66 90.0 0 0 59.49 92.91
  L 59.51 92.91
  A 0.12 0.12 0.0 0 0 59.63 92.79"
/>
<path stroke="#808080" vector-effect="non-scaling-stroke" d="
  M 48.45 97.13
  Q 48.45 96.75 48.07 96.72
  Q 44.31 96.43 40.58 97.91
  Q 40.15 98.08 40.15 98.54
  L 40.15 100.97
  Q 40.15 101.63 40.77 101.42
  Q 44.69 100.11 49.13 100.57
  A 0.32 0.32 0.0 0 0 49.42 100.06
  Q 48.47 98.86 48.45 97.13"
/>
<path stroke="#808080" vector-effect="non-scaling-stroke" d="
  M 58.88 110.75
  Q 59.60 111.06 59.60 110.27
  L 59.60 106.71
  A 0.89 0.88 -80.9 0 0 59.00 105.87
  Q 49.86 102.87 41.01 105.25
  Q 40.49 105.39 40.31 105.90
  Q 39.93 106.96 40.25 108.23
  A 0.77 0.76 83.9 0 0 40.96 108.81
  Q 43.94 108.95 51.80 108.87
  Q 54.32 108.84 58.88 110.75"
/>
<path stroke="#808080" vector-effect="non-scaling-stroke" d="
  M 97.95 117.54
  Q 90.52 120.07 83.87 123.50
  Q 82.66 124.13 84.02 124.23
  Q 92.29 124.81 99.58 122.32
  Q 106.87 119.84 113.07 114.34
  Q 114.08 113.43 112.74 113.67
  Q 105.38 115.01 97.95 117.54"
/>
<path stroke="#808080" vector-effect="non-scaling-stroke" d="
  M 87.51 133.00
  Q 109.03 132.96 109.67 132.96
  A 1.95 1.95 0.0 0 0 111.62 131.01
  L 111.62 122.25
  A 0.43 0.42 -16.7 0 0 110.96 121.90
  Q 103.02 127.07 93.54 128.23
  Q 92.28 128.39 87.50 128.40
  Q 82.72 128.41 81.46 128.25
  Q 71.97 127.13 64.01 121.99
  A 0.43 0.42 16.5 0 0 63.36 122.34
  L 63.39 131.10
  A 1.95 1.95 0.0 0 0 65.34 133.04
  Q 65.98 133.04 87.51 133.00"
/>
<path stroke="#808080" vector-effect="non-scaling-stroke" d="
  M 108.82 44.99
  A 1.92 1.92 0.0 0 0 106.90 43.07
  A 1.92 1.92 0.0 0 0 104.98 44.99
  A 1.92 1.92 0.0 0 0 106.90 46.91
  A 1.92 1.92 0.0 0 0 108.82 44.99"
/>
<path stroke="#808080" vector-effect="non-scaling-stroke" d="
  M 68.1005 46.9079
  A 1.90 1.78 92.7 0 0 69.9680 45.0938
  A 1.90 1.78 92.7 0 0 68.2795 43.1121
  A 1.90 1.78 92.7 0 0 66.4120 44.9262
  A 1.90 1.78 92.7 0 0 68.1005 46.9079"
/>
<path stroke="#808080" vector-effect="non-scaling-stroke" d="
  M 87.89 69.61
  Q 80.41 64.50 80.08 64.29
  Q 76.78 62.20 74.16 62.24
  Q 69.91 62.30 68.09 66.05
  Q 67.11 68.08 67.10 72.49
  Q 67.04 107.20 67.10 108.76
  Q 67.31 113.72 71.58 116.16
  Q 74.93 118.07 78.29 116.05
  Q 82.86 113.29 106.71 98.48
  Q 110.22 96.30 110.92 94.65
  Q 112.06 91.96 111.61 88.59
  Q 111.16 85.31 108.03 83.23
  Q 101.45 78.86 87.89 69.61"
/>
<path stroke="#808080" vector-effect="non-scaling-stroke" d="
  M 77.61 70.10
  A 2.62 2.62 0.0 0 0 73.50 72.25
  L 73.43 107.11
  A 2.62 2.62 0.0 0 0 77.45 109.33
  L 103.85 92.68
  A 2.62 2.62 0.0 0 0 103.94 88.31
  L 77.61 70.10"
/>
<path stroke="#808080" vector-effect="non-scaling-stroke" d="
  M 49.51 121.87
  Q 50.51 122.12 51.11 123.31
  L 51.40 123.46
  Q 51.53 123.52 51.67 123.49
  A 0.34 0.34 0.0 0 0 51.96 123.11
  Q 51.71 121.00 50.35 120.86
  Q 46.34 120.45 41.00 120.76
  A 1.09 1.08 -6.7 0 0 40.00 122.02
  Q 41.24 129.45 47.96 132.31
  Q 49.78 133.09 50.47 133.09
  A 0.84 0.84 0.0 0 0 51.30 132.25
  L 51.30 128.21
  Q 51.30 127.28 50.37 127.36
  C 48.34 127.53 45.45 125.00 46.96 122.83
  A 2.38 2.38 0.0 0 1 49.51 121.87"
/>
<path stroke="#808080" vector-effect="non-scaling-stroke" d="
  M 127.89 122.74
  A 1.69 1.69 0.0 0 1 128.27 124.70
  Q 126.92 127.58 124.64 127.35
  Q 123.68 127.25 123.68 128.22
  L 123.68 132.18
  Q 123.68 133.21 124.70 133.07
  Q 125.80 132.93 127.72 131.94
  Q 133.41 129.03 135.01 122.43
  A 1.45 1.44 -82.3 0 0 133.65 120.63
  Q 128.30 120.48 124.62 120.87
  A 1.29 1.28 -73.3 0 0 123.78 121.33
  Q 122.99 122.31 123.07 123.16
  A 0.35 0.35 0.0 0 0 123.69 123.34
  Q 125.72 120.70 127.89 122.74"
/>
<path stroke="#808080" vector-effect="non-scaling-stroke" d="
  M 69.8083 127.1284
  A 2.02 1.92 -35.8 0 0 67.0469 126.7528
  A 2.02 1.92 -35.8 0 0 66.5317 129.4916
  A 2.02 1.92 -35.8 0 0 69.2931 129.8672
  A 2.02 1.92 -35.8 0 0 69.8083 127.1284"
/>
<path stroke="#808080" vector-effect="non-scaling-stroke" d="
  M 105.11 127.32
  L 105.28 129.57
  A 0.77 0.77 0.0 0 0 106.11 130.28
  L 106.52 130.25
  A 2.49 1.80 -4.3 0 0 108.87 128.27
  L 108.86 128.07
  A 2.49 1.80 -4.3 0 0 106.24 126.46
  L 105.82 126.50
  A 0.77 0.77 0.0 0 0 105.11 127.32"
/>
</g>
<path fill="#ffffff" fill-opacity="0" d="
  M 180.00 0.00
  L 180.00 172.00
  L 0.00 172.00
  L 0.00 0.00
  L 180.00 0.00
  Z
  M 166.65 85.79
  A 78.87 78.87 0.0 0 0 87.78 6.92
  A 78.87 78.87 0.0 0 0 8.91 85.79
  A 78.87 78.87 0.0 0 0 87.78 164.66
  A 78.87 78.87 0.0 0 0 166.65 85.79
  Z"
/>
<path fill="#000000" d="
  M 166.65 85.79
  A 78.87 78.87 0.0 0 1 87.78 164.66
  A 78.87 78.87 0.0 0 1 8.91 85.79
  A 78.87 78.87 0.0 0 1 87.78 6.92
  A 78.87 78.87 0.0 0 1 166.65 85.79
  Z
  M 161.97 85.76
  A 74.20 74.20 0.0 0 0 87.77 11.56
  A 74.20 74.20 0.0 0 0 13.57 85.76
  A 74.20 74.20 0.0 0 0 87.77 159.96
  A 74.20 74.20 0.0 0 0 161.97 85.76
  Z"
/>
<path fill="#ffffff" d="
  M 161.97 85.76
  A 74.20 74.20 0.0 0 1 87.77 159.96
  A 74.20 74.20 0.0 0 1 13.57 85.76
  A 74.20 74.20 0.0 0 1 87.77 11.56
  A 74.20 74.20 0.0 0 1 161.97 85.76
  Z
  M 36.38 54.82
  Q 37.71 56.93 41.28 56.93
  Q 47.00 56.93 51.11 56.83
  A 4.86 4.86 0.0 0 0 55.86 52.00
  Q 55.93 42.00 55.84 39.96
  Q 55.67 35.65 51.80 35.35
  C 46.56 34.93 42.74 37.40 39.40 41.29
  C 36.61 44.56 33.87 50.81 36.38 54.82
  Z
  M 125.75 56.89
  Q 130.69 56.85 132.33 56.93
  Q 135.89 57.11 137.27 55.99
  Q 139.89 53.85 139.54 50.75
  Q 138.73 43.58 133.00 38.73
  Q 128.02 34.52 122.66 35.40
  Q 121.04 35.67 120.22 36.74
  Q 119.17 38.12 119.04 39.50
  Q 118.91 40.86 119.06 49.97
  Q 119.11 53.48 120.28 54.99
  Q 121.78 56.92 125.75 56.89
  Z
  M 87.53 137.62
  Q 104.02 137.61 107.49 137.63
  Q 111.26 137.64 112.66 136.84
  Q 115.66 135.13 115.54 131.78
  Q 115.30 124.87 115.72 121.01
  Q 116.12 117.29 119.18 114.68
  Q 120.56 113.50 123.16 113.48
  Q 130.62 113.43 133.49 113.43
  Q 136.34 113.42 138.47 110.44
  Q 139.58 108.89 139.54 105.31
  Q 139.53 104.37 139.49 66.50
  Q 139.49 63.21 137.48 61.45
  Q 136.08 60.23 132.81 60.25
  Q 130.65 60.26 124.77 60.15
  C 117.04 60.00 115.45 54.93 115.46 48.15
  Q 115.47 43.29 115.44 40.60
  A 5.15 5.15 0.0 0 0 110.36 35.51
  Q 108.81 35.49 87.48 35.50
  Q 66.15 35.51 64.60 35.53
  A 5.15 5.15 0.0 0 0 59.53 40.63
  Q 59.50 43.32 59.51 48.18
  C 59.53 54.96 57.95 60.03 50.22 60.18
  Q 44.34 60.30 42.18 60.29
  Q 38.91 60.27 37.51 61.49
  Q 35.50 63.26 35.50 66.55
  Q 35.50 104.42 35.49 105.36
  Q 35.45 108.94 36.56 110.49
  Q 38.69 113.46 41.54 113.47
  Q 44.41 113.47 51.87 113.51
  Q 54.47 113.53 55.85 114.71
  Q 58.92 117.32 59.32 121.04
  Q 59.74 124.89 59.51 131.81
  Q 59.39 135.16 62.39 136.86
  Q 63.79 137.66 67.56 137.65
  Q 71.03 137.62 87.53 137.62
  Z
  M 38.82 130.72
  A 5.74 5.74 0.0 0 0 40.98 133.16
  L 47.26 137.09
  A 5.74 5.74 0.0 0 0 56.04 132.11
  L 55.85 121.87
  A 5.74 5.74 0.0 0 0 50.16 116.24
  L 41.08 116.17
  A 5.74 5.74 0.0 0 0 35.84 124.34
  L 38.82 130.72
  Z
  M 118.86 131.94
  A 5.87 5.87 0.0 0 0 127.93 136.97
  L 134.36 132.78
  A 5.87 5.87 0.0 0 0 136.49 130.33
  L 139.19 124.49
  A 5.87 5.87 0.0 0 0 133.80 116.15
  L 124.84 116.25
  A 5.87 5.87 0.0 0 0 119.03 122.02
  L 118.86 131.94
  Z"
/>
<path fill="#000000" d="
  M 36.38 54.82
  C 33.87 50.81 36.61 44.56 39.40 41.29
  C 42.74 37.40 46.56 34.93 51.80 35.35
  Q 55.67 35.65 55.84 39.96
  Q 55.93 42.00 55.86 52.00
  A 4.86 4.86 0.0 0 1 51.11 56.83
  Q 47.00 56.93 41.28 56.93
  Q 37.71 56.93 36.38 54.82
  Z
  M 49.37 45.80
  Q 49.72 45.69 50.78 45.73
  Q 51.28 45.75 51.28 45.25
  L 51.28 39.75
  Q 51.28 39.10 50.65 39.27
  Q 45.07 40.76 41.59 45.84
  Q 40.04 48.10 40.09 51.42
  A 1.68 1.67 -88.3 0 0 41.64 53.07
  Q 43.70 53.23 48.25 53.12
  Q 49.82 53.08 50.57 52.43
  Q 51.84 51.34 51.89 50.18
  Q 51.93 49.13 51.25 49.94
  Q 49.24 52.32 47.24 50.68
  A 1.45 1.45 0.0 0 1 46.74 49.84
  Q 46.15 46.84 49.37 45.80
  Z"
/>
<path fill="#000000" d="
  M 125.75 56.89
  Q 121.78 56.92 120.28 54.99
  Q 119.11 53.48 119.06 49.97
  Q 118.91 40.86 119.04 39.50
  Q 119.17 38.12 120.22 36.74
  Q 121.04 35.67 122.66 35.40
  Q 128.02 34.52 133.00 38.73
  Q 138.73 43.58 139.54 50.75
  Q 139.89 53.85 137.27 55.99
  Q 135.89 57.11 132.33 56.93
  Q 130.69 56.85 125.75 56.89
  Z
  M 124.21 45.63
  C 125.91 45.39 127.30 46.51 128.00 47.67
  C 129.09 49.49 127.87 51.05 126.05 51.36
  A 1.03 1.01 -32.0 0 1 125.27 51.19
  L 123.71 50.12
  Q 123.44 49.92 123.25 50.20
  L 123.05 50.49
  A 0.41 0.40 -49.8 0 0 123.09 51.01
  L 124.89 52.85
  Q 125.17 53.14 125.57 53.14
  L 133.29 53.14
  A 1.58 1.57 1.5 0 0 134.87 51.65
  Q 135.03 48.95 134.10 47.24
  Q 130.78 41.10 124.38 39.26
  Q 123.71 39.07 123.71 39.76
  L 123.71 45.19
  Q 123.71 45.69 124.21 45.63
  Z"
/>
<path fill="#000000" d="
  M 87.48 35.50
  Q 108.81 35.49 110.36 35.51
  A 5.15 5.15 0.0 0 1 115.44 40.60
  Q 115.47 43.29 115.46 48.15
  C 115.45 54.93 117.04 60.00 124.77 60.15
  Q 130.65 60.26 132.81 60.25
  Q 136.08 60.23 137.48 61.45
  Q 139.49 63.21 139.49 66.50
  Q 139.53 104.37 139.54 105.31
  Q 139.58 108.89 138.47 110.44
  Q 136.34 113.42 133.49 113.43
  Q 130.62 113.43 123.16 113.48
  Q 120.56 113.50 119.18 114.68
  Q 116.12 117.29 115.72 121.01
  Q 115.30 124.87 115.54 131.78
  Q 115.66 135.13 112.66 136.84
  Q 111.26 137.64 107.49 137.63
  Q 104.02 137.61 87.53 137.62
  Q 71.03 137.62 67.56 137.65
  Q 63.79 137.66 62.39 136.86
  Q 59.39 135.16 59.51 131.81
  Q 59.74 124.89 59.32 121.04
  Q 58.92 117.32 55.85 114.71
  Q 54.47 113.53 51.87 113.51
  Q 44.41 113.47 41.54 113.47
  Q 38.69 113.46 36.56 110.49
  Q 35.45 108.94 35.49 105.36
  Q 35.50 104.42 35.50 66.55
  Q 35.50 63.26 37.51 61.49
  Q 38.91 60.27 42.18 60.29
  Q 44.34 60.30 50.22 60.18
  C 57.95 60.03 59.53 54.96 59.51 48.18
  Q 59.50 43.32 59.53 40.63
  A 5.15 5.15 0.0 0 1 64.60 35.53
  Q 66.15 35.51 87.48 35.50
  Z
  M 87.52 44.69
  Q 91.43 44.68 92.50 44.80
  Q 102.79 45.96 110.79 51.72
  Q 111.65 52.34 111.65 51.28
  L 111.65 42.33
  Q 111.65 41.17 110.78 40.39
  Q 109.91 39.60 107.00 39.60
  Q 97.26 39.59 87.51 39.61
  Q 77.77 39.62 68.03 39.66
  Q 65.12 39.67 64.25 40.46
  Q 63.38 41.24 63.39 42.40
  L 63.41 51.35
  Q 63.42 52.41 64.27 51.79
  Q 72.26 46.01 82.54 44.82
  Q 83.61 44.69 87.52 44.69
  Z
  M 95.89 50.14
  L 95.83 49.81
  A 0.28 0.27 -2.6 0 0 95.58 49.59
  Q 86.43 48.79 81.06 49.63
  Q 74.65 50.63 68.79 54.25
  Q 67.78 54.87 68.96 54.94
  Q 70.05 55.01 71.51 54.55
  C 74.01 53.76 76.47 54.45 78.91 53.63
  Q 87.15 50.86 95.82 50.24
  Q 95.91 50.23 95.89 50.14
  Z
  M 111.03 57.56
  Q 107.11 54.18 102.55 53.97
  Q 92.34 53.52 83.32 56.21
  Q 82.36 56.49 83.18 57.06
  L 86.05 59.04
  Q 86.80 59.57 87.68 59.31
  Q 92.50 57.93 94.05 57.86
  Q 102.88 57.46 111.27 58.01
  Q 112.41 58.09 111.46 57.78
  Q 111.19 57.70 111.03 57.56
  Z
  M 88.14 64.04
  Q 86.67 62.99 82.60 60.16
  Q 74.58 54.61 67.42 59.71
  Q 65.27 61.25 64.06 63.68
  Q 62.44 66.96 62.43 68.75
  Q 62.31 104.84 62.45 109.02
  Q 62.74 118.19 71.18 121.31
  C 76.42 123.24 80.68 120.38 84.96 117.59
  Q 85.38 117.32 85.85 117.46
  Q 87.19 117.83 88.32 117.32
  Q 99.61 112.21 111.47 109.87
  Q 116.96 108.79 122.63 108.82
  Q 126.32 108.84 133.91 108.91
  A 0.99 0.98 -84.9 0 0 134.89 108.08
  Q 135.05 107.10 134.76 106.19
  Q 134.59 105.69 134.10 105.51
  Q 131.38 104.52 129.45 104.37
  Q 120.77 103.67 111.56 105.84
  Q 108.40 106.59 103.77 108.88
  Q 102.62 109.44 102.37 108.19
  L 102.28 107.75
  Q 102.06 106.63 103.04 106.05
  Q 107.06 103.69 111.37 100.85
  Q 111.93 100.49 112.94 101.09
  Q 113.37 101.34 113.86 101.36
  Q 115.38 101.41 116.79 101.09
  C 121.02 100.13 125.71 100.44 130.55 100.55
  C 132.09 100.59 132.78 101.22 134.03 101.43
  Q 134.89 101.57 134.89 100.71
  L 134.89 98.58
  Q 134.89 97.81 134.12 97.73
  C 132.97 97.61 132.29 96.79 130.90 96.77
  Q 127.13 96.69 121.72 96.74
  Q 119.87 96.76 119.29 97.00
  Q 118.03 97.53 116.83 97.76
  A 1.12 1.12 0.0 0 1 115.55 96.33
  Q 116.58 92.98 116.23 87.89
  Q 116.08 85.84 115.12 84.06
  Q 113.60 81.23 112.80 80.69
  Q 104.59 75.16 95.56 69.25
  Q 94.46 68.53 94.17 68.21
  A 1.78 1.76 67.2 0 1 95.37 65.22
  Q 96.95 65.15 102.30 65.08
  Q 105.42 65.04 109.17 65.77
  Q 109.42 65.82 117.34 67.08
  Q 117.40 67.09 120.53 67.68
  Q 127.72 69.03 134.39 65.93
  Q 134.80 65.73 134.93 65.42
  Q 135.08 65.03 134.93 64.71
  Q 134.71 64.25 134.20 64.26
  Q 133.12 64.28 125.58 64.24
  Q 121.77 64.23 117.17 63.22
  Q 110.39 61.74 107.76 61.53
  Q 104.48 61.26 93.50 61.68
  Q 90.69 61.79 88.89 63.95
  Q 88.56 64.35 88.14 64.04
  Z
  M 58.82 101.95
  Q 58.94 102.21 59.17 102.36
  A 0.29 0.28 -73.4 0 0 59.61 102.12
  L 59.61 98.57
  A 1.18 1.16 -70.7 0 0 59.18 97.66
  Q 53.13 92.87 55.03 84.97
  Q 55.85 81.51 59.25 78.97
  Q 59.66 78.67 59.65 78.16
  Q 59.58 72.39 59.64 66.60
  C 59.65 65.65 60.17 65.00 60.37 64.33
  Q 61.12 61.83 59.56 63.96
  C 51.45 75.04 48.35 88.08 54.43 100.91
  Q 54.65 101.38 55.17 101.38
  L 57.89 101.38
  Q 58.53 101.38 58.82 101.95
  Z
  M 40.02 64.30
  A 0.35 0.35 0.0 0 0 39.82 64.94
  L 42.51 66.84
  A 0.35 0.35 0.0 0 0 42.65 66.90
  L 50.33 68.31
  A 0.35 0.35 0.0 0 0 50.69 68.15
  L 52.86 64.72
  A 0.35 0.35 0.0 0 0 52.57 64.19
  L 40.02 64.30
  Z
  M 119.86 76.31
  Q 121.38 77.15 122.47 77.41
  Q 122.97 77.53 122.90 77.02
  Q 122.85 76.67 122.21 74.48
  Q 121.78 72.98 120.36 72.33
  Q 117.89 71.20 116.08 70.87
  Q 105.54 68.93 105.30 68.91
  Q 102.57 68.75 100.76 68.89
  Q 100.19 68.93 100.66 69.26
  L 108.25 74.51
  Q 108.66 74.79 109.14 74.71
  Q 112.49 74.15 117.32 75.34
  Q 118.71 75.68 119.86 76.31
  Z
  M 135.23 72.64
  L 134.68 70.38
  A 0.27 0.27 0.0 0 0 134.35 70.19
  L 127.58 71.85
  A 1.40 1.20 -13.8 0 0 126.51 73.35
  L 126.62 73.79
  A 1.40 1.20 -13.8 0 0 128.27 74.63
  L 135.03 72.96
  A 0.27 0.27 0.0 0 0 135.23 72.64
  Z
  M 49.01 72.05
  L 40.37 70.18
  A 0.18 0.18 0.0 0 0 40.16 70.32
  L 40.14 70.40
  A 2.78 2.66 -77.8 0 0 42.15 73.68
  L 45.94 74.50
  A 2.78 2.66 -77.8 0 0 49.13 72.34
  L 49.15 72.26
  A 0.18 0.18 0.0 0 0 49.01 72.05
  Z
  M 128.53 92.31
  A 0.32 0.32 0.0 0 0 128.79 92.62
  L 134.56 93.66
  A 0.32 0.32 0.0 0 0 134.94 93.34
  L 134.82 77.58
  A 0.32 0.32 0.0 0 0 134.44 77.27
  L 128.67 78.43
  A 0.32 0.32 0.0 0 0 128.41 78.74
  L 128.53 92.31
  Z
  M 46.35 93.00
  Q 46.78 93.06 46.75 92.62
  Q 46.21 85.96 47.03 78.56
  Q 47.06 78.25 46.75 78.25
  Q 43.28 78.24 40.71 77.12
  A 0.41 0.41 0.0 0 0 40.14 77.50
  L 40.14 93.68
  A 0.35 0.34 76.4 0 0 40.64 93.99
  Q 43.31 92.62 46.35 93.00
  Z
  M 115.64 78.94
  Q 114.89 78.82 115.38 79.41
  Q 120.08 85.00 118.99 92.46
  A 0.48 0.48 0.0 0 0 119.47 93.01
  L 123.21 93.01
  Q 123.78 93.01 123.78 92.43
  Q 123.75 90.86 123.98 87.79
  C 124.33 83.13 119.72 79.59 115.64 78.94
  Z
  M 59.63 92.79
  L 59.63 83.89
  A 0.12 0.12 0.0 0 0 59.51 83.77
  L 59.49 83.77
  A 4.47 1.66 -90.0 0 0 57.83 88.24
  L 57.83 88.44
  A 4.47 1.66 90.0 0 0 59.49 92.91
  L 59.51 92.91
  A 0.12 0.12 0.0 0 0 59.63 92.79
  Z
  M 48.45 97.13
  Q 48.45 96.75 48.07 96.72
  Q 44.31 96.43 40.58 97.91
  Q 40.15 98.08 40.15 98.54
  L 40.15 100.97
  Q 40.15 101.63 40.77 101.42
  Q 44.69 100.11 49.13 100.57
  A 0.32 0.32 0.0 0 0 49.42 100.06
  Q 48.47 98.86 48.45 97.13
  Z
  M 58.88 110.75
  Q 59.60 111.06 59.60 110.27
  L 59.60 106.71
  A 0.89 0.88 -80.9 0 0 59.00 105.87
  Q 49.86 102.87 41.01 105.25
  Q 40.49 105.39 40.31 105.90
  Q 39.93 106.96 40.25 108.23
  A 0.77 0.76 83.9 0 0 40.96 108.81
  Q 43.94 108.95 51.80 108.87
  Q 54.32 108.84 58.88 110.75
  Z
  M 97.95 117.54
  Q 90.52 120.07 83.87 123.50
  Q 82.66 124.13 84.02 124.23
  Q 92.29 124.81 99.58 122.32
  Q 106.87 119.84 113.07 114.34
  Q 114.08 113.43 112.74 113.67
  Q 105.38 115.01 97.95 117.54
  Z
  M 87.51 133.00
  Q 109.03 132.96 109.67 132.96
  A 1.95 1.95 0.0 0 0 111.62 131.01
  L 111.62 122.25
  A 0.43 0.42 -16.7 0 0 110.96 121.90
  Q 103.02 127.07 93.54 128.23
  Q 92.28 128.39 87.50 128.40
  Q 82.72 128.41 81.46 128.25
  Q 71.97 127.13 64.01 121.99
  A 0.43 0.42 16.5 0 0 63.36 122.34
  L 63.39 131.10
  A 1.95 1.95 0.0 0 0 65.34 133.04
  Q 65.98 133.04 87.51 133.00
  Z"
/>
<path fill="#ffffff" d="
  M 49.37 45.80
  Q 46.15 46.84 46.74 49.84
  A 1.45 1.45 0.0 0 0 47.24 50.68
  Q 49.24 52.32 51.25 49.94
  Q 51.93 49.13 51.89 50.18
  Q 51.84 51.34 50.57 52.43
  Q 49.82 53.08 48.25 53.12
  Q 43.70 53.23 41.64 53.07
  A 1.68 1.67 -88.3 0 1 40.09 51.42
  Q 40.04 48.10 41.59 45.84
  Q 45.07 40.76 50.65 39.27
  Q 51.28 39.10 51.28 39.75
  L 51.28 45.25
  Q 51.28 45.75 50.78 45.73
  Q 49.72 45.69 49.37 45.80
  Z"
/>
<path fill="#ffffff" d="
  M 128.00 47.67
  C 127.30 46.51 125.91 45.39 124.21 45.63
  Q 123.71 45.69 123.71 45.19
  L 123.71 39.76
  Q 123.71 39.07 124.38 39.26
  Q 130.78 41.10 134.10 47.24
  Q 135.03 48.95 134.87 51.65
  A 1.58 1.57 1.5 0 1 133.29 53.14
  L 125.57 53.14
  Q 125.17 53.14 124.89 52.85
  L 123.09 51.01
  A 0.41 0.40 -49.8 0 1 123.05 50.49
  L 123.25 50.20
  Q 123.44 49.92 123.71 50.12
  L 125.27 51.19
  A 1.03 1.01 -32.0 0 0 126.05 51.36
  C 127.87 51.05 129.09 49.49 128.00 47.67
  Z"
/>
<path fill="#ffffff" d="
  M 87.51 39.61
  Q 97.26 39.59 107.00 39.60
  Q 109.91 39.60 110.78 40.39
  Q 111.65 41.17 111.65 42.33
  L 111.65 51.28
  Q 111.65 52.34 110.79 51.72
  Q 102.79 45.96 92.50 44.80
  Q 91.43 44.68 87.52 44.69
  Q 83.61 44.69 82.54 44.82
  Q 72.26 46.01 64.27 51.79
  Q 63.42 52.41 63.41 51.35
  L 63.39 42.40
  Q 63.38 41.24 64.25 40.46
  Q 65.12 39.67 68.03 39.66
  Q 77.77 39.62 87.51 39.61
  Z
  M 108.82 44.99
  A 1.92 1.92 0.0 0 0 106.90 43.07
  A 1.92 1.92 0.0 0 0 104.98 44.99
  A 1.92 1.92 0.0 0 0 106.90 46.91
  A 1.92 1.92 0.0 0 0 108.82 44.99
  Z
  M 68.1005 46.9079
  A 1.90 1.78 92.7 0 0 69.9680 45.0938
  A 1.90 1.78 92.7 0 0 68.2795 43.1121
  A 1.90 1.78 92.7 0 0 66.4120 44.9262
  A 1.90 1.78 92.7 0 0 68.1005 46.9079
  Z"
/>
<circle fill="#000000" cx="106.90" cy="44.99" r="1.92"/>
<ellipse fill="#000000" cx="0.00" cy="0.00" transform="translate(68.19,45.01) rotate(92.7)" rx="1.90" ry="1.78"/>
<path fill="#ffffff" d="
  M 95.82 50.24
  Q 87.15 50.86 78.91 53.63
  C 76.47 54.45 74.01 53.76 71.51 54.55
  Q 70.05 55.01 68.96 54.94
  Q 67.78 54.87 68.79 54.25
  Q 74.65 50.63 81.06 49.63
  Q 86.43 48.79 95.58 49.59
  A 0.28 0.27 -2.6 0 1 95.83 49.81
  L 95.89 50.14
  Q 95.91 50.23 95.82 50.24
  Z"
/>
<path fill="#ffffff" d="
  M 111.03 57.56
  Q 111.19 57.70 111.46 57.78
  Q 112.41 58.09 111.27 58.01
  Q 102.88 57.46 94.05 57.86
  Q 92.50 57.93 87.68 59.31
  Q 86.80 59.57 86.05 59.04
  L 83.18 57.06
  Q 82.36 56.49 83.32 56.21
  Q 92.34 53.52 102.55 53.97
  Q 107.11 54.18 111.03 57.56
  Z"
/>
<path fill="#ffffff" d="
  M 88.89 63.95
  Q 90.69 61.79 93.50 61.68
  Q 104.48 61.26 107.76 61.53
  Q 110.39 61.74 117.17 63.22
  Q 121.77 64.23 125.58 64.24
  Q 133.12 64.28 134.20 64.26
  Q 134.71 64.25 134.93 64.71
  Q 135.08 65.03 134.93 65.42
  Q 134.80 65.73 134.39 65.93
  Q 127.72 69.03 120.53 67.68
  Q 117.40 67.09 117.34 67.08
  Q 109.42 65.82 109.17 65.77
  Q 105.42 65.04 102.30 65.08
  Q 96.95 65.15 95.37 65.22
  A 1.78 1.76 67.2 0 0 94.17 68.21
  Q 94.46 68.53 95.56 69.25
  Q 104.59 75.16 112.80 80.69
  Q 113.60 81.23 115.12 84.06
  Q 116.08 85.84 116.23 87.89
  Q 116.58 92.98 115.55 96.33
  A 1.12 1.12 0.0 0 0 116.83 97.76
  Q 118.03 97.53 119.29 97.00
  Q 119.87 96.76 121.72 96.74
  Q 127.13 96.69 130.90 96.77
  C 132.29 96.79 132.97 97.61 134.12 97.73
  Q 134.89 97.81 134.89 98.58
  L 134.89 100.71
  Q 134.89 101.57 134.03 101.43
  C 132.78 101.22 132.09 100.59 130.55 100.55
  C 125.71 100.44 121.02 100.13 116.79 101.09
  Q 115.38 101.41 113.86 101.36
  Q 113.37 101.34 112.94 101.09
  Q 111.93 100.49 111.37 100.85
  Q 107.06 103.69 103.04 106.05
  Q 102.06 106.63 102.28 107.75
  L 102.37 108.19
  Q 102.62 109.44 103.77 108.88
  Q 108.40 106.59 111.56 105.84
  Q 120.77 103.67 129.45 104.37
  Q 131.38 104.52 134.10 105.51
  Q 134.59 105.69 134.76 106.19
  Q 135.05 107.10 134.89 108.08
  A 0.99 0.98 -84.9 0 1 133.91 108.91
  Q 126.32 108.84 122.63 108.82
  Q 116.96 108.79 111.47 109.87
  Q 99.61 112.21 88.32 117.32
  Q 87.19 117.83 85.85 117.46
  Q 85.38 117.32 84.96 117.59
  C 80.68 120.38 76.42 123.24 71.18 121.31
  Q 62.74 118.19 62.45 109.02
  Q 62.31 104.84 62.43 68.75
  Q 62.44 66.96 64.06 63.68
  Q 65.27 61.25 67.42 59.71
  Q 74.58 54.61 82.60 60.16
  Q 86.67 62.99 88.14 64.04
  Q 88.56 64.35 88.89 63.95
  Z
  M 87.89 69.61
  Q 80.41 64.50 80.08 64.29
  Q 76.78 62.20 74.16 62.24
  Q 69.91 62.30 68.09 66.05
  Q 67.11 68.08 67.10 72.49
  Q 67.04 107.20 67.10 108.76
  Q 67.31 113.72 71.58 116.16
  Q 74.93 118.07 78.29 116.05
  Q 82.86 113.29 106.71 98.48
  Q 110.22 96.30 110.92 94.65
  Q 112.06 91.96 111.61 88.59
  Q 111.16 85.31 108.03 83.23
  Q 101.45 78.86 87.89 69.61
  Z"
/>
<path fill="#000000" d="
  M 87.89 69.61
  Q 101.45 78.86 108.03 83.23
  Q 111.16 85.31 111.61 88.59
  Q 112.06 91.96 110.92 94.65
  Q 110.22 96.30 106.71 98.48
  Q 82.86 113.29 78.29 116.05
  Q 74.93 118.07 71.58 116.16
  Q 67.31 113.72 67.10 108.76
  Q 67.04 107.20 67.10 72.49
  Q 67.11 68.08 68.09 66.05
  Q 69.91 62.30 74.16 62.24
  Q 76.78 62.20 80.08 64.29
  Q 80.41 64.50 87.89 69.61
  Z
  M 77.61 70.10
  A 2.62 2.62 0.0 0 0 73.50 72.25
  L 73.43 107.11
  A 2.62 2.62 0.0 0 0 77.45 109.33
  L 103.85 92.68
  A 2.62 2.62 0.0 0 0 103.94 88.31
  L 77.61 70.10
  Z"
/>
<path fill="#ffffff" d="
  M 57.89 101.38
  L 55.17 101.38
  Q 54.65 101.38 54.43 100.91
  C 48.35 88.08 51.45 75.04 59.56 63.96
  Q 61.12 61.83 60.37 64.33
  C 60.17 65.00 59.65 65.65 59.64 66.60
  Q 59.58 72.39 59.65 78.16
  Q 59.66 78.67 59.25 78.97
  Q 55.85 81.51 55.03 84.97
  Q 53.13 92.87 59.18 97.66
  A 1.18 1.16 -70.7 0 1 59.61 98.57
  L 59.61 102.12
  A 0.29 0.28 -73.4 0 1 59.17 102.36
  Q 58.94 102.21 58.82 101.95
  Q 58.53 101.38 57.89 101.38
  Z"
/>
<path fill="#ffffff" d="
  M 40.02 64.30
  L 52.57 64.19
  A 0.35 0.35 0.0 0 1 52.86 64.72
  L 50.69 68.15
  A 0.35 0.35 0.0 0 1 50.33 68.31
  L 42.65 66.90
  A 0.35 0.35 0.0 0 1 42.51 66.84
  L 39.82 64.94
  A 0.35 0.35 0.0 0 1 40.02 64.30
  Z"
/>
<path fill="#ffffff" d="
  M 117.32 75.34
  Q 112.49 74.15 109.14 74.71
  Q 108.66 74.79 108.25 74.51
  L 100.66 69.26
  Q 100.19 68.93 100.76 68.89
  Q 102.57 68.75 105.30 68.91
  Q 105.54 68.93 116.08 70.87
  Q 117.89 71.20 120.36 72.33
  Q 121.78 72.98 122.21 74.48
  Q 122.85 76.67 122.90 77.02
  Q 122.97 77.53 122.47 77.41
  Q 121.38 77.15 119.86 76.31
  Q 118.71 75.68 117.32 75.34
  Z"
/>
<path fill="#E41C34" d="
  M 77.61 70.10
  L 103.94 88.31
  A 2.62 2.62 0.0 0 1 103.85 92.68
  L 77.45 109.33
  A 2.62 2.62 0.0 0 1 73.43 107.11
  L 73.50 72.25
  A 2.62 2.62 0.0 0 1 77.61 70.10
  Z"
/>
<path fill="#ffffff" d="
  M 135.23 72.64
  A 0.27 0.27 0.0 0 1 135.03 72.96
  L 128.27 74.63
  A 1.40 1.20 -13.8 0 1 126.62 73.79
  L 126.51 73.35
  A 1.40 1.20 -13.8 0 1 127.58 71.85
  L 134.35 70.19
  A 0.27 0.27 0.0 0 1 134.68 70.38
  L 135.23 72.64
  Z"
/>
<path fill="#ffffff" d="
  M 49.01 72.05
  A 0.18 0.18 0.0 0 1 49.15 72.26
  L 49.13 72.34
  A 2.78 2.66 -77.8 0 1 45.94 74.50
  L 42.15 73.68
  A 2.78 2.66 -77.8 0 1 40.14 70.40
  L 40.16 70.32
  A 0.18 0.18 0.0 0 1 40.37 70.18
  L 49.01 72.05
  Z"
/>
<path fill="#ffffff" d="
  M 128.53 92.31
  L 128.41 78.74
  A 0.32 0.32 0.0 0 1 128.67 78.43
  L 134.44 77.27
  A 0.32 0.32 0.0 0 1 134.82 77.58
  L 134.94 93.34
  A 0.32 0.32 0.0 0 1 134.56 93.66
  L 128.79 92.62
  A 0.32 0.32 0.0 0 1 128.53 92.31
  Z"
/>
<path fill="#ffffff" d="
  M 46.35 93.00
  Q 43.31 92.62 40.64 93.99
  A 0.35 0.34 76.4 0 1 40.14 93.68
  L 40.14 77.50
  A 0.41 0.41 0.0 0 1 40.71 77.12
  Q 43.28 78.24 46.75 78.25
  Q 47.06 78.25 47.03 78.56
  Q 46.21 85.96 46.75 92.62
  Q 46.78 93.06 46.35 93.00
  Z"
/>
<path fill="#ffffff" d="
  M 115.64 78.94
  C 119.72 79.59 124.33 83.13 123.98 87.79
  Q 123.75 90.86 123.78 92.43
  Q 123.78 93.01 123.21 93.01
  L 119.47 93.01
  A 0.48 0.48 0.0 0 1 118.99 92.46
  Q 120.08 85.00 115.38 79.41
  Q 114.89 78.82 115.64 78.94
  Z"
/>
<path fill="#ffffff" d="
  M 59.63 92.79
  A 0.12 0.12 0.0 0 1 59.51 92.91
  L 59.49 92.91
  A 4.47 1.66 90.0 0 1 57.83 88.44
  L 57.83 88.24
  A 4.47 1.66 -90.0 0 1 59.49 83.77
  L 59.51 83.77
  A 0.12 0.12 0.0 0 1 59.63 83.89
  L 59.63 92.79
  Z"
/>
<path fill="#ffffff" d="
  M 48.45 97.13
  Q 48.47 98.86 49.42 100.06
  A 0.32 0.32 0.0 0 1 49.13 100.57
  Q 44.69 100.11 40.77 101.42
  Q 40.15 101.63 40.15 100.97
  L 40.15 98.54
  Q 40.15 98.08 40.58 97.91
  Q 44.31 96.43 48.07 96.72
  Q 48.45 96.75 48.45 97.13
  Z"
/>
<path fill="#ffffff" d="
  M 58.88 110.75
  Q 54.32 108.84 51.80 108.87
  Q 43.94 108.95 40.96 108.81
  A 0.77 0.76 83.9 0 1 40.25 108.23
  Q 39.93 106.96 40.31 105.90
  Q 40.49 105.39 41.01 105.25
  Q 49.86 102.87 59.00 105.87
  A 0.89 0.88 -80.9 0 1 59.60 106.71
  L 59.60 110.27
  Q 59.60 111.06 58.88 110.75
  Z"
/>
<path fill="#ffffff" d="
  M 99.58 122.32
  Q 92.29 124.81 84.02 124.23
  Q 82.66 124.13 83.87 123.50
  Q 90.52 120.07 97.95 117.54
  Q 105.38 115.01 112.74 113.67
  Q 114.08 113.43 113.07 114.34
  Q 106.87 119.84 99.58 122.32
  Z"
/>
<path fill="#000000" d="
  M 38.82 130.72
  L 35.84 124.34
  A 5.74 5.74 0.0 0 1 41.08 116.17
  L 50.16 116.24
  A 5.74 5.74 0.0 0 1 55.85 121.87
  L 56.04 132.11
  A 5.74 5.74 0.0 0 1 47.26 137.09
  L 40.98 133.16
  A 5.74 5.74 0.0 0 1 38.82 130.72
  Z
  M 49.51 121.87
  Q 50.51 122.12 51.11 123.31
  L 51.40 123.46
  Q 51.53 123.52 51.67 123.49
  A 0.34 0.34 0.0 0 0 51.96 123.11
  Q 51.71 121.00 50.35 120.86
  Q 46.34 120.45 41.00 120.76
  A 1.09 1.08 -6.7 0 0 40.00 122.02
  Q 41.24 129.45 47.96 132.31
  Q 49.78 133.09 50.47 133.09
  A 0.84 0.84 0.0 0 0 51.30 132.25
  L 51.30 128.21
  Q 51.30 127.28 50.37 127.36
  C 48.34 127.53 45.45 125.00 46.96 122.83
  A 2.38 2.38 0.0 0 1 49.51 121.87
  Z"
/>
<path fill="#000000" d="
  M 118.86 131.94
  L 119.03 122.02
  A 5.87 5.87 0.0 0 1 124.84 116.25
  L 133.80 116.15
  A 5.87 5.87 0.0 0 1 139.19 124.49
  L 136.49 130.33
  A 5.87 5.87 0.0 0 1 134.36 132.78
  L 127.93 136.97
  A 5.87 5.87 0.0 0 1 118.86 131.94
  Z
  M 127.89 122.74
  A 1.69 1.69 0.0 0 1 128.27 124.70
  Q 126.92 127.58 124.64 127.35
  Q 123.68 127.25 123.68 128.22
  L 123.68 132.18
  Q 123.68 133.21 124.70 133.07
  Q 125.80 132.93 127.72 131.94
  Q 133.41 129.03 135.01 122.43
  A 1.45 1.44 -82.3 0 0 133.65 120.63
  Q 128.30 120.48 124.62 120.87
  A 1.29 1.28 -73.3 0 0 123.78 121.33
  Q 122.99 122.31 123.07 123.16
  A 0.35 0.35 0.0 0 0 123.69 123.34
  Q 125.72 120.70 127.89 122.74
  Z"
/>
<path fill="#ffffff" d="
  M 127.89 122.74
  Q 125.72 120.70 123.69 123.34
  A 0.35 0.35 0.0 0 1 123.07 123.16
  Q 122.99 122.31 123.78 121.33
  A 1.29 1.28 -73.3 0 1 124.62 120.87
  Q 128.30 120.48 133.65 120.63
  A 1.45 1.44 -82.3 0 1 135.01 122.43
  Q 133.41 129.03 127.72 131.94
  Q 125.80 132.93 124.70 133.07
  Q 123.68 133.21 123.68 132.18
  L 123.68 128.22
  Q 123.68 127.25 124.64 127.35
  Q 126.92 127.58 128.27 124.70
  A 1.69 1.69 0.0 0 0 127.89 122.74
  Z"
/>
<path fill="#ffffff" d="
  M 49.51 121.87
  A 2.38 2.38 0.0 0 0 46.96 122.83
  C 45.45 125.00 48.34 127.53 50.37 127.36
  Q 51.30 127.28 51.30 128.21
  L 51.30 132.25
  A 0.84 0.84 0.0 0 1 50.47 133.09
  Q 49.78 133.09 47.96 132.31
  Q 41.24 129.45 40.00 122.02
  A 1.09 1.08 -6.7 0 1 41.00 120.76
  Q 46.34 120.45 50.35 120.86
  Q 51.71 121.00 51.96 123.11
  A 0.34 0.34 0.0 0 1 51.67 123.49
  Q 51.53 123.52 51.40 123.46
  L 51.11 123.31
  Q 50.51 122.12 49.51 121.87
  Z"
/>
<path fill="#ffffff" d="
  M 87.50 128.40
  Q 92.28 128.39 93.54 128.23
  Q 103.02 127.07 110.96 121.90
  A 0.43 0.42 -16.7 0 1 111.62 122.25
  L 111.62 131.01
  A 1.95 1.95 0.0 0 1 109.67 132.96
  Q 109.03 132.96 87.51 133.00
  Q 65.98 133.04 65.34 133.04
  A 1.95 1.95 0.0 0 1 63.39 131.10
  L 63.36 122.34
  A 0.43 0.42 16.5 0 1 64.01 121.99
  Q 71.97 127.13 81.46 128.25
  Q 82.72 128.41 87.50 128.40
  Z
  M 69.8083 127.1284
  A 2.02 1.92 -35.8 0 0 67.0469 126.7528
  A 2.02 1.92 -35.8 0 0 66.5317 129.4916
  A 2.02 1.92 -35.8 0 0 69.2931 129.8672
  A 2.02 1.92 -35.8 0 0 69.8083 127.1284
  Z
  M 105.11 127.32
  L 105.28 129.57
  A 0.77 0.77 0.0 0 0 106.11 130.28
  L 106.52 130.25
  A 2.49 1.80 -4.3 0 0 108.87 128.27
  L 108.86 128.07
  A 2.49 1.80 -4.3 0 0 106.24 126.46
  L 105.82 126.50
  A 0.77 0.77 0.0 0 0 105.11 127.32
  Z"
/>
<ellipse fill="#000000" cx="0.00" cy="0.00" transform="translate(68.17,128.31) rotate(-35.8)" rx="2.02" ry="1.92"/>
<path fill="#000000" d="
  M 105.11 127.32
  A 0.77 0.77 0.0 0 1 105.82 126.50
  L 106.24 126.46
  A 2.49 1.80 -4.3 0 1 108.86 128.07
  L 108.87 128.27
  A 2.49 1.80 -4.3 0 1 106.52 130.25
  L 106.11 130.28
  A 0.77 0.77 0.0 0 1 105.28 129.57
  L 105.11 127.32
  Z"
/>
</svg>
