<?xml version="1.0" encoding="UTF-8" standalone="no"?>
<!DOCTYPE svg PUBLIC "-//W3C//DTD SVG 1.1//EN" "http://www.w3.org/Graphics/SVG/1.1/DTD/svg11.dtd">
<svg xmlns="http://www.w3.org/2000/svg" version="1.1" viewBox="0.00 0.00 96.00 133.00" width="40" height="40">
<g stroke-width="2.00" fill="none" stroke-linecap="butt">
<path stroke="#a6a6a6" vector-effect="non-scaling-stroke" d="
  M 11.55 117.37
  Q 9.88 117.60 8.93 119.16
  C 6.78 122.68 9.25 126.39 13.25 126.39
  Q 57.53 126.32 82.29 126.34
  C 84.31 126.35 86.64 125.72 87.35 123.83
  Q 89.17 119.05 84.49 117.32
  Q 84.10 117.18 84.09 116.66
  Q 84.09 116.18 84.09 107.39
  Q 84.10 101.24 83.42 98.19
  Q 81.26 88.52 73.88 81.67
  Q 68.96 77.11 65.56 74.61
  Q 64.66 73.95 63.84 72.60
  C 62.68 70.71 60.06 69.48 59.59 67.52
  C 58.78 64.18 59.56 62.53 62.16 60.38
  Q 73.03 51.43 75.15 49.41
  Q 84.91 40.11 85.15 26.51
  Q 85.33 15.97 85.33 14.54
  Q 85.33 13.99 85.86 13.85
  C 86.76 13.63 87.51 13.33 88.14 12.51
  Q 90.78 9.05 87.69 5.95
  Q 87.45 5.71 86.88 5.46
  C 86.10 5.12 85.57 4.88 84.62 4.87
  Q 35.48 4.82 12.77 4.89
  Q 9.86 4.90 8.88 7.02
  Q 6.61 11.94 11.33 13.85
  Q 11.79 14.03 11.79 14.52
  Q 11.80 18.00 11.76 24.72
  Q 11.74 30.96 12.90 34.77
  Q 15.69 43.90 22.15 49.77
  Q 24.04 51.49 35.38 60.93
  Q 37.12 62.37 37.67 63.61
  Q 38.53 65.54 37.86 67.42
  Q 37.28 69.01 34.64 71.15
  Q 32.93 72.52 24.89 79.11
  Q 15.54 86.78 12.83 97.07
  Q 11.87 100.70 11.88 106.97
  Q 11.88 108.15 11.92 116.95
  Q 11.92 117.32 11.55 117.37"
/>
<path stroke="#a6a6a6" vector-effect="non-scaling-stroke" d="
  M 54.24 69.40
  Q 53.70 63.94 54.23 62.25
  Q 55.07 59.55 59.23 56.85
  Q 59.65 56.58 59.87 56.14
  C 60.16 55.55 60.24 55.20 60.79 54.75
  Q 65.67 50.78 70.42 46.68
  Q 76.09 41.80 78.66 34.71
  Q 80.01 31.00 80.03 24.75
  Q 80.05 18.33 79.93 14.51
  Q 79.91 14.04 79.45 14.04
  L 17.70 14.04
  Q 17.12 14.04 17.12 14.62
  Q 16.98 27.00 17.26 29.87
  Q 18.09 38.32 25.61 45.79
  C 28.38 48.53 33.79 52.13 37.92 56.48
  Q 41.04 59.76 41.28 60.05
  Q 42.04 60.98 42.67 62.01
  Q 42.95 62.47 42.98 63.94
  Q 43.05 66.50 42.97 69.20
  Q 42.96 69.70 42.67 70.11
  Q 40.65 72.91 39.28 74.03
  Q 27.61 83.63 25.30 85.79
  Q 18.58 92.05 17.25 101.99
  Q 16.83 105.13 17.31 116.69
  Q 17.33 117.15 17.79 117.15
  L 78.20 117.15
  Q 78.66 117.15 78.67 116.69
  Q 79.04 103.68 78.72 101.54
  C 76.96 90.04 69.67 84.44 60.59 77.27
  Q 58.74 75.82 57.61 73.99
  Q 57.27 73.44 54.68 70.43
  Q 54.30 69.99 54.24 69.40"
/>
<path stroke="#a6a6a6" vector-effect="non-scaling-stroke" d="
  M 46.41 62.06
  C 45.93 63.34 46.77 63.80 46.89 64.72
  Q 47.87 72.48 42.89 76.62
  Q 35.85 82.46 28.86 88.36
  Q 23.59 92.81 21.75 101.05
  Q 21.19 103.59 21.65 112.31
  Q 21.67 112.71 22.07 112.71
  L 73.96 112.71
  Q 74.42 112.71 74.43 112.25
  Q 74.71 104.79 74.48 102.74
  Q 73.50 93.95 66.70 88.05
  Q 61.17 83.26 58.65 81.24
  C 57.80 80.56 57.85 79.44 56.83 78.71
  Q 53.14 76.03 51.33 72.95
  Q 49.36 69.60 50.16 65.34
  Q 50.24 64.91 50.81 60.54
  Q 51.33 56.60 54.29 54.40
  Q 57.78 51.81 57.87 51.73
  Q 61.44 48.47 65.94 44.71
  C 69.70 41.58 72.00 38.83 73.96 34.72
  A 0.31 0.31 0.0 0 0 73.68 34.28
  L 23.27 34.28
  A 0.31 0.31 0.0 0 0 22.99 34.72
  C 25.90 41.18 30.87 44.74 36.78 49.64
  Q 37.12 49.92 39.56 52.65
  Q 40.15 53.32 42.02 54.60
  Q 44.63 56.41 46.40 61.14
  Q 46.58 61.60 46.41 62.06"
/>
<path stroke="#a6a6a6" vector-effect="non-scaling-stroke" d="
  M 34.63 90.40
  Q 31.62 93.33 29.59 97.10
  A 1.42 1.39 -46.7 0 0 29.62 98.49
  Q 30.39 99.75 31.77 99.31
  Q 32.27 99.16 32.79 98.25
  Q 34.56 95.19 36.99 92.82
  Q 39.42 90.46 42.53 88.77
  Q 43.45 88.28 43.61 87.78
  Q 44.09 86.41 42.85 85.61
  A 1.42 1.39 -41.8 0 0 41.46 85.54
  Q 37.64 87.47 34.63 90.40"
/>
<path stroke="#a6a6a6" vector-effect="non-scaling-stroke" d="
  M 58.43 92.28
  C 61.00 94.85 61.85 96.09 63.46 98.61
  Q 64.26 99.88 65.62 99.23
  Q 65.82 99.14 65.95 98.99
  A 1.89 1.30 -41.3 0 0 66.40 97.20
  Q 63.77 91.87 58.56 87.97
  Q 58.01 87.57 58.01 88.25
  L 58.01 91.28
  A 1.40 1.39 -68.0 0 0 58.43 92.28"
/>
</g>
<path fill="#ffffff" fill-opacity="0" d="
  M 96.00 0.00
  L 96.00 133.00
  L 0.00 133.00
  L 0.00 0.00
  L 96.00 0.00
  Z
  M 11.55 117.37
  Q 9.88 117.60 8.93 119.16
  C 6.78 122.68 9.25 126.39 13.25 126.39
  Q 57.53 126.32 82.29 126.34
  C 84.31 126.35 86.64 125.72 87.35 123.83
  Q 89.17 119.05 84.49 117.32
  Q 84.10 117.18 84.09 116.66
  Q 84.09 116.18 84.09 107.39
  Q 84.10 101.24 83.42 98.19
  Q 81.26 88.52 73.88 81.67
  Q 68.96 77.11 65.56 74.61
  Q 64.66 73.95 63.84 72.60
  C 62.68 70.71 60.06 69.48 59.59 67.52
  C 58.78 64.18 59.56 62.53 62.16 60.38
  Q 73.03 51.43 75.15 49.41
  Q 84.91 40.11 85.15 26.51
  Q 85.33 15.97 85.33 14.54
  Q 85.33 13.99 85.86 13.85
  C 86.76 13.63 87.51 13.33 88.14 12.51
  Q 90.78 9.05 87.69 5.95
  Q 87.45 5.71 86.88 5.46
  C 86.10 5.12 85.57 4.88 84.62 4.87
  Q 35.48 4.82 12.77 4.89
  Q 9.86 4.90 8.88 7.02
  Q 6.61 11.94 11.33 13.85
  Q 11.79 14.03 11.79 14.52
  Q 11.80 18.00 11.76 24.72
  Q 11.74 30.96 12.90 34.77
  Q 15.69 43.90 22.15 49.77
  Q 24.04 51.49 35.38 60.93
  Q 37.12 62.37 37.67 63.61
  Q 38.53 65.54 37.86 67.42
  Q 37.28 69.01 34.64 71.15
  Q 32.93 72.52 24.89 79.11
  Q 15.54 86.78 12.83 97.07
  Q 11.87 100.70 11.88 106.97
  Q 11.88 108.15 11.92 116.95
  Q 11.92 117.32 11.55 117.37
  Z"
/>
<path fill="#7B7B7B" d="
  M 11.55 117.37
  Q 11.92 117.32 11.92 116.95
  Q 11.88 108.15 11.88 106.97
  Q 11.87 100.70 12.83 97.07
  Q 15.54 86.78 24.89 79.11
  Q 32.93 72.52 34.64 71.15
  Q 37.28 69.01 37.86 67.42
  Q 38.53 65.54 37.67 63.61
  Q 37.12 62.37 35.38 60.93
  Q 24.04 51.49 22.15 49.77
  Q 15.69 43.90 12.90 34.77
  Q 11.74 30.96 11.76 24.72
  Q 11.80 18.00 11.79 14.52
  Q 11.79 14.03 11.33 13.85
  Q 6.61 11.94 8.88 7.02
  Q 9.86 4.90 12.77 4.89
  Q 35.48 4.82 84.62 4.87
  C 85.57 4.88 86.10 5.12 86.88 5.46
  Q 87.45 5.71 87.69 5.95
  Q 90.78 9.05 88.14 12.51
  C 87.51 13.33 86.76 13.63 85.86 13.85
  Q 85.33 13.99 85.33 14.54
  Q 85.33 15.97 85.15 26.51
  Q 84.91 40.11 75.15 49.41
  Q 73.03 51.43 62.16 60.38
  C 59.56 62.53 58.78 64.18 59.59 67.52
  C 60.06 69.48 62.68 70.71 63.84 72.60
  Q 64.66 73.95 65.56 74.61
  Q 68.96 77.11 73.88 81.67
  Q 81.26 88.52 83.42 98.19
  Q 84.10 101.24 84.09 107.39
  Q 84.09 116.18 84.09 116.66
  Q 84.10 117.18 84.49 117.32
  Q 89.17 119.05 87.35 123.83
  C 86.64 125.72 84.31 126.35 82.29 126.34
  Q 57.53 126.32 13.25 126.39
  C 9.25 126.39 6.78 122.68 8.93 119.16
  Q 9.88 117.60 11.55 117.37
  Z
  M 54.24 69.40
  Q 53.70 63.94 54.23 62.25
  Q 55.07 59.55 59.23 56.85
  Q 59.65 56.58 59.87 56.14
  C 60.16 55.55 60.24 55.20 60.79 54.75
  Q 65.67 50.78 70.42 46.68
  Q 76.09 41.80 78.66 34.71
  Q 80.01 31.00 80.03 24.75
  Q 80.05 18.33 79.93 14.51
  Q 79.91 14.04 79.45 14.04
  L 17.70 14.04
  Q 17.12 14.04 17.12 14.62
  Q 16.98 27.00 17.26 29.87
  Q 18.09 38.32 25.61 45.79
  C 28.38 48.53 33.79 52.13 37.92 56.48
  Q 41.04 59.76 41.28 60.05
  Q 42.04 60.98 42.67 62.01
  Q 42.95 62.47 42.98 63.94
  Q 43.05 66.50 42.97 69.20
  Q 42.96 69.70 42.67 70.11
  Q 40.65 72.91 39.28 74.03
  Q 27.61 83.63 25.30 85.79
  Q 18.58 92.05 17.25 101.99
  Q 16.83 105.13 17.31 116.69
  Q 17.33 117.15 17.79 117.15
  L 78.20 117.15
  Q 78.66 117.15 78.67 116.69
  Q 79.04 103.68 78.72 101.54
  C 76.96 90.04 69.67 84.44 60.59 77.27
  Q 58.74 75.82 57.61 73.99
  Q 57.27 73.44 54.68 70.43
  Q 54.30 69.99 54.24 69.40
  Z"
/>
<path fill="#ffffff" d="
  M 54.68 70.43
  Q 57.27 73.44 57.61 73.99
  Q 58.74 75.82 60.59 77.27
  C 69.67 84.44 76.96 90.04 78.72 101.54
  Q 79.04 103.68 78.67 116.69
  Q 78.66 117.15 78.20 117.15
  L 17.79 117.15
  Q 17.33 117.15 17.31 116.69
  Q 16.83 105.13 17.25 101.99
  Q 18.58 92.05 25.30 85.79
  Q 27.61 83.63 39.28 74.03
  Q 40.65 72.91 42.67 70.11
  Q 42.96 69.70 42.97 69.20
  Q 43.05 66.50 42.98 63.94
  Q 42.95 62.47 42.67 62.01
  Q 42.04 60.98 41.28 60.05
  Q 41.04 59.76 37.92 56.48
  C 33.79 52.13 28.38 48.53 25.61 45.79
  Q 18.09 38.32 17.26 29.87
  Q 16.98 27.00 17.12 14.62
  Q 17.12 14.04 17.70 14.04
  L 79.45 14.04
  Q 79.91 14.04 79.93 14.51
  Q 80.05 18.33 80.03 24.75
  Q 80.01 31.00 78.66 34.71
  Q 76.09 41.80 70.42 46.68
  Q 65.67 50.78 60.79 54.75
  C 60.24 55.20 60.16 55.55 59.87 56.14
  Q 59.65 56.58 59.23 56.85
  Q 55.07 59.55 54.23 62.25
  Q 53.70 63.94 54.24 69.40
  Q 54.30 69.99 54.68 70.43
  Z
  M 46.41 62.06
  C 45.93 63.34 46.77 63.80 46.89 64.72
  Q 47.87 72.48 42.89 76.62
  Q 35.85 82.46 28.86 88.36
  Q 23.59 92.81 21.75 101.05
  Q 21.19 103.59 21.65 112.31
  Q 21.67 112.71 22.07 112.71
  L 73.96 112.71
  Q 74.42 112.71 74.43 112.25
  Q 74.71 104.79 74.48 102.74
  Q 73.50 93.95 66.70 88.05
  Q 61.17 83.26 58.65 81.24
  C 57.80 80.56 57.85 79.44 56.83 78.71
  Q 53.14 76.03 51.33 72.95
  Q 49.36 69.60 50.16 65.34
  Q 50.24 64.91 50.81 60.54
  Q 51.33 56.60 54.29 54.40
  Q 57.78 51.81 57.87 51.73
  Q 61.44 48.47 65.94 44.71
  C 69.70 41.58 72.00 38.83 73.96 34.72
  A 0.31 0.31 0.0 0 0 73.68 34.28
  L 23.27 34.28
  A 0.31 0.31 0.0 0 0 22.99 34.72
  C 25.90 41.18 30.87 44.74 36.78 49.64
  Q 37.12 49.92 39.56 52.65
  Q 40.15 53.32 42.02 54.60
  Q 44.63 56.41 46.40 61.14
  Q 46.58 61.60 46.41 62.06
  Z"
/>
<path fill="#7B7B7B" d="
  M 46.40 61.14
  Q 44.63 56.41 42.02 54.60
  Q 40.15 53.32 39.56 52.65
  Q 37.12 49.92 36.78 49.64
  C 30.87 44.74 25.90 41.18 22.99 34.72
  A 0.31 0.31 0.0 0 1 23.27 34.28
  L 73.68 34.28
  A 0.31 0.31 0.0 0 1 73.96 34.72
  C 72.00 38.83 69.70 41.58 65.94 44.71
  Q 61.44 48.47 57.87 51.73
  Q 57.78 51.81 54.29 54.40
  Q 51.33 56.60 50.81 60.54
  Q 50.24 64.91 50.16 65.34
  Q 49.36 69.60 51.33 72.95
  Q 53.14 76.03 56.83 78.71
  C 57.85 79.44 57.80 80.56 58.65 81.24
  Q 61.17 83.26 66.70 88.05
  Q 73.50 93.95 74.48 102.74
  Q 74.71 104.79 74.43 112.25
  Q 74.42 112.71 73.96 112.71
  L 22.07 112.71
  Q 21.67 112.71 21.65 112.31
  Q 21.19 103.59 21.75 101.05
  Q 23.59 92.81 28.86 88.36
  Q 35.85 82.46 42.89 76.62
  Q 47.87 72.48 46.89 64.72
  C 46.77 63.80 45.93 63.34 46.41 62.06
  Q 46.58 61.60 46.40 61.14
  Z
  M 34.63 90.40
  Q 31.62 93.33 29.59 97.10
  A 1.42 1.39 -46.7 0 0 29.62 98.49
  Q 30.39 99.75 31.77 99.31
  Q 32.27 99.16 32.79 98.25
  Q 34.56 95.19 36.99 92.82
  Q 39.42 90.46 42.53 88.77
  Q 43.45 88.28 43.61 87.78
  Q 44.09 86.41 42.85 85.61
  A 1.42 1.39 -41.8 0 0 41.46 85.54
  Q 37.64 87.47 34.63 90.40
  Z
  M 58.43 92.28
  C 61.00 94.85 61.85 96.09 63.46 98.61
  Q 64.26 99.88 65.62 99.23
  Q 65.82 99.14 65.95 98.99
  A 1.89 1.30 -41.3 0 0 66.40 97.20
  Q 63.77 91.87 58.56 87.97
  Q 58.01 87.57 58.01 88.25
  L 58.01 91.28
  A 1.40 1.39 -68.0 0 0 58.43 92.28
  Z"
/>
<path fill="#ffffff" d="
  M 36.99 92.82
  Q 34.56 95.19 32.79 98.25
  Q 32.27 99.16 31.77 99.31
  Q 30.39 99.75 29.62 98.49
  A 1.42 1.39 -46.7 0 1 29.59 97.10
  Q 31.62 93.33 34.63 90.40
  Q 37.64 87.47 41.46 85.54
  A 1.42 1.39 -41.8 0 1 42.85 85.61
  Q 44.09 86.41 43.61 87.78
  Q 43.45 88.28 42.53 88.77
  Q 39.42 90.46 36.99 92.82
  Z"
/>
<path fill="#ffffff" d="
  M 63.46 98.61
  C 61.85 96.09 61.00 94.85 58.43 92.28
  A 1.40 1.39 -68.0 0 1 58.01 91.28
  L 58.01 88.25
  Q 58.01 87.57 58.56 87.97
  Q 63.77 91.87 66.40 97.20
  A 1.89 1.30 -41.3 0 1 65.95 98.99
  Q 65.82 99.14 65.62 99.23
  Q 64.26 99.88 63.46 98.61
  Z"
/>
</svg>
