<?xml version="1.0" encoding="UTF-8" standalone="no"?>
<!DOCTYPE svg PUBLIC "-//W3C//DTD SVG 1.1//EN" "http://www.w3.org/Graphics/SVG/1.1/DTD/svg11.dtd">
<svg xmlns="http://www.w3.org/2000/svg" version="1.1" viewBox="0.00 0.00 581.00 365.00">
<g stroke-width="2.00" fill="none" stroke-linecap="butt">
<path stroke="#808080" vector-effect="non-scaling-stroke" d="
  M 245.75 40.60
  Q 236.62 48.74 232.49 58.75
  Q 227.26 71.44 225.84 86.03
  Q 224.64 98.25 224.52 102.77
  Q 224.05 120.13 227.16 135.08
  C 229.71 147.34 236.62 158.47 248.48 162.54
  Q 259.73 166.41 272.59 163.74
  Q 273.83 163.48 274.94 163.72
  C 279.14 164.63 284.51 164.12 290.51 163.17
  C 302.26 161.31 311.64 155.02 318.02 144.94
  C 323.90 135.66 326.42 126.37 327.96 115.73
  Q 329.08 107.95 328.44 99.73
  Q 326.42 74.13 309.14 55.30
  Q 306.14 52.03 302.61 49.44
  Q 298.16 46.17 295.13 44.35
  Q 285.32 38.45 273.15 36.71
  Q 265.70 35.64 249.96 36.38
  Q 248.10 36.47 247.26 37.27
  Q 246.34 38.15 246.19 39.73
  Q 246.14 40.25 245.75 40.60"
/>
<path stroke="#808080" vector-effect="non-scaling-stroke" d="
  M 370.89 40.63
  Q 361.43 48.60 357.13 59.60
  Q 351.44 74.16 350.25 90.52
  Q 348.48 115.02 351.33 131.34
  Q 353.46 143.59 358.87 151.29
  Q 364.08 158.70 371.16 161.64
  Q 382.99 166.53 396.34 163.94
  Q 398.42 163.54 400.85 163.88
  Q 403.87 164.31 409.38 164.00
  Q 431.62 162.72 443.14 144.66
  C 451.96 130.83 454.36 113.86 453.03 97.80
  Q 452.15 87.19 448.74 78.50
  Q 444.08 66.65 434.63 55.74
  Q 431.60 52.24 427.42 49.29
  Q 421.68 45.23 419.28 43.88
  Q 404.69 35.70 387.93 36.05
  C 382.08 36.18 378.18 36.14 373.91 36.37
  A 1.78 1.71 -63.3 0 0 373.01 36.69
  Q 371.84 37.55 371.38 39.81
  Q 371.27 40.30 370.89 40.63"
/>
<path stroke="#808080" vector-effect="non-scaling-stroke" d="
  M 137.06 89.58
  Q 136.29 110.40 139.59 132.74
  Q 140.89 141.56 143.72 150.33
  C 146.53 159.02 151.94 168.64 162.81 161.27
  Q 163.75 160.63 166.19 160.76
  Q 176.46 161.30 183.89 155.87
  C 191.40 150.39 196.48 140.05 198.99 130.76
  Q 207.26 100.18 199.16 70.70
  C 196.33 60.36 191.24 50.33 182.56 43.68
  C 174.62 37.59 163.95 36.69 154.46 38.17
  Q 149.31 38.97 143.27 42.15
  Q 134.58 46.72 129.77 51.01
  Q 123.97 56.17 118.96 64.46
  Q 116.29 68.88 115.85 72.78
  C 115.17 78.81 116.59 83.85 121.56 87.40
  Q 123.45 88.76 127.12 88.85
  Q 134.63 89.03 136.52 89.02
  Q 137.08 89.02 137.06 89.58"
/>
<path stroke="#808080" vector-effect="non-scaling-stroke" d="
  M 110.41 212.59
  Q 111.37 211.16 111.63 209.16
  C 113.43 195.07 105.02 187.59 92.03 186.09
  Q 70.68 183.62 55.00 197.45
  Q 35.95 214.25 32.45 240.65
  Q 32.14 242.99 32.13 247.39
  C 32.12 252.41 31.87 259.03 32.51 264.23
  Q 35.09 285.48 48.31 302.46
  Q 60.69 318.36 79.60 324.27
  Q 86.55 326.44 90.96 326.73
  C 102.72 327.51 112.51 320.73 119.90 311.37
  Q 126.84 302.57 128.61 300.37
  C 137.28 289.56 141.32 276.90 132.83 264.80
  C 128.58 258.74 119.22 257.33 112.07 257.11
  Q 110.07 257.05 93.35 256.70
  C 87.26 256.57 80.86 255.87 79.87 249.20
  C 78.74 241.54 80.99 237.45 88.62 235.62
  Q 93.88 234.36 99.86 232.61
  Q 105.58 230.93 107.84 227.87
  Q 111.86 222.41 110.23 213.46
  Q 110.15 212.99 110.41 212.59"
/>
<path stroke="#808080" vector-effect="non-scaling-stroke" d="
  M 301.14 235.38
  Q 300.68 244.57 300.56 256.28
  Q 300.50 262.32 303.06 282.50
  Q 304.18 291.29 306.29 299.49
  Q 308.13 306.62 311.54 312.53
  Q 315.63 319.64 323.51 319.47
  C 326.89 319.40 329.87 317.23 333.19 318.08
  Q 337.11 319.07 341.49 318.49
  C 347.53 317.68 353.76 316.56 357.02 312.02
  Q 362.27 304.73 363.68 294.70
  Q 366.13 277.26 364.35 259.47
  C 364.15 257.50 364.11 254.63 365.81 252.90
  Q 368.46 250.20 371.39 249.13
  Q 381.55 245.44 386.29 243.32
  Q 396.03 238.98 397.13 228.29
  Q 397.87 221.03 397.65 216.83
  Q 396.86 201.99 384.90 195.36
  C 380.81 193.09 376.12 192.27 371.16 191.62
  Q 339.63 187.48 308.32 194.79
  C 295.84 197.70 285.30 201.37 278.30 212.60
  C 276.82 214.99 277.10 216.52 278.32 218.79
  Q 278.56 219.22 278.41 219.69
  Q 276.29 226.61 280.28 230.69
  C 284.31 234.81 294.44 234.79 299.98 234.28
  A 1.06 1.05 -1.4 0 1 301.14 235.38"
/>
<path stroke="#808080" vector-effect="non-scaling-stroke" d="
  M 423.82 249.64
  Q 421.73 248.85 417.43 246.85
  Q 405.01 241.05 398.56 251.12
  C 396.68 254.07 395.60 258.22 395.65 261.52
  C 395.79 271.91 397.92 282.77 402.78 291.79
  Q 417.47 318.99 450.14 322.40
  A 2.04 1.98 -23.2 0 1 451.08 322.76
  Q 460.84 329.73 472.78 329.82
  Q 482.72 329.89 492.83 326.07
  C 504.47 321.67 514.55 311.81 516.12 299.43
  C 517.71 286.95 515.56 271.97 509.61 260.09
  C 507.57 256.04 504.49 252.71 501.15 249.72
  A 0.81 0.81 0.0 0 1 501.02 248.66
  Q 503.63 244.84 504.85 242.89
  C 508.61 236.83 510.07 232.11 509.35 224.83
  Q 507.92 210.34 497.17 201.41
  C 490.30 195.71 480.67 192.53 471.51 192.19
  Q 464.69 191.94 458.17 192.58
  Q 457.66 192.63 457.41 193.07
  L 456.34 194.91
  Q 456.04 195.43 455.45 195.36
  Q 447.36 194.33 439.32 195.59
  C 430.05 197.03 421.19 202.64 417.34 211.28
  Q 415.24 215.97 415.25 222.45
  C 415.26 232.49 419.04 240.59 424.08 249.34
  Q 424.37 249.84 423.82 249.64"
/>
<path stroke="#808080" vector-effect="non-scaling-stroke" d="
  M 236.88 202.38
  A 0.38 0.38 0.0 0 1 236.33 202.42
  C 225.52 192.72 209.16 193.57 196.49 198.74
  Q 162.19 212.76 149.84 248.65
  Q 146.38 258.70 146.09 269.75
  Q 145.85 278.70 145.82 279.87
  Q 145.67 284.98 146.16 287.62
  Q 146.72 290.67 147.75 295.28
  C 150.28 306.61 159.03 314.87 169.75 319.04
  Q 181.74 323.72 194.37 323.73
  Q 195.82 323.74 206.21 323.61
  Q 212.92 323.53 217.85 322.50
  Q 233.80 319.19 245.82 307.72
  A 2.12 2.10 -61.0 0 1 247.70 307.17
  Q 256.43 308.89 264.82 307.46
  Q 267.87 306.94 268.92 305.35
  Q 270.39 303.12 270.62 300.63
  Q 271.35 292.68 271.28 283.50
  Q 271.12 264.70 270.65 245.91
  Q 270.43 237.27 269.68 228.76
  Q 268.58 216.23 268.11 211.62
  C 267.43 205.07 266.20 200.42 258.96 199.05
  Q 250.74 197.49 242.74 198.89
  C 240.16 199.34 238.53 200.39 236.88 202.38"
/>
<path stroke="#808080" vector-effect="non-scaling-stroke" d="
  M 286.43 77.37
  C 286.87 76.70 287.04 75.39 286.69 74.50
  C 282.84 64.70 277.24 55.11 269.22 48.26
  Q 263.48 43.36 256.22 43.04
  Q 254.36 42.96 252.60 44.10
  C 246.35 48.17 241.74 53.75 238.68 61.10
  Q 233.21 74.26 232.22 86.64
  Q 231.09 100.84 231.02 105.06
  Q 230.87 113.02 232.06 125.49
  C 232.99 135.29 236.85 148.54 245.82 154.03
  C 253.15 158.52 265.00 159.98 272.91 156.40
  Q 276.90 154.59 280.24 150.99
  C 288.29 142.31 292.69 128.96 293.71 117.50
  Q 294.80 105.29 292.47 93.58
  C 291.55 88.97 290.30 82.53 287.89 79.94
  Q 287.01 78.99 286.47 78.28
  A 0.82 0.77 44.2 0 1 286.43 77.37"
/>
<path stroke="#808080" vector-effect="non-scaling-stroke" d="
  M 291.19 50.41
  Q 292.43 50.50 291.37 49.84
  Q 284.23 45.40 274.72 43.47
  Q 274.13 43.36 274.51 43.82
  C 276.91 46.81 278.60 49.10 281.08 49.42
  Q 286.15 50.06 291.19 50.41"
/>
<path stroke="#808080" vector-effect="non-scaling-stroke" d="
  M 294.01 74.26
  A 0.31 0.31 0.0 0 0 294.28 74.43
  L 315.16 74.69
  A 0.31 0.31 0.0 0 0 315.41 74.19
  L 302.75 57.49
  A 0.31 0.31 0.0 0 0 302.52 57.37
  L 285.77 56.34
  A 0.31 0.31 0.0 0 0 285.47 56.79
  L 294.01 74.26"
/>
<path stroke="#808080" vector-effect="non-scaling-stroke" d="
  M 316.45 79.17
  C 315.93 80.98 312.72 81.12 310.74 81.11
  Q 299.62 81.09 296.79 81.13
  Q 296.25 81.14 296.39 81.67
  Q 298.28 88.76 299.23 94.92
  Q 299.31 95.46 299.85 95.46
  L 319.50 95.46
  Q 321.35 95.46 321.01 93.64
  Q 319.42 84.98 317.17 79.14
  Q 316.76 78.08 316.45 79.17"
/>
<path stroke="#808080" vector-effect="non-scaling-stroke" d="
  M 319.57 119.34
  A 1.35 1.35 0.0 0 0 320.92 118.14
  L 322.56 103.38
  A 1.35 1.35 0.0 0 0 321.22 101.88
  L 301.69 101.86
  A 1.35 1.35 0.0 0 0 300.33 103.22
  L 300.39 117.87
  A 1.35 1.35 0.0 0 0 301.73 119.22
  L 319.57 119.34"
/>
<path stroke="#808080" vector-effect="non-scaling-stroke" d="
  M 311.44 142.17
  A 0.53 0.53 0.0 0 0 312.23 142.06
  Q 317.17 134.31 319.24 126.21
  Q 319.39 125.63 318.79 125.67
  Q 309.83 126.30 299.67 125.40
  A 0.68 0.67 7.9 0 0 298.94 125.95
  Q 297.81 132.33 295.40 138.42
  Q 295.16 139.04 295.82 139.10
  Q 302.45 139.73 307.01 140.07
  Q 309.16 140.22 311.44 142.17"
/>
<path stroke="#808080" vector-effect="non-scaling-stroke" d="
  M 283.43 157.54
  A 0.33 0.33 0.0 0 0 283.77 158.06
  L 298.26 154.74
  A 0.33 0.33 0.0 0 0 298.39 154.68
  L 308.21 147.40
  A 0.33 0.33 0.0 0 0 308.05 146.81
  L 292.83 145.09
  A 0.33 0.33 0.0 0 0 292.53 145.22
  L 283.43 157.54"
/>
<path stroke="#808080" vector-effect="non-scaling-stroke" d="
  M 411.61 77.80
  Q 411.60 77.77 411.68 76.35
  Q 411.75 75.17 411.45 74.32
  Q 407.16 62.23 397.74 51.53
  Q 391.66 44.63 383.37 43.28
  Q 380.22 42.77 378.96 43.44
  C 370.41 47.94 365.04 56.17 362.02 65.04
  Q 358.16 76.35 356.92 88.56
  C 355.61 101.46 355.50 116.01 357.58 129.37
  C 359.32 140.56 364.51 152.49 375.44 156.31
  C 381.55 158.45 390.96 159.45 397.12 156.76
  C 406.07 152.84 411.98 142.92 415.00 134.02
  Q 423.63 108.63 414.22 82.08
  C 413.64 80.44 411.80 79.32 411.61 77.80"
/>
<path stroke="#808080" vector-effect="non-scaling-stroke" d="
  M 400.90 43.70
  Q 399.82 43.28 399.53 43.30
  Q 398.86 43.34 399.31 43.83
  Q 401.58 46.26 402.90 47.65
  Q 404.36 49.17 406.81 49.51
  Q 413.59 50.45 416.51 50.48
  Q 417.07 50.49 416.60 50.18
  Q 410.01 45.80 402.17 44.12
  Q 401.78 44.04 400.90 43.70"
/>
<path stroke="#808080" vector-effect="non-scaling-stroke" d="
  M 418.95 74.22
  A 0.33 0.33 0.0 0 0 419.24 74.40
  L 440.04 74.71
  A 0.33 0.33 0.0 0 0 440.31 74.18
  L 427.80 57.51
  A 0.33 0.33 0.0 0 0 427.56 57.38
  L 410.77 56.37
  A 0.33 0.33 0.0 0 0 410.46 56.85
  L 418.95 74.22"
/>
<path stroke="#808080" vector-effect="non-scaling-stroke" d="
  M 438.31 80.98
  Q 429.63 81.24 421.62 81.06
  A 0.53 0.53 0.0 0 0 421.11 81.75
  Q 423.27 88.19 424.37 95.17
  A 0.37 0.36 85.4 0 0 424.73 95.48
  L 445.47 95.48
  Q 446.23 95.48 446.12 94.73
  Q 445.12 87.57 442.43 79.92
  A 0.97 0.97 0.0 0 0 440.85 79.54
  C 440.12 80.24 439.23 80.95 438.31 80.98"
/>
<path stroke="#808080" vector-effect="non-scaling-stroke" d="
  M 446.28 101.92
  L 425.76 101.88
  A 0.29 0.29 0.0 0 0 425.46 102.17
  L 425.44 117.26
  A 4.28 2.10 0.1 0 0 429.71 119.37
  L 442.25 119.39
  A 4.28 2.10 0.1 0 0 446.54 117.30
  L 446.56 102.21
  A 0.29 0.29 0.0 0 0 446.28 101.92"
/>
<path stroke="#808080" vector-effect="non-scaling-stroke" d="
  M 420.30 139.05
  A 0.08 0.08 0.0 0 0 420.38 139.16
  Q 425.81 139.40 432.56 140.19
  Q 434.66 140.43 435.53 141.92
  Q 436.28 143.20 437.10 141.96
  Q 442.27 134.14 444.23 126.30
  Q 444.37 125.76 443.81 125.79
  Q 434.27 126.30 424.89 125.40
  Q 424.48 125.36 424.36 125.76
  L 420.30 139.05"
/>
<path stroke="#808080" vector-effect="non-scaling-stroke" d="
  M 408.30 157.41
  A 0.35 0.35 0.0 0 0 408.65 157.96
  L 422.26 155.14
  A 0.35 0.35 0.0 0 0 422.39 155.09
  L 433.53 147.50
  A 0.35 0.35 0.0 0 0 433.37 146.86
  L 417.82 145.09
  A 0.35 0.35 0.0 0 0 417.50 145.23
  L 408.30 157.41"
/>
<path stroke="#808080" vector-effect="non-scaling-stroke" d="
  M 143.78 84.07
  Q 143.30 99.02 144.05 113.23
  Q 144.62 123.95 145.95 131.42
  Q 147.70 141.18 150.24 149.26
  Q 151.42 153.00 153.88 156.36
  Q 154.66 157.43 156.00 157.29
  C 162.20 156.64 164.99 146.98 166.20 141.99
  Q 170.18 125.54 172.27 106.11
  Q 173.27 96.79 173.36 89.50
  Q 173.49 78.90 173.09 72.83
  Q 172.65 66.41 170.70 58.81
  C 169.53 54.25 166.05 46.92 160.94 45.58
  Q 157.09 44.56 153.97 45.21
  Q 132.63 49.66 123.93 69.63
  Q 122.32 73.34 122.67 75.38
  Q 123.25 78.80 125.58 81.05
  Q 127.53 82.93 132.96 83.19
  Q 137.66 83.42 143.04 83.33
  A 0.72 0.72 0.0 0 1 143.78 84.07"
/>
<path stroke="#808080" vector-effect="non-scaling-stroke" d="
  M 184.20 54.60
  Q 179.06 47.89 172.13 45.34
  Q 171.54 45.12 171.84 45.68
  Q 173.22 48.23 176.37 54.12
  Q 176.83 54.97 179.32 55.20
  Q 179.81 55.25 180.31 55.27
  Q 183.90 55.41 184.13 55.25
  Q 184.51 55.01 184.20 54.60"
/>
<path stroke="#808080" vector-effect="non-scaling-stroke" d="
  M 180.01 75.84
  A 0.30 0.30 0.0 0 0 180.34 76.11
  L 193.32 74.67
  A 0.30 0.30 0.0 0 0 193.57 74.27
  L 188.91 61.75
  A 0.30 0.30 0.0 0 0 188.63 61.55
  L 178.70 61.57
  A 0.30 0.30 0.0 0 0 178.40 61.90
  L 180.01 75.84"
/>
<path stroke="#808080" vector-effect="non-scaling-stroke" d="
  M 179.96 82.71
  A 0.31 0.31 0.0 0 0 179.68 83.02
  L 179.71 94.40
  A 0.31 0.31 0.0 0 0 180.03 94.71
  L 196.32 94.40
  A 0.31 0.31 0.0 0 0 196.62 94.05
  L 195.14 81.41
  A 0.31 0.31 0.0 0 0 194.80 81.14
  L 179.96 82.71"
/>
<path stroke="#808080" vector-effect="non-scaling-stroke" d="
  M 195.46 112.35
  A 0.64 0.64 0.0 0 0 196.11 111.75
  L 196.71 101.48
  A 0.64 0.64 0.0 0 0 196.05 100.80
  L 180.02 101.22
  A 0.64 0.64 0.0 0 0 179.40 101.77
  L 178.14 111.42
  A 0.64 0.64 0.0 0 0 178.77 112.14
  L 195.46 112.35"
/>
<path stroke="#808080" vector-effect="non-scaling-stroke" d="
  M 177.61 118.63
  A 0.30 0.30 0.0 0 0 177.31 118.89
  L 175.90 128.21
  A 0.30 0.30 0.0 0 0 176.16 128.56
  L 191.87 130.48
  A 0.30 0.30 0.0 0 0 192.20 130.26
  L 195.25 119.09
  A 0.30 0.30 0.0 0 0 194.96 118.71
  L 177.61 118.63"
/>
<path stroke="#808080" vector-effect="non-scaling-stroke" d="
  M 186.80 142.38
  A 0.34 0.34 0.0 0 0 187.14 142.20
  L 189.81 137.24
  A 0.34 0.34 0.0 0 0 189.55 136.75
  L 175.07 134.83
  A 0.34 0.34 0.0 0 0 174.70 135.06
  L 172.93 140.57
  A 0.34 0.34 0.0 0 0 173.22 141.01
  L 186.80 142.38"
/>
<path stroke="#808080" vector-effect="non-scaling-stroke" d="
  M 176.37 152.96
  A 0.33 0.33 0.0 0 0 176.48 152.92
  L 182.02 149.25
  A 0.33 0.33 0.0 0 0 181.89 148.65
  L 171.93 146.93
  A 0.33 0.33 0.0 0 0 171.56 147.14
  L 169.12 154.11
  A 0.33 0.33 0.0 0 0 169.50 154.54
  L 176.37 152.96"
/>
<path stroke="#808080" vector-effect="non-scaling-stroke" d="
  M 255.61 131.09
  L 256.01 135.31
  Q 256.30 138.31 259.18 138.51
  Q 259.27 138.52 259.31 138.52
  Q 262.29 138.77 262.28 135.83
  Q 262.22 127.01 262.14 113.25
  C 262.08 100.43 261.07 84.30 261.39 70.47
  Q 261.43 68.43 261.07 67.82
  C 259.38 64.98 257.05 61.83 253.56 64.80
  Q 252.59 65.63 252.54 67.53
  Q 251.81 97.15 252.36 126.54
  Q 252.42 129.42 255.08 130.37
  Q 255.55 130.53 255.61 131.09"
/>
<path stroke="#808080" vector-effect="non-scaling-stroke" d="
  M 380.72 131.37
  Q 380.68 135.18 381.41 136.93
  C 382.24 138.90 385.28 139.02 386.68 137.75
  Q 387.44 137.06 387.38 135.08
  Q 387.21 129.40 387.11 112.99
  Q 387.06 105.45 386.54 93.04
  Q 385.95 79.07 386.28 71.20
  Q 386.41 68.26 385.60 66.93
  C 382.92 62.55 378.57 62.09 377.55 68.03
  Q 376.73 72.82 376.71 79.26
  Q 376.64 103.63 376.72 125.93
  C 376.73 128.55 378.23 129.39 380.25 130.54
  Q 380.72 130.82 380.72 131.37"
/>
<path stroke="#808080" vector-effect="non-scaling-stroke" d="
  M 92.71 196.98
  C 94.53 197.80 94.63 199.61 96.03 200.32
  Q 100.19 202.43 103.86 205.08
  A 0.53 0.52 14.1 0 0 104.69 204.59
  Q 103.47 195.81 94.70 194.08
  Q 87.94 192.75 86.55 193.11
  Q 86.05 193.25 86.49 193.53
  Q 89.83 195.68 92.71 196.98"
/>
<path stroke="#808080" vector-effect="non-scaling-stroke" d="
  M 69.47 197.02
  L 82.87 201.90
  A 0.06 0.06 0.0 0 0 82.94 201.87
  L 82.95 201.85
  A 6.59 2.80 20.0 0 0 77.72 196.96
  L 76.59 196.55
  A 6.59 2.80 20.0 0 0 69.44 196.93
  L 69.43 196.95
  A 0.06 0.06 0.0 0 0 69.47 197.02"
/>
<path stroke="#808080" vector-effect="non-scaling-stroke" d="
  M 67.08 210.33
  A 0.31 0.31 0.0 0 0 67.31 210.26
  L 72.06 206.37
  A 0.31 0.31 0.0 0 0 71.95 205.84
  L 60.82 202.34
  A 0.31 0.31 0.0 0 0 60.52 202.42
  L 54.48 208.15
  A 0.31 0.31 0.0 0 0 54.65 208.69
  L 67.08 210.33"
/>
<path stroke="#808080" vector-effect="non-scaling-stroke" d="
  M 73.76 254.41
  C 70.63 246.40 71.27 238.38 78.06 232.54
  Q 80.63 230.33 88.10 228.18
  Q 96.08 225.88 98.76 225.28
  Q 102.06 224.54 102.60 222.08
  C 103.06 219.99 103.39 217.69 102.43 215.65
  Q 99.67 209.80 94.63 207.83
  Q 90.63 206.26 84.63 208.33
  Q 74.61 211.80 70.24 218.69
  Q 62.74 230.52 59.72 245.39
  Q 57.68 255.44 59.55 265.34
  C 62.77 282.36 74.58 295.25 90.42 301.56
  Q 102.32 306.30 112.80 300.11
  C 121.42 295.02 129.64 287.84 129.44 277.57
  C 129.36 273.62 128.42 269.41 125.18 267.55
  Q 120.18 264.67 113.75 264.55
  Q 93.80 264.20 92.79 264.17
  C 85.66 263.96 76.79 262.15 73.76 254.41"
/>
<path stroke="#808080" vector-effect="non-scaling-stroke" d="
  M 49.25 215.45
  A 0.49 0.49 0.0 0 0 48.76 215.70
  L 45.08 222.46
  A 0.49 0.49 0.0 0 0 45.49 223.19
  L 58.74 223.83
  A 0.49 0.49 0.0 0 0 59.21 223.55
  L 61.83 217.71
  A 0.49 0.49 0.0 0 0 61.44 217.03
  L 49.25 215.45"
/>
<path stroke="#808080" vector-effect="non-scaling-stroke" d="
  M 52.38 242.74
  A 0.40 0.40 0.0 0 0 52.81 242.45
  L 55.75 231.50
  A 0.40 0.40 0.0 0 0 55.39 231.00
  L 42.39 229.91
  A 0.40 0.40 0.0 0 0 41.97 230.22
  L 39.64 240.96
  A 0.40 0.40 0.0 0 0 39.99 241.45
  L 52.38 242.74"
/>
<path stroke="#808080" vector-effect="non-scaling-stroke" d="
  M 51.56 250.08
  A 0.32 0.32 0.0 0 0 51.27 249.77
  L 39.02 248.72
  A 0.32 0.32 0.0 0 0 38.67 249.07
  L 40.17 267.58
  A 0.32 0.32 0.0 0 0 40.53 267.88
  L 51.48 266.71
  A 0.32 0.32 0.0 0 0 51.77 266.39
  L 51.56 250.08"
/>
<path stroke="#808080" vector-effect="non-scaling-stroke" d="
  M 63.79 292.02
  A 0.28 0.27 -30.2 0 0 63.91 291.59
  Q 57.72 283.85 54.43 274.81
  A 1.17 1.16 78.2 0 0 53.27 274.05
  L 42.70 274.61
  A 0.46 0.45 80.0 0 0 42.29 275.20
  Q 45.62 285.53 52.30 295.79
  Q 52.56 296.19 53.02 296.02
  L 63.79 292.02"
/>
<path stroke="#808080" vector-effect="non-scaling-stroke" d="
  M 87.09 308.56
  A 0.13 0.12 53.1 0 0 87.12 308.32
  Q 81.88 305.69 77.07 302.93
  Q 76.06 302.35 70.64 298.38
  A 1.09 1.09 0.0 0 0 69.73 298.19
  Q 64.73 299.32 58.30 301.83
  A 0.42 0.42 0.0 0 0 58.15 302.51
  Q 63.41 308.01 70.05 312.19
  Q 70.51 312.48 70.96 312.17
  C 71.73 311.65 72.36 311.24 73.34 311.06
  Q 85.17 308.89 87.09 308.56"
/>
<path stroke="#808080" vector-effect="non-scaling-stroke" d="
  M 84.51 316.36
  Q 81.85 316.91 84.37 317.93
  Q 86.57 318.81 89.20 318.82
  Q 89.96 318.82 93.81 317.81
  Q 97.10 316.94 100.35 317.51
  Q 100.84 317.60 101.31 317.39
  Q 107.79 314.55 112.30 309.01
  Q 112.78 308.42 112.07 308.71
  Q 102.31 312.60 92.26 309.82
  Q 91.70 309.66 91.87 310.22
  C 93.66 316.00 88.07 315.61 84.51 316.36"
/>
<path stroke="#808080" vector-effect="non-scaling-stroke" d="
  M 376.21 202.39
  L 376.46 203.08
  A 0.13 0.13 0.0 0 0 376.63 203.16
  L 381.37 201.47
  A 0.38 0.23 70.4 0 0 381.46 201.04
  L 381.38 200.81
  A 0.38 0.23 70.4 0 0 381.04 200.53
  L 376.29 202.22
  A 0.13 0.13 0.0 0 0 376.21 202.39"
/>
<path stroke="#808080" vector-effect="non-scaling-stroke" d="
  M 303.63 227.37
  Q 308.04 230.95 308.01 236.24
  Q 307.98 240.86 307.17 250.00
  Q 306.86 253.43 307.78 262.26
  Q 308.07 265.10 308.87 274.40
  Q 310.09 288.71 313.98 301.60
  C 315.60 306.98 318.68 315.23 326.29 312.05
  C 333.47 309.04 333.21 285.34 332.90 278.32
  Q 332.61 271.89 331.95 254.26
  Q 331.63 245.81 332.60 239.64
  C 334.11 230.00 340.78 226.57 350.07 226.67
  Q 358.39 226.76 361.85 226.76
  Q 364.98 226.76 367.54 226.11
  Q 372.36 224.89 373.06 224.32
  Q 375.01 222.71 377.99 221.02
  Q 379.56 220.13 380.37 218.33
  Q 380.58 217.86 380.45 217.36
  C 379.47 213.62 377.37 211.55 374.02 209.45
  C 363.79 203.01 349.25 200.71 337.26 201.24
  Q 314.08 202.24 294.80 212.55
  C 290.20 215.01 284.25 219.05 284.22 224.84
  Q 284.22 225.39 284.67 225.71
  C 288.54 228.45 296.20 227.79 301.76 227.02
  Q 302.98 226.85 303.63 227.37"
/>
<path stroke="#808080" vector-effect="non-scaling-stroke" d="
  M 387.36 218.87
  Q 387.28 219.97 384.70 224.52
  Q 384.41 225.04 385.00 225.11
  L 389.98 225.65
  Q 390.40 225.69 390.46 225.27
  C 391.09 220.42 391.31 213.86 389.19 209.39
  Q 388.75 208.47 387.74 208.50
  L 384.60 208.58
  Q 383.49 208.60 384.16 209.48
  C 386.19 212.17 387.62 215.54 387.36 218.87"
/>
<path stroke="#808080" vector-effect="non-scaling-stroke" d="
  M 381.11 235.34
  L 381.51 237.51
  A 0.42 0.41 -17.2 0 0 382.08 237.81
  Q 386.42 235.99 388.74 232.78
  Q 389.13 232.24 388.47 232.16
  Q 384.61 231.72 380.66 230.33
  C 378.64 229.63 376.89 229.92 374.94 230.64
  A 0.80 0.80 0.0 0 0 374.94 232.14
  L 380.01 234.03
  A 1.74 1.73 -85.2 0 1 381.11 235.34"
/>
<path stroke="#808080" vector-effect="non-scaling-stroke" d="
  M 361.01 240.02
  C 363.40 240.13 365.70 241.15 366.65 243.37
  Q 366.85 243.82 367.31 243.65
  L 374.32 241.04
  Q 376.70 240.16 374.33 239.24
  Q 367.67 236.65 358.50 234.17
  C 354.69 233.14 350.67 233.22 347.26 233.53
  C 344.95 233.75 340.98 234.82 340.30 237.32
  Q 340.15 237.89 340.73 237.98
  Q 351.53 239.59 361.01 240.02"
/>
<path stroke="#808080" vector-effect="non-scaling-stroke" d="
  M 361.12 247.15
  A 0.13 0.13 0.0 0 0 361.03 246.95
  L 339.15 244.57
  A 0.47 0.47 0.0 0 0 338.63 245.04
  L 338.63 257.50
  Q 338.63 258.07 339.19 258.07
  Q 347.30 258.02 356.95 259.08
  Q 357.47 259.14 357.48 258.61
  Q 357.60 251.83 361.12 247.15"
/>
<path stroke="#808080" vector-effect="non-scaling-stroke" d="
  M 357.28 273.14
  A 1.01 1.01 0.0 0 0 358.37 272.10
  L 358.21 266.89
  A 1.01 1.01 0.0 0 0 357.28 265.92
  L 340.27 264.57
  A 1.01 1.01 0.0 0 0 339.18 265.61
  L 339.34 270.83
  A 1.01 1.01 0.0 0 0 340.27 271.81
  L 357.28 273.14"
/>
<path stroke="#808080" vector-effect="non-scaling-stroke" d="
  M 352.52 289.70
  C 358.43 290.30 357.65 296.80 351.99 296.31
  Q 345.55 295.75 340.46 295.49
  Q 339.26 295.43 339.13 296.63
  L 338.88 298.89
  A 1.23 1.23 0.0 0 0 340.02 300.25
  Q 347.12 300.74 351.50 300.82
  Q 352.15 300.83 353.57 301.20
  A 1.79 1.79 0.0 0 0 355.76 299.90
  Q 358.12 290.50 358.35 279.88
  Q 358.36 279.36 357.83 279.37
  Q 349.63 279.57 340.38 278.50
  Q 339.86 278.44 339.86 278.96
  L 339.86 288.22
  Q 339.86 288.83 340.46 288.82
  Q 343.23 288.75 352.52 289.70"
/>
<path stroke="#808080" vector-effect="non-scaling-stroke" d="
  M 346.02 311.14
  A 0.58 0.58 0.0 0 0 346.21 311.09
  L 351.46 308.64
  A 0.58 0.58 0.0 0 0 351.24 307.53
  L 337.83 306.85
  A 0.58 0.58 0.0 0 0 337.25 307.24
  L 335.83 311.35
  A 0.58 0.58 0.0 0 0 336.44 312.12
  L 346.02 311.14"
/>
<path stroke="#808080" vector-effect="non-scaling-stroke" d="
  M 471.08 198.83
  A 0.22 0.21 -76.4 0 0 470.87 198.96
  Q 470.83 199.04 470.85 199.24
  Q 470.87 199.39 471.01 199.46
  Q 475.08 201.40 476.65 202.34
  Q 478.40 203.38 481.67 203.66
  Q 485.00 203.95 489.76 205.51
  Q 492.25 206.32 490.19 204.70
  C 488.45 203.34 485.64 202.39 484.29 201.82
  Q 478.03 199.20 471.08 198.83"
/>
<path stroke="#808080" vector-effect="non-scaling-stroke" d="
  M 457.56 225.37
  C 458.43 224.14 459.78 223.39 461.45 223.77
  Q 466.79 224.97 468.95 228.07
  Q 471.85 232.24 475.51 237.31
  C 476.88 239.21 477.72 240.99 480.32 239.08
  Q 484.11 236.30 486.38 231.26
  Q 486.61 230.75 486.15 230.43
  Q 483.69 228.75 484.87 226.09
  C 485.23 225.28 485.92 224.91 486.30 224.45
  Q 486.62 224.06 486.48 223.67
  Q 483.57 215.94 478.42 211.75
  Q 466.61 202.13 450.57 201.75
  C 442.14 201.55 435.16 202.11 428.55 207.56
  C 419.79 214.78 420.57 226.59 424.88 236.32
  Q 427.48 242.19 431.26 248.07
  C 432.15 249.45 432.66 251.03 431.84 252.63
  C 430.19 255.81 428.83 257.96 425.25 257.05
  Q 419.86 255.67 414.85 253.20
  C 411.30 251.45 408.17 250.08 406.50 254.79
  Q 404.51 260.37 405.79 266.61
  Q 410.93 291.72 431.73 305.27
  C 442.31 312.16 457.47 317.07 470.06 313.58
  C 475.14 312.18 481.10 308.08 482.63 302.61
  Q 482.88 301.72 483.79 298.75
  Q 484.70 295.75 484.78 292.89
  Q 485.41 271.24 474.55 251.25
  Q 471.19 245.08 466.26 241.80
  C 465.54 241.32 465.14 240.72 464.79 239.99
  Q 464.65 239.71 464.54 238.51
  Q 464.35 236.43 462.78 234.36
  Q 460.70 231.61 457.73 228.30
  A 2.37 2.37 0.0 0 1 457.56 225.37"
/>
<path stroke="#808080" vector-effect="non-scaling-stroke" d="
  M 502.24 227.30
  Q 502.50 227.38 502.50 227.11
  Q 502.52 222.25 500.62 217.35
  Q 499.96 215.61 498.18 215.07
  L 489.17 212.32
  Q 487.42 211.78 488.55 213.23
  Q 492.59 218.38 493.22 224.32
  Q 493.25 224.55 493.47 224.62
  L 502.24 227.30"
/>
<path stroke="#808080" vector-effect="non-scaling-stroke" d="
  M 502.00 234.18
  A 0.34 0.34 0.0 0 0 501.78 233.68
  L 494.91 232.15
  A 0.34 0.34 0.0 0 0 494.54 232.31
  L 490.62 238.81
  A 0.34 0.34 0.0 0 0 490.83 239.32
  L 497.78 241.16
  A 0.34 0.34 0.0 0 0 498.16 241.00
  L 502.00 234.18"
/>
<path stroke="#808080" vector-effect="non-scaling-stroke" d="
  M 494.07 249.85
  C 493.78 248.95 493.91 248.36 494.04 247.49
  Q 494.12 246.91 493.54 246.84
  C 492.34 246.70 490.38 246.44 488.94 245.79
  Q 484.86 243.95 481.09 246.77
  Q 480.69 247.06 480.94 247.49
  L 485.27 255.00
  A 0.61 0.61 0.0 0 0 485.64 255.27
  L 499.66 258.54
  A 0.27 0.27 0.0 0 0 499.93 258.11
  Q 498.58 256.38 496.87 254.87
  Q 495.22 253.42 494.07 249.85"
/>
<path stroke="#808080" vector-effect="non-scaling-stroke" d="
  M 505.77 267.07
  A 0.57 0.57 0.0 0 0 505.35 266.65
  L 489.75 263.01
  A 0.57 0.57 0.0 0 0 489.07 263.71
  L 493.36 280.08
  A 0.57 0.57 0.0 0 0 493.84 280.50
  L 508.73 282.36
  A 0.57 0.57 0.0 0 0 509.35 281.66
  L 505.77 267.07"
/>
<path stroke="#808080" vector-effect="non-scaling-stroke" d="
  M 499.18 309.97
  L 490.69 306.80
  Q 490.11 306.58 489.79 307.13
  Q 486.78 312.29 481.97 315.93
  A 0.40 0.40 0.0 0 0 482.05 316.61
  L 488.88 319.79
  Q 489.36 320.01 489.86 319.83
  Q 493.75 318.47 497.09 316.31
  Q 511.54 306.99 509.76 289.43
  Q 509.71 288.91 509.18 288.90
  Q 504.01 288.79 499.00 287.70
  Q 498.35 287.56 494.12 287.37
  Q 493.79 287.36 493.75 287.70
  L 492.41 300.03
  Q 492.36 300.48 492.80 300.61
  Q 497.58 302.00 501.84 303.90
  Q 505.04 305.33 503.67 307.94
  L 503.47 308.33
  Q 502.05 311.04 499.18 309.97"
/>
<path stroke="#808080" vector-effect="non-scaling-stroke" d="
  M 472.30 319.92
  Q 472.24 319.94 464.87 321.44
  Q 464.15 321.59 464.85 321.82
  Q 470.33 323.63 478.18 322.89
  A 0.31 0.30 60.6 0 0 478.33 322.34
  L 474.30 319.37
  Q 473.98 319.13 473.64 319.34
  Q 472.99 319.73 472.30 319.92"
/>
<path stroke="#808080" vector-effect="non-scaling-stroke" d="
  M 241.51 215.78
  Q 239.59 217.27 238.24 215.22
  C 234.17 209.01 232.29 205.51 226.00 204.08
  C 216.09 201.82 204.78 205.59 196.92 211.48
  C 188.10 218.10 182.61 229.21 179.15 239.93
  C 173.90 256.24 171.99 274.83 178.55 290.55
  Q 182.90 300.99 192.67 305.74
  C 203.70 311.10 217.41 309.34 226.88 301.21
  C 231.94 296.87 235.68 289.12 237.70 282.94
  C 238.27 281.21 239.21 279.83 241.17 280.10
  Q 245.15 280.65 245.43 285.15
  Q 246.03 294.69 246.36 297.76
  Q 246.52 299.35 246.98 300.05
  C 248.76 302.81 258.67 302.42 261.68 302.09
  Q 263.19 301.93 263.65 301.68
  Q 264.35 301.31 264.55 300.14
  Q 265.16 296.47 265.24 293.00
  Q 266.13 255.97 262.35 214.12
  Q 261.95 209.65 260.88 206.74
  A 2.18 2.14 -2.1 0 0 259.44 205.42
  Q 251.20 203.16 242.91 205.13
  Q 240.46 205.71 241.25 208.02
  Q 241.55 208.89 242.69 211.72
  Q 243.66 214.11 241.80 215.56
  L 241.51 215.78"
/>
<path stroke="#808080" vector-effect="non-scaling-stroke" d="
  M 179.58 216.14
  Q 179.46 216.32 179.64 216.41
  Q 181.03 217.11 182.35 217.29
  Q 182.87 217.37 183.20 216.95
  Q 187.75 211.23 191.86 207.98
  Q 193.01 207.07 191.63 207.56
  Q 188.67 208.60 186.51 211.39
  Q 185.44 212.76 184.56 213.10
  C 182.36 213.93 180.75 214.40 179.58 216.14"
/>
<path stroke="#808080" vector-effect="non-scaling-stroke" d="
  M 169.04 225.76
  A 0.70 0.70 0.0 0 0 169.36 226.92
  L 175.99 228.82
  A 0.70 0.70 0.0 0 0 176.79 228.49
  L 179.56 223.59
  A 0.70 0.70 0.0 0 0 179.28 222.63
  L 174.90 220.30
  A 0.70 0.70 0.0 0 0 174.06 220.44
  L 169.04 225.76"
/>
<path stroke="#808080" vector-effect="non-scaling-stroke" d="
  M 165.02 231.72
  A 0.35 0.35 0.0 0 0 164.61 231.87
  L 161.07 237.52
  A 0.35 0.35 0.0 0 0 161.29 238.05
  L 172.27 240.42
  A 0.35 0.35 0.0 0 0 172.68 240.19
  L 174.29 235.11
  A 0.35 0.35 0.0 0 0 174.06 234.67
  L 165.02 231.72"
/>
<path stroke="#808080" vector-effect="non-scaling-stroke" d="
  M 158.97 243.60
  A 0.81 0.81 0.0 0 0 158.03 244.09
  L 155.80 249.68
  A 0.81 0.81 0.0 0 0 156.40 250.78
  L 168.97 253.24
  A 0.81 0.81 0.0 0 0 169.92 252.59
  L 170.87 247.24
  A 0.81 0.81 0.0 0 0 170.26 246.31
  L 158.97 243.60"
/>
<path stroke="#808080" vector-effect="non-scaling-stroke" d="
  M 168.27 264.46
  A 0.41 0.41 0.0 0 0 168.72 264.06
  L 168.78 259.51
  A 0.41 0.41 0.0 0 0 168.45 259.10
  L 154.40 256.34
  A 0.41 0.41 0.0 0 0 153.92 256.65
  L 152.63 262.71
  A 0.41 0.41 0.0 0 0 152.99 263.21
  L 168.27 264.46"
/>
<path stroke="#808080" vector-effect="non-scaling-stroke" d="
  M 169.0179 271.3357
  A 1.00 1.00 0.0 0 0 168.0753 270.2814
  L 152.8590 269.4307
  A 1.00 1.00 0.0 0 0 151.8048 270.3733
  L 151.4821 276.1443
  A 1.00 1.00 0.0 0 0 152.4247 277.1986
  L 167.6410 278.0493
  A 1.00 1.00 0.0 0 0 168.6952 277.1067
  L 169.0179 271.3357"
/>
<path stroke="#808080" vector-effect="non-scaling-stroke" d="
  M 171.48 291.05
  A 0.51 0.51 0.0 0 0 171.97 290.38
  L 170.20 284.90
  A 0.51 0.51 0.0 0 0 169.76 284.55
  L 152.69 283.08
  A 0.51 0.51 0.0 0 0 152.14 283.63
  L 152.66 290.34
  A 0.51 0.51 0.0 0 0 153.17 290.81
  L 171.48 291.05"
/>
<path stroke="#808080" vector-effect="non-scaling-stroke" d="
  M 239.81 294.98
  A 0.33 0.33 0.0 0 0 239.20 294.88
  L 236.57 299.56
  A 0.33 0.33 0.0 0 0 236.58 299.89
  L 240.03 305.70
  A 0.33 0.33 0.0 0 0 240.58 305.72
  L 241.61 304.31
  A 0.33 0.33 0.0 0 0 241.66 304.05
  L 239.81 294.98"
/>
<path stroke="#808080" vector-effect="non-scaling-stroke" d="
  M 176.86 300.62
  A 0.31 0.31 0.0 0 0 177.09 300.12
  L 174.85 297.16
  A 0.31 0.31 0.0 0 0 174.61 297.04
  L 154.65 296.57
  A 0.31 0.31 0.0 0 0 154.36 297.01
  L 156.09 300.95
  A 0.31 0.31 0.0 0 0 156.38 301.13
  L 176.86 300.62"
/>
<path stroke="#808080" vector-effect="non-scaling-stroke" d="
  M 234.32 310.24
  A 1.16 1.16 0.0 0 0 234.73 309.17
  L 234.11 305.07
  A 1.16 1.16 0.0 0 0 232.20 304.37
  L 228.65 307.43
  A 1.16 1.16 0.0 0 0 228.57 309.11
  L 230.99 311.60
  A 1.16 1.16 0.0 0 0 232.56 311.69
  L 234.32 310.24"
/>
<path stroke="#808080" vector-effect="non-scaling-stroke" d="
  M 162.02 307.27
  A 0.32 0.32 0.0 0 0 161.87 307.87
  L 171.06 313.42
  A 0.32 0.32 0.0 0 0 171.28 313.46
  L 187.64 310.40
  A 0.32 0.32 0.0 0 0 187.75 309.82
  L 181.86 306.27
  A 0.32 0.32 0.0 0 0 181.68 306.23
  L 162.02 307.27"
/>
<path stroke="#808080" vector-effect="non-scaling-stroke" d="
  M 218.18 312.83
  A 0.30 0.30 0.0 0 0 218.10 313.35
  L 221.75 316.01
  A 0.30 0.30 0.0 0 0 222.00 316.05
  L 226.07 314.99
  A 0.30 0.30 0.0 0 0 226.25 314.55
  L 224.08 310.93
  A 0.30 0.30 0.0 0 0 223.72 310.80
  L 218.18 312.83"
/>
<path stroke="#808080" vector-effect="non-scaling-stroke" d="
  M 200.69 313.08
  L 182.86 315.84
  A 0.14 0.14 0.0 0 0 182.75 316.00
  L 182.75 316.03
  A 8.77 3.13 -8.8 0 0 191.90 317.78
  L 192.67 317.66
  A 8.77 3.13 -8.8 0 0 200.86 313.23
  L 200.85 313.20
  A 0.14 0.14 0.0 0 0 200.69 313.08"
/>
<path stroke="#808080" vector-effect="non-scaling-stroke" d="
  M 214.13 317.37
  L 213.08 315.97
  A 1.91 1.91 0.0 0 0 210.96 315.32
  Q 205.63 317.09 202.88 318.99
  Q 201.67 319.84 203.15 319.74
  Q 207.25 319.46 213.69 318.46
  Q 214.83 318.29 214.13 317.37"
/>
<path stroke="#808080" vector-effect="non-scaling-stroke" d="
  M 207.41 283.75
  Q 209.07 284.22 210.45 283.66
  Q 210.92 283.46 211.16 283.01
  Q 211.90 281.56 211.98 280.45
  Q 213.87 255.34 212.69 236.68
  C 212.36 231.50 211.24 225.82 205.02 225.37
  Q 201.97 225.16 200.58 225.64
  A 2.77 2.60 -19.9 0 0 198.83 229.08
  Q 199.42 230.60 199.61 232.33
  Q 200.11 236.84 200.29 246.75
  Q 200.47 256.96 200.76 283.50
  Q 200.77 285.09 201.55 286.14
  Q 201.86 286.55 202.37 286.65
  Q 204.60 287.09 206.22 285.59
  Q 206.57 285.27 206.68 284.82
  L 206.85 284.08
  A 0.45 0.45 0.0 0 1 207.41 283.75"
/>
</g>
<path fill="#ffffff" fill-opacity="0" d="
  M 502.02 0.00
  L 502.08 155.46
  Q 502.08 155.96 502.58 155.96
  L 581.00 155.97
  L 581.00 365.00
  L 0.00 365.00
  L 0.00 156.02
  L 53.74 156.02
  A 0.24 0.23 -0.0 0 0 53.98 155.79
  L 53.98 0.00
  L 502.02 0.00
  Z
  M 245.75 40.60
  Q 236.62 48.74 232.49 58.75
  Q 227.26 71.44 225.84 86.03
  Q 224.64 98.25 224.52 102.77
  Q 224.05 120.13 227.16 135.08
  C 229.71 147.34 236.62 158.47 248.48 162.54
  Q 259.73 166.41 272.59 163.74
  Q 273.83 163.48 274.94 163.72
  C 279.14 164.63 284.51 164.12 290.51 163.17
  C 302.26 161.31 311.64 155.02 318.02 144.94
  C 323.90 135.66 326.42 126.37 327.96 115.73
  Q 329.08 107.95 328.44 99.73
  Q 326.42 74.13 309.14 55.30
  Q 306.14 52.03 302.61 49.44
  Q 298.16 46.17 295.13 44.35
  Q 285.32 38.45 273.15 36.71
  Q 265.70 35.64 249.96 36.38
  Q 248.10 36.47 247.26 37.27
  Q 246.34 38.15 246.19 39.73
  Q 246.14 40.25 245.75 40.60
  Z
  M 370.89 40.63
  Q 361.43 48.60 357.13 59.60
  Q 351.44 74.16 350.25 90.52
  Q 348.48 115.02 351.33 131.34
  Q 353.46 143.59 358.87 151.29
  Q 364.08 158.70 371.16 161.64
  Q 382.99 166.53 396.34 163.94
  Q 398.42 163.54 400.85 163.88
  Q 403.87 164.31 409.38 164.00
  Q 431.62 162.72 443.14 144.66
  C 451.96 130.83 454.36 113.86 453.03 97.80
  Q 452.15 87.19 448.74 78.50
  Q 444.08 66.65 434.63 55.74
  Q 431.60 52.24 427.42 49.29
  Q 421.68 45.23 419.28 43.88
  Q 404.69 35.70 387.93 36.05
  C 382.08 36.18 378.18 36.14 373.91 36.37
  A 1.78 1.71 -63.3 0 0 373.01 36.69
  Q 371.84 37.55 371.38 39.81
  Q 371.27 40.30 370.89 40.63
  Z
  M 137.06 89.58
  Q 136.29 110.40 139.59 132.74
  Q 140.89 141.56 143.72 150.33
  C 146.53 159.02 151.94 168.64 162.81 161.27
  Q 163.75 160.63 166.19 160.76
  Q 176.46 161.30 183.89 155.87
  C 191.40 150.39 196.48 140.05 198.99 130.76
  Q 207.26 100.18 199.16 70.70
  C 196.33 60.36 191.24 50.33 182.56 43.68
  C 174.62 37.59 163.95 36.69 154.46 38.17
  Q 149.31 38.97 143.27 42.15
  Q 134.58 46.72 129.77 51.01
  Q 123.97 56.17 118.96 64.46
  Q 116.29 68.88 115.85 72.78
  C 115.17 78.81 116.59 83.85 121.56 87.40
  Q 123.45 88.76 127.12 88.85
  Q 134.63 89.03 136.52 89.02
  Q 137.08 89.02 137.06 89.58
  Z
  M 110.41 212.59
  Q 111.37 211.16 111.63 209.16
  C 113.43 195.07 105.02 187.59 92.03 186.09
  Q 70.68 183.62 55.00 197.45
  Q 35.95 214.25 32.45 240.65
  Q 32.14 242.99 32.13 247.39
  C 32.12 252.41 31.87 259.03 32.51 264.23
  Q 35.09 285.48 48.31 302.46
  Q 60.69 318.36 79.60 324.27
  Q 86.55 326.44 90.96 326.73
  C 102.72 327.51 112.51 320.73 119.90 311.37
  Q 126.84 302.57 128.61 300.37
  C 137.28 289.56 141.32 276.90 132.83 264.80
  C 128.58 258.74 119.22 257.33 112.07 257.11
  Q 110.07 257.05 93.35 256.70
  C 87.26 256.57 80.86 255.87 79.87 249.20
  C 78.74 241.54 80.99 237.45 88.62 235.62
  Q 93.88 234.36 99.86 232.61
  Q 105.58 230.93 107.84 227.87
  Q 111.86 222.41 110.23 213.46
  Q 110.15 212.99 110.41 212.59
  Z
  M 301.14 235.38
  Q 300.68 244.57 300.56 256.28
  Q 300.50 262.32 303.06 282.50
  Q 304.18 291.29 306.29 299.49
  Q 308.13 306.62 311.54 312.53
  Q 315.63 319.64 323.51 319.47
  C 326.89 319.40 329.87 317.23 333.19 318.08
  Q 337.11 319.07 341.49 318.49
  C 347.53 317.68 353.76 316.56 357.02 312.02
  Q 362.27 304.73 363.68 294.70
  Q 366.13 277.26 364.35 259.47
  C 364.15 257.50 364.11 254.63 365.81 252.90
  Q 368.46 250.20 371.39 249.13
  Q 381.55 245.44 386.29 243.32
  Q 396.03 238.98 397.13 228.29
  Q 397.87 221.03 397.65 216.83
  Q 396.86 201.99 384.90 195.36
  C 380.81 193.09 376.12 192.27 371.16 191.62
  Q 339.63 187.48 308.32 194.79
  C 295.84 197.70 285.30 201.37 278.30 212.60
  C 276.82 214.99 277.10 216.52 278.32 218.79
  Q 278.56 219.22 278.41 219.69
  Q 276.29 226.61 280.28 230.69
  C 284.31 234.81 294.44 234.79 299.98 234.28
  A 1.06 1.05 -1.4 0 1 301.14 235.38
  Z
  M 423.82 249.64
  Q 421.73 248.85 417.43 246.85
  Q 405.01 241.05 398.56 251.12
  C 396.68 254.07 395.60 258.22 395.65 261.52
  C 395.79 271.91 397.92 282.77 402.78 291.79
  Q 417.47 318.99 450.14 322.40
  A 2.04 1.98 -23.2 0 1 451.08 322.76
  Q 460.84 329.73 472.78 329.82
  Q 482.72 329.89 492.83 326.07
  C 504.47 321.67 514.55 311.81 516.12 299.43
  C 517.71 286.95 515.56 271.97 509.61 260.09
  C 507.57 256.04 504.49 252.71 501.15 249.72
  A 0.81 0.81 0.0 0 1 501.02 248.66
  Q 503.63 244.84 504.85 242.89
  C 508.61 236.83 510.07 232.11 509.35 224.83
  Q 507.92 210.34 497.17 201.41
  C 490.30 195.71 480.67 192.53 471.51 192.19
  Q 464.69 191.94 458.17 192.58
  Q 457.66 192.63 457.41 193.07
  L 456.34 194.91
  Q 456.04 195.43 455.45 195.36
  Q 447.36 194.33 439.32 195.59
  C 430.05 197.03 421.19 202.64 417.34 211.28
  Q 415.24 215.97 415.25 222.45
  C 415.26 232.49 419.04 240.59 424.08 249.34
  Q 424.37 249.84 423.82 249.64
  Z
  M 236.88 202.38
  A 0.38 0.38 0.0 0 1 236.33 202.42
  C 225.52 192.72 209.16 193.57 196.49 198.74
  Q 162.19 212.76 149.84 248.65
  Q 146.38 258.70 146.09 269.75
  Q 145.85 278.70 145.82 279.87
  Q 145.67 284.98 146.16 287.62
  Q 146.72 290.67 147.75 295.28
  C 150.28 306.61 159.03 314.87 169.75 319.04
  Q 181.74 323.72 194.37 323.73
  Q 195.82 323.74 206.21 323.61
  Q 212.92 323.53 217.85 322.50
  Q 233.80 319.19 245.82 307.72
  A 2.12 2.10 -61.0 0 1 247.70 307.17
  Q 256.43 308.89 264.82 307.46
  Q 267.87 306.94 268.92 305.35
  Q 270.39 303.12 270.62 300.63
  Q 271.35 292.68 271.28 283.50
  Q 271.12 264.70 270.65 245.91
  Q 270.43 237.27 269.68 228.76
  Q 268.58 216.23 268.11 211.62
  C 267.43 205.07 266.20 200.42 258.96 199.05
  Q 250.74 197.49 242.74 198.89
  C 240.16 199.34 238.53 200.39 236.88 202.38
  Z"
/>
<path fill="#000000" d="
  M 246.19 39.73
  Q 246.34 38.15 247.26 37.27
  Q 248.10 36.47 249.96 36.38
  Q 265.70 35.64 273.15 36.71
  Q 285.32 38.45 295.13 44.35
  Q 298.16 46.17 302.61 49.44
  Q 306.14 52.03 309.14 55.30
  Q 326.42 74.13 328.44 99.73
  Q 329.08 107.95 327.96 115.73
  C 326.42 126.37 323.90 135.66 318.02 144.94
  C 311.64 155.02 302.26 161.31 290.51 163.17
  C 284.51 164.12 279.14 164.63 274.94 163.72
  Q 273.83 163.48 272.59 163.74
  Q 259.73 166.41 248.48 162.54
  C 236.62 158.47 229.71 147.34 227.16 135.08
  Q 224.05 120.13 224.52 102.77
  Q 224.64 98.25 225.84 86.03
  Q 227.26 71.44 232.49 58.75
  Q 236.62 48.74 245.75 40.60
  Q 246.14 40.25 246.19 39.73
  Z
  M 286.43 77.37
  C 286.87 76.70 287.04 75.39 286.69 74.50
  C 282.84 64.70 277.24 55.11 269.22 48.26
  Q 263.48 43.36 256.22 43.04
  Q 254.36 42.96 252.60 44.10
  C 246.35 48.17 241.74 53.75 238.68 61.10
  Q 233.21 74.26 232.22 86.64
  Q 231.09 100.84 231.02 105.06
  Q 230.87 113.02 232.06 125.49
  C 232.99 135.29 236.85 148.54 245.82 154.03
  C 253.15 158.52 265.00 159.98 272.91 156.40
  Q 276.90 154.59 280.24 150.99
  C 288.29 142.31 292.69 128.96 293.71 117.50
  Q 294.80 105.29 292.47 93.58
  C 291.55 88.97 290.30 82.53 287.89 79.94
  Q 287.01 78.99 286.47 78.28
  A 0.82 0.77 44.2 0 1 286.43 77.37
  Z
  M 291.19 50.41
  Q 292.43 50.50 291.37 49.84
  Q 284.23 45.40 274.72 43.47
  Q 274.13 43.36 274.51 43.82
  C 276.91 46.81 278.60 49.10 281.08 49.42
  Q 286.15 50.06 291.19 50.41
  Z
  M 294.01 74.26
  A 0.31 0.31 0.0 0 0 294.28 74.43
  L 315.16 74.69
  A 0.31 0.31 0.0 0 0 315.41 74.19
  L 302.75 57.49
  A 0.31 0.31 0.0 0 0 302.52 57.37
  L 285.77 56.34
  A 0.31 0.31 0.0 0 0 285.47 56.79
  L 294.01 74.26
  Z
  M 316.45 79.17
  C 315.93 80.98 312.72 81.12 310.74 81.11
  Q 299.62 81.09 296.79 81.13
  Q 296.25 81.14 296.39 81.67
  Q 298.28 88.76 299.23 94.92
  Q 299.31 95.46 299.85 95.46
  L 319.50 95.46
  Q 321.35 95.46 321.01 93.64
  Q 319.42 84.98 317.17 79.14
  Q 316.76 78.08 316.45 79.17
  Z
  M 319.57 119.34
  A 1.35 1.35 0.0 0 0 320.92 118.14
  L 322.56 103.38
  A 1.35 1.35 0.0 0 0 321.22 101.88
  L 301.69 101.86
  A 1.35 1.35 0.0 0 0 300.33 103.22
  L 300.39 117.87
  A 1.35 1.35 0.0 0 0 301.73 119.22
  L 319.57 119.34
  Z
  M 311.44 142.17
  A 0.53 0.53 0.0 0 0 312.23 142.06
  Q 317.17 134.31 319.24 126.21
  Q 319.39 125.63 318.79 125.67
  Q 309.83 126.30 299.67 125.40
  A 0.68 0.67 7.9 0 0 298.94 125.95
  Q 297.81 132.33 295.40 138.42
  Q 295.16 139.04 295.82 139.10
  Q 302.45 139.73 307.01 140.07
  Q 309.16 140.22 311.44 142.17
  Z
  M 283.43 157.54
  A 0.33 0.33 0.0 0 0 283.77 158.06
  L 298.26 154.74
  A 0.33 0.33 0.0 0 0 298.39 154.68
  L 308.21 147.40
  A 0.33 0.33 0.0 0 0 308.05 146.81
  L 292.83 145.09
  A 0.33 0.33 0.0 0 0 292.53 145.22
  L 283.43 157.54
  Z"
/>
<path fill="#000000" d="
  M 371.38 39.81
  Q 371.84 37.55 373.01 36.69
  A 1.78 1.71 -63.3 0 1 373.91 36.37
  C 378.18 36.14 382.08 36.18 387.93 36.05
  Q 404.69 35.70 419.28 43.88
  Q 421.68 45.23 427.42 49.29
  Q 431.60 52.24 434.63 55.74
  Q 444.08 66.65 448.74 78.50
  Q 452.15 87.19 453.03 97.80
  C 454.36 113.86 451.96 130.83 443.14 144.66
  Q 431.62 162.72 409.38 164.00
  Q 403.87 164.31 400.85 163.88
  Q 398.42 163.54 396.34 163.94
  Q 382.99 166.53 371.16 161.64
  Q 364.08 158.70 358.87 151.29
  Q 353.46 143.59 351.33 131.34
  Q 348.48 115.02 350.25 90.52
  Q 351.44 74.16 357.13 59.60
  Q 361.43 48.60 370.89 40.63
  Q 371.27 40.30 371.38 39.81
  Z
  M 411.61 77.80
  Q 411.60 77.77 411.68 76.35
  Q 411.75 75.17 411.45 74.32
  Q 407.16 62.23 397.74 51.53
  Q 391.66 44.63 383.37 43.28
  Q 380.22 42.77 378.96 43.44
  C 370.41 47.94 365.04 56.17 362.02 65.04
  Q 358.16 76.35 356.92 88.56
  C 355.61 101.46 355.50 116.01 357.58 129.37
  C 359.32 140.56 364.51 152.49 375.44 156.31
  C 381.55 158.45 390.96 159.45 397.12 156.76
  C 406.07 152.84 411.98 142.92 415.00 134.02
  Q 423.63 108.63 414.22 82.08
  C 413.64 80.44 411.80 79.32 411.61 77.80
  Z
  M 400.90 43.70
  Q 399.82 43.28 399.53 43.30
  Q 398.86 43.34 399.31 43.83
  Q 401.58 46.26 402.90 47.65
  Q 404.36 49.17 406.81 49.51
  Q 413.59 50.45 416.51 50.48
  Q 417.07 50.49 416.60 50.18
  Q 410.01 45.80 402.17 44.12
  Q 401.78 44.04 400.90 43.70
  Z
  M 418.95 74.22
  A 0.33 0.33 0.0 0 0 419.24 74.40
  L 440.04 74.71
  A 0.33 0.33 0.0 0 0 440.31 74.18
  L 427.80 57.51
  A 0.33 0.33 0.0 0 0 427.56 57.38
  L 410.77 56.37
  A 0.33 0.33 0.0 0 0 410.46 56.85
  L 418.95 74.22
  Z
  M 438.31 80.98
  Q 429.63 81.24 421.62 81.06
  A 0.53 0.53 0.0 0 0 421.11 81.75
  Q 423.27 88.19 424.37 95.17
  A 0.37 0.36 85.4 0 0 424.73 95.48
  L 445.47 95.48
  Q 446.23 95.48 446.12 94.73
  Q 445.12 87.57 442.43 79.92
  A 0.97 0.97 0.0 0 0 440.85 79.54
  C 440.12 80.24 439.23 80.95 438.31 80.98
  Z
  M 446.28 101.92
  L 425.76 101.88
  A 0.29 0.29 0.0 0 0 425.46 102.17
  L 425.44 117.26
  A 4.28 2.10 0.1 0 0 429.71 119.37
  L 442.25 119.39
  A 4.28 2.10 0.1 0 0 446.54 117.30
  L 446.56 102.21
  A 0.29 0.29 0.0 0 0 446.28 101.92
  Z
  M 420.30 139.05
  A 0.08 0.08 0.0 0 0 420.38 139.16
  Q 425.81 139.40 432.56 140.19
  Q 434.66 140.43 435.53 141.92
  Q 436.28 143.20 437.10 141.96
  Q 442.27 134.14 444.23 126.30
  Q 444.37 125.76 443.81 125.79
  Q 434.27 126.30 424.89 125.40
  Q 424.48 125.36 424.36 125.76
  L 420.30 139.05
  Z
  M 408.30 157.41
  A 0.35 0.35 0.0 0 0 408.65 157.96
  L 422.26 155.14
  A 0.35 0.35 0.0 0 0 422.39 155.09
  L 433.53 147.50
  A 0.35 0.35 0.0 0 0 433.37 146.86
  L 417.82 145.09
  A 0.35 0.35 0.0 0 0 417.50 145.23
  L 408.30 157.41
  Z"
/>
<path fill="#000000" d="
  M 136.52 89.02
  Q 134.63 89.03 127.12 88.85
  Q 123.45 88.76 121.56 87.40
  C 116.59 83.85 115.17 78.81 115.85 72.78
  Q 116.29 68.88 118.96 64.46
  Q 123.97 56.17 129.77 51.01
  Q 134.58 46.72 143.27 42.15
  Q 149.31 38.97 154.46 38.17
  C 163.95 36.69 174.62 37.59 182.56 43.68
  C 191.24 50.33 196.33 60.36 199.16 70.70
  Q 207.26 100.18 198.99 130.76
  C 196.48 140.05 191.40 150.39 183.89 155.87
  Q 176.46 161.30 166.19 160.76
  Q 163.75 160.63 162.81 161.27
  C 151.94 168.64 146.53 159.02 143.72 150.33
  Q 140.89 141.56 139.59 132.74
  Q 136.29 110.40 137.06 89.58
  Q 137.08 89.02 136.52 89.02
  Z
  M 143.78 84.07
  Q 143.30 99.02 144.05 113.23
  Q 144.62 123.95 145.95 131.42
  Q 147.70 141.18 150.24 149.26
  Q 151.42 153.00 153.88 156.36
  Q 154.66 157.43 156.00 157.29
  C 162.20 156.64 164.99 146.98 166.20 141.99
  Q 170.18 125.54 172.27 106.11
  Q 173.27 96.79 173.36 89.50
  Q 173.49 78.90 173.09 72.83
  Q 172.65 66.41 170.70 58.81
  C 169.53 54.25 166.05 46.92 160.94 45.58
  Q 157.09 44.56 153.97 45.21
  Q 132.63 49.66 123.93 69.63
  Q 122.32 73.34 122.67 75.38
  Q 123.25 78.80 125.58 81.05
  Q 127.53 82.93 132.96 83.19
  Q 137.66 83.42 143.04 83.33
  A 0.72 0.72 0.0 0 1 143.78 84.07
  Z
  M 184.20 54.60
  Q 179.06 47.89 172.13 45.34
  Q 171.54 45.12 171.84 45.68
  Q 173.22 48.23 176.37 54.12
  Q 176.83 54.97 179.32 55.20
  Q 179.81 55.25 180.31 55.27
  Q 183.90 55.41 184.13 55.25
  Q 184.51 55.01 184.20 54.60
  Z
  M 180.01 75.84
  A 0.30 0.30 0.0 0 0 180.34 76.11
  L 193.32 74.67
  A 0.30 0.30 0.0 0 0 193.57 74.27
  L 188.91 61.75
  A 0.30 0.30 0.0 0 0 188.63 61.55
  L 178.70 61.57
  A 0.30 0.30 0.0 0 0 178.40 61.90
  L 180.01 75.84
  Z
  M 179.96 82.71
  A 0.31 0.31 0.0 0 0 179.68 83.02
  L 179.71 94.40
  A 0.31 0.31 0.0 0 0 180.03 94.71
  L 196.32 94.40
  A 0.31 0.31 0.0 0 0 196.62 94.05
  L 195.14 81.41
  A 0.31 0.31 0.0 0 0 194.80 81.14
  L 179.96 82.71
  Z
  M 195.46 112.35
  A 0.64 0.64 0.0 0 0 196.11 111.75
  L 196.71 101.48
  A 0.64 0.64 0.0 0 0 196.05 100.80
  L 180.02 101.22
  A 0.64 0.64 0.0 0 0 179.40 101.77
  L 178.14 111.42
  A 0.64 0.64 0.0 0 0 178.77 112.14
  L 195.46 112.35
  Z
  M 177.61 118.63
  A 0.30 0.30 0.0 0 0 177.31 118.89
  L 175.90 128.21
  A 0.30 0.30 0.0 0 0 176.16 128.56
  L 191.87 130.48
  A 0.30 0.30 0.0 0 0 192.20 130.26
  L 195.25 119.09
  A 0.30 0.30 0.0 0 0 194.96 118.71
  L 177.61 118.63
  Z
  M 186.80 142.38
  A 0.34 0.34 0.0 0 0 187.14 142.20
  L 189.81 137.24
  A 0.34 0.34 0.0 0 0 189.55 136.75
  L 175.07 134.83
  A 0.34 0.34 0.0 0 0 174.70 135.06
  L 172.93 140.57
  A 0.34 0.34 0.0 0 0 173.22 141.01
  L 186.80 142.38
  Z
  M 176.37 152.96
  A 0.33 0.33 0.0 0 0 176.48 152.92
  L 182.02 149.25
  A 0.33 0.33 0.0 0 0 181.89 148.65
  L 171.93 146.93
  A 0.33 0.33 0.0 0 0 171.56 147.14
  L 169.12 154.11
  A 0.33 0.33 0.0 0 0 169.50 154.54
  L 176.37 152.96
  Z"
/>
<path fill="#ffffff" d="
  M 286.47 78.28
  Q 287.01 78.99 287.89 79.94
  C 290.30 82.53 291.55 88.97 292.47 93.58
  Q 294.80 105.29 293.71 117.50
  C 292.69 128.96 288.29 142.31 280.24 150.99
  Q 276.90 154.59 272.91 156.40
  C 265.00 159.98 253.15 158.52 245.82 154.03
  C 236.85 148.54 232.99 135.29 232.06 125.49
  Q 230.87 113.02 231.02 105.06
  Q 231.09 100.84 232.22 86.64
  Q 233.21 74.26 238.68 61.10
  C 241.74 53.75 246.35 48.17 252.60 44.10
  Q 254.36 42.96 256.22 43.04
  Q 263.48 43.36 269.22 48.26
  C 277.24 55.11 282.84 64.70 286.69 74.50
  C 287.04 75.39 286.87 76.70 286.43 77.37
  A 0.82 0.77 44.2 0 0 286.47 78.28
  Z
  M 255.61 131.09
  L 256.01 135.31
  Q 256.30 138.31 259.18 138.51
  Q 259.27 138.52 259.31 138.52
  Q 262.29 138.77 262.28 135.83
  Q 262.22 127.01 262.14 113.25
  C 262.08 100.43 261.07 84.30 261.39 70.47
  Q 261.43 68.43 261.07 67.82
  C 259.38 64.98 257.05 61.83 253.56 64.80
  Q 252.59 65.63 252.54 67.53
  Q 251.81 97.15 252.36 126.54
  Q 252.42 129.42 255.08 130.37
  Q 255.55 130.53 255.61 131.09
  Z"
/>
<path fill="#ffffff" d="
  M 411.61 77.80
  C 411.80 79.32 413.64 80.44 414.22 82.08
  Q 423.63 108.63 415.00 134.02
  C 411.98 142.92 406.07 152.84 397.12 156.76
  C 390.96 159.45 381.55 158.45 375.44 156.31
  C 364.51 152.49 359.32 140.56 357.58 129.37
  C 355.50 116.01 355.61 101.46 356.92 88.56
  Q 358.16 76.35 362.02 65.04
  C 365.04 56.17 370.41 47.94 378.96 43.44
  Q 380.22 42.77 383.37 43.28
  Q 391.66 44.63 397.74 51.53
  Q 407.16 62.23 411.45 74.32
  Q 411.75 75.17 411.68 76.35
  Q 411.60 77.77 411.61 77.80
  Z
  M 380.72 131.37
  Q 380.68 135.18 381.41 136.93
  C 382.24 138.90 385.28 139.02 386.68 137.75
  Q 387.44 137.06 387.38 135.08
  Q 387.21 129.40 387.11 112.99
  Q 387.06 105.45 386.54 93.04
  Q 385.95 79.07 386.28 71.20
  Q 386.41 68.26 385.60 66.93
  C 382.92 62.55 378.57 62.09 377.55 68.03
  Q 376.73 72.82 376.71 79.26
  Q 376.64 103.63 376.72 125.93
  C 376.73 128.55 378.23 129.39 380.25 130.54
  Q 380.72 130.82 380.72 131.37
  Z"
/>
<path fill="#ffffff" d="
  M 291.19 50.41
  Q 286.15 50.06 281.08 49.42
  C 278.60 49.10 276.91 46.81 274.51 43.82
  Q 274.13 43.36 274.72 43.47
  Q 284.23 45.40 291.37 49.84
  Q 292.43 50.50 291.19 50.41
  Z"
/>
<path fill="#ffffff" d="
  M 402.17 44.12
  Q 410.01 45.80 416.60 50.18
  Q 417.07 50.49 416.51 50.48
  Q 413.59 50.45 406.81 49.51
  Q 404.36 49.17 402.90 47.65
  Q 401.58 46.26 399.31 43.83
  Q 398.86 43.34 399.53 43.30
  Q 399.82 43.28 400.90 43.70
  Q 401.78 44.04 402.17 44.12
  Z"
/>
<path fill="#ffffff" d="
  M 143.78 84.07
  A 0.72 0.72 0.0 0 0 143.04 83.33
  Q 137.66 83.42 132.96 83.19
  Q 127.53 82.93 125.58 81.05
  Q 123.25 78.80 122.67 75.38
  Q 122.32 73.34 123.93 69.63
  Q 132.63 49.66 153.97 45.21
  Q 157.09 44.56 160.94 45.58
  C 166.05 46.92 169.53 54.25 170.70 58.81
  Q 172.65 66.41 173.09 72.83
  Q 173.49 78.90 173.36 89.50
  Q 173.27 96.79 172.27 106.11
  Q 170.18 125.54 166.20 141.99
  C 164.99 146.98 162.20 156.64 156.00 157.29
  Q 154.66 157.43 153.88 156.36
  Q 151.42 153.00 150.24 149.26
  Q 147.70 141.18 145.95 131.42
  Q 144.62 123.95 144.05 113.23
  Q 143.30 99.02 143.78 84.07
  Z"
/>
<path fill="#ffffff" d="
  M 184.13 55.25
  Q 183.90 55.41 180.31 55.27
  Q 179.81 55.25 179.32 55.20
  Q 176.83 54.97 176.37 54.12
  Q 173.22 48.23 171.84 45.68
  Q 171.54 45.12 172.13 45.34
  Q 179.06 47.89 184.20 54.60
  Q 184.51 55.01 184.13 55.25
  Z"
/>
<path fill="#ffffff" d="
  M 294.01 74.26
  L 285.47 56.79
  A 0.31 0.31 0.0 0 1 285.77 56.34
  L 302.52 57.37
  A 0.31 0.31 0.0 0 1 302.75 57.49
  L 315.41 74.19
  A 0.31 0.31 0.0 0 1 315.16 74.69
  L 294.28 74.43
  A 0.31 0.31 0.0 0 1 294.01 74.26
  Z"
/>
<path fill="#ffffff" d="
  M 418.95 74.22
  L 410.46 56.85
  A 0.33 0.33 0.0 0 1 410.77 56.37
  L 427.56 57.38
  A 0.33 0.33 0.0 0 1 427.80 57.51
  L 440.31 74.18
  A 0.33 0.33 0.0 0 1 440.04 74.71
  L 419.24 74.40
  A 0.33 0.33 0.0 0 1 418.95 74.22
  Z"
/>
<path fill="#ffffff" d="
  M 180.01 75.84
  L 178.40 61.90
  A 0.30 0.30 0.0 0 1 178.70 61.57
  L 188.63 61.55
  A 0.30 0.30 0.0 0 1 188.91 61.75
  L 193.57 74.27
  A 0.30 0.30 0.0 0 1 193.32 74.67
  L 180.34 76.11
  A 0.30 0.30 0.0 0 1 180.01 75.84
  Z"
/>
<path fill="#000000" d="
  M 255.08 130.37
  Q 252.42 129.42 252.36 126.54
  Q 251.81 97.15 252.54 67.53
  Q 252.59 65.63 253.56 64.80
  C 257.05 61.83 259.38 64.98 261.07 67.82
  Q 261.43 68.43 261.39 70.47
  C 261.07 84.30 262.08 100.43 262.14 113.25
  Q 262.22 127.01 262.28 135.83
  Q 262.29 138.77 259.31 138.52
  Q 259.27 138.52 259.18 138.51
  Q 256.30 138.31 256.01 135.31
  L 255.61 131.09
  Q 255.55 130.53 255.08 130.37
  Z"
/>
<path fill="#000000" d="
  M 380.25 130.54
  C 378.23 129.39 376.73 128.55 376.72 125.93
  Q 376.64 103.63 376.71 79.26
  Q 376.73 72.82 377.55 68.03
  C 378.57 62.09 382.92 62.55 385.60 66.93
  Q 386.41 68.26 386.28 71.20
  Q 385.95 79.07 386.54 93.04
  Q 387.06 105.45 387.11 112.99
  Q 387.21 129.40 387.38 135.08
  Q 387.44 137.06 386.68 137.75
  C 385.28 139.02 382.24 138.90 381.41 136.93
  Q 380.68 135.18 380.72 131.37
  Q 380.72 130.82 380.25 130.54
  Z"
/>
<path fill="#ffffff" d="
  M 310.74 81.11
  C 312.72 81.12 315.93 80.98 316.45 79.17
  Q 316.76 78.08 317.17 79.14
  Q 319.42 84.98 321.01 93.64
  Q 321.35 95.46 319.50 95.46
  L 299.85 95.46
  Q 299.31 95.46 299.23 94.92
  Q 298.28 88.76 296.39 81.67
  Q 296.25 81.14 296.79 81.13
  Q 299.62 81.09 310.74 81.11
  Z"
/>
<path fill="#ffffff" d="
  M 438.31 80.98
  C 439.23 80.95 440.12 80.24 440.85 79.54
  A 0.97 0.97 0.0 0 1 442.43 79.92
  Q 445.12 87.57 446.12 94.73
  Q 446.23 95.48 445.47 95.48
  L 424.73 95.48
  A 0.37 0.36 85.4 0 1 424.37 95.17
  Q 423.27 88.19 421.11 81.75
  A 0.53 0.53 0.0 0 1 421.62 81.06
  Q 429.63 81.24 438.31 80.98
  Z"
/>
<path fill="#ffffff" d="
  M 179.96 82.71
  L 194.80 81.14
  A 0.31 0.31 0.0 0 1 195.14 81.41
  L 196.62 94.05
  A 0.31 0.31 0.0 0 1 196.32 94.40
  L 180.03 94.71
  A 0.31 0.31 0.0 0 1 179.71 94.40
  L 179.68 83.02
  A 0.31 0.31 0.0 0 1 179.96 82.71
  Z"
/>
<path fill="#ffffff" d="
  M 195.46 112.35
  L 178.77 112.14
  A 0.64 0.64 0.0 0 1 178.14 111.42
  L 179.40 101.77
  A 0.64 0.64 0.0 0 1 180.02 101.22
  L 196.05 100.80
  A 0.64 0.64 0.0 0 1 196.71 101.48
  L 196.11 111.75
  A 0.64 0.64 0.0 0 1 195.46 112.35
  Z"
/>
<path fill="#ffffff" d="
  M 319.57 119.34
  L 301.73 119.22
  A 1.35 1.35 0.0 0 1 300.39 117.87
  L 300.33 103.22
  A 1.35 1.35 0.0 0 1 301.69 101.86
  L 321.22 101.88
  A 1.35 1.35 0.0 0 1 322.56 103.38
  L 320.92 118.14
  A 1.35 1.35 0.0 0 1 319.57 119.34
  Z"
/>
<path fill="#ffffff" d="
  M 446.28 101.92
  A 0.29 0.29 0.0 0 1 446.56 102.21
  L 446.54 117.30
  A 4.28 2.10 0.1 0 1 442.25 119.39
  L 429.71 119.37
  A 4.28 2.10 0.1 0 1 425.44 117.26
  L 425.46 102.17
  A 0.29 0.29 0.0 0 1 425.76 101.88
  L 446.28 101.92
  Z"
/>
<path fill="#ffffff" d="
  M 177.61 118.63
  L 194.96 118.71
  A 0.30 0.30 0.0 0 1 195.25 119.09
  L 192.20 130.26
  A 0.30 0.30 0.0 0 1 191.87 130.48
  L 176.16 128.56
  A 0.30 0.30 0.0 0 1 175.90 128.21
  L 177.31 118.89
  A 0.30 0.30 0.0 0 1 177.61 118.63
  Z"
/>
<path fill="#ffffff" d="
  M 420.30 139.05
  L 424.36 125.76
  Q 424.48 125.36 424.89 125.40
  Q 434.27 126.30 443.81 125.79
  Q 444.37 125.76 444.23 126.30
  Q 442.27 134.14 437.10 141.96
  Q 436.28 143.20 435.53 141.92
  Q 434.66 140.43 432.56 140.19
  Q 425.81 139.40 420.38 139.16
  A 0.08 0.08 0.0 0 1 420.30 139.05
  Z"
/>
<path fill="#ffffff" d="
  M 311.44 142.17
  Q 309.16 140.22 307.01 140.07
  Q 302.45 139.73 295.82 139.10
  Q 295.16 139.04 295.40 138.42
  Q 297.81 132.33 298.94 125.95
  A 0.68 0.67 7.9 0 1 299.67 125.40
  Q 309.83 126.30 318.79 125.67
  Q 319.39 125.63 319.24 126.21
  Q 317.17 134.31 312.23 142.06
  A 0.53 0.53 0.0 0 1 311.44 142.17
  Z"
/>
<path fill="#ffffff" d="
  M 186.80 142.38
  L 173.22 141.01
  A 0.34 0.34 0.0 0 1 172.93 140.57
  L 174.70 135.06
  A 0.34 0.34 0.0 0 1 175.07 134.83
  L 189.55 136.75
  A 0.34 0.34 0.0 0 1 189.81 137.24
  L 187.14 142.20
  A 0.34 0.34 0.0 0 1 186.80 142.38
  Z"
/>
<path fill="#ffffff" d="
  M 283.43 157.54
  L 292.53 145.22
  A 0.33 0.33 0.0 0 1 292.83 145.09
  L 308.05 146.81
  A 0.33 0.33 0.0 0 1 308.21 147.40
  L 298.39 154.68
  A 0.33 0.33 0.0 0 1 298.26 154.74
  L 283.77 158.06
  A 0.33 0.33 0.0 0 1 283.43 157.54
  Z"
/>
<path fill="#ffffff" d="
  M 408.30 157.41
  L 417.50 145.23
  A 0.35 0.35 0.0 0 1 417.82 145.09
  L 433.37 146.86
  A 0.35 0.35 0.0 0 1 433.53 147.50
  L 422.39 155.09
  A 0.35 0.35 0.0 0 1 422.26 155.14
  L 408.65 157.96
  A 0.35 0.35 0.0 0 1 408.30 157.41
  Z"
/>
<path fill="#ffffff" d="
  M 176.37 152.96
  L 169.50 154.54
  A 0.33 0.33 0.0 0 1 169.12 154.11
  L 171.56 147.14
  A 0.33 0.33 0.0 0 1 171.93 146.93
  L 181.89 148.65
  A 0.33 0.33 0.0 0 1 182.02 149.25
  L 176.48 152.92
  A 0.33 0.33 0.0 0 1 176.37 152.96
  Z"
/>
<path fill="#000000" d="
  M 110.23 213.46
  Q 111.86 222.41 107.84 227.87
  Q 105.58 230.93 99.86 232.61
  Q 93.88 234.36 88.62 235.62
  C 80.99 237.45 78.74 241.54 79.87 249.20
  C 80.86 255.87 87.26 256.57 93.35 256.70
  Q 110.07 257.05 112.07 257.11
  C 119.22 257.33 128.58 258.74 132.83 264.80
  C 141.32 276.90 137.28 289.56 128.61 300.37
  Q 126.84 302.57 119.90 311.37
  C 112.51 320.73 102.72 327.51 90.96 326.73
  Q 86.55 326.44 79.60 324.27
  Q 60.69 318.36 48.31 302.46
  Q 35.09 285.48 32.51 264.23
  C 31.87 259.03 32.12 252.41 32.13 247.39
  Q 32.14 242.99 32.45 240.65
  Q 35.95 214.25 55.00 197.45
  Q 70.68 183.62 92.03 186.09
  C 105.02 187.59 113.43 195.07 111.63 209.16
  Q 111.37 211.16 110.41 212.59
  Q 110.15 212.99 110.23 213.46
  Z
  M 92.71 196.98
  C 94.53 197.80 94.63 199.61 96.03 200.32
  Q 100.19 202.43 103.86 205.08
  A 0.53 0.52 14.1 0 0 104.69 204.59
  Q 103.47 195.81 94.70 194.08
  Q 87.94 192.75 86.55 193.11
  Q 86.05 193.25 86.49 193.53
  Q 89.83 195.68 92.71 196.98
  Z
  M 69.47 197.02
  L 82.87 201.90
  A 0.06 0.06 0.0 0 0 82.94 201.87
  L 82.95 201.85
  A 6.59 2.80 20.0 0 0 77.72 196.96
  L 76.59 196.55
  A 6.59 2.80 20.0 0 0 69.44 196.93
  L 69.43 196.95
  A 0.06 0.06 0.0 0 0 69.47 197.02
  Z
  M 67.08 210.33
  A 0.31 0.31 0.0 0 0 67.31 210.26
  L 72.06 206.37
  A 0.31 0.31 0.0 0 0 71.95 205.84
  L 60.82 202.34
  A 0.31 0.31 0.0 0 0 60.52 202.42
  L 54.48 208.15
  A 0.31 0.31 0.0 0 0 54.65 208.69
  L 67.08 210.33
  Z
  M 73.76 254.41
  C 70.63 246.40 71.27 238.38 78.06 232.54
  Q 80.63 230.33 88.10 228.18
  Q 96.08 225.88 98.76 225.28
  Q 102.06 224.54 102.60 222.08
  C 103.06 219.99 103.39 217.69 102.43 215.65
  Q 99.67 209.80 94.63 207.83
  Q 90.63 206.26 84.63 208.33
  Q 74.61 211.80 70.24 218.69
  Q 62.74 230.52 59.72 245.39
  Q 57.68 255.44 59.55 265.34
  C 62.77 282.36 74.58 295.25 90.42 301.56
  Q 102.32 306.30 112.80 300.11
  C 121.42 295.02 129.64 287.84 129.44 277.57
  C 129.36 273.62 128.42 269.41 125.18 267.55
  Q 120.18 264.67 113.75 264.55
  Q 93.80 264.20 92.79 264.17
  C 85.66 263.96 76.79 262.15 73.76 254.41
  Z
  M 49.25 215.45
  A 0.49 0.49 0.0 0 0 48.76 215.70
  L 45.08 222.46
  A 0.49 0.49 0.0 0 0 45.49 223.19
  L 58.74 223.83
  A 0.49 0.49 0.0 0 0 59.21 223.55
  L 61.83 217.71
  A 0.49 0.49 0.0 0 0 61.44 217.03
  L 49.25 215.45
  Z
  M 52.38 242.74
  A 0.40 0.40 0.0 0 0 52.81 242.45
  L 55.75 231.50
  A 0.40 0.40 0.0 0 0 55.39 231.00
  L 42.39 229.91
  A 0.40 0.40 0.0 0 0 41.97 230.22
  L 39.64 240.96
  A 0.40 0.40 0.0 0 0 39.99 241.45
  L 52.38 242.74
  Z
  M 51.56 250.08
  A 0.32 0.32 0.0 0 0 51.27 249.77
  L 39.02 248.72
  A 0.32 0.32 0.0 0 0 38.67 249.07
  L 40.17 267.58
  A 0.32 0.32 0.0 0 0 40.53 267.88
  L 51.48 266.71
  A 0.32 0.32 0.0 0 0 51.77 266.39
  L 51.56 250.08
  Z
  M 63.79 292.02
  A 0.28 0.27 -30.2 0 0 63.91 291.59
  Q 57.72 283.85 54.43 274.81
  A 1.17 1.16 78.2 0 0 53.27 274.05
  L 42.70 274.61
  A 0.46 0.45 80.0 0 0 42.29 275.20
  Q 45.62 285.53 52.30 295.79
  Q 52.56 296.19 53.02 296.02
  L 63.79 292.02
  Z
  M 87.09 308.56
  A 0.13 0.12 53.1 0 0 87.12 308.32
  Q 81.88 305.69 77.07 302.93
  Q 76.06 302.35 70.64 298.38
  A 1.09 1.09 0.0 0 0 69.73 298.19
  Q 64.73 299.32 58.30 301.83
  A 0.42 0.42 0.0 0 0 58.15 302.51
  Q 63.41 308.01 70.05 312.19
  Q 70.51 312.48 70.96 312.17
  C 71.73 311.65 72.36 311.24 73.34 311.06
  Q 85.17 308.89 87.09 308.56
  Z
  M 84.51 316.36
  Q 81.85 316.91 84.37 317.93
  Q 86.57 318.81 89.20 318.82
  Q 89.96 318.82 93.81 317.81
  Q 97.10 316.94 100.35 317.51
  Q 100.84 317.60 101.31 317.39
  Q 107.79 314.55 112.30 309.01
  Q 112.78 308.42 112.07 308.71
  Q 102.31 312.60 92.26 309.82
  Q 91.70 309.66 91.87 310.22
  C 93.66 316.00 88.07 315.61 84.51 316.36
  Z"
/>
<path fill="#000000" d="
  M 301.14 235.38
  A 1.06 1.05 -1.4 0 0 299.98 234.28
  C 294.44 234.79 284.31 234.81 280.28 230.69
  Q 276.29 226.61 278.41 219.69
  Q 278.56 219.22 278.32 218.79
  C 277.10 216.52 276.82 214.99 278.30 212.60
  C 285.30 201.37 295.84 197.70 308.32 194.79
  Q 339.63 187.48 371.16 191.62
  C 376.12 192.27 380.81 193.09 384.90 195.36
  Q 396.86 201.99 397.65 216.83
  Q 397.87 221.03 397.13 228.29
  Q 396.03 238.98 386.29 243.32
  Q 381.55 245.44 371.39 249.13
  Q 368.46 250.20 365.81 252.90
  C 364.11 254.63 364.15 257.50 364.35 259.47
  Q 366.13 277.26 363.68 294.70
  Q 362.27 304.73 357.02 312.02
  C 353.76 316.56 347.53 317.68 341.49 318.49
  Q 337.11 319.07 333.19 318.08
  C 329.87 317.23 326.89 319.40 323.51 319.47
  Q 315.63 319.64 311.54 312.53
  Q 308.13 306.62 306.29 299.49
  Q 304.18 291.29 303.06 282.50
  Q 300.50 262.32 300.56 256.28
  Q 300.68 244.57 301.14 235.38
  Z
  M 376.21 202.39
  L 376.46 203.08
  A 0.13 0.13 0.0 0 0 376.63 203.16
  L 381.37 201.47
  A 0.38 0.23 70.4 0 0 381.46 201.04
  L 381.38 200.81
  A 0.38 0.23 70.4 0 0 381.04 200.53
  L 376.29 202.22
  A 0.13 0.13 0.0 0 0 376.21 202.39
  Z
  M 303.63 227.37
  Q 308.04 230.95 308.01 236.24
  Q 307.98 240.86 307.17 250.00
  Q 306.86 253.43 307.78 262.26
  Q 308.07 265.10 308.87 274.40
  Q 310.09 288.71 313.98 301.60
  C 315.60 306.98 318.68 315.23 326.29 312.05
  C 333.47 309.04 333.21 285.34 332.90 278.32
  Q 332.61 271.89 331.95 254.26
  Q 331.63 245.81 332.60 239.64
  C 334.11 230.00 340.78 226.57 350.07 226.67
  Q 358.39 226.76 361.85 226.76
  Q 364.98 226.76 367.54 226.11
  Q 372.36 224.89 373.06 224.32
  Q 375.01 222.71 377.99 221.02
  Q 379.56 220.13 380.37 218.33
  Q 380.58 217.86 380.45 217.36
  C 379.47 213.62 377.37 211.55 374.02 209.45
  C 363.79 203.01 349.25 200.71 337.26 201.24
  Q 314.08 202.24 294.80 212.55
  C 290.20 215.01 284.25 219.05 284.22 224.84
  Q 284.22 225.39 284.67 225.71
  C 288.54 228.45 296.20 227.79 301.76 227.02
  Q 302.98 226.85 303.63 227.37
  Z
  M 387.36 218.87
  Q 387.28 219.97 384.70 224.52
  Q 384.41 225.04 385.00 225.11
  L 389.98 225.65
  Q 390.40 225.69 390.46 225.27
  C 391.09 220.42 391.31 213.86 389.19 209.39
  Q 388.75 208.47 387.74 208.50
  L 384.60 208.58
  Q 383.49 208.60 384.16 209.48
  C 386.19 212.17 387.62 215.54 387.36 218.87
  Z
  M 381.11 235.34
  L 381.51 237.51
  A 0.42 0.41 -17.2 0 0 382.08 237.81
  Q 386.42 235.99 388.74 232.78
  Q 389.13 232.24 388.47 232.16
  Q 384.61 231.72 380.66 230.33
  C 378.64 229.63 376.89 229.92 374.94 230.64
  A 0.80 0.80 0.0 0 0 374.94 232.14
  L 380.01 234.03
  A 1.74 1.73 -85.2 0 1 381.11 235.34
  Z
  M 361.01 240.02
  C 363.40 240.13 365.70 241.15 366.65 243.37
  Q 366.85 243.82 367.31 243.65
  L 374.32 241.04
  Q 376.70 240.16 374.33 239.24
  Q 367.67 236.65 358.50 234.17
  C 354.69 233.14 350.67 233.22 347.26 233.53
  C 344.95 233.75 340.98 234.82 340.30 237.32
  Q 340.15 237.89 340.73 237.98
  Q 351.53 239.59 361.01 240.02
  Z
  M 361.12 247.15
  A 0.13 0.13 0.0 0 0 361.03 246.95
  L 339.15 244.57
  A 0.47 0.47 0.0 0 0 338.63 245.04
  L 338.63 257.50
  Q 338.63 258.07 339.19 258.07
  Q 347.30 258.02 356.95 259.08
  Q 357.47 259.14 357.48 258.61
  Q 357.60 251.83 361.12 247.15
  Z
  M 357.28 273.14
  A 1.01 1.01 0.0 0 0 358.37 272.10
  L 358.21 266.89
  A 1.01 1.01 0.0 0 0 357.28 265.92
  L 340.27 264.57
  A 1.01 1.01 0.0 0 0 339.18 265.61
  L 339.34 270.83
  A 1.01 1.01 0.0 0 0 340.27 271.81
  L 357.28 273.14
  Z
  M 352.52 289.70
  C 358.43 290.30 357.65 296.80 351.99 296.31
  Q 345.55 295.75 340.46 295.49
  Q 339.26 295.43 339.13 296.63
  L 338.88 298.89
  A 1.23 1.23 0.0 0 0 340.02 300.25
  Q 347.12 300.74 351.50 300.82
  Q 352.15 300.83 353.57 301.20
  A 1.79 1.79 0.0 0 0 355.76 299.90
  Q 358.12 290.50 358.35 279.88
  Q 358.36 279.36 357.83 279.37
  Q 349.63 279.57 340.38 278.50
  Q 339.86 278.44 339.86 278.96
  L 339.86 288.22
  Q 339.86 288.83 340.46 288.82
  Q 343.23 288.75 352.52 289.70
  Z
  M 346.02 311.14
  A 0.58 0.58 0.0 0 0 346.21 311.09
  L 351.46 308.64
  A 0.58 0.58 0.0 0 0 351.24 307.53
  L 337.83 306.85
  A 0.58 0.58 0.0 0 0 337.25 307.24
  L 335.83 311.35
  A 0.58 0.58 0.0 0 0 336.44 312.12
  L 346.02 311.14
  Z"
/>
<path fill="#000000" d="
  M 424.08 249.34
  C 419.04 240.59 415.26 232.49 415.25 222.45
  Q 415.24 215.97 417.34 211.28
  C 421.19 202.64 430.05 197.03 439.32 195.59
  Q 447.36 194.33 455.45 195.36
  Q 456.04 195.43 456.34 194.91
  L 457.41 193.07
  Q 457.66 192.63 458.17 192.58
  Q 464.69 191.94 471.51 192.19
  C 480.67 192.53 490.30 195.71 497.17 201.41
  Q 507.92 210.34 509.35 224.83
  C 510.07 232.11 508.61 236.83 504.85 242.89
  Q 503.63 244.84 501.02 248.66
  A 0.81 0.81 0.0 0 0 501.15 249.72
  C 504.49 252.71 507.57 256.04 509.61 260.09
  C 515.56 271.97 517.71 286.95 516.12 299.43
  C 514.55 311.81 504.47 321.67 492.83 326.07
  Q 482.72 329.89 472.78 329.82
  Q 460.84 329.73 451.08 322.76
  A 2.04 1.98 -23.2 0 0 450.14 322.40
  Q 417.47 318.99 402.78 291.79
  C 397.92 282.77 395.79 271.91 395.65 261.52
  C 395.60 258.22 396.68 254.07 398.56 251.12
  Q 405.01 241.05 417.43 246.85
  Q 421.73 248.85 423.82 249.64
  Q 424.37 249.84 424.08 249.34
  Z
  M 471.08 198.83
  A 0.22 0.21 -76.4 0 0 470.87 198.96
  Q 470.83 199.04 470.85 199.24
  Q 470.87 199.39 471.01 199.46
  Q 475.08 201.40 476.65 202.34
  Q 478.40 203.38 481.67 203.66
  Q 485.00 203.95 489.76 205.51
  Q 492.25 206.32 490.19 204.70
  C 488.45 203.34 485.64 202.39 484.29 201.82
  Q 478.03 199.20 471.08 198.83
  Z
  M 457.56 225.37
  C 458.43 224.14 459.78 223.39 461.45 223.77
  Q 466.79 224.97 468.95 228.07
  Q 471.85 232.24 475.51 237.31
  C 476.88 239.21 477.72 240.99 480.32 239.08
  Q 484.11 236.30 486.38 231.26
  Q 486.61 230.75 486.15 230.43
  Q 483.69 228.75 484.87 226.09
  C 485.23 225.28 485.92 224.91 486.30 224.45
  Q 486.62 224.06 486.48 223.67
  Q 483.57 215.94 478.42 211.75
  Q 466.61 202.13 450.57 201.75
  C 442.14 201.55 435.16 202.11 428.55 207.56
  C 419.79 214.78 420.57 226.59 424.88 236.32
  Q 427.48 242.19 431.26 248.07
  C 432.15 249.45 432.66 251.03 431.84 252.63
  C 430.19 255.81 428.83 257.96 425.25 257.05
  Q 419.86 255.67 414.85 253.20
  C 411.30 251.45 408.17 250.08 406.50 254.79
  Q 404.51 260.37 405.79 266.61
  Q 410.93 291.72 431.73 305.27
  C 442.31 312.16 457.47 317.07 470.06 313.58
  C 475.14 312.18 481.10 308.08 482.63 302.61
  Q 482.88 301.72 483.79 298.75
  Q 484.70 295.75 484.78 292.89
  Q 485.41 271.24 474.55 251.25
  Q 471.19 245.08 466.26 241.80
  C 465.54 241.32 465.14 240.72 464.79 239.99
  Q 464.65 239.71 464.54 238.51
  Q 464.35 236.43 462.78 234.36
  Q 460.70 231.61 457.73 228.30
  A 2.37 2.37 0.0 0 1 457.56 225.37
  Z
  M 502.24 227.30
  Q 502.50 227.38 502.50 227.11
  Q 502.52 222.25 500.62 217.35
  Q 499.96 215.61 498.18 215.07
  L 489.17 212.32
  Q 487.42 211.78 488.55 213.23
  Q 492.59 218.38 493.22 224.32
  Q 493.25 224.55 493.47 224.62
  L 502.24 227.30
  Z
  M 502.00 234.18
  A 0.34 0.34 0.0 0 0 501.78 233.68
  L 494.91 232.15
  A 0.34 0.34 0.0 0 0 494.54 232.31
  L 490.62 238.81
  A 0.34 0.34 0.0 0 0 490.83 239.32
  L 497.78 241.16
  A 0.34 0.34 0.0 0 0 498.16 241.00
  L 502.00 234.18
  Z
  M 494.07 249.85
  C 493.78 248.95 493.91 248.36 494.04 247.49
  Q 494.12 246.91 493.54 246.84
  C 492.34 246.70 490.38 246.44 488.94 245.79
  Q 484.86 243.95 481.09 246.77
  Q 480.69 247.06 480.94 247.49
  L 485.27 255.00
  A 0.61 0.61 0.0 0 0 485.64 255.27
  L 499.66 258.54
  A 0.27 0.27 0.0 0 0 499.93 258.11
  Q 498.58 256.38 496.87 254.87
  Q 495.22 253.42 494.07 249.85
  Z
  M 505.77 267.07
  A 0.57 0.57 0.0 0 0 505.35 266.65
  L 489.75 263.01
  A 0.57 0.57 0.0 0 0 489.07 263.71
  L 493.36 280.08
  A 0.57 0.57 0.0 0 0 493.84 280.50
  L 508.73 282.36
  A 0.57 0.57 0.0 0 0 509.35 281.66
  L 505.77 267.07
  Z
  M 499.18 309.97
  L 490.69 306.80
  Q 490.11 306.58 489.79 307.13
  Q 486.78 312.29 481.97 315.93
  A 0.40 0.40 0.0 0 0 482.05 316.61
  L 488.88 319.79
  Q 489.36 320.01 489.86 319.83
  Q 493.75 318.47 497.09 316.31
  Q 511.54 306.99 509.76 289.43
  Q 509.71 288.91 509.18 288.90
  Q 504.01 288.79 499.00 287.70
  Q 498.35 287.56 494.12 287.37
  Q 493.79 287.36 493.75 287.70
  L 492.41 300.03
  Q 492.36 300.48 492.80 300.61
  Q 497.58 302.00 501.84 303.90
  Q 505.04 305.33 503.67 307.94
  L 503.47 308.33
  Q 502.05 311.04 499.18 309.97
  Z
  M 472.30 319.92
  Q 472.24 319.94 464.87 321.44
  Q 464.15 321.59 464.85 321.82
  Q 470.33 323.63 478.18 322.89
  A 0.31 0.30 60.6 0 0 478.33 322.34
  L 474.30 319.37
  Q 473.98 319.13 473.64 319.34
  Q 472.99 319.73 472.30 319.92
  Z"
/>
<path fill="#ffffff" d="
  M 96.03 200.32
  C 94.63 199.61 94.53 197.80 92.71 196.98
  Q 89.83 195.68 86.49 193.53
  Q 86.05 193.25 86.55 193.11
  Q 87.94 192.75 94.70 194.08
  Q 103.47 195.81 104.69 204.59
  A 0.53 0.52 14.1 0 1 103.86 205.08
  Q 100.19 202.43 96.03 200.32
  Z"
/>
<path fill="#000000" d="
  M 236.88 202.38
  C 238.53 200.39 240.16 199.34 242.74 198.89
  Q 250.74 197.49 258.96 199.05
  C 266.20 200.42 267.43 205.07 268.11 211.62
  Q 268.58 216.23 269.68 228.76
  Q 270.43 237.27 270.65 245.91
  Q 271.12 264.70 271.28 283.50
  Q 271.35 292.68 270.62 300.63
  Q 270.39 303.12 268.92 305.35
  Q 267.87 306.94 264.82 307.46
  Q 256.43 308.89 247.70 307.17
  A 2.12 2.10 -61.0 0 0 245.82 307.72
  Q 233.80 319.19 217.85 322.50
  Q 212.92 323.53 206.21 323.61
  Q 195.82 323.74 194.37 323.73
  Q 181.74 323.72 169.75 319.04
  C 159.03 314.87 150.28 306.61 147.75 295.28
  Q 146.72 290.67 146.16 287.62
  Q 145.67 284.98 145.82 279.87
  Q 145.85 278.70 146.09 269.75
  Q 146.38 258.70 149.84 248.65
  Q 162.19 212.76 196.49 198.74
  C 209.16 193.57 225.52 192.72 236.33 202.42
  A 0.38 0.38 0.0 0 0 236.88 202.38
  Z
  M 241.51 215.78
  Q 239.59 217.27 238.24 215.22
  C 234.17 209.01 232.29 205.51 226.00 204.08
  C 216.09 201.82 204.78 205.59 196.92 211.48
  C 188.10 218.10 182.61 229.21 179.15 239.93
  C 173.90 256.24 171.99 274.83 178.55 290.55
  Q 182.90 300.99 192.67 305.74
  C 203.70 311.10 217.41 309.34 226.88 301.21
  C 231.94 296.87 235.68 289.12 237.70 282.94
  C 238.27 281.21 239.21 279.83 241.17 280.10
  Q 245.15 280.65 245.43 285.15
  Q 246.03 294.69 246.36 297.76
  Q 246.52 299.35 246.98 300.05
  C 248.76 302.81 258.67 302.42 261.68 302.09
  Q 263.19 301.93 263.65 301.68
  Q 264.35 301.31 264.55 300.14
  Q 265.16 296.47 265.24 293.00
  Q 266.13 255.97 262.35 214.12
  Q 261.95 209.65 260.88 206.74
  A 2.18 2.14 -2.1 0 0 259.44 205.42
  Q 251.20 203.16 242.91 205.13
  Q 240.46 205.71 241.25 208.02
  Q 241.55 208.89 242.69 211.72
  Q 243.66 214.11 241.80 215.56
  L 241.51 215.78
  Z
  M 179.58 216.14
  Q 179.46 216.32 179.64 216.41
  Q 181.03 217.11 182.35 217.29
  Q 182.87 217.37 183.20 216.95
  Q 187.75 211.23 191.86 207.98
  Q 193.01 207.07 191.63 207.56
  Q 188.67 208.60 186.51 211.39
  Q 185.44 212.76 184.56 213.10
  C 182.36 213.93 180.75 214.40 179.58 216.14
  Z
  M 169.04 225.76
  A 0.70 0.70 0.0 0 0 169.36 226.92
  L 175.99 228.82
  A 0.70 0.70 0.0 0 0 176.79 228.49
  L 179.56 223.59
  A 0.70 0.70 0.0 0 0 179.28 222.63
  L 174.90 220.30
  A 0.70 0.70 0.0 0 0 174.06 220.44
  L 169.04 225.76
  Z
  M 165.02 231.72
  A 0.35 0.35 0.0 0 0 164.61 231.87
  L 161.07 237.52
  A 0.35 0.35 0.0 0 0 161.29 238.05
  L 172.27 240.42
  A 0.35 0.35 0.0 0 0 172.68 240.19
  L 174.29 235.11
  A 0.35 0.35 0.0 0 0 174.06 234.67
  L 165.02 231.72
  Z
  M 158.97 243.60
  A 0.81 0.81 0.0 0 0 158.03 244.09
  L 155.80 249.68
  A 0.81 0.81 0.0 0 0 156.40 250.78
  L 168.97 253.24
  A 0.81 0.81 0.0 0 0 169.92 252.59
  L 170.87 247.24
  A 0.81 0.81 0.0 0 0 170.26 246.31
  L 158.97 243.60
  Z
  M 168.27 264.46
  A 0.41 0.41 0.0 0 0 168.72 264.06
  L 168.78 259.51
  A 0.41 0.41 0.0 0 0 168.45 259.10
  L 154.40 256.34
  A 0.41 0.41 0.0 0 0 153.92 256.65
  L 152.63 262.71
  A 0.41 0.41 0.0 0 0 152.99 263.21
  L 168.27 264.46
  Z
  M 169.0179 271.3357
  A 1.00 1.00 0.0 0 0 168.0753 270.2814
  L 152.8590 269.4307
  A 1.00 1.00 0.0 0 0 151.8048 270.3733
  L 151.4821 276.1443
  A 1.00 1.00 0.0 0 0 152.4247 277.1986
  L 167.6410 278.0493
  A 1.00 1.00 0.0 0 0 168.6952 277.1067
  L 169.0179 271.3357
  Z
  M 171.48 291.05
  A 0.51 0.51 0.0 0 0 171.97 290.38
  L 170.20 284.90
  A 0.51 0.51 0.0 0 0 169.76 284.55
  L 152.69 283.08
  A 0.51 0.51 0.0 0 0 152.14 283.63
  L 152.66 290.34
  A 0.51 0.51 0.0 0 0 153.17 290.81
  L 171.48 291.05
  Z
  M 239.81 294.98
  A 0.33 0.33 0.0 0 0 239.20 294.88
  L 236.57 299.56
  A 0.33 0.33 0.0 0 0 236.58 299.89
  L 240.03 305.70
  A 0.33 0.33 0.0 0 0 240.58 305.72
  L 241.61 304.31
  A 0.33 0.33 0.0 0 0 241.66 304.05
  L 239.81 294.98
  Z
  M 176.86 300.62
  A 0.31 0.31 0.0 0 0 177.09 300.12
  L 174.85 297.16
  A 0.31 0.31 0.0 0 0 174.61 297.04
  L 154.65 296.57
  A 0.31 0.31 0.0 0 0 154.36 297.01
  L 156.09 300.95
  A 0.31 0.31 0.0 0 0 156.38 301.13
  L 176.86 300.62
  Z
  M 234.32 310.24
  A 1.16 1.16 0.0 0 0 234.73 309.17
  L 234.11 305.07
  A 1.16 1.16 0.0 0 0 232.20 304.37
  L 228.65 307.43
  A 1.16 1.16 0.0 0 0 228.57 309.11
  L 230.99 311.60
  A 1.16 1.16 0.0 0 0 232.56 311.69
  L 234.32 310.24
  Z
  M 162.02 307.27
  A 0.32 0.32 0.0 0 0 161.87 307.87
  L 171.06 313.42
  A 0.32 0.32 0.0 0 0 171.28 313.46
  L 187.64 310.40
  A 0.32 0.32 0.0 0 0 187.75 309.82
  L 181.86 306.27
  A 0.32 0.32 0.0 0 0 181.68 306.23
  L 162.02 307.27
  Z
  M 218.18 312.83
  A 0.30 0.30 0.0 0 0 218.10 313.35
  L 221.75 316.01
  A 0.30 0.30 0.0 0 0 222.00 316.05
  L 226.07 314.99
  A 0.30 0.30 0.0 0 0 226.25 314.55
  L 224.08 310.93
  A 0.30 0.30 0.0 0 0 223.72 310.80
  L 218.18 312.83
  Z
  M 200.69 313.08
  L 182.86 315.84
  A 0.14 0.14 0.0 0 0 182.75 316.00
  L 182.75 316.03
  A 8.77 3.13 -8.8 0 0 191.90 317.78
  L 192.67 317.66
  A 8.77 3.13 -8.8 0 0 200.86 313.23
  L 200.85 313.20
  A 0.14 0.14 0.0 0 0 200.69 313.08
  Z
  M 214.13 317.37
  L 213.08 315.97
  A 1.91 1.91 0.0 0 0 210.96 315.32
  Q 205.63 317.09 202.88 318.99
  Q 201.67 319.84 203.15 319.74
  Q 207.25 319.46 213.69 318.46
  Q 214.83 318.29 214.13 317.37
  Z"
/>
<path fill="#ffffff" d="
  M 69.47 197.02
  A 0.06 0.06 0.0 0 1 69.43 196.95
  L 69.44 196.93
  A 6.59 2.80 20.0 0 1 76.59 196.55
  L 77.72 196.96
  A 6.59 2.80 20.0 0 1 82.95 201.85
  L 82.94 201.87
  A 0.06 0.06 0.0 0 1 82.87 201.90
  L 69.47 197.02
  Z"
/>
<path fill="#ffffff" d="
  M 471.08 198.83
  Q 478.03 199.20 484.29 201.82
  C 485.64 202.39 488.45 203.34 490.19 204.70
  Q 492.25 206.32 489.76 205.51
  Q 485.00 203.95 481.67 203.66
  Q 478.40 203.38 476.65 202.34
  Q 475.08 201.40 471.01 199.46
  Q 470.87 199.39 470.85 199.24
  Q 470.83 199.04 470.87 198.96
  A 0.22 0.21 -76.4 0 1 471.08 198.83
  Z"
/>
<path fill="#ffffff" d="
  M 376.21 202.39
  A 0.13 0.13 0.0 0 1 376.29 202.22
  L 381.04 200.53
  A 0.38 0.23 70.4 0 1 381.38 200.81
  L 381.46 201.04
  A 0.38 0.23 70.4 0 1 381.37 201.47
  L 376.63 203.16
  A 0.13 0.13 0.0 0 1 376.46 203.08
  L 376.21 202.39
  Z"
/>
<path fill="#ffffff" d="
  M 303.63 227.37
  Q 302.98 226.85 301.76 227.02
  C 296.20 227.79 288.54 228.45 284.67 225.71
  Q 284.22 225.39 284.22 224.84
  C 284.25 219.05 290.20 215.01 294.80 212.55
  Q 314.08 202.24 337.26 201.24
  C 349.25 200.71 363.79 203.01 374.02 209.45
  C 377.37 211.55 379.47 213.62 380.45 217.36
  Q 380.58 217.86 380.37 218.33
  Q 379.56 220.13 377.99 221.02
  Q 375.01 222.71 373.06 224.32
  Q 372.36 224.89 367.54 226.11
  Q 364.98 226.76 361.85 226.76
  Q 358.39 226.76 350.07 226.67
  C 340.78 226.57 334.11 230.00 332.60 239.64
  Q 331.63 245.81 331.95 254.26
  Q 332.61 271.89 332.90 278.32
  C 333.21 285.34 333.47 309.04 326.29 312.05
  C 318.68 315.23 315.60 306.98 313.98 301.60
  Q 310.09 288.71 308.87 274.40
  Q 308.07 265.10 307.78 262.26
  Q 306.86 253.43 307.17 250.00
  Q 307.98 240.86 308.01 236.24
  Q 308.04 230.95 303.63 227.37
  Z"
/>
<path fill="#ffffff" d="
  M 457.56 225.37
  A 2.37 2.37 0.0 0 0 457.73 228.30
  Q 460.70 231.61 462.78 234.36
  Q 464.35 236.43 464.54 238.51
  Q 464.65 239.71 464.79 239.99
  C 465.14 240.72 465.54 241.32 466.26 241.80
  Q 471.19 245.08 474.55 251.25
  Q 485.41 271.24 484.78 292.89
  Q 484.70 295.75 483.79 298.75
  Q 482.88 301.72 482.63 302.61
  C 481.10 308.08 475.14 312.18 470.06 313.58
  C 457.47 317.07 442.31 312.16 431.73 305.27
  Q 410.93 291.72 405.79 266.61
  Q 404.51 260.37 406.50 254.79
  C 408.17 250.08 411.30 251.45 414.85 253.20
  Q 419.86 255.67 425.25 257.05
  C 428.83 257.96 430.19 255.81 431.84 252.63
  C 432.66 251.03 432.15 249.45 431.26 248.07
  Q 427.48 242.19 424.88 236.32
  C 420.57 226.59 419.79 214.78 428.55 207.56
  C 435.16 202.11 442.14 201.55 450.57 201.75
  Q 466.61 202.13 478.42 211.75
  Q 483.57 215.94 486.48 223.67
  Q 486.62 224.06 486.30 224.45
  C 485.92 224.91 485.23 225.28 484.87 226.09
  Q 483.69 228.75 486.15 230.43
  Q 486.61 230.75 486.38 231.26
  Q 484.11 236.30 480.32 239.08
  C 477.72 240.99 476.88 239.21 475.51 237.31
  Q 471.85 232.24 468.95 228.07
  Q 466.79 224.97 461.45 223.77
  C 459.78 223.39 458.43 224.14 457.56 225.37
  Z"
/>
<path fill="#ffffff" d="
  M 67.08 210.33
  L 54.65 208.69
  A 0.31 0.31 0.0 0 1 54.48 208.15
  L 60.52 202.42
  A 0.31 0.31 0.0 0 1 60.82 202.34
  L 71.95 205.84
  A 0.31 0.31 0.0 0 1 72.06 206.37
  L 67.31 210.26
  A 0.31 0.31 0.0 0 1 67.08 210.33
  Z"
/>
<path fill="#ffffff" d="
  M 241.51 215.78
  L 241.80 215.56
  Q 243.66 214.11 242.69 211.72
  Q 241.55 208.89 241.25 208.02
  Q 240.46 205.71 242.91 205.13
  Q 251.20 203.16 259.44 205.42
  A 2.18 2.14 -2.1 0 1 260.88 206.74
  Q 261.95 209.65 262.35 214.12
  Q 266.13 255.97 265.24 293.00
  Q 265.16 296.47 264.55 300.14
  Q 264.35 301.31 263.65 301.68
  Q 263.19 301.93 261.68 302.09
  C 258.67 302.42 248.76 302.81 246.98 300.05
  Q 246.52 299.35 246.36 297.76
  Q 246.03 294.69 245.43 285.15
  Q 245.15 280.65 241.17 280.10
  C 239.21 279.83 238.27 281.21 237.70 282.94
  C 235.68 289.12 231.94 296.87 226.88 301.21
  C 217.41 309.34 203.70 311.10 192.67 305.74
  Q 182.90 300.99 178.55 290.55
  C 171.99 274.83 173.90 256.24 179.15 239.93
  C 182.61 229.21 188.10 218.10 196.92 211.48
  C 204.78 205.59 216.09 201.82 226.00 204.08
  C 232.29 205.51 234.17 209.01 238.24 215.22
  Q 239.59 217.27 241.51 215.78
  Z
  M 207.41 283.75
  Q 209.07 284.22 210.45 283.66
  Q 210.92 283.46 211.16 283.01
  Q 211.90 281.56 211.98 280.45
  Q 213.87 255.34 212.69 236.68
  C 212.36 231.50 211.24 225.82 205.02 225.37
  Q 201.97 225.16 200.58 225.64
  A 2.77 2.60 -19.9 0 0 198.83 229.08
  Q 199.42 230.60 199.61 232.33
  Q 200.11 236.84 200.29 246.75
  Q 200.47 256.96 200.76 283.50
  Q 200.77 285.09 201.55 286.14
  Q 201.86 286.55 202.37 286.65
  Q 204.60 287.09 206.22 285.59
  Q 206.57 285.27 206.68 284.82
  L 206.85 284.08
  A 0.45 0.45 0.0 0 1 207.41 283.75
  Z"
/>
<path fill="#ffffff" d="
  M 73.76 254.41
  C 76.79 262.15 85.66 263.96 92.79 264.17
  Q 93.80 264.20 113.75 264.55
  Q 120.18 264.67 125.18 267.55
  C 128.42 269.41 129.36 273.62 129.44 277.57
  C 129.64 287.84 121.42 295.02 112.80 300.11
  Q 102.32 306.30 90.42 301.56
  C 74.58 295.25 62.77 282.36 59.55 265.34
  Q 57.68 255.44 59.72 245.39
  Q 62.74 230.52 70.24 218.69
  Q 74.61 211.80 84.63 208.33
  Q 90.63 206.26 94.63 207.83
  Q 99.67 209.80 102.43 215.65
  C 103.39 217.69 103.06 219.99 102.60 222.08
  Q 102.06 224.54 98.76 225.28
  Q 96.08 225.88 88.10 228.18
  Q 80.63 230.33 78.06 232.54
  C 71.27 238.38 70.63 246.40 73.76 254.41
  Z"
/>
<path fill="#ffffff" d="
  M 179.58 216.14
  C 180.75 214.40 182.36 213.93 184.56 213.10
  Q 185.44 212.76 186.51 211.39
  Q 188.67 208.60 191.63 207.56
  Q 193.01 207.07 191.86 207.98
  Q 187.75 211.23 183.20 216.95
  Q 182.87 217.37 182.35 217.29
  Q 181.03 217.11 179.64 216.41
  Q 179.46 216.32 179.58 216.14
  Z"
/>
<path fill="#ffffff" d="
  M 387.36 218.87
  C 387.62 215.54 386.19 212.17 384.16 209.48
  Q 383.49 208.60 384.60 208.58
  L 387.74 208.50
  Q 388.75 208.47 389.19 209.39
  C 391.31 213.86 391.09 220.42 390.46 225.27
  Q 390.40 225.69 389.98 225.65
  L 385.00 225.11
  Q 384.41 225.04 384.70 224.52
  Q 387.28 219.97 387.36 218.87
  Z"
/>
<path fill="#ffffff" d="
  M 502.24 227.30
  L 493.47 224.62
  Q 493.25 224.55 493.22 224.32
  Q 492.59 218.38 488.55 213.23
  Q 487.42 211.78 489.17 212.32
  L 498.18 215.07
  Q 499.96 215.61 500.62 217.35
  Q 502.52 222.25 502.50 227.11
  Q 502.50 227.38 502.24 227.30
  Z"
/>
<path fill="#ffffff" d="
  M 49.25 215.45
  L 61.44 217.03
  A 0.49 0.49 0.0 0 1 61.83 217.71
  L 59.21 223.55
  A 0.49 0.49 0.0 0 1 58.74 223.83
  L 45.49 223.19
  A 0.49 0.49 0.0 0 1 45.08 222.46
  L 48.76 215.70
  A 0.49 0.49 0.0 0 1 49.25 215.45
  Z"
/>
<path fill="#ffffff" d="
  M 169.04 225.76
  L 174.06 220.44
  A 0.70 0.70 0.0 0 1 174.90 220.30
  L 179.28 222.63
  A 0.70 0.70 0.0 0 1 179.56 223.59
  L 176.79 228.49
  A 0.70 0.70 0.0 0 1 175.99 228.82
  L 169.36 226.92
  A 0.70 0.70 0.0 0 1 169.04 225.76
  Z"
/>
<path fill="#000000" d="
  M 206.85 284.08
  L 206.68 284.82
  Q 206.57 285.27 206.22 285.59
  Q 204.60 287.09 202.37 286.65
  Q 201.86 286.55 201.55 286.14
  Q 200.77 285.09 200.76 283.50
  Q 200.47 256.96 200.29 246.75
  Q 200.11 236.84 199.61 232.33
  Q 199.42 230.60 198.83 229.08
  A 2.77 2.60 -19.9 0 1 200.58 225.64
  Q 201.97 225.16 205.02 225.37
  C 211.24 225.82 212.36 231.50 212.69 236.68
  Q 213.87 255.34 211.98 280.45
  Q 211.90 281.56 211.16 283.01
  Q 210.92 283.46 210.45 283.66
  Q 209.07 284.22 207.41 283.75
  A 0.45 0.45 0.0 0 0 206.85 284.08
  Z"
/>
<path fill="#ffffff" d="
  M 52.38 242.74
  L 39.99 241.45
  A 0.40 0.40 0.0 0 1 39.64 240.96
  L 41.97 230.22
  A 0.40 0.40 0.0 0 1 42.39 229.91
  L 55.39 231.00
  A 0.40 0.40 0.0 0 1 55.75 231.50
  L 52.81 242.45
  A 0.40 0.40 0.0 0 1 52.38 242.74
  Z"
/>
<path fill="#ffffff" d="
  M 381.11 235.34
  A 1.74 1.73 -85.2 0 0 380.01 234.03
  L 374.94 232.14
  A 0.80 0.80 0.0 0 1 374.94 230.64
  C 376.89 229.92 378.64 229.63 380.66 230.33
  Q 384.61 231.72 388.47 232.16
  Q 389.13 232.24 388.74 232.78
  Q 386.42 235.99 382.08 237.81
  A 0.42 0.41 -17.2 0 1 381.51 237.51
  L 381.11 235.34
  Z"
/>
<path fill="#ffffff" d="
  M 165.02 231.72
  L 174.06 234.67
  A 0.35 0.35 0.0 0 1 174.29 235.11
  L 172.68 240.19
  A 0.35 0.35 0.0 0 1 172.27 240.42
  L 161.29 238.05
  A 0.35 0.35 0.0 0 1 161.07 237.52
  L 164.61 231.87
  A 0.35 0.35 0.0 0 1 165.02 231.72
  Z"
/>
<path fill="#ffffff" d="
  M 502.00 234.18
  L 498.16 241.00
  A 0.34 0.34 0.0 0 1 497.78 241.16
  L 490.83 239.32
  A 0.34 0.34 0.0 0 1 490.62 238.81
  L 494.54 232.31
  A 0.34 0.34 0.0 0 1 494.91 232.15
  L 501.78 233.68
  A 0.34 0.34 0.0 0 1 502.00 234.18
  Z"
/>
<path fill="#ffffff" d="
  M 366.65 243.37
  C 365.70 241.15 363.40 240.13 361.01 240.02
  Q 351.53 239.59 340.73 237.98
  Q 340.15 237.89 340.30 237.32
  C 340.98 234.82 344.95 233.75 347.26 233.53
  C 350.67 233.22 354.69 233.14 358.50 234.17
  Q 367.67 236.65 374.33 239.24
  Q 376.70 240.16 374.32 241.04
  L 367.31 243.65
  Q 366.85 243.82 366.65 243.37
  Z"
/>
<path fill="#ffffff" d="
  M 158.97 243.60
  L 170.26 246.31
  A 0.81 0.81 0.0 0 1 170.87 247.24
  L 169.92 252.59
  A 0.81 0.81 0.0 0 1 168.97 253.24
  L 156.40 250.78
  A 0.81 0.81 0.0 0 1 155.80 249.68
  L 158.03 244.09
  A 0.81 0.81 0.0 0 1 158.97 243.60
  Z"
/>
<path fill="#ffffff" d="
  M 361.12 247.15
  Q 357.60 251.83 357.48 258.61
  Q 357.47 259.14 356.95 259.08
  Q 347.30 258.02 339.19 258.07
  Q 338.63 258.07 338.63 257.50
  L 338.63 245.04
  A 0.47 0.47 0.0 0 1 339.15 244.57
  L 361.03 246.95
  A 0.13 0.13 0.0 0 1 361.12 247.15
  Z"
/>
<path fill="#ffffff" d="
  M 494.07 249.85
  Q 495.22 253.42 496.87 254.87
  Q 498.58 256.38 499.93 258.11
  A 0.27 0.27 0.0 0 1 499.66 258.54
  L 485.64 255.27
  A 0.61 0.61 0.0 0 1 485.27 255.00
  L 480.94 247.49
  Q 480.69 247.06 481.09 246.77
  Q 484.86 243.95 488.94 245.79
  C 490.38 246.44 492.34 246.70 493.54 246.84
  Q 494.12 246.91 494.04 247.49
  C 493.91 248.36 493.78 248.95 494.07 249.85
  Z"
/>
<path fill="#ffffff" d="
  M 51.56 250.08
  L 51.77 266.39
  A 0.32 0.32 0.0 0 1 51.48 266.71
  L 40.53 267.88
  A 0.32 0.32 0.0 0 1 40.17 267.58
  L 38.67 249.07
  A 0.32 0.32 0.0 0 1 39.02 248.72
  L 51.27 249.77
  A 0.32 0.32 0.0 0 1 51.56 250.08
  Z"
/>
<path fill="#ffffff" d="
  M 168.27 264.46
  L 152.99 263.21
  A 0.41 0.41 0.0 0 1 152.63 262.71
  L 153.92 256.65
  A 0.41 0.41 0.0 0 1 154.40 256.34
  L 168.45 259.10
  A 0.41 0.41 0.0 0 1 168.78 259.51
  L 168.72 264.06
  A 0.41 0.41 0.0 0 1 168.27 264.46
  Z"
/>
<path fill="#ffffff" d="
  M 505.77 267.07
  L 509.35 281.66
  A 0.57 0.57 0.0 0 1 508.73 282.36
  L 493.84 280.50
  A 0.57 0.57 0.0 0 1 493.36 280.08
  L 489.07 263.71
  A 0.57 0.57 0.0 0 1 489.75 263.01
  L 505.35 266.65
  A 0.57 0.57 0.0 0 1 505.77 267.07
  Z"
/>
<path fill="#ffffff" d="
  M 357.28 273.14
  L 340.27 271.81
  A 1.01 1.01 0.0 0 1 339.34 270.83
  L 339.18 265.61
  A 1.01 1.01 0.0 0 1 340.27 264.57
  L 357.28 265.92
  A 1.01 1.01 0.0 0 1 358.21 266.89
  L 358.37 272.10
  A 1.01 1.01 0.0 0 1 357.28 273.14
  Z"
/>
<rect fill="#ffffff" x="-8.62" y="-3.89" transform="translate(160.25,273.74) rotate(3.2)" width="17.24" height="7.78" rx="1.00"/>
<path fill="#ffffff" d="
  M 63.79 292.02
  L 53.02 296.02
  Q 52.56 296.19 52.30 295.79
  Q 45.62 285.53 42.29 275.20
  A 0.46 0.45 80.0 0 1 42.70 274.61
  L 53.27 274.05
  A 1.17 1.16 78.2 0 1 54.43 274.81
  Q 57.72 283.85 63.91 291.59
  A 0.28 0.27 -30.2 0 1 63.79 292.02
  Z"
/>
<path fill="#ffffff" d="
  M 351.99 296.31
  C 357.65 296.80 358.43 290.30 352.52 289.70
  Q 343.23 288.75 340.46 288.82
  Q 339.86 288.83 339.86 288.22
  L 339.86 278.96
  Q 339.86 278.44 340.38 278.50
  Q 349.63 279.57 357.83 279.37
  Q 358.36 279.36 358.35 279.88
  Q 358.12 290.50 355.76 299.90
  A 1.79 1.79 0.0 0 1 353.57 301.20
  Q 352.15 300.83 351.50 300.82
  Q 347.12 300.74 340.02 300.25
  A 1.23 1.23 0.0 0 1 338.88 298.89
  L 339.13 296.63
  Q 339.26 295.43 340.46 295.49
  Q 345.55 295.75 351.99 296.31
  Z"
/>
<path fill="#ffffff" d="
  M 171.48 291.05
  L 153.17 290.81
  A 0.51 0.51 0.0 0 1 152.66 290.34
  L 152.14 283.63
  A 0.51 0.51 0.0 0 1 152.69 283.08
  L 169.76 284.55
  A 0.51 0.51 0.0 0 1 170.20 284.90
  L 171.97 290.38
  A 0.51 0.51 0.0 0 1 171.48 291.05
  Z"
/>
<path fill="#ffffff" d="
  M 499.18 309.97
  Q 502.05 311.04 503.47 308.33
  L 503.67 307.94
  Q 505.04 305.33 501.84 303.90
  Q 497.58 302.00 492.80 300.61
  Q 492.36 300.48 492.41 300.03
  L 493.75 287.70
  Q 493.79 287.36 494.12 287.37
  Q 498.35 287.56 499.00 287.70
  Q 504.01 288.79 509.18 288.90
  Q 509.71 288.91 509.76 289.43
  Q 511.54 306.99 497.09 316.31
  Q 493.75 318.47 489.86 319.83
  Q 489.36 320.01 488.88 319.79
  L 482.05 316.61
  A 0.40 0.40 0.0 0 1 481.97 315.93
  Q 486.78 312.29 489.79 307.13
  Q 490.11 306.58 490.69 306.80
  L 499.18 309.97
  Z"
/>
<path fill="#ffffff" d="
  M 239.81 294.98
  L 241.66 304.05
  A 0.33 0.33 0.0 0 1 241.61 304.31
  L 240.58 305.72
  A 0.33 0.33 0.0 0 1 240.03 305.70
  L 236.58 299.89
  A 0.33 0.33 0.0 0 1 236.57 299.56
  L 239.20 294.88
  A 0.33 0.33 0.0 0 1 239.81 294.98
  Z"
/>
<path fill="#ffffff" d="
  M 176.86 300.62
  L 156.38 301.13
  A 0.31 0.31 0.0 0 1 156.09 300.95
  L 154.36 297.01
  A 0.31 0.31 0.0 0 1 154.65 296.57
  L 174.61 297.04
  A 0.31 0.31 0.0 0 1 174.85 297.16
  L 177.09 300.12
  A 0.31 0.31 0.0 0 1 176.86 300.62
  Z"
/>
<path fill="#ffffff" d="
  M 87.09 308.56
  Q 85.17 308.89 73.34 311.06
  C 72.36 311.24 71.73 311.65 70.96 312.17
  Q 70.51 312.48 70.05 312.19
  Q 63.41 308.01 58.15 302.51
  A 0.42 0.42 0.0 0 1 58.30 301.83
  Q 64.73 299.32 69.73 298.19
  A 1.09 1.09 0.0 0 1 70.64 298.38
  Q 76.06 302.35 77.07 302.93
  Q 81.88 305.69 87.12 308.32
  A 0.13 0.12 53.1 0 1 87.09 308.56
  Z"
/>
<path fill="#ffffff" d="
  M 234.32 310.24
  L 232.56 311.69
  A 1.16 1.16 0.0 0 1 230.99 311.60
  L 228.57 309.11
  A 1.16 1.16 0.0 0 1 228.65 307.43
  L 232.20 304.37
  A 1.16 1.16 0.0 0 1 234.11 305.07
  L 234.73 309.17
  A 1.16 1.16 0.0 0 1 234.32 310.24
  Z"
/>
<path fill="#ffffff" d="
  M 162.02 307.27
  L 181.68 306.23
  A 0.32 0.32 0.0 0 1 181.86 306.27
  L 187.75 309.82
  A 0.32 0.32 0.0 0 1 187.64 310.40
  L 171.28 313.46
  A 0.32 0.32 0.0 0 1 171.06 313.42
  L 161.87 307.87
  A 0.32 0.32 0.0 0 1 162.02 307.27
  Z"
/>
<path fill="#ffffff" d="
  M 346.02 311.14
  L 336.44 312.12
  A 0.58 0.58 0.0 0 1 335.83 311.35
  L 337.25 307.24
  A 0.58 0.58 0.0 0 1 337.83 306.85
  L 351.24 307.53
  A 0.58 0.58 0.0 0 1 351.46 308.64
  L 346.21 311.09
  A 0.58 0.58 0.0 0 1 346.02 311.14
  Z"
/>
<path fill="#ffffff" d="
  M 84.51 316.36
  C 88.07 315.61 93.66 316.00 91.87 310.22
  Q 91.70 309.66 92.26 309.82
  Q 102.31 312.60 112.07 308.71
  Q 112.78 308.42 112.30 309.01
  Q 107.79 314.55 101.31 317.39
  Q 100.84 317.60 100.35 317.51
  Q 97.10 316.94 93.81 317.81
  Q 89.96 318.82 89.20 318.82
  Q 86.57 318.81 84.37 317.93
  Q 81.85 316.91 84.51 316.36
  Z"
/>
<path fill="#ffffff" d="
  M 218.18 312.83
  L 223.72 310.80
  A 0.30 0.30 0.0 0 1 224.08 310.93
  L 226.25 314.55
  A 0.30 0.30 0.0 0 1 226.07 314.99
  L 222.00 316.05
  A 0.30 0.30 0.0 0 1 221.75 316.01
  L 218.10 313.35
  A 0.30 0.30 0.0 0 1 218.18 312.83
  Z"
/>
<path fill="#ffffff" d="
  M 200.69 313.08
  A 0.14 0.14 0.0 0 1 200.85 313.20
  L 200.86 313.23
  A 8.77 3.13 -8.8 0 1 192.67 317.66
  L 191.90 317.78
  A 8.77 3.13 -8.8 0 1 182.75 316.03
  L 182.75 316.00
  A 0.14 0.14 0.0 0 1 182.86 315.84
  L 200.69 313.08
  Z"
/>
<path fill="#ffffff" d="
  M 213.69 318.46
  Q 207.25 319.46 203.15 319.74
  Q 201.67 319.84 202.88 318.99
  Q 205.63 317.09 210.96 315.32
  A 1.91 1.91 0.0 0 1 213.08 315.97
  L 214.13 317.37
  Q 214.83 318.29 213.69 318.46
  Z"
/>
<path fill="#ffffff" d="
  M 472.30 319.92
  Q 472.99 319.73 473.64 319.34
  Q 473.98 319.13 474.30 319.37
  L 478.33 322.34
  A 0.31 0.30 60.6 0 1 478.18 322.89
  Q 470.33 323.63 464.85 321.82
  Q 464.15 321.59 464.87 321.44
  Q 472.24 319.94 472.30 319.92
  Z"
/>
</svg>
