<?xml version="1.0" encoding="UTF-8" standalone="no"?>
<!DOCTYPE svg PUBLIC "-//W3C//DTD SVG 1.1//EN" "http://www.w3.org/Graphics/SVG/1.1/DTD/svg11.dtd">
<svg xmlns="http://www.w3.org/2000/svg" version="1.1" viewBox="0.00 0.00 300.00 56.00">
<g stroke-width="2.00" fill="none" stroke-linecap="butt">
<path stroke="#b1b0b1" vector-effect="non-scaling-stroke" d="
  M 44.73 36.27
  Q 159.82 36.38 274.77 36.28
  Q 274.82 36.28 276.24 36.32
  C 281.96 36.49 286.42 31.95 283.83 26.15
  Q 282.11 22.30 277.50 22.29
  Q 164.86 22.18 52.21 22.30"
/>
<path stroke="#9d9d9d" vector-effect="non-scaling-stroke" d="
  M 52.21 22.30
  L 44.91 22.40
  Q 44.46 22.41 44.16 22.07
  C 43.17 20.96 42.50 19.63 41.50 18.68
  Q 36.14 13.62 30.14 13.89
  Q 22.62 14.23 18.64 19.23
  Q 11.38 28.37 17.17 37.40
  C 22.09 45.06 32.17 47.24 39.52 41.68
  Q 40.45 40.97 42.12 38.98
  Q 43.41 37.46 44.73 36.27"
/>
<path stroke="#4f4e4f" vector-effect="non-scaling-stroke" d="
  M 52.21 22.30
  Q 52.32 23.08 51.95 23.67"
/>
<path stroke="#535353" vector-effect="non-scaling-stroke" d="
  M 51.95 23.67
  L 46.29 23.71
  Q 44.88 23.72 45.31 25.06
  Q 46.62 29.11 45.20 33.73
  Q 45.04 34.25 45.51 35.01"
/>
<path stroke="#4f4e4f" vector-effect="non-scaling-stroke" d="
  M 45.51 35.01
  Q 45.77 35.69 44.73 36.27"
/>
<path stroke="#676667" vector-effect="non-scaling-stroke" d="
  M 45.51 35.01
  Q 47.51 35.15 52.50 35.15
  Q 139.89 35.10 271.75 35.08
  Q 277.24 35.07 280.54 34.21
  A 1.44 1.39 9.9 0 0 281.31 33.69
  Q 285.19 28.38 279.89 24.46
  Q 279.49 24.16 279.00 24.17
  Q 244.59 24.33 79.25 24.24
  Q 63.91 24.23 51.95 23.67"
/>
</g>
<path fill="#ffffff" fill-opacity="0" d="
  M 300.00 0.00
  L 300.00 56.00
  L 0.00 56.00
  L 0.00 0.00
  L 300.00 0.00
  Z
  M 44.73 36.27
  Q 159.82 36.38 274.77 36.28
  Q 274.82 36.28 276.24 36.32
  C 281.96 36.49 286.42 31.95 283.83 26.15
  Q 282.11 22.30 277.50 22.29
  Q 164.86 22.18 52.21 22.30
  L 44.91 22.40
  Q 44.46 22.41 44.16 22.07
  C 43.17 20.96 42.50 19.63 41.50 18.68
  Q 36.14 13.62 30.14 13.89
  Q 22.62 14.23 18.64 19.23
  Q 11.38 28.37 17.17 37.40
  C 22.09 45.06 32.17 47.24 39.52 41.68
  Q 40.45 40.97 42.12 38.98
  Q 43.41 37.46 44.73 36.27
  Z"
/>
<path fill="#3b3b3b" d="
  M 52.21 22.30
  Q 52.32 23.08 51.95 23.67
  L 46.29 23.71
  Q 44.88 23.72 45.31 25.06
  Q 46.62 29.11 45.20 33.73
  Q 45.04 34.25 45.51 35.01
  Q 45.77 35.69 44.73 36.27
  Q 43.41 37.46 42.12 38.98
  Q 40.45 40.97 39.52 41.68
  C 32.17 47.24 22.09 45.06 17.17 37.40
  Q 11.38 28.37 18.64 19.23
  Q 22.62 14.23 30.14 13.89
  Q 36.14 13.62 41.50 18.68
  C 42.50 19.63 43.17 20.96 44.16 22.07
  Q 44.46 22.41 44.91 22.40
  L 52.21 22.30
  Z"
/>
<path fill="#636163" d="
  M 44.73 36.27
  Q 45.77 35.69 45.51 35.01
  Q 47.51 35.15 52.50 35.15
  Q 139.89 35.10 271.75 35.08
  Q 277.24 35.07 280.54 34.21
  A 1.44 1.39 9.9 0 0 281.31 33.69
  Q 285.19 28.38 279.89 24.46
  Q 279.49 24.16 279.00 24.17
  Q 244.59 24.33 79.25 24.24
  Q 63.91 24.23 51.95 23.67
  Q 52.32 23.08 52.21 22.30
  Q 164.86 22.18 277.50 22.29
  Q 282.11 22.30 283.83 26.15
  C 286.42 31.95 281.96 36.49 276.24 36.32
  Q 274.82 36.28 274.77 36.28
  Q 159.82 36.38 44.73 36.27
  Z"
/>
<path fill="#6b6b6b" d="
  M 51.95 23.67
  Q 63.91 24.23 79.25 24.24
  Q 244.59 24.33 279.00 24.17
  Q 279.49 24.16 279.89 24.46
  Q 285.19 28.38 281.31 33.69
  A 1.44 1.39 9.9 0 1 280.54 34.21
  Q 277.24 35.07 271.75 35.08
  Q 139.89 35.10 52.50 35.15
  Q 47.51 35.15 45.51 35.01
  Q 45.04 34.25 45.20 33.73
  Q 46.62 29.11 45.31 25.06
  Q 44.88 23.72 46.29 23.71
  L 51.95 23.67
  Z"
/>
</svg>
